<?xml version="1.0" encoding="UTF-8"?>
<svg height="600" width="800" xmlns="http://www.w3.org/2000/svg" xmlns:xlink="http://www.w3.org/1999/xlink">
    <style>
        .cls-1 { fill: none }
    </style>
    <g id="Notes" font-family="LucidaGrande, 'Lucida Grande', sans-serif" font-size="13">
        <rect fill="white" height="600.0" width="800.0" x="0.0" y="0.0" />
        <g font-size="13">
            <text x="18.0" y="176.0">Small</text>
            <text x="18.0" y="376.0">Medium</text>
            <text x="18.0" y="576.0">Large</text>
        </g>
        <g font-size="9">
            <text x="250.0" y="30.0">Ultralight</text>
            <text x="450.0" y="30.0">Regular</text>
            <text x="650.0" y="30.0">Black</text>
            <text id="template-version" fill="#505050" text-anchor="end" x="785.0" y="575.0">Template v.3.0</text>
            <a href="https://github.com/swhitty/SwiftDraw">
                <text fill="#505050" text-anchor="end" x="785.0" y="590.0">https://github.com/swhitty/SwiftDraw</text>
            </a>
        </g>
    </g>
    <g id="Guides" stroke="rgb(39, 170, 225)" stroke-width="0.5">
        <path id="Capline-S" d="M18,76 l800,0" />
        <path id="H-reference" d="M85,145.755 L87.685,145.755 L113.369,79.287 L114.052,79.287 L114.052,76 L112.148,76 L85,145.755 Z M95.693,121.536 L130.996,121.536 L130.263,119.313 L96.474,119.313 L95.693,121.536 Z M139.15,145.755 L141.787,145.755 L114.638,76 L113.466,76 L113.466,79.287 L139.15,145.755 Z" stroke="none" transform="translate(0,0)" />
        <path id="Baseline-S" d="M18,146 l800,0" />
        <path id="left-margin-Ultralight-S" d="M221,56 l0,110" />
        <path id="right-margin-Ultralight-S" d="M309,56 l0,110" />
        <path id="left-margin-Regular-S" d="M421,56 l0,110" />
        <path id="right-margin-Regular-S" d="M509,56 l0,110" />
        <path id="left-margin-Black-S" d="M621,56 l0,110" />
        <path id="right-margin-Black-S" d="M709,56 l0,110" />
        <path id="Capline-M" d="M18,276 l800,0" />
        <path id="Baseline-M" d="M18,346 l800,0" />
        <path id="Capline-L" d="M18,476 l800,0" />
        <path id="Baseline-L" d="M18,546 l800,0" />
    </g>
    <g id="Symbols">
        <g id="Ultralight-S" transform="translate(0,0)">
            <path d="M291.4,110.12 L291.4,113.64 L284.36,113.64 L284.36,110.12 Z" />
            <path d="M282.6,91.793 L285.089,94.281 L279.809,99.561 L277.32,97.073 Z" />
            <path d="M266.76,85.48 L266.76,92.52 L263.24,92.52 L263.24,85.48 Z" />
            <path d="M250.191,124.201 L252.68,126.69 L247.4,131.97 L244.911,129.481 Z" />
            <path d="M247.4,91.792 L252.68,97.072 L250.191,99.561 L244.911,94.281 Z" />
            <path d="M245.64,110.12 L245.64,113.64 L238.6,113.64 L238.6,110.12 Z" />
            <path d="M283.997,119.522 C283.45,117.339 282.312,115.35 280.709,113.771 C280.793,113.144 280.837,112.513 280.84,111.88 C280.86,104.477 275.749,98.047 268.533,96.396 C261.317,94.745 253.919,98.313 250.718,104.988 C247.516,111.663 249.365,119.665 255.171,124.259 C253.987,126.973 254.255,130.102 255.883,132.576 C257.511,135.05 260.279,136.534 263.24,136.52 L280.84,136.52 C285.079,136.525 288.718,133.503 289.492,129.335 C290.267,125.166 287.956,121.04 283.997,119.522 Z M252.68,111.88 C252.676,105.177 258.032,99.704 264.732,99.562 C271.432,99.42 277.014,104.663 277.293,111.359 C275.658,110.556 273.862,110.133 272.04,110.12 C266.373,110.15 261.449,114.022 260.082,119.522 C259.005,119.94 258.022,120.567 257.189,121.366 C254.339,119.04 252.684,115.558 252.68,111.88 Z M280.84,133 L263.24,133 C260.564,133.005 258.31,131.004 257.996,128.346 C257.683,125.689 259.411,123.219 262.014,122.602 L263.174,122.325 L263.347,121.146 C263.982,116.834 267.682,113.64 272.04,113.64 C276.398,113.64 280.098,116.834 280.733,121.146 L280.906,122.324 L282.065,122.601 C284.671,123.216 286.401,125.688 286.087,128.346 C285.774,131.005 283.517,133.007 280.84,133 Z" />
        </g>
        <g id="Regular-S" transform="translate(0,0)">
            <path d="M491.4,110.12 L491.4,113.64 L484.36,113.64 L484.36,110.12 Z" />
            <path d="M482.6,91.793 L485.089,94.281 L479.809,99.561 L477.32,97.073 Z" />
            <path d="M466.76,85.48 L466.76,92.52 L463.24,92.52 L463.24,85.48 Z" />
            <path d="M450.191,124.201 L452.68,126.69 L447.4,131.97 L444.911,129.481 Z" />
            <path d="M447.4,91.792 L452.68,97.072 L450.191,99.561 L444.911,94.281 Z" />
            <path d="M445.64,110.12 L445.64,113.64 L438.6,113.64 L438.6,110.12 Z" />
            <path d="M483.997,119.522 C483.45,117.339 482.312,115.35 480.709,113.771 C480.793,113.144 480.837,112.513 480.84,111.88 C480.86,104.477 475.749,98.047 468.533,96.396 C461.317,94.745 453.919,98.313 450.718,104.988 C447.516,111.663 449.365,119.665 455.171,124.259 C453.987,126.973 454.255,130.102 455.883,132.576 C457.511,135.05 460.279,136.534 463.24,136.52 L480.84,136.52 C485.079,136.525 488.718,133.503 489.492,129.335 C490.267,125.166 487.956,121.04 483.997,119.522 Z M452.68,111.88 C452.676,105.177 458.032,99.704 464.732,99.562 C471.432,99.42 477.014,104.663 477.293,111.359 C475.658,110.556 473.862,110.133 472.04,110.12 C466.373,110.15 461.449,114.022 460.082,119.522 C459.005,119.94 458.022,120.567 457.189,121.366 C454.339,119.04 452.684,115.558 452.68,111.88 Z M480.84,133 L463.24,133 C460.564,133.005 458.31,131.004 457.996,128.346 C457.683,125.689 459.411,123.219 462.014,122.602 L463.174,122.325 L463.347,121.146 C463.982,116.834 467.682,113.64 472.04,113.64 C476.398,113.64 480.098,116.834 480.733,121.146 L480.906,122.324 L482.065,122.601 C484.671,123.216 486.401,125.688 486.087,128.346 C485.774,131.005 483.517,133.007 480.84,133 Z" />
        </g>
        <g id="Black-S" transform="translate(0,0)">
            <path d="M691.4,110.12 L691.4,113.64 L684.36,113.64 L684.36,110.12 Z" />
            <path d="M682.6,91.793 L685.089,94.281 L679.809,99.561 L677.32,97.073 Z" />
            <path d="M666.76,85.48 L666.76,92.52 L663.24,92.52 L663.24,85.48 Z" />
            <path d="M650.191,124.201 L652.68,126.69 L647.4,131.97 L644.911,129.481 Z" />
            <path d="M647.4,91.792 L652.68,97.072 L650.191,99.561 L644.911,94.281 Z" />
            <path d="M645.64,110.12 L645.64,113.64 L638.6,113.64 L638.6,110.12 Z" />
            <path d="M683.997,119.522 C683.45,117.339 682.312,115.35 680.709,113.771 C680.793,113.144 680.837,112.513 680.84,111.88 C680.86,104.477 675.749,98.047 668.533,96.396 C661.317,94.745 653.919,98.313 650.718,104.988 C647.516,111.663 649.365,119.665 655.171,124.259 C653.987,126.973 654.255,130.102 655.883,132.576 C657.511,135.05 660.279,136.534 663.24,136.52 L680.84,136.52 C685.079,136.525 688.718,133.503 689.492,129.335 C690.267,125.166 687.956,121.04 683.997,119.522 Z M652.68,111.88 C652.676,105.177 658.032,99.704 664.732,99.562 C671.432,99.42 677.014,104.663 677.294,111.359 C675.658,110.556 673.862,110.133 672.04,110.12 C666.373,110.15 661.449,114.022 660.082,119.522 C659.005,119.94 658.022,120.567 657.189,121.366 C654.339,119.04 652.684,115.558 652.68,111.88 Z M680.84,133 L663.24,133 C660.564,133.005 658.31,131.004 657.996,128.346 C657.683,125.689 659.411,123.219 662.015,122.602 L663.174,122.325 L663.347,121.146 C663.982,116.834 667.682,113.64 672.04,113.64 C676.398,113.64 680.098,116.834 680.733,121.146 L680.906,122.324 L682.065,122.601 C684.671,123.216 686.401,125.688 686.087,128.346 C685.774,131.005 683.517,133.007 680.84,133 Z" />
        </g>
    </g>
</svg>