<?xml version="1.0" encoding="UTF-8"?>
<svg height="600" width="800" xmlns="http://www.w3.org/2000/svg" xmlns:xlink="http://www.w3.org/1999/xlink">
    <style>
        .cls-1 { fill: none }
    </style>
    <g id="Notes" font-family="LucidaGrande, 'Lucida Grande', sans-serif" font-size="13">
        <rect fill="white" height="600.0" width="800.0" x="0.0" y="0.0" />
        <g font-size="13">
            <text x="18.0" y="176.0">Small</text>
            <text x="18.0" y="376.0">Medium</text>
            <text x="18.0" y="576.0">Large</text>
        </g>
        <g font-size="9">
            <text x="250.0" y="30.0">Ultralight</text>
            <text x="450.0" y="30.0">Regular</text>
            <text x="650.0" y="30.0">Black</text>
            <text id="template-version" fill="#505050" text-anchor="end" x="785.0" y="575.0">Template v.3.0</text>
            <a href="https://github.com/swhitty/SwiftDraw">
                <text fill="#505050" text-anchor="end" x="785.0" y="590.0">https://github.com/swhitty/SwiftDraw</text>
            </a>
        </g>
    </g>
    <g id="Guides" stroke="rgb(39, 170, 225)" stroke-width="0.5">
        <path id="Capline-S" d="M18,76 l800,0" />
        <path id="H-reference" d="M85,145.755 L87.685,145.755 L113.369,79.287 L114.052,79.287 L114.052,76 L112.148,76 L85,145.755 Z M95.693,121.536 L130.996,121.536 L130.263,119.313 L96.474,119.313 L95.693,121.536 Z M139.15,145.755 L141.787,145.755 L114.638,76 L113.466,76 L113.466,79.287 L139.15,145.755 Z" stroke="none" transform="translate(0,0)" />
        <path id="Baseline-S" d="M18,146 l800,0" />
        <path id="left-margin-Ultralight-S" d="M221,56 l0,110" />
        <path id="right-margin-Ultralight-S" d="M309,56 l0,110" />
        <path id="left-margin-Regular-S" d="M421,56 l0,110" />
        <path id="right-margin-Regular-S" d="M509,56 l0,110" />
        <path id="left-margin-Black-S" d="M621,56 l0,110" />
        <path id="right-margin-Black-S" d="M709,56 l0,110" />
        <path id="Capline-M" d="M18,276 l800,0" />
        <path id="Baseline-M" d="M18,346 l800,0" />
        <path id="Capline-L" d="M18,476 l800,0" />
        <path id="Baseline-L" d="M18,546 l800,0" />
    </g>
    <g id="Symbols">
        <g id="Ultralight-S" transform="translate(0,0)">
            <path d="M287,100 L287,133 L254,133 L254,100 L287,100 M287,96.333 L254,96.333 C253.028,96.333 252.095,96.72 251.407,97.407 C250.72,98.095 250.333,99.028 250.333,100 L250.333,133 C250.333,133.972 250.72,134.905 251.407,135.593 C252.095,136.28 253.028,136.667 254,136.667 L287,136.667 C287.972,136.667 288.905,136.28 289.593,135.593 C290.28,134.905 290.667,133.972 290.667,133 L290.667,100 C290.667,99.028 290.28,98.095 289.593,97.407 C288.905,96.72 287.972,96.333 287,96.333 Z" />
            <path d="M243,114.667 L239.333,114.667 L239.333,89 C239.333,88.028 239.72,87.095 240.407,86.407 C241.095,85.72 242.028,85.333 243,85.333 L268.667,85.333 L268.667,89 L243,89 Z" />
        </g>
        <g id="Regular-S" transform="translate(0,0)">
            <path d="M487,100 L487,133 L454,133 L454,100 L487,100 M487,96.333 L454,96.333 C453.028,96.333 452.095,96.72 451.407,97.407 C450.72,98.095 450.333,99.028 450.333,100 L450.333,133 C450.333,133.972 450.72,134.905 451.407,135.593 C452.095,136.28 453.028,136.667 454,136.667 L487,136.667 C487.972,136.667 488.905,136.28 489.593,135.593 C490.28,134.905 490.667,133.972 490.667,133 L490.667,100 C490.667,99.028 490.28,98.095 489.593,97.407 C488.905,96.72 487.972,96.333 487,96.333 Z" />
            <path d="M443,114.667 L439.333,114.667 L439.333,89 C439.333,88.028 439.72,87.095 440.407,86.407 C441.095,85.72 442.028,85.333 443,85.333 L468.667,85.333 L468.667,89 L443,89 Z" />
        </g>
        <g id="Black-S" transform="translate(0,0)">
            <path d="M687,100 L687,133 L654,133 L654,100 L687,100 M687,96.333 L654,96.333 C653.028,96.333 652.095,96.72 651.407,97.407 C650.72,98.095 650.333,99.028 650.333,100 L650.333,133 C650.333,133.972 650.72,134.905 651.407,135.593 C652.095,136.28 653.028,136.667 654,136.667 L687,136.667 C687.972,136.667 688.905,136.28 689.593,135.593 C690.28,134.905 690.667,133.972 690.667,133 L690.667,100 C690.667,99.028 690.28,98.095 689.593,97.407 C688.905,96.72 687.972,96.333 687,96.333 Z" />
            <path d="M643,114.667 L639.333,114.667 L639.333,89 C639.333,88.028 639.72,87.095 640.407,86.407 C641.095,85.72 642.028,85.333 643,85.333 L668.667,85.333 L668.667,89 L643,89 Z" />
        </g>
    </g>
</svg>