<?xml version="1.0" encoding="UTF-8"?>
<svg height="600" width="800" xmlns="http://www.w3.org/2000/svg" xmlns:xlink="http://www.w3.org/1999/xlink">
    <style>
        
    </style>
    <g id="Notes" font-family="LucidaGrande, 'Lucida Grande', sans-serif" font-size="13">
        <rect fill="white" height="600.0" width="800.0" x="0.0" y="0.0" />
        <g font-size="13">
            <text x="18.0" y="176.0">Small</text>
            <text x="18.0" y="376.0">Medium</text>
            <text x="18.0" y="576.0">Large</text>
        </g>
        <g font-size="9">
            <text x="250.0" y="30.0">Ultralight</text>
            <text x="450.0" y="30.0">Regular</text>
            <text x="650.0" y="30.0">Black</text>
            <text id="template-version" fill="#505050" text-anchor="end" x="785.0" y="575.0">Template v.3.0</text>
            <a href="https://github.com/swhitty/SwiftDraw">
                <text fill="#505050" text-anchor="end" x="785.0" y="590.0">https://github.com/swhitty/SwiftDraw</text>
            </a>
        </g>
    </g>
    <g id="Guides" stroke="rgb(39, 170, 225)" stroke-width="0.5">
        <path id="Capline-S" d="M18,76 l800,0" />
        <path id="H-reference" d="M85,145.755 L87.685,145.755 L113.369,79.287 L114.052,79.287 L114.052,76 L112.148,76 L85,145.755 Z M95.693,121.536 L130.996,121.536 L130.263,119.313 L96.474,119.313 L95.693,121.536 Z M139.15,145.755 L141.787,145.755 L114.638,76 L113.466,76 L113.466,79.287 L139.15,145.755 Z" stroke="none" transform="translate(0,0)" />
        <path id="Baseline-S" d="M18,146 l800,0" />
        <path id="left-margin-Ultralight-S" d="M221,56 l0,110" />
        <path id="right-margin-Ultralight-S" d="M309,56 l0,110" />
        <path id="left-margin-Regular-S" d="M421,56 l0,110" />
        <path id="right-margin-Regular-S" d="M509,56 l0,110" />
        <path id="left-margin-Black-S" d="M621,56 l0,110" />
        <path id="right-margin-Black-S" d="M709,56 l0,110" />
        <path id="Capline-M" d="M18,276 l800,0" />
        <path id="Baseline-M" d="M18,346 l800,0" />
        <path id="Capline-L" d="M18,476 l800,0" />
        <path id="Baseline-L" d="M18,546 l800,0" />
    </g>
    <g id="Symbols">
        <g id="Ultralight-S" transform="translate(0,0)">
            <path d="M271.769,116.077 L268.385,116.077 L268.385,112.692 L261.615,112.692 L261.615,116.077 L258.231,116.077 L258.231,112.692 C258.233,110.824 259.747,109.31 261.615,109.308 L268.384,109.308 C270.253,109.31 271.767,110.824 271.769,112.692 Z" />
            <path d="M265,107.615 C262.196,107.615 259.923,105.342 259.923,102.538 C259.923,99.735 262.196,97.462 265,97.462 C267.804,97.462 270.077,99.735 270.077,102.538 C270.074,105.341 267.803,107.612 265,107.615 Z M265,100.846 C264.065,100.846 263.308,101.604 263.308,102.538 C263.308,103.473 264.065,104.231 265,104.231 C265.935,104.231 266.692,103.473 266.692,102.538 C266.691,101.604 265.934,100.847 265,100.846 Z" />
            <path d="M265,134.692 L250.725,117.856 C250.643,117.759 250.135,117.092 250.135,117.092 C247.697,113.88 246.379,109.956 246.385,105.923 C246.385,95.642 254.719,87.308 265,87.308 C275.281,87.308 283.615,95.642 283.615,105.923 C283.622,109.953 282.305,113.875 279.868,117.087 L279.866,117.091 C279.866,117.091 279.358,117.758 279.282,117.848 Z M252.837,115.053 C252.838,115.054 253.232,115.575 253.322,115.687 L265,129.46 L276.694,115.667 C276.768,115.574 277.165,115.05 277.166,115.048 C279.158,112.424 280.235,109.218 280.231,105.923 C280.231,97.511 273.412,90.692 265,90.692 C256.588,90.692 249.769,97.511 249.769,105.923 C249.765,109.218 250.842,112.426 252.836,115.052 Z" />
            <path d="M292.077,83.923 L292.077,138.077 L237.923,138.077 L237.923,83.923 Z" />
        </g>
        <g id="Regular-S" transform="translate(0,0)">
            <path d="M471.769,116.077 L468.385,116.077 L468.385,112.692 L461.615,112.692 L461.615,116.077 L458.231,116.077 L458.231,112.692 C458.233,110.824 459.747,109.31 461.615,109.308 L468.384,109.308 C470.253,109.31 471.767,110.824 471.769,112.692 Z" />
            <path d="M465,107.615 C462.196,107.615 459.923,105.342 459.923,102.538 C459.923,99.735 462.196,97.462 465,97.462 C467.804,97.462 470.077,99.735 470.077,102.538 C470.074,105.341 467.803,107.612 465,107.615 Z M465,100.846 C464.065,100.846 463.308,101.604 463.308,102.538 C463.308,103.473 464.065,104.231 465,104.231 C465.935,104.231 466.692,103.473 466.692,102.538 C466.691,101.604 465.934,100.847 465,100.846 Z" />
            <path d="M465,134.692 L450.725,117.856 C450.643,117.759 450.135,117.092 450.135,117.092 C447.696,113.88 446.379,109.956 446.385,105.923 C446.385,95.642 454.719,87.308 465,87.308 C475.281,87.308 483.615,95.642 483.615,105.923 C483.622,109.953 482.305,113.875 479.868,117.087 L479.866,117.091 C479.866,117.091 479.358,117.758 479.282,117.848 Z M452.837,115.053 C452.838,115.054 453.232,115.575 453.322,115.687 L465,129.46 L476.694,115.667 C476.768,115.574 477.165,115.05 477.166,115.048 C479.158,112.424 480.235,109.218 480.231,105.923 C480.231,97.511 473.412,90.692 465,90.692 C456.588,90.692 449.769,97.511 449.769,105.923 C449.765,109.218 450.842,112.426 452.836,115.052 Z" />
            <path d="M492.077,83.923 L492.077,138.077 L437.923,138.077 L437.923,83.923 Z" />
        </g>
        <g id="Black-S" transform="translate(0,0)">
            <path d="M671.769,116.077 L668.385,116.077 L668.385,112.692 L661.615,112.692 L661.615,116.077 L658.231,116.077 L658.231,112.692 C658.233,110.824 659.747,109.31 661.615,109.308 L668.384,109.308 C670.253,109.31 671.767,110.824 671.769,112.692 Z" />
            <path d="M665,107.615 C662.196,107.615 659.923,105.342 659.923,102.538 C659.923,99.735 662.196,97.462 665,97.462 C667.804,97.462 670.077,99.735 670.077,102.538 C670.074,105.341 667.803,107.612 665,107.615 Z M665,100.846 C664.065,100.846 663.308,101.604 663.308,102.538 C663.308,103.473 664.065,104.231 665,104.231 C665.935,104.231 666.692,103.473 666.692,102.538 C666.691,101.604 665.934,100.847 665,100.846 Z" />
            <path d="M665,134.692 L650.725,117.856 C650.643,117.759 650.135,117.092 650.135,117.092 C647.697,113.88 646.379,109.956 646.385,105.923 C646.385,95.642 654.719,87.308 665,87.308 C675.281,87.308 683.615,95.642 683.615,105.923 C683.622,109.953 682.305,113.875 679.868,117.087 L679.866,117.091 C679.866,117.091 679.358,117.758 679.282,117.848 Z M652.837,115.053 C652.838,115.054 653.232,115.575 653.322,115.687 L665,129.46 L676.694,115.667 C676.768,115.574 677.165,115.05 677.166,115.048 C679.158,112.424 680.235,109.218 680.231,105.923 C680.231,97.511 673.412,90.692 665,90.692 C656.588,90.692 649.769,97.511 649.769,105.923 C649.765,109.218 650.842,112.426 652.836,115.052 Z" />
            <path d="M692.077,83.923 L692.077,138.077 L637.923,138.077 L637.923,83.923 Z" />
        </g>
    </g>
</svg>