<?xml version="1.0" encoding="UTF-8"?>
<svg height="600" width="800" xmlns="http://www.w3.org/2000/svg" xmlns:xlink="http://www.w3.org/1999/xlink">
    <style>
        
    </style>
    <g id="Notes" font-family="LucidaGrande, 'Lucida Grande', sans-serif" font-size="13">
        <rect fill="white" height="600.0" width="800.0" x="0.0" y="0.0" />
        <g font-size="13">
            <text x="18.0" y="176.0">Small</text>
            <text x="18.0" y="376.0">Medium</text>
            <text x="18.0" y="576.0">Large</text>
        </g>
        <g font-size="9">
            <text x="250.0" y="30.0">Ultralight</text>
            <text x="450.0" y="30.0">Regular</text>
            <text x="650.0" y="30.0">Black</text>
            <text id="template-version" fill="#505050" text-anchor="end" x="785.0" y="575.0">Template v.3.0</text>
            <a href="https://github.com/swhitty/SwiftDraw">
                <text fill="#505050" text-anchor="end" x="785.0" y="590.0">https://github.com/swhitty/SwiftDraw</text>
            </a>
        </g>
    </g>
    <g id="Guides" stroke="rgb(39, 170, 225)" stroke-width="0.5">
        <path id="Capline-S" d="M18,76 l800,0" />
        <path id="H-reference" d="M85,145.755 L87.685,145.755 L113.369,79.287 L114.052,79.287 L114.052,76 L112.148,76 L85,145.755 Z M95.693,121.536 L130.996,121.536 L130.263,119.313 L96.474,119.313 L95.693,121.536 Z M139.15,145.755 L141.787,145.755 L114.638,76 L113.466,76 L113.466,79.287 L139.15,145.755 Z" stroke="none" transform="translate(0,0)" />
        <path id="Baseline-S" d="M18,146 l800,0" />
        <path id="left-margin-Ultralight-S" d="M221,56 l0,110" />
        <path id="right-margin-Ultralight-S" d="M309,56 l0,110" />
        <path id="left-margin-Regular-S" d="M421,56 l0,110" />
        <path id="right-margin-Regular-S" d="M509,56 l0,110" />
        <path id="left-margin-Black-S" d="M621,56 l0,110" />
        <path id="right-margin-Black-S" d="M709,56 l0,110" />
        <path id="Capline-M" d="M18,276 l800,0" />
        <path id="Baseline-M" d="M18,346 l800,0" />
        <path id="Capline-L" d="M18,476 l800,0" />
        <path id="Baseline-L" d="M18,546 l800,0" />
    </g>
    <g id="Symbols">
        <g id="Ultralight-S" transform="translate(0,0)">
            <path d="M261.615,90.692 C268.158,90.692 273.462,95.996 273.462,102.538 C273.462,109.081 268.158,114.385 261.615,114.385 C255.073,114.385 249.769,109.081 249.769,102.538 C249.769,99.397 251.017,96.384 253.239,94.162 C255.46,91.94 258.474,90.692 261.615,90.692 M261.615,87.308 C253.204,87.308 246.385,94.127 246.385,102.538 C246.385,110.95 253.204,117.769 261.615,117.769 C270.027,117.769 276.846,110.95 276.846,102.538 C276.846,98.499 275.241,94.625 272.385,91.769 C269.529,88.912 265.655,87.308 261.615,87.308 Z" />
            <path d="M285.308,102.538 C285.311,96.251 282.81,90.225 278.358,85.791 L275.968,88.185 C283.91,96.095 283.938,108.944 276.03,116.888 C268.123,124.832 255.273,124.862 247.328,116.957 L247.263,116.892 L244.87,119.284 C249.306,123.735 255.332,126.235 261.615,126.231 L261.615,131.308 L254.846,131.308 L254.846,134.692 L271.769,134.692 L271.769,131.308 L265,131.308 L265,125.96 C276.643,124.273 285.287,114.303 285.308,102.538 Z" />
            <path d="M292.077,83.923 L292.077,138.077 L237.923,138.077 L237.923,83.923 Z" />
        </g>
        <g id="Regular-S" transform="translate(0,0)">
            <path d="M461.615,90.692 C468.158,90.692 473.462,95.996 473.462,102.538 C473.462,109.081 468.158,114.385 461.615,114.385 C455.073,114.385 449.769,109.081 449.769,102.538 C449.769,99.397 451.017,96.384 453.239,94.162 C455.46,91.94 458.474,90.692 461.615,90.692 M461.615,87.308 C453.204,87.308 446.385,94.127 446.385,102.538 C446.385,110.95 453.204,117.769 461.615,117.769 C470.027,117.769 476.846,110.95 476.846,102.538 C476.846,98.499 475.241,94.625 472.385,91.769 C469.529,88.912 465.655,87.308 461.615,87.308 Z" />
            <path d="M485.308,102.538 C485.311,96.251 482.81,90.225 478.358,85.791 L475.968,88.185 C483.91,96.095 483.938,108.944 476.03,116.888 C468.123,124.832 455.273,124.862 447.328,116.957 L447.263,116.892 L444.87,119.284 C449.306,123.735 455.332,126.235 461.615,126.231 L461.615,131.308 L454.846,131.308 L454.846,134.692 L471.769,134.692 L471.769,131.308 L465,131.308 L465,125.96 C476.643,124.273 485.287,114.303 485.308,102.538 Z" />
            <path d="M492.077,83.923 L492.077,138.077 L437.923,138.077 L437.923,83.923 Z" />
        </g>
        <g id="Black-S" transform="translate(0,0)">
            <path d="M661.615,90.692 C668.158,90.692 673.462,95.996 673.462,102.538 C673.462,109.081 668.158,114.385 661.615,114.385 C655.073,114.385 649.769,109.081 649.769,102.538 C649.769,99.397 651.017,96.384 653.239,94.162 C655.461,91.94 658.474,90.692 661.615,90.692 M661.615,87.308 C653.204,87.308 646.385,94.127 646.385,102.538 C646.385,110.95 653.204,117.769 661.615,117.769 C670.027,117.769 676.846,110.95 676.846,102.538 C676.846,98.499 675.242,94.625 672.385,91.769 C669.529,88.912 665.655,87.308 661.615,87.308 Z" />
            <path d="M685.308,102.538 C685.311,96.251 682.81,90.225 678.358,85.791 L675.968,88.185 C683.91,96.095 683.938,108.944 676.03,116.888 C668.123,124.832 655.273,124.862 647.328,116.957 L647.263,116.892 L644.87,119.284 C649.306,123.735 655.332,126.235 661.615,126.231 L661.615,131.308 L654.846,131.308 L654.846,134.692 L671.769,134.692 L671.769,131.308 L665,131.308 L665,125.96 C676.643,124.273 685.287,114.303 685.308,102.538 Z" />
            <path d="M692.077,83.923 L692.077,138.077 L637.923,138.077 L637.923,83.923 Z" />
        </g>
    </g>
</svg>