<?xml version="1.0" encoding="UTF-8"?>
<svg height="600" width="800" xmlns="http://www.w3.org/2000/svg" xmlns:xlink="http://www.w3.org/1999/xlink">
    <style>
        .cls-1 { fill: none }
    </style>
    <g id="Notes" font-family="LucidaGrande, 'Lucida Grande', sans-serif" font-size="13">
        <rect fill="white" height="600.0" width="800.0" x="0.0" y="0.0" />
        <g font-size="13">
            <text x="18.0" y="176.0">Small</text>
            <text x="18.0" y="376.0">Medium</text>
            <text x="18.0" y="576.0">Large</text>
        </g>
        <g font-size="9">
            <text x="250.0" y="30.0">Ultralight</text>
            <text x="450.0" y="30.0">Regular</text>
            <text x="650.0" y="30.0">Black</text>
            <text id="template-version" fill="#505050" text-anchor="end" x="785.0" y="575.0">Template v.3.0</text>
            <a href="https://github.com/swhitty/SwiftDraw">
                <text fill="#505050" text-anchor="end" x="785.0" y="590.0">https://github.com/swhitty/SwiftDraw</text>
            </a>
        </g>
    </g>
    <g id="Guides" stroke="rgb(39, 170, 225)" stroke-width="0.5">
        <path id="Capline-S" d="M18,76 l800,0" />
        <path id="H-reference" d="M85,145.755 L87.685,145.755 L113.369,79.287 L114.052,79.287 L114.052,76 L112.148,76 L85,145.755 Z M95.693,121.536 L130.996,121.536 L130.263,119.313 L96.474,119.313 L95.693,121.536 Z M139.15,145.755 L141.787,145.755 L114.638,76 L113.466,76 L113.466,79.287 L139.15,145.755 Z" stroke="none" transform="translate(0,0)" />
        <path id="Baseline-S" d="M18,146 l800,0" />
        <path id="left-margin-Ultralight-S" d="M221,56 l0,110" />
        <path id="right-margin-Ultralight-S" d="M309,56 l0,110" />
        <path id="left-margin-Regular-S" d="M421,56 l0,110" />
        <path id="right-margin-Regular-S" d="M509,56 l0,110" />
        <path id="left-margin-Black-S" d="M621,56 l0,110" />
        <path id="right-margin-Black-S" d="M709,56 l0,110" />
        <path id="Capline-M" d="M18,276 l800,0" />
        <path id="Baseline-M" d="M18,346 l800,0" />
        <path id="Capline-L" d="M18,476 l800,0" />
        <path id="Baseline-L" d="M18,546 l800,0" />
    </g>
    <g id="Symbols">
        <g id="Ultralight-S" transform="translate(0,0)">
            <path d="M268.19,134.833 L265,133 L272.333,120.167 L283.333,120.167 C284.306,120.167 285.238,119.78 285.926,119.093 C286.614,118.405 287,117.472 287,116.5 L287,94.5 C287,93.528 286.614,92.595 285.926,91.907 C285.238,91.22 284.306,90.833 283.333,90.833 L246.667,90.833 C245.694,90.833 244.762,91.22 244.074,91.907 C243.386,92.595 243,93.528 243,94.5 L243,116.5 C243,117.472 243.386,118.405 244.074,119.093 C244.762,119.78 245.694,120.167 246.667,120.167 L263.167,120.167 L263.167,123.833 L246.667,123.833 C244.722,123.833 242.856,123.061 241.481,121.685 C240.106,120.31 239.333,118.445 239.333,116.5 L239.333,94.5 C239.333,92.555 240.106,90.69 241.481,89.315 C242.856,87.939 244.722,87.167 246.667,87.167 L283.333,87.167 C285.278,87.167 287.144,87.939 288.519,89.315 C289.894,90.69 290.667,92.555 290.667,94.5 L290.667,116.5 C290.667,118.445 289.894,120.31 288.519,121.685 C287.144,123.061 285.278,123.833 283.333,123.833 L274.46,123.833 Z" />
            <path d="M279.667,98.167 L279.667,101.833 L250.333,101.833 L250.333,98.167 Z" />
            <path d="M268.667,109.167 L268.667,112.833 L250.333,112.833 L250.333,109.167 Z" />
        </g>
        <g id="Regular-S" transform="translate(0,0)">
            <path d="M468.19,134.833 L465,133 L472.333,120.167 L483.333,120.167 C484.306,120.167 485.238,119.78 485.926,119.093 C486.614,118.405 487,117.472 487,116.5 L487,94.5 C487,93.528 486.614,92.595 485.926,91.907 C485.238,91.22 484.306,90.833 483.333,90.833 L446.667,90.833 C445.694,90.833 444.762,91.22 444.074,91.907 C443.386,92.595 443,93.528 443,94.5 L443,116.5 C443,117.472 443.386,118.405 444.074,119.093 C444.762,119.78 445.694,120.167 446.667,120.167 L463.167,120.167 L463.167,123.833 L446.667,123.833 C444.722,123.833 442.856,123.061 441.481,121.685 C440.106,120.31 439.333,118.445 439.333,116.5 L439.333,94.5 C439.333,92.555 440.106,90.69 441.481,89.315 C442.856,87.939 444.722,87.167 446.667,87.167 L483.333,87.167 C485.278,87.167 487.143,87.939 488.519,89.315 C489.894,90.69 490.667,92.555 490.667,94.5 L490.667,116.5 C490.667,118.445 489.894,120.31 488.519,121.685 C487.143,123.061 485.278,123.833 483.333,123.833 L474.46,123.833 Z" />
            <path d="M479.667,98.167 L479.667,101.833 L450.333,101.833 L450.333,98.167 Z" />
            <path d="M468.667,109.167 L468.667,112.833 L450.333,112.833 L450.333,109.167 Z" />
        </g>
        <g id="Black-S" transform="translate(0,0)">
            <path d="M668.19,134.833 L665,133 L672.333,120.167 L683.333,120.167 C684.306,120.167 685.238,119.78 685.926,119.093 C686.614,118.405 687,117.472 687,116.5 L687,94.5 C687,93.528 686.614,92.595 685.926,91.907 C685.238,91.22 684.306,90.833 683.333,90.833 L646.667,90.833 C645.694,90.833 644.762,91.22 644.074,91.907 C643.386,92.595 643,93.528 643,94.5 L643,116.5 C643,117.472 643.386,118.405 644.074,119.093 C644.762,119.78 645.694,120.167 646.667,120.167 L663.167,120.167 L663.167,123.833 L646.667,123.833 C644.722,123.833 642.857,123.061 641.481,121.685 C640.106,120.31 639.333,118.445 639.333,116.5 L639.333,94.5 C639.333,92.555 640.106,90.69 641.481,89.315 C642.857,87.939 644.722,87.167 646.667,87.167 L683.333,87.167 C685.278,87.167 687.144,87.939 688.519,89.315 C689.894,90.69 690.667,92.555 690.667,94.5 L690.667,116.5 C690.667,118.445 689.894,120.31 688.519,121.685 C687.144,123.061 685.278,123.833 683.333,123.833 L674.46,123.833 Z" />
            <path d="M679.667,98.167 L679.667,101.833 L650.333,101.833 L650.333,98.167 Z" />
            <path d="M668.667,109.167 L668.667,112.833 L650.333,112.833 L650.333,109.167 Z" />
        </g>
    </g>
</svg>