<?xml version="1.0" encoding="UTF-8"?>
<svg height="600" width="800" xmlns="http://www.w3.org/2000/svg" xmlns:xlink="http://www.w3.org/1999/xlink">
    <style>
        .cls-1 { fill: none }
    </style>
    <g id="Notes" font-family="LucidaGrande, 'Lucida Grande', sans-serif" font-size="13">
        <rect fill="white" height="600.0" width="800.0" x="0.0" y="0.0" />
        <g font-size="13">
            <text x="18.0" y="176.0">Small</text>
            <text x="18.0" y="376.0">Medium</text>
            <text x="18.0" y="576.0">Large</text>
        </g>
        <g font-size="9">
            <text x="250.0" y="30.0">Ultralight</text>
            <text x="450.0" y="30.0">Regular</text>
            <text x="650.0" y="30.0">Black</text>
            <text id="template-version" fill="#505050" text-anchor="end" x="785.0" y="575.0">Template v.3.0</text>
            <a href="https://github.com/swhitty/SwiftDraw">
                <text fill="#505050" text-anchor="end" x="785.0" y="590.0">https://github.com/swhitty/SwiftDraw</text>
            </a>
        </g>
    </g>
    <g id="Guides" stroke="rgb(39, 170, 225)" stroke-width="0.5">
        <path id="Capline-S" d="M18,76 l800,0" />
        <path id="H-reference" d="M85,145.755 L87.685,145.755 L113.369,79.287 L114.052,79.287 L114.052,76 L112.148,76 L85,145.755 Z M95.693,121.536 L130.996,121.536 L130.263,119.313 L96.474,119.313 L95.693,121.536 Z M139.15,145.755 L141.787,145.755 L114.638,76 L113.466,76 L113.466,79.287 L139.15,145.755 Z" stroke="none" transform="translate(0,0)" />
        <path id="Baseline-S" d="M18,146 l800,0" />
        <path id="left-margin-Ultralight-S" d="M221,56 l0,110" />
        <path id="right-margin-Ultralight-S" d="M309,56 l0,110" />
        <path id="left-margin-Regular-S" d="M421,56 l0,110" />
        <path id="right-margin-Regular-S" d="M509,56 l0,110" />
        <path id="left-margin-Black-S" d="M621,56 l0,110" />
        <path id="right-margin-Black-S" d="M709,56 l0,110" />
        <path id="Capline-M" d="M18,276 l800,0" />
        <path id="Baseline-M" d="M18,346 l800,0" />
        <path id="Capline-L" d="M18,476 l800,0" />
        <path id="Baseline-L" d="M18,546 l800,0" />
    </g>
    <g id="Symbols">
        <g id="Ultralight-S" transform="translate(0,0)">
            <path d="M265,89 C277.151,89 287,98.849 287,111 C287,123.15 277.151,132.999 265,132.999 C252.85,132.999 243.001,123.15 243.001,111 C243.001,105.165 245.318,99.569 249.444,95.443 C253.57,91.318 259.166,89 265,89 M265,85.333 C254.619,85.333 245.26,91.587 241.288,101.177 C237.315,110.768 239.511,121.808 246.851,129.149 C254.192,136.489 265.232,138.685 274.822,134.712 C284.413,130.74 290.667,121.381 290.667,111 C290.667,104.192 287.963,97.664 283.149,92.851 C278.336,88.037 271.808,85.333 265,85.333 Z" />
            <path d="M277.834,100.751 L275.249,98.166 L267.365,106.05 C265.262,105.045 262.754,105.475 261.106,107.124 C259.458,108.772 259.028,111.28 260.032,113.383 L252.167,121.248 L254.752,123.833 L262.635,115.95 C264.739,116.954 267.247,116.524 268.895,114.876 C270.543,113.228 270.973,110.72 269.969,108.616 Z M266.834,111 C266.834,112.012 266.013,112.833 265,112.833 C263.988,112.833 263.167,112.012 263.167,111 C263.167,109.987 263.988,109.166 265,109.166 C265.487,109.166 265.953,109.359 266.297,109.703 C266.641,110.047 266.834,110.513 266.834,111 Z" />
            <path d="M262.25,95.416 C262.25,93.898 263.482,92.666 265,92.666 C266.519,92.666 267.75,93.898 267.75,95.416 C267.75,96.935 266.519,98.166 265,98.166 C263.482,98.166 262.25,96.935 262.25,95.416 Z" />
        </g>
        <g id="Regular-S" transform="translate(0,0)">
            <path d="M465,89 C477.151,89 487,98.849 487,111 C487,123.15 477.151,132.999 465,132.999 C452.85,132.999 443.001,123.15 443.001,111 C443.001,105.165 445.318,99.569 449.444,95.443 C453.57,91.318 459.166,89 465,89 M465,85.333 C454.619,85.333 445.26,91.587 441.288,101.177 C437.315,110.768 439.511,121.808 446.851,129.149 C454.192,136.489 465.232,138.685 474.823,134.712 C484.413,130.74 490.667,121.381 490.667,111 C490.667,104.192 487.963,97.664 483.149,92.851 C478.336,88.037 471.808,85.333 465,85.333 Z" />
            <path d="M477.834,100.751 L475.249,98.166 L467.365,106.05 C465.262,105.045 462.754,105.475 461.106,107.124 C459.458,108.772 459.028,111.28 460.032,113.383 L452.167,121.248 L454.752,123.833 L462.635,115.95 C464.739,116.954 467.247,116.524 468.895,114.876 C470.543,113.228 470.973,110.72 469.969,108.616 Z M466.834,111 C466.834,112.012 466.013,112.833 465,112.833 C463.988,112.833 463.167,112.012 463.167,111 C463.167,109.987 463.988,109.166 465,109.166 C465.487,109.166 465.953,109.359 466.297,109.703 C466.641,110.047 466.834,110.513 466.834,111 Z" />
            <path d="M462.25,95.416 C462.25,93.898 463.482,92.666 465,92.666 C466.519,92.666 467.75,93.898 467.75,95.416 C467.75,96.935 466.519,98.166 465,98.166 C463.482,98.166 462.25,96.935 462.25,95.416 Z" />
        </g>
        <g id="Black-S" transform="translate(0,0)">
            <path d="M665,89 C677.151,89 687,98.849 687,111 C687,123.15 677.151,132.999 665,132.999 C652.85,132.999 643.001,123.15 643.001,111 C643.001,105.165 645.318,99.569 649.444,95.443 C653.57,91.318 659.166,89 665,89 M665,85.333 C654.619,85.333 645.26,91.587 641.288,101.177 C637.315,110.768 639.511,121.808 646.851,129.149 C654.192,136.489 665.232,138.685 674.823,134.712 C684.413,130.74 690.667,121.381 690.667,111 C690.667,104.192 687.963,97.664 683.149,92.851 C678.336,88.037 671.808,85.333 665,85.333 Z" />
            <path d="M677.834,100.751 L675.249,98.166 L667.365,106.05 C665.262,105.045 662.754,105.475 661.106,107.124 C659.458,108.772 659.028,111.28 660.032,113.383 L652.167,121.248 L654.752,123.833 L662.635,115.95 C664.739,116.954 667.247,116.524 668.895,114.876 C670.543,113.228 670.973,110.72 669.969,108.616 Z M666.834,111 C666.834,112.012 666.013,112.833 665,112.833 C663.988,112.833 663.167,112.012 663.167,111 C663.167,109.987 663.988,109.166 665,109.166 C665.487,109.166 665.953,109.359 666.297,109.703 C666.641,110.047 666.834,110.513 666.834,111 Z" />
            <path d="M662.25,95.416 C662.25,93.898 663.482,92.666 665,92.666 C666.519,92.666 667.75,93.898 667.75,95.416 C667.75,96.935 666.519,98.166 665,98.166 C663.482,98.166 662.25,96.935 662.25,95.416 Z" />
        </g>
    </g>
</svg>