<?xml version="1.0" encoding="UTF-8"?>
<svg height="600" width="800" xmlns="http://www.w3.org/2000/svg" xmlns:xlink="http://www.w3.org/1999/xlink">
    <style>
        .cls-1 { fill: none }
    </style>
    <g id="Notes" font-family="LucidaGrande, 'Lucida Grande', sans-serif" font-size="13">
        <rect fill="white" height="600.0" width="800.0" x="0.0" y="0.0" />
        <g font-size="13">
            <text x="18.0" y="176.0">Small</text>
            <text x="18.0" y="376.0">Medium</text>
            <text x="18.0" y="576.0">Large</text>
        </g>
        <g font-size="9">
            <text x="250.0" y="30.0">Ultralight</text>
            <text x="450.0" y="30.0">Regular</text>
            <text x="650.0" y="30.0">Black</text>
            <text id="template-version" fill="#505050" text-anchor="end" x="785.0" y="575.0">Template v.3.0</text>
            <a href="https://github.com/swhitty/SwiftDraw">
                <text fill="#505050" text-anchor="end" x="785.0" y="590.0">https://github.com/swhitty/SwiftDraw</text>
            </a>
        </g>
    </g>
    <g id="Guides" stroke="rgb(39, 170, 225)" stroke-width="0.5">
        <path id="Capline-S" d="M18,76 l800,0" />
        <path id="H-reference" d="M85,145.755 L87.685,145.755 L113.369,79.287 L114.052,79.287 L114.052,76 L112.148,76 L85,145.755 Z M95.693,121.536 L130.996,121.536 L130.263,119.313 L96.474,119.313 L95.693,121.536 Z M139.15,145.755 L141.787,145.755 L114.638,76 L113.466,76 L113.466,79.287 L139.15,145.755 Z" stroke="none" transform="translate(0,0)" />
        <path id="Baseline-S" d="M18,146 l800,0" />
        <path id="left-margin-Ultralight-S" d="M221,56 l0,110" />
        <path id="right-margin-Ultralight-S" d="M309,56 l0,110" />
        <path id="left-margin-Regular-S" d="M421,56 l0,110" />
        <path id="right-margin-Regular-S" d="M509,56 l0,110" />
        <path id="left-margin-Black-S" d="M621,56 l0,110" />
        <path id="right-margin-Black-S" d="M709,56 l0,110" />
        <path id="Capline-M" d="M18,276 l800,0" />
        <path id="Baseline-M" d="M18,346 l800,0" />
        <path id="Capline-L" d="M18,476 l800,0" />
        <path id="Baseline-L" d="M18,546 l800,0" />
    </g>
    <g id="Symbols">
        <g id="Ultralight-S" transform="translate(0,0)">
            <path d="M285,139 L281,139 L281,133 C280.994,127.48 276.52,123.007 271,123 L259,123 C253.48,123.007 249.007,127.48 249,133 L249,139 L245,139 L245,133 C245.008,125.273 251.271,119.01 258.999,119 L270.999,119 C278.727,119.009 284.99,125.272 284.999,133 Z" />
            <path d="M243,91 C242.47,91 241.961,91.211 241.586,91.586 C241.211,91.961 241,92.47 241,93 L241,111 L245,111 L245,93 C245,92.47 244.789,91.961 244.414,91.586 C244.039,91.211 243.53,91 243,91 Z" />
            <path d="M241,83 L241,87 L251,87 L251,101 C251,108.732 257.268,115 265,115 C272.732,115 279,108.732 279,101 L279,87 L289,87 L289,83 Z M255,87 L275,87 L275,93 L255,93 Z M265,111 C262.348,111 259.804,109.946 257.929,108.071 C256.054,106.196 255,103.652 255,101 L255,97 L275,97 L275,101 C275,103.652 273.946,106.196 272.071,108.071 C270.196,109.946 267.652,111 265,111 Z" />
        </g>
        <g id="Regular-S" transform="translate(0,0)">
            <path d="M485,139 L481,139 L481,133 C480.994,127.48 476.52,123.007 471,123 L459,123 C453.48,123.007 449.007,127.48 449,133 L449,139 L445,139 L445,133 C445.008,125.273 451.271,119.01 458.999,119 L470.999,119 C478.727,119.009 484.99,125.272 484.999,133 Z" />
            <path d="M443,91 C442.47,91 441.961,91.211 441.586,91.586 C441.211,91.961 441,92.47 441,93 L441,111 L445,111 L445,93 C445,92.47 444.789,91.961 444.414,91.586 C444.039,91.211 443.53,91 443,91 Z" />
            <path d="M441,83 L441,87 L451,87 L451,101 C451,108.732 457.268,115 465,115 C472.732,115 479,108.732 479,101 L479,87 L489,87 L489,83 Z M455,87 L475,87 L475,93 L455,93 Z M465,111 C462.348,111 459.804,109.946 457.929,108.071 C456.054,106.196 455,103.652 455,101 L455,97 L475,97 L475,101 C475,103.652 473.946,106.196 472.071,108.071 C470.196,109.946 467.652,111 465,111 Z" />
        </g>
        <g id="Black-S" transform="translate(0,0)">
            <path d="M685,139 L681,139 L681,133 C680.994,127.48 676.521,123.007 671,123 L659,123 C653.48,123.007 649.007,127.48 649,133 L649,139 L645,139 L645,133 C645.008,125.273 651.271,119.01 658.999,119 L670.999,119 C678.727,119.009 684.99,125.272 684.999,133 Z" />
            <path d="M643,91 C642.47,91 641.961,91.211 641.586,91.586 C641.211,91.961 641,92.47 641,93 L641,111 L645,111 L645,93 C645,92.47 644.789,91.961 644.414,91.586 C644.039,91.211 643.53,91 643,91 Z" />
            <path d="M641,83 L641,87 L651,87 L651,101 C651,108.732 657.268,115 665,115 C672.732,115 679,108.732 679,101 L679,87 L689,87 L689,83 Z M655,87 L675,87 L675,93 L655,93 Z M665,111 C662.348,111 659.804,109.946 657.929,108.071 C656.054,106.196 655,103.652 655,101 L655,97 L675,97 L675,101 C675,103.652 673.946,106.196 672.071,108.071 C670.196,109.946 667.652,111 665,111 Z" />
        </g>
    </g>
</svg>