<?xml version="1.0" encoding="UTF-8"?>
<svg height="600" width="800" xmlns="http://www.w3.org/2000/svg" xmlns:xlink="http://www.w3.org/1999/xlink">
    <style>
        
    </style>
    <g id="Notes" font-family="LucidaGrande, 'Lucida Grande', sans-serif" font-size="13">
        <rect fill="white" height="600.0" width="800.0" x="0.0" y="0.0" />
        <g font-size="13">
            <text x="18.0" y="176.0">Small</text>
            <text x="18.0" y="376.0">Medium</text>
            <text x="18.0" y="576.0">Large</text>
        </g>
        <g font-size="9">
            <text x="250.0" y="30.0">Ultralight</text>
            <text x="450.0" y="30.0">Regular</text>
            <text x="650.0" y="30.0">Black</text>
            <text id="template-version" fill="#505050" text-anchor="end" x="785.0" y="575.0">Template v.3.0</text>
            <a href="https://github.com/swhitty/SwiftDraw">
                <text fill="#505050" text-anchor="end" x="785.0" y="590.0">https://github.com/swhitty/SwiftDraw</text>
            </a>
        </g>
    </g>
    <g id="Guides" stroke="rgb(39, 170, 225)" stroke-width="0.5">
        <path id="Capline-S" d="M18,76 l800,0" />
        <path id="H-reference" d="M85,145.755 L87.685,145.755 L113.369,79.287 L114.052,79.287 L114.052,76 L112.148,76 L85,145.755 Z M95.693,121.536 L130.996,121.536 L130.263,119.313 L96.474,119.313 L95.693,121.536 Z M139.15,145.755 L141.787,145.755 L114.638,76 L113.466,76 L113.466,79.287 L139.15,145.755 Z" stroke="none" transform="translate(0,0)" />
        <path id="Baseline-S" d="M18,146 l800,0" />
        <path id="left-margin-Ultralight-S" d="M221,56 l0,110" />
        <path id="right-margin-Ultralight-S" d="M309,56 l0,110" />
        <path id="left-margin-Regular-S" d="M421,56 l0,110" />
        <path id="right-margin-Regular-S" d="M509,56 l0,110" />
        <path id="left-margin-Black-S" d="M621,56 l0,110" />
        <path id="right-margin-Black-S" d="M709,56 l0,110" />
        <path id="Capline-M" d="M18,276 l800,0" />
        <path id="Baseline-M" d="M18,346 l800,0" />
        <path id="Capline-L" d="M18,476 l800,0" />
        <path id="Baseline-L" d="M18,546 l800,0" />
    </g>
    <g id="Symbols">
        <g id="Ultralight-S" transform="translate(0,0)">
            <path d="M281.923,131.308 L248.077,131.308 C246.209,131.305 244.695,129.791 244.692,127.923 L244.692,94.077 C244.695,92.209 246.209,90.695 248.077,90.692 L265,90.692 L265,94.077 L248.077,94.077 L248.077,127.923 L281.923,127.923 L281.923,111 L285.308,111 L285.308,127.923 C285.305,129.791 283.792,131.305 281.923,131.308 Z" />
            <path d="M271.769,87.308 L271.769,90.692 L282.915,90.692 L268.385,105.222 L270.778,107.615 L285.308,93.085 L285.308,104.231 L288.692,104.231 L288.692,87.308 L271.769,87.308 Z" />
            <path d="M292.077,83.923 L292.077,138.077 L237.923,138.077 L237.923,83.923 Z" />
        </g>
        <g id="Regular-S" transform="translate(0,0)">
            <path d="M481.923,131.308 L448.077,131.308 C446.209,131.305 444.695,129.791 444.692,127.923 L444.692,94.077 C444.695,92.209 446.208,90.695 448.077,90.692 L465,90.692 L465,94.077 L448.077,94.077 L448.077,127.923 L481.923,127.923 L481.923,111 L485.308,111 L485.308,127.923 C485.305,129.791 483.791,131.305 481.923,131.308 Z" />
            <path d="M471.769,87.308 L471.769,90.692 L482.915,90.692 L468.385,105.222 L470.778,107.615 L485.308,93.085 L485.308,104.231 L488.692,104.231 L488.692,87.308 L471.769,87.308 Z" />
            <path d="M492.077,83.923 L492.077,138.077 L437.923,138.077 L437.923,83.923 Z" />
        </g>
        <g id="Black-S" transform="translate(0,0)">
            <path d="M681.923,131.308 L648.077,131.308 C646.209,131.305 644.695,129.791 644.692,127.923 L644.692,94.077 C644.695,92.209 646.208,90.695 648.077,90.692 L665,90.692 L665,94.077 L648.077,94.077 L648.077,127.923 L681.923,127.923 L681.923,111 L685.308,111 L685.308,127.923 C685.305,129.791 683.792,131.305 681.923,131.308 Z" />
            <path d="M671.769,87.308 L671.769,90.692 L682.915,90.692 L668.385,105.222 L670.778,107.615 L685.308,93.085 L685.308,104.231 L688.692,104.231 L688.692,87.308 L671.769,87.308 Z" />
            <path d="M692.077,83.923 L692.077,138.077 L637.923,138.077 L637.923,83.923 Z" />
        </g>
    </g>
</svg>