<?xml version="1.0" encoding="UTF-8"?>
<svg height="600" width="800" xmlns="http://www.w3.org/2000/svg" xmlns:xlink="http://www.w3.org/1999/xlink">
    <style>
        
    </style>
    <g id="Notes" font-family="LucidaGrande, 'Lucida Grande', sans-serif" font-size="13">
        <rect fill="white" height="600.0" width="800.0" x="0.0" y="0.0" />
        <g font-size="13">
            <text x="18.0" y="176.0">Small</text>
            <text x="18.0" y="376.0">Medium</text>
            <text x="18.0" y="576.0">Large</text>
        </g>
        <g font-size="9">
            <text x="250.0" y="30.0">Ultralight</text>
            <text x="450.0" y="30.0">Regular</text>
            <text x="650.0" y="30.0">Black</text>
            <text id="template-version" fill="#505050" text-anchor="end" x="785.0" y="575.0">Template v.3.0</text>
            <a href="https://github.com/swhitty/SwiftDraw">
                <text fill="#505050" text-anchor="end" x="785.0" y="590.0">https://github.com/swhitty/SwiftDraw</text>
            </a>
        </g>
    </g>
    <g id="Guides" stroke="rgb(39, 170, 225)" stroke-width="0.5">
        <path id="Capline-S" d="M18,76 l800,0" />
        <path id="H-reference" d="M85,145.755 L87.685,145.755 L113.369,79.287 L114.052,79.287 L114.052,76 L112.148,76 L85,145.755 Z M95.693,121.536 L130.996,121.536 L130.263,119.313 L96.474,119.313 L95.693,121.536 Z M139.15,145.755 L141.787,145.755 L114.638,76 L113.466,76 L113.466,79.287 L139.15,145.755 Z" stroke="none" transform="translate(0,0)" />
        <path id="Baseline-S" d="M18,146 l800,0" />
        <path id="left-margin-Ultralight-S" d="M221,56 l0,110" />
        <path id="right-margin-Ultralight-S" d="M309,56 l0,110" />
        <path id="left-margin-Regular-S" d="M421,56 l0,110" />
        <path id="right-margin-Regular-S" d="M509,56 l0,110" />
        <path id="left-margin-Black-S" d="M621,56 l0,110" />
        <path id="right-margin-Black-S" d="M709,56 l0,110" />
        <path id="Capline-M" d="M18,276 l800,0" />
        <path id="Baseline-M" d="M18,346 l800,0" />
        <path id="Capline-L" d="M18,476 l800,0" />
        <path id="Baseline-L" d="M18,546 l800,0" />
    </g>
    <g id="Symbols">
        <g id="Ultralight-S" transform="translate(0,0)">
            <path d="M255.786,99.154 L276.846,120.214 L274.214,122.846 L253.154,101.786 Z" />
            <path d="M265,87.308 C258.705,87.269 252.656,89.752 248.204,94.204 C243.752,98.656 241.269,104.705 241.308,111 C241.269,117.295 243.752,123.344 248.204,127.796 C252.655,132.248 258.704,134.731 265,134.692 C271.295,134.731 277.344,132.248 281.796,127.796 C286.248,123.344 288.731,117.296 288.692,111 C288.731,104.705 286.248,98.656 281.796,94.204 C277.345,89.752 271.296,87.269 265,87.308 Z M274.214,122.846 L253.154,101.787 L255.787,99.154 L276.846,120.214 Z" />
            <path d="M292.077,83.923 L292.077,138.077 L237.923,138.077 L237.923,83.923 Z" />
        </g>
        <g id="Regular-S" transform="translate(0,0)">
            <path d="M455.786,99.154 L476.846,120.214 L474.214,122.846 L453.154,101.786 Z" />
            <path d="M465,87.308 C458.704,87.269 452.656,89.752 448.204,94.204 C443.752,98.656 441.269,104.705 441.308,111 C441.269,117.295 443.752,123.344 448.204,127.796 C452.655,132.248 458.704,134.731 465,134.692 C471.295,134.731 477.344,132.248 481.796,127.796 C486.248,123.344 488.731,117.296 488.692,111 C488.731,104.705 486.248,98.656 481.796,94.204 C477.345,89.752 471.296,87.269 465,87.308 Z M474.214,122.846 L453.154,101.787 L455.787,99.154 L476.846,120.214 Z" />
            <path d="M492.077,83.923 L492.077,138.077 L437.923,138.077 L437.923,83.923 Z" />
        </g>
        <g id="Black-S" transform="translate(0,0)">
            <path d="M655.786,99.154 L676.846,120.214 L674.214,122.846 L653.154,101.786 Z" />
            <path d="M665,87.308 C658.705,87.269 652.656,89.752 648.204,94.204 C643.752,98.656 641.269,104.705 641.308,111 C641.269,117.295 643.752,123.344 648.204,127.796 C652.656,132.248 658.704,134.731 665,134.692 C671.295,134.731 677.344,132.248 681.796,127.796 C686.248,123.344 688.731,117.296 688.692,111 C688.731,104.705 686.248,98.656 681.796,94.204 C677.345,89.752 671.296,87.269 665,87.308 Z M674.214,122.846 L653.154,101.787 L655.787,99.154 L676.846,120.214 Z" />
            <path d="M692.077,83.923 L692.077,138.077 L637.923,138.077 L637.923,83.923 Z" />
        </g>
    </g>
</svg>