<?xml version="1.0" encoding="UTF-8"?>
<svg height="600" width="800" xmlns="http://www.w3.org/2000/svg" xmlns:xlink="http://www.w3.org/1999/xlink">
    <style>
        
    </style>
    <g id="Notes" font-family="LucidaGrande, 'Lucida Grande', sans-serif" font-size="13">
        <rect fill="white" height="600.0" width="800.0" x="0.0" y="0.0" />
        <g font-size="13">
            <text x="18.0" y="176.0">Small</text>
            <text x="18.0" y="376.0">Medium</text>
            <text x="18.0" y="576.0">Large</text>
        </g>
        <g font-size="9">
            <text x="250.0" y="30.0">Ultralight</text>
            <text x="450.0" y="30.0">Regular</text>
            <text x="650.0" y="30.0">Black</text>
            <text id="template-version" fill="#505050" text-anchor="end" x="785.0" y="575.0">Template v.3.0</text>
            <a href="https://github.com/swhitty/SwiftDraw">
                <text fill="#505050" text-anchor="end" x="785.0" y="590.0">https://github.com/swhitty/SwiftDraw</text>
            </a>
        </g>
    </g>
    <g id="Guides" stroke="rgb(39, 170, 225)" stroke-width="0.5">
        <path id="Capline-S" d="M18,76 l800,0" />
        <path id="H-reference" d="M85,145.755 L87.685,145.755 L113.369,79.287 L114.052,79.287 L114.052,76 L112.148,76 L85,145.755 Z M95.693,121.536 L130.996,121.536 L130.263,119.313 L96.474,119.313 L95.693,121.536 Z M139.15,145.755 L141.787,145.755 L114.638,76 L113.466,76 L113.466,79.287 L139.15,145.755 Z" stroke="none" transform="translate(0,0)" />
        <path id="Baseline-S" d="M18,146 l800,0" />
        <path id="left-margin-Ultralight-S" d="M221,56 l0,110" />
        <path id="right-margin-Ultralight-S" d="M309,56 l0,110" />
        <path id="left-margin-Regular-S" d="M421,56 l0,110" />
        <path id="right-margin-Regular-S" d="M509,56 l0,110" />
        <path id="left-margin-Black-S" d="M621,56 l0,110" />
        <path id="right-margin-Black-S" d="M709,56 l0,110" />
        <path id="Capline-M" d="M18,276 l800,0" />
        <path id="Baseline-M" d="M18,346 l800,0" />
        <path id="Capline-L" d="M18,476 l800,0" />
        <path id="Baseline-L" d="M18,546 l800,0" />
    </g>
    <g id="Symbols">
        <g id="Ultralight-S" transform="translate(0,0)">
            <path d="M265,97.462 C260.327,97.462 256.538,101.25 256.538,105.923 C256.538,110.596 260.327,114.385 265,114.385 C269.673,114.385 273.462,110.596 273.462,105.923 C273.462,103.679 272.57,101.527 270.983,99.94 C269.396,98.353 267.244,97.462 265,97.462 Z M265,111 C262.196,111 259.923,108.727 259.923,105.923 C259.923,103.119 262.196,100.846 265,100.846 C267.804,100.846 270.077,103.119 270.077,105.923 C270.074,108.725 267.803,110.997 265,111 Z" />
            <path d="M265,87.308 C251.915,87.308 241.308,97.915 241.308,111 C241.308,124.085 251.915,134.692 265,134.692 C278.085,134.692 288.692,124.085 288.692,111 C288.677,97.921 278.078,87.322 265,87.308 Z M254.846,128.56 L254.846,126.231 C254.849,123.428 257.12,121.157 259.923,121.154 L270.077,121.154 C272.879,121.157 275.15,123.428 275.154,126.231 L275.154,128.56 C268.88,132.224 261.119,132.224 254.846,128.56 Z M278.526,126.105 C278.456,121.487 274.696,117.777 270.077,117.769 L259.923,117.769 C255.304,117.777 251.544,121.487 251.474,126.105 C245.191,120.495 243.024,111.589 246.026,103.719 C249.028,95.849 256.577,90.65 265,90.65 C273.423,90.65 280.972,95.849 283.974,103.719 C286.976,111.589 284.809,120.495 278.526,126.105 Z" />
            <path d="M292.077,83.923 L292.077,138.077 L237.923,138.077 L237.923,83.923 Z" />
        </g>
        <g id="Regular-S" transform="translate(0,0)">
            <path d="M465,97.462 C460.327,97.462 456.538,101.25 456.538,105.923 C456.538,110.596 460.327,114.385 465,114.385 C469.673,114.385 473.462,110.596 473.462,105.923 C473.462,103.679 472.57,101.527 470.983,99.94 C469.396,98.353 467.244,97.462 465,97.462 Z M465,111 C462.196,111 459.923,108.727 459.923,105.923 C459.923,103.119 462.196,100.846 465,100.846 C467.804,100.846 470.077,103.119 470.077,105.923 C470.074,108.725 467.803,110.997 465,111 Z" />
            <path d="M465,87.308 C451.915,87.308 441.308,97.915 441.308,111 C441.308,124.085 451.915,134.692 465,134.692 C478.085,134.692 488.692,124.085 488.692,111 C488.677,97.921 478.078,87.322 465,87.308 Z M454.846,128.56 L454.846,126.231 C454.849,123.428 457.12,121.157 459.923,121.154 L470.077,121.154 C472.879,121.157 475.15,123.428 475.154,126.231 L475.154,128.56 C468.88,132.224 461.119,132.224 454.846,128.56 Z M478.526,126.105 C478.456,121.487 474.696,117.777 470.077,117.769 L459.923,117.769 C455.304,117.777 451.544,121.487 451.474,126.105 C445.191,120.495 443.024,111.589 446.026,103.719 C449.028,95.849 456.577,90.65 465,90.65 C473.423,90.65 480.972,95.849 483.974,103.719 C486.976,111.589 484.809,120.495 478.526,126.105 Z" />
            <path d="M492.077,83.923 L492.077,138.077 L437.923,138.077 L437.923,83.923 Z" />
        </g>
        <g id="Black-S" transform="translate(0,0)">
            <path d="M665,97.462 C660.327,97.462 656.538,101.25 656.538,105.923 C656.538,110.596 660.327,114.385 665,114.385 C669.673,114.385 673.462,110.596 673.462,105.923 C673.462,103.679 672.57,101.527 670.983,99.94 C669.396,98.353 667.244,97.462 665,97.462 Z M665,111 C662.196,111 659.923,108.727 659.923,105.923 C659.923,103.119 662.196,100.846 665,100.846 C667.804,100.846 670.077,103.119 670.077,105.923 C670.074,108.725 667.803,110.997 665,111 Z" />
            <path d="M665,87.308 C651.915,87.308 641.308,97.915 641.308,111 C641.308,124.085 651.915,134.692 665,134.692 C678.085,134.692 688.692,124.085 688.692,111 C688.677,97.921 678.078,87.322 665,87.308 Z M654.846,128.56 L654.846,126.231 C654.849,123.428 657.12,121.157 659.923,121.154 L670.077,121.154 C672.879,121.157 675.15,123.428 675.154,126.231 L675.154,128.56 C668.88,132.224 661.12,132.224 654.846,128.56 Z M678.526,126.105 C678.456,121.487 674.696,117.777 670.077,117.769 L659.923,117.769 C655.304,117.777 651.544,121.487 651.474,126.105 C645.191,120.495 643.024,111.589 646.026,103.719 C649.028,95.849 656.577,90.65 665,90.65 C673.423,90.65 680.972,95.849 683.974,103.719 C686.976,111.589 684.809,120.495 678.526,126.105 Z" />
            <path d="M692.077,83.923 L692.077,138.077 L637.923,138.077 L637.923,83.923 Z" />
        </g>
    </g>
</svg>