<?xml version="1.0" encoding="UTF-8"?>
<svg height="600" width="800" xmlns="http://www.w3.org/2000/svg" xmlns:xlink="http://www.w3.org/1999/xlink">
    <style>
        .st0 { fill: none }
    </style>
    <g id="Notes" font-family="LucidaGrande, 'Lucida Grande', sans-serif" font-size="13">
        <rect fill="white" height="600.0" width="800.0" x="0.0" y="0.0" />
        <g font-size="13">
            <text x="18.0" y="176.0">Small</text>
            <text x="18.0" y="376.0">Medium</text>
            <text x="18.0" y="576.0">Large</text>
        </g>
        <g font-size="9">
            <text x="250.0" y="30.0">Ultralight</text>
            <text x="450.0" y="30.0">Regular</text>
            <text x="650.0" y="30.0">Black</text>
            <text id="template-version" fill="#505050" text-anchor="end" x="785.0" y="575.0">Template v.3.0</text>
            <a href="https://github.com/swhitty/SwiftDraw">
                <text fill="#505050" text-anchor="end" x="785.0" y="590.0">https://github.com/swhitty/SwiftDraw</text>
            </a>
        </g>
    </g>
    <g id="Guides" stroke="rgb(39, 170, 225)" stroke-width="0.5">
        <path id="Capline-S" d="M18,76 l800,0" />
        <path id="H-reference" d="M85,145.755 L87.685,145.755 L113.369,79.287 L114.052,79.287 L114.052,76 L112.148,76 L85,145.755 Z M95.693,121.536 L130.996,121.536 L130.263,119.313 L96.474,119.313 L95.693,121.536 Z M139.15,145.755 L141.787,145.755 L114.638,76 L113.466,76 L113.466,79.287 L139.15,145.755 Z" stroke="none" transform="translate(0,0)" />
        <path id="Baseline-S" d="M18,146 l800,0" />
        <path id="left-margin-Ultralight-S" d="M221,56 l0,110" />
        <path id="right-margin-Ultralight-S" d="M309,56 l0,110" />
        <path id="left-margin-Regular-S" d="M421,56 l0,110" />
        <path id="right-margin-Regular-S" d="M509,56 l0,110" />
        <path id="left-margin-Black-S" d="M621,56 l0,110" />
        <path id="right-margin-Black-S" d="M709,56 l0,110" />
        <path id="Capline-M" d="M18,276 l800,0" />
        <path id="Baseline-M" d="M18,346 l800,0" />
        <path id="Capline-L" d="M18,476 l800,0" />
        <path id="Baseline-L" d="M18,546 l800,0" />
    </g>
    <g id="Symbols">
        <g id="Ultralight-S" transform="translate(0,0)">
            <path d="M265,85.333 C250.7,85.333 239.333,96.7 239.333,111 C239.333,125.3 250.7,136.667 265,136.667 C279.3,136.667 290.667,125.3 290.667,111 C290.667,96.7 279.3,85.333 265,85.333 Z M265,133 C252.9,133 243,123.1 243,111 C243,98.9 252.9,89 265,89 C277.1,89 287,98.9 287,111 C287,123.1 277.1,133 265,133 Z" />
            <path d="M274.9,123.833 L265,113.933 L255.1,123.833 L252.167,120.9 L262.067,111 L252.167,101.1 L255.1,98.167 L265,108.067 L274.9,98.167 L277.833,101.1 L267.933,111 L277.833,120.9 Z" />
        </g>
        <g id="Regular-S" transform="translate(0,0)">
            <path d="M465,85.333 C450.7,85.333 439.333,96.7 439.333,111 C439.333,125.3 450.7,136.667 465,136.667 C479.3,136.667 490.667,125.3 490.667,111 C490.667,96.7 479.3,85.333 465,85.333 Z M465,133 C452.9,133 443,123.1 443,111 C443,98.9 452.9,89 465,89 C477.1,89 487,98.9 487,111 C487,123.1 477.1,133 465,133 Z" />
            <path d="M474.9,123.833 L465,113.933 L455.1,123.833 L452.167,120.9 L462.067,111 L452.167,101.1 L455.1,98.167 L465,108.067 L474.9,98.167 L477.833,101.1 L467.933,111 L477.833,120.9 Z" />
        </g>
        <g id="Black-S" transform="translate(0,0)">
            <path d="M665,85.333 C650.7,85.333 639.333,96.7 639.333,111 C639.333,125.3 650.7,136.667 665,136.667 C679.3,136.667 690.667,125.3 690.667,111 C690.667,96.7 679.3,85.333 665,85.333 Z M665,133 C652.9,133 643,123.1 643,111 C643,98.9 652.9,89 665,89 C677.1,89 687,98.9 687,111 C687,123.1 677.1,133 665,133 Z" />
            <path d="M674.9,123.833 L665,113.933 L655.1,123.833 L652.167,120.9 L662.067,111 L652.167,101.1 L655.1,98.167 L665,108.067 L674.9,98.167 L677.833,101.1 L667.933,111 L677.833,120.9 Z" />
        </g>
    </g>
</svg>