<?xml version="1.0" encoding="UTF-8"?>
<svg height="600" width="800" xmlns="http://www.w3.org/2000/svg" xmlns:xlink="http://www.w3.org/1999/xlink">
    <style>
        .cls-2 { fill: none }
    </style>
    <g id="Notes" font-family="LucidaGrande, 'Lucida Grande', sans-serif" font-size="13">
        <rect fill="white" height="600.0" width="800.0" x="0.0" y="0.0" />
        <g font-size="13">
            <text x="18.0" y="176.0">Small</text>
            <text x="18.0" y="376.0">Medium</text>
            <text x="18.0" y="576.0">Large</text>
        </g>
        <g font-size="9">
            <text x="250.0" y="30.0">Ultralight</text>
            <text x="450.0" y="30.0">Regular</text>
            <text x="650.0" y="30.0">Black</text>
            <text id="template-version" fill="#505050" text-anchor="end" x="785.0" y="575.0">Template v.3.0</text>
            <a href="https://github.com/swhitty/SwiftDraw">
                <text fill="#505050" text-anchor="end" x="785.0" y="590.0">https://github.com/swhitty/SwiftDraw</text>
            </a>
        </g>
    </g>
    <g id="Guides" stroke="rgb(39, 170, 225)" stroke-width="0.5">
        <path id="Capline-S" d="M18,76 l800,0" />
        <path id="H-reference" d="M85,145.755 L87.685,145.755 L113.369,79.287 L114.052,79.287 L114.052,76 L112.148,76 L85,145.755 Z M95.693,121.536 L130.996,121.536 L130.263,119.313 L96.474,119.313 L95.693,121.536 Z M139.15,145.755 L141.787,145.755 L114.638,76 L113.466,76 L113.466,79.287 L139.15,145.755 Z" stroke="none" transform="translate(0,0)" />
        <path id="Baseline-S" d="M18,146 l800,0" />
        <path id="left-margin-Ultralight-S" d="M221,56 l0,110" />
        <path id="right-margin-Ultralight-S" d="M309,56 l0,110" />
        <path id="left-margin-Regular-S" d="M421,56 l0,110" />
        <path id="right-margin-Regular-S" d="M509,56 l0,110" />
        <path id="left-margin-Black-S" d="M621,56 l0,110" />
        <path id="right-margin-Black-S" d="M709,56 l0,110" />
        <path id="Capline-M" d="M18,276 l800,0" />
        <path id="Baseline-M" d="M18,346 l800,0" />
        <path id="Capline-L" d="M18,476 l800,0" />
        <path id="Baseline-L" d="M18,546 l800,0" />
    </g>
    <g id="Symbols">
        <g id="Ultralight-S" transform="translate(0,0)">
            <path d="M265.003,135.008 C252.852,135.008 243.001,125.157 243.001,113.006 C243.001,100.854 252.852,91.004 265.003,91.004 C277.155,91.004 287.005,100.854 287.005,113.006 C287.005,118.841 284.687,124.437 280.561,128.564 C276.435,132.69 270.838,135.008 265.003,135.008 Z M265.003,95.004 C255.061,95.004 247.002,103.064 247.002,113.006 C247.002,122.948 255.061,131.007 265.003,131.007 C274.945,131.007 283.005,122.948 283.005,113.006 C283.005,108.231 281.108,103.653 277.732,100.277 C274.356,96.901 269.778,95.004 265.003,95.004 Z" />
            <path d="M270.184,121.007 L263.003,113.826 L263.003,101.005 L267.003,101.005 L267.003,112.166 L273.004,118.186 L270.184,121.007 Z" />
            <path d="M248.165,87.01 L250.997,89.836 L243.833,97.014 L241.002,94.188 Z" />
            <path d="M281.835,86.992 L288.998,94.17 L286.167,96.996 L279.003,89.818 Z" />
        </g>
        <g id="Regular-S" transform="translate(0,0)">
            <path d="M465.003,135.008 C452.852,135.008 443.001,125.157 443.001,113.006 C443.001,100.854 452.852,91.004 465.003,91.004 C477.155,91.004 487.005,100.854 487.005,113.006 C487.005,118.841 484.687,124.437 480.561,128.564 C476.435,132.69 470.838,135.008 465.003,135.008 Z M465.003,95.004 C455.061,95.004 447.002,103.064 447.002,113.006 C447.002,122.948 455.061,131.007 465.003,131.007 C474.945,131.007 483.005,122.948 483.005,113.006 C483.005,108.231 481.108,103.653 477.732,100.277 C474.356,96.901 469.778,95.004 465.003,95.004 Z" />
            <path d="M470.184,121.007 L463.003,113.826 L463.003,101.005 L467.003,101.005 L467.003,112.166 L473.004,118.186 L470.184,121.007 Z" />
            <path d="M448.165,87.01 L450.997,89.836 L443.833,97.014 L441.002,94.188 Z" />
            <path d="M481.835,86.992 L488.998,94.17 L486.167,96.996 L479.003,89.818 Z" />
        </g>
        <g id="Black-S" transform="translate(0,0)">
            <path d="M665.003,135.008 C652.852,135.008 643.001,125.157 643.001,113.006 C643.001,100.854 652.852,91.004 665.003,91.004 C677.155,91.004 687.005,100.854 687.005,113.006 C687.005,118.841 684.687,124.437 680.561,128.564 C676.435,132.69 670.839,135.008 665.003,135.008 Z M665.003,95.004 C655.061,95.004 647.002,103.064 647.002,113.006 C647.002,122.948 655.061,131.007 665.003,131.007 C674.945,131.007 683.005,122.948 683.005,113.006 C683.005,108.231 681.108,103.653 677.732,100.277 C674.356,96.901 669.778,95.004 665.003,95.004 Z" />
            <path d="M670.184,121.007 L663.003,113.826 L663.003,101.005 L667.003,101.005 L667.003,112.166 L673.004,118.186 L670.184,121.007 Z" />
            <path d="M648.165,87.01 L650.997,89.836 L643.833,97.014 L641.002,94.188 Z" />
            <path d="M681.835,86.992 L688.998,94.17 L686.167,96.996 L679.003,89.818 Z" />
        </g>
    </g>
</svg>