<?xml version="1.0" encoding="UTF-8"?>
<svg height="600" width="800" xmlns="http://www.w3.org/2000/svg" xmlns:xlink="http://www.w3.org/1999/xlink">
    <style>
        .cls-1 { fill: none }
    </style>
    <g id="Notes" font-family="LucidaGrande, 'Lucida Grande', sans-serif" font-size="13">
        <rect fill="white" height="600.0" width="800.0" x="0.0" y="0.0" />
        <g font-size="13">
            <text x="18.0" y="176.0">Small</text>
            <text x="18.0" y="376.0">Medium</text>
            <text x="18.0" y="576.0">Large</text>
        </g>
        <g font-size="9">
            <text x="250.0" y="30.0">Ultralight</text>
            <text x="450.0" y="30.0">Regular</text>
            <text x="650.0" y="30.0">Black</text>
            <text id="template-version" fill="#505050" text-anchor="end" x="785.0" y="575.0">Template v.3.0</text>
            <a href="https://github.com/swhitty/SwiftDraw">
                <text fill="#505050" text-anchor="end" x="785.0" y="590.0">https://github.com/swhitty/SwiftDraw</text>
            </a>
        </g>
    </g>
    <g id="Guides" stroke="rgb(39, 170, 225)" stroke-width="0.5">
        <path id="Capline-S" d="M18,76 l800,0" />
        <path id="H-reference" d="M85,145.755 L87.685,145.755 L113.369,79.287 L114.052,79.287 L114.052,76 L112.148,76 L85,145.755 Z M95.693,121.536 L130.996,121.536 L130.263,119.313 L96.474,119.313 L95.693,121.536 Z M139.15,145.755 L141.787,145.755 L114.638,76 L113.466,76 L113.466,79.287 L139.15,145.755 Z" stroke="none" transform="translate(0,0)" />
        <path id="Baseline-S" d="M18,146 l800,0" />
        <path id="left-margin-Ultralight-S" d="M221,56 l0,110" />
        <path id="right-margin-Ultralight-S" d="M309,56 l0,110" />
        <path id="left-margin-Regular-S" d="M421,56 l0,110" />
        <path id="right-margin-Regular-S" d="M509,56 l0,110" />
        <path id="left-margin-Black-S" d="M621,56 l0,110" />
        <path id="right-margin-Black-S" d="M709,56 l0,110" />
        <path id="Capline-M" d="M18,276 l800,0" />
        <path id="Baseline-M" d="M18,346 l800,0" />
        <path id="Capline-L" d="M18,476 l800,0" />
        <path id="Baseline-L" d="M18,546 l800,0" />
    </g>
    <g id="Symbols">
        <g id="Ultralight-S" transform="translate(0,0)">
            <path d="M277,125 C277,123.895 277.895,123 279,123 C280.105,123 281,123.895 281,125 C281,126.105 280.105,127 279,127 C277.895,127 277,126.105 277,125 Z" />
            <path d="M273,123 L273,127 L249,127 L249,123 Z" />
            <path d="M277,97 C277,95.895 277.895,95 279,95 C280.105,95 281,95.895 281,97 C281,98.105 280.105,99 279,99 C277.895,99 277,98.105 277,97 Z" />
            <path d="M273,95 L273,99 L249,99 L249,95 Z" />
            <path d="M285,107 C286.061,107 287.078,106.579 287.828,105.828 C288.579,105.078 289,104.061 289,103 L289,91 C289,89.939 288.579,88.922 287.828,88.172 C287.078,87.421 286.061,87 285,87 L245,87 C243.939,87 242.922,87.421 242.172,88.172 C241.421,88.922 241,89.939 241,91 L241,103 C241,104.061 241.421,105.078 242.172,105.828 C242.922,106.579 243.939,107 245,107 L249,107 L249,115 L245,115 C243.939,115 242.922,115.421 242.172,116.172 C241.421,116.922 241,117.939 241,119 L241,131 C241,132.061 241.421,133.078 242.172,133.828 C242.922,134.579 243.939,135 245,135 L285,135 C286.061,135 287.078,134.579 287.828,133.828 C288.579,133.078 289,132.061 289,131 L289,119 C289,117.939 288.579,116.922 287.828,116.172 C287.078,115.421 286.061,115 285,115 L281,115 L281,107 Z M245,91 L285,91 L285,103 L245,103 Z M285,131 L245,131 L245,119 L285,119 Z M277,115 L253,115 L253,107 L277,107 Z" />
        </g>
        <g id="Regular-S" transform="translate(0,0)">
            <path d="M477,125 C477,123.895 477.895,123 479,123 C480.105,123 481,123.895 481,125 C481,126.105 480.105,127 479,127 C477.895,127 477,126.105 477,125 Z" />
            <path d="M473,123 L473,127 L449,127 L449,123 Z" />
            <path d="M477,97 C477,95.895 477.895,95 479,95 C480.105,95 481,95.895 481,97 C481,98.105 480.105,99 479,99 C477.895,99 477,98.105 477,97 Z" />
            <path d="M473,95 L473,99 L449,99 L449,95 Z" />
            <path d="M485,107 C486.061,107 487.078,106.579 487.828,105.828 C488.579,105.078 489,104.061 489,103 L489,91 C489,89.939 488.579,88.922 487.828,88.172 C487.078,87.421 486.061,87 485,87 L445,87 C443.939,87 442.922,87.421 442.172,88.172 C441.421,88.922 441,89.939 441,91 L441,103 C441,104.061 441.421,105.078 442.172,105.828 C442.922,106.579 443.939,107 445,107 L449,107 L449,115 L445,115 C443.939,115 442.922,115.421 442.172,116.172 C441.421,116.922 441,117.939 441,119 L441,131 C441,132.061 441.421,133.078 442.172,133.828 C442.922,134.579 443.939,135 445,135 L485,135 C486.061,135 487.078,134.579 487.828,133.828 C488.579,133.078 489,132.061 489,131 L489,119 C489,117.939 488.579,116.922 487.828,116.172 C487.078,115.421 486.061,115 485,115 L481,115 L481,107 Z M445,91 L485,91 L485,103 L445,103 Z M485,131 L445,131 L445,119 L485,119 Z M477,115 L453,115 L453,107 L477,107 Z" />
        </g>
        <g id="Black-S" transform="translate(0,0)">
            <path d="M677,125 C677,123.895 677.895,123 679,123 C680.105,123 681,123.895 681,125 C681,126.105 680.105,127 679,127 C677.895,127 677,126.105 677,125 Z" />
            <path d="M673,123 L673,127 L649,127 L649,123 Z" />
            <path d="M677,97 C677,95.895 677.895,95 679,95 C680.105,95 681,95.895 681,97 C681,98.105 680.105,99 679,99 C677.895,99 677,98.105 677,97 Z" />
            <path d="M673,95 L673,99 L649,99 L649,95 Z" />
            <path d="M685,107 C686.061,107 687.078,106.579 687.828,105.828 C688.579,105.078 689,104.061 689,103 L689,91 C689,89.939 688.579,88.922 687.828,88.172 C687.078,87.421 686.061,87 685,87 L645,87 C643.939,87 642.922,87.421 642.172,88.172 C641.421,88.922 641,89.939 641,91 L641,103 C641,104.061 641.421,105.078 642.172,105.828 C642.922,106.579 643.939,107 645,107 L649,107 L649,115 L645,115 C643.939,115 642.922,115.421 642.172,116.172 C641.421,116.922 641,117.939 641,119 L641,131 C641,132.061 641.421,133.078 642.172,133.828 C642.922,134.579 643.939,135 645,135 L685,135 C686.061,135 687.078,134.579 687.828,133.828 C688.579,133.078 689,132.061 689,131 L689,119 C689,117.939 688.579,116.922 687.828,116.172 C687.078,115.421 686.061,115 685,115 L681,115 L681,107 Z M645,91 L685,91 L685,103 L645,103 Z M685,131 L645,131 L645,119 L685,119 Z M677,115 L653,115 L653,107 L677,107 Z" />
        </g>
    </g>
</svg>