<?xml version="1.0" encoding="UTF-8"?>
<svg height="600" width="800" xmlns="http://www.w3.org/2000/svg" xmlns:xlink="http://www.w3.org/1999/xlink">
    <style>
        .cls-1 { fill: none }
    </style>
    <g id="Notes" font-family="LucidaGrande, 'Lucida Grande', sans-serif" font-size="13">
        <rect fill="white" height="600.0" width="800.0" x="0.0" y="0.0" />
        <g font-size="13">
            <text x="18.0" y="176.0">Small</text>
            <text x="18.0" y="376.0">Medium</text>
            <text x="18.0" y="576.0">Large</text>
        </g>
        <g font-size="9">
            <text x="250.0" y="30.0">Ultralight</text>
            <text x="450.0" y="30.0">Regular</text>
            <text x="650.0" y="30.0">Black</text>
            <text id="template-version" fill="#505050" text-anchor="end" x="785.0" y="575.0">Template v.3.0</text>
            <a href="https://github.com/swhitty/SwiftDraw">
                <text fill="#505050" text-anchor="end" x="785.0" y="590.0">https://github.com/swhitty/SwiftDraw</text>
            </a>
        </g>
    </g>
    <g id="Guides" stroke="rgb(39, 170, 225)" stroke-width="0.5">
        <path id="Capline-S" d="M18,76 l800,0" />
        <path id="H-reference" d="M85,145.755 L87.685,145.755 L113.369,79.287 L114.052,79.287 L114.052,76 L112.148,76 L85,145.755 Z M95.693,121.536 L130.996,121.536 L130.263,119.313 L96.474,119.313 L95.693,121.536 Z M139.15,145.755 L141.787,145.755 L114.638,76 L113.466,76 L113.466,79.287 L139.15,145.755 Z" stroke="none" transform="translate(0,0)" />
        <path id="Baseline-S" d="M18,146 l800,0" />
        <path id="left-margin-Ultralight-S" d="M221,56 l0,110" />
        <path id="right-margin-Ultralight-S" d="M309,56 l0,110" />
        <path id="left-margin-Regular-S" d="M421,56 l0,110" />
        <path id="right-margin-Regular-S" d="M509,56 l0,110" />
        <path id="left-margin-Black-S" d="M621,56 l0,110" />
        <path id="right-margin-Black-S" d="M709,56 l0,110" />
        <path id="Capline-M" d="M18,276 l800,0" />
        <path id="Baseline-M" d="M18,346 l800,0" />
        <path id="Capline-L" d="M18,476 l800,0" />
        <path id="Baseline-L" d="M18,546 l800,0" />
    </g>
    <g id="Symbols">
        <g id="Ultralight-S" transform="translate(0,0)">
            <path d="M257.348,99.522 L247.362,99.522 C252.443,91.713 262.055,88.174 270.986,90.825 C279.918,93.475 286.044,101.683 286.043,111 L289.87,111 C289.88,100.518 283.317,91.154 273.46,87.588 C263.603,84.022 252.568,87.02 245.87,95.083 L245.87,88.043 L242.043,88.043 L242.043,103.348 L257.348,103.348 Z" />
            <path d="M272.652,122.478 L282.638,122.478 C277.557,130.287 267.945,133.826 259.014,131.175 C250.082,128.525 243.956,120.317 243.957,111 L240.13,111 C240.12,121.482 246.683,130.846 256.54,134.412 C266.397,137.978 277.432,134.98 284.13,126.917 L284.13,133.957 L287.956,133.957 L287.956,118.652 L272.652,118.652 Z" />
        </g>
        <g id="Regular-S" transform="translate(0,0)">
            <path d="M457.348,99.522 L447.362,99.522 C452.443,91.713 462.055,88.174 470.986,90.825 C479.918,93.475 486.044,101.683 486.043,111 L489.87,111 C489.88,100.518 483.317,91.154 473.46,87.588 C463.603,84.022 452.568,87.02 445.87,95.083 L445.87,88.043 L442.043,88.043 L442.043,103.348 L457.348,103.348 Z" />
            <path d="M472.652,122.478 L482.638,122.478 C477.557,130.287 467.946,133.826 459.014,131.175 C450.082,128.525 443.956,120.317 443.957,111 L440.13,111 C440.12,121.482 446.683,130.846 456.54,134.412 C466.397,137.978 477.432,134.98 484.13,126.917 L484.13,133.957 L487.956,133.957 L487.956,118.652 L472.652,118.652 Z" />
        </g>
        <g id="Black-S" transform="translate(0,0)">
            <path d="M657.348,99.522 L647.362,99.522 C652.443,91.713 662.055,88.174 670.986,90.825 C679.918,93.475 686.044,101.683 686.043,111 L689.87,111 C689.88,100.518 683.317,91.154 673.46,87.588 C663.603,84.022 652.568,87.02 645.87,95.083 L645.87,88.043 L642.043,88.043 L642.043,103.348 L657.348,103.348 Z" />
            <path d="M672.652,122.478 L682.638,122.478 C677.557,130.287 667.945,133.826 659.014,131.175 C650.082,128.525 643.956,120.317 643.956,111 L640.13,111 C640.12,121.482 646.683,130.846 656.54,134.412 C666.397,137.978 677.432,134.98 684.13,126.917 L684.13,133.957 L687.956,133.957 L687.956,118.652 L672.652,118.652 Z" />
        </g>
    </g>
</svg>