<?xml version="1.0" encoding="UTF-8"?>
<svg height="600" width="800" xmlns="http://www.w3.org/2000/svg" xmlns:xlink="http://www.w3.org/1999/xlink">
    <style>
        .cls-1 { fill: none }
    </style>
    <g id="Notes" font-family="LucidaGrande, 'Lucida Grande', sans-serif" font-size="13">
        <rect fill="white" height="600.0" width="800.0" x="0.0" y="0.0" />
        <g font-size="13">
            <text x="18.0" y="176.0">Small</text>
            <text x="18.0" y="376.0">Medium</text>
            <text x="18.0" y="576.0">Large</text>
        </g>
        <g font-size="9">
            <text x="250.0" y="30.0">Ultralight</text>
            <text x="450.0" y="30.0">Regular</text>
            <text x="650.0" y="30.0">Black</text>
            <text id="template-version" fill="#505050" text-anchor="end" x="785.0" y="575.0">Template v.3.0</text>
            <a href="https://github.com/swhitty/SwiftDraw">
                <text fill="#505050" text-anchor="end" x="785.0" y="590.0">https://github.com/swhitty/SwiftDraw</text>
            </a>
        </g>
    </g>
    <g id="Guides" stroke="rgb(39, 170, 225)" stroke-width="0.5">
        <path id="Capline-S" d="M18,76 l800,0" />
        <path id="H-reference" d="M85,145.755 L87.685,145.755 L113.369,79.287 L114.052,79.287 L114.052,76 L112.148,76 L85,145.755 Z M95.693,121.536 L130.996,121.536 L130.263,119.313 L96.474,119.313 L95.693,121.536 Z M139.15,145.755 L141.787,145.755 L114.638,76 L113.466,76 L113.466,79.287 L139.15,145.755 Z" stroke="none" transform="translate(0,0)" />
        <path id="Baseline-S" d="M18,146 l800,0" />
        <path id="left-margin-Ultralight-S" d="M221,56 l0,110" />
        <path id="right-margin-Ultralight-S" d="M309,56 l0,110" />
        <path id="left-margin-Regular-S" d="M421,56 l0,110" />
        <path id="right-margin-Regular-S" d="M509,56 l0,110" />
        <path id="left-margin-Black-S" d="M621,56 l0,110" />
        <path id="right-margin-Black-S" d="M709,56 l0,110" />
        <path id="Capline-M" d="M18,276 l800,0" />
        <path id="Baseline-M" d="M18,346 l800,0" />
        <path id="Capline-L" d="M18,476 l800,0" />
        <path id="Baseline-L" d="M18,546 l800,0" />
    </g>
    <g id="Symbols">
        <g id="Ultralight-S" transform="translate(0,0)">
            <path d="M287,127.5 L243,127.5 C242.028,127.5 241.095,127.114 240.407,126.426 C239.72,125.738 239.333,124.806 239.333,123.833 L239.333,98.167 C239.333,97.194 239.72,96.262 240.407,95.574 C241.095,94.886 242.028,94.5 243,94.5 L287,94.5 C287.972,94.5 288.905,94.886 289.593,95.574 C290.28,96.262 290.667,97.194 290.667,98.167 L290.667,123.833 C290.667,124.806 290.28,125.738 289.593,126.426 C288.905,127.114 287.972,127.5 287,127.5 Z M243,98.167 L243,123.833 L287,123.833 L287,98.167 Z" />
            <path d="M274.167,116.5 L274.167,120.167 L254,120.167 L254,116.5 Z" />
            <path d="M250.333,101.833 L250.333,105.5 L246.667,105.5 L246.667,101.833 Z" />
            <path d="M257.667,101.833 L257.667,105.5 L254,105.5 L254,101.833 Z" />
            <path d="M265,101.833 L265,105.5 L261.333,105.5 L261.333,101.833 Z" />
            <path d="M272.333,101.833 L272.333,105.5 L268.667,105.5 L268.667,101.833 Z" />
            <path d="M250.333,116.5 L250.333,120.167 L246.667,120.167 L246.667,116.5 Z" />
            <path d="M250.333,109.167 L250.333,112.833 L246.667,112.833 L246.667,109.167 Z" />
            <path d="M257.667,109.167 L257.667,112.833 L254,112.833 L254,109.167 Z" />
            <path d="M265,109.167 L265,112.833 L261.333,112.833 L261.333,109.167 Z" />
            <path d="M283.333,101.833 L283.333,105.5 L276,105.5 L276,101.833 Z" />
            <path d="M283.333,109.167 L283.333,112.833 L276,112.833 L276,109.167 Z" />
            <path d="M272.333,109.167 L272.333,112.833 L268.667,112.833 L268.667,109.167 Z" />
            <path d="M283.333,116.5 L283.333,120.167 L277.833,120.167 L277.833,116.5 Z" />
        </g>
        <g id="Regular-S" transform="translate(0,0)">
            <path d="M487,127.5 L443,127.5 C442.028,127.5 441.095,127.114 440.407,126.426 C439.72,125.738 439.333,124.806 439.333,123.833 L439.333,98.167 C439.333,97.194 439.72,96.262 440.407,95.574 C441.095,94.886 442.028,94.5 443,94.5 L487,94.5 C487.972,94.5 488.905,94.886 489.593,95.574 C490.28,96.262 490.667,97.194 490.667,98.167 L490.667,123.833 C490.667,124.806 490.28,125.738 489.593,126.426 C488.905,127.114 487.972,127.5 487,127.5 Z M443,98.167 L443,123.833 L487,123.833 L487,98.167 Z" />
            <path d="M474.167,116.5 L474.167,120.167 L454,120.167 L454,116.5 Z" />
            <path d="M450.333,101.833 L450.333,105.5 L446.667,105.5 L446.667,101.833 Z" />
            <path d="M457.667,101.833 L457.667,105.5 L454,105.5 L454,101.833 Z" />
            <path d="M465,101.833 L465,105.5 L461.333,105.5 L461.333,101.833 Z" />
            <path d="M472.333,101.833 L472.333,105.5 L468.667,105.5 L468.667,101.833 Z" />
            <path d="M450.333,116.5 L450.333,120.167 L446.667,120.167 L446.667,116.5 Z" />
            <path d="M450.333,109.167 L450.333,112.833 L446.667,112.833 L446.667,109.167 Z" />
            <path d="M457.667,109.167 L457.667,112.833 L454,112.833 L454,109.167 Z" />
            <path d="M465,109.167 L465,112.833 L461.333,112.833 L461.333,109.167 Z" />
            <path d="M483.333,101.833 L483.333,105.5 L476,105.5 L476,101.833 Z" />
            <path d="M483.333,109.167 L483.333,112.833 L476,112.833 L476,109.167 Z" />
            <path d="M472.333,109.167 L472.333,112.833 L468.667,112.833 L468.667,109.167 Z" />
            <path d="M483.333,116.5 L483.333,120.167 L477.833,120.167 L477.833,116.5 Z" />
        </g>
        <g id="Black-S" transform="translate(0,0)">
            <path d="M687,127.5 L643,127.5 C642.028,127.5 641.095,127.114 640.407,126.426 C639.72,125.738 639.333,124.806 639.333,123.833 L639.333,98.167 C639.333,97.194 639.72,96.262 640.407,95.574 C641.095,94.886 642.028,94.5 643,94.5 L687,94.5 C687.972,94.5 688.905,94.886 689.593,95.574 C690.28,96.262 690.667,97.194 690.667,98.167 L690.667,123.833 C690.667,124.806 690.28,125.738 689.593,126.426 C688.905,127.114 687.972,127.5 687,127.5 Z M643,98.167 L643,123.833 L687,123.833 L687,98.167 Z" />
            <path d="M674.167,116.5 L674.167,120.167 L654,120.167 L654,116.5 Z" />
            <path d="M650.333,101.833 L650.333,105.5 L646.667,105.5 L646.667,101.833 Z" />
            <path d="M657.667,101.833 L657.667,105.5 L654,105.5 L654,101.833 Z" />
            <path d="M665,101.833 L665,105.5 L661.333,105.5 L661.333,101.833 Z" />
            <path d="M672.333,101.833 L672.333,105.5 L668.667,105.5 L668.667,101.833 Z" />
            <path d="M650.333,116.5 L650.333,120.167 L646.667,120.167 L646.667,116.5 Z" />
            <path d="M650.333,109.167 L650.333,112.833 L646.667,112.833 L646.667,109.167 Z" />
            <path d="M657.667,109.167 L657.667,112.833 L654,112.833 L654,109.167 Z" />
            <path d="M665,109.167 L665,112.833 L661.333,112.833 L661.333,109.167 Z" />
            <path d="M683.333,101.833 L683.333,105.5 L676,105.5 L676,101.833 Z" />
            <path d="M683.333,109.167 L683.333,112.833 L676,112.833 L676,109.167 Z" />
            <path d="M672.333,109.167 L672.333,112.833 L668.667,112.833 L668.667,109.167 Z" />
            <path d="M683.333,116.5 L683.333,120.167 L677.833,120.167 L677.833,116.5 Z" />
        </g>
    </g>
</svg>