<?xml version="1.0" encoding="UTF-8"?>
<svg height="600" width="800" xmlns="http://www.w3.org/2000/svg" xmlns:xlink="http://www.w3.org/1999/xlink">
    <style>
        .cls-1 { fill: none }
    </style>
    <g id="Notes" font-family="LucidaGrande, 'Lucida Grande', sans-serif" font-size="13">
        <rect fill="white" height="600.0" width="800.0" x="0.0" y="0.0" />
        <g font-size="13">
            <text x="18.0" y="176.0">Small</text>
            <text x="18.0" y="376.0">Medium</text>
            <text x="18.0" y="576.0">Large</text>
        </g>
        <g font-size="9">
            <text x="250.0" y="30.0">Ultralight</text>
            <text x="450.0" y="30.0">Regular</text>
            <text x="650.0" y="30.0">Black</text>
            <text id="template-version" fill="#505050" text-anchor="end" x="785.0" y="575.0">Template v.3.0</text>
            <a href="https://github.com/swhitty/SwiftDraw">
                <text fill="#505050" text-anchor="end" x="785.0" y="590.0">https://github.com/swhitty/SwiftDraw</text>
            </a>
        </g>
    </g>
    <g id="Guides" stroke="rgb(39, 170, 225)" stroke-width="0.5">
        <path id="Capline-S" d="M18,76 l800,0" />
        <path id="H-reference" d="M85,145.755 L87.685,145.755 L113.369,79.287 L114.052,79.287 L114.052,76 L112.148,76 L85,145.755 Z M95.693,121.536 L130.996,121.536 L130.263,119.313 L96.474,119.313 L95.693,121.536 Z M139.15,145.755 L141.787,145.755 L114.638,76 L113.466,76 L113.466,79.287 L139.15,145.755 Z" stroke="none" transform="translate(0,0)" />
        <path id="Baseline-S" d="M18,146 l800,0" />
        <path id="left-margin-Ultralight-S" d="M221,56 l0,110" />
        <path id="right-margin-Ultralight-S" d="M309,56 l0,110" />
        <path id="left-margin-Regular-S" d="M421,56 l0,110" />
        <path id="right-margin-Regular-S" d="M509,56 l0,110" />
        <path id="left-margin-Black-S" d="M621,56 l0,110" />
        <path id="right-margin-Black-S" d="M709,56 l0,110" />
        <path id="Capline-M" d="M18,276 l800,0" />
        <path id="Baseline-M" d="M18,346 l800,0" />
        <path id="Capline-L" d="M18,476 l800,0" />
        <path id="Baseline-L" d="M18,546 l800,0" />
    </g>
    <g id="Symbols">
        <g id="Ultralight-S" transform="translate(0,0)">
            <path d="M254.016,142.399 C253.066,141.999 252.509,141.005 252.663,139.986 L256.768,113.256 L245.873,113.256 C245.173,113.275 244.504,112.968 244.062,112.424 C243.62,111.881 243.456,111.163 243.617,110.482 L250.384,81.158 C250.63,80.118 251.572,79.392 252.64,79.421 L275.197,79.421 C275.879,79.419 276.526,79.726 276.956,80.256 C277.392,80.792 277.559,81.498 277.407,82.173 L273.505,99.722 L284.219,99.722 C285.082,99.72 285.87,100.211 286.25,100.985 C286.579,101.727 286.484,102.588 286.001,103.241 L256.678,141.587 C256.276,142.183 255.614,142.552 254.896,142.58 C254.594,142.574 254.296,142.513 254.016,142.399 Z M267.866,104.233 L272.377,83.932 L254.445,83.932 L248.715,108.745 L262.046,108.745 L258.46,131.933 L279.708,104.233 Z" />
        </g>
        <g id="Regular-S" transform="translate(0,0)">
            <path d="M454.016,142.399 C453.066,141.999 452.509,141.005 452.663,139.986 L456.768,113.256 L445.873,113.256 C445.173,113.275 444.504,112.968 444.062,112.424 C443.62,111.881 443.456,111.163 443.617,110.482 L450.384,81.158 C450.63,80.118 451.572,79.392 452.64,79.421 L475.197,79.421 C475.879,79.419 476.526,79.726 476.956,80.256 C477.392,80.792 477.559,81.498 477.407,82.173 L473.505,99.722 L484.219,99.722 C485.082,99.72 485.87,100.211 486.25,100.985 C486.579,101.727 486.484,102.588 486.001,103.241 L456.678,141.587 C456.276,142.183 455.614,142.552 454.896,142.58 C454.594,142.574 454.296,142.513 454.016,142.399 Z M467.866,104.233 L472.377,83.932 L454.445,83.932 L448.715,108.745 L462.046,108.745 L458.46,131.933 L479.708,104.233 Z" />
        </g>
        <g id="Black-S" transform="translate(0,0)">
            <path d="M654.016,142.399 C653.066,141.999 652.509,141.005 652.663,139.986 L656.768,113.256 L645.873,113.256 C645.173,113.275 644.504,112.968 644.062,112.424 C643.62,111.881 643.456,111.163 643.617,110.482 L650.384,81.158 C650.63,80.118 651.572,79.392 652.64,79.421 L675.197,79.421 C675.879,79.419 676.526,79.726 676.956,80.256 C677.392,80.792 677.559,81.498 677.407,82.173 L673.505,99.722 L684.219,99.722 C685.082,99.72 685.87,100.211 686.25,100.985 C686.579,101.727 686.484,102.588 686.001,103.241 L656.678,141.587 C656.276,142.183 655.614,142.552 654.896,142.58 C654.594,142.574 654.296,142.513 654.016,142.399 Z M667.866,104.233 L672.377,83.932 L654.445,83.932 L648.715,108.745 L662.046,108.745 L658.46,131.933 L679.708,104.233 Z" />
        </g>
    </g>
</svg>