<?xml version="1.0" encoding="UTF-8"?>
<svg height="600" width="800" xmlns="http://www.w3.org/2000/svg" xmlns:xlink="http://www.w3.org/1999/xlink">
    <style>
        .cls-1 { fill: none }
    </style>
    <g id="Notes" font-family="LucidaGrande, 'Lucida Grande', sans-serif" font-size="13">
        <rect fill="white" height="600.0" width="800.0" x="0.0" y="0.0" />
        <g font-size="13">
            <text x="18.0" y="176.0">Small</text>
            <text x="18.0" y="376.0">Medium</text>
            <text x="18.0" y="576.0">Large</text>
        </g>
        <g font-size="9">
            <text x="250.0" y="30.0">Ultralight</text>
            <text x="450.0" y="30.0">Regular</text>
            <text x="650.0" y="30.0">Black</text>
            <text id="template-version" fill="#505050" text-anchor="end" x="785.0" y="575.0">Template v.3.0</text>
            <a href="https://github.com/swhitty/SwiftDraw">
                <text fill="#505050" text-anchor="end" x="785.0" y="590.0">https://github.com/swhitty/SwiftDraw</text>
            </a>
        </g>
    </g>
    <g id="Guides" stroke="rgb(39, 170, 225)" stroke-width="0.5">
        <path id="Capline-S" d="M18,76 l800,0" />
        <path id="H-reference" d="M85,145.755 L87.685,145.755 L113.369,79.287 L114.052,79.287 L114.052,76 L112.148,76 L85,145.755 Z M95.693,121.536 L130.996,121.536 L130.263,119.313 L96.474,119.313 L95.693,121.536 Z M139.15,145.755 L141.787,145.755 L114.638,76 L113.466,76 L113.466,79.287 L139.15,145.755 Z" stroke="none" transform="translate(0,0)" />
        <path id="Baseline-S" d="M18,146 l800,0" />
        <path id="left-margin-Ultralight-S" d="M221,56 l0,110" />
        <path id="right-margin-Ultralight-S" d="M309,56 l0,110" />
        <path id="left-margin-Regular-S" d="M421,56 l0,110" />
        <path id="right-margin-Regular-S" d="M509,56 l0,110" />
        <path id="left-margin-Black-S" d="M621,56 l0,110" />
        <path id="right-margin-Black-S" d="M709,56 l0,110" />
        <path id="Capline-M" d="M18,276 l800,0" />
        <path id="Baseline-M" d="M18,346 l800,0" />
        <path id="Capline-L" d="M18,476 l800,0" />
        <path id="Baseline-L" d="M18,546 l800,0" />
    </g>
    <g id="Symbols">
        <g id="Ultralight-S" transform="translate(0,0)">
            <path d="M288.522,124.138 L277.836,113.433 L277.836,105.496 C277.838,105.009 277.647,104.54 277.304,104.194 L258.973,85.864 C258.629,85.517 258.161,85.321 257.672,85.321 C257.183,85.321 256.715,85.517 256.37,85.864 L239.873,102.361 C239.526,102.705 239.331,103.174 239.331,103.663 C239.331,104.152 239.526,104.62 239.873,104.964 L258.203,123.295 C258.549,123.638 259.018,123.829 259.505,123.826 L267.46,123.826 L278.147,134.532 C281.013,137.395 285.656,137.394 288.521,134.53 C291.385,131.665 291.386,127.022 288.522,124.156 Z M246.674,100.748 L250.871,104.964 L253.474,102.361 L249.258,98.164 L252.173,95.249 L260.037,103.131 L262.64,100.528 L254.757,92.664 L257.672,89.75 L269.752,101.83 L255.839,115.743 L243.759,103.663 Z M285.919,131.91 C284.49,133.332 282.18,133.332 280.75,131.91 L269.513,120.692 C269.123,120.423 268.679,120.242 268.212,120.16 L260.257,120.16 L258.423,118.327 L272.336,104.414 L274.169,106.247 L274.169,114.203 C274.172,114.684 274.362,115.145 274.701,115.486 L285.919,126.741 C287.341,128.171 287.341,130.48 285.919,131.91 Z" />
        </g>
        <g id="Regular-S" transform="translate(0,0)">
            <path d="M488.522,124.138 L477.836,113.433 L477.836,105.496 C477.838,105.009 477.647,104.54 477.304,104.194 L458.973,85.864 C458.629,85.517 458.161,85.321 457.672,85.321 C457.183,85.321 456.715,85.517 456.37,85.864 L439.873,102.361 C439.526,102.705 439.331,103.174 439.331,103.663 C439.331,104.152 439.526,104.62 439.873,104.964 L458.203,123.295 C458.549,123.638 459.018,123.829 459.505,123.826 L467.46,123.826 L478.147,134.532 C481.013,137.395 485.656,137.394 488.521,134.53 C491.385,131.665 491.386,127.022 488.522,124.156 Z M446.674,100.748 L450.871,104.964 L453.474,102.361 L449.258,98.164 L452.173,95.249 L460.037,103.131 L462.64,100.528 L454.757,92.664 L457.672,89.75 L469.752,101.83 L455.839,115.743 L443.759,103.663 Z M485.919,131.91 C484.49,133.332 482.18,133.332 480.75,131.91 L469.513,120.692 C469.123,120.423 468.679,120.242 468.212,120.16 L460.257,120.16 L458.423,118.327 L472.336,104.414 L474.169,106.247 L474.169,114.203 C474.172,114.684 474.362,115.145 474.701,115.486 L485.919,126.741 C487.341,128.171 487.341,130.48 485.919,131.91 Z" />
        </g>
        <g id="Black-S" transform="translate(0,0)">
            <path d="M688.522,124.138 L677.836,113.433 L677.836,105.496 C677.838,105.009 677.647,104.54 677.304,104.194 L658.973,85.864 C658.629,85.517 658.161,85.321 657.672,85.321 C657.183,85.321 656.715,85.517 656.37,85.864 L639.873,102.361 C639.526,102.705 639.331,103.174 639.331,103.663 C639.331,104.152 639.526,104.62 639.873,104.964 L658.204,123.295 C658.549,123.638 659.018,123.829 659.505,123.826 L667.461,123.826 L678.147,134.532 C681.013,137.395 685.656,137.394 688.521,134.53 C691.385,131.665 691.386,127.022 688.522,124.156 Z M646.674,100.748 L650.871,104.964 L653.474,102.361 L649.258,98.164 L652.173,95.249 L660.037,103.131 L662.64,100.528 L654.757,92.664 L657.672,89.75 L669.752,101.83 L655.839,115.743 L643.759,103.663 Z M685.919,131.91 C684.49,133.332 682.18,133.332 680.75,131.91 L669.514,120.692 C669.123,120.423 668.679,120.242 668.212,120.16 L660.257,120.16 L658.424,118.327 L672.336,104.414 L674.169,106.247 L674.169,114.203 C674.172,114.684 674.362,115.145 674.701,115.486 L685.919,126.741 C687.341,128.171 687.341,130.48 685.919,131.91 Z" />
        </g>
    </g>
</svg>