<?xml version="1.0" encoding="UTF-8"?>
<svg height="600" width="800" xmlns="http://www.w3.org/2000/svg" xmlns:xlink="http://www.w3.org/1999/xlink">
    <style>
        .cls-1 { fill: none }
    </style>
    <g id="Notes" font-family="LucidaGrande, 'Lucida Grande', sans-serif" font-size="13">
        <rect fill="white" height="600.0" width="800.0" x="0.0" y="0.0" />
        <g font-size="13">
            <text x="18.0" y="176.0">Small</text>
            <text x="18.0" y="376.0">Medium</text>
            <text x="18.0" y="576.0">Large</text>
        </g>
        <g font-size="9">
            <text x="250.0" y="30.0">Ultralight</text>
            <text x="450.0" y="30.0">Regular</text>
            <text x="650.0" y="30.0">Black</text>
            <text id="template-version" fill="#505050" text-anchor="end" x="785.0" y="575.0">Template v.3.0</text>
            <a href="https://github.com/swhitty/SwiftDraw">
                <text fill="#505050" text-anchor="end" x="785.0" y="590.0">https://github.com/swhitty/SwiftDraw</text>
            </a>
        </g>
    </g>
    <g id="Guides" stroke="rgb(39, 170, 225)" stroke-width="0.5">
        <path id="Capline-S" d="M18,76 l800,0" />
        <path id="H-reference" d="M85,145.755 L87.685,145.755 L113.369,79.287 L114.052,79.287 L114.052,76 L112.148,76 L85,145.755 Z M95.693,121.536 L130.996,121.536 L130.263,119.313 L96.474,119.313 L95.693,121.536 Z M139.15,145.755 L141.787,145.755 L114.638,76 L113.466,76 L113.466,79.287 L139.15,145.755 Z" stroke="none" transform="translate(0,0)" />
        <path id="Baseline-S" d="M18,146 l800,0" />
        <path id="left-margin-Ultralight-S" d="M221,56 l0,110" />
        <path id="right-margin-Ultralight-S" d="M309,56 l0,110" />
        <path id="left-margin-Regular-S" d="M421,56 l0,110" />
        <path id="right-margin-Regular-S" d="M509,56 l0,110" />
        <path id="left-margin-Black-S" d="M621,56 l0,110" />
        <path id="right-margin-Black-S" d="M709,56 l0,110" />
        <path id="Capline-M" d="M18,276 l800,0" />
        <path id="Baseline-M" d="M18,346 l800,0" />
        <path id="Capline-L" d="M18,476 l800,0" />
        <path id="Baseline-L" d="M18,546 l800,0" />
    </g>
    <g id="Symbols">
        <g id="Ultralight-S" transform="translate(0,0)">
            <path d="M290.173,119.458 L290.792,115.816 L281.378,114.268 L281.378,106.712 C281.378,106.566 281.378,106.439 281.378,106.293 L290.592,103.817 L289.663,100.303 L280.868,102.652 C279.657,98.072 276.523,94.241 272.274,92.145 L272.274,86.683 L268.633,86.683 L268.633,90.743 C266.237,90.185 263.745,90.185 261.349,90.743 L261.349,86.683 L257.708,86.683 L257.708,92.145 C253.446,94.265 250.316,98.132 249.132,102.743 L240.337,100.303 L239.499,103.817 L248.604,106.293 C248.604,106.439 248.604,106.566 248.604,106.712 L248.604,114.268 L239.208,115.816 L239.791,119.458 L248.604,117.965 C248.645,120.212 249.154,122.425 250.097,124.465 L241.848,132.731 L244.434,135.317 L252.063,127.67 C255.168,131.656 259.938,133.986 264.991,133.986 C270.044,133.986 274.814,131.656 277.919,127.67 L285.548,135.317 L288.133,132.731 L279.867,124.465 C280.816,122.426 281.331,120.213 281.378,117.965 Z M263.17,130.237 C256.905,129.333 252.253,123.967 252.245,117.637 L252.245,106.712 L263.17,106.712 Z M252.773,103.07 C254.38,97.663 259.35,93.955 264.991,93.955 C270.632,93.955 275.602,97.663 277.209,103.07 Z M277.737,117.637 C277.729,123.967 273.077,129.332 266.812,130.237 L266.812,106.712 L277.737,106.712 Z" />
        </g>
        <g id="Regular-S" transform="translate(0,0)">
            <path d="M490.173,119.458 L490.792,115.816 L481.378,114.268 L481.378,106.712 C481.378,106.566 481.378,106.439 481.378,106.293 L490.592,103.817 L489.663,100.303 L480.868,102.652 C479.657,98.072 476.523,94.241 472.274,92.145 L472.274,86.683 L468.633,86.683 L468.633,90.743 C466.237,90.185 463.745,90.185 461.349,90.743 L461.349,86.683 L457.708,86.683 L457.708,92.145 C453.446,94.265 450.316,98.132 449.132,102.743 L440.337,100.303 L439.499,103.817 L448.604,106.293 C448.604,106.439 448.604,106.566 448.604,106.712 L448.604,114.268 L439.208,115.816 L439.791,119.458 L448.604,117.965 C448.645,120.212 449.154,122.425 450.097,124.465 L441.848,132.731 L444.434,135.317 L452.063,127.67 C455.168,131.656 459.938,133.986 464.991,133.986 C470.044,133.986 474.814,131.656 477.919,127.67 L485.548,135.317 L488.133,132.731 L479.867,124.465 C480.816,122.426 481.331,120.213 481.378,117.965 Z M463.17,130.237 C456.905,129.333 452.253,123.967 452.245,117.637 L452.245,106.712 L463.17,106.712 Z M452.773,103.07 C454.38,97.663 459.35,93.955 464.991,93.955 C470.632,93.955 475.602,97.663 477.209,103.07 Z M477.737,117.637 C477.729,123.967 473.077,129.332 466.812,130.237 L466.812,106.712 L477.737,106.712 Z" />
        </g>
        <g id="Black-S" transform="translate(0,0)">
            <path d="M690.173,119.458 L690.792,115.816 L681.378,114.268 L681.378,106.712 C681.378,106.566 681.378,106.439 681.378,106.293 L690.592,103.817 L689.663,100.303 L680.868,102.652 C679.657,98.072 676.523,94.241 672.274,92.145 L672.274,86.683 L668.633,86.683 L668.633,90.743 C666.237,90.185 663.745,90.185 661.349,90.743 L661.349,86.683 L657.708,86.683 L657.708,92.145 C653.446,94.265 650.316,98.132 649.132,102.743 L640.337,100.303 L639.499,103.817 L648.604,106.293 C648.604,106.439 648.604,106.566 648.604,106.712 L648.604,114.268 L639.208,115.816 L639.791,119.458 L648.604,117.965 C648.645,120.212 649.154,122.425 650.097,124.465 L641.848,132.731 L644.434,135.317 L652.063,127.67 C655.168,131.656 659.938,133.986 664.991,133.986 C670.044,133.986 674.814,131.656 677.919,127.67 L685.548,135.317 L688.133,132.731 L679.867,124.465 C680.816,122.426 681.331,120.213 681.378,117.965 Z M663.17,130.237 C656.905,129.333 652.253,123.967 652.245,117.637 L652.245,106.712 L663.17,106.712 Z M652.773,103.07 C654.38,97.663 659.35,93.955 664.991,93.955 C670.632,93.955 675.602,97.663 677.209,103.07 Z M677.737,117.637 C677.729,123.967 673.077,129.332 666.812,130.237 L666.812,106.712 L677.737,106.712 Z" />
        </g>
    </g>
</svg>