<?xml version="1.0" encoding="UTF-8"?>
<svg height="600" width="800" xmlns="http://www.w3.org/2000/svg" xmlns:xlink="http://www.w3.org/1999/xlink">
    <style>
        .cls-1 { fill: none }
    </style>
    <g id="Notes" font-family="LucidaGrande, 'Lucida Grande', sans-serif" font-size="13">
        <rect fill="white" height="600.0" width="800.0" x="0.0" y="0.0" />
        <g font-size="13">
            <text x="18.0" y="176.0">Small</text>
            <text x="18.0" y="376.0">Medium</text>
            <text x="18.0" y="576.0">Large</text>
        </g>
        <g font-size="9">
            <text x="250.0" y="30.0">Ultralight</text>
            <text x="450.0" y="30.0">Regular</text>
            <text x="650.0" y="30.0">Black</text>
            <text id="template-version" fill="#505050" text-anchor="end" x="785.0" y="575.0">Template v.3.0</text>
            <a href="https://github.com/swhitty/SwiftDraw">
                <text fill="#505050" text-anchor="end" x="785.0" y="590.0">https://github.com/swhitty/SwiftDraw</text>
            </a>
        </g>
    </g>
    <g id="Guides" stroke="rgb(39, 170, 225)" stroke-width="0.5">
        <path id="Capline-S" d="M18,76 l800,0" />
        <path id="H-reference" d="M85,145.755 L87.685,145.755 L113.369,79.287 L114.052,79.287 L114.052,76 L112.148,76 L85,145.755 Z M95.693,121.536 L130.996,121.536 L130.263,119.313 L96.474,119.313 L95.693,121.536 Z M139.15,145.755 L141.787,145.755 L114.638,76 L113.466,76 L113.466,79.287 L139.15,145.755 Z" stroke="none" transform="translate(0,0)" />
        <path id="Baseline-S" d="M18,146 l800,0" />
        <path id="left-margin-Ultralight-S" d="M221,56 l0,110" />
        <path id="right-margin-Ultralight-S" d="M309,56 l0,110" />
        <path id="left-margin-Regular-S" d="M421,56 l0,110" />
        <path id="right-margin-Regular-S" d="M509,56 l0,110" />
        <path id="left-margin-Black-S" d="M621,56 l0,110" />
        <path id="right-margin-Black-S" d="M709,56 l0,110" />
        <path id="Capline-M" d="M18,276 l800,0" />
        <path id="Baseline-M" d="M18,346 l800,0" />
        <path id="Capline-L" d="M18,476 l800,0" />
        <path id="Baseline-L" d="M18,546 l800,0" />
    </g>
    <g id="Symbols">
        <g id="Ultralight-S" transform="translate(0,0)">
            <path d="M285.167,98.167 L279.667,98.167 L279.667,92.667 C279.667,91.694 279.28,90.762 278.593,90.074 C277.905,89.386 276.972,89 276,89 L254,89 C253.028,89 252.095,89.386 251.407,90.074 C250.72,90.762 250.333,91.694 250.333,92.667 L250.333,98.167 L244.833,98.167 C243.375,98.167 241.976,98.746 240.944,99.778 C239.913,100.809 239.333,102.208 239.333,103.667 L239.333,129.333 C239.333,130.306 239.72,131.238 240.407,131.926 C241.095,132.614 242.028,133 243,133 L287,133 C287.972,133 288.905,132.614 289.593,131.926 C290.28,131.238 290.667,130.306 290.667,129.333 L290.667,103.667 C290.667,102.208 290.087,100.809 289.056,99.778 C288.024,98.746 286.625,98.167 285.167,98.167 Z M254,92.667 L276,92.667 L276,98.167 L254,98.167 Z M287,129.333 L243,129.333 L243,112.833 L257.667,112.833 L257.667,122 L272.333,122 L272.333,112.833 L287,112.833 Z M261.333,112.833 L268.667,112.833 L268.667,118.333 L261.333,118.333 Z M243,109.167 L243,103.667 C243,103.18 243.193,102.714 243.537,102.37 C243.881,102.026 244.347,101.833 244.833,101.833 L285.167,101.833 C285.653,101.833 286.119,102.026 286.463,102.37 C286.807,102.714 287,103.18 287,103.667 L287,109.167 Z" />
        </g>
        <g id="Regular-S" transform="translate(0,0)">
            <path d="M485.167,98.167 L479.667,98.167 L479.667,92.667 C479.667,91.694 479.28,90.762 478.593,90.074 C477.905,89.386 476.972,89 476,89 L454,89 C453.028,89 452.095,89.386 451.407,90.074 C450.72,90.762 450.333,91.694 450.333,92.667 L450.333,98.167 L444.833,98.167 C443.375,98.167 441.976,98.746 440.944,99.778 C439.913,100.809 439.333,102.208 439.333,103.667 L439.333,129.333 C439.333,130.306 439.72,131.238 440.407,131.926 C441.095,132.614 442.028,133 443,133 L487,133 C487.972,133 488.905,132.614 489.593,131.926 C490.28,131.238 490.667,130.306 490.667,129.333 L490.667,103.667 C490.667,102.208 490.087,100.809 489.056,99.778 C488.024,98.746 486.625,98.167 485.167,98.167 Z M454,92.667 L476,92.667 L476,98.167 L454,98.167 Z M487,129.333 L443,129.333 L443,112.833 L457.667,112.833 L457.667,122 L472.333,122 L472.333,112.833 L487,112.833 Z M461.333,112.833 L468.667,112.833 L468.667,118.333 L461.333,118.333 Z M443,109.167 L443,103.667 C443,103.18 443.193,102.714 443.537,102.37 C443.881,102.026 444.347,101.833 444.833,101.833 L485.167,101.833 C485.653,101.833 486.119,102.026 486.463,102.37 C486.807,102.714 487,103.18 487,103.667 L487,109.167 Z" />
        </g>
        <g id="Black-S" transform="translate(0,0)">
            <path d="M685.167,98.167 L679.667,98.167 L679.667,92.667 C679.667,91.694 679.28,90.762 678.593,90.074 C677.905,89.386 676.972,89 676,89 L654,89 C653.028,89 652.095,89.386 651.407,90.074 C650.72,90.762 650.333,91.694 650.333,92.667 L650.333,98.167 L644.833,98.167 C643.375,98.167 641.976,98.746 640.944,99.778 C639.913,100.809 639.333,102.208 639.333,103.667 L639.333,129.333 C639.333,130.306 639.72,131.238 640.407,131.926 C641.095,132.614 642.028,133 643,133 L687,133 C687.972,133 688.905,132.614 689.593,131.926 C690.28,131.238 690.667,130.306 690.667,129.333 L690.667,103.667 C690.667,102.208 690.087,100.809 689.056,99.778 C688.024,98.746 686.625,98.167 685.167,98.167 Z M654,92.667 L676,92.667 L676,98.167 L654,98.167 Z M687,129.333 L643,129.333 L643,112.833 L657.667,112.833 L657.667,122 L672.333,122 L672.333,112.833 L687,112.833 Z M661.333,112.833 L668.667,112.833 L668.667,118.333 L661.333,118.333 Z M643,109.167 L643,103.667 C643,103.18 643.193,102.714 643.537,102.37 C643.881,102.026 644.347,101.833 644.833,101.833 L685.167,101.833 C685.653,101.833 686.119,102.026 686.463,102.37 C686.807,102.714 687,103.18 687,103.667 L687,109.167 Z" />
        </g>
    </g>
</svg>