<?xml version="1.0" encoding="UTF-8"?>
<svg height="600" width="800" xmlns="http://www.w3.org/2000/svg" xmlns:xlink="http://www.w3.org/1999/xlink">
    <style>
        
    </style>
    <g id="Notes" font-family="LucidaGrande, 'Lucida Grande', sans-serif" font-size="13">
        <rect fill="white" height="600.0" width="800.0" x="0.0" y="0.0" />
        <g font-size="13">
            <text x="18.0" y="176.0">Small</text>
            <text x="18.0" y="376.0">Medium</text>
            <text x="18.0" y="576.0">Large</text>
        </g>
        <g font-size="9">
            <text x="250.0" y="30.0">Ultralight</text>
            <text x="450.0" y="30.0">Regular</text>
            <text x="650.0" y="30.0">Black</text>
            <text id="template-version" fill="#505050" text-anchor="end" x="785.0" y="575.0">Template v.3.0</text>
            <a href="https://github.com/swhitty/SwiftDraw">
                <text fill="#505050" text-anchor="end" x="785.0" y="590.0">https://github.com/swhitty/SwiftDraw</text>
            </a>
        </g>
    </g>
    <g id="Guides" stroke="rgb(39, 170, 225)" stroke-width="0.5">
        <path id="Capline-S" d="M18,76 l800,0" />
        <path id="H-reference" d="M85,145.755 L87.685,145.755 L113.369,79.287 L114.052,79.287 L114.052,76 L112.148,76 L85,145.755 Z M95.693,121.536 L130.996,121.536 L130.263,119.313 L96.474,119.313 L95.693,121.536 Z M139.15,145.755 L141.787,145.755 L114.638,76 L113.466,76 L113.466,79.287 L139.15,145.755 Z" stroke="none" transform="translate(0,0)" />
        <path id="Baseline-S" d="M18,146 l800,0" />
        <path id="left-margin-Ultralight-S" d="M221,56 l0,110" />
        <path id="right-margin-Ultralight-S" d="M309,56 l0,110" />
        <path id="left-margin-Regular-S" d="M421,56 l0,110" />
        <path id="right-margin-Regular-S" d="M509,56 l0,110" />
        <path id="left-margin-Black-S" d="M621,56 l0,110" />
        <path id="right-margin-Black-S" d="M709,56 l0,110" />
        <path id="Capline-M" d="M18,276 l800,0" />
        <path id="Baseline-M" d="M18,346 l800,0" />
        <path id="Capline-L" d="M18,476 l800,0" />
        <path id="Baseline-L" d="M18,546 l800,0" />
    </g>
    <g id="Symbols">
        <g id="Ultralight-S" transform="translate(0,0)">
            <path d="M258.231,100.846 L278.852,100.846 L272.781,94.778 L275.154,92.385 L285.308,102.538 L275.154,112.692 L272.781,110.298 L278.847,104.231 L258.231,104.231 C252.623,104.231 248.077,108.777 248.077,114.385 C248.077,119.992 252.623,124.538 258.231,124.538 L271.769,124.538 L271.769,127.923 L258.231,127.923 C250.754,127.923 244.692,121.862 244.692,114.385 C244.692,106.908 250.754,100.846 258.231,100.846 Z" />
            <path d="M292.077,83.923 L292.077,138.077 L237.923,138.077 L237.923,83.923 Z" />
        </g>
        <g id="Regular-S" transform="translate(0,0)">
            <path d="M458.231,100.846 L478.852,100.846 L472.781,94.778 L475.154,92.385 L485.308,102.538 L475.154,112.692 L472.781,110.298 L478.847,104.231 L458.231,104.231 C452.623,104.231 448.077,108.777 448.077,114.385 C448.077,119.992 452.623,124.538 458.231,124.538 L471.769,124.538 L471.769,127.923 L458.231,127.923 C450.754,127.923 444.692,121.862 444.692,114.385 C444.692,106.908 450.754,100.846 458.231,100.846 Z" />
            <path d="M492.077,83.923 L492.077,138.077 L437.923,138.077 L437.923,83.923 Z" />
        </g>
        <g id="Black-S" transform="translate(0,0)">
            <path d="M658.231,100.846 L678.852,100.846 L672.781,94.778 L675.154,92.385 L685.308,102.538 L675.154,112.692 L672.781,110.298 L678.847,104.231 L658.231,104.231 C652.623,104.231 648.077,108.777 648.077,114.385 C648.077,119.992 652.623,124.538 658.231,124.538 L671.769,124.538 L671.769,127.923 L658.231,127.923 C650.754,127.923 644.692,121.862 644.692,114.385 C644.692,106.908 650.754,100.846 658.231,100.846 Z" />
            <path d="M692.077,83.923 L692.077,138.077 L637.923,138.077 L637.923,83.923 Z" />
        </g>
    </g>
</svg>