<?xml version="1.0" encoding="UTF-8"?>
<svg height="600" width="800" xmlns="http://www.w3.org/2000/svg" xmlns:xlink="http://www.w3.org/1999/xlink">
    <style>
        .cls-1 { fill: none }
    </style>
    <g id="Notes" font-family="LucidaGrande, 'Lucida Grande', sans-serif" font-size="13">
        <rect fill="white" height="600.0" width="800.0" x="0.0" y="0.0" />
        <g font-size="13">
            <text x="18.0" y="176.0">Small</text>
            <text x="18.0" y="376.0">Medium</text>
            <text x="18.0" y="576.0">Large</text>
        </g>
        <g font-size="9">
            <text x="250.0" y="30.0">Ultralight</text>
            <text x="450.0" y="30.0">Regular</text>
            <text x="650.0" y="30.0">Black</text>
            <text id="template-version" fill="#505050" text-anchor="end" x="785.0" y="575.0">Template v.3.0</text>
            <a href="https://github.com/swhitty/SwiftDraw">
                <text fill="#505050" text-anchor="end" x="785.0" y="590.0">https://github.com/swhitty/SwiftDraw</text>
            </a>
        </g>
    </g>
    <g id="Guides" stroke="rgb(39, 170, 225)" stroke-width="0.5">
        <path id="Capline-S" d="M18,76 l800,0" />
        <path id="H-reference" d="M85,145.755 L87.685,145.755 L113.369,79.287 L114.052,79.287 L114.052,76 L112.148,76 L85,145.755 Z M95.693,121.536 L130.996,121.536 L130.263,119.313 L96.474,119.313 L95.693,121.536 Z M139.15,145.755 L141.787,145.755 L114.638,76 L113.466,76 L113.466,79.287 L139.15,145.755 Z" stroke="none" transform="translate(0,0)" />
        <path id="Baseline-S" d="M18,146 l800,0" />
        <path id="left-margin-Ultralight-S" d="M221,56 l0,110" />
        <path id="right-margin-Ultralight-S" d="M309,56 l0,110" />
        <path id="left-margin-Regular-S" d="M421,56 l0,110" />
        <path id="right-margin-Regular-S" d="M509,56 l0,110" />
        <path id="left-margin-Black-S" d="M621,56 l0,110" />
        <path id="right-margin-Black-S" d="M709,56 l0,110" />
        <path id="Capline-M" d="M18,276 l800,0" />
        <path id="Baseline-M" d="M18,346 l800,0" />
        <path id="Capline-L" d="M18,476 l800,0" />
        <path id="Baseline-L" d="M18,546 l800,0" />
    </g>
    <g id="Symbols">
        <g id="Ultralight-S" transform="translate(0,0)">
            <path d="M269,135 L261,135 C259.939,135 258.922,134.579 258.172,133.828 C257.421,133.078 257,132.061 257,131 L257,115.82 L242.18,101 C241.429,100.253 241.004,99.239 241,98.18 L241,91 C241,89.939 241.421,88.922 242.172,88.172 C242.922,87.421 243.939,87 245,87 L285,87 C286.061,87 287.078,87.421 287.828,88.172 C288.579,88.922 289,89.939 289,91 L289,98.18 C288.996,99.239 288.571,100.253 287.82,101 L273,115.82 L273,131 C273,132.061 272.579,133.078 271.828,133.828 C271.078,134.579 270.061,135 269,135 Z M245,91 L245,98.18 L261,114.18 L261,131 L269,131 L269,114.18 L285,98.18 L285,91 Z" />
        </g>
        <g id="Regular-S" transform="translate(0,0)">
            <path d="M469,135 L461,135 C459.939,135 458.922,134.579 458.172,133.828 C457.421,133.078 457,132.061 457,131 L457,115.82 L442.18,101 C441.429,100.253 441.004,99.239 441,98.18 L441,91 C441,89.939 441.421,88.922 442.172,88.172 C442.922,87.421 443.939,87 445,87 L485,87 C486.061,87 487.078,87.421 487.828,88.172 C488.579,88.922 489,89.939 489,91 L489,98.18 C488.996,99.239 488.571,100.253 487.82,101 L473,115.82 L473,131 C473,132.061 472.579,133.078 471.828,133.828 C471.078,134.579 470.061,135 469,135 Z M445,91 L445,98.18 L461,114.18 L461,131 L469,131 L469,114.18 L485,98.18 L485,91 Z" />
        </g>
        <g id="Black-S" transform="translate(0,0)">
            <path d="M669,135 L661,135 C659.939,135 658.922,134.579 658.172,133.828 C657.421,133.078 657,132.061 657,131 L657,115.82 L642.18,101 C641.429,100.253 641.004,99.239 641,98.18 L641,91 C641,89.939 641.421,88.922 642.172,88.172 C642.922,87.421 643.939,87 645,87 L685,87 C686.061,87 687.078,87.421 687.828,88.172 C688.579,88.922 689,89.939 689,91 L689,98.18 C688.996,99.239 688.571,100.253 687.82,101 L673,115.82 L673,131 C673,132.061 672.579,133.078 671.828,133.828 C671.078,134.579 670.061,135 669,135 Z M645,91 L645,98.18 L661,114.18 L661,131 L669,131 L669,114.18 L685,98.18 L685,91 Z" />
        </g>
    </g>
</svg>