<?xml version="1.0" encoding="UTF-8"?>
<svg height="600" width="800" xmlns="http://www.w3.org/2000/svg" xmlns:xlink="http://www.w3.org/1999/xlink">
    <style>
        .cls-1 { fill: none }
    </style>
    <g id="Notes" font-family="LucidaGrande, 'Lucida Grande', sans-serif" font-size="13">
        <rect fill="white" height="600.0" width="800.0" x="0.0" y="0.0" />
        <g font-size="13">
            <text x="18.0" y="176.0">Small</text>
            <text x="18.0" y="376.0">Medium</text>
            <text x="18.0" y="576.0">Large</text>
        </g>
        <g font-size="9">
            <text x="250.0" y="30.0">Ultralight</text>
            <text x="450.0" y="30.0">Regular</text>
            <text x="650.0" y="30.0">Black</text>
            <text id="template-version" fill="#505050" text-anchor="end" x="785.0" y="575.0">Template v.3.0</text>
            <a href="https://github.com/swhitty/SwiftDraw">
                <text fill="#505050" text-anchor="end" x="785.0" y="590.0">https://github.com/swhitty/SwiftDraw</text>
            </a>
        </g>
    </g>
    <g id="Guides" stroke="rgb(39, 170, 225)" stroke-width="0.5">
        <path id="Capline-S" d="M18,76 l800,0" />
        <path id="H-reference" d="M85,145.755 L87.685,145.755 L113.369,79.287 L114.052,79.287 L114.052,76 L112.148,76 L85,145.755 Z M95.693,121.536 L130.996,121.536 L130.263,119.313 L96.474,119.313 L95.693,121.536 Z M139.15,145.755 L141.787,145.755 L114.638,76 L113.466,76 L113.466,79.287 L139.15,145.755 Z" stroke="none" transform="translate(0,0)" />
        <path id="Baseline-S" d="M18,146 l800,0" />
        <path id="left-margin-Ultralight-S" d="M221,56 l0,110" />
        <path id="right-margin-Ultralight-S" d="M309,56 l0,110" />
        <path id="left-margin-Regular-S" d="M421,56 l0,110" />
        <path id="right-margin-Regular-S" d="M509,56 l0,110" />
        <path id="left-margin-Black-S" d="M621,56 l0,110" />
        <path id="right-margin-Black-S" d="M709,56 l0,110" />
        <path id="Capline-M" d="M18,276 l800,0" />
        <path id="Baseline-M" d="M18,346 l800,0" />
        <path id="Capline-L" d="M18,476 l800,0" />
        <path id="Baseline-L" d="M18,546 l800,0" />
    </g>
    <g id="Symbols">
        <g id="Ultralight-S" transform="translate(0,0)">
            <path d="M290.667,87.926 L288.074,85.333 L239.333,134.074 L241.926,136.667 L245.593,133 L283.333,133 C285.357,132.997 286.997,131.357 287,129.333 L287,91.593 Z M283.333,129.333 L249.259,129.333 L263.546,115.046 L267.907,119.407 C269.339,120.839 271.661,120.839 273.093,119.407 L276,116.5 L283.333,123.828 Z M283.333,118.642 L278.593,113.901 C277.161,112.469 274.839,112.469 273.407,113.901 L270.5,116.808 L266.142,112.45 L283.333,95.259 Z" />
            <path d="M246.667,122 L246.667,116.5 L255.833,107.34 L258.351,109.857 L260.947,107.261 L258.426,104.74 C256.994,103.309 254.673,103.309 253.241,104.74 L246.667,111.315 L246.667,92.667 L276,92.667 L276,89 L246.667,89 C244.642,89.002 243.002,90.642 243,92.667 L243,122 Z" />
        </g>
        <g id="Regular-S" transform="translate(0,0)">
            <path d="M490.667,87.926 L488.074,85.333 L439.333,134.074 L441.926,136.667 L445.592,133 L483.333,133 C485.357,132.997 486.997,131.357 487,129.333 L487,91.593 Z M483.333,129.333 L449.259,129.333 L463.546,115.046 L467.907,119.407 C469.339,120.839 471.661,120.839 473.093,119.407 L476,116.5 L483.333,123.828 Z M483.333,118.642 L478.593,113.901 C477.161,112.469 474.839,112.469 473.407,113.901 L470.5,116.808 L466.142,112.45 L483.333,95.259 Z" />
            <path d="M446.667,122 L446.667,116.5 L455.833,107.34 L458.351,109.857 L460.947,107.261 L458.426,104.74 C456.994,103.309 454.673,103.309 453.241,104.74 L446.667,111.315 L446.667,92.667 L476,92.667 L476,89 L446.667,89 C444.642,89.002 443.002,90.642 443,92.667 L443,122 Z" />
        </g>
        <g id="Black-S" transform="translate(0,0)">
            <path d="M690.667,87.926 L688.074,85.333 L639.333,134.074 L641.926,136.667 L645.593,133 L683.333,133 C685.357,132.997 686.997,131.357 687,129.333 L687,91.593 Z M683.333,129.333 L649.259,129.333 L663.546,115.046 L667.907,119.407 C669.339,120.839 671.661,120.839 673.093,119.407 L676,116.5 L683.333,123.828 Z M683.333,118.642 L678.593,113.901 C677.161,112.469 674.839,112.469 673.407,113.901 L670.5,116.808 L666.142,112.45 L683.333,95.259 Z" />
            <path d="M646.667,122 L646.667,116.5 L655.833,107.34 L658.351,109.857 L660.947,107.261 L658.426,104.74 C656.994,103.309 654.673,103.309 653.241,104.74 L646.667,111.315 L646.667,92.667 L676,92.667 L676,89 L646.667,89 C644.642,89.002 643.002,90.642 643,92.667 L643,122 Z" />
        </g>
    </g>
</svg>