<?xml version="1.0" encoding="UTF-8"?>
<svg height="600" width="800" xmlns="http://www.w3.org/2000/svg" xmlns:xlink="http://www.w3.org/1999/xlink">
    <style>
        .cls-1 { fill: none }
    </style>
    <g id="Notes" font-family="LucidaGrande, 'Lucida Grande', sans-serif" font-size="13">
        <rect fill="white" height="600.0" width="800.0" x="0.0" y="0.0" />
        <g font-size="13">
            <text x="18.0" y="176.0">Small</text>
            <text x="18.0" y="376.0">Medium</text>
            <text x="18.0" y="576.0">Large</text>
        </g>
        <g font-size="9">
            <text x="250.0" y="30.0">Ultralight</text>
            <text x="450.0" y="30.0">Regular</text>
            <text x="650.0" y="30.0">Black</text>
            <text id="template-version" fill="#505050" text-anchor="end" x="785.0" y="575.0">Template v.3.0</text>
            <a href="https://github.com/swhitty/SwiftDraw">
                <text fill="#505050" text-anchor="end" x="785.0" y="590.0">https://github.com/swhitty/SwiftDraw</text>
            </a>
        </g>
    </g>
    <g id="Guides" stroke="rgb(39, 170, 225)" stroke-width="0.5">
        <path id="Capline-S" d="M18,76 l800,0" />
        <path id="H-reference" d="M85,145.755 L87.685,145.755 L113.369,79.287 L114.052,79.287 L114.052,76 L112.148,76 L85,145.755 Z M95.693,121.536 L130.996,121.536 L130.263,119.313 L96.474,119.313 L95.693,121.536 Z M139.15,145.755 L141.787,145.755 L114.638,76 L113.466,76 L113.466,79.287 L139.15,145.755 Z" stroke="none" transform="translate(0,0)" />
        <path id="Baseline-S" d="M18,146 l800,0" />
        <path id="left-margin-Ultralight-S" d="M221,56 l0,110" />
        <path id="right-margin-Ultralight-S" d="M309,56 l0,110" />
        <path id="left-margin-Regular-S" d="M421,56 l0,110" />
        <path id="right-margin-Regular-S" d="M509,56 l0,110" />
        <path id="left-margin-Black-S" d="M621,56 l0,110" />
        <path id="right-margin-Black-S" d="M709,56 l0,110" />
        <path id="Capline-M" d="M18,276 l800,0" />
        <path id="Baseline-M" d="M18,346 l800,0" />
        <path id="Capline-L" d="M18,476 l800,0" />
        <path id="Baseline-L" d="M18,546 l800,0" />
    </g>
    <g id="Symbols">
        <g id="Ultralight-S" transform="translate(0,0)">
            <path d="M290.654,132.095 L290.654,135.764 L248.458,135.764 L248.458,132.095 Z" />
            <path d="M285.847,101.842 L271.299,87.312 C270.611,86.623 269.677,86.236 268.703,86.236 C267.729,86.236 266.795,86.623 266.107,87.312 L240.422,112.997 C239.733,113.685 239.346,114.619 239.346,115.593 C239.346,116.566 239.733,117.5 240.422,118.189 L248.696,126.591 L266.29,126.591 L285.847,107.034 C286.536,106.346 286.923,105.412 286.923,104.438 C286.923,103.464 286.536,102.53 285.847,101.842 Z M264.768,122.922 L250.292,122.922 L242.954,115.583 L254.53,104.007 L269.079,118.537 Z M271.666,116.024 L257.136,101.475 L268.639,89.899 L283.315,104.447 Z" />
        </g>
        <g id="Regular-S" transform="translate(0,0)">
            <path d="M490.654,132.095 L490.654,135.764 L448.458,135.764 L448.458,132.095 Z" />
            <path d="M485.847,101.842 L471.299,87.312 C470.611,86.623 469.677,86.236 468.703,86.236 C467.729,86.236 466.795,86.623 466.107,87.312 L440.422,112.997 C439.733,113.685 439.346,114.619 439.346,115.593 C439.346,116.566 439.733,117.5 440.422,118.189 L448.696,126.591 L466.29,126.591 L485.847,107.034 C486.536,106.346 486.923,105.412 486.923,104.438 C486.923,103.464 486.536,102.53 485.847,101.842 Z M464.768,122.922 L450.292,122.922 L442.954,115.583 L454.53,104.007 L469.079,118.537 Z M471.666,116.024 L457.136,101.475 L468.639,89.899 L483.315,104.447 Z" />
        </g>
        <g id="Black-S" transform="translate(0,0)">
            <path d="M690.654,132.095 L690.654,135.764 L648.458,135.764 L648.458,132.095 Z" />
            <path d="M685.847,101.842 L671.299,87.312 C670.61,86.623 669.677,86.236 668.703,86.236 C667.729,86.236 666.795,86.623 666.107,87.312 L640.422,112.997 C639.733,113.685 639.346,114.619 639.346,115.593 C639.346,116.566 639.733,117.5 640.422,118.189 L648.696,126.591 L666.29,126.591 L685.847,107.034 C686.536,106.346 686.923,105.412 686.923,104.438 C686.923,103.464 686.536,102.53 685.847,101.842 Z M664.768,122.922 L650.292,122.922 L642.954,115.583 L654.53,104.007 L669.079,118.537 Z M671.666,116.024 L657.135,101.475 L668.639,89.899 L683.315,104.447 Z" />
        </g>
    </g>
</svg>