<?xml version="1.0" encoding="UTF-8"?>
<svg height="600" width="800" xmlns="http://www.w3.org/2000/svg" xmlns:xlink="http://www.w3.org/1999/xlink">
    <style>
        .cls-1 { fill: none }
    </style>
    <g id="Notes" font-family="LucidaGrande, 'Lucida Grande', sans-serif" font-size="13">
        <rect fill="white" height="600.0" width="800.0" x="0.0" y="0.0" />
        <g font-size="13">
            <text x="18.0" y="176.0">Small</text>
            <text x="18.0" y="376.0">Medium</text>
            <text x="18.0" y="576.0">Large</text>
        </g>
        <g font-size="9">
            <text x="250.0" y="30.0">Ultralight</text>
            <text x="450.0" y="30.0">Regular</text>
            <text x="650.0" y="30.0">Black</text>
            <text id="template-version" fill="#505050" text-anchor="end" x="785.0" y="575.0">Template v.3.0</text>
            <a href="https://github.com/swhitty/SwiftDraw">
                <text fill="#505050" text-anchor="end" x="785.0" y="590.0">https://github.com/swhitty/SwiftDraw</text>
            </a>
        </g>
    </g>
    <g id="Guides" stroke="rgb(39, 170, 225)" stroke-width="0.5">
        <path id="Capline-S" d="M18,76 l800,0" />
        <path id="H-reference" d="M85,145.755 L87.685,145.755 L113.369,79.287 L114.052,79.287 L114.052,76 L112.148,76 L85,145.755 Z M95.693,121.536 L130.996,121.536 L130.263,119.313 L96.474,119.313 L95.693,121.536 Z M139.15,145.755 L141.787,145.755 L114.638,76 L113.466,76 L113.466,79.287 L139.15,145.755 Z" stroke="none" transform="translate(0,0)" />
        <path id="Baseline-S" d="M18,146 l800,0" />
        <path id="left-margin-Ultralight-S" d="M221,56 l0,110" />
        <path id="right-margin-Ultralight-S" d="M309,56 l0,110" />
        <path id="left-margin-Regular-S" d="M421,56 l0,110" />
        <path id="right-margin-Regular-S" d="M509,56 l0,110" />
        <path id="left-margin-Black-S" d="M621,56 l0,110" />
        <path id="right-margin-Black-S" d="M709,56 l0,110" />
        <path id="Capline-M" d="M18,276 l800,0" />
        <path id="Baseline-M" d="M18,346 l800,0" />
        <path id="Capline-L" d="M18,476 l800,0" />
        <path id="Baseline-L" d="M18,546 l800,0" />
    </g>
    <g id="Symbols">
        <g id="Ultralight-S" transform="translate(0,0)">
            <path d="M281.5,99.959 L281.39,99.959 C280.424,91.638 273.377,85.361 265,85.361 C256.623,85.361 249.576,91.638 248.61,99.959 L248.5,99.959 C243.437,99.959 239.333,104.063 239.333,109.126 C239.333,114.189 243.437,118.293 248.5,118.293 L252.167,118.293 L252.167,101.793 C252.167,94.705 257.912,88.959 265,88.959 C272.088,88.959 277.833,94.705 277.833,101.793 L277.833,120.126 C277.831,123.587 275.408,126.576 272.022,127.294 C271.009,123.743 267.514,121.499 263.864,122.055 C260.213,122.612 257.546,125.797 257.639,129.488 C257.731,133.18 260.554,136.227 264.228,136.601 C267.901,136.974 271.28,134.558 272.114,130.961 C277.489,130.164 281.477,125.56 281.5,120.126 L281.5,118.293 C286.563,118.293 290.667,114.189 290.667,109.126 C290.667,104.063 286.563,99.959 281.5,99.959 Z M243,109.126 C243,107.667 243.579,106.268 244.611,105.237 C245.642,104.205 247.041,103.626 248.5,103.626 L248.5,114.626 C247.041,114.626 245.642,114.046 244.611,113.015 C243.579,111.984 243,110.585 243,109.126 Z M265,132.959 C262.975,132.959 261.333,131.318 261.333,129.293 C261.333,127.268 262.975,125.626 265,125.626 C267.025,125.626 268.667,127.268 268.667,129.293 C268.667,130.265 268.28,131.198 267.593,131.885 C266.905,132.573 265.972,132.959 265,132.959 Z M281.5,114.626 L281.5,103.626 C284.538,103.626 287,106.088 287,109.126 C287,112.163 284.538,114.626 281.5,114.626 Z" />
        </g>
        <g id="Regular-S" transform="translate(0,0)">
            <path d="M481.5,99.959 L481.39,99.959 C480.424,91.638 473.377,85.361 465,85.361 C456.623,85.361 449.576,91.638 448.61,99.959 L448.5,99.959 C443.437,99.959 439.333,104.063 439.333,109.126 C439.333,114.189 443.437,118.293 448.5,118.293 L452.167,118.293 L452.167,101.793 C452.167,94.705 457.912,88.959 465,88.959 C472.088,88.959 477.833,94.705 477.833,101.793 L477.833,120.126 C477.831,123.587 475.408,126.576 472.022,127.294 C471.009,123.743 467.514,121.499 463.864,122.055 C460.213,122.612 457.546,125.797 457.639,129.488 C457.731,133.18 460.554,136.227 464.227,136.601 C467.901,136.974 471.28,134.558 472.114,130.961 C477.489,130.164 481.477,125.56 481.5,120.126 L481.5,118.293 C486.563,118.293 490.667,114.189 490.667,109.126 C490.667,104.063 486.563,99.959 481.5,99.959 Z M443,109.126 C443,107.667 443.579,106.268 444.611,105.237 C445.642,104.205 447.041,103.626 448.5,103.626 L448.5,114.626 C447.041,114.626 445.642,114.046 444.611,113.015 C443.579,111.984 443,110.585 443,109.126 Z M465,132.959 C462.975,132.959 461.333,131.318 461.333,129.293 C461.333,127.268 462.975,125.626 465,125.626 C467.025,125.626 468.667,127.268 468.667,129.293 C468.667,130.265 468.28,131.198 467.593,131.885 C466.905,132.573 465.972,132.959 465,132.959 Z M481.5,114.626 L481.5,103.626 C484.538,103.626 487,106.088 487,109.126 C487,112.163 484.538,114.626 481.5,114.626 Z" />
        </g>
        <g id="Black-S" transform="translate(0,0)">
            <path d="M681.5,99.959 L681.39,99.959 C680.424,91.638 673.377,85.361 665,85.361 C656.623,85.361 649.576,91.638 648.61,99.959 L648.5,99.959 C643.437,99.959 639.333,104.063 639.333,109.126 C639.333,114.189 643.437,118.293 648.5,118.293 L652.167,118.293 L652.167,101.793 C652.167,94.705 657.912,88.959 665,88.959 C672.088,88.959 677.833,94.705 677.833,101.793 L677.833,120.126 C677.831,123.587 675.408,126.576 672.022,127.294 C671.009,123.743 667.514,121.499 663.864,122.055 C660.213,122.612 657.546,125.797 657.639,129.488 C657.731,133.18 660.554,136.227 664.228,136.601 C667.901,136.974 671.28,134.558 672.114,130.961 C677.489,130.164 681.477,125.56 681.5,120.126 L681.5,118.293 C686.563,118.293 690.667,114.189 690.667,109.126 C690.667,104.063 686.563,99.959 681.5,99.959 Z M643,109.126 C643,107.667 643.579,106.268 644.611,105.237 C645.642,104.205 647.041,103.626 648.5,103.626 L648.5,114.626 C647.041,114.626 645.642,114.046 644.611,113.015 C643.579,111.984 643,110.585 643,109.126 Z M665,132.959 C662.975,132.959 661.333,131.318 661.333,129.293 C661.333,127.268 662.975,125.626 665,125.626 C667.025,125.626 668.667,127.268 668.667,129.293 C668.667,130.265 668.28,131.198 667.593,131.885 C666.905,132.573 665.972,132.959 665,132.959 Z M681.5,114.626 L681.5,103.626 C684.538,103.626 687,106.088 687,109.126 C687,112.163 684.538,114.626 681.5,114.626 Z" />
        </g>
    </g>
</svg>