<?xml version="1.0" encoding="UTF-8"?>
<svg height="600" width="800" xmlns="http://www.w3.org/2000/svg" xmlns:xlink="http://www.w3.org/1999/xlink">
    <style>
        
    </style>
    <g id="Notes" font-family="LucidaGrande, 'Lucida Grande', sans-serif" font-size="13">
        <rect fill="white" height="600.0" width="800.0" x="0.0" y="0.0" />
        <g font-size="13">
            <text x="18.0" y="176.0">Small</text>
            <text x="18.0" y="376.0">Medium</text>
            <text x="18.0" y="576.0">Large</text>
        </g>
        <g font-size="9">
            <text x="250.0" y="30.0">Ultralight</text>
            <text x="450.0" y="30.0">Regular</text>
            <text x="650.0" y="30.0">Black</text>
            <text id="template-version" fill="#505050" text-anchor="end" x="785.0" y="575.0">Template v.3.0</text>
            <a href="https://github.com/swhitty/SwiftDraw">
                <text fill="#505050" text-anchor="end" x="785.0" y="590.0">https://github.com/swhitty/SwiftDraw</text>
            </a>
        </g>
    </g>
    <g id="Guides" stroke="rgb(39, 170, 225)" stroke-width="0.5">
        <path id="Capline-S" d="M18,76 l800,0" />
        <path id="H-reference" d="M85,145.755 L87.685,145.755 L113.369,79.287 L114.052,79.287 L114.052,76 L112.148,76 L85,145.755 Z M95.693,121.536 L130.996,121.536 L130.263,119.313 L96.474,119.313 L95.693,121.536 Z M139.15,145.755 L141.787,145.755 L114.638,76 L113.466,76 L113.466,79.287 L139.15,145.755 Z" stroke="none" transform="translate(0,0)" />
        <path id="Baseline-S" d="M18,146 l800,0" />
        <path id="left-margin-Ultralight-S" d="M221,56 l0,110" />
        <path id="right-margin-Ultralight-S" d="M309,56 l0,110" />
        <path id="left-margin-Regular-S" d="M421,56 l0,110" />
        <path id="right-margin-Regular-S" d="M509,56 l0,110" />
        <path id="left-margin-Black-S" d="M621,56 l0,110" />
        <path id="right-margin-Black-S" d="M709,56 l0,110" />
        <path id="Capline-M" d="M18,276 l800,0" />
        <path id="Baseline-M" d="M18,346 l800,0" />
        <path id="Capline-L" d="M18,476 l800,0" />
        <path id="Baseline-L" d="M18,546 l800,0" />
    </g>
    <g id="Symbols">
        <g id="Ultralight-S" transform="translate(0,0)">
            <path d="M270.778,134.692 L263.308,134.692 L263.308,127.222 L271.826,118.703 C271.789,118.393 271.77,118.081 271.769,117.769 C271.767,114.261 273.93,111.115 277.207,109.861 C280.483,108.607 284.194,109.506 286.534,112.119 C288.875,114.732 289.36,118.519 287.753,121.638 C286.147,124.757 282.783,126.561 279.296,126.174 Z M266.692,131.308 L269.376,131.308 L278.186,122.497 L279.099,122.707 C281.335,123.239 283.652,122.222 284.773,120.216 C285.895,118.21 285.547,115.703 283.922,114.078 C282.297,112.453 279.79,112.105 277.784,113.227 C275.778,114.348 274.761,116.665 275.293,118.901 L275.503,119.814 L266.692,128.624 Z" />
            <path d="M278.538,117.769 C278.538,116.835 279.296,116.077 280.231,116.077 C281.165,116.077 281.923,116.835 281.923,117.769 C281.923,118.704 281.165,119.462 280.231,119.462 C279.296,119.462 278.538,118.704 278.538,117.769 Z" />
            <path d="M271.769,94.077 L271.769,97.462 L251.462,97.462 L251.462,94.077 Z" />
            <path d="M271.769,100.846 L271.769,104.231 L251.462,104.231 L251.462,100.846 Z" />
            <path d="M261.615,107.615 L261.615,111 L251.462,111 L251.462,107.615 Z" />
            <path d="M258.231,124.538 L258.231,127.923 L251.462,127.923 L251.462,124.538 Z" />
            <path d="M258.231,134.692 L248.077,134.692 C246.208,134.69 244.694,133.176 244.692,131.308 L244.692,90.692 C244.694,88.824 246.208,87.31 248.077,87.308 L275.154,87.308 C277.022,87.31 278.536,88.824 278.538,90.692 L278.538,105.923 L275.154,105.923 L275.154,90.692 L248.077,90.692 L248.077,131.308 L258.231,131.308 Z" />
            <path d="M292.077,83.923 L292.077,138.077 L237.923,138.077 L237.923,83.923 Z" />
        </g>
        <g id="Regular-S" transform="translate(0,0)">
            <path d="M470.778,134.692 L463.308,134.692 L463.308,127.222 L471.826,118.703 C471.789,118.393 471.77,118.081 471.769,117.769 C471.767,114.261 473.93,111.115 477.207,109.861 C480.483,108.607 484.194,109.506 486.534,112.119 C488.875,114.732 489.36,118.519 487.753,121.638 C486.147,124.757 482.783,126.561 479.296,126.174 Z M466.692,131.308 L469.376,131.308 L478.186,122.497 L479.099,122.707 C481.335,123.239 483.652,122.222 484.773,120.216 C485.895,118.21 485.547,115.703 483.922,114.078 C482.296,112.453 479.79,112.105 477.784,113.227 C475.778,114.348 474.761,116.665 475.293,118.901 L475.503,119.814 L466.692,128.624 Z" />
            <path d="M478.538,117.769 C478.538,116.835 479.296,116.077 480.231,116.077 C481.165,116.077 481.923,116.835 481.923,117.769 C481.923,118.704 481.165,119.462 480.231,119.462 C479.296,119.462 478.538,118.704 478.538,117.769 Z" />
            <path d="M471.769,94.077 L471.769,97.462 L451.462,97.462 L451.462,94.077 Z" />
            <path d="M471.769,100.846 L471.769,104.231 L451.462,104.231 L451.462,100.846 Z" />
            <path d="M461.615,107.615 L461.615,111 L451.462,111 L451.462,107.615 Z" />
            <path d="M458.231,124.538 L458.231,127.923 L451.462,127.923 L451.462,124.538 Z" />
            <path d="M458.231,134.692 L448.077,134.692 C446.208,134.69 444.694,133.176 444.692,131.308 L444.692,90.692 C444.694,88.824 446.208,87.31 448.077,87.308 L475.154,87.308 C477.022,87.31 478.536,88.824 478.538,90.692 L478.538,105.923 L475.154,105.923 L475.154,90.692 L448.077,90.692 L448.077,131.308 L458.231,131.308 Z" />
            <path d="M492.077,83.923 L492.077,138.077 L437.923,138.077 L437.923,83.923 Z" />
        </g>
        <g id="Black-S" transform="translate(0,0)">
            <path d="M670.778,134.692 L663.308,134.692 L663.308,127.222 L671.826,118.703 C671.789,118.393 671.77,118.081 671.769,117.769 C671.767,114.261 673.93,111.115 677.207,109.861 C680.483,108.607 684.194,109.506 686.534,112.119 C688.875,114.732 689.36,118.519 687.753,121.638 C686.147,124.757 682.783,126.561 679.296,126.174 Z M666.692,131.308 L669.376,131.308 L678.186,122.497 L679.099,122.707 C681.335,123.239 683.652,122.222 684.773,120.216 C685.895,118.21 685.547,115.703 683.922,114.078 C682.297,112.453 679.79,112.105 677.784,113.227 C675.778,114.348 674.761,116.665 675.293,118.901 L675.503,119.814 L666.692,128.624 Z" />
            <path d="M678.538,117.769 C678.538,116.835 679.296,116.077 680.231,116.077 C681.165,116.077 681.923,116.835 681.923,117.769 C681.923,118.704 681.165,119.462 680.231,119.462 C679.296,119.462 678.538,118.704 678.538,117.769 Z" />
            <path d="M671.769,94.077 L671.769,97.462 L651.462,97.462 L651.462,94.077 Z" />
            <path d="M671.769,100.846 L671.769,104.231 L651.462,104.231 L651.462,100.846 Z" />
            <path d="M661.615,107.615 L661.615,111 L651.462,111 L651.462,107.615 Z" />
            <path d="M658.231,124.538 L658.231,127.923 L651.462,127.923 L651.462,124.538 Z" />
            <path d="M658.231,134.692 L648.077,134.692 C646.208,134.69 644.694,133.176 644.692,131.308 L644.692,90.692 C644.694,88.824 646.208,87.31 648.077,87.308 L675.154,87.308 C677.022,87.31 678.536,88.824 678.538,90.692 L678.538,105.923 L675.154,105.923 L675.154,90.692 L648.077,90.692 L648.077,131.308 L658.231,131.308 Z" />
            <path d="M692.077,83.923 L692.077,138.077 L637.923,138.077 L637.923,83.923 Z" />
        </g>
    </g>
</svg>