<?xml version="1.0" encoding="UTF-8"?>
<svg height="600" width="800" xmlns="http://www.w3.org/2000/svg" xmlns:xlink="http://www.w3.org/1999/xlink">
    <style>
        
    </style>
    <g id="Notes" font-family="LucidaGrande, 'Lucida Grande', sans-serif" font-size="13">
        <rect fill="white" height="600.0" width="800.0" x="0.0" y="0.0" />
        <g font-size="13">
            <text x="18.0" y="176.0">Small</text>
            <text x="18.0" y="376.0">Medium</text>
            <text x="18.0" y="576.0">Large</text>
        </g>
        <g font-size="9">
            <text x="250.0" y="30.0">Ultralight</text>
            <text x="450.0" y="30.0">Regular</text>
            <text x="650.0" y="30.0">Black</text>
            <text id="template-version" fill="#505050" text-anchor="end" x="785.0" y="575.0">Template v.3.0</text>
            <a href="https://github.com/swhitty/SwiftDraw">
                <text fill="#505050" text-anchor="end" x="785.0" y="590.0">https://github.com/swhitty/SwiftDraw</text>
            </a>
        </g>
    </g>
    <g id="Guides" stroke="rgb(39, 170, 225)" stroke-width="0.5">
        <path id="Capline-S" d="M18,76 l800,0" />
        <path id="H-reference" d="M85,145.755 L87.685,145.755 L113.369,79.287 L114.052,79.287 L114.052,76 L112.148,76 L85,145.755 Z M95.693,121.536 L130.996,121.536 L130.263,119.313 L96.474,119.313 L95.693,121.536 Z M139.15,145.755 L141.787,145.755 L114.638,76 L113.466,76 L113.466,79.287 L139.15,145.755 Z" stroke="none" transform="translate(0,0)" />
        <path id="Baseline-S" d="M18,146 l800,0" />
        <path id="left-margin-Ultralight-S" d="M221,56 l0,110" />
        <path id="right-margin-Ultralight-S" d="M309,56 l0,110" />
        <path id="left-margin-Regular-S" d="M421,56 l0,110" />
        <path id="right-margin-Regular-S" d="M509,56 l0,110" />
        <path id="left-margin-Black-S" d="M621,56 l0,110" />
        <path id="right-margin-Black-S" d="M709,56 l0,110" />
        <path id="Capline-M" d="M18,276 l800,0" />
        <path id="Baseline-M" d="M18,346 l800,0" />
        <path id="Capline-L" d="M18,476 l800,0" />
        <path id="Baseline-L" d="M18,546 l800,0" />
    </g>
    <g id="Symbols">
        <g id="Ultralight-S" transform="translate(0,0)">
            <path d="M290.385,124.538 L283.615,124.538 L283.615,117.769 L280.231,117.769 L280.231,124.538 L273.462,124.538 L273.462,127.923 L280.231,127.923 L280.231,134.692 L283.615,134.692 L283.615,127.923 L290.385,127.923 L290.385,124.538 Z" />
            <path d="M280.231,92.385 L275.154,92.385 L275.154,90.692 C275.148,88.825 273.636,87.313 271.769,87.308 L258.231,87.308 C256.364,87.313 254.852,88.825 254.846,90.692 L254.846,92.385 L249.769,92.385 C247.902,92.39 246.39,93.902 246.385,95.769 L246.385,131.308 C246.39,133.175 247.902,134.687 249.769,134.692 L266.692,134.692 L266.692,131.308 L249.769,131.308 L249.769,95.769 L254.846,95.769 L254.846,100.846 L275.154,100.846 L275.154,95.769 L280.231,95.769 L280.231,111 L283.615,111 L283.615,95.769 C283.61,93.902 282.098,92.39 280.231,92.385 Z M271.769,97.462 L258.231,97.462 L258.231,90.692 L271.769,90.692 Z" />
            <path d="M292.077,83.923 L292.077,138.077 L237.923,138.077 L237.923,83.923 Z" />
        </g>
        <g id="Regular-S" transform="translate(0,0)">
            <path d="M490.385,124.538 L483.615,124.538 L483.615,117.769 L480.231,117.769 L480.231,124.538 L473.462,124.538 L473.462,127.923 L480.231,127.923 L480.231,134.692 L483.615,134.692 L483.615,127.923 L490.385,127.923 L490.385,124.538 Z" />
            <path d="M480.231,92.385 L475.154,92.385 L475.154,90.692 C475.148,88.825 473.636,87.313 471.769,87.308 L458.231,87.308 C456.364,87.313 454.852,88.825 454.846,90.692 L454.846,92.385 L449.769,92.385 C447.902,92.39 446.39,93.902 446.385,95.769 L446.385,131.308 C446.39,133.175 447.902,134.687 449.769,134.692 L466.692,134.692 L466.692,131.308 L449.769,131.308 L449.769,95.769 L454.846,95.769 L454.846,100.846 L475.154,100.846 L475.154,95.769 L480.231,95.769 L480.231,111 L483.615,111 L483.615,95.769 C483.61,93.902 482.098,92.39 480.231,92.385 Z M471.769,97.462 L458.231,97.462 L458.231,90.692 L471.769,90.692 Z" />
            <path d="M492.077,83.923 L492.077,138.077 L437.923,138.077 L437.923,83.923 Z" />
        </g>
        <g id="Black-S" transform="translate(0,0)">
            <path d="M690.385,124.538 L683.615,124.538 L683.615,117.769 L680.231,117.769 L680.231,124.538 L673.462,124.538 L673.462,127.923 L680.231,127.923 L680.231,134.692 L683.615,134.692 L683.615,127.923 L690.385,127.923 L690.385,124.538 Z" />
            <path d="M680.231,92.385 L675.154,92.385 L675.154,90.692 C675.148,88.825 673.636,87.313 671.769,87.308 L658.231,87.308 C656.364,87.313 654.852,88.825 654.846,90.692 L654.846,92.385 L649.769,92.385 C647.902,92.39 646.39,93.902 646.385,95.769 L646.385,131.308 C646.39,133.175 647.902,134.687 649.769,134.692 L666.692,134.692 L666.692,131.308 L649.769,131.308 L649.769,95.769 L654.846,95.769 L654.846,100.846 L675.154,100.846 L675.154,95.769 L680.231,95.769 L680.231,111 L683.615,111 L683.615,95.769 C683.61,93.902 682.098,92.39 680.231,92.385 Z M671.769,97.462 L658.231,97.462 L658.231,90.692 L671.769,90.692 Z" />
            <path d="M692.077,83.923 L692.077,138.077 L637.923,138.077 L637.923,83.923 Z" />
        </g>
    </g>
</svg>