<?xml version="1.0" encoding="UTF-8"?>
<svg height="600" width="800" xmlns="http://www.w3.org/2000/svg" xmlns:xlink="http://www.w3.org/1999/xlink">
    <style>
        .cls-1 { fill: none }
    </style>
    <g id="Notes" font-family="LucidaGrande, 'Lucida Grande', sans-serif" font-size="13">
        <rect fill="white" height="600.0" width="800.0" x="0.0" y="0.0" />
        <g font-size="13">
            <text x="18.0" y="176.0">Small</text>
            <text x="18.0" y="376.0">Medium</text>
            <text x="18.0" y="576.0">Large</text>
        </g>
        <g font-size="9">
            <text x="250.0" y="30.0">Ultralight</text>
            <text x="450.0" y="30.0">Regular</text>
            <text x="650.0" y="30.0">Black</text>
            <text id="template-version" fill="#505050" text-anchor="end" x="785.0" y="575.0">Template v.3.0</text>
            <a href="https://github.com/swhitty/SwiftDraw">
                <text fill="#505050" text-anchor="end" x="785.0" y="590.0">https://github.com/swhitty/SwiftDraw</text>
            </a>
        </g>
    </g>
    <g id="Guides" stroke="rgb(39, 170, 225)" stroke-width="0.5">
        <path id="Capline-S" d="M18,76 l800,0" />
        <path id="H-reference" d="M85,145.755 L87.685,145.755 L113.369,79.287 L114.052,79.287 L114.052,76 L112.148,76 L85,145.755 Z M95.693,121.536 L130.996,121.536 L130.263,119.313 L96.474,119.313 L95.693,121.536 Z M139.15,145.755 L141.787,145.755 L114.638,76 L113.466,76 L113.466,79.287 L139.15,145.755 Z" stroke="none" transform="translate(0,0)" />
        <path id="Baseline-S" d="M18,146 l800,0" />
        <path id="left-margin-Ultralight-S" d="M221,56 l0,110" />
        <path id="right-margin-Ultralight-S" d="M309,56 l0,110" />
        <path id="left-margin-Regular-S" d="M421,56 l0,110" />
        <path id="right-margin-Regular-S" d="M509,56 l0,110" />
        <path id="left-margin-Black-S" d="M621,56 l0,110" />
        <path id="right-margin-Black-S" d="M709,56 l0,110" />
        <path id="Capline-M" d="M18,276 l800,0" />
        <path id="Baseline-M" d="M18,346 l800,0" />
        <path id="Capline-L" d="M18,476 l800,0" />
        <path id="Baseline-L" d="M18,546 l800,0" />
    </g>
    <g id="Symbols">
        <g id="Ultralight-S" transform="translate(0,0)">
            <path d="M277.824,111.016 C275.062,111.019 272.375,111.912 270.162,113.564 L262.427,105.829 C264.098,103.632 265,100.946 264.993,98.185 C265.007,92.233 260.928,87.053 255.138,85.672 C249.349,84.292 243.37,87.073 240.697,92.391 C238.025,97.708 239.359,104.166 243.921,107.988 C248.483,111.811 255.075,111.994 259.842,108.432 L267.559,116.167 C263.998,120.933 264.18,127.522 268,132.084 C271.819,136.646 278.274,137.984 283.592,135.316 C288.91,132.647 291.696,126.673 290.322,120.884 C288.948,115.095 283.774,111.01 277.824,111.016 Z M242.997,98.185 C242.997,93.124 247.1,89.02 252.162,89.02 C257.223,89.02 261.327,93.124 261.327,98.185 C261.327,103.247 257.223,107.35 252.162,107.35 C249.731,107.35 247.4,106.385 245.681,104.666 C243.962,102.947 242.997,100.616 242.997,98.185 Z" />
        </g>
        <g id="Regular-S" transform="translate(0,0)">
            <path d="M477.824,111.016 C475.062,111.019 472.375,111.912 470.162,113.564 L462.427,105.829 C464.098,103.632 465,100.946 464.993,98.185 C465.007,92.233 460.928,87.053 455.138,85.672 C449.349,84.292 443.37,87.073 440.697,92.391 C438.025,97.708 439.359,104.166 443.921,107.988 C448.483,111.811 455.075,111.994 459.842,108.432 L467.559,116.167 C463.998,120.933 464.18,127.522 468,132.084 C471.819,136.646 478.274,137.984 483.592,135.316 C488.91,132.647 491.696,126.673 490.322,120.884 C488.948,115.095 483.774,111.01 477.824,111.016 Z M442.997,98.185 C442.997,93.124 447.1,89.02 452.162,89.02 C457.223,89.02 461.327,93.124 461.327,98.185 C461.327,103.247 457.223,107.35 452.162,107.35 C449.731,107.35 447.4,106.385 445.681,104.666 C443.962,102.947 442.997,100.616 442.997,98.185 Z" />
        </g>
        <g id="Black-S" transform="translate(0,0)">
            <path d="M677.824,111.016 C675.062,111.019 672.375,111.912 670.162,113.564 L662.427,105.829 C664.098,103.632 665,100.946 664.993,98.185 C665.007,92.233 660.927,87.053 655.138,85.672 C649.349,84.292 643.37,87.073 640.697,92.391 C638.025,97.708 639.359,104.166 643.921,107.988 C648.483,111.811 655.075,111.994 659.842,108.432 L667.559,116.167 C663.998,120.933 664.18,127.522 668,132.084 C671.819,136.646 678.274,137.984 683.592,135.316 C688.91,132.647 691.696,126.673 690.322,120.884 C688.947,115.095 683.774,111.01 677.824,111.016 Z M642.997,98.185 C642.997,93.124 647.1,89.02 652.162,89.02 C657.223,89.02 661.327,93.124 661.327,98.185 C661.327,103.247 657.223,107.35 652.162,107.35 C649.731,107.35 647.4,106.385 645.681,104.666 C643.962,102.947 642.997,100.616 642.997,98.185 Z" />
        </g>
    </g>
</svg>