<?xml version="1.0" encoding="UTF-8"?>
<svg height="600" width="800" xmlns="http://www.w3.org/2000/svg" xmlns:xlink="http://www.w3.org/1999/xlink">
    <style>
        .cls-1 { fill: none }
    </style>
    <g id="Notes" font-family="LucidaGrande, 'Lucida Grande', sans-serif" font-size="13">
        <rect fill="white" height="600.0" width="800.0" x="0.0" y="0.0" />
        <g font-size="13">
            <text x="18.0" y="176.0">Small</text>
            <text x="18.0" y="376.0">Medium</text>
            <text x="18.0" y="576.0">Large</text>
        </g>
        <g font-size="9">
            <text x="250.0" y="30.0">Ultralight</text>
            <text x="450.0" y="30.0">Regular</text>
            <text x="650.0" y="30.0">Black</text>
            <text id="template-version" fill="#505050" text-anchor="end" x="785.0" y="575.0">Template v.3.0</text>
            <a href="https://github.com/swhitty/SwiftDraw">
                <text fill="#505050" text-anchor="end" x="785.0" y="590.0">https://github.com/swhitty/SwiftDraw</text>
            </a>
        </g>
    </g>
    <g id="Guides" stroke="rgb(39, 170, 225)" stroke-width="0.5">
        <path id="Capline-S" d="M18,76 l800,0" />
        <path id="H-reference" d="M85,145.755 L87.685,145.755 L113.369,79.287 L114.052,79.287 L114.052,76 L112.148,76 L85,145.755 Z M95.693,121.536 L130.996,121.536 L130.263,119.313 L96.474,119.313 L95.693,121.536 Z M139.15,145.755 L141.787,145.755 L114.638,76 L113.466,76 L113.466,79.287 L139.15,145.755 Z" stroke="none" transform="translate(0,0)" />
        <path id="Baseline-S" d="M18,146 l800,0" />
        <path id="left-margin-Ultralight-S" d="M221,56 l0,110" />
        <path id="right-margin-Ultralight-S" d="M309,56 l0,110" />
        <path id="left-margin-Regular-S" d="M421,56 l0,110" />
        <path id="right-margin-Regular-S" d="M509,56 l0,110" />
        <path id="left-margin-Black-S" d="M621,56 l0,110" />
        <path id="right-margin-Black-S" d="M709,56 l0,110" />
        <path id="Capline-M" d="M18,276 l800,0" />
        <path id="Baseline-M" d="M18,346 l800,0" />
        <path id="Capline-L" d="M18,476 l800,0" />
        <path id="Baseline-L" d="M18,546 l800,0" />
    </g>
    <g id="Symbols">
        <g id="Ultralight-S" transform="translate(0,0)">
            <path d="M265,85.333 C250.825,85.333 239.333,96.825 239.333,111 C239.333,125.175 250.825,136.667 265,136.667 C279.175,136.667 290.667,125.175 290.667,111 C290.65,96.831 279.168,85.349 265,85.333 Z M265,133 C252.85,133 243,123.15 243,111 C243,98.85 252.85,89 265,89 L265,111 L280.549,126.549 C276.43,130.682 270.835,133.004 265,133 Z" />
        </g>
        <g id="Regular-S" transform="translate(0,0)">
            <path d="M465,85.333 C450.825,85.333 439.333,96.825 439.333,111 C439.333,125.175 450.825,136.667 465,136.667 C479.175,136.667 490.667,125.175 490.667,111 C490.65,96.831 479.168,85.349 465,85.333 Z M465,133 C452.85,133 443,123.15 443,111 C443,98.85 452.85,89 465,89 L465,111 L480.549,126.549 C476.43,130.682 470.835,133.004 465,133 Z" />
        </g>
        <g id="Black-S" transform="translate(0,0)">
            <path d="M665,85.333 C650.825,85.333 639.333,96.825 639.333,111 C639.333,125.175 650.825,136.667 665,136.667 C679.175,136.667 690.667,125.175 690.667,111 C690.65,96.831 679.168,85.349 665,85.333 Z M665,133 C652.85,133 643,123.15 643,111 C643,98.85 652.85,89 665,89 L665,111 L680.549,126.549 C676.43,130.682 670.835,133.004 665,133 Z" />
        </g>
    </g>
</svg>