<?xml version="1.0" encoding="UTF-8"?>
<svg height="600" width="800" xmlns="http://www.w3.org/2000/svg" xmlns:xlink="http://www.w3.org/1999/xlink">
    <style>
        .cls-1 { fill: none }
    </style>
    <g id="Notes" font-family="LucidaGrande, 'Lucida Grande', sans-serif" font-size="13">
        <rect fill="white" height="600.0" width="800.0" x="0.0" y="0.0" />
        <g font-size="13">
            <text x="18.0" y="176.0">Small</text>
            <text x="18.0" y="376.0">Medium</text>
            <text x="18.0" y="576.0">Large</text>
        </g>
        <g font-size="9">
            <text x="250.0" y="30.0">Ultralight</text>
            <text x="450.0" y="30.0">Regular</text>
            <text x="650.0" y="30.0">Black</text>
            <text id="template-version" fill="#505050" text-anchor="end" x="785.0" y="575.0">Template v.3.0</text>
            <a href="https://github.com/swhitty/SwiftDraw">
                <text fill="#505050" text-anchor="end" x="785.0" y="590.0">https://github.com/swhitty/SwiftDraw</text>
            </a>
        </g>
    </g>
    <g id="Guides" stroke="rgb(39, 170, 225)" stroke-width="0.5">
        <path id="Capline-S" d="M18,76 l800,0" />
        <path id="H-reference" d="M85,145.755 L87.685,145.755 L113.369,79.287 L114.052,79.287 L114.052,76 L112.148,76 L85,145.755 Z M95.693,121.536 L130.996,121.536 L130.263,119.313 L96.474,119.313 L95.693,121.536 Z M139.15,145.755 L141.787,145.755 L114.638,76 L113.466,76 L113.466,79.287 L139.15,145.755 Z" stroke="none" transform="translate(0,0)" />
        <path id="Baseline-S" d="M18,146 l800,0" />
        <path id="left-margin-Ultralight-S" d="M221,56 l0,110" />
        <path id="right-margin-Ultralight-S" d="M309,56 l0,110" />
        <path id="left-margin-Regular-S" d="M421,56 l0,110" />
        <path id="right-margin-Regular-S" d="M509,56 l0,110" />
        <path id="left-margin-Black-S" d="M621,56 l0,110" />
        <path id="right-margin-Black-S" d="M709,56 l0,110" />
        <path id="Capline-M" d="M18,276 l800,0" />
        <path id="Baseline-M" d="M18,346 l800,0" />
        <path id="Capline-L" d="M18,476 l800,0" />
        <path id="Baseline-L" d="M18,546 l800,0" />
    </g>
    <g id="Symbols">
        <g id="Ultralight-S" transform="translate(0,0)">
            <path d="M263.692,109.707 L266.284,112.299 L251.623,126.961 L249.03,124.368 Z" />
            <path d="M266.835,136.666 C266.603,136.666 266.372,136.623 266.157,136.537 C265.545,136.294 265.111,135.741 265.02,135.089 L263.187,122.256 L266.853,121.743 L268.228,131.404 L274.168,126.619 L274.168,112.833 C274.165,112.346 274.356,111.878 274.7,111.532 L282.161,104.07 C285.266,100.986 287.009,96.788 287.001,92.411 L287.001,89.001 L283.591,89.001 C279.214,88.993 275.016,90.735 271.931,93.841 L264.47,101.302 C264.124,101.645 263.656,101.837 263.168,101.834 L249.382,101.834 L244.597,107.81 L254.259,109.185 L253.745,112.852 L240.913,111.018 C240.261,110.927 239.708,110.493 239.464,109.882 C239.217,109.266 239.323,108.565 239.739,108.049 L247.072,98.882 C247.414,98.438 247.941,98.174 248.502,98.167 L262.417,98.167 L269.328,91.237 C273.102,87.442 278.239,85.316 283.591,85.334 L287.001,85.334 C287.973,85.334 288.906,85.721 289.593,86.408 C290.281,87.096 290.667,88.028 290.667,89.001 L290.667,92.411 C290.685,97.763 288.559,102.9 284.764,106.674 L277.834,113.585 L277.834,127.499 C277.832,128.057 277.575,128.584 277.138,128.929 L267.971,136.262 C267.649,136.521 267.248,136.663 266.835,136.666 Z" />
        </g>
        <g id="Regular-S" transform="translate(0,0)">
            <path d="M463.692,109.707 L466.284,112.299 L451.623,126.961 L449.03,124.368 Z" />
            <path d="M466.835,136.666 C466.603,136.666 466.372,136.623 466.157,136.537 C465.545,136.294 465.111,135.741 465.02,135.089 L463.187,122.256 L466.853,121.743 L468.228,131.404 L474.168,126.619 L474.168,112.833 C474.165,112.346 474.356,111.878 474.7,111.532 L482.161,104.07 C485.266,100.986 487.009,96.788 487.001,92.411 L487.001,89.001 L483.591,89.001 C479.214,88.993 475.016,90.735 471.931,93.841 L464.47,101.302 C464.124,101.645 463.656,101.837 463.168,101.834 L449.382,101.834 L444.597,107.81 L454.259,109.185 L453.745,112.852 L440.913,111.018 C440.261,110.927 439.708,110.493 439.464,109.882 C439.217,109.266 439.323,108.565 439.739,108.049 L447.072,98.882 C447.414,98.438 447.941,98.174 448.502,98.167 L462.417,98.167 L469.328,91.237 C473.102,87.442 478.239,85.316 483.591,85.334 L487.001,85.334 C487.973,85.334 488.906,85.721 489.593,86.408 C490.281,87.096 490.667,88.028 490.667,89.001 L490.667,92.411 C490.685,97.763 488.559,102.9 484.764,106.674 L477.834,113.585 L477.834,127.499 C477.832,128.057 477.575,128.584 477.138,128.929 L467.971,136.262 C467.649,136.521 467.248,136.663 466.835,136.666 Z" />
        </g>
        <g id="Black-S" transform="translate(0,0)">
            <path d="M663.692,109.707 L666.284,112.299 L651.623,126.961 L649.03,124.368 Z" />
            <path d="M666.835,136.666 C666.603,136.666 666.372,136.623 666.157,136.537 C665.545,136.294 665.111,135.741 665.02,135.089 L663.187,122.256 L666.853,121.743 L668.228,131.404 L674.168,126.619 L674.168,112.833 C674.165,112.346 674.356,111.878 674.7,111.532 L682.161,104.07 C685.266,100.986 687.009,96.788 687.001,92.411 L687.001,89.001 L683.591,89.001 C679.214,88.993 675.016,90.735 671.931,93.841 L664.47,101.302 C664.124,101.645 663.656,101.837 663.168,101.834 L649.382,101.834 L644.597,107.81 L654.259,109.185 L653.745,112.852 L640.912,111.018 C640.261,110.927 639.708,110.493 639.464,109.882 C639.217,109.266 639.323,108.565 639.739,108.049 L647.072,98.882 C647.414,98.438 647.941,98.174 648.502,98.167 L662.417,98.167 L669.328,91.237 C673.102,87.442 678.239,85.316 683.591,85.334 L687.001,85.334 C687.973,85.334 688.906,85.721 689.593,86.408 C690.281,87.096 690.667,88.028 690.667,89.001 L690.667,92.411 C690.685,97.763 688.559,102.9 684.764,106.674 L677.834,113.585 L677.834,127.499 C677.832,128.057 677.575,128.584 677.138,128.929 L667.971,136.262 C667.649,136.521 667.248,136.663 666.835,136.666 Z" />
        </g>
    </g>
</svg>