<?xml version="1.0" encoding="UTF-8"?>
<svg height="600" width="800" xmlns="http://www.w3.org/2000/svg" xmlns:xlink="http://www.w3.org/1999/xlink">
    <style>
        .cls-1 { fill: none }
    </style>
    <g id="Notes" font-family="LucidaGrande, 'Lucida Grande', sans-serif" font-size="13">
        <rect fill="white" height="600.0" width="800.0" x="0.0" y="0.0" />
        <g font-size="13">
            <text x="18.0" y="176.0">Small</text>
            <text x="18.0" y="376.0">Medium</text>
            <text x="18.0" y="576.0">Large</text>
        </g>
        <g font-size="9">
            <text x="250.0" y="30.0">Ultralight</text>
            <text x="450.0" y="30.0">Regular</text>
            <text x="650.0" y="30.0">Black</text>
            <text id="template-version" fill="#505050" text-anchor="end" x="785.0" y="575.0">Template v.3.0</text>
            <a href="https://github.com/swhitty/SwiftDraw">
                <text fill="#505050" text-anchor="end" x="785.0" y="590.0">https://github.com/swhitty/SwiftDraw</text>
            </a>
        </g>
    </g>
    <g id="Guides" stroke="rgb(39, 170, 225)" stroke-width="0.5">
        <path id="Capline-S" d="M18,76 l800,0" />
        <path id="H-reference" d="M85,145.755 L87.685,145.755 L113.369,79.287 L114.052,79.287 L114.052,76 L112.148,76 L85,145.755 Z M95.693,121.536 L130.996,121.536 L130.263,119.313 L96.474,119.313 L95.693,121.536 Z M139.15,145.755 L141.787,145.755 L114.638,76 L113.466,76 L113.466,79.287 L139.15,145.755 Z" stroke="none" transform="translate(0,0)" />
        <path id="Baseline-S" d="M18,146 l800,0" />
        <path id="left-margin-Ultralight-S" d="M221,56 l0,110" />
        <path id="right-margin-Ultralight-S" d="M309,56 l0,110" />
        <path id="left-margin-Regular-S" d="M421,56 l0,110" />
        <path id="right-margin-Regular-S" d="M509,56 l0,110" />
        <path id="left-margin-Black-S" d="M621,56 l0,110" />
        <path id="right-margin-Black-S" d="M709,56 l0,110" />
        <path id="Capline-M" d="M18,276 l800,0" />
        <path id="Baseline-M" d="M18,346 l800,0" />
        <path id="Capline-L" d="M18,476 l800,0" />
        <path id="Baseline-L" d="M18,546 l800,0" />
    </g>
    <g id="Symbols">
        <g id="Ultralight-S" transform="translate(0,0)">
            <path d="M287,84.6 L287,137.4 L282.6,137.4 L282.6,84.6 Z" />
            <path d="M269.4,89 L269.4,133 L260.6,133 L260.6,89 L269.4,89 M269.4,84.6 L260.6,84.6 C259.433,84.6 258.314,85.064 257.489,85.889 C256.664,86.714 256.2,87.833 256.2,89 L256.2,133 C256.2,134.167 256.664,135.286 257.489,136.111 C258.314,136.936 259.433,137.4 260.6,137.4 L269.4,137.4 C270.567,137.4 271.686,136.936 272.511,136.111 C273.336,135.286 273.8,134.167 273.8,133 L273.8,89 C273.8,87.833 273.336,86.714 272.511,85.889 C271.686,85.064 270.567,84.6 269.4,84.6 Z" />
            <path d="M247.4,84.6 L247.4,137.4 L243,137.4 L243,84.6 Z" />
        </g>
        <g id="Regular-S" transform="translate(0,0)">
            <path d="M487,84.6 L487,137.4 L482.6,137.4 L482.6,84.6 Z" />
            <path d="M469.4,89 L469.4,133 L460.6,133 L460.6,89 L469.4,89 M469.4,84.6 L460.6,84.6 C459.433,84.6 458.314,85.064 457.489,85.889 C456.664,86.714 456.2,87.833 456.2,89 L456.2,133 C456.2,134.167 456.664,135.286 457.489,136.111 C458.314,136.936 459.433,137.4 460.6,137.4 L469.4,137.4 C470.567,137.4 471.686,136.936 472.511,136.111 C473.336,135.286 473.8,134.167 473.8,133 L473.8,89 C473.8,87.833 473.336,86.714 472.511,85.889 C471.686,85.064 470.567,84.6 469.4,84.6 Z" />
            <path d="M447.4,84.6 L447.4,137.4 L443,137.4 L443,84.6 Z" />
        </g>
        <g id="Black-S" transform="translate(0,0)">
            <path d="M687,84.6 L687,137.4 L682.6,137.4 L682.6,84.6 Z" />
            <path d="M669.4,89 L669.4,133 L660.6,133 L660.6,89 L669.4,89 M669.4,84.6 L660.6,84.6 C659.433,84.6 658.314,85.064 657.489,85.889 C656.664,86.714 656.2,87.833 656.2,89 L656.2,133 C656.2,134.167 656.664,135.286 657.489,136.111 C658.314,136.936 659.433,137.4 660.6,137.4 L669.4,137.4 C670.567,137.4 671.686,136.936 672.511,136.111 C673.336,135.286 673.8,134.167 673.8,133 L673.8,89 C673.8,87.833 673.336,86.714 672.511,85.889 C671.686,85.064 670.567,84.6 669.4,84.6 Z" />
            <path d="M647.4,84.6 L647.4,137.4 L643,137.4 L643,84.6 Z" />
        </g>
    </g>
</svg>