<?xml version="1.0" encoding="UTF-8"?>
<svg height="600" width="800" xmlns="http://www.w3.org/2000/svg" xmlns:xlink="http://www.w3.org/1999/xlink">
    <style>
        .st0 { fill: none }
    </style>
    <g id="Notes" font-family="LucidaGrande, 'Lucida Grande', sans-serif" font-size="13">
        <rect fill="white" height="600.0" width="800.0" x="0.0" y="0.0" />
        <g font-size="13">
            <text x="18.0" y="176.0">Small</text>
            <text x="18.0" y="376.0">Medium</text>
            <text x="18.0" y="576.0">Large</text>
        </g>
        <g font-size="9">
            <text x="250.0" y="30.0">Ultralight</text>
            <text x="450.0" y="30.0">Regular</text>
            <text x="650.0" y="30.0">Black</text>
            <text id="template-version" fill="#505050" text-anchor="end" x="785.0" y="575.0">Template v.3.0</text>
            <a href="https://github.com/swhitty/SwiftDraw">
                <text fill="#505050" text-anchor="end" x="785.0" y="590.0">https://github.com/swhitty/SwiftDraw</text>
            </a>
        </g>
    </g>
    <g id="Guides" stroke="rgb(39, 170, 225)" stroke-width="0.5">
        <path id="Capline-S" d="M18,76 l800,0" />
        <path id="H-reference" d="M85,145.755 L87.685,145.755 L113.369,79.287 L114.052,79.287 L114.052,76 L112.148,76 L85,145.755 Z M95.693,121.536 L130.996,121.536 L130.263,119.313 L96.474,119.313 L95.693,121.536 Z M139.15,145.755 L141.787,145.755 L114.638,76 L113.466,76 L113.466,79.287 L139.15,145.755 Z" stroke="none" transform="translate(0,0)" />
        <path id="Baseline-S" d="M18,146 l800,0" />
        <path id="left-margin-Ultralight-S" d="M221,56 l0,110" />
        <path id="right-margin-Ultralight-S" d="M309,56 l0,110" />
        <path id="left-margin-Regular-S" d="M421,56 l0,110" />
        <path id="right-margin-Regular-S" d="M509,56 l0,110" />
        <path id="left-margin-Black-S" d="M621,56 l0,110" />
        <path id="right-margin-Black-S" d="M709,56 l0,110" />
        <path id="Capline-M" d="M18,276 l800,0" />
        <path id="Baseline-M" d="M18,346 l800,0" />
        <path id="Capline-L" d="M18,476 l800,0" />
        <path id="Baseline-L" d="M18,546 l800,0" />
    </g>
    <g id="Symbols">
        <g id="Ultralight-S" transform="translate(0,0)">
            <path d="M259.5,83.5 L259.5,94.5 L248.5,94.5 L248.5,83.5 Z" />
            <path d="M281.5,83.5 L281.5,94.5 L270.5,94.5 L270.5,83.5 Z" />
            <path d="M259.5,105.5 L259.5,116.5 L248.5,116.5 L248.5,105.5 Z" />
            <path d="M281.5,105.5 L281.5,116.5 L270.5,116.5 L270.5,105.5 Z" />
            <path d="M259.5,127.5 L259.5,138.5 L248.5,138.5 L248.5,127.5 Z" />
            <path d="M281.5,127.5 L281.5,138.5 L270.5,138.5 L270.5,127.5 Z" />
        </g>
        <g id="Regular-S" transform="translate(0,0)">
            <path d="M459.5,83.5 L459.5,94.5 L448.5,94.5 L448.5,83.5 Z" />
            <path d="M481.5,83.5 L481.5,94.5 L470.5,94.5 L470.5,83.5 Z" />
            <path d="M459.5,105.5 L459.5,116.5 L448.5,116.5 L448.5,105.5 Z" />
            <path d="M481.5,105.5 L481.5,116.5 L470.5,116.5 L470.5,105.5 Z" />
            <path d="M459.5,127.5 L459.5,138.5 L448.5,138.5 L448.5,127.5 Z" />
            <path d="M481.5,127.5 L481.5,138.5 L470.5,138.5 L470.5,127.5 Z" />
        </g>
        <g id="Black-S" transform="translate(0,0)">
            <path d="M659.5,83.5 L659.5,94.5 L648.5,94.5 L648.5,83.5 Z" />
            <path d="M681.5,83.5 L681.5,94.5 L670.5,94.5 L670.5,83.5 Z" />
            <path d="M659.5,105.5 L659.5,116.5 L648.5,116.5 L648.5,105.5 Z" />
            <path d="M681.5,105.5 L681.5,116.5 L670.5,116.5 L670.5,105.5 Z" />
            <path d="M659.5,127.5 L659.5,138.5 L648.5,138.5 L648.5,127.5 Z" />
            <path d="M681.5,127.5 L681.5,138.5 L670.5,138.5 L670.5,127.5 Z" />
        </g>
    </g>
</svg>