<?xml version="1.0" encoding="UTF-8"?>
<svg height="600" width="800" xmlns="http://www.w3.org/2000/svg" xmlns:xlink="http://www.w3.org/1999/xlink">
    <style>
        
    </style>
    <g id="Notes" font-family="LucidaGrande, 'Lucida Grande', sans-serif" font-size="13">
        <rect fill="white" height="600.0" width="800.0" x="0.0" y="0.0" />
        <g font-size="13">
            <text x="18.0" y="176.0">Small</text>
            <text x="18.0" y="376.0">Medium</text>
            <text x="18.0" y="576.0">Large</text>
        </g>
        <g font-size="9">
            <text x="250.0" y="30.0">Ultralight</text>
            <text x="450.0" y="30.0">Regular</text>
            <text x="650.0" y="30.0">Black</text>
            <text id="template-version" fill="#505050" text-anchor="end" x="785.0" y="575.0">Template v.3.0</text>
            <a href="https://github.com/swhitty/SwiftDraw">
                <text fill="#505050" text-anchor="end" x="785.0" y="590.0">https://github.com/swhitty/SwiftDraw</text>
            </a>
        </g>
    </g>
    <g id="Guides" stroke="rgb(39, 170, 225)" stroke-width="0.5">
        <path id="Capline-S" d="M18,76 l800,0" />
        <path id="H-reference" d="M85,145.755 L87.685,145.755 L113.369,79.287 L114.052,79.287 L114.052,76 L112.148,76 L85,145.755 Z M95.693,121.536 L130.996,121.536 L130.263,119.313 L96.474,119.313 L95.693,121.536 Z M139.15,145.755 L141.787,145.755 L114.638,76 L113.466,76 L113.466,79.287 L139.15,145.755 Z" stroke="none" transform="translate(0,0)" />
        <path id="Baseline-S" d="M18,146 l800,0" />
        <path id="left-margin-Ultralight-S" d="M221,56 l0,110" />
        <path id="right-margin-Ultralight-S" d="M309,56 l0,110" />
        <path id="left-margin-Regular-S" d="M421,56 l0,110" />
        <path id="right-margin-Regular-S" d="M509,56 l0,110" />
        <path id="left-margin-Black-S" d="M621,56 l0,110" />
        <path id="right-margin-Black-S" d="M709,56 l0,110" />
        <path id="Capline-M" d="M18,276 l800,0" />
        <path id="Baseline-M" d="M18,346 l800,0" />
        <path id="Capline-L" d="M18,476 l800,0" />
        <path id="Baseline-L" d="M18,546 l800,0" />
    </g>
    <g id="Symbols">
        <g id="Ultralight-S" transform="translate(0,0)">
            <path d="M266.692,87.308 L266.692,95.769 L263.308,95.769 L263.308,87.308 Z" />
            <path d="M280.556,93.051 L282.949,95.444 L277.016,101.377 L274.623,98.984 Z" />
            <path d="M288.692,109.308 L288.692,112.692 L280.231,112.692 L280.231,109.308 Z" />
            <path d="M277.016,120.623 L282.949,126.556 L280.556,128.949 L274.623,123.016 Z" />
            <path d="M266.692,126.231 L266.692,134.692 L263.308,134.692 L263.308,126.231 Z" />
            <path d="M252.984,120.623 L255.377,123.016 L249.444,128.949 L247.051,126.556 Z" />
            <path d="M249.769,109.308 L249.769,112.692 L241.308,112.692 L241.308,109.308 Z" />
            <path d="M249.444,93.051 L255.377,98.984 L252.984,101.377 L247.051,95.444 Z" />
            <path d="M265,104.231 C268.739,104.231 271.769,107.261 271.769,111 C271.769,114.739 268.739,117.769 265,117.769 C261.261,117.769 258.231,114.739 258.231,111 C258.235,107.263 261.263,104.235 265,104.231 M265,100.846 C259.392,100.846 254.846,105.392 254.846,111 C254.846,116.608 259.392,121.154 265,121.154 C270.608,121.154 275.154,116.608 275.154,111 C275.154,108.307 274.084,105.724 272.18,103.82 C270.275,101.916 267.693,100.846 265,100.846 Z" />
            <path d="M292.077,83.923 L292.077,138.077 L237.923,138.077 L237.923,83.923 Z" />
        </g>
        <g id="Regular-S" transform="translate(0,0)">
            <path d="M466.692,87.308 L466.692,95.769 L463.308,95.769 L463.308,87.308 Z" />
            <path d="M480.556,93.051 L482.949,95.444 L477.016,101.377 L474.623,98.984 Z" />
            <path d="M488.692,109.308 L488.692,112.692 L480.231,112.692 L480.231,109.308 Z" />
            <path d="M477.016,120.623 L482.949,126.556 L480.556,128.949 L474.623,123.016 Z" />
            <path d="M466.692,126.231 L466.692,134.692 L463.308,134.692 L463.308,126.231 Z" />
            <path d="M452.984,120.623 L455.377,123.016 L449.444,128.949 L447.051,126.556 Z" />
            <path d="M449.769,109.308 L449.769,112.692 L441.308,112.692 L441.308,109.308 Z" />
            <path d="M449.444,93.051 L455.377,98.984 L452.984,101.377 L447.051,95.444 Z" />
            <path d="M465,104.231 C468.739,104.231 471.769,107.261 471.769,111 C471.769,114.739 468.739,117.769 465,117.769 C461.261,117.769 458.231,114.739 458.231,111 C458.235,107.263 461.263,104.235 465,104.231 M465,100.846 C459.392,100.846 454.846,105.392 454.846,111 C454.846,116.608 459.392,121.154 465,121.154 C470.608,121.154 475.154,116.608 475.154,111 C475.154,108.307 474.084,105.724 472.18,103.82 C470.275,101.916 467.693,100.846 465,100.846 Z" />
            <path d="M492.077,83.923 L492.077,138.077 L437.923,138.077 L437.923,83.923 Z" />
        </g>
        <g id="Black-S" transform="translate(0,0)">
            <path d="M666.692,87.308 L666.692,95.769 L663.308,95.769 L663.308,87.308 Z" />
            <path d="M680.556,93.051 L682.949,95.444 L677.016,101.377 L674.623,98.984 Z" />
            <path d="M688.692,109.308 L688.692,112.692 L680.231,112.692 L680.231,109.308 Z" />
            <path d="M677.016,120.623 L682.949,126.556 L680.556,128.949 L674.623,123.016 Z" />
            <path d="M666.692,126.231 L666.692,134.692 L663.308,134.692 L663.308,126.231 Z" />
            <path d="M652.984,120.623 L655.377,123.016 L649.444,128.949 L647.051,126.556 Z" />
            <path d="M649.769,109.308 L649.769,112.692 L641.308,112.692 L641.308,109.308 Z" />
            <path d="M649.444,93.051 L655.377,98.984 L652.984,101.377 L647.051,95.444 Z" />
            <path d="M665,104.231 C668.739,104.231 671.769,107.261 671.769,111 C671.769,114.739 668.739,117.769 665,117.769 C661.261,117.769 658.231,114.739 658.231,111 C658.235,107.263 661.263,104.235 665,104.231 M665,100.846 C659.392,100.846 654.846,105.392 654.846,111 C654.846,116.608 659.392,121.154 665,121.154 C670.608,121.154 675.154,116.608 675.154,111 C675.154,108.307 674.084,105.724 672.18,103.82 C670.275,101.916 667.693,100.846 665,100.846 Z" />
            <path d="M692.077,83.923 L692.077,138.077 L637.923,138.077 L637.923,83.923 Z" />
        </g>
    </g>
</svg>