<?xml version="1.0" encoding="UTF-8"?>
<svg height="600" width="800" xmlns="http://www.w3.org/2000/svg" xmlns:xlink="http://www.w3.org/1999/xlink">
    <style>
        .cls-1 { fill: none }
    </style>
    <g id="Notes" font-family="LucidaGrande, 'Lucida Grande', sans-serif" font-size="13">
        <rect fill="white" height="600.0" width="800.0" x="0.0" y="0.0" />
        <g font-size="13">
            <text x="18.0" y="176.0">Small</text>
            <text x="18.0" y="376.0">Medium</text>
            <text x="18.0" y="576.0">Large</text>
        </g>
        <g font-size="9">
            <text x="250.0" y="30.0">Ultralight</text>
            <text x="450.0" y="30.0">Regular</text>
            <text x="650.0" y="30.0">Black</text>
            <text id="template-version" fill="#505050" text-anchor="end" x="785.0" y="575.0">Template v.3.0</text>
            <a href="https://github.com/swhitty/SwiftDraw">
                <text fill="#505050" text-anchor="end" x="785.0" y="590.0">https://github.com/swhitty/SwiftDraw</text>
            </a>
        </g>
    </g>
    <g id="Guides" stroke="rgb(39, 170, 225)" stroke-width="0.5">
        <path id="Capline-S" d="M18,76 l800,0" />
        <path id="H-reference" d="M85,145.755 L87.685,145.755 L113.369,79.287 L114.052,79.287 L114.052,76 L112.148,76 L85,145.755 Z M95.693,121.536 L130.996,121.536 L130.263,119.313 L96.474,119.313 L95.693,121.536 Z M139.15,145.755 L141.787,145.755 L114.638,76 L113.466,76 L113.466,79.287 L139.15,145.755 Z" stroke="none" transform="translate(0,0)" />
        <path id="Baseline-S" d="M18,146 l800,0" />
        <path id="left-margin-Ultralight-S" d="M221,56 l0,110" />
        <path id="right-margin-Ultralight-S" d="M309,56 l0,110" />
        <path id="left-margin-Regular-S" d="M421,56 l0,110" />
        <path id="right-margin-Regular-S" d="M509,56 l0,110" />
        <path id="left-margin-Black-S" d="M621,56 l0,110" />
        <path id="right-margin-Black-S" d="M709,56 l0,110" />
        <path id="Capline-M" d="M18,276 l800,0" />
        <path id="Baseline-M" d="M18,346 l800,0" />
        <path id="Capline-L" d="M18,476 l800,0" />
        <path id="Baseline-L" d="M18,546 l800,0" />
    </g>
    <g id="Symbols">
        <g id="Ultralight-S" transform="translate(0,0)">
            <path d="M260.81,119.758 L253.288,112.236 L250.333,115.19 L260.81,125.667 L279.667,106.81 L276.712,103.834 L260.81,119.758 Z" />
            <path d="M283.857,87.952 L277.571,87.952 L277.571,85.857 C277.571,84.746 277.13,83.68 276.344,82.894 C275.558,82.108 274.492,81.667 273.381,81.667 L256.619,81.667 C255.508,81.667 254.442,82.108 253.656,82.894 C252.87,83.68 252.429,84.746 252.429,85.857 L252.429,87.952 L246.143,87.952 C245.031,87.952 243.966,88.394 243.18,89.18 C242.394,89.966 241.952,91.031 241.952,92.143 L241.952,136.143 C241.952,137.254 242.394,138.32 243.18,139.106 C243.966,139.892 245.031,140.333 246.143,140.333 L283.857,140.333 C284.969,140.333 286.034,139.892 286.82,139.106 C287.606,138.32 288.048,137.254 288.048,136.143 L288.048,92.143 C288.048,91.031 287.606,89.966 286.82,89.18 C286.034,88.394 284.969,87.952 283.857,87.952 Z M256.619,85.857 L273.381,85.857 L273.381,94.238 L256.619,94.238 Z M283.857,136.143 L246.143,136.143 L246.143,92.143 L252.429,92.143 L252.429,98.429 L277.571,98.429 L277.571,92.143 L283.857,92.143 Z" />
        </g>
        <g id="Regular-S" transform="translate(0,0)">
            <path d="M460.81,119.758 L453.288,112.236 L450.333,115.19 L460.81,125.667 L479.667,106.81 L476.712,103.834 L460.81,119.758 Z" />
            <path d="M483.857,87.952 L477.571,87.952 L477.571,85.857 C477.571,84.746 477.13,83.68 476.344,82.894 C475.558,82.108 474.492,81.667 473.381,81.667 L456.619,81.667 C455.508,81.667 454.442,82.108 453.656,82.894 C452.87,83.68 452.429,84.746 452.429,85.857 L452.429,87.952 L446.143,87.952 C445.031,87.952 443.966,88.394 443.18,89.18 C442.394,89.966 441.952,91.031 441.952,92.143 L441.952,136.143 C441.952,137.254 442.394,138.32 443.18,139.106 C443.966,139.892 445.031,140.333 446.143,140.333 L483.857,140.333 C484.969,140.333 486.034,139.892 486.82,139.106 C487.606,138.32 488.048,137.254 488.048,136.143 L488.048,92.143 C488.048,91.031 487.606,89.966 486.82,89.18 C486.034,88.394 484.969,87.952 483.857,87.952 Z M456.619,85.857 L473.381,85.857 L473.381,94.238 L456.619,94.238 Z M483.857,136.143 L446.143,136.143 L446.143,92.143 L452.429,92.143 L452.429,98.429 L477.571,98.429 L477.571,92.143 L483.857,92.143 Z" />
        </g>
        <g id="Black-S" transform="translate(0,0)">
            <path d="M660.81,119.758 L653.288,112.236 L650.333,115.19 L660.81,125.667 L679.667,106.81 L676.712,103.834 L660.81,119.758 Z" />
            <path d="M683.857,87.952 L677.571,87.952 L677.571,85.857 C677.571,84.746 677.13,83.68 676.344,82.894 C675.558,82.108 674.492,81.667 673.381,81.667 L656.619,81.667 C655.508,81.667 654.442,82.108 653.656,82.894 C652.87,83.68 652.429,84.746 652.429,85.857 L652.429,87.952 L646.143,87.952 C645.031,87.952 643.966,88.394 643.18,89.18 C642.394,89.966 641.952,91.031 641.952,92.143 L641.952,136.143 C641.952,137.254 642.394,138.32 643.18,139.106 C643.966,139.892 645.031,140.333 646.143,140.333 L683.857,140.333 C684.969,140.333 686.034,139.892 686.82,139.106 C687.606,138.32 688.048,137.254 688.048,136.143 L688.048,92.143 C688.048,91.031 687.606,89.966 686.82,89.18 C686.034,88.394 684.969,87.952 683.857,87.952 Z M656.619,85.857 L673.381,85.857 L673.381,94.238 L656.619,94.238 Z M683.857,136.143 L646.143,136.143 L646.143,92.143 L652.429,92.143 L652.429,98.429 L677.571,98.429 L677.571,92.143 L683.857,92.143 Z" />
        </g>
    </g>
</svg>