<?xml version="1.0" encoding="UTF-8"?>
<svg height="600" width="800" xmlns="http://www.w3.org/2000/svg" xmlns:xlink="http://www.w3.org/1999/xlink">
    <style>
        
    </style>
    <g id="Notes" font-family="LucidaGrande, 'Lucida Grande', sans-serif" font-size="13">
        <rect fill="white" height="600.0" width="800.0" x="0.0" y="0.0" />
        <g font-size="13">
            <text x="18.0" y="176.0">Small</text>
            <text x="18.0" y="376.0">Medium</text>
            <text x="18.0" y="576.0">Large</text>
        </g>
        <g font-size="9">
            <text x="250.0" y="30.0">Ultralight</text>
            <text x="450.0" y="30.0">Regular</text>
            <text x="650.0" y="30.0">Black</text>
            <text id="template-version" fill="#505050" text-anchor="end" x="785.0" y="575.0">Template v.3.0</text>
            <a href="https://github.com/swhitty/SwiftDraw">
                <text fill="#505050" text-anchor="end" x="785.0" y="590.0">https://github.com/swhitty/SwiftDraw</text>
            </a>
        </g>
    </g>
    <g id="Guides" stroke="rgb(39, 170, 225)" stroke-width="0.5">
        <path id="Capline-S" d="M18,76 l800,0" />
        <path id="H-reference" d="M85,145.755 L87.685,145.755 L113.369,79.287 L114.052,79.287 L114.052,76 L112.148,76 L85,145.755 Z M95.693,121.536 L130.996,121.536 L130.263,119.313 L96.474,119.313 L95.693,121.536 Z M139.15,145.755 L141.787,145.755 L114.638,76 L113.466,76 L113.466,79.287 L139.15,145.755 Z" stroke="none" transform="translate(0,0)" />
        <path id="Baseline-S" d="M18,146 l800,0" />
        <path id="left-margin-Ultralight-S" d="M221,56 l0,110" />
        <path id="right-margin-Ultralight-S" d="M309,56 l0,110" />
        <path id="left-margin-Regular-S" d="M421,56 l0,110" />
        <path id="right-margin-Regular-S" d="M509,56 l0,110" />
        <path id="left-margin-Black-S" d="M621,56 l0,110" />
        <path id="right-margin-Black-S" d="M709,56 l0,110" />
        <path id="Capline-M" d="M18,276 l800,0" />
        <path id="Baseline-M" d="M18,346 l800,0" />
        <path id="Capline-L" d="M18,476 l800,0" />
        <path id="Baseline-L" d="M18,546 l800,0" />
    </g>
    <g id="Symbols">
        <g id="Ultralight-S" transform="translate(0,0)">
            <path d="M286.16,97.692 L265.853,85.846 C265.326,85.538 264.674,85.538 264.147,85.846 L243.84,97.692 C243.32,97.995 243,98.552 243,99.154 L243,122.846 C243,123.448 243.32,124.005 243.84,124.308 L264.147,136.154 C264.674,136.462 265.326,136.462 265.853,136.154 L286.161,124.308 C286.68,124.005 287,123.448 287,122.846 L287,99.154 C287,98.552 286.68,97.995 286.16,97.692 Z M265,89.267 L281.949,99.154 L265,109.041 L248.051,99.154 Z M246.385,102.1 L263.308,111.972 L263.308,131.746 L246.385,121.874 Z M266.692,131.746 L266.692,111.972 L283.615,102.1 L283.615,121.874 Z" />
            <path d="M292.077,83.923 L292.077,138.077 L237.923,138.077 L237.923,83.923 Z" />
        </g>
        <g id="Regular-S" transform="translate(0,0)">
            <path d="M486.16,97.692 L465.853,85.846 C465.326,85.538 464.674,85.538 464.147,85.846 L443.84,97.692 C443.32,97.995 443,98.552 443,99.154 L443,122.846 C443,123.448 443.32,124.005 443.84,124.308 L464.147,136.154 C464.674,136.462 465.326,136.462 465.853,136.154 L486.16,124.308 C486.68,124.005 487,123.448 487,122.846 L487,99.154 C487,98.552 486.68,97.995 486.16,97.692 Z M465,89.267 L481.949,99.154 L465,109.041 L448.051,99.154 Z M446.385,102.1 L463.308,111.972 L463.308,131.746 L446.385,121.874 Z M466.692,131.746 L466.692,111.972 L483.615,102.1 L483.615,121.874 Z" />
            <path d="M492.077,83.923 L492.077,138.077 L437.923,138.077 L437.923,83.923 Z" />
        </g>
        <g id="Black-S" transform="translate(0,0)">
            <path d="M686.16,97.692 L665.853,85.846 C665.326,85.538 664.674,85.538 664.147,85.846 L643.84,97.692 C643.32,97.995 643,98.552 643,99.154 L643,122.846 C643,123.448 643.32,124.005 643.84,124.308 L664.147,136.154 C664.674,136.462 665.326,136.462 665.853,136.154 L686.161,124.308 C686.68,124.005 687,123.448 687,122.846 L687,99.154 C687,98.552 686.68,97.995 686.16,97.692 Z M665,89.267 L681.95,99.154 L665,109.041 L648.051,99.154 Z M646.385,102.1 L663.308,111.972 L663.308,131.746 L646.385,121.874 Z M666.692,131.746 L666.692,111.972 L683.615,102.1 L683.615,121.874 Z" />
            <path d="M692.077,83.923 L692.077,138.077 L637.923,138.077 L637.923,83.923 Z" />
        </g>
    </g>
</svg>