<?xml version="1.0" encoding="UTF-8"?>
<svg height="600" width="800" xmlns="http://www.w3.org/2000/svg" xmlns:xlink="http://www.w3.org/1999/xlink">
    <style>
        .cls-1 { fill: none }
    </style>
    <g id="Notes" font-family="LucidaGrande, 'Lucida Grande', sans-serif" font-size="13">
        <rect fill="white" height="600.0" width="800.0" x="0.0" y="0.0" />
        <g font-size="13">
            <text x="18.0" y="176.0">Small</text>
            <text x="18.0" y="376.0">Medium</text>
            <text x="18.0" y="576.0">Large</text>
        </g>
        <g font-size="9">
            <text x="250.0" y="30.0">Ultralight</text>
            <text x="450.0" y="30.0">Regular</text>
            <text x="650.0" y="30.0">Black</text>
            <text id="template-version" fill="#505050" text-anchor="end" x="785.0" y="575.0">Template v.3.0</text>
            <a href="https://github.com/swhitty/SwiftDraw">
                <text fill="#505050" text-anchor="end" x="785.0" y="590.0">https://github.com/swhitty/SwiftDraw</text>
            </a>
        </g>
    </g>
    <g id="Guides" stroke="rgb(39, 170, 225)" stroke-width="0.5">
        <path id="Capline-S" d="M18,76 l800,0" />
        <path id="H-reference" d="M85,145.755 L87.685,145.755 L113.369,79.287 L114.052,79.287 L114.052,76 L112.148,76 L85,145.755 Z M95.693,121.536 L130.996,121.536 L130.263,119.313 L96.474,119.313 L95.693,121.536 Z M139.15,145.755 L141.787,145.755 L114.638,76 L113.466,76 L113.466,79.287 L139.15,145.755 Z" stroke="none" transform="translate(0,0)" />
        <path id="Baseline-S" d="M18,146 l800,0" />
        <path id="left-margin-Ultralight-S" d="M221,56 l0,110" />
        <path id="right-margin-Ultralight-S" d="M309,56 l0,110" />
        <path id="left-margin-Regular-S" d="M421,56 l0,110" />
        <path id="right-margin-Regular-S" d="M509,56 l0,110" />
        <path id="left-margin-Black-S" d="M621,56 l0,110" />
        <path id="right-margin-Black-S" d="M709,56 l0,110" />
        <path id="Capline-M" d="M18,276 l800,0" />
        <path id="Baseline-M" d="M18,346 l800,0" />
        <path id="Capline-L" d="M18,476 l800,0" />
        <path id="Baseline-L" d="M18,546 l800,0" />
    </g>
    <g id="Symbols">
        <g id="Ultralight-S" transform="translate(0,0)">
            <path d="M265.017,94.913 L265.017,94.913 C265.876,94.913 266.732,94.998 267.574,95.167 C273.017,96.21 277.276,100.462 278.327,105.903 L278.767,108.189 L281.053,108.595 C285.841,109.419 289.192,113.785 288.749,118.623 C288.306,123.462 284.218,127.147 279.359,127.087 L250.624,127.087 C245.765,127.147 241.677,123.462 241.234,118.623 C240.791,113.785 244.142,109.419 248.93,108.595 L251.199,108.189 L251.64,105.903 C252.871,99.497 258.493,94.878 265.017,94.913 M265.017,91.527 C256.887,91.52 249.9,97.292 248.371,105.277 C241.908,106.447 237.403,112.353 237.984,118.896 C238.564,125.439 244.038,130.459 250.607,130.473 L279.393,130.473 C285.962,130.459 291.436,125.439 292.016,118.896 C292.597,112.353 288.092,106.447 281.629,105.277 C280.324,98.464 274.996,93.136 268.183,91.831 C267.139,91.633 266.08,91.531 265.017,91.527 Z" />
        </g>
        <g id="Regular-S" transform="translate(0,0)">
            <path d="M465.017,94.913 L465.017,94.913 C465.876,94.913 466.732,94.998 467.574,95.167 C473.017,96.21 477.276,100.462 478.327,105.903 L478.767,108.189 L481.053,108.595 C485.841,109.419 489.192,113.785 488.749,118.623 C488.306,123.462 484.218,127.147 479.359,127.087 L450.624,127.087 C445.765,127.147 441.677,123.462 441.234,118.623 C440.791,113.785 444.142,109.419 448.93,108.595 L451.199,108.189 L451.64,105.903 C452.871,99.497 458.493,94.878 465.017,94.913 M465.017,91.527 C456.887,91.52 449.9,97.292 448.371,105.277 C441.908,106.447 437.403,112.353 437.984,118.896 C438.564,125.439 444.038,130.459 450.607,130.473 L479.393,130.473 C485.962,130.459 491.436,125.439 492.016,118.896 C492.597,112.353 488.092,106.447 481.629,105.277 C480.324,98.464 474.996,93.136 468.183,91.831 C467.139,91.633 466.08,91.531 465.017,91.527 Z" />
        </g>
        <g id="Black-S" transform="translate(0,0)">
            <path d="M665.017,94.913 L665.017,94.913 C665.876,94.913 666.732,94.998 667.574,95.167 C673.017,96.21 677.276,100.462 678.327,105.903 L678.767,108.189 L681.053,108.595 C685.841,109.419 689.192,113.785 688.749,118.623 C688.306,123.462 684.218,127.147 679.359,127.087 L650.624,127.087 C645.765,127.147 641.677,123.462 641.234,118.623 C640.791,113.785 644.142,109.419 648.93,108.595 L651.199,108.189 L651.64,105.903 C652.871,99.497 658.493,94.878 665.017,94.913 M665.017,91.527 C656.887,91.52 649.9,97.292 648.371,105.277 C641.908,106.447 637.403,112.353 637.984,118.896 C638.564,125.439 644.038,130.459 650.607,130.473 L679.393,130.473 C685.962,130.459 691.436,125.439 692.016,118.896 C692.597,112.353 688.092,106.447 681.629,105.277 C680.324,98.464 674.996,93.136 668.183,91.831 C667.139,91.633 666.08,91.531 665.017,91.527 Z" />
        </g>
    </g>
</svg>