<?xml version="1.0" encoding="UTF-8"?>
<svg height="600" width="800" xmlns="http://www.w3.org/2000/svg" xmlns:xlink="http://www.w3.org/1999/xlink">
    <style>
        .cls-1 { fill: none }
    </style>
    <g id="Notes" font-family="LucidaGrande, 'Lucida Grande', sans-serif" font-size="13">
        <rect fill="white" height="600.0" width="800.0" x="0.0" y="0.0" />
        <g font-size="13">
            <text x="18.0" y="176.0">Small</text>
            <text x="18.0" y="376.0">Medium</text>
            <text x="18.0" y="576.0">Large</text>
        </g>
        <g font-size="9">
            <text x="250.0" y="30.0">Ultralight</text>
            <text x="450.0" y="30.0">Regular</text>
            <text x="650.0" y="30.0">Black</text>
            <text id="template-version" fill="#505050" text-anchor="end" x="785.0" y="575.0">Template v.3.0</text>
            <a href="https://github.com/swhitty/SwiftDraw">
                <text fill="#505050" text-anchor="end" x="785.0" y="590.0">https://github.com/swhitty/SwiftDraw</text>
            </a>
        </g>
    </g>
    <g id="Guides" stroke="rgb(39, 170, 225)" stroke-width="0.5">
        <path id="Capline-S" d="M18,76 l800,0" />
        <path id="H-reference" d="M85,145.755 L87.685,145.755 L113.369,79.287 L114.052,79.287 L114.052,76 L112.148,76 L85,145.755 Z M95.693,121.536 L130.996,121.536 L130.263,119.313 L96.474,119.313 L95.693,121.536 Z M139.15,145.755 L141.787,145.755 L114.638,76 L113.466,76 L113.466,79.287 L139.15,145.755 Z" stroke="none" transform="translate(0,0)" />
        <path id="Baseline-S" d="M18,146 l800,0" />
        <path id="left-margin-Ultralight-S" d="M221,56 l0,110" />
        <path id="right-margin-Ultralight-S" d="M309,56 l0,110" />
        <path id="left-margin-Regular-S" d="M421,56 l0,110" />
        <path id="right-margin-Regular-S" d="M509,56 l0,110" />
        <path id="left-margin-Black-S" d="M621,56 l0,110" />
        <path id="right-margin-Black-S" d="M709,56 l0,110" />
        <path id="Capline-M" d="M18,276 l800,0" />
        <path id="Baseline-M" d="M18,346 l800,0" />
        <path id="Capline-L" d="M18,476 l800,0" />
        <path id="Baseline-L" d="M18,546 l800,0" />
    </g>
    <g id="Symbols">
        <g id="Ultralight-S" transform="translate(0,0)">
            <path d="M265,125.667 L253.835,109.9 C250.105,105.496 249.249,99.335 251.637,94.08 C254.025,88.826 259.229,85.419 265,85.333 C273.16,85.414 279.718,92.078 279.667,100.238 C279.668,103.657 278.504,106.974 276.367,109.643 Z M265,89 C258.861,89.07 253.939,94.099 254,100.238 C254.012,102.93 254.981,105.529 256.732,107.572 L265,119.287 L273.488,107.333 C275.102,105.319 275.987,102.819 276,100.238 C276.061,94.099 271.139,89.07 265,89 Z" />
            <path d="M261.333,98.167 C261.333,96.142 262.975,94.5 265,94.5 C267.025,94.5 268.667,96.142 268.667,98.167 C268.667,100.192 267.025,101.833 265,101.833 C262.975,101.833 261.333,100.192 261.333,98.167 Z" />
            <path d="M287,103.667 L283.333,103.667 L283.333,107.333 L287,107.333 L287,133 L243,133 L243,107.333 L246.667,107.333 L246.667,103.667 L243,103.667 C242.028,103.667 241.095,104.053 240.407,104.741 C239.72,105.428 239.333,106.361 239.333,107.333 L239.333,133 C239.333,133.972 239.72,134.905 240.407,135.593 C241.095,136.28 242.028,136.667 243,136.667 L287,136.667 C287.972,136.667 288.905,136.28 289.593,135.593 C290.28,134.905 290.667,133.972 290.667,133 L290.667,107.333 C290.667,106.361 290.28,105.428 289.593,104.741 C288.905,104.053 287.972,103.667 287,103.667 Z" />
        </g>
        <g id="Regular-S" transform="translate(0,0)">
            <path d="M465,125.667 L453.835,109.9 C450.105,105.496 449.249,99.335 451.637,94.08 C454.025,88.826 459.229,85.419 465,85.333 C473.16,85.414 479.718,92.078 479.667,100.238 C479.668,103.657 478.504,106.974 476.367,109.643 Z M465,89 C458.861,89.07 453.939,94.099 454,100.238 C454.012,102.93 454.981,105.529 456.732,107.572 L465,119.287 L473.488,107.333 C475.102,105.319 475.987,102.819 476,100.238 C476.061,94.099 471.139,89.07 465,89 Z" />
            <path d="M461.333,98.167 C461.333,96.142 462.975,94.5 465,94.5 C467.025,94.5 468.667,96.142 468.667,98.167 C468.667,100.192 467.025,101.833 465,101.833 C462.975,101.833 461.333,100.192 461.333,98.167 Z" />
            <path d="M487,103.667 L483.333,103.667 L483.333,107.333 L487,107.333 L487,133 L443,133 L443,107.333 L446.667,107.333 L446.667,103.667 L443,103.667 C442.028,103.667 441.095,104.053 440.407,104.741 C439.72,105.428 439.333,106.361 439.333,107.333 L439.333,133 C439.333,133.972 439.72,134.905 440.407,135.593 C441.095,136.28 442.028,136.667 443,136.667 L487,136.667 C487.972,136.667 488.905,136.28 489.593,135.593 C490.28,134.905 490.667,133.972 490.667,133 L490.667,107.333 C490.667,106.361 490.28,105.428 489.593,104.741 C488.905,104.053 487.972,103.667 487,103.667 Z" />
        </g>
        <g id="Black-S" transform="translate(0,0)">
            <path d="M665,125.667 L653.835,109.9 C650.105,105.496 649.249,99.335 651.637,94.08 C654.025,88.826 659.229,85.419 665,85.333 C673.16,85.414 679.718,92.078 679.667,100.238 C679.668,103.657 678.505,106.974 676.367,109.643 Z M665,89 C658.861,89.07 653.939,94.099 654,100.238 C654.012,102.93 654.981,105.529 656.732,107.572 L665,119.287 L673.488,107.333 C675.102,105.319 675.987,102.819 676,100.238 C676.061,94.099 671.139,89.07 665,89 Z" />
            <path d="M661.333,98.167 C661.333,96.142 662.975,94.5 665,94.5 C667.025,94.5 668.667,96.142 668.667,98.167 C668.667,100.192 667.025,101.833 665,101.833 C662.975,101.833 661.333,100.192 661.333,98.167 Z" />
            <path d="M687,103.667 L683.333,103.667 L683.333,107.333 L687,107.333 L687,133 L643,133 L643,107.333 L646.667,107.333 L646.667,103.667 L643,103.667 C642.028,103.667 641.095,104.053 640.407,104.741 C639.72,105.428 639.333,106.361 639.333,107.333 L639.333,133 C639.333,133.972 639.72,134.905 640.407,135.593 C641.095,136.28 642.028,136.667 643,136.667 L687,136.667 C687.972,136.667 688.905,136.28 689.593,135.593 C690.28,134.905 690.667,133.972 690.667,133 L690.667,107.333 C690.667,106.361 690.28,105.428 689.593,104.741 C688.905,104.053 687.972,103.667 687,103.667 Z" />
        </g>
    </g>
</svg>