<?xml version="1.0" encoding="UTF-8"?>
<svg height="600" width="800" xmlns="http://www.w3.org/2000/svg" xmlns:xlink="http://www.w3.org/1999/xlink">
    <style>
        .cls-1 { fill: none }
    </style>
    <g id="Notes" font-family="LucidaGrande, 'Lucida Grande', sans-serif" font-size="13">
        <rect fill="white" height="600.0" width="800.0" x="0.0" y="0.0" />
        <g font-size="13">
            <text x="18.0" y="176.0">Small</text>
            <text x="18.0" y="376.0">Medium</text>
            <text x="18.0" y="576.0">Large</text>
        </g>
        <g font-size="9">
            <text x="250.0" y="30.0">Ultralight</text>
            <text x="450.0" y="30.0">Regular</text>
            <text x="650.0" y="30.0">Black</text>
            <text id="template-version" fill="#505050" text-anchor="end" x="785.0" y="575.0">Template v.3.0</text>
            <a href="https://github.com/swhitty/SwiftDraw">
                <text fill="#505050" text-anchor="end" x="785.0" y="590.0">https://github.com/swhitty/SwiftDraw</text>
            </a>
        </g>
    </g>
    <g id="Guides" stroke="rgb(39, 170, 225)" stroke-width="0.5">
        <path id="Capline-S" d="M18,76 l800,0" />
        <path id="H-reference" d="M85,145.755 L87.685,145.755 L113.369,79.287 L114.052,79.287 L114.052,76 L112.148,76 L85,145.755 Z M95.693,121.536 L130.996,121.536 L130.263,119.313 L96.474,119.313 L95.693,121.536 Z M139.15,145.755 L141.787,145.755 L114.638,76 L113.466,76 L113.466,79.287 L139.15,145.755 Z" stroke="none" transform="translate(0,0)" />
        <path id="Baseline-S" d="M18,146 l800,0" />
        <path id="left-margin-Ultralight-S" d="M221,56 l0,110" />
        <path id="right-margin-Ultralight-S" d="M309,56 l0,110" />
        <path id="left-margin-Regular-S" d="M421,56 l0,110" />
        <path id="right-margin-Regular-S" d="M509,56 l0,110" />
        <path id="left-margin-Black-S" d="M621,56 l0,110" />
        <path id="right-margin-Black-S" d="M709,56 l0,110" />
        <path id="Capline-M" d="M18,276 l800,0" />
        <path id="Baseline-M" d="M18,346 l800,0" />
        <path id="Capline-L" d="M18,476 l800,0" />
        <path id="Baseline-L" d="M18,546 l800,0" />
    </g>
    <g id="Symbols">
        <g id="Ultralight-S" transform="translate(0,0)">
            <path d="M265,84.6 C271.075,84.6 276,89.525 276,95.6 C276,101.675 271.075,106.6 265,106.6 C258.925,106.6 254,101.675 254,95.6 C254,92.683 255.159,89.885 257.222,87.822 C259.285,85.759 262.083,84.6 265,84.6 M265,80.2 C256.495,80.2 249.6,87.095 249.6,95.6 C249.6,104.105 256.495,111 265,111 C273.505,111 280.4,104.105 280.4,95.6 C280.4,91.516 278.777,87.599 275.889,84.711 C273.001,81.822 269.084,80.2 265,80.2 Z" />
            <path d="M287,141.8 L282.6,141.8 L282.6,130.8 C282.6,127.883 281.441,125.085 279.378,123.022 C277.315,120.959 274.517,119.8 271.6,119.8 L258.4,119.8 C255.483,119.8 252.685,120.959 250.622,123.022 C248.559,125.085 247.4,127.883 247.4,130.8 L247.4,141.8 L243,141.8 L243,130.8 C243,126.716 244.622,122.799 247.511,119.911 C250.399,117.023 254.316,115.4 258.4,115.4 L271.6,115.4 C275.684,115.4 279.601,117.022 282.489,119.911 C285.378,122.799 287,126.716 287,130.8 Z" />
        </g>
        <g id="Regular-S" transform="translate(0,0)">
            <path d="M465,84.6 C471.075,84.6 476,89.525 476,95.6 C476,101.675 471.075,106.6 465,106.6 C458.925,106.6 454,101.675 454,95.6 C454,92.683 455.159,89.885 457.222,87.822 C459.285,85.759 462.083,84.6 465,84.6 M465,80.2 C456.495,80.2 449.6,87.095 449.6,95.6 C449.6,104.105 456.495,111 465,111 C473.505,111 480.4,104.105 480.4,95.6 C480.4,91.516 478.777,87.599 475.889,84.711 C473.001,81.822 469.084,80.2 465,80.2 Z" />
            <path d="M487,141.8 L482.6,141.8 L482.6,130.8 C482.6,127.883 481.441,125.085 479.378,123.022 C477.315,120.959 474.517,119.8 471.6,119.8 L458.4,119.8 C455.483,119.8 452.685,120.959 450.622,123.022 C448.559,125.085 447.4,127.883 447.4,130.8 L447.4,141.8 L443,141.8 L443,130.8 C443,126.716 444.622,122.799 447.511,119.911 C450.399,117.023 454.316,115.4 458.4,115.4 L471.6,115.4 C475.684,115.4 479.601,117.022 482.489,119.911 C485.378,122.799 487,126.716 487,130.8 Z" />
        </g>
        <g id="Black-S" transform="translate(0,0)">
            <path d="M665,84.6 C671.075,84.6 676,89.525 676,95.6 C676,101.675 671.075,106.6 665,106.6 C658.925,106.6 654,101.675 654,95.6 C654,92.683 655.159,89.885 657.222,87.822 C659.285,85.759 662.083,84.6 665,84.6 M665,80.2 C656.495,80.2 649.6,87.095 649.6,95.6 C649.6,104.105 656.495,111 665,111 C673.505,111 680.4,104.105 680.4,95.6 C680.4,91.516 678.777,87.599 675.889,84.711 C673.001,81.822 669.084,80.2 665,80.2 Z" />
            <path d="M687,141.8 L682.6,141.8 L682.6,130.8 C682.6,127.883 681.441,125.085 679.378,123.022 C677.315,120.959 674.517,119.8 671.6,119.8 L658.4,119.8 C655.483,119.8 652.685,120.959 650.622,123.022 C648.559,125.085 647.4,127.883 647.4,130.8 L647.4,141.8 L643,141.8 L643,130.8 C643,126.716 644.622,122.799 647.511,119.911 C650.399,117.023 654.316,115.4 658.4,115.4 L671.6,115.4 C675.684,115.4 679.601,117.022 682.489,119.911 C685.378,122.799 687,126.716 687,130.8 Z" />
        </g>
    </g>
</svg>