<?xml version="1.0" encoding="UTF-8"?>
<svg height="600" width="800" xmlns="http://www.w3.org/2000/svg" xmlns:xlink="http://www.w3.org/1999/xlink">
    <style>
        .cls-1 { fill: none }
    </style>
    <g id="Notes" font-family="LucidaGrande, 'Lucida Grande', sans-serif" font-size="13">
        <rect fill="white" height="600.0" width="800.0" x="0.0" y="0.0" />
        <g font-size="13">
            <text x="18.0" y="176.0">Small</text>
            <text x="18.0" y="376.0">Medium</text>
            <text x="18.0" y="576.0">Large</text>
        </g>
        <g font-size="9">
            <text x="250.0" y="30.0">Ultralight</text>
            <text x="450.0" y="30.0">Regular</text>
            <text x="650.0" y="30.0">Black</text>
            <text id="template-version" fill="#505050" text-anchor="end" x="785.0" y="575.0">Template v.3.0</text>
            <a href="https://github.com/swhitty/SwiftDraw">
                <text fill="#505050" text-anchor="end" x="785.0" y="590.0">https://github.com/swhitty/SwiftDraw</text>
            </a>
        </g>
    </g>
    <g id="Guides" stroke="rgb(39, 170, 225)" stroke-width="0.5">
        <path id="Capline-S" d="M18,76 l800,0" />
        <path id="H-reference" d="M85,145.755 L87.685,145.755 L113.369,79.287 L114.052,79.287 L114.052,76 L112.148,76 L85,145.755 Z M95.693,121.536 L130.996,121.536 L130.263,119.313 L96.474,119.313 L95.693,121.536 Z M139.15,145.755 L141.787,145.755 L114.638,76 L113.466,76 L113.466,79.287 L139.15,145.755 Z" stroke="none" transform="translate(0,0)" />
        <path id="Baseline-S" d="M18,146 l800,0" />
        <path id="left-margin-Ultralight-S" d="M221,56 l0,110" />
        <path id="right-margin-Ultralight-S" d="M309,56 l0,110" />
        <path id="left-margin-Regular-S" d="M421,56 l0,110" />
        <path id="right-margin-Regular-S" d="M509,56 l0,110" />
        <path id="left-margin-Black-S" d="M621,56 l0,110" />
        <path id="right-margin-Black-S" d="M709,56 l0,110" />
        <path id="Capline-M" d="M18,276 l800,0" />
        <path id="Baseline-M" d="M18,346 l800,0" />
        <path id="Capline-L" d="M18,476 l800,0" />
        <path id="Baseline-L" d="M18,546 l800,0" />
    </g>
    <g id="Symbols">
        <g id="Ultralight-S" transform="translate(0,0)">
            <path d="M285.505,112.417 C285.505,111.951 285.505,111.485 285.505,111 C285.505,110.515 285.505,110.049 285.505,109.564 L289.086,106.431 C290.449,105.23 290.748,103.221 289.795,101.675 L285.393,94.215 C284.728,93.062 283.498,92.351 282.167,92.35 C281.762,92.347 281.358,92.41 280.973,92.536 L276.441,94.066 C275.659,93.546 274.843,93.079 273.998,92.667 L273.047,87.967 C272.695,86.195 271.124,84.93 269.317,84.965 L260.589,84.965 C258.782,84.93 257.211,86.195 256.859,87.967 L255.908,92.667 C255.057,93.078 254.235,93.546 253.446,94.066 L249.007,92.462 C248.618,92.36 248.215,92.323 247.814,92.35 C246.482,92.351 245.253,93.062 244.587,94.215 L240.186,101.675 C239.288,103.217 239.608,105.18 240.95,106.356 L244.475,109.583 C244.475,110.049 244.475,110.515 244.475,111 C244.475,111.485 244.475,111.951 244.475,112.436 L240.95,115.569 C239.569,116.755 239.246,118.766 240.186,120.325 L244.587,127.785 C245.253,128.938 246.482,129.649 247.814,129.65 C248.219,129.653 248.622,129.59 249.007,129.464 L253.539,127.934 C254.322,128.454 255.138,128.921 255.982,129.333 L256.934,134.033 C257.285,135.805 258.857,137.07 260.664,137.035 L269.466,137.035 C271.273,137.07 272.844,135.805 273.196,134.033 L274.147,129.333 C274.998,128.922 275.82,128.454 276.609,127.934 L281.123,129.464 C281.508,129.59 281.911,129.653 282.316,129.65 C283.647,129.649 284.877,128.938 285.543,127.785 L289.795,120.325 C290.693,118.783 290.372,116.82 289.03,115.644 Z M282.167,125.92 L275.77,123.757 C274.273,125.025 272.561,126.017 270.716,126.685 L269.392,133.38 L260.589,133.38 L259.265,126.759 C257.434,126.072 255.732,125.082 254.229,123.831 L247.814,125.92 L243.412,118.46 L248.485,113.984 C248.14,112.053 248.14,110.077 248.485,108.147 L243.412,103.54 L247.814,96.08 L254.211,98.243 C255.708,96.975 257.42,95.983 259.265,95.315 L260.589,88.62 L269.392,88.62 L270.716,95.241 C272.547,95.928 274.249,96.918 275.751,98.169 L282.167,96.08 L286.568,103.54 L281.496,108.016 C281.84,109.947 281.84,111.923 281.496,113.853 L286.568,118.46 Z" />
            <path d="M264.99,122.19 C258.81,122.19 253.8,117.18 253.8,111 C253.8,104.82 258.81,99.81 264.99,99.81 C271.17,99.81 276.18,104.82 276.18,111 C276.211,113.977 275.041,116.841 272.936,118.946 C270.831,121.051 267.967,122.22 264.99,122.19 Z M264.99,103.54 C262.998,103.494 261.073,104.265 259.664,105.674 C258.255,107.083 257.484,109.008 257.53,111 C257.484,112.992 258.255,114.917 259.664,116.326 C261.073,117.735 262.998,118.506 264.99,118.46 C266.983,118.506 268.907,117.735 270.316,116.326 C271.726,114.917 272.497,112.992 272.45,111 C272.497,109.008 271.726,107.083 270.316,105.674 C268.907,104.265 266.983,103.494 264.99,103.54 Z" />
        </g>
        <g id="Regular-S" transform="translate(0,0)">
            <path d="M485.505,112.417 C485.505,111.951 485.505,111.485 485.505,111 C485.505,110.515 485.505,110.049 485.505,109.564 L489.086,106.431 C490.449,105.23 490.748,103.221 489.795,101.675 L485.393,94.215 C484.728,93.062 483.498,92.351 482.167,92.35 C481.762,92.347 481.359,92.41 480.973,92.536 L476.441,94.066 C475.659,93.546 474.843,93.079 473.998,92.667 L473.047,87.967 C472.695,86.195 471.124,84.93 469.317,84.965 L460.589,84.965 C458.782,84.93 457.211,86.195 456.859,87.967 L455.908,92.667 C455.057,93.078 454.235,93.546 453.446,94.066 L449.007,92.462 C448.618,92.36 448.215,92.323 447.814,92.35 C446.482,92.351 445.253,93.062 444.587,94.215 L440.186,101.675 C439.288,103.217 439.608,105.18 440.95,106.356 L444.475,109.583 C444.475,110.049 444.475,110.515 444.475,111 C444.475,111.485 444.475,111.951 444.475,112.436 L440.95,115.569 C439.569,116.755 439.246,118.766 440.186,120.325 L444.587,127.785 C445.253,128.938 446.482,129.649 447.814,129.65 C448.219,129.653 448.622,129.59 449.007,129.464 L453.539,127.934 C454.322,128.454 455.138,128.921 455.982,129.333 L456.934,134.033 C457.286,135.805 458.857,137.07 460.664,137.035 L469.466,137.035 C471.273,137.07 472.844,135.805 473.196,134.033 L474.148,129.333 C474.998,128.922 475.82,128.454 476.609,127.934 L481.123,129.464 C481.508,129.59 481.911,129.653 482.316,129.65 C483.647,129.649 484.877,128.938 485.543,127.785 L489.795,120.325 C490.693,118.783 490.372,116.82 489.03,115.644 Z M482.167,125.92 L475.77,123.757 C474.273,125.025 472.561,126.017 470.716,126.685 L469.392,133.38 L460.589,133.38 L459.265,126.759 C457.434,126.072 455.732,125.082 454.229,123.831 L447.814,125.92 L443.412,118.46 L448.485,113.984 C448.14,112.053 448.14,110.077 448.485,108.147 L443.412,103.54 L447.814,96.08 L454.211,98.243 C455.708,96.975 457.42,95.983 459.265,95.315 L460.589,88.62 L469.392,88.62 L470.716,95.241 C472.547,95.928 474.249,96.918 475.751,98.169 L482.167,96.08 L486.568,103.54 L481.496,108.016 C481.84,109.947 481.84,111.923 481.496,113.853 L486.568,118.46 Z" />
            <path d="M464.99,122.19 C458.81,122.19 453.8,117.18 453.8,111 C453.8,104.82 458.81,99.81 464.99,99.81 C471.17,99.81 476.18,104.82 476.18,111 C476.211,113.977 475.041,116.841 472.936,118.946 C470.831,121.051 467.967,122.22 464.99,122.19 Z M464.99,103.54 C462.998,103.494 461.073,104.265 459.664,105.674 C458.255,107.083 457.484,109.008 457.53,111 C457.484,112.992 458.255,114.917 459.664,116.326 C461.073,117.735 462.998,118.506 464.99,118.46 C466.983,118.506 468.907,117.735 470.316,116.326 C471.726,114.917 472.497,112.992 472.45,111 C472.497,109.008 471.726,107.083 470.316,105.674 C468.907,104.265 466.983,103.494 464.99,103.54 Z" />
        </g>
        <g id="Black-S" transform="translate(0,0)">
            <path d="M685.505,112.417 C685.505,111.951 685.505,111.485 685.505,111 C685.505,110.515 685.505,110.049 685.505,109.564 L689.086,106.431 C690.449,105.23 690.748,103.221 689.795,101.675 L685.393,94.215 C684.728,93.062 683.498,92.351 682.167,92.35 C681.762,92.347 681.359,92.41 680.973,92.536 L676.441,94.066 C675.659,93.546 674.843,93.079 673.998,92.667 L673.047,87.967 C672.695,86.195 671.124,84.93 669.317,84.965 L660.589,84.965 C658.782,84.93 657.211,86.195 656.859,87.967 L655.908,92.667 C655.057,93.078 654.235,93.546 653.446,94.066 L649.007,92.462 C648.618,92.36 648.215,92.323 647.814,92.35 C646.482,92.351 645.253,93.062 644.587,94.215 L640.186,101.675 C639.288,103.217 639.609,105.18 640.95,106.356 L644.475,109.583 C644.475,110.049 644.475,110.515 644.475,111 C644.475,111.485 644.475,111.951 644.475,112.436 L640.95,115.569 C639.569,116.755 639.246,118.766 640.186,120.325 L644.587,127.785 C645.253,128.938 646.482,129.649 647.814,129.65 C648.219,129.653 648.622,129.59 649.007,129.464 L653.539,127.934 C654.322,128.454 655.138,128.921 655.982,129.333 L656.934,134.033 C657.286,135.805 658.857,137.07 660.664,137.035 L669.466,137.035 C671.273,137.07 672.844,135.805 673.196,134.033 L674.148,129.333 C674.998,128.922 675.82,128.454 676.609,127.934 L681.123,129.464 C681.508,129.59 681.911,129.653 682.316,129.65 C683.647,129.649 684.877,128.938 685.543,127.785 L689.795,120.325 C690.693,118.783 690.372,116.82 689.03,115.644 Z M682.167,125.92 L675.77,123.757 C674.273,125.025 672.561,126.017 670.716,126.685 L669.392,133.38 L660.589,133.38 L659.265,126.759 C657.434,126.072 655.732,125.082 654.229,123.831 L647.814,125.92 L643.412,118.46 L648.485,113.984 C648.14,112.053 648.14,110.077 648.485,108.147 L643.412,103.54 L647.814,96.08 L654.211,98.243 C655.708,96.975 657.42,95.983 659.265,95.315 L660.589,88.62 L669.392,88.62 L670.716,95.241 C672.547,95.928 674.249,96.918 675.751,98.169 L682.167,96.08 L686.568,103.54 L681.496,108.016 C681.84,109.947 681.84,111.923 681.496,113.853 L686.568,118.46 Z" />
            <path d="M664.99,122.19 C658.81,122.19 653.8,117.18 653.8,111 C653.8,104.82 658.81,99.81 664.99,99.81 C671.17,99.81 676.18,104.82 676.18,111 C676.211,113.977 675.041,116.841 672.936,118.946 C670.831,121.051 667.967,122.22 664.99,122.19 Z M664.99,103.54 C662.998,103.494 661.073,104.265 659.664,105.674 C658.255,107.083 657.484,109.008 657.53,111 C657.484,112.992 658.255,114.917 659.664,116.326 C661.073,117.735 662.998,118.506 664.99,118.46 C666.983,118.506 668.907,117.735 670.316,116.326 C671.726,114.917 672.497,112.992 672.45,111 C672.497,109.008 671.726,107.083 670.316,105.674 C668.907,104.265 666.983,103.494 664.99,103.54 Z" />
        </g>
    </g>
</svg>