<?xml version="1.0" encoding="UTF-8"?>
<svg height="600" width="800" xmlns="http://www.w3.org/2000/svg" xmlns:xlink="http://www.w3.org/1999/xlink">
    <style>
        .cls-1 { fill: none }
    </style>
    <g id="Notes" font-family="LucidaGrande, 'Lucida Grande', sans-serif" font-size="13">
        <rect fill="white" height="600.0" width="800.0" x="0.0" y="0.0" />
        <g font-size="13">
            <text x="18.0" y="176.0">Small</text>
            <text x="18.0" y="376.0">Medium</text>
            <text x="18.0" y="576.0">Large</text>
        </g>
        <g font-size="9">
            <text x="250.0" y="30.0">Ultralight</text>
            <text x="450.0" y="30.0">Regular</text>
            <text x="650.0" y="30.0">Black</text>
            <text id="template-version" fill="#505050" text-anchor="end" x="785.0" y="575.0">Template v.3.0</text>
            <a href="https://github.com/swhitty/SwiftDraw">
                <text fill="#505050" text-anchor="end" x="785.0" y="590.0">https://github.com/swhitty/SwiftDraw</text>
            </a>
        </g>
    </g>
    <g id="Guides" stroke="rgb(39, 170, 225)" stroke-width="0.5">
        <path id="Capline-S" d="M18,76 l800,0" />
        <path id="H-reference" d="M85,145.755 L87.685,145.755 L113.369,79.287 L114.052,79.287 L114.052,76 L112.148,76 L85,145.755 Z M95.693,121.536 L130.996,121.536 L130.263,119.313 L96.474,119.313 L95.693,121.536 Z M139.15,145.755 L141.787,145.755 L114.638,76 L113.466,76 L113.466,79.287 L139.15,145.755 Z" stroke="none" transform="translate(0,0)" />
        <path id="Baseline-S" d="M18,146 l800,0" />
        <path id="left-margin-Ultralight-S" d="M221,56 l0,110" />
        <path id="right-margin-Ultralight-S" d="M309,56 l0,110" />
        <path id="left-margin-Regular-S" d="M421,56 l0,110" />
        <path id="right-margin-Regular-S" d="M509,56 l0,110" />
        <path id="left-margin-Black-S" d="M621,56 l0,110" />
        <path id="right-margin-Black-S" d="M709,56 l0,110" />
        <path id="Capline-M" d="M18,276 l800,0" />
        <path id="Baseline-M" d="M18,346 l800,0" />
        <path id="Capline-L" d="M18,476 l800,0" />
        <path id="Baseline-L" d="M18,546 l800,0" />
    </g>
    <g id="Symbols">
        <g id="Ultralight-S" transform="translate(0,0)">
            <path d="M240.13,97.609 C240.13,94.439 242.7,91.87 245.87,91.87 C249.039,91.87 251.609,94.439 251.609,97.609 C251.609,100.778 249.039,103.348 245.87,103.348 C242.7,103.348 240.13,100.778 240.13,97.609 Z" />
            <path d="M240.13,124.391 C240.13,121.222 242.7,118.652 245.87,118.652 C249.039,118.652 251.609,121.222 251.609,124.391 C251.609,127.561 249.039,130.13 245.87,130.13 C242.7,130.13 240.13,127.561 240.13,124.391 Z" />
            <path d="M289.87,122.478 L289.87,126.304 L263.087,126.304 L263.087,122.478 Z" />
            <path d="M289.87,95.696 L289.87,99.522 L263.087,99.522 L263.087,95.696 Z" />
        </g>
        <g id="Regular-S" transform="translate(0,0)">
            <path d="M440.13,97.609 C440.13,94.439 442.7,91.87 445.87,91.87 C449.039,91.87 451.609,94.439 451.609,97.609 C451.609,100.778 449.039,103.348 445.87,103.348 C442.7,103.348 440.13,100.778 440.13,97.609 Z" />
            <path d="M440.13,124.391 C440.13,121.222 442.7,118.652 445.87,118.652 C449.039,118.652 451.609,121.222 451.609,124.391 C451.609,127.561 449.039,130.13 445.87,130.13 C442.7,130.13 440.13,127.561 440.13,124.391 Z" />
            <path d="M489.87,122.478 L489.87,126.304 L463.087,126.304 L463.087,122.478 Z" />
            <path d="M489.87,95.696 L489.87,99.522 L463.087,99.522 L463.087,95.696 Z" />
        </g>
        <g id="Black-S" transform="translate(0,0)">
            <path d="M640.13,97.609 C640.13,94.439 642.7,91.87 645.87,91.87 C649.039,91.87 651.609,94.439 651.609,97.609 C651.609,100.778 649.039,103.348 645.87,103.348 C642.7,103.348 640.13,100.778 640.13,97.609 Z" />
            <path d="M640.13,124.391 C640.13,121.222 642.7,118.652 645.87,118.652 C649.039,118.652 651.609,121.222 651.609,124.391 C651.609,127.561 649.039,130.13 645.87,130.13 C642.7,130.13 640.13,127.561 640.13,124.391 Z" />
            <path d="M689.87,122.478 L689.87,126.304 L663.087,126.304 L663.087,122.478 Z" />
            <path d="M689.87,95.696 L689.87,99.522 L663.087,99.522 L663.087,95.696 Z" />
        </g>
    </g>
</svg>