<?xml version="1.0" encoding="UTF-8"?>
<svg height="600" width="800" xmlns="http://www.w3.org/2000/svg" xmlns:xlink="http://www.w3.org/1999/xlink">
    <style>
        .cls-1 { fill: none }
    </style>
    <g id="Notes" font-family="LucidaGrande, 'Lucida Grande', sans-serif" font-size="13">
        <rect fill="white" height="600.0" width="800.0" x="0.0" y="0.0" />
        <g font-size="13">
            <text x="18.0" y="176.0">Small</text>
            <text x="18.0" y="376.0">Medium</text>
            <text x="18.0" y="576.0">Large</text>
        </g>
        <g font-size="9">
            <text x="250.0" y="30.0">Ultralight</text>
            <text x="450.0" y="30.0">Regular</text>
            <text x="650.0" y="30.0">Black</text>
            <text id="template-version" fill="#505050" text-anchor="end" x="785.0" y="575.0">Template v.3.0</text>
            <a href="https://github.com/swhitty/SwiftDraw">
                <text fill="#505050" text-anchor="end" x="785.0" y="590.0">https://github.com/swhitty/SwiftDraw</text>
            </a>
        </g>
    </g>
    <g id="Guides" stroke="rgb(39, 170, 225)" stroke-width="0.5">
        <path id="Capline-S" d="M18,76 l800,0" />
        <path id="H-reference" d="M85,145.755 L87.685,145.755 L113.369,79.287 L114.052,79.287 L114.052,76 L112.148,76 L85,145.755 Z M95.693,121.536 L130.996,121.536 L130.263,119.313 L96.474,119.313 L95.693,121.536 Z M139.15,145.755 L141.787,145.755 L114.638,76 L113.466,76 L113.466,79.287 L139.15,145.755 Z" stroke="none" transform="translate(0,0)" />
        <path id="Baseline-S" d="M18,146 l800,0" />
        <path id="left-margin-Ultralight-S" d="M221,56 l0,110" />
        <path id="right-margin-Ultralight-S" d="M309,56 l0,110" />
        <path id="left-margin-Regular-S" d="M421,56 l0,110" />
        <path id="right-margin-Regular-S" d="M509,56 l0,110" />
        <path id="left-margin-Black-S" d="M621,56 l0,110" />
        <path id="right-margin-Black-S" d="M709,56 l0,110" />
        <path id="Capline-M" d="M18,276 l800,0" />
        <path id="Baseline-M" d="M18,346 l800,0" />
        <path id="Capline-L" d="M18,476 l800,0" />
        <path id="Baseline-L" d="M18,546 l800,0" />
    </g>
    <g id="Symbols">
        <g id="Ultralight-S" transform="translate(0,0)">
            <path d="M287,85.333 L265,85.333 C262.976,85.335 261.335,86.976 261.333,89 L261.333,107.333 L243,107.333 C240.976,107.335 239.335,108.976 239.333,111 L239.333,136.667 L290.667,136.667 L290.667,89 C290.664,86.976 289.024,85.336 287,85.333 Z M252.167,133 L252.167,120.167 L259.5,120.167 L259.5,133 Z M287,133 L263.167,133 L263.167,118.333 C263.167,117.847 262.974,117.381 262.63,117.037 C262.286,116.693 261.82,116.5 261.333,116.5 L250.333,116.5 C249.847,116.5 249.381,116.693 249.037,117.037 C248.693,117.381 248.5,117.847 248.5,118.333 L248.5,133 L243,133 L243,111 L265,111 L265,89 L287,89 Z" />
            <path d="M272.333,96.333 L272.333,100 L268.667,100 L268.667,96.333 Z" />
            <path d="M283.333,96.333 L283.333,100 L279.667,100 L279.667,96.333 Z" />
            <path d="M272.333,107.333 L272.333,111 L268.667,111 L268.667,107.333 Z" />
            <path d="M283.333,107.333 L283.333,111 L279.667,111 L279.667,107.333 Z" />
            <path d="M272.333,118.333 L272.333,121.999 L268.667,121.999 L268.667,118.333 Z" />
            <path d="M283.333,118.333 L283.333,121.999 L279.667,121.999 L279.667,118.333 Z" />
        </g>
        <g id="Regular-S" transform="translate(0,0)">
            <path d="M487,85.333 L465,85.333 C462.976,85.335 461.335,86.976 461.333,89 L461.333,107.333 L443,107.333 C440.976,107.335 439.335,108.976 439.333,111 L439.333,136.667 L490.667,136.667 L490.667,89 C490.664,86.976 489.024,85.336 487,85.333 Z M452.167,133 L452.167,120.167 L459.5,120.167 L459.5,133 Z M487,133 L463.167,133 L463.167,118.333 C463.167,117.847 462.974,117.381 462.63,117.037 C462.286,116.693 461.82,116.5 461.333,116.5 L450.333,116.5 C449.847,116.5 449.381,116.693 449.037,117.037 C448.693,117.381 448.5,117.847 448.5,118.333 L448.5,133 L443,133 L443,111 L465,111 L465,89 L487,89 Z" />
            <path d="M472.333,96.333 L472.333,100 L468.667,100 L468.667,96.333 Z" />
            <path d="M483.333,96.333 L483.333,100 L479.667,100 L479.667,96.333 Z" />
            <path d="M472.333,107.333 L472.333,111 L468.667,111 L468.667,107.333 Z" />
            <path d="M483.333,107.333 L483.333,111 L479.667,111 L479.667,107.333 Z" />
            <path d="M472.333,118.333 L472.333,121.999 L468.667,121.999 L468.667,118.333 Z" />
            <path d="M483.333,118.333 L483.333,121.999 L479.667,121.999 L479.667,118.333 Z" />
        </g>
        <g id="Black-S" transform="translate(0,0)">
            <path d="M687,85.333 L665,85.333 C662.976,85.335 661.335,86.976 661.333,89 L661.333,107.333 L643,107.333 C640.976,107.335 639.335,108.976 639.333,111 L639.333,136.667 L690.667,136.667 L690.667,89 C690.664,86.976 689.024,85.336 687,85.333 Z M652.167,133 L652.167,120.167 L659.5,120.167 L659.5,133 Z M687,133 L663.167,133 L663.167,118.333 C663.167,117.847 662.974,117.381 662.63,117.037 C662.286,116.693 661.82,116.5 661.333,116.5 L650.333,116.5 C649.847,116.5 649.381,116.693 649.037,117.037 C648.693,117.381 648.5,117.847 648.5,118.333 L648.5,133 L643,133 L643,111 L665,111 L665,89 L687,89 Z" />
            <path d="M672.333,96.333 L672.333,100 L668.667,100 L668.667,96.333 Z" />
            <path d="M683.333,96.333 L683.333,100 L679.667,100 L679.667,96.333 Z" />
            <path d="M672.333,107.333 L672.333,111 L668.667,111 L668.667,107.333 Z" />
            <path d="M683.333,107.333 L683.333,111 L679.667,111 L679.667,107.333 Z" />
            <path d="M672.333,118.333 L672.333,121.999 L668.667,121.999 L668.667,118.333 Z" />
            <path d="M683.333,118.333 L683.333,121.999 L679.667,121.999 L679.667,118.333 Z" />
        </g>
    </g>
</svg>