<?xml version="1.0" encoding="UTF-8"?>
<svg height="600" width="800" xmlns="http://www.w3.org/2000/svg" xmlns:xlink="http://www.w3.org/1999/xlink">
    <style>
        .st0 { fill: none }
        .st1 { fill-opacity: 0; opacity: 0 }
    </style>
    <g id="Notes" font-family="LucidaGrande, 'Lucida Grande', sans-serif" font-size="13">
        <rect fill="white" height="600.0" width="800.0" x="0.0" y="0.0" />
        <g font-size="13">
            <text x="18.0" y="176.0">Small</text>
            <text x="18.0" y="376.0">Medium</text>
            <text x="18.0" y="576.0">Large</text>
        </g>
        <g font-size="9">
            <text x="250.0" y="30.0">Ultralight</text>
            <text x="450.0" y="30.0">Regular</text>
            <text x="650.0" y="30.0">Black</text>
            <text id="template-version" fill="#505050" text-anchor="end" x="785.0" y="575.0">Template v.3.0</text>
            <a href="https://github.com/swhitty/SwiftDraw">
                <text fill="#505050" text-anchor="end" x="785.0" y="590.0">https://github.com/swhitty/SwiftDraw</text>
            </a>
        </g>
    </g>
    <g id="Guides" stroke="rgb(39, 170, 225)" stroke-width="0.5">
        <path id="Capline-S" d="M18,76 l800,0" />
        <path id="H-reference" d="M85,145.755 L87.685,145.755 L113.369,79.287 L114.052,79.287 L114.052,76 L112.148,76 L85,145.755 Z M95.693,121.536 L130.996,121.536 L130.263,119.313 L96.474,119.313 L95.693,121.536 Z M139.15,145.755 L141.787,145.755 L114.638,76 L113.466,76 L113.466,79.287 L139.15,145.755 Z" stroke="none" transform="translate(0,0)" />
        <path id="Baseline-S" d="M18,146 l800,0" />
        <path id="left-margin-Ultralight-S" d="M221,56 l0,110" />
        <path id="right-margin-Ultralight-S" d="M309,56 l0,110" />
        <path id="left-margin-Regular-S" d="M421,56 l0,110" />
        <path id="right-margin-Regular-S" d="M509,56 l0,110" />
        <path id="left-margin-Black-S" d="M621,56 l0,110" />
        <path id="right-margin-Black-S" d="M709,56 l0,110" />
        <path id="Capline-M" d="M18,276 l800,0" />
        <path id="Baseline-M" d="M18,346 l800,0" />
        <path id="Capline-L" d="M18,476 l800,0" />
        <path id="Baseline-L" d="M18,546 l800,0" />
    </g>
    <g id="Symbols">
        <g id="Ultralight-S" transform="translate(0,0)">
            <path d="M265,85.333 C250.883,85.333 239.333,96.883 239.333,111 C239.333,125.117 250.883,136.667 265,136.667 C279.117,136.667 290.667,125.117 290.667,111 C290.667,96.883 279.117,85.333 265,85.333 Z M262.983,96.333 L267.017,96.333 L267.017,116.5 L262.983,116.5 L262.983,96.333 Z M265,127.5 C263.533,127.5 262.25,126.217 262.25,124.75 C262.25,123.283 263.533,122 265,122 C266.467,122 267.75,123.283 267.75,124.75 C267.75,126.217 266.467,127.5 265,127.5 Z" />
        </g>
        <g id="Regular-S" transform="translate(0,0)">
            <path d="M465,85.333 C450.883,85.333 439.333,96.883 439.333,111 C439.333,125.117 450.883,136.667 465,136.667 C479.117,136.667 490.667,125.117 490.667,111 C490.667,96.883 479.117,85.333 465,85.333 Z M462.983,96.333 L467.017,96.333 L467.017,116.5 L462.983,116.5 L462.983,96.333 Z M465,127.5 C463.533,127.5 462.25,126.217 462.25,124.75 C462.25,123.283 463.533,122 465,122 C466.467,122 467.75,123.283 467.75,124.75 C467.75,126.217 466.467,127.5 465,127.5 Z" />
        </g>
        <g id="Black-S" transform="translate(0,0)">
            <path d="M665,85.333 C650.883,85.333 639.333,96.883 639.333,111 C639.333,125.117 650.883,136.667 665,136.667 C679.117,136.667 690.667,125.117 690.667,111 C690.667,96.883 679.117,85.333 665,85.333 Z M662.983,96.333 L667.017,96.333 L667.017,116.5 L662.983,116.5 L662.983,96.333 Z M665,127.5 C663.533,127.5 662.25,126.217 662.25,124.75 C662.25,123.283 663.533,122 665,122 C666.467,122 667.75,123.283 667.75,124.75 C667.75,126.217 666.467,127.5 665,127.5 Z" />
        </g>
    </g>
</svg>