<?xml version="1.0" encoding="UTF-8"?>
<svg height="600" width="800" xmlns="http://www.w3.org/2000/svg" xmlns:xlink="http://www.w3.org/1999/xlink">
    <style>
        .cls-1 { fill: none }
    </style>
    <g id="Notes" font-family="LucidaGrande, 'Lucida Grande', sans-serif" font-size="13">
        <rect fill="white" height="600.0" width="800.0" x="0.0" y="0.0" />
        <g font-size="13">
            <text x="18.0" y="176.0">Small</text>
            <text x="18.0" y="376.0">Medium</text>
            <text x="18.0" y="576.0">Large</text>
        </g>
        <g font-size="9">
            <text x="250.0" y="30.0">Ultralight</text>
            <text x="450.0" y="30.0">Regular</text>
            <text x="650.0" y="30.0">Black</text>
            <text id="template-version" fill="#505050" text-anchor="end" x="785.0" y="575.0">Template v.3.0</text>
            <a href="https://github.com/swhitty/SwiftDraw">
                <text fill="#505050" text-anchor="end" x="785.0" y="590.0">https://github.com/swhitty/SwiftDraw</text>
            </a>
        </g>
    </g>
    <g id="Guides" stroke="rgb(39, 170, 225)" stroke-width="0.5">
        <path id="Capline-S" d="M18,76 l800,0" />
        <path id="H-reference" d="M85,145.755 L87.685,145.755 L113.369,79.287 L114.052,79.287 L114.052,76 L112.148,76 L85,145.755 Z M95.693,121.536 L130.996,121.536 L130.263,119.313 L96.474,119.313 L95.693,121.536 Z M139.15,145.755 L141.787,145.755 L114.638,76 L113.466,76 L113.466,79.287 L139.15,145.755 Z" stroke="none" transform="translate(0,0)" />
        <path id="Baseline-S" d="M18,146 l800,0" />
        <path id="left-margin-Ultralight-S" d="M221,56 l0,110" />
        <path id="right-margin-Ultralight-S" d="M309,56 l0,110" />
        <path id="left-margin-Regular-S" d="M421,56 l0,110" />
        <path id="right-margin-Regular-S" d="M509,56 l0,110" />
        <path id="left-margin-Black-S" d="M621,56 l0,110" />
        <path id="right-margin-Black-S" d="M709,56 l0,110" />
        <path id="Capline-M" d="M18,276 l800,0" />
        <path id="Baseline-M" d="M18,346 l800,0" />
        <path id="Capline-L" d="M18,476 l800,0" />
        <path id="Baseline-L" d="M18,546 l800,0" />
    </g>
    <g id="Symbols">
        <g id="Ultralight-S" transform="translate(0,0)">
            <path d="M258.446,137.212 L252.829,137.212 L252.829,133.468 L258.446,133.468 L258.446,110.188 L251.866,106.24 L253.793,103.029 L260.373,106.977 C261.498,107.657 262.187,108.874 262.191,110.188 L262.191,133.468 C262.188,135.534 260.513,137.21 258.446,137.212 Z" />
            <path d="M277.169,137.212 L271.552,137.212 C269.485,137.21 267.81,135.535 267.807,133.468 L267.807,112.872 L279.041,112.872 C281.157,112.872 283.173,111.978 284.593,110.41 C286.013,108.842 286.704,106.747 286.495,104.642 C285.976,100.72 282.594,97.815 278.639,97.894 L275.674,97.894 L275.343,96.435 C274.271,91.708 269.737,88.532 264.063,88.532 C259.688,88.546 255.716,91.091 253.875,95.059 L253.297,96.308 L251.681,96.094 C251.442,96.053 251.2,96.029 250.957,96.022 C246.821,96.022 243.468,99.375 243.468,103.511 C243.468,107.647 246.821,111 250.957,111 L250.957,114.745 C244.753,114.745 239.723,109.715 239.723,103.511 C239.723,97.307 244.753,92.277 250.957,92.277 C251.006,92.277 251.055,92.277 251.104,92.279 C253.784,87.655 258.719,84.803 264.063,84.788 C270.951,84.788 276.593,88.491 278.576,94.149 L278.639,94.149 C284.519,94.084 289.508,98.449 290.224,104.286 C290.532,107.441 289.494,110.58 287.364,112.929 C285.234,115.277 282.212,116.617 279.041,116.617 L271.552,116.617 L271.552,133.468 L277.169,133.468 Z" />
        </g>
        <g id="Regular-S" transform="translate(0,0)">
            <path d="M458.446,137.212 L452.829,137.212 L452.829,133.468 L458.446,133.468 L458.446,110.188 L451.866,106.24 L453.793,103.029 L460.373,106.977 C461.498,107.657 462.187,108.874 462.191,110.188 L462.191,133.468 C462.188,135.534 460.513,137.21 458.446,137.212 Z" />
            <path d="M477.169,137.212 L471.552,137.212 C469.485,137.21 467.81,135.535 467.807,133.468 L467.807,112.872 L479.041,112.872 C481.156,112.872 483.173,111.978 484.593,110.41 C486.013,108.842 486.704,106.747 486.495,104.642 C485.976,100.72 482.594,97.815 478.639,97.894 L475.674,97.894 L475.343,96.435 C474.271,91.708 469.737,88.532 464.063,88.532 C459.688,88.546 455.716,91.091 453.875,95.059 L453.297,96.308 L451.681,96.094 C451.442,96.053 451.2,96.029 450.957,96.022 C446.821,96.022 443.468,99.375 443.468,103.511 C443.468,107.647 446.821,111 450.957,111 L450.957,114.745 C444.753,114.745 439.723,109.715 439.723,103.511 C439.723,97.307 444.753,92.277 450.957,92.277 C451.006,92.277 451.055,92.277 451.104,92.279 C453.784,87.655 458.719,84.803 464.063,84.788 C470.951,84.788 476.593,88.491 478.576,94.149 L478.639,94.149 C484.519,94.084 489.508,98.449 490.223,104.286 C490.532,107.441 489.494,110.58 487.364,112.929 C485.234,115.277 482.212,116.617 479.041,116.617 L471.552,116.617 L471.552,133.468 L477.169,133.468 Z" />
        </g>
        <g id="Black-S" transform="translate(0,0)">
            <path d="M658.446,137.212 L652.829,137.212 L652.829,133.468 L658.446,133.468 L658.446,110.188 L651.866,106.24 L653.793,103.029 L660.373,106.977 C661.498,107.657 662.187,108.874 662.191,110.188 L662.191,133.468 C662.188,135.534 660.513,137.21 658.446,137.212 Z" />
            <path d="M677.169,137.212 L671.552,137.212 C669.485,137.21 667.81,135.535 667.807,133.468 L667.807,112.872 L679.041,112.872 C681.157,112.872 683.173,111.978 684.593,110.41 C686.013,108.842 686.704,106.747 686.495,104.642 C685.976,100.72 682.594,97.815 678.639,97.894 L675.674,97.894 L675.343,96.435 C674.271,91.708 669.737,88.532 664.063,88.532 C659.688,88.546 655.716,91.091 653.875,95.059 L653.297,96.308 L651.681,96.094 C651.442,96.053 651.2,96.029 650.957,96.022 C646.821,96.022 643.468,99.375 643.468,103.511 C643.468,107.647 646.821,111 650.957,111 L650.957,114.745 C644.753,114.745 639.723,109.715 639.723,103.511 C639.723,97.307 644.753,92.277 650.957,92.277 C651.006,92.277 651.055,92.277 651.104,92.279 C653.784,87.655 658.719,84.803 664.063,84.788 C670.951,84.788 676.593,88.491 678.576,94.149 L678.639,94.149 C684.519,94.084 689.508,98.449 690.224,104.286 C690.532,107.441 689.494,110.58 687.364,112.929 C685.234,115.277 682.212,116.617 679.041,116.617 L671.552,116.617 L671.552,133.468 L677.169,133.468 Z" />
        </g>
    </g>
</svg>