<?xml version="1.0" encoding="UTF-8"?>
<svg height="600" width="800" xmlns="http://www.w3.org/2000/svg" xmlns:xlink="http://www.w3.org/1999/xlink">
    <style>
        
    </style>
    <g id="Notes" font-family="LucidaGrande, 'Lucida Grande', sans-serif" font-size="13">
        <rect fill="white" height="600.0" width="800.0" x="0.0" y="0.0" />
        <g font-size="13">
            <text x="18.0" y="176.0">Small</text>
            <text x="18.0" y="376.0">Medium</text>
            <text x="18.0" y="576.0">Large</text>
        </g>
        <g font-size="9">
            <text x="250.0" y="30.0">Ultralight</text>
            <text x="450.0" y="30.0">Regular</text>
            <text x="650.0" y="30.0">Black</text>
            <text id="template-version" fill="#505050" text-anchor="end" x="785.0" y="575.0">Template v.3.0</text>
            <a href="https://github.com/swhitty/SwiftDraw">
                <text fill="#505050" text-anchor="end" x="785.0" y="590.0">https://github.com/swhitty/SwiftDraw</text>
            </a>
        </g>
    </g>
    <g id="Guides" stroke="rgb(39, 170, 225)" stroke-width="0.5">
        <path id="Capline-S" d="M18,76 l800,0" />
        <path id="H-reference" d="M85,145.755 L87.685,145.755 L113.369,79.287 L114.052,79.287 L114.052,76 L112.148,76 L85,145.755 Z M95.693,121.536 L130.996,121.536 L130.263,119.313 L96.474,119.313 L95.693,121.536 Z M139.15,145.755 L141.787,145.755 L114.638,76 L113.466,76 L113.466,79.287 L139.15,145.755 Z" stroke="none" transform="translate(0,0)" />
        <path id="Baseline-S" d="M18,146 l800,0" />
        <path id="left-margin-Ultralight-S" d="M221,56 l0,110" />
        <path id="right-margin-Ultralight-S" d="M309,56 l0,110" />
        <path id="left-margin-Regular-S" d="M421,56 l0,110" />
        <path id="right-margin-Regular-S" d="M509,56 l0,110" />
        <path id="left-margin-Black-S" d="M621,56 l0,110" />
        <path id="right-margin-Black-S" d="M709,56 l0,110" />
        <path id="Capline-M" d="M18,276 l800,0" />
        <path id="Baseline-M" d="M18,346 l800,0" />
        <path id="Capline-L" d="M18,476 l800,0" />
        <path id="Baseline-L" d="M18,546 l800,0" />
    </g>
    <g id="Symbols">
        <g id="Ultralight-S" transform="translate(0,0)">
            <path d="M279.946,112.64 C279.485,111.545 278.962,110.304 278.452,108.772 C277.115,104.765 281.387,100.392 281.427,100.35 L279.034,97.957 C278.796,98.195 273.241,103.842 275.241,109.843 C275.793,111.498 276.343,112.803 276.828,113.955 C277.957,116.187 278.543,118.653 278.538,121.154 C278.134,125.27 275.363,128.772 271.449,130.111 C272.68,125.286 271.334,120.168 267.889,116.573 L266.121,114.805 L265.137,117.102 C262.03,124.352 258.332,127.517 256.157,128.837 C253.449,127.178 251.702,124.32 251.462,121.154 C251.578,119.024 252.112,116.937 253.033,115.013 C254.126,112.693 254.742,110.178 254.846,107.615 L254.846,104.606 C256.324,105.215 258.231,106.812 258.231,111 L258.231,115.406 L261.181,112.133 C266.447,106.287 265.348,99.326 263.222,94.688 C266.55,95.798 268.684,99.043 268.385,102.538 L271.769,102.538 C271.769,93.168 264.021,90.692 259.923,90.692 L256.538,90.692 L258.568,93.398 C258.801,93.712 263.413,100.045 260.858,106.408 C259.695,103.134 256.628,100.92 253.154,100.846 L251.462,100.846 L251.462,107.615 C251.345,109.746 250.811,111.832 249.89,113.757 C248.797,116.076 248.181,118.592 248.077,121.154 C248.077,127.665 254.547,134.692 265,134.692 C275.453,134.692 281.923,127.665 281.923,121.154 C281.926,118.202 281.25,115.289 279.947,112.64 Z M259.644,130.506 C262.766,127.922 265.287,124.689 267.034,121.031 C268.931,124.094 269.096,127.923 267.469,131.137 C266.651,131.247 265.826,131.304 265,131.308 C263.184,131.32 261.377,131.05 259.644,130.506 Z" />
            <path d="M292.077,83.923 L292.077,138.077 L237.923,138.077 L237.923,83.923 Z" />
        </g>
        <g id="Regular-S" transform="translate(0,0)">
            <path d="M479.946,112.64 C479.485,111.545 478.962,110.304 478.452,108.772 C477.115,104.765 481.387,100.392 481.427,100.35 L479.034,97.957 C478.796,98.195 473.241,103.842 475.241,109.843 C475.793,111.498 476.343,112.803 476.828,113.955 C477.957,116.187 478.543,118.653 478.538,121.154 C478.134,125.27 475.363,128.772 471.449,130.111 C472.68,125.286 471.334,120.168 467.889,116.573 L466.121,114.805 L465.137,117.102 C462.03,124.352 458.332,127.517 456.157,128.837 C453.449,127.178 451.702,124.32 451.462,121.154 C451.578,119.024 452.112,116.937 453.033,115.013 C454.126,112.693 454.742,110.178 454.846,107.615 L454.846,104.606 C456.324,105.215 458.231,106.812 458.231,111 L458.231,115.406 L461.181,112.133 C466.447,106.287 465.348,99.326 463.222,94.688 C466.55,95.798 468.684,99.043 468.385,102.538 L471.769,102.538 C471.769,93.168 464.021,90.692 459.923,90.692 L456.538,90.692 L458.568,93.398 C458.801,93.712 463.413,100.045 460.858,106.408 C459.695,103.134 456.628,100.92 453.154,100.846 L451.462,100.846 L451.462,107.615 C451.345,109.746 450.811,111.832 449.89,113.757 C448.797,116.076 448.181,118.592 448.077,121.154 C448.077,127.665 454.547,134.692 465,134.692 C475.453,134.692 481.923,127.665 481.923,121.154 C481.926,118.202 481.25,115.289 479.947,112.64 Z M459.644,130.506 C462.766,127.922 465.287,124.689 467.034,121.031 C468.931,124.094 469.096,127.923 467.469,131.137 C466.651,131.247 465.826,131.304 465,131.308 C463.184,131.32 461.377,131.05 459.644,130.506 Z" />
            <path d="M492.077,83.923 L492.077,138.077 L437.923,138.077 L437.923,83.923 Z" />
        </g>
        <g id="Black-S" transform="translate(0,0)">
            <path d="M679.946,112.64 C679.485,111.545 678.962,110.304 678.452,108.772 C677.115,104.765 681.387,100.392 681.427,100.35 L679.034,97.957 C678.796,98.195 673.241,103.842 675.241,109.843 C675.793,111.498 676.343,112.803 676.828,113.955 C677.957,116.187 678.543,118.653 678.538,121.154 C678.134,125.27 675.363,128.772 671.449,130.111 C672.68,125.286 671.334,120.168 667.889,116.573 L666.121,114.805 L665.137,117.102 C662.03,124.352 658.332,127.517 656.157,128.837 C653.449,127.178 651.702,124.32 651.462,121.154 C651.578,119.024 652.112,116.937 653.033,115.013 C654.126,112.693 654.742,110.178 654.846,107.615 L654.846,104.606 C656.324,105.215 658.231,106.812 658.231,111 L658.231,115.406 L661.181,112.133 C666.447,106.287 665.348,99.326 663.222,94.688 C666.55,95.798 668.684,99.043 668.385,102.538 L671.769,102.538 C671.769,93.168 664.021,90.692 659.923,90.692 L656.538,90.692 L658.568,93.398 C658.801,93.712 663.413,100.045 660.858,106.408 C659.695,103.134 656.628,100.92 653.154,100.846 L651.462,100.846 L651.462,107.615 C651.345,109.746 650.811,111.832 649.89,113.757 C648.797,116.076 648.181,118.592 648.077,121.154 C648.077,127.665 654.547,134.692 665,134.692 C675.453,134.692 681.923,127.665 681.923,121.154 C681.926,118.202 681.25,115.289 679.947,112.64 Z M659.644,130.506 C662.766,127.922 665.287,124.689 667.034,121.031 C668.931,124.094 669.096,127.923 667.469,131.137 C666.651,131.247 665.826,131.304 665,131.308 C663.184,131.32 661.377,131.05 659.644,130.506 Z" />
            <path d="M692.077,83.923 L692.077,138.077 L637.923,138.077 L637.923,83.923 Z" />
        </g>
    </g>
</svg>