<?xml version="1.0" encoding="UTF-8"?>
<svg height="600" width="800" xmlns="http://www.w3.org/2000/svg" xmlns:xlink="http://www.w3.org/1999/xlink">
    <style>
        .cls-1 { fill: none }
    </style>
    <g id="Notes" font-family="LucidaGrande, 'Lucida Grande', sans-serif" font-size="13">
        <rect fill="white" height="600.0" width="800.0" x="0.0" y="0.0" />
        <g font-size="13">
            <text x="18.0" y="176.0">Small</text>
            <text x="18.0" y="376.0">Medium</text>
            <text x="18.0" y="576.0">Large</text>
        </g>
        <g font-size="9">
            <text x="250.0" y="30.0">Ultralight</text>
            <text x="450.0" y="30.0">Regular</text>
            <text x="650.0" y="30.0">Black</text>
            <text id="template-version" fill="#505050" text-anchor="end" x="785.0" y="575.0">Template v.3.0</text>
            <a href="https://github.com/swhitty/SwiftDraw">
                <text fill="#505050" text-anchor="end" x="785.0" y="590.0">https://github.com/swhitty/SwiftDraw</text>
            </a>
        </g>
    </g>
    <g id="Guides" stroke="rgb(39, 170, 225)" stroke-width="0.5">
        <path id="Capline-S" d="M18,76 l800,0" />
        <path id="H-reference" d="M85,145.755 L87.685,145.755 L113.369,79.287 L114.052,79.287 L114.052,76 L112.148,76 L85,145.755 Z M95.693,121.536 L130.996,121.536 L130.263,119.313 L96.474,119.313 L95.693,121.536 Z M139.15,145.755 L141.787,145.755 L114.638,76 L113.466,76 L113.466,79.287 L139.15,145.755 Z" stroke="none" transform="translate(0,0)" />
        <path id="Baseline-S" d="M18,146 l800,0" />
        <path id="left-margin-Ultralight-S" d="M221,56 l0,110" />
        <path id="right-margin-Ultralight-S" d="M309,56 l0,110" />
        <path id="left-margin-Regular-S" d="M421,56 l0,110" />
        <path id="right-margin-Regular-S" d="M509,56 l0,110" />
        <path id="left-margin-Black-S" d="M621,56 l0,110" />
        <path id="right-margin-Black-S" d="M709,56 l0,110" />
        <path id="Capline-M" d="M18,276 l800,0" />
        <path id="Baseline-M" d="M18,346 l800,0" />
        <path id="Capline-L" d="M18,476 l800,0" />
        <path id="Baseline-L" d="M18,546 l800,0" />
    </g>
    <g id="Symbols">
        <g id="Ultralight-S" transform="translate(0,0)">
            <path d="M287.489,91.444 C287.489,90.407 287.077,89.412 286.343,88.679 C285.61,87.945 284.615,87.533 283.578,87.533 L275.756,87.533 L275.756,83.622 L271.844,83.622 L271.844,87.533 L256.2,87.533 L256.2,83.622 L252.289,83.622 L252.289,87.533 L244.467,87.533 C243.429,87.533 242.435,87.945 241.701,88.679 C240.968,89.412 240.556,90.407 240.556,91.444 L240.556,130.556 C240.556,131.593 240.968,132.588 241.701,133.321 C242.435,134.055 243.429,134.467 244.467,134.467 L252.289,134.467 L252.289,130.556 L244.467,130.556 L244.467,91.444 L252.289,91.444 L252.289,95.356 L256.2,95.356 L256.2,91.444 L271.844,91.444 L271.844,95.356 L275.756,95.356 L275.756,91.444 L283.578,91.444 L283.578,103.178 L287.489,103.178 Z" />
            <path d="M273.8,109.044 L278.785,118.701 L289.444,120.248 L281.622,127.765 L283.578,138.378 L273.8,133.368 L264.022,138.378 L265.978,127.765 L258.156,120.248 L269.107,118.701 L273.8,109.044 Z" />
        </g>
        <g id="Regular-S" transform="translate(0,0)">
            <path d="M487.489,91.444 C487.489,90.407 487.077,89.412 486.343,88.679 C485.61,87.945 484.615,87.533 483.578,87.533 L475.756,87.533 L475.756,83.622 L471.844,83.622 L471.844,87.533 L456.2,87.533 L456.2,83.622 L452.289,83.622 L452.289,87.533 L444.467,87.533 C443.429,87.533 442.435,87.945 441.701,88.679 C440.968,89.412 440.556,90.407 440.556,91.444 L440.556,130.556 C440.556,131.593 440.968,132.588 441.701,133.321 C442.435,134.055 443.429,134.467 444.467,134.467 L452.289,134.467 L452.289,130.556 L444.467,130.556 L444.467,91.444 L452.289,91.444 L452.289,95.356 L456.2,95.356 L456.2,91.444 L471.844,91.444 L471.844,95.356 L475.756,95.356 L475.756,91.444 L483.578,91.444 L483.578,103.178 L487.489,103.178 Z" />
            <path d="M473.8,109.044 L478.785,118.701 L489.444,120.248 L481.622,127.765 L483.578,138.378 L473.8,133.368 L464.022,138.378 L465.978,127.765 L458.156,120.248 L469.107,118.701 L473.8,109.044 Z" />
        </g>
        <g id="Black-S" transform="translate(0,0)">
            <path d="M687.489,91.444 C687.489,90.407 687.077,89.412 686.343,88.679 C685.61,87.945 684.615,87.533 683.578,87.533 L675.756,87.533 L675.756,83.622 L671.844,83.622 L671.844,87.533 L656.2,87.533 L656.2,83.622 L652.289,83.622 L652.289,87.533 L644.467,87.533 C643.429,87.533 642.435,87.945 641.701,88.679 C640.968,89.412 640.556,90.407 640.556,91.444 L640.556,130.556 C640.556,131.593 640.968,132.588 641.701,133.321 C642.435,134.055 643.429,134.467 644.467,134.467 L652.289,134.467 L652.289,130.556 L644.467,130.556 L644.467,91.444 L652.289,91.444 L652.289,95.356 L656.2,95.356 L656.2,91.444 L671.844,91.444 L671.844,95.356 L675.756,95.356 L675.756,91.444 L683.578,91.444 L683.578,103.178 L687.489,103.178 Z" />
            <path d="M673.8,109.044 L678.785,118.701 L689.444,120.248 L681.622,127.765 L683.578,138.378 L673.8,133.368 L664.022,138.378 L665.978,127.765 L658.156,120.248 L669.107,118.701 L673.8,109.044 Z" />
        </g>
    </g>
</svg>