<?xml version="1.0" encoding="UTF-8"?>
<svg height="600" width="800" xmlns="http://www.w3.org/2000/svg" xmlns:xlink="http://www.w3.org/1999/xlink">
    <style>
        
    </style>
    <g id="Notes" font-family="LucidaGrande, 'Lucida Grande', sans-serif" font-size="13">
        <rect fill="white" height="600.0" width="800.0" x="0.0" y="0.0" />
        <g font-size="13">
            <text x="18.0" y="176.0">Small</text>
            <text x="18.0" y="376.0">Medium</text>
            <text x="18.0" y="576.0">Large</text>
        </g>
        <g font-size="9">
            <text x="250.0" y="30.0">Ultralight</text>
            <text x="450.0" y="30.0">Regular</text>
            <text x="650.0" y="30.0">Black</text>
            <text id="template-version" fill="#505050" text-anchor="end" x="785.0" y="575.0">Template v.3.0</text>
            <a href="https://github.com/swhitty/SwiftDraw">
                <text fill="#505050" text-anchor="end" x="785.0" y="590.0">https://github.com/swhitty/SwiftDraw</text>
            </a>
        </g>
    </g>
    <g id="Guides" stroke="rgb(39, 170, 225)" stroke-width="0.5">
        <path id="Capline-S" d="M18,76 l800,0" />
        <path id="H-reference" d="M85,145.755 L87.685,145.755 L113.369,79.287 L114.052,79.287 L114.052,76 L112.148,76 L85,145.755 Z M95.693,121.536 L130.996,121.536 L130.263,119.313 L96.474,119.313 L95.693,121.536 Z M139.15,145.755 L141.787,145.755 L114.638,76 L113.466,76 L113.466,79.287 L139.15,145.755 Z" stroke="none" transform="translate(0,0)" />
        <path id="Baseline-S" d="M18,146 l800,0" />
        <path id="left-margin-Ultralight-S" d="M221,56 l0,110" />
        <path id="right-margin-Ultralight-S" d="M309,56 l0,110" />
        <path id="left-margin-Regular-S" d="M421,56 l0,110" />
        <path id="right-margin-Regular-S" d="M509,56 l0,110" />
        <path id="left-margin-Black-S" d="M621,56 l0,110" />
        <path id="right-margin-Black-S" d="M709,56 l0,110" />
        <path id="Capline-M" d="M18,276 l800,0" />
        <path id="Baseline-M" d="M18,346 l800,0" />
        <path id="Capline-L" d="M18,476 l800,0" />
        <path id="Baseline-L" d="M18,546 l800,0" />
    </g>
    <g id="Symbols">
        <g id="Ultralight-S" transform="translate(0,0)">
            <path d="M265,97.462 C266.402,97.462 267.538,98.598 267.538,100 C267.538,101.402 266.402,102.538 265,102.538 C263.598,102.538 262.462,101.402 262.462,100 C262.462,99.327 262.729,98.681 263.205,98.205 C263.681,97.729 264.327,97.462 265,97.462 Z M271.769,120.942 L266.904,120.942 L266.904,107.404 L259.923,107.404 L259.923,111.212 L263.096,111.212 L263.096,120.942 L258.231,120.942 L258.231,124.75 L271.769,124.75 Z" />
            <path d="M265,87.308 C251.915,87.308 241.308,97.915 241.308,111 C241.308,124.085 251.915,134.692 265,134.692 C278.085,134.692 288.692,124.085 288.692,111 C288.692,104.716 286.196,98.69 281.753,94.247 C277.31,89.804 271.284,87.308 265,87.308 Z M265,97.462 C266.402,97.462 267.538,98.598 267.538,100 C267.538,101.402 266.402,102.538 265,102.538 C263.598,102.538 262.462,101.402 262.462,100 C262.462,99.327 262.729,98.681 263.205,98.205 C263.681,97.729 264.327,97.462 265,97.462 Z M271.769,124.75 L258.231,124.75 L258.231,120.942 L263.096,120.942 L263.096,111.212 L259.923,111.212 L259.923,107.404 L266.904,107.404 L266.904,120.942 L271.769,120.942 Z" />
            <path d="M292.077,83.923 L292.077,138.077 L237.923,138.077 L237.923,83.923 Z" />
        </g>
        <g id="Regular-S" transform="translate(0,0)">
            <path d="M465,97.462 C466.402,97.462 467.538,98.598 467.538,100 C467.538,101.402 466.402,102.538 465,102.538 C463.598,102.538 462.462,101.402 462.462,100 C462.462,99.327 462.729,98.681 463.205,98.205 C463.681,97.729 464.327,97.462 465,97.462 Z M471.769,120.942 L466.904,120.942 L466.904,107.404 L459.923,107.404 L459.923,111.212 L463.096,111.212 L463.096,120.942 L458.231,120.942 L458.231,124.75 L471.769,124.75 Z" />
            <path d="M465,87.308 C451.915,87.308 441.308,97.915 441.308,111 C441.308,124.085 451.915,134.692 465,134.692 C478.085,134.692 488.692,124.085 488.692,111 C488.692,104.716 486.196,98.69 481.753,94.247 C477.31,89.804 471.284,87.308 465,87.308 Z M465,97.462 C466.402,97.462 467.538,98.598 467.538,100 C467.538,101.402 466.402,102.538 465,102.538 C463.598,102.538 462.462,101.402 462.462,100 C462.462,99.327 462.729,98.681 463.205,98.205 C463.681,97.729 464.327,97.462 465,97.462 Z M471.769,124.75 L458.231,124.75 L458.231,120.942 L463.096,120.942 L463.096,111.212 L459.923,111.212 L459.923,107.404 L466.904,107.404 L466.904,120.942 L471.769,120.942 Z" />
            <path d="M492.077,83.923 L492.077,138.077 L437.923,138.077 L437.923,83.923 Z" />
        </g>
        <g id="Black-S" transform="translate(0,0)">
            <path d="M665,97.462 C666.402,97.462 667.538,98.598 667.538,100 C667.538,101.402 666.402,102.538 665,102.538 C663.598,102.538 662.462,101.402 662.462,100 C662.462,99.327 662.729,98.681 663.205,98.205 C663.681,97.729 664.327,97.462 665,97.462 Z M671.769,120.942 L666.904,120.942 L666.904,107.404 L659.923,107.404 L659.923,111.212 L663.096,111.212 L663.096,120.942 L658.231,120.942 L658.231,124.75 L671.769,124.75 Z" />
            <path d="M665,87.308 C651.915,87.308 641.308,97.915 641.308,111 C641.308,124.085 651.915,134.692 665,134.692 C678.085,134.692 688.692,124.085 688.692,111 C688.692,104.716 686.196,98.69 681.753,94.247 C677.31,89.804 671.284,87.308 665,87.308 Z M665,97.462 C666.402,97.462 667.538,98.598 667.538,100 C667.538,101.402 666.402,102.538 665,102.538 C663.598,102.538 662.462,101.402 662.462,100 C662.462,99.327 662.729,98.681 663.205,98.205 C663.681,97.729 664.327,97.462 665,97.462 Z M671.769,124.75 L658.231,124.75 L658.231,120.942 L663.096,120.942 L663.096,111.212 L659.923,111.212 L659.923,107.404 L666.904,107.404 L666.904,120.942 L671.769,120.942 Z" />
            <path d="M692.077,83.923 L692.077,138.077 L637.923,138.077 L637.923,83.923 Z" />
        </g>
    </g>
</svg>