<?xml version="1.0" encoding="UTF-8"?>
<svg height="600" width="800" xmlns="http://www.w3.org/2000/svg" xmlns:xlink="http://www.w3.org/1999/xlink">
    <style>
        
    </style>
    <g id="Notes" font-family="LucidaGrande, 'Lucida Grande', sans-serif" font-size="13">
        <rect fill="white" height="600.0" width="800.0" x="0.0" y="0.0" />
        <g font-size="13">
            <text x="18.0" y="176.0">Small</text>
            <text x="18.0" y="376.0">Medium</text>
            <text x="18.0" y="576.0">Large</text>
        </g>
        <g font-size="9">
            <text x="250.0" y="30.0">Ultralight</text>
            <text x="450.0" y="30.0">Regular</text>
            <text x="650.0" y="30.0">Black</text>
            <text id="template-version" fill="#505050" text-anchor="end" x="785.0" y="575.0">Template v.3.0</text>
            <a href="https://github.com/swhitty/SwiftDraw">
                <text fill="#505050" text-anchor="end" x="785.0" y="590.0">https://github.com/swhitty/SwiftDraw</text>
            </a>
        </g>
    </g>
    <g id="Guides" stroke="rgb(39, 170, 225)" stroke-width="0.5">
        <path id="Capline-S" d="M18,76 l800,0" />
        <path id="H-reference" d="M85,145.755 L87.685,145.755 L113.369,79.287 L114.052,79.287 L114.052,76 L112.148,76 L85,145.755 Z M95.693,121.536 L130.996,121.536 L130.263,119.313 L96.474,119.313 L95.693,121.536 Z M139.15,145.755 L141.787,145.755 L114.638,76 L113.466,76 L113.466,79.287 L139.15,145.755 Z" stroke="none" transform="translate(0,0)" />
        <path id="Baseline-S" d="M18,146 l800,0" />
        <path id="left-margin-Ultralight-S" d="M221,56 l0,110" />
        <path id="right-margin-Ultralight-S" d="M309,56 l0,110" />
        <path id="left-margin-Regular-S" d="M421,56 l0,110" />
        <path id="right-margin-Regular-S" d="M509,56 l0,110" />
        <path id="left-margin-Black-S" d="M621,56 l0,110" />
        <path id="right-margin-Black-S" d="M709,56 l0,110" />
        <path id="Capline-M" d="M18,276 l800,0" />
        <path id="Baseline-M" d="M18,346 l800,0" />
        <path id="Capline-L" d="M18,476 l800,0" />
        <path id="Baseline-L" d="M18,546 l800,0" />
    </g>
    <g id="Symbols">
        <g id="Ultralight-S" transform="translate(0,0)">
            <path d="M258.231,114.385 L258.231,117.769 L251.462,117.769 L251.462,114.385 Z" />
            <path d="M268.385,114.385 L268.385,117.769 L261.615,117.769 L261.615,114.385 Z" />
            <path d="M258.231,107.615 L258.231,111 L251.462,111 L251.462,107.615 Z" />
            <path d="M268.385,121.154 L268.385,124.538 L261.615,124.538 L261.615,121.154 Z" />
            <path d="M278.538,107.615 L278.538,111 L271.769,111 L271.769,107.615 Z" />
            <path d="M278.538,121.154 L278.538,124.538 L271.769,124.538 L271.769,121.154 Z" />
            <path d="M283.615,89 L246.385,89 C244.516,89.002 243.002,90.516 243,92.385 L243,129.615 C243.002,131.484 244.516,132.998 246.385,133 L283.615,133 C285.484,132.998 286.998,131.484 287,129.615 L287,92.385 C286.998,90.516 285.484,89.002 283.616,89 Z M283.615,92.385 L283.615,99.154 L246.385,99.154 L246.385,92.385 Z M246.385,129.615 L246.385,102.538 L283.615,102.538 L283.615,129.615 Z" />
            <path d="M292.077,83.923 L292.077,138.077 L237.923,138.077 L237.923,83.923 Z" />
        </g>
        <g id="Regular-S" transform="translate(0,0)">
            <path d="M458.231,114.385 L458.231,117.769 L451.462,117.769 L451.462,114.385 Z" />
            <path d="M468.385,114.385 L468.385,117.769 L461.615,117.769 L461.615,114.385 Z" />
            <path d="M458.231,107.615 L458.231,111 L451.462,111 L451.462,107.615 Z" />
            <path d="M468.385,121.154 L468.385,124.538 L461.615,124.538 L461.615,121.154 Z" />
            <path d="M478.538,107.615 L478.538,111 L471.769,111 L471.769,107.615 Z" />
            <path d="M478.538,121.154 L478.538,124.538 L471.769,124.538 L471.769,121.154 Z" />
            <path d="M483.615,89 L446.385,89 C444.516,89.002 443.002,90.516 443,92.385 L443,129.615 C443.002,131.484 444.516,132.998 446.385,133 L483.615,133 C485.484,132.998 486.998,131.484 487,129.615 L487,92.385 C486.998,90.516 485.484,89.002 483.616,89 Z M483.615,92.385 L483.615,99.154 L446.385,99.154 L446.385,92.385 Z M446.385,129.615 L446.385,102.538 L483.615,102.538 L483.615,129.615 Z" />
            <path d="M492.077,83.923 L492.077,138.077 L437.923,138.077 L437.923,83.923 Z" />
        </g>
        <g id="Black-S" transform="translate(0,0)">
            <path d="M658.231,114.385 L658.231,117.769 L651.462,117.769 L651.462,114.385 Z" />
            <path d="M668.385,114.385 L668.385,117.769 L661.615,117.769 L661.615,114.385 Z" />
            <path d="M658.231,107.615 L658.231,111 L651.462,111 L651.462,107.615 Z" />
            <path d="M668.385,121.154 L668.385,124.538 L661.615,124.538 L661.615,121.154 Z" />
            <path d="M678.538,107.615 L678.538,111 L671.769,111 L671.769,107.615 Z" />
            <path d="M678.538,121.154 L678.538,124.538 L671.769,124.538 L671.769,121.154 Z" />
            <path d="M683.615,89 L646.385,89 C644.516,89.002 643.002,90.516 643,92.385 L643,129.615 C643.002,131.484 644.516,132.998 646.385,133 L683.615,133 C685.484,132.998 686.998,131.484 687,129.615 L687,92.385 C686.998,90.516 685.484,89.002 683.616,89 Z M683.615,92.385 L683.615,99.154 L646.385,99.154 L646.385,92.385 Z M646.385,129.615 L646.385,102.538 L683.615,102.538 L683.615,129.615 Z" />
            <path d="M692.077,83.923 L692.077,138.077 L637.923,138.077 L637.923,83.923 Z" />
        </g>
    </g>
</svg>