<?xml version="1.0" encoding="UTF-8"?>
<svg height="600" width="800" xmlns="http://www.w3.org/2000/svg" xmlns:xlink="http://www.w3.org/1999/xlink">
    <style>
        .cls-1 { fill: none }
    </style>
    <g id="Notes" font-family="LucidaGrande, 'Lucida Grande', sans-serif" font-size="13">
        <rect fill="white" height="600.0" width="800.0" x="0.0" y="0.0" />
        <g font-size="13">
            <text x="18.0" y="176.0">Small</text>
            <text x="18.0" y="376.0">Medium</text>
            <text x="18.0" y="576.0">Large</text>
        </g>
        <g font-size="9">
            <text x="250.0" y="30.0">Ultralight</text>
            <text x="450.0" y="30.0">Regular</text>
            <text x="650.0" y="30.0">Black</text>
            <text id="template-version" fill="#505050" text-anchor="end" x="785.0" y="575.0">Template v.3.0</text>
            <a href="https://github.com/swhitty/SwiftDraw">
                <text fill="#505050" text-anchor="end" x="785.0" y="590.0">https://github.com/swhitty/SwiftDraw</text>
            </a>
        </g>
    </g>
    <g id="Guides" stroke="rgb(39, 170, 225)" stroke-width="0.5">
        <path id="Capline-S" d="M18,76 l800,0" />
        <path id="H-reference" d="M85,145.755 L87.685,145.755 L113.369,79.287 L114.052,79.287 L114.052,76 L112.148,76 L85,145.755 Z M95.693,121.536 L130.996,121.536 L130.263,119.313 L96.474,119.313 L95.693,121.536 Z M139.15,145.755 L141.787,145.755 L114.638,76 L113.466,76 L113.466,79.287 L139.15,145.755 Z" stroke="none" transform="translate(0,0)" />
        <path id="Baseline-S" d="M18,146 l800,0" />
        <path id="left-margin-Ultralight-S" d="M221,56 l0,110" />
        <path id="right-margin-Ultralight-S" d="M309,56 l0,110" />
        <path id="left-margin-Regular-S" d="M421,56 l0,110" />
        <path id="right-margin-Regular-S" d="M509,56 l0,110" />
        <path id="left-margin-Black-S" d="M621,56 l0,110" />
        <path id="right-margin-Black-S" d="M709,56 l0,110" />
        <path id="Capline-M" d="M18,276 l800,0" />
        <path id="Baseline-M" d="M18,346 l800,0" />
        <path id="Capline-L" d="M18,476 l800,0" />
        <path id="Baseline-L" d="M18,546 l800,0" />
    </g>
    <g id="Symbols">
        <g id="Ultralight-S" transform="translate(0,0)">
            <path d="M280.319,118.678 C277.42,118.693 274.685,120.022 272.882,122.292 L258.905,113.554 C259.414,111.91 259.414,110.151 258.905,108.507 L272.882,99.769 C275.811,103.396 280.929,104.381 284.995,102.101 C289.061,99.821 290.89,94.94 289.323,90.549 C287.756,86.158 283.25,83.538 278.659,84.348 C274.068,85.158 270.73,89.161 270.759,93.823 C270.768,94.678 270.897,95.527 271.142,96.346 L257.165,105.084 C254.636,101.9 250.37,100.665 246.531,102.004 C242.692,103.343 240.12,106.964 240.12,111.03 C240.12,115.096 242.692,118.718 246.531,120.057 C250.37,121.396 254.636,120.16 257.165,116.977 L271.142,125.714 C270.897,126.534 270.768,127.383 270.759,128.238 C270.759,133.518 275.039,137.798 280.319,137.798 C285.599,137.798 289.879,133.518 289.879,128.238 C289.879,122.959 285.599,118.678 280.319,118.678 Z M280.319,88.087 C283.487,88.087 286.055,90.655 286.055,93.823 C286.055,96.991 283.487,99.559 280.319,99.559 C277.151,99.559 274.583,96.991 274.583,93.823 C274.583,92.301 275.188,90.843 276.263,89.767 C277.339,88.691 278.798,88.087 280.319,88.087 Z M249.728,116.766 C246.56,116.766 243.992,114.198 243.992,111.031 C243.992,107.863 246.56,105.295 249.728,105.295 C252.895,105.295 255.464,107.863 255.464,111.031 C255.464,112.552 254.859,114.011 253.784,115.086 C252.708,116.162 251.249,116.766 249.728,116.766 Z M280.319,133.974 C277.151,133.974 274.583,131.406 274.583,128.238 C274.583,125.07 277.151,122.502 280.319,122.502 C283.487,122.502 286.055,125.07 286.055,128.238 C286.055,129.76 285.451,131.219 284.375,132.294 C283.299,133.37 281.841,133.974 280.319,133.974 Z" />
        </g>
        <g id="Regular-S" transform="translate(0,0)">
            <path d="M480.319,118.678 C477.42,118.693 474.685,120.022 472.882,122.292 L458.905,113.554 C459.414,111.91 459.414,110.151 458.905,108.507 L472.882,99.769 C475.811,103.396 480.929,104.381 484.995,102.101 C489.061,99.821 490.89,94.94 489.323,90.549 C487.756,86.158 483.25,83.538 478.659,84.348 C474.068,85.158 470.73,89.161 470.759,93.823 C470.768,94.678 470.897,95.527 471.142,96.346 L457.165,105.084 C454.636,101.9 450.37,100.665 446.531,102.004 C442.692,103.343 440.12,106.964 440.12,111.03 C440.12,115.096 442.692,118.718 446.531,120.057 C450.37,121.396 454.636,120.16 457.165,116.977 L471.142,125.714 C470.897,126.534 470.768,127.383 470.759,128.238 C470.759,133.518 475.039,137.798 480.319,137.798 C485.599,137.798 489.879,133.518 489.879,128.238 C489.879,122.959 485.599,118.678 480.319,118.678 Z M480.319,88.087 C483.487,88.087 486.055,90.655 486.055,93.823 C486.055,96.991 483.487,99.559 480.319,99.559 C477.151,99.559 474.583,96.991 474.583,93.823 C474.583,92.301 475.188,90.843 476.263,89.767 C477.339,88.691 478.798,88.087 480.319,88.087 Z M449.728,116.766 C446.56,116.766 443.992,114.198 443.992,111.031 C443.992,107.863 446.56,105.295 449.728,105.295 C452.895,105.295 455.464,107.863 455.464,111.031 C455.464,112.552 454.859,114.011 453.784,115.086 C452.708,116.162 451.249,116.766 449.728,116.766 Z M480.319,133.974 C477.151,133.974 474.583,131.406 474.583,128.238 C474.583,125.07 477.151,122.502 480.319,122.502 C483.487,122.502 486.055,125.07 486.055,128.238 C486.055,129.76 485.451,131.219 484.375,132.294 C483.299,133.37 481.841,133.974 480.319,133.974 Z" />
        </g>
        <g id="Black-S" transform="translate(0,0)">
            <path d="M680.319,118.678 C677.42,118.693 674.685,120.022 672.882,122.292 L658.905,113.554 C659.414,111.91 659.414,110.151 658.905,108.507 L672.882,99.769 C675.811,103.396 680.929,104.381 684.995,102.101 C689.061,99.821 690.89,94.94 689.323,90.549 C687.756,86.158 683.25,83.538 678.659,84.348 C674.068,85.158 670.73,89.161 670.759,93.823 C670.768,94.678 670.897,95.527 671.142,96.346 L657.165,105.084 C654.636,101.9 650.37,100.665 646.531,102.004 C642.692,103.343 640.12,106.964 640.12,111.03 C640.12,115.096 642.692,118.718 646.531,120.057 C650.37,121.396 654.636,120.16 657.165,116.977 L671.142,125.714 C670.897,126.534 670.768,127.383 670.759,128.238 C670.759,133.518 675.039,137.798 680.319,137.798 C685.599,137.798 689.879,133.518 689.879,128.238 C689.879,122.959 685.599,118.678 680.319,118.678 Z M680.319,88.087 C683.487,88.087 686.055,90.655 686.055,93.823 C686.055,96.991 683.487,99.559 680.319,99.559 C677.151,99.559 674.583,96.991 674.583,93.823 C674.583,92.301 675.188,90.843 676.263,89.767 C677.339,88.691 678.798,88.087 680.319,88.087 Z M649.728,116.766 C646.56,116.766 643.992,114.198 643.992,111.031 C643.992,107.863 646.56,105.295 649.728,105.295 C652.896,105.295 655.464,107.863 655.464,111.031 C655.464,112.552 654.859,114.011 653.784,115.086 C652.708,116.162 651.249,116.766 649.728,116.766 Z M680.319,133.974 C677.151,133.974 674.583,131.406 674.583,128.238 C674.583,125.07 677.151,122.502 680.319,122.502 C683.487,122.502 686.055,125.07 686.055,128.238 C686.055,129.76 685.451,131.219 684.375,132.294 C683.299,133.37 681.841,133.974 680.319,133.974 Z" />
        </g>
    </g>
</svg>