<?xml version="1.0" encoding="UTF-8"?>
<svg height="600" width="800" xmlns="http://www.w3.org/2000/svg" xmlns:xlink="http://www.w3.org/1999/xlink">
    <style>
        .cls-1 { fill: none }
    </style>
    <g id="Notes" font-family="LucidaGrande, 'Lucida Grande', sans-serif" font-size="13">
        <rect fill="white" height="600.0" width="800.0" x="0.0" y="0.0" />
        <g font-size="13">
            <text x="18.0" y="176.0">Small</text>
            <text x="18.0" y="376.0">Medium</text>
            <text x="18.0" y="576.0">Large</text>
        </g>
        <g font-size="9">
            <text x="250.0" y="30.0">Ultralight</text>
            <text x="450.0" y="30.0">Regular</text>
            <text x="650.0" y="30.0">Black</text>
            <text id="template-version" fill="#505050" text-anchor="end" x="785.0" y="575.0">Template v.3.0</text>
            <a href="https://github.com/swhitty/SwiftDraw">
                <text fill="#505050" text-anchor="end" x="785.0" y="590.0">https://github.com/swhitty/SwiftDraw</text>
            </a>
        </g>
    </g>
    <g id="Guides" stroke="rgb(39, 170, 225)" stroke-width="0.5">
        <path id="Capline-S" d="M18,76 l800,0" />
        <path id="H-reference" d="M85,145.755 L87.685,145.755 L113.369,79.287 L114.052,79.287 L114.052,76 L112.148,76 L85,145.755 Z M95.693,121.536 L130.996,121.536 L130.263,119.313 L96.474,119.313 L95.693,121.536 Z M139.15,145.755 L141.787,145.755 L114.638,76 L113.466,76 L113.466,79.287 L139.15,145.755 Z" stroke="none" transform="translate(0,0)" />
        <path id="Baseline-S" d="M18,146 l800,0" />
        <path id="left-margin-Ultralight-S" d="M221,56 l0,110" />
        <path id="right-margin-Ultralight-S" d="M309,56 l0,110" />
        <path id="left-margin-Regular-S" d="M421,56 l0,110" />
        <path id="right-margin-Regular-S" d="M509,56 l0,110" />
        <path id="left-margin-Black-S" d="M621,56 l0,110" />
        <path id="right-margin-Black-S" d="M709,56 l0,110" />
        <path id="Capline-M" d="M18,276 l800,0" />
        <path id="Baseline-M" d="M18,346 l800,0" />
        <path id="Capline-L" d="M18,476 l800,0" />
        <path id="Baseline-L" d="M18,546 l800,0" />
    </g>
    <g id="Symbols">
        <g id="Ultralight-S" transform="translate(0,0)">
            <path d="M289.594,121.405 L254.62,86.394 C253.932,85.705 252.998,85.318 252.025,85.318 C251.051,85.318 250.118,85.705 249.43,86.394 L240.406,95.436 C238.984,96.866 238.984,99.177 240.406,100.607 L275.38,135.618 C276.073,136.305 277.01,136.687 277.985,136.682 C278.953,136.682 279.883,136.3 280.57,135.618 L289.594,126.576 C291.016,125.146 291.016,122.835 289.594,121.405 Z M277.985,133.014 L242.992,98.021 L252.015,88.998 L258.966,95.949 L254.84,100.002 L257.426,102.588 L261.552,98.535 L269.126,106.109 L265,110.236 L267.604,112.84 L271.731,108.714 L279.305,116.288 L275.179,120.414 L277.838,123 L281.964,118.874 L287.008,123.991 Z" />
        </g>
        <g id="Regular-S" transform="translate(0,0)">
            <path d="M489.594,121.405 L454.62,86.394 C453.932,85.705 452.998,85.318 452.025,85.318 C451.051,85.318 450.118,85.705 449.43,86.394 L440.406,95.436 C438.984,96.866 438.984,99.177 440.406,100.607 L475.38,135.618 C476.073,136.305 477.01,136.687 477.985,136.682 C478.953,136.682 479.883,136.3 480.57,135.618 L489.594,126.576 C491.016,125.146 491.016,122.835 489.594,121.405 Z M477.985,133.014 L442.992,98.021 L452.015,88.998 L458.966,95.949 L454.84,100.002 L457.426,102.588 L461.552,98.535 L469.126,106.109 L465,110.236 L467.604,112.84 L471.731,108.714 L479.305,116.288 L475.179,120.414 L477.838,123 L481.964,118.874 L487.008,123.991 Z" />
        </g>
        <g id="Black-S" transform="translate(0,0)">
            <path d="M689.594,121.405 L654.62,86.394 C653.932,85.705 652.998,85.318 652.025,85.318 C651.051,85.318 650.118,85.705 649.43,86.394 L640.406,95.436 C638.984,96.866 638.984,99.177 640.406,100.607 L675.38,135.618 C676.073,136.305 677.01,136.687 677.985,136.682 C678.953,136.682 679.883,136.3 680.57,135.618 L689.594,126.576 C691.016,125.146 691.016,122.835 689.594,121.405 Z M677.985,133.014 L642.992,98.021 L652.015,88.998 L658.966,95.949 L654.84,100.002 L657.426,102.588 L661.552,98.535 L669.126,106.109 L665,110.236 L667.604,112.84 L671.731,108.714 L679.305,116.288 L675.179,120.414 L677.838,123 L681.964,118.874 L687.008,123.991 Z" />
        </g>
    </g>
</svg>