<?xml version="1.0" encoding="UTF-8"?>
<svg height="600" width="800" xmlns="http://www.w3.org/2000/svg" xmlns:xlink="http://www.w3.org/1999/xlink">
    <style>
        
    </style>
    <g id="Notes" font-family="LucidaGrande, 'Lucida Grande', sans-serif" font-size="13">
        <rect fill="white" height="600.0" width="800.0" x="0.0" y="0.0" />
        <g font-size="13">
            <text x="18.0" y="176.0">Small</text>
            <text x="18.0" y="376.0">Medium</text>
            <text x="18.0" y="576.0">Large</text>
        </g>
        <g font-size="9">
            <text x="250.0" y="30.0">Ultralight</text>
            <text x="450.0" y="30.0">Regular</text>
            <text x="650.0" y="30.0">Black</text>
            <text id="template-version" fill="#505050" text-anchor="end" x="785.0" y="575.0">Template v.3.0</text>
            <a href="https://github.com/swhitty/SwiftDraw">
                <text fill="#505050" text-anchor="end" x="785.0" y="590.0">https://github.com/swhitty/SwiftDraw</text>
            </a>
        </g>
    </g>
    <g id="Guides" stroke="rgb(39, 170, 225)" stroke-width="0.5">
        <path id="Capline-S" d="M18,76 l800,0" />
        <path id="H-reference" d="M85,145.755 L87.685,145.755 L113.369,79.287 L114.052,79.287 L114.052,76 L112.148,76 L85,145.755 Z M95.693,121.536 L130.996,121.536 L130.263,119.313 L96.474,119.313 L95.693,121.536 Z M139.15,145.755 L141.787,145.755 L114.638,76 L113.466,76 L113.466,79.287 L139.15,145.755 Z" stroke="none" transform="translate(0,0)" />
        <path id="Baseline-S" d="M18,146 l800,0" />
        <path id="left-margin-Ultralight-S" d="M221,56 l0,110" />
        <path id="right-margin-Ultralight-S" d="M309,56 l0,110" />
        <path id="left-margin-Regular-S" d="M421,56 l0,110" />
        <path id="right-margin-Regular-S" d="M509,56 l0,110" />
        <path id="left-margin-Black-S" d="M621,56 l0,110" />
        <path id="right-margin-Black-S" d="M709,56 l0,110" />
        <path id="Capline-M" d="M18,276 l800,0" />
        <path id="Baseline-M" d="M18,346 l800,0" />
        <path id="Capline-L" d="M18,476 l800,0" />
        <path id="Baseline-L" d="M18,546 l800,0" />
    </g>
    <g id="Symbols">
        <g id="Ultralight-S" transform="translate(0,0)">
            <path d="M271.769,87.308 L258.231,87.308 C250.563,87.296 243.848,92.448 241.876,99.858 C239.904,107.268 243.169,115.077 249.828,118.878 C249.811,119.073 249.769,119.262 249.769,119.462 C249.779,122.48 251.79,125.125 254.695,125.943 C254.029,129.068 251.272,131.303 248.077,131.308 L244.692,131.308 L244.692,134.692 L248.077,134.692 C253.104,134.683 257.369,131 258.109,126.028 C260.534,125.442 262.44,123.569 263.067,121.154 L271.769,121.154 C281.111,121.148 288.682,113.573 288.682,104.231 C288.682,94.888 281.111,87.313 271.769,87.308 Z M256.538,122.846 C254.669,122.846 253.154,121.331 253.154,119.462 C253.154,117.592 254.669,116.077 256.538,116.077 C258.408,116.077 259.923,117.592 259.923,119.462 C259.921,121.33 258.407,122.844 256.539,122.846 Z M271.769,117.769 L263.067,117.769 C262.413,115.202 260.316,113.256 257.707,112.795 C255.099,112.334 252.462,113.444 250.967,115.631 C245.886,112.406 243.547,106.211 245.23,100.433 C246.913,94.654 252.212,90.684 258.231,90.692 L271.769,90.692 C279.246,90.692 285.308,96.754 285.308,104.231 C285.308,111.708 279.246,117.769 271.769,117.769 Z" />
            <path d="M292.077,83.923 L292.077,138.077 L237.923,138.077 L237.923,83.923 Z" />
        </g>
        <g id="Regular-S" transform="translate(0,0)">
            <path d="M471.769,87.308 L458.231,87.308 C450.563,87.296 443.848,92.448 441.876,99.858 C439.904,107.268 443.169,115.077 449.828,118.878 C449.811,119.073 449.769,119.262 449.769,119.462 C449.779,122.48 451.79,125.125 454.695,125.943 C454.029,129.068 451.272,131.303 448.077,131.308 L444.692,131.308 L444.692,134.692 L448.077,134.692 C453.104,134.683 457.368,131 458.109,126.028 C460.534,125.442 462.44,123.569 463.067,121.154 L471.769,121.154 C481.111,121.148 488.682,113.573 488.682,104.231 C488.682,94.888 481.111,87.313 471.769,87.308 Z M456.538,122.846 C454.669,122.846 453.154,121.331 453.154,119.462 C453.154,117.592 454.669,116.077 456.538,116.077 C458.408,116.077 459.923,117.592 459.923,119.462 C459.921,121.33 458.407,122.844 456.539,122.846 Z M471.769,117.769 L463.067,117.769 C462.413,115.202 460.316,113.256 457.707,112.795 C455.099,112.334 452.462,113.444 450.967,115.631 C445.886,112.406 443.547,106.211 445.23,100.433 C446.913,94.654 452.212,90.684 458.231,90.692 L471.769,90.692 C479.246,90.692 485.308,96.754 485.308,104.231 C485.308,111.708 479.246,117.769 471.769,117.769 Z" />
            <path d="M492.077,83.923 L492.077,138.077 L437.923,138.077 L437.923,83.923 Z" />
        </g>
        <g id="Black-S" transform="translate(0,0)">
            <path d="M671.769,87.308 L658.231,87.308 C650.563,87.296 643.848,92.448 641.876,99.858 C639.904,107.268 643.169,115.077 649.828,118.878 C649.811,119.073 649.769,119.262 649.769,119.462 C649.779,122.48 651.79,125.125 654.695,125.943 C654.029,129.068 651.272,131.303 648.077,131.308 L644.692,131.308 L644.692,134.692 L648.077,134.692 C653.104,134.683 657.369,131 658.109,126.028 C660.534,125.442 662.44,123.569 663.067,121.154 L671.769,121.154 C681.112,121.148 688.682,113.573 688.682,104.231 C688.682,94.888 681.111,87.313 671.769,87.308 Z M656.538,122.846 C654.669,122.846 653.154,121.331 653.154,119.462 C653.154,117.592 654.669,116.077 656.538,116.077 C658.408,116.077 659.923,117.592 659.923,119.462 C659.921,121.33 658.407,122.844 656.539,122.846 Z M671.769,117.769 L663.067,117.769 C662.413,115.202 660.316,113.256 657.707,112.795 C655.099,112.334 652.462,113.444 650.967,115.631 C645.886,112.406 643.547,106.211 645.23,100.433 C646.913,94.654 652.212,90.684 658.231,90.692 L671.769,90.692 C679.246,90.692 685.308,96.754 685.308,104.231 C685.308,111.708 679.246,117.769 671.769,117.769 Z" />
            <path d="M692.077,83.923 L692.077,138.077 L637.923,138.077 L637.923,83.923 Z" />
        </g>
    </g>
</svg>