<?xml version="1.0" encoding="UTF-8"?>
<svg height="600" width="800" xmlns="http://www.w3.org/2000/svg" xmlns:xlink="http://www.w3.org/1999/xlink">
    <style>
        .cls-1 { fill: none }
    </style>
    <g id="Notes" font-family="LucidaGrande, 'Lucida Grande', sans-serif" font-size="13">
        <rect fill="white" height="600.0" width="800.0" x="0.0" y="0.0" />
        <g font-size="13">
            <text x="18.0" y="176.0">Small</text>
            <text x="18.0" y="376.0">Medium</text>
            <text x="18.0" y="576.0">Large</text>
        </g>
        <g font-size="9">
            <text x="250.0" y="30.0">Ultralight</text>
            <text x="450.0" y="30.0">Regular</text>
            <text x="650.0" y="30.0">Black</text>
            <text id="template-version" fill="#505050" text-anchor="end" x="785.0" y="575.0">Template v.3.0</text>
            <a href="https://github.com/swhitty/SwiftDraw">
                <text fill="#505050" text-anchor="end" x="785.0" y="590.0">https://github.com/swhitty/SwiftDraw</text>
            </a>
        </g>
    </g>
    <g id="Guides" stroke="rgb(39, 170, 225)" stroke-width="0.5">
        <path id="Capline-S" d="M18,76 l800,0" />
        <path id="H-reference" d="M85,145.755 L87.685,145.755 L113.369,79.287 L114.052,79.287 L114.052,76 L112.148,76 L85,145.755 Z M95.693,121.536 L130.996,121.536 L130.263,119.313 L96.474,119.313 L95.693,121.536 Z M139.15,145.755 L141.787,145.755 L114.638,76 L113.466,76 L113.466,79.287 L139.15,145.755 Z" stroke="none" transform="translate(0,0)" />
        <path id="Baseline-S" d="M18,146 l800,0" />
        <path id="left-margin-Ultralight-S" d="M221,56 l0,110" />
        <path id="right-margin-Ultralight-S" d="M309,56 l0,110" />
        <path id="left-margin-Regular-S" d="M421,56 l0,110" />
        <path id="right-margin-Regular-S" d="M509,56 l0,110" />
        <path id="left-margin-Black-S" d="M621,56 l0,110" />
        <path id="right-margin-Black-S" d="M709,56 l0,110" />
        <path id="Capline-M" d="M18,276 l800,0" />
        <path id="Baseline-M" d="M18,346 l800,0" />
        <path id="Capline-L" d="M18,476 l800,0" />
        <path id="Baseline-L" d="M18,546 l800,0" />
    </g>
    <g id="Symbols">
        <g id="Ultralight-S" transform="translate(0,0)">
            <path d="M289,117 L262.66,117 L267.82,111.82 L265,109 L255,119 L265,129 L267.82,126.18 L262.66,121 L289,121 L289,117 Z" />
            <path d="M281,107 L281,99 C281.003,98.468 280.794,97.957 280.42,97.58 L266.42,83.58 C266.043,83.206 265.532,82.997 265,83 L245,83 C243.939,83 242.922,83.421 242.172,84.172 C241.421,84.922 241,85.939 241,87 L241,135 C241,136.061 241.421,137.078 242.172,137.828 C242.922,138.579 243.939,139 245,139 L277,139 C278.061,139 279.078,138.579 279.828,137.828 C280.579,137.078 281,136.061 281,135 L281,131 L277,131 L277,135 L245,135 L245,87 L261,87 L261,99 C261,100.061 261.421,101.078 262.172,101.828 C262.922,102.579 263.939,103 265,103 L277,103 L277,107 Z M265,99 L265,87.82 L276.18,99 Z" />
        </g>
        <g id="Regular-S" transform="translate(0,0)">
            <path d="M489,117 L462.66,117 L467.82,111.82 L465,109 L455,119 L465,129 L467.82,126.18 L462.66,121 L489,121 L489,117 Z" />
            <path d="M481,107 L481,99 C481.003,98.468 480.794,97.957 480.42,97.58 L466.42,83.58 C466.043,83.206 465.532,82.997 465,83 L445,83 C443.939,83 442.922,83.421 442.172,84.172 C441.421,84.922 441,85.939 441,87 L441,135 C441,136.061 441.421,137.078 442.172,137.828 C442.922,138.579 443.939,139 445,139 L477,139 C478.061,139 479.078,138.579 479.828,137.828 C480.579,137.078 481,136.061 481,135 L481,131 L477,131 L477,135 L445,135 L445,87 L461,87 L461,99 C461,100.061 461.421,101.078 462.172,101.828 C462.922,102.579 463.939,103 465,103 L477,103 L477,107 Z M465,99 L465,87.82 L476.18,99 Z" />
        </g>
        <g id="Black-S" transform="translate(0,0)">
            <path d="M689,117 L662.66,117 L667.82,111.82 L665,109 L655,119 L665,129 L667.82,126.18 L662.66,121 L689,121 L689,117 Z" />
            <path d="M681,107 L681,99 C681.003,98.468 680.794,97.957 680.42,97.58 L666.42,83.58 C666.043,83.206 665.532,82.997 665,83 L645,83 C643.939,83 642.922,83.421 642.172,84.172 C641.421,84.922 641,85.939 641,87 L641,135 C641,136.061 641.421,137.078 642.172,137.828 C642.922,138.579 643.939,139 645,139 L677,139 C678.061,139 679.078,138.579 679.828,137.828 C680.579,137.078 681,136.061 681,135 L681,131 L677,131 L677,135 L645,135 L645,87 L661,87 L661,99 C661,100.061 661.421,101.078 662.172,101.828 C662.922,102.579 663.939,103 665,103 L677,103 L677,107 Z M665,99 L665,87.82 L676.18,99 Z" />
        </g>
    </g>
</svg>