<?xml version="1.0" encoding="UTF-8"?>
<svg height="600" width="800" xmlns="http://www.w3.org/2000/svg" xmlns:xlink="http://www.w3.org/1999/xlink">
    <style>
        .cls-1 { fill: none }
    </style>
    <g id="Notes" font-family="LucidaGrande, 'Lucida Grande', sans-serif" font-size="13">
        <rect fill="white" height="600.0" width="800.0" x="0.0" y="0.0" />
        <g font-size="13">
            <text x="18.0" y="176.0">Small</text>
            <text x="18.0" y="376.0">Medium</text>
            <text x="18.0" y="576.0">Large</text>
        </g>
        <g font-size="9">
            <text x="250.0" y="30.0">Ultralight</text>
            <text x="450.0" y="30.0">Regular</text>
            <text x="650.0" y="30.0">Black</text>
            <text id="template-version" fill="#505050" text-anchor="end" x="785.0" y="575.0">Template v.3.0</text>
            <a href="https://github.com/swhitty/SwiftDraw">
                <text fill="#505050" text-anchor="end" x="785.0" y="590.0">https://github.com/swhitty/SwiftDraw</text>
            </a>
        </g>
    </g>
    <g id="Guides" stroke="rgb(39, 170, 225)" stroke-width="0.5">
        <path id="Capline-S" d="M18,76 l800,0" />
        <path id="H-reference" d="M85,145.755 L87.685,145.755 L113.369,79.287 L114.052,79.287 L114.052,76 L112.148,76 L85,145.755 Z M95.693,121.536 L130.996,121.536 L130.263,119.313 L96.474,119.313 L95.693,121.536 Z M139.15,145.755 L141.787,145.755 L114.638,76 L113.466,76 L113.466,79.287 L139.15,145.755 Z" stroke="none" transform="translate(0,0)" />
        <path id="Baseline-S" d="M18,146 l800,0" />
        <path id="left-margin-Ultralight-S" d="M221,56 l0,110" />
        <path id="right-margin-Ultralight-S" d="M309,56 l0,110" />
        <path id="left-margin-Regular-S" d="M421,56 l0,110" />
        <path id="right-margin-Regular-S" d="M509,56 l0,110" />
        <path id="left-margin-Black-S" d="M621,56 l0,110" />
        <path id="right-margin-Black-S" d="M709,56 l0,110" />
        <path id="Capline-M" d="M18,276 l800,0" />
        <path id="Baseline-M" d="M18,346 l800,0" />
        <path id="Capline-L" d="M18,476 l800,0" />
        <path id="Baseline-L" d="M18,546 l800,0" />
    </g>
    <g id="Symbols">
        <g id="Ultralight-S" transform="translate(0,0)">
            <path d="M279.667,79.222 L250.333,79.222 C247.634,79.225 245.447,81.412 245.444,84.111 L245.444,137.889 C245.447,140.587 247.634,142.775 250.333,142.778 L279.667,142.778 C282.365,142.774 284.552,140.587 284.556,137.889 L284.556,84.111 C284.553,81.413 282.366,79.225 279.667,79.222 Z M279.667,84.111 L279.667,89 L250.333,89 L250.333,84.111 Z M250.333,137.889 L250.333,93.889 L279.667,93.889 L279.667,137.889 Z" />
        </g>
        <g id="Regular-S" transform="translate(0,0)">
            <path d="M479.667,79.222 L450.333,79.222 C447.634,79.225 445.447,81.412 445.444,84.111 L445.444,137.889 C445.447,140.587 447.634,142.775 450.333,142.778 L479.667,142.778 C482.365,142.774 484.552,140.587 484.556,137.889 L484.556,84.111 C484.553,81.413 482.366,79.225 479.667,79.222 Z M479.667,84.111 L479.667,89 L450.333,89 L450.333,84.111 Z M450.333,137.889 L450.333,93.889 L479.667,93.889 L479.667,137.889 Z" />
        </g>
        <g id="Black-S" transform="translate(0,0)">
            <path d="M679.667,79.222 L650.333,79.222 C647.634,79.225 645.447,81.412 645.444,84.111 L645.444,137.889 C645.447,140.587 647.634,142.775 650.333,142.778 L679.667,142.778 C682.365,142.774 684.552,140.587 684.556,137.889 L684.556,84.111 C684.553,81.413 682.366,79.225 679.667,79.222 Z M679.667,84.111 L679.667,89 L650.333,89 L650.333,84.111 Z M650.333,137.889 L650.333,93.889 L679.667,93.889 L679.667,137.889 Z" />
        </g>
    </g>
</svg>