<?xml version="1.0" encoding="UTF-8"?>
<svg height="600" width="800" xmlns="http://www.w3.org/2000/svg" xmlns:xlink="http://www.w3.org/1999/xlink">
    <style>
        .cls-1 { fill: none }
    </style>
    <g id="Notes" font-family="LucidaGrande, 'Lucida Grande', sans-serif" font-size="13">
        <rect fill="white" height="600.0" width="800.0" x="0.0" y="0.0" />
        <g font-size="13">
            <text x="18.0" y="176.0">Small</text>
            <text x="18.0" y="376.0">Medium</text>
            <text x="18.0" y="576.0">Large</text>
        </g>
        <g font-size="9">
            <text x="250.0" y="30.0">Ultralight</text>
            <text x="450.0" y="30.0">Regular</text>
            <text x="650.0" y="30.0">Black</text>
            <text id="template-version" fill="#505050" text-anchor="end" x="785.0" y="575.0">Template v.3.0</text>
            <a href="https://github.com/swhitty/SwiftDraw">
                <text fill="#505050" text-anchor="end" x="785.0" y="590.0">https://github.com/swhitty/SwiftDraw</text>
            </a>
        </g>
    </g>
    <g id="Guides" stroke="rgb(39, 170, 225)" stroke-width="0.5">
        <path id="Capline-S" d="M18,76 l800,0" />
        <path id="H-reference" d="M85,145.755 L87.685,145.755 L113.369,79.287 L114.052,79.287 L114.052,76 L112.148,76 L85,145.755 Z M95.693,121.536 L130.996,121.536 L130.263,119.313 L96.474,119.313 L95.693,121.536 Z M139.15,145.755 L141.787,145.755 L114.638,76 L113.466,76 L113.466,79.287 L139.15,145.755 Z" stroke="none" transform="translate(0,0)" />
        <path id="Baseline-S" d="M18,146 l800,0" />
        <path id="left-margin-Ultralight-S" d="M221,56 l0,110" />
        <path id="right-margin-Ultralight-S" d="M309,56 l0,110" />
        <path id="left-margin-Regular-S" d="M421,56 l0,110" />
        <path id="right-margin-Regular-S" d="M509,56 l0,110" />
        <path id="left-margin-Black-S" d="M621,56 l0,110" />
        <path id="right-margin-Black-S" d="M709,56 l0,110" />
        <path id="Capline-M" d="M18,276 l800,0" />
        <path id="Baseline-M" d="M18,346 l800,0" />
        <path id="Capline-L" d="M18,476 l800,0" />
        <path id="Baseline-L" d="M18,546 l800,0" />
    </g>
    <g id="Symbols">
        <g id="Ultralight-S" transform="translate(0,0)">
            <path d="M287.926,109.216 L243.954,87.23 C243.25,86.878 242.405,86.972 241.796,87.47 C241.214,87.957 240.959,88.732 241.136,89.469 L247.052,110.995 L241.056,132.461 C240.891,133.073 241.026,133.728 241.42,134.224 C241.814,134.721 242.421,135.001 243.055,134.979 C243.368,134.978 243.676,134.902 243.954,134.76 L287.926,112.774 C288.593,112.432 289.013,111.745 289.013,110.995 C289.013,110.245 288.593,109.558 287.926,109.216 Z M246.153,129.203 L250.57,112.994 L269.038,112.994 L269.038,108.996 L250.57,108.996 L246.153,92.787 L282.549,110.995 Z" />
        </g>
        <g id="Regular-S" transform="translate(0,0)">
            <path d="M487.926,109.216 L443.954,87.23 C443.25,86.878 442.405,86.972 441.796,87.47 C441.214,87.957 440.959,88.732 441.136,89.469 L447.052,110.995 L441.056,132.461 C440.891,133.073 441.026,133.728 441.42,134.224 C441.814,134.721 442.421,135.001 443.055,134.979 C443.368,134.978 443.676,134.902 443.954,134.76 L487.926,112.774 C488.593,112.432 489.013,111.745 489.013,110.995 C489.013,110.245 488.593,109.558 487.926,109.216 Z M446.153,129.203 L450.57,112.994 L469.038,112.994 L469.038,108.996 L450.57,108.996 L446.153,92.787 L482.549,110.995 Z" />
        </g>
        <g id="Black-S" transform="translate(0,0)">
            <path d="M687.926,109.216 L643.954,87.23 C643.25,86.878 642.405,86.972 641.796,87.47 C641.214,87.957 640.959,88.732 641.136,89.469 L647.052,110.995 L641.056,132.461 C640.891,133.073 641.026,133.728 641.42,134.224 C641.814,134.721 642.421,135.001 643.055,134.979 C643.368,134.978 643.676,134.902 643.954,134.76 L687.926,112.774 C688.593,112.432 689.013,111.745 689.013,110.995 C689.013,110.245 688.593,109.558 687.926,109.216 Z M646.153,129.203 L650.57,112.994 L669.038,112.994 L669.038,108.996 L650.57,108.996 L646.153,92.787 L682.549,110.995 Z" />
        </g>
    </g>
</svg>