<?xml version="1.0" encoding="UTF-8"?>
<svg height="600" width="800" xmlns="http://www.w3.org/2000/svg" xmlns:xlink="http://www.w3.org/1999/xlink">
    <style>
        .cls-1 { fill: none }
    </style>
    <g id="Notes" font-family="LucidaGrande, 'Lucida Grande', sans-serif" font-size="13">
        <rect fill="white" height="600.0" width="800.0" x="0.0" y="0.0" />
        <g font-size="13">
            <text x="18.0" y="176.0">Small</text>
            <text x="18.0" y="376.0">Medium</text>
            <text x="18.0" y="576.0">Large</text>
        </g>
        <g font-size="9">
            <text x="250.0" y="30.0">Ultralight</text>
            <text x="450.0" y="30.0">Regular</text>
            <text x="650.0" y="30.0">Black</text>
            <text id="template-version" fill="#505050" text-anchor="end" x="785.0" y="575.0">Template v.3.0</text>
            <a href="https://github.com/swhitty/SwiftDraw">
                <text fill="#505050" text-anchor="end" x="785.0" y="590.0">https://github.com/swhitty/SwiftDraw</text>
            </a>
        </g>
    </g>
    <g id="Guides" stroke="rgb(39, 170, 225)" stroke-width="0.5">
        <path id="Capline-S" d="M18,76 l800,0" />
        <path id="H-reference" d="M85,145.755 L87.685,145.755 L113.369,79.287 L114.052,79.287 L114.052,76 L112.148,76 L85,145.755 Z M95.693,121.536 L130.996,121.536 L130.263,119.313 L96.474,119.313 L95.693,121.536 Z M139.15,145.755 L141.787,145.755 L114.638,76 L113.466,76 L113.466,79.287 L139.15,145.755 Z" stroke="none" transform="translate(0,0)" />
        <path id="Baseline-S" d="M18,146 l800,0" />
        <path id="left-margin-Ultralight-S" d="M221,56 l0,110" />
        <path id="right-margin-Ultralight-S" d="M309,56 l0,110" />
        <path id="left-margin-Regular-S" d="M421,56 l0,110" />
        <path id="right-margin-Regular-S" d="M509,56 l0,110" />
        <path id="left-margin-Black-S" d="M621,56 l0,110" />
        <path id="right-margin-Black-S" d="M709,56 l0,110" />
        <path id="Capline-M" d="M18,276 l800,0" />
        <path id="Baseline-M" d="M18,346 l800,0" />
        <path id="Capline-L" d="M18,476 l800,0" />
        <path id="Baseline-L" d="M18,546 l800,0" />
    </g>
    <g id="Symbols">
        <g id="Ultralight-S" transform="translate(0,0)">
            <path d="M253.31,132.54 C253.31,130.558 254.918,128.95 256.9,128.95 C258.883,128.95 260.49,130.558 260.49,132.54 C260.49,134.523 258.883,136.13 256.9,136.13 C254.918,136.13 253.31,134.523 253.31,132.54 Z" />
            <path d="M278.441,132.54 C278.441,130.558 280.048,128.95 282.031,128.95 C284.013,128.95 285.621,130.558 285.621,132.54 C285.621,134.523 284.013,136.13 282.031,136.13 C280.048,136.13 278.441,134.523 278.441,132.54 Z" />
            <path d="M289.211,94.845 L249.397,94.845 L247.925,87.306 C247.752,86.457 246.997,85.852 246.13,85.87 L238.95,85.87 L238.95,89.46 L244.658,89.46 L251.515,123.924 C251.688,124.774 252.444,125.378 253.31,125.36 L285.621,125.36 L285.621,121.77 L254.782,121.77 L253.31,114.59 L285.621,114.59 C286.476,114.611 287.228,114.025 287.416,113.19 L291.006,97.035 C291.128,96.495 290.994,95.929 290.643,95.502 C290.292,95.074 289.764,94.831 289.211,94.845 Z M284.185,111 L252.628,111 L250.115,98.435 L286.967,98.435 Z" />
        </g>
        <g id="Regular-S" transform="translate(0,0)">
            <path d="M453.31,132.54 C453.31,130.558 454.918,128.95 456.9,128.95 C458.883,128.95 460.49,130.558 460.49,132.54 C460.49,134.523 458.883,136.13 456.9,136.13 C454.918,136.13 453.31,134.523 453.31,132.54 Z" />
            <path d="M478.441,132.54 C478.441,130.558 480.048,128.95 482.031,128.95 C484.013,128.95 485.621,130.558 485.621,132.54 C485.621,134.523 484.013,136.13 482.031,136.13 C480.048,136.13 478.441,134.523 478.441,132.54 Z" />
            <path d="M489.211,94.845 L449.397,94.845 L447.925,87.306 C447.752,86.457 446.997,85.852 446.13,85.87 L438.95,85.87 L438.95,89.46 L444.658,89.46 L451.515,123.924 C451.689,124.774 452.444,125.378 453.31,125.36 L485.621,125.36 L485.621,121.77 L454.782,121.77 L453.31,114.59 L485.621,114.59 C486.476,114.611 487.228,114.025 487.416,113.19 L491.006,97.035 C491.128,96.495 490.994,95.929 490.643,95.502 C490.292,95.074 489.764,94.831 489.211,94.845 Z M484.185,111 L452.628,111 L450.115,98.435 L486.967,98.435 Z" />
        </g>
        <g id="Black-S" transform="translate(0,0)">
            <path d="M653.31,132.54 C653.31,130.558 654.918,128.95 656.9,128.95 C658.883,128.95 660.49,130.558 660.49,132.54 C660.49,134.523 658.883,136.13 656.9,136.13 C654.918,136.13 653.31,134.523 653.31,132.54 Z" />
            <path d="M678.441,132.54 C678.441,130.558 680.048,128.95 682.031,128.95 C684.013,128.95 685.621,130.558 685.621,132.54 C685.621,134.523 684.013,136.13 682.031,136.13 C680.048,136.13 678.441,134.523 678.441,132.54 Z" />
            <path d="M689.211,94.845 L649.397,94.845 L647.925,87.306 C647.752,86.457 646.997,85.852 646.13,85.87 L638.95,85.87 L638.95,89.46 L644.658,89.46 L651.515,123.924 C651.688,124.774 652.444,125.378 653.31,125.36 L685.621,125.36 L685.621,121.77 L654.782,121.77 L653.31,114.59 L685.621,114.59 C686.476,114.611 687.228,114.025 687.416,113.19 L691.006,97.035 C691.128,96.495 690.994,95.929 690.643,95.502 C690.292,95.074 689.764,94.831 689.211,94.845 Z M684.185,111 L652.628,111 L650.115,98.435 L686.967,98.435 Z" />
        </g>
    </g>
</svg>