<?xml version="1.0" encoding="UTF-8"?>
<svg height="600" width="800" xmlns="http://www.w3.org/2000/svg" xmlns:xlink="http://www.w3.org/1999/xlink">
    <style>
        .cls-1 { fill: none }
    </style>
    <g id="Notes" font-family="LucidaGrande, 'Lucida Grande', sans-serif" font-size="13">
        <rect fill="white" height="600.0" width="800.0" x="0.0" y="0.0" />
        <g font-size="13">
            <text x="18.0" y="176.0">Small</text>
            <text x="18.0" y="376.0">Medium</text>
            <text x="18.0" y="576.0">Large</text>
        </g>
        <g font-size="9">
            <text x="250.0" y="30.0">Ultralight</text>
            <text x="450.0" y="30.0">Regular</text>
            <text x="650.0" y="30.0">Black</text>
            <text id="template-version" fill="#505050" text-anchor="end" x="785.0" y="575.0">Template v.3.0</text>
            <a href="https://github.com/swhitty/SwiftDraw">
                <text fill="#505050" text-anchor="end" x="785.0" y="590.0">https://github.com/swhitty/SwiftDraw</text>
            </a>
        </g>
    </g>
    <g id="Guides" stroke="rgb(39, 170, 225)" stroke-width="0.5">
        <path id="Capline-S" d="M18,76 l800,0" />
        <path id="H-reference" d="M85,145.755 L87.685,145.755 L113.369,79.287 L114.052,79.287 L114.052,76 L112.148,76 L85,145.755 Z M95.693,121.536 L130.996,121.536 L130.263,119.313 L96.474,119.313 L95.693,121.536 Z M139.15,145.755 L141.787,145.755 L114.638,76 L113.466,76 L113.466,79.287 L139.15,145.755 Z" stroke="none" transform="translate(0,0)" />
        <path id="Baseline-S" d="M18,146 l800,0" />
        <path id="left-margin-Ultralight-S" d="M221,56 l0,110" />
        <path id="right-margin-Ultralight-S" d="M309,56 l0,110" />
        <path id="left-margin-Regular-S" d="M421,56 l0,110" />
        <path id="right-margin-Regular-S" d="M509,56 l0,110" />
        <path id="left-margin-Black-S" d="M621,56 l0,110" />
        <path id="right-margin-Black-S" d="M709,56 l0,110" />
        <path id="Capline-M" d="M18,276 l800,0" />
        <path id="Baseline-M" d="M18,346 l800,0" />
        <path id="Capline-L" d="M18,476 l800,0" />
        <path id="Baseline-L" d="M18,546 l800,0" />
    </g>
    <g id="Symbols">
        <g id="Ultralight-S" transform="translate(0,0)">
            <path d="M279.667,113.75 L279.667,117.417 L276,117.417 L276,113.75 Z" />
            <path d="M287,97.25 L243,97.25 L243,91.75 L283.333,91.75 L283.333,88.083 L243,88.083 C242.028,88.083 241.095,88.47 240.407,89.157 C239.72,89.845 239.333,90.778 239.333,91.75 L239.333,130.25 C239.333,131.222 239.72,132.155 240.407,132.843 C241.095,133.53 242.028,133.917 243,133.917 L287,133.917 C287.972,133.917 288.905,133.53 289.593,132.843 C290.28,132.155 290.667,131.222 290.667,130.25 L290.667,100.917 C290.667,99.944 290.28,99.012 289.593,98.324 C288.905,97.636 287.972,97.25 287,97.25 Z M243,130.25 L243,100.917 L287,100.917 L287,106.417 L272.333,106.417 C271.361,106.417 270.428,106.803 269.741,107.491 C269.053,108.178 268.667,109.111 268.667,110.083 L268.667,121.083 C268.667,122.056 269.053,122.988 269.741,123.676 C270.428,124.364 271.361,124.75 272.333,124.75 L287,124.75 L287,130.25 Z M287,110.083 L287,121.083 L272.333,121.083 L272.333,110.083 Z" />
        </g>
        <g id="Regular-S" transform="translate(0,0)">
            <path d="M479.667,113.75 L479.667,117.417 L476,117.417 L476,113.75 Z" />
            <path d="M487,97.25 L443,97.25 L443,91.75 L483.333,91.75 L483.333,88.083 L443,88.083 C442.028,88.083 441.095,88.47 440.407,89.157 C439.72,89.845 439.333,90.778 439.333,91.75 L439.333,130.25 C439.333,131.222 439.72,132.155 440.407,132.843 C441.095,133.53 442.028,133.917 443,133.917 L487,133.917 C487.972,133.917 488.905,133.53 489.593,132.843 C490.28,132.155 490.667,131.222 490.667,130.25 L490.667,100.917 C490.667,99.944 490.28,99.012 489.593,98.324 C488.905,97.636 487.972,97.25 487,97.25 Z M443,130.25 L443,100.917 L487,100.917 L487,106.417 L472.333,106.417 C471.361,106.417 470.428,106.803 469.741,107.491 C469.053,108.178 468.667,109.111 468.667,110.083 L468.667,121.083 C468.667,122.056 469.053,122.988 469.741,123.676 C470.428,124.364 471.361,124.75 472.333,124.75 L487,124.75 L487,130.25 Z M487,110.083 L487,121.083 L472.333,121.083 L472.333,110.083 Z" />
        </g>
        <g id="Black-S" transform="translate(0,0)">
            <path d="M679.667,113.75 L679.667,117.417 L676,117.417 L676,113.75 Z" />
            <path d="M687,97.25 L643,97.25 L643,91.75 L683.333,91.75 L683.333,88.083 L643,88.083 C642.028,88.083 641.095,88.47 640.407,89.157 C639.72,89.845 639.333,90.778 639.333,91.75 L639.333,130.25 C639.333,131.222 639.72,132.155 640.407,132.843 C641.095,133.53 642.028,133.917 643,133.917 L687,133.917 C687.972,133.917 688.905,133.53 689.593,132.843 C690.28,132.155 690.667,131.222 690.667,130.25 L690.667,100.917 C690.667,99.944 690.28,99.012 689.593,98.324 C688.905,97.636 687.972,97.25 687,97.25 Z M643,130.25 L643,100.917 L687,100.917 L687,106.417 L672.333,106.417 C671.361,106.417 670.428,106.803 669.741,107.491 C669.053,108.178 668.667,109.111 668.667,110.083 L668.667,121.083 C668.667,122.056 669.053,122.988 669.741,123.676 C670.428,124.364 671.361,124.75 672.333,124.75 L687,124.75 L687,130.25 Z M687,110.083 L687,121.083 L672.333,121.083 L672.333,110.083 Z" />
        </g>
    </g>
</svg>