<?xml version="1.0" encoding="UTF-8"?>
<svg height="600" width="800" xmlns="http://www.w3.org/2000/svg" xmlns:xlink="http://www.w3.org/1999/xlink">
    <style>
        
    </style>
    <g id="Notes" font-family="LucidaGrande, 'Lucida Grande', sans-serif" font-size="13">
        <rect fill="white" height="600.0" width="800.0" x="0.0" y="0.0" />
        <g font-size="13">
            <text x="18.0" y="176.0">Small</text>
            <text x="18.0" y="376.0">Medium</text>
            <text x="18.0" y="576.0">Large</text>
        </g>
        <g font-size="9">
            <text x="250.0" y="30.0">Ultralight</text>
            <text x="450.0" y="30.0">Regular</text>
            <text x="650.0" y="30.0">Black</text>
            <text id="template-version" fill="#505050" text-anchor="end" x="785.0" y="575.0">Template v.3.0</text>
            <a href="https://github.com/swhitty/SwiftDraw">
                <text fill="#505050" text-anchor="end" x="785.0" y="590.0">https://github.com/swhitty/SwiftDraw</text>
            </a>
        </g>
    </g>
    <g id="Guides" stroke="rgb(39, 170, 225)" stroke-width="0.5">
        <path id="Capline-S" d="M18,76 l800,0" />
        <path id="H-reference" d="M85,145.755 L87.685,145.755 L113.369,79.287 L114.052,79.287 L114.052,76 L112.148,76 L85,145.755 Z M95.693,121.536 L130.996,121.536 L130.263,119.313 L96.474,119.313 L95.693,121.536 Z M139.15,145.755 L141.787,145.755 L114.638,76 L113.466,76 L113.466,79.287 L139.15,145.755 Z" stroke="none" transform="translate(0,0)" />
        <path id="Baseline-S" d="M18,146 l800,0" />
        <path id="left-margin-Ultralight-S" d="M221,56 l0,110" />
        <path id="right-margin-Ultralight-S" d="M309,56 l0,110" />
        <path id="left-margin-Regular-S" d="M421,56 l0,110" />
        <path id="right-margin-Regular-S" d="M509,56 l0,110" />
        <path id="left-margin-Black-S" d="M621,56 l0,110" />
        <path id="right-margin-Black-S" d="M709,56 l0,110" />
        <path id="Capline-M" d="M18,276 l800,0" />
        <path id="Baseline-M" d="M18,346 l800,0" />
        <path id="Capline-L" d="M18,476 l800,0" />
        <path id="Baseline-L" d="M18,546 l800,0" />
    </g>
    <g id="Symbols">
        <g id="Ultralight-S" transform="translate(0,0)">
            <path d="M279.894,104.461 C279.566,102.95 279.007,101.498 278.236,100.157 L288.692,89.701 L286.301,87.308 L241.308,132.301 L243.701,134.692 L252.162,126.231 L277.692,126.231 C283.338,126.233 288.069,121.959 288.637,116.341 C289.205,110.724 285.426,105.589 279.894,104.461 Z M277.692,122.846 L255.547,122.846 L275.732,102.661 C276.253,103.769 276.595,104.951 276.749,106.165 L276.916,107.539 L278.295,107.648 C282.37,107.97 285.463,111.453 285.301,115.537 C285.138,119.621 281.78,122.848 277.692,122.846 Z" />
            <path d="M245.194,123.605 L247.616,121.184 C245.143,119.259 244.11,116.012 245.016,113.012 C245.922,110.013 248.581,107.881 251.705,107.648 L253.085,107.539 L253.253,106.165 C253.741,102.155 256.242,98.671 259.887,96.927 C263.531,95.183 267.813,95.421 271.242,97.557 L273.684,95.116 C269.499,92.198 264.129,91.574 259.385,93.454 C254.642,95.335 251.158,99.468 250.108,104.461 C245.983,105.297 242.699,108.417 241.652,112.494 C240.606,116.57 241.982,120.886 245.194,123.605 Z" />
            <path d="M292.077,83.923 L292.077,138.077 L237.923,138.077 L237.923,83.923 Z" />
        </g>
        <g id="Regular-S" transform="translate(0,0)">
            <path d="M479.894,104.461 C479.566,102.95 479.007,101.498 478.236,100.157 L488.692,89.701 L486.301,87.308 L441.308,132.301 L443.701,134.692 L452.162,126.231 L477.692,126.231 C483.338,126.233 488.069,121.959 488.637,116.341 C489.205,110.724 485.426,105.589 479.894,104.461 Z M477.692,122.846 L455.547,122.846 L475.732,102.661 C476.253,103.769 476.595,104.951 476.749,106.165 L476.916,107.539 L478.295,107.648 C482.37,107.97 485.463,111.453 485.301,115.537 C485.138,119.621 481.78,122.848 477.692,122.846 Z" />
            <path d="M445.194,123.605 L447.616,121.184 C445.143,119.259 444.11,116.012 445.016,113.012 C445.922,110.013 448.581,107.881 451.705,107.648 L453.085,107.539 L453.253,106.165 C453.741,102.155 456.242,98.671 459.887,96.927 C463.531,95.183 467.813,95.421 471.242,97.557 L473.684,95.116 C469.499,92.198 464.129,91.574 459.385,93.454 C454.642,95.335 451.158,99.468 450.108,104.461 C445.983,105.297 442.699,108.417 441.652,112.494 C440.606,116.57 441.982,120.886 445.194,123.605 Z" />
            <path d="M492.077,83.923 L492.077,138.077 L437.923,138.077 L437.923,83.923 Z" />
        </g>
        <g id="Black-S" transform="translate(0,0)">
            <path d="M679.894,104.461 C679.566,102.95 679.007,101.498 678.236,100.157 L688.692,89.701 L686.301,87.308 L641.308,132.301 L643.701,134.692 L652.163,126.231 L677.692,126.231 C683.338,126.233 688.069,121.959 688.637,116.341 C689.205,110.724 685.426,105.589 679.894,104.461 Z M677.692,122.846 L655.547,122.846 L675.732,102.661 C676.253,103.769 676.596,104.951 676.749,106.165 L676.916,107.539 L678.295,107.648 C682.37,107.97 685.463,111.453 685.301,115.537 C685.138,119.621 681.78,122.848 677.692,122.846 Z" />
            <path d="M645.194,123.605 L647.616,121.184 C645.143,119.259 644.11,116.012 645.016,113.012 C645.922,110.013 648.581,107.881 651.705,107.648 L653.085,107.539 L653.253,106.165 C653.741,102.155 656.242,98.671 659.887,96.927 C663.531,95.183 667.813,95.421 671.242,97.557 L673.684,95.116 C669.499,92.198 664.129,91.574 659.385,93.454 C654.642,95.335 651.158,99.468 650.108,104.461 C645.983,105.297 642.699,108.417 641.653,112.494 C640.606,116.57 641.982,120.886 645.194,123.605 Z" />
            <path d="M692.077,83.923 L692.077,138.077 L637.923,138.077 L637.923,83.923 Z" />
        </g>
    </g>
</svg>