<?xml version="1.0" encoding="UTF-8"?>
<svg height="600" width="800" xmlns="http://www.w3.org/2000/svg" xmlns:xlink="http://www.w3.org/1999/xlink">
    <style>
        .cls-1 { fill: none }
    </style>
    <g id="Notes" font-family="LucidaGrande, 'Lucida Grande', sans-serif" font-size="13">
        <rect fill="white" height="600.0" width="800.0" x="0.0" y="0.0" />
        <g font-size="13">
            <text x="18.0" y="176.0">Small</text>
            <text x="18.0" y="376.0">Medium</text>
            <text x="18.0" y="576.0">Large</text>
        </g>
        <g font-size="9">
            <text x="250.0" y="30.0">Ultralight</text>
            <text x="450.0" y="30.0">Regular</text>
            <text x="650.0" y="30.0">Black</text>
            <text id="template-version" fill="#505050" text-anchor="end" x="785.0" y="575.0">Template v.3.0</text>
            <a href="https://github.com/swhitty/SwiftDraw">
                <text fill="#505050" text-anchor="end" x="785.0" y="590.0">https://github.com/swhitty/SwiftDraw</text>
            </a>
        </g>
    </g>
    <g id="Guides" stroke="rgb(39, 170, 225)" stroke-width="0.5">
        <path id="Capline-S" d="M18,76 l800,0" />
        <path id="H-reference" d="M85,145.755 L87.685,145.755 L113.369,79.287 L114.052,79.287 L114.052,76 L112.148,76 L85,145.755 Z M95.693,121.536 L130.996,121.536 L130.263,119.313 L96.474,119.313 L95.693,121.536 Z M139.15,145.755 L141.787,145.755 L114.638,76 L113.466,76 L113.466,79.287 L139.15,145.755 Z" stroke="none" transform="translate(0,0)" />
        <path id="Baseline-S" d="M18,146 l800,0" />
        <path id="left-margin-Ultralight-S" d="M221,56 l0,110" />
        <path id="right-margin-Ultralight-S" d="M309,56 l0,110" />
        <path id="left-margin-Regular-S" d="M421,56 l0,110" />
        <path id="right-margin-Regular-S" d="M509,56 l0,110" />
        <path id="left-margin-Black-S" d="M621,56 l0,110" />
        <path id="right-margin-Black-S" d="M709,56 l0,110" />
        <path id="Capline-M" d="M18,276 l800,0" />
        <path id="Baseline-M" d="M18,346 l800,0" />
        <path id="Capline-L" d="M18,476 l800,0" />
        <path id="Baseline-L" d="M18,546 l800,0" />
    </g>
    <g id="Symbols">
        <g id="Ultralight-S" transform="translate(0,0)">
            <path d="M256.145,92.667 L262.415,98.918 L263.478,100 L287,100 L287,129.333 L243,129.333 L243,92.667 L256.145,92.667 M256.145,89 L243,89 C242.028,89 241.095,89.386 240.407,90.074 C239.72,90.762 239.333,91.694 239.333,92.667 L239.333,129.333 C239.333,130.306 239.72,131.238 240.407,131.926 C241.095,132.614 242.028,133 243,133 L287,133 C287.972,133 288.905,132.614 289.593,131.926 C290.28,131.238 290.667,130.306 290.667,129.333 L290.667,100 C290.667,99.028 290.28,98.095 289.593,97.407 C288.905,96.72 287.972,96.333 287,96.333 L265,96.333 L258.748,90.082 C258.059,89.389 257.122,88.999 256.145,89 Z" />
        </g>
        <g id="Regular-S" transform="translate(0,0)">
            <path d="M456.145,92.667 L462.415,98.918 L463.478,100 L487,100 L487,129.333 L443,129.333 L443,92.667 L456.145,92.667 M456.145,89 L443,89 C442.028,89 441.095,89.386 440.407,90.074 C439.72,90.762 439.333,91.694 439.333,92.667 L439.333,129.333 C439.333,130.306 439.72,131.238 440.407,131.926 C441.095,132.614 442.028,133 443,133 L487,133 C487.972,133 488.905,132.614 489.593,131.926 C490.28,131.238 490.667,130.306 490.667,129.333 L490.667,100 C490.667,99.028 490.28,98.095 489.593,97.407 C488.905,96.72 487.972,96.333 487,96.333 L465,96.333 L458.748,90.082 C458.059,89.389 457.122,88.999 456.145,89 Z" />
        </g>
        <g id="Black-S" transform="translate(0,0)">
            <path d="M656.145,92.667 L662.415,98.918 L663.478,100 L687,100 L687,129.333 L643,129.333 L643,92.667 L656.145,92.667 M656.145,89 L643,89 C642.028,89 641.095,89.386 640.407,90.074 C639.72,90.762 639.333,91.694 639.333,92.667 L639.333,129.333 C639.333,130.306 639.72,131.238 640.407,131.926 C641.095,132.614 642.028,133 643,133 L687,133 C687.972,133 688.905,132.614 689.593,131.926 C690.28,131.238 690.667,130.306 690.667,129.333 L690.667,100 C690.667,99.028 690.28,98.095 689.593,97.407 C688.905,96.72 687.972,96.333 687,96.333 L665,96.333 L658.748,90.082 C658.059,89.389 657.122,88.999 656.145,89 Z" />
        </g>
    </g>
</svg>