<?xml version="1.0" encoding="UTF-8"?>
<svg height="600" width="800" xmlns="http://www.w3.org/2000/svg" xmlns:xlink="http://www.w3.org/1999/xlink">
    <style>
        .cls-1 { fill: none }
    </style>
    <g id="Notes" font-family="LucidaGrande, 'Lucida Grande', sans-serif" font-size="13">
        <rect fill="white" height="600.0" width="800.0" x="0.0" y="0.0" />
        <g font-size="13">
            <text x="18.0" y="176.0">Small</text>
            <text x="18.0" y="376.0">Medium</text>
            <text x="18.0" y="576.0">Large</text>
        </g>
        <g font-size="9">
            <text x="250.0" y="30.0">Ultralight</text>
            <text x="450.0" y="30.0">Regular</text>
            <text x="650.0" y="30.0">Black</text>
            <text id="template-version" fill="#505050" text-anchor="end" x="785.0" y="575.0">Template v.3.0</text>
            <a href="https://github.com/swhitty/SwiftDraw">
                <text fill="#505050" text-anchor="end" x="785.0" y="590.0">https://github.com/swhitty/SwiftDraw</text>
            </a>
        </g>
    </g>
    <g id="Guides" stroke="rgb(39, 170, 225)" stroke-width="0.5">
        <path id="Capline-S" d="M18,76 l800,0" />
        <path id="H-reference" d="M85,145.755 L87.685,145.755 L113.369,79.287 L114.052,79.287 L114.052,76 L112.148,76 L85,145.755 Z M95.693,121.536 L130.996,121.536 L130.263,119.313 L96.474,119.313 L95.693,121.536 Z M139.15,145.755 L141.787,145.755 L114.638,76 L113.466,76 L113.466,79.287 L139.15,145.755 Z" stroke="none" transform="translate(0,0)" />
        <path id="Baseline-S" d="M18,146 l800,0" />
        <path id="left-margin-Ultralight-S" d="M221,56 l0,110" />
        <path id="right-margin-Ultralight-S" d="M309,56 l0,110" />
        <path id="left-margin-Regular-S" d="M421,56 l0,110" />
        <path id="right-margin-Regular-S" d="M509,56 l0,110" />
        <path id="left-margin-Black-S" d="M621,56 l0,110" />
        <path id="right-margin-Black-S" d="M709,56 l0,110" />
        <path id="Capline-M" d="M18,276 l800,0" />
        <path id="Baseline-M" d="M18,346 l800,0" />
        <path id="Capline-L" d="M18,476 l800,0" />
        <path id="Baseline-L" d="M18,546 l800,0" />
    </g>
    <g id="Symbols">
        <g id="Ultralight-S" transform="translate(0,0)">
            <path d="M265,136.667 C250.825,136.667 239.333,125.175 239.333,111 C239.333,96.825 250.825,85.333 265,85.333 C279.175,85.333 290.667,96.825 290.667,111 C290.667,117.807 287.963,124.336 283.149,129.149 C278.336,133.963 271.807,136.667 265,136.667 Z M265,89 C252.85,89 243,98.85 243,111 C243,123.15 252.85,133 265,133 C277.15,133 287,123.15 287,111 C287,105.165 284.682,99.569 280.556,95.444 C276.431,91.318 270.835,89 265,89 Z" />
            <path d="M273.415,122 L263.167,111.752 L263.167,94.5 L266.833,94.5 L266.833,110.23 L276,119.415 L273.415,122 Z" />
        </g>
        <g id="Regular-S" transform="translate(0,0)">
            <path d="M465,136.667 C450.825,136.667 439.333,125.175 439.333,111 C439.333,96.825 450.825,85.333 465,85.333 C479.175,85.333 490.667,96.825 490.667,111 C490.667,117.807 487.962,124.336 483.149,129.149 C478.336,133.963 471.807,136.667 465,136.667 Z M465,89 C452.85,89 443,98.85 443,111 C443,123.15 452.85,133 465,133 C477.15,133 487,123.15 487,111 C487,105.165 484.682,99.569 480.556,95.444 C476.431,91.318 470.835,89 465,89 Z" />
            <path d="M473.415,122 L463.167,111.752 L463.167,94.5 L466.833,94.5 L466.833,110.23 L476,119.415 L473.415,122 Z" />
        </g>
        <g id="Black-S" transform="translate(0,0)">
            <path d="M665,136.667 C650.825,136.667 639.333,125.175 639.333,111 C639.333,96.825 650.825,85.333 665,85.333 C679.175,85.333 690.667,96.825 690.667,111 C690.667,117.807 687.963,124.336 683.149,129.149 C678.336,133.963 671.807,136.667 665,136.667 Z M665,89 C652.85,89 643,98.85 643,111 C643,123.15 652.85,133 665,133 C677.15,133 687,123.15 687,111 C687,105.165 684.682,99.569 680.556,95.444 C676.431,91.318 670.835,89 665,89 Z" />
            <path d="M673.415,122 L663.167,111.752 L663.167,94.5 L666.833,94.5 L666.833,110.23 L676,119.415 L673.415,122 Z" />
        </g>
    </g>
</svg>