<?xml version="1.0" encoding="UTF-8"?>
<svg height="600" width="800" xmlns="http://www.w3.org/2000/svg" xmlns:xlink="http://www.w3.org/1999/xlink">
    <style>
        .cls-1 { fill: none }
    </style>
    <g id="Notes" font-family="LucidaGrande, 'Lucida Grande', sans-serif" font-size="13">
        <rect fill="white" height="600.0" width="800.0" x="0.0" y="0.0" />
        <g font-size="13">
            <text x="18.0" y="176.0">Small</text>
            <text x="18.0" y="376.0">Medium</text>
            <text x="18.0" y="576.0">Large</text>
        </g>
        <g font-size="9">
            <text x="250.0" y="30.0">Ultralight</text>
            <text x="450.0" y="30.0">Regular</text>
            <text x="650.0" y="30.0">Black</text>
            <text id="template-version" fill="#505050" text-anchor="end" x="785.0" y="575.0">Template v.3.0</text>
            <a href="https://github.com/swhitty/SwiftDraw">
                <text fill="#505050" text-anchor="end" x="785.0" y="590.0">https://github.com/swhitty/SwiftDraw</text>
            </a>
        </g>
    </g>
    <g id="Guides" stroke="rgb(39, 170, 225)" stroke-width="0.5">
        <path id="Capline-S" d="M18,76 l800,0" />
        <path id="H-reference" d="M85,145.755 L87.685,145.755 L113.369,79.287 L114.052,79.287 L114.052,76 L112.148,76 L85,145.755 Z M95.693,121.536 L130.996,121.536 L130.263,119.313 L96.474,119.313 L95.693,121.536 Z M139.15,145.755 L141.787,145.755 L114.638,76 L113.466,76 L113.466,79.287 L139.15,145.755 Z" stroke="none" transform="translate(0,0)" />
        <path id="Baseline-S" d="M18,146 l800,0" />
        <path id="left-margin-Ultralight-S" d="M221,56 l0,110" />
        <path id="right-margin-Ultralight-S" d="M309,56 l0,110" />
        <path id="left-margin-Regular-S" d="M421,56 l0,110" />
        <path id="right-margin-Regular-S" d="M509,56 l0,110" />
        <path id="left-margin-Black-S" d="M621,56 l0,110" />
        <path id="right-margin-Black-S" d="M709,56 l0,110" />
        <path id="Capline-M" d="M18,276 l800,0" />
        <path id="Baseline-M" d="M18,346 l800,0" />
        <path id="Capline-L" d="M18,476 l800,0" />
        <path id="Baseline-L" d="M18,546 l800,0" />
    </g>
    <g id="Symbols">
        <g id="Ultralight-S" transform="translate(0,0)">
            <path d="M287,98.167 L281.5,98.167 L281.5,87.167 L248.5,87.167 L248.5,98.167 L243,98.167 C242.028,98.167 241.095,98.553 240.407,99.241 C239.72,99.928 239.333,100.861 239.333,101.833 L239.333,120.167 C239.333,121.139 239.72,122.072 240.407,122.759 C241.095,123.447 242.028,123.833 243,123.833 L248.5,123.833 L248.5,134.833 L281.5,134.833 L281.5,123.833 L287,123.833 C287.972,123.833 288.905,123.447 289.593,122.759 C290.28,122.072 290.667,121.139 290.667,120.167 L290.667,101.833 C290.667,100.861 290.28,99.928 289.593,99.241 C288.905,98.553 287.972,98.167 287,98.167 Z M252.167,90.833 L277.833,90.833 L277.833,98.167 L252.167,98.167 Z M277.833,131.167 L252.167,131.167 L252.167,112.833 L277.833,112.833 Z M287,120.167 L281.5,120.167 L281.5,109.167 L248.5,109.167 L248.5,120.167 L243,120.167 L243,101.833 L287,101.833 Z" />
        </g>
        <g id="Regular-S" transform="translate(0,0)">
            <path d="M487,98.167 L481.5,98.167 L481.5,87.167 L448.5,87.167 L448.5,98.167 L443,98.167 C442.028,98.167 441.095,98.553 440.407,99.241 C439.72,99.928 439.333,100.861 439.333,101.833 L439.333,120.167 C439.333,121.139 439.72,122.072 440.407,122.759 C441.095,123.447 442.028,123.833 443,123.833 L448.5,123.833 L448.5,134.833 L481.5,134.833 L481.5,123.833 L487,123.833 C487.972,123.833 488.905,123.447 489.593,122.759 C490.28,122.072 490.667,121.139 490.667,120.167 L490.667,101.833 C490.667,100.861 490.28,99.928 489.593,99.241 C488.905,98.553 487.972,98.167 487,98.167 Z M452.167,90.833 L477.833,90.833 L477.833,98.167 L452.167,98.167 Z M477.833,131.167 L452.167,131.167 L452.167,112.833 L477.833,112.833 Z M487,120.167 L481.5,120.167 L481.5,109.167 L448.5,109.167 L448.5,120.167 L443,120.167 L443,101.833 L487,101.833 Z" />
        </g>
        <g id="Black-S" transform="translate(0,0)">
            <path d="M687,98.167 L681.5,98.167 L681.5,87.167 L648.5,87.167 L648.5,98.167 L643,98.167 C642.028,98.167 641.095,98.553 640.407,99.241 C639.72,99.928 639.333,100.861 639.333,101.833 L639.333,120.167 C639.333,121.139 639.72,122.072 640.407,122.759 C641.095,123.447 642.028,123.833 643,123.833 L648.5,123.833 L648.5,134.833 L681.5,134.833 L681.5,123.833 L687,123.833 C687.972,123.833 688.905,123.447 689.593,122.759 C690.28,122.072 690.667,121.139 690.667,120.167 L690.667,101.833 C690.667,100.861 690.28,99.928 689.593,99.241 C688.905,98.553 687.972,98.167 687,98.167 Z M652.167,90.833 L677.833,90.833 L677.833,98.167 L652.167,98.167 Z M677.833,131.167 L652.167,131.167 L652.167,112.833 L677.833,112.833 Z M687,120.167 L681.5,120.167 L681.5,109.167 L648.5,109.167 L648.5,120.167 L643,120.167 L643,101.833 L687,101.833 Z" />
        </g>
    </g>
</svg>