<?xml version="1.0" encoding="UTF-8"?>
<svg height="600" width="800" xmlns="http://www.w3.org/2000/svg" xmlns:xlink="http://www.w3.org/1999/xlink">
    <style>
        
    </style>
    <g id="Notes" font-family="LucidaGrande, 'Lucida Grande', sans-serif" font-size="13">
        <rect fill="white" height="600.0" width="800.0" x="0.0" y="0.0" />
        <g font-size="13">
            <text x="18.0" y="176.0">Small</text>
            <text x="18.0" y="376.0">Medium</text>
            <text x="18.0" y="576.0">Large</text>
        </g>
        <g font-size="9">
            <text x="250.0" y="30.0">Ultralight</text>
            <text x="450.0" y="30.0">Regular</text>
            <text x="650.0" y="30.0">Black</text>
            <text id="template-version" fill="#505050" text-anchor="end" x="785.0" y="575.0">Template v.3.0</text>
            <a href="https://github.com/swhitty/SwiftDraw">
                <text fill="#505050" text-anchor="end" x="785.0" y="590.0">https://github.com/swhitty/SwiftDraw</text>
            </a>
        </g>
    </g>
    <g id="Guides" stroke="rgb(39, 170, 225)" stroke-width="0.5">
        <path id="Capline-S" d="M18,76 l800,0" />
        <path id="H-reference" d="M85,145.755 L87.685,145.755 L113.369,79.287 L114.052,79.287 L114.052,76 L112.148,76 L85,145.755 Z M95.693,121.536 L130.996,121.536 L130.263,119.313 L96.474,119.313 L95.693,121.536 Z M139.15,145.755 L141.787,145.755 L114.638,76 L113.466,76 L113.466,79.287 L139.15,145.755 Z" stroke="none" transform="translate(0,0)" />
        <path id="Baseline-S" d="M18,146 l800,0" />
        <path id="left-margin-Ultralight-S" d="M221,56 l0,110" />
        <path id="right-margin-Ultralight-S" d="M309,56 l0,110" />
        <path id="left-margin-Regular-S" d="M421,56 l0,110" />
        <path id="right-margin-Regular-S" d="M509,56 l0,110" />
        <path id="left-margin-Black-S" d="M621,56 l0,110" />
        <path id="right-margin-Black-S" d="M709,56 l0,110" />
        <path id="Capline-M" d="M18,276 l800,0" />
        <path id="Baseline-M" d="M18,346 l800,0" />
        <path id="Capline-L" d="M18,476 l800,0" />
        <path id="Baseline-L" d="M18,546 l800,0" />
    </g>
    <g id="Symbols">
        <g id="Ultralight-S" transform="translate(0,0)">
            <path d="M261.615,111.998 L257.232,107.615 L254.846,110.002 L261.615,116.771 L275.154,103.232 L272.768,100.846 L261.615,111.998 Z" />
            <path d="M265,134.692 L254.549,129.12 C248.477,125.89 244.685,119.57 244.692,112.692 L244.692,90.692 C244.694,88.824 246.208,87.31 248.077,87.308 L281.923,87.308 C283.792,87.31 285.306,88.824 285.308,90.692 L285.308,112.692 C285.315,119.57 281.524,125.889 275.452,129.12 Z M248.077,90.692 L248.077,112.692 C248.071,118.32 251.174,123.491 256.142,126.133 L265,130.856 L273.858,126.133 C278.827,123.49 281.929,118.32 281.923,112.692 L281.923,90.692 Z" />
            <path d="M292.077,83.923 L292.077,138.077 L237.923,138.077 L237.923,83.923 Z" />
        </g>
        <g id="Regular-S" transform="translate(0,0)">
            <path d="M461.615,111.998 L457.232,107.615 L454.846,110.002 L461.615,116.771 L475.154,103.232 L472.768,100.846 L461.615,111.998 Z" />
            <path d="M465,134.692 L454.549,129.12 C448.477,125.89 444.685,119.57 444.692,112.692 L444.692,90.692 C444.694,88.824 446.208,87.31 448.077,87.308 L481.923,87.308 C483.792,87.31 485.306,88.824 485.308,90.692 L485.308,112.692 C485.315,119.57 481.524,125.889 475.452,129.12 Z M448.077,90.692 L448.077,112.692 C448.071,118.32 451.174,123.491 456.142,126.133 L465,130.856 L473.858,126.133 C478.827,123.49 481.929,118.32 481.923,112.692 L481.923,90.692 Z" />
            <path d="M492.077,83.923 L492.077,138.077 L437.923,138.077 L437.923,83.923 Z" />
        </g>
        <g id="Black-S" transform="translate(0,0)">
            <path d="M661.615,111.998 L657.232,107.615 L654.846,110.002 L661.615,116.771 L675.154,103.232 L672.768,100.846 L661.615,111.998 Z" />
            <path d="M665,134.692 L654.549,129.12 C648.477,125.89 644.685,119.57 644.692,112.692 L644.692,90.692 C644.694,88.824 646.208,87.31 648.077,87.308 L681.923,87.308 C683.792,87.31 685.306,88.824 685.308,90.692 L685.308,112.692 C685.315,119.57 681.524,125.889 675.452,129.12 Z M648.077,90.692 L648.077,112.692 C648.071,118.32 651.174,123.491 656.142,126.133 L665,130.856 L673.858,126.133 C678.827,123.49 681.929,118.32 681.923,112.692 L681.923,90.692 Z" />
            <path d="M692.077,83.923 L692.077,138.077 L637.923,138.077 L637.923,83.923 Z" />
        </g>
    </g>
</svg>