<?xml version="1.0" encoding="UTF-8"?>
<svg height="600" width="800" xmlns="http://www.w3.org/2000/svg" xmlns:xlink="http://www.w3.org/1999/xlink">
    <style>
        .cls-1 { fill: none }
    </style>
    <g id="Notes" font-family="LucidaGrande, 'Lucida Grande', sans-serif" font-size="13">
        <rect fill="white" height="600.0" width="800.0" x="0.0" y="0.0" />
        <g font-size="13">
            <text x="18.0" y="176.0">Small</text>
            <text x="18.0" y="376.0">Medium</text>
            <text x="18.0" y="576.0">Large</text>
        </g>
        <g font-size="9">
            <text x="250.0" y="30.0">Ultralight</text>
            <text x="450.0" y="30.0">Regular</text>
            <text x="650.0" y="30.0">Black</text>
            <text id="template-version" fill="#505050" text-anchor="end" x="785.0" y="575.0">Template v.3.0</text>
            <a href="https://github.com/swhitty/SwiftDraw">
                <text fill="#505050" text-anchor="end" x="785.0" y="590.0">https://github.com/swhitty/SwiftDraw</text>
            </a>
        </g>
    </g>
    <g id="Guides" stroke="rgb(39, 170, 225)" stroke-width="0.5">
        <path id="Capline-S" d="M18,76 l800,0" />
        <path id="H-reference" d="M85,145.755 L87.685,145.755 L113.369,79.287 L114.052,79.287 L114.052,76 L112.148,76 L85,145.755 Z M95.693,121.536 L130.996,121.536 L130.263,119.313 L96.474,119.313 L95.693,121.536 Z M139.15,145.755 L141.787,145.755 L114.638,76 L113.466,76 L113.466,79.287 L139.15,145.755 Z" stroke="none" transform="translate(0,0)" />
        <path id="Baseline-S" d="M18,146 l800,0" />
        <path id="left-margin-Ultralight-S" d="M221,56 l0,110" />
        <path id="right-margin-Ultralight-S" d="M309,56 l0,110" />
        <path id="left-margin-Regular-S" d="M421,56 l0,110" />
        <path id="right-margin-Regular-S" d="M509,56 l0,110" />
        <path id="left-margin-Black-S" d="M621,56 l0,110" />
        <path id="right-margin-Black-S" d="M709,56 l0,110" />
        <path id="Capline-M" d="M18,276 l800,0" />
        <path id="Baseline-M" d="M18,346 l800,0" />
        <path id="Capline-L" d="M18,476 l800,0" />
        <path id="Baseline-L" d="M18,546 l800,0" />
    </g>
    <g id="Symbols">
        <g id="Ultralight-S" transform="translate(0,0)">
            <path d="M278.773,121.076 L251.227,121.076 C245.128,121.037 240.039,116.408 239.426,110.34 C238.812,104.272 242.872,98.717 248.839,97.459 C250.473,89.839 257.207,84.396 265,84.396 C272.793,84.396 279.527,89.839 281.161,97.459 C287.128,98.717 291.188,104.272 290.574,110.34 C289.961,116.408 284.872,121.037 278.773,121.076 Z M265,88.02 C258.516,88.026 253.052,92.861 252.255,99.296 L252.145,100.875 L250.565,100.875 C246.001,101.057 242.449,104.905 242.632,109.469 C242.815,114.034 246.662,117.586 251.227,117.403 L278.773,117.403 C283.338,117.586 287.185,114.034 287.368,109.47 C287.551,104.905 283.999,101.057 279.435,100.875 L277.855,100.875 L277.672,99.369 C276.913,92.933 271.481,88.068 265,88.02 Z" />
            <path d="M257.654,126.677 L255.726,124.749 L253.063,127.412 L250.4,124.749 L248.472,126.677 L251.135,129.34 L248.472,132.003 L250.4,133.931 L253.063,131.268 L255.726,133.931 L257.654,132.003 L254.991,129.34 L257.654,126.677 Z" />
            <path d="M283.365,126.677 L281.436,124.749 L278.773,127.412 L276.111,124.749 L274.182,126.677 L276.845,129.34 L274.182,132.003 L276.111,133.931 L278.773,131.268 L281.436,133.931 L283.365,132.003 L280.702,129.34 L283.365,126.677 Z" />
            <path d="M270.509,130.35 L268.581,128.422 L265.918,131.085 L263.255,128.422 L261.327,130.35 L263.99,133.013 L261.327,135.676 L263.255,137.604 L265.918,134.941 L268.581,137.604 L270.509,135.676 L267.846,133.013 L270.509,130.35 Z" />
        </g>
        <g id="Regular-S" transform="translate(0,0)">
            <path d="M478.773,121.076 L451.227,121.076 C445.128,121.037 440.039,116.408 439.426,110.34 C438.812,104.272 442.872,98.717 448.839,97.459 C450.473,89.839 457.207,84.396 465,84.396 C472.793,84.396 479.527,89.839 481.161,97.459 C487.128,98.717 491.188,104.272 490.574,110.34 C489.961,116.408 484.872,121.037 478.773,121.076 Z M465,88.02 C458.516,88.026 453.052,92.861 452.255,99.296 L452.145,100.875 L450.565,100.875 C446.001,101.057 442.449,104.905 442.632,109.469 C442.815,114.034 446.662,117.586 451.227,117.403 L478.773,117.403 C483.338,117.586 487.185,114.034 487.368,109.47 C487.551,104.905 483.999,101.057 479.435,100.875 L477.855,100.875 L477.672,99.369 C476.913,92.933 471.481,88.068 465,88.02 Z" />
            <path d="M457.654,126.677 L455.726,124.749 L453.063,127.412 L450.4,124.749 L448.472,126.677 L451.135,129.34 L448.472,132.003 L450.4,133.931 L453.063,131.268 L455.726,133.931 L457.654,132.003 L454.991,129.34 L457.654,126.677 Z" />
            <path d="M483.365,126.677 L481.436,124.749 L478.773,127.412 L476.111,124.749 L474.182,126.677 L476.845,129.34 L474.182,132.003 L476.111,133.931 L478.773,131.268 L481.436,133.931 L483.365,132.003 L480.702,129.34 L483.365,126.677 Z" />
            <path d="M470.509,130.35 L468.581,128.422 L465.918,131.085 L463.255,128.422 L461.327,130.35 L463.99,133.013 L461.327,135.676 L463.255,137.604 L465.918,134.941 L468.581,137.604 L470.509,135.676 L467.846,133.013 L470.509,130.35 Z" />
        </g>
        <g id="Black-S" transform="translate(0,0)">
            <path d="M678.773,121.076 L651.227,121.076 C645.128,121.037 640.039,116.408 639.426,110.34 C638.812,104.272 642.872,98.717 648.839,97.459 C650.473,89.839 657.207,84.396 665,84.396 C672.793,84.396 679.527,89.839 681.161,97.459 C687.128,98.717 691.188,104.272 690.574,110.34 C689.961,116.408 684.872,121.037 678.773,121.076 Z M665,88.02 C658.516,88.026 653.052,92.861 652.255,99.296 L652.145,100.875 L650.565,100.875 C646.001,101.057 642.449,104.905 642.632,109.469 C642.815,114.034 646.662,117.586 651.227,117.403 L678.773,117.403 C683.338,117.586 687.185,114.034 687.368,109.47 C687.551,104.905 683.999,101.057 679.435,100.875 L677.855,100.875 L677.672,99.369 C676.913,92.933 671.481,88.068 665,88.02 Z" />
            <path d="M657.654,126.677 L655.726,124.749 L653.063,127.412 L650.4,124.749 L648.472,126.677 L651.135,129.34 L648.472,132.003 L650.4,133.931 L653.063,131.268 L655.726,133.931 L657.654,132.003 L654.991,129.34 L657.654,126.677 Z" />
            <path d="M683.365,126.677 L681.436,124.749 L678.773,127.412 L676.111,124.749 L674.182,126.677 L676.845,129.34 L674.182,132.003 L676.111,133.931 L678.773,131.268 L681.436,133.931 L683.365,132.003 L680.702,129.34 L683.365,126.677 Z" />
            <path d="M670.509,130.35 L668.581,128.422 L665.918,131.085 L663.255,128.422 L661.327,130.35 L663.99,133.013 L661.327,135.676 L663.255,137.604 L665.918,134.941 L668.581,137.604 L670.509,135.676 L667.846,133.013 L670.509,130.35 Z" />
        </g>
    </g>
</svg>