<?xml version="1.0" encoding="UTF-8"?>
<svg height="600" width="800" xmlns="http://www.w3.org/2000/svg" xmlns:xlink="http://www.w3.org/1999/xlink">
    <style>
        .cls-1 { fill-rule: evenodd }
    </style>
    <g id="Notes" font-family="LucidaGrande, 'Lucida Grande', sans-serif" font-size="13">
        <rect fill="white" height="600.0" width="800.0" x="0.0" y="0.0" />
        <g font-size="13">
            <text x="18.0" y="176.0">Small</text>
            <text x="18.0" y="376.0">Medium</text>
            <text x="18.0" y="576.0">Large</text>
        </g>
        <g font-size="9">
            <text x="250.0" y="30.0">Ultralight</text>
            <text x="450.0" y="30.0">Regular</text>
            <text x="650.0" y="30.0">Black</text>
            <text id="template-version" fill="#505050" text-anchor="end" x="785.0" y="575.0">Template v.3.0</text>
            <a href="https://github.com/swhitty/SwiftDraw">
                <text fill="#505050" text-anchor="end" x="785.0" y="590.0">https://github.com/swhitty/SwiftDraw</text>
            </a>
        </g>
    </g>
    <g id="Guides" stroke="rgb(39, 170, 225)" stroke-width="0.5">
        <path id="Capline-S" d="M18,76 l800,0" />
        <path id="H-reference" d="M85,145.755 L87.685,145.755 L113.369,79.287 L114.052,79.287 L114.052,76 L112.148,76 L85,145.755 Z M95.693,121.536 L130.996,121.536 L130.263,119.313 L96.474,119.313 L95.693,121.536 Z M139.15,145.755 L141.787,145.755 L114.638,76 L113.466,76 L113.466,79.287 L139.15,145.755 Z" stroke="none" transform="translate(0,0)" />
        <path id="Baseline-S" d="M18,146 l800,0" />
        <path id="left-margin-Ultralight-S" d="M221,56 l0,110" />
        <path id="right-margin-Ultralight-S" d="M309,56 l0,110" />
        <path id="left-margin-Regular-S" d="M421,56 l0,110" />
        <path id="right-margin-Regular-S" d="M509,56 l0,110" />
        <path id="left-margin-Black-S" d="M621,56 l0,110" />
        <path id="right-margin-Black-S" d="M709,56 l0,110" />
        <path id="Capline-M" d="M18,276 l800,0" />
        <path id="Baseline-M" d="M18,346 l800,0" />
        <path id="Capline-L" d="M18,476 l800,0" />
        <path id="Baseline-L" d="M18,546 l800,0" />
    </g>
    <g id="Symbols">
        <g id="Ultralight-S" transform="translate(0,0)">
            <path d="M265,131.308 C264.62,131.307 264.241,131.282 263.864,131.233 C260.386,125.66 258.461,119.259 258.287,112.692 L288.608,112.692 C288.648,112.131 288.692,111.571 288.692,111 C288.692,97.915 278.085,87.308 265,87.308 C251.915,87.308 241.308,97.915 241.308,111 C241.308,124.085 251.915,134.692 265,134.692 Z M285.222,109.308 L275.091,109.308 C274.91,103.08 273.317,96.975 270.432,91.453 C278.606,93.734 284.502,100.853 285.222,109.308 Z M266.136,90.767 C269.614,96.34 271.539,102.741 271.713,109.308 L258.287,109.308 C258.461,102.741 260.386,96.34 263.864,90.767 C264.618,90.668 265.382,90.668 266.136,90.767 Z M259.568,91.452 C256.684,96.975 255.091,103.08 254.909,109.308 L244.778,109.308 C245.498,100.853 251.395,93.734 259.568,91.452 Z M244.778,112.692 L254.909,112.692 C255.091,118.92 256.684,125.025 259.568,130.548 C251.395,128.266 245.498,121.147 244.778,112.692 Z" />
            <path d="M280.231,126.231 L288.692,129.615 L288.692,126.231 L280.231,122 L280.231,117.769 C280.231,116.835 279.473,116.077 278.538,116.077 C277.604,116.077 276.846,116.835 276.846,117.769 L276.846,122 L268.385,126.231 L268.385,129.615 L276.846,126.231 L276.846,132.154 L273.462,134.692 L273.462,136.385 L278.538,134.692 L283.615,136.385 L283.615,134.692 L280.231,132.154 Z" />
            <path d="M292.077,83.923 L292.077,138.077 L237.923,138.077 L237.923,83.923 Z" />
        </g>
        <g id="Regular-S" transform="translate(0,0)">
            <path d="M465,131.308 C464.62,131.307 464.241,131.282 463.864,131.233 C460.386,125.66 458.461,119.259 458.287,112.692 L488.608,112.692 C488.648,112.131 488.692,111.571 488.692,111 C488.692,97.915 478.085,87.308 465,87.308 C451.915,87.308 441.308,97.915 441.308,111 C441.308,124.085 451.915,134.692 465,134.692 Z M485.222,109.308 L475.091,109.308 C474.91,103.08 473.317,96.975 470.432,91.453 C478.606,93.734 484.502,100.853 485.222,109.308 Z M466.136,90.767 C469.614,96.34 471.539,102.741 471.713,109.308 L458.287,109.308 C458.461,102.741 460.386,96.34 463.864,90.767 C464.618,90.668 465.382,90.668 466.136,90.767 Z M459.568,91.452 C456.684,96.975 455.091,103.08 454.909,109.308 L444.778,109.308 C445.498,100.853 451.395,93.734 459.568,91.452 Z M444.778,112.692 L454.909,112.692 C455.091,118.92 456.684,125.025 459.568,130.548 C451.395,128.266 445.498,121.147 444.778,112.692 Z" />
            <path d="M480.231,126.231 L488.692,129.615 L488.692,126.231 L480.231,122 L480.231,117.769 C480.231,116.835 479.473,116.077 478.538,116.077 C477.604,116.077 476.846,116.835 476.846,117.769 L476.846,122 L468.385,126.231 L468.385,129.615 L476.846,126.231 L476.846,132.154 L473.462,134.692 L473.462,136.385 L478.538,134.692 L483.615,136.385 L483.615,134.692 L480.231,132.154 Z" />
            <path d="M492.077,83.923 L492.077,138.077 L437.923,138.077 L437.923,83.923 Z" />
        </g>
        <g id="Black-S" transform="translate(0,0)">
            <path d="M665,131.308 C664.62,131.307 664.241,131.282 663.864,131.233 C660.386,125.66 658.461,119.259 658.287,112.692 L688.608,112.692 C688.648,112.131 688.692,111.571 688.692,111 C688.692,97.915 678.085,87.308 665,87.308 C651.915,87.308 641.308,97.915 641.308,111 C641.308,124.085 651.915,134.692 665,134.692 Z M685.222,109.308 L675.091,109.308 C674.91,103.08 673.317,96.975 670.432,91.453 C678.606,93.734 684.502,100.853 685.222,109.308 Z M666.136,90.767 C669.614,96.34 671.539,102.741 671.713,109.308 L658.287,109.308 C658.461,102.741 660.386,96.34 663.864,90.767 C664.618,90.668 665.382,90.668 666.136,90.767 Z M659.568,91.452 C656.684,96.975 655.091,103.08 654.909,109.308 L644.778,109.308 C645.498,100.853 651.395,93.734 659.568,91.452 Z M644.778,112.692 L654.909,112.692 C655.091,118.92 656.684,125.025 659.568,130.548 C651.395,128.266 645.498,121.147 644.778,112.692 Z" />
            <path d="M680.231,126.231 L688.692,129.615 L688.692,126.231 L680.231,122 L680.231,117.769 C680.231,116.835 679.473,116.077 678.538,116.077 C677.604,116.077 676.846,116.835 676.846,117.769 L676.846,122 L668.385,126.231 L668.385,129.615 L676.846,126.231 L676.846,132.154 L673.462,134.692 L673.462,136.385 L678.538,134.692 L683.615,136.385 L683.615,134.692 L680.231,132.154 Z" />
            <path d="M692.077,83.923 L692.077,138.077 L637.923,138.077 L637.923,83.923 Z" />
        </g>
    </g>
</svg>