<?xml version="1.0" encoding="UTF-8"?>
<svg height="600" width="800" xmlns="http://www.w3.org/2000/svg" xmlns:xlink="http://www.w3.org/1999/xlink">
    <style>
        .cls-1 { fill: none }
    </style>
    <g id="Notes" font-family="LucidaGrande, 'Lucida Grande', sans-serif" font-size="13">
        <rect fill="white" height="600.0" width="800.0" x="0.0" y="0.0" />
        <g font-size="13">
            <text x="18.0" y="176.0">Small</text>
            <text x="18.0" y="376.0">Medium</text>
            <text x="18.0" y="576.0">Large</text>
        </g>
        <g font-size="9">
            <text x="250.0" y="30.0">Ultralight</text>
            <text x="450.0" y="30.0">Regular</text>
            <text x="650.0" y="30.0">Black</text>
            <text id="template-version" fill="#505050" text-anchor="end" x="785.0" y="575.0">Template v.3.0</text>
            <a href="https://github.com/swhitty/SwiftDraw">
                <text fill="#505050" text-anchor="end" x="785.0" y="590.0">https://github.com/swhitty/SwiftDraw</text>
            </a>
        </g>
    </g>
    <g id="Guides" stroke="rgb(39, 170, 225)" stroke-width="0.5">
        <path id="Capline-S" d="M18,76 l800,0" />
        <path id="H-reference" d="M85,145.755 L87.685,145.755 L113.369,79.287 L114.052,79.287 L114.052,76 L112.148,76 L85,145.755 Z M95.693,121.536 L130.996,121.536 L130.263,119.313 L96.474,119.313 L95.693,121.536 Z M139.15,145.755 L141.787,145.755 L114.638,76 L113.466,76 L113.466,79.287 L139.15,145.755 Z" stroke="none" transform="translate(0,0)" />
        <path id="Baseline-S" d="M18,146 l800,0" />
        <path id="left-margin-Ultralight-S" d="M221,56 l0,110" />
        <path id="right-margin-Ultralight-S" d="M309,56 l0,110" />
        <path id="left-margin-Regular-S" d="M421,56 l0,110" />
        <path id="right-margin-Regular-S" d="M509,56 l0,110" />
        <path id="left-margin-Black-S" d="M621,56 l0,110" />
        <path id="right-margin-Black-S" d="M709,56 l0,110" />
        <path id="Capline-M" d="M18,276 l800,0" />
        <path id="Baseline-M" d="M18,346 l800,0" />
        <path id="Capline-L" d="M18,476 l800,0" />
        <path id="Baseline-L" d="M18,546 l800,0" />
    </g>
    <g id="Symbols">
        <g id="Ultralight-S" transform="translate(0,0)">
            <path d="M259.501,113.306 L259.501,92.663 C259.501,88.613 256.217,85.329 252.167,85.329 C248.117,85.329 244.834,88.613 244.834,92.663 L244.834,113.306 C240.232,116.51 238.244,122.33 239.923,127.68 C241.602,133.03 246.56,136.671 252.167,136.671 C257.774,136.671 262.732,133.03 264.412,127.68 C266.091,122.33 264.102,116.51 259.501,113.306 Z M252.167,88.996 C253.14,88.996 254.072,89.382 254.76,90.07 C255.448,90.758 255.834,91.69 255.834,92.663 L255.834,105.496 L248.501,105.496 L248.501,92.663 C248.501,91.69 248.887,90.758 249.575,90.07 C250.262,89.382 251.195,88.996 252.167,88.996 Z M252.167,132.996 C248.019,132.995 244.387,130.209 243.313,126.202 C242.24,122.194 243.991,117.965 247.584,115.891 L248.501,115.377 L248.501,109.163 L255.834,109.163 L255.834,115.377 L256.751,115.891 C260.343,117.965 262.095,122.194 261.021,126.202 C259.947,130.209 256.316,132.995 252.167,132.996 Z" />
            <path d="M290.667,88.996 L290.667,92.663 L272.334,92.663 L272.334,88.996 Z" />
            <path d="M285.167,99.996 L285.167,103.663 L272.334,103.663 L272.334,99.996 Z" />
            <path d="M290.667,110.996 L290.667,114.662 L272.334,114.662 L272.334,110.996 Z" />
            <path d="M285.167,121.996 L285.167,125.662 L272.334,125.662 L272.334,121.996 Z" />
        </g>
        <g id="Regular-S" transform="translate(0,0)">
            <path d="M459.501,113.306 L459.501,92.663 C459.501,88.613 456.217,85.329 452.167,85.329 C448.117,85.329 444.834,88.613 444.834,92.663 L444.834,113.306 C440.232,116.51 438.244,122.33 439.923,127.68 C441.602,133.03 446.56,136.671 452.167,136.671 C457.774,136.671 462.732,133.03 464.412,127.68 C466.091,122.33 464.102,116.51 459.501,113.306 Z M452.167,88.996 C453.14,88.996 454.072,89.382 454.76,90.07 C455.448,90.758 455.834,91.69 455.834,92.663 L455.834,105.496 L448.501,105.496 L448.501,92.663 C448.501,91.69 448.887,90.758 449.575,90.07 C450.262,89.382 451.195,88.996 452.167,88.996 Z M452.167,132.996 C448.019,132.995 444.387,130.209 443.313,126.202 C442.24,122.194 443.991,117.965 447.584,115.891 L448.501,115.377 L448.501,109.163 L455.834,109.163 L455.834,115.377 L456.751,115.891 C460.343,117.965 462.095,122.194 461.021,126.202 C459.947,130.209 456.316,132.995 452.167,132.996 Z" />
            <path d="M490.667,88.996 L490.667,92.663 L472.334,92.663 L472.334,88.996 Z" />
            <path d="M485.167,99.996 L485.167,103.663 L472.334,103.663 L472.334,99.996 Z" />
            <path d="M490.667,110.996 L490.667,114.662 L472.334,114.662 L472.334,110.996 Z" />
            <path d="M485.167,121.996 L485.167,125.662 L472.334,125.662 L472.334,121.996 Z" />
        </g>
        <g id="Black-S" transform="translate(0,0)">
            <path d="M659.501,113.306 L659.501,92.663 C659.501,88.613 656.217,85.329 652.167,85.329 C648.117,85.329 644.834,88.613 644.834,92.663 L644.834,113.306 C640.232,116.51 638.244,122.33 639.923,127.68 C641.602,133.03 646.56,136.671 652.167,136.671 C657.774,136.671 662.732,133.03 664.412,127.68 C666.091,122.33 664.102,116.51 659.501,113.306 Z M652.167,88.996 C653.14,88.996 654.072,89.382 654.76,90.07 C655.448,90.758 655.834,91.69 655.834,92.663 L655.834,105.496 L648.501,105.496 L648.501,92.663 C648.501,91.69 648.887,90.758 649.575,90.07 C650.262,89.382 651.195,88.996 652.167,88.996 Z M652.167,132.996 C648.019,132.995 644.387,130.209 643.313,126.202 C642.24,122.194 643.991,117.965 647.584,115.891 L648.501,115.377 L648.501,109.163 L655.834,109.163 L655.834,115.377 L656.751,115.891 C660.343,117.965 662.095,122.194 661.021,126.202 C659.947,130.209 656.316,132.995 652.167,132.996 Z" />
            <path d="M690.667,88.996 L690.667,92.663 L672.334,92.663 L672.334,88.996 Z" />
            <path d="M685.167,99.996 L685.167,103.663 L672.334,103.663 L672.334,99.996 Z" />
            <path d="M690.667,110.996 L690.667,114.662 L672.334,114.662 L672.334,110.996 Z" />
            <path d="M685.167,121.996 L685.167,125.662 L672.334,125.662 L672.334,121.996 Z" />
        </g>
    </g>
</svg>