<?xml version="1.0" encoding="UTF-8"?>
<svg height="600" width="800" xmlns="http://www.w3.org/2000/svg" xmlns:xlink="http://www.w3.org/1999/xlink">
    <style>
        .cls-1 { fill: none }
    </style>
    <g id="Notes" font-family="LucidaGrande, 'Lucida Grande', sans-serif" font-size="13">
        <rect fill="white" height="600.0" width="800.0" x="0.0" y="0.0" />
        <g font-size="13">
            <text x="18.0" y="176.0">Small</text>
            <text x="18.0" y="376.0">Medium</text>
            <text x="18.0" y="576.0">Large</text>
        </g>
        <g font-size="9">
            <text x="250.0" y="30.0">Ultralight</text>
            <text x="450.0" y="30.0">Regular</text>
            <text x="650.0" y="30.0">Black</text>
            <text id="template-version" fill="#505050" text-anchor="end" x="785.0" y="575.0">Template v.3.0</text>
            <a href="https://github.com/swhitty/SwiftDraw">
                <text fill="#505050" text-anchor="end" x="785.0" y="590.0">https://github.com/swhitty/SwiftDraw</text>
            </a>
        </g>
    </g>
    <g id="Guides" stroke="rgb(39, 170, 225)" stroke-width="0.5">
        <path id="Capline-S" d="M18,76 l800,0" />
        <path id="H-reference" d="M85,145.755 L87.685,145.755 L113.369,79.287 L114.052,79.287 L114.052,76 L112.148,76 L85,145.755 Z M95.693,121.536 L130.996,121.536 L130.263,119.313 L96.474,119.313 L95.693,121.536 Z M139.15,145.755 L141.787,145.755 L114.638,76 L113.466,76 L113.466,79.287 L139.15,145.755 Z" stroke="none" transform="translate(0,0)" />
        <path id="Baseline-S" d="M18,146 l800,0" />
        <path id="left-margin-Ultralight-S" d="M221,56 l0,110" />
        <path id="right-margin-Ultralight-S" d="M309,56 l0,110" />
        <path id="left-margin-Regular-S" d="M421,56 l0,110" />
        <path id="right-margin-Regular-S" d="M509,56 l0,110" />
        <path id="left-margin-Black-S" d="M621,56 l0,110" />
        <path id="right-margin-Black-S" d="M709,56 l0,110" />
        <path id="Capline-M" d="M18,276 l800,0" />
        <path id="Baseline-M" d="M18,346 l800,0" />
        <path id="Capline-L" d="M18,476 l800,0" />
        <path id="Baseline-L" d="M18,546 l800,0" />
    </g>
    <g id="Symbols">
        <g id="Ultralight-S" transform="translate(0,0)">
            <path d="M256.2,89.88 C261.06,89.88 265,93.82 265,98.68 C265,103.54 261.06,107.48 256.2,107.48 C251.34,107.48 247.4,103.54 247.4,98.68 C247.4,96.346 248.327,94.108 249.977,92.457 C251.628,90.807 253.866,89.88 256.2,89.88 M256.2,86.36 C249.396,86.36 243.88,91.876 243.88,98.68 C243.88,105.484 249.396,111 256.2,111 C263.004,111 268.52,105.484 268.52,98.68 C268.52,95.413 267.222,92.279 264.912,89.968 C262.601,87.658 259.467,86.36 256.2,86.36 Z" />
            <path d="M273.8,135.64 L270.28,135.64 L270.28,126.84 C270.28,124.506 269.353,122.268 267.703,120.617 C266.052,118.967 263.814,118.04 261.48,118.04 L250.92,118.04 C248.586,118.04 246.348,118.967 244.697,120.617 C243.047,122.268 242.12,124.506 242.12,126.84 L242.12,135.64 L238.6,135.64 L238.6,126.84 C238.6,123.573 239.898,120.439 242.208,118.128 C244.519,115.818 247.653,114.52 250.92,114.52 L261.48,114.52 C264.747,114.52 267.881,115.818 270.192,118.128 C272.502,120.439 273.8,123.573 273.8,126.84 Z" />
            <path d="M279.08,111.317 L274.522,106.758 L272.04,109.24 L279.08,116.28 L291.4,103.96 L288.918,101.478 L279.08,111.317 Z" />
        </g>
        <g id="Regular-S" transform="translate(0,0)">
            <path d="M456.2,89.88 C461.06,89.88 465,93.82 465,98.68 C465,103.54 461.06,107.48 456.2,107.48 C451.34,107.48 447.4,103.54 447.4,98.68 C447.4,96.346 448.327,94.108 449.977,92.457 C451.628,90.807 453.866,89.88 456.2,89.88 M456.2,86.36 C449.396,86.36 443.88,91.876 443.88,98.68 C443.88,105.484 449.396,111 456.2,111 C463.004,111 468.52,105.484 468.52,98.68 C468.52,95.413 467.222,92.279 464.912,89.968 C462.601,87.658 459.467,86.36 456.2,86.36 Z" />
            <path d="M473.8,135.64 L470.28,135.64 L470.28,126.84 C470.28,124.506 469.353,122.268 467.703,120.617 C466.052,118.967 463.814,118.04 461.48,118.04 L450.92,118.04 C448.586,118.04 446.348,118.967 444.697,120.617 C443.047,122.268 442.12,124.506 442.12,126.84 L442.12,135.64 L438.6,135.64 L438.6,126.84 C438.6,123.573 439.898,120.439 442.208,118.128 C444.519,115.818 447.653,114.52 450.92,114.52 L461.48,114.52 C464.747,114.52 467.881,115.818 470.192,118.128 C472.502,120.439 473.8,123.573 473.8,126.84 Z" />
            <path d="M479.08,111.317 L474.522,106.758 L472.04,109.24 L479.08,116.28 L491.4,103.96 L488.918,101.478 L479.08,111.317 Z" />
        </g>
        <g id="Black-S" transform="translate(0,0)">
            <path d="M656.2,89.88 C661.06,89.88 665,93.82 665,98.68 C665,103.54 661.06,107.48 656.2,107.48 C651.34,107.48 647.4,103.54 647.4,98.68 C647.4,96.346 648.327,94.108 649.977,92.457 C651.628,90.807 653.866,89.88 656.2,89.88 M656.2,86.36 C649.396,86.36 643.88,91.876 643.88,98.68 C643.88,105.484 649.396,111 656.2,111 C663.004,111 668.52,105.484 668.52,98.68 C668.52,95.413 667.222,92.279 664.912,89.968 C662.601,87.658 659.467,86.36 656.2,86.36 Z" />
            <path d="M673.8,135.64 L670.28,135.64 L670.28,126.84 C670.28,124.506 669.353,122.268 667.703,120.617 C666.052,118.967 663.814,118.04 661.48,118.04 L650.92,118.04 C648.586,118.04 646.348,118.967 644.697,120.617 C643.047,122.268 642.12,124.506 642.12,126.84 L642.12,135.64 L638.6,135.64 L638.6,126.84 C638.6,123.573 639.898,120.439 642.208,118.128 C644.519,115.818 647.653,114.52 650.92,114.52 L661.48,114.52 C664.747,114.52 667.881,115.818 670.192,118.128 C672.502,120.439 673.8,123.573 673.8,126.84 Z" />
            <path d="M679.08,111.317 L674.522,106.758 L672.04,109.24 L679.08,116.28 L691.4,103.96 L688.918,101.478 L679.08,111.317 Z" />
        </g>
    </g>
</svg>