<?xml version="1.0" encoding="UTF-8"?>
<svg height="600" width="800" xmlns="http://www.w3.org/2000/svg" xmlns:xlink="http://www.w3.org/1999/xlink">
    <style>
        .cls-1 { fill: none }
    </style>
    <g id="Notes" font-family="LucidaGrande, 'Lucida Grande', sans-serif" font-size="13">
        <rect fill="white" height="600.0" width="800.0" x="0.0" y="0.0" />
        <g font-size="13">
            <text x="18.0" y="176.0">Small</text>
            <text x="18.0" y="376.0">Medium</text>
            <text x="18.0" y="576.0">Large</text>
        </g>
        <g font-size="9">
            <text x="250.0" y="30.0">Ultralight</text>
            <text x="450.0" y="30.0">Regular</text>
            <text x="650.0" y="30.0">Black</text>
            <text id="template-version" fill="#505050" text-anchor="end" x="785.0" y="575.0">Template v.3.0</text>
            <a href="https://github.com/swhitty/SwiftDraw">
                <text fill="#505050" text-anchor="end" x="785.0" y="590.0">https://github.com/swhitty/SwiftDraw</text>
            </a>
        </g>
    </g>
    <g id="Guides" stroke="rgb(39, 170, 225)" stroke-width="0.5">
        <path id="Capline-S" d="M18,76 l800,0" />
        <path id="H-reference" d="M85,145.755 L87.685,145.755 L113.369,79.287 L114.052,79.287 L114.052,76 L112.148,76 L85,145.755 Z M95.693,121.536 L130.996,121.536 L130.263,119.313 L96.474,119.313 L95.693,121.536 Z M139.15,145.755 L141.787,145.755 L114.638,76 L113.466,76 L113.466,79.287 L139.15,145.755 Z" stroke="none" transform="translate(0,0)" />
        <path id="Baseline-S" d="M18,146 l800,0" />
        <path id="left-margin-Ultralight-S" d="M221,56 l0,110" />
        <path id="right-margin-Ultralight-S" d="M309,56 l0,110" />
        <path id="left-margin-Regular-S" d="M421,56 l0,110" />
        <path id="right-margin-Regular-S" d="M509,56 l0,110" />
        <path id="left-margin-Black-S" d="M621,56 l0,110" />
        <path id="right-margin-Black-S" d="M709,56 l0,110" />
        <path id="Capline-M" d="M18,276 l800,0" />
        <path id="Baseline-M" d="M18,346 l800,0" />
        <path id="Capline-L" d="M18,476 l800,0" />
        <path id="Baseline-L" d="M18,546 l800,0" />
    </g>
    <g id="Symbols">
        <g id="Ultralight-S" transform="translate(0,0)">
            <path d="M291.4,110.998 L279.08,123.318 L276.598,120.836 L286.419,110.998 L276.598,101.16 L279.08,98.678 L291.4,110.998 Z" />
            <path d="M238.6,110.998 L250.92,98.678 L253.402,101.16 L243.581,110.998 L253.402,120.836 L250.92,123.318 L238.6,110.998 Z" />
            <path d="M267.884,93.4 L271.284,94.311 L262.097,128.6 L258.697,127.689 Z" />
        </g>
        <g id="Regular-S" transform="translate(0,0)">
            <path d="M491.4,110.998 L479.08,123.318 L476.598,120.836 L486.419,110.998 L476.598,101.16 L479.08,98.678 L491.4,110.998 Z" />
            <path d="M438.6,110.998 L450.92,98.678 L453.402,101.16 L443.581,110.998 L453.402,120.836 L450.92,123.318 L438.6,110.998 Z" />
            <path d="M467.884,93.4 L471.284,94.311 L462.097,128.6 L458.697,127.689 Z" />
        </g>
        <g id="Black-S" transform="translate(0,0)">
            <path d="M691.4,110.998 L679.08,123.318 L676.598,120.836 L686.419,110.998 L676.598,101.16 L679.08,98.678 L691.4,110.998 Z" />
            <path d="M638.6,110.998 L650.92,98.678 L653.402,101.16 L643.581,110.998 L653.402,120.836 L650.92,123.318 L638.6,110.998 Z" />
            <path d="M667.884,93.4 L671.285,94.311 L662.097,128.6 L658.697,127.689 Z" />
        </g>
    </g>
</svg>