<?xml version="1.0" encoding="UTF-8"?>
<svg height="600" width="800" xmlns="http://www.w3.org/2000/svg" xmlns:xlink="http://www.w3.org/1999/xlink">
    <style>
        .cls-1 { fill: none }
    </style>
    <g id="Notes" font-family="LucidaGrande, 'Lucida Grande', sans-serif" font-size="13">
        <rect fill="white" height="600.0" width="800.0" x="0.0" y="0.0" />
        <g font-size="13">
            <text x="18.0" y="176.0">Small</text>
            <text x="18.0" y="376.0">Medium</text>
            <text x="18.0" y="576.0">Large</text>
        </g>
        <g font-size="9">
            <text x="250.0" y="30.0">Ultralight</text>
            <text x="450.0" y="30.0">Regular</text>
            <text x="650.0" y="30.0">Black</text>
            <text id="template-version" fill="#505050" text-anchor="end" x="785.0" y="575.0">Template v.3.0</text>
            <a href="https://github.com/swhitty/SwiftDraw">
                <text fill="#505050" text-anchor="end" x="785.0" y="590.0">https://github.com/swhitty/SwiftDraw</text>
            </a>
        </g>
    </g>
    <g id="Guides" stroke="rgb(39, 170, 225)" stroke-width="0.5">
        <path id="Capline-S" d="M18,76 l800,0" />
        <path id="H-reference" d="M85,145.755 L87.685,145.755 L113.369,79.287 L114.052,79.287 L114.052,76 L112.148,76 L85,145.755 Z M95.693,121.536 L130.996,121.536 L130.263,119.313 L96.474,119.313 L95.693,121.536 Z M139.15,145.755 L141.787,145.755 L114.638,76 L113.466,76 L113.466,79.287 L139.15,145.755 Z" stroke="none" transform="translate(0,0)" />
        <path id="Baseline-S" d="M18,146 l800,0" />
        <path id="left-margin-Ultralight-S" d="M221,56 l0,110" />
        <path id="right-margin-Ultralight-S" d="M309,56 l0,110" />
        <path id="left-margin-Regular-S" d="M421,56 l0,110" />
        <path id="right-margin-Regular-S" d="M509,56 l0,110" />
        <path id="left-margin-Black-S" d="M621,56 l0,110" />
        <path id="right-margin-Black-S" d="M709,56 l0,110" />
        <path id="Capline-M" d="M18,276 l800,0" />
        <path id="Baseline-M" d="M18,346 l800,0" />
        <path id="Capline-L" d="M18,476 l800,0" />
        <path id="Baseline-L" d="M18,546 l800,0" />
    </g>
    <g id="Symbols">
        <g id="Ultralight-S" transform="translate(0,0)">
            <path d="M266.833,85.333 L266.833,90.833 L263.167,90.833 L263.167,85.333 Z" />
            <path d="M290.667,109.167 L290.667,112.833 L285.167,112.833 L285.167,109.167 Z" />
            <path d="M266.833,131.167 L266.833,136.667 L263.167,136.667 L263.167,131.167 Z" />
            <path d="M244.833,109.167 L244.833,112.833 L239.333,112.833 L239.333,109.167 Z" />
            <path d="M248.251,91.694 L252.14,95.583 L249.547,98.176 L245.658,94.286 Z" />
            <path d="M281.722,91.676 L284.315,94.269 L280.425,98.158 L277.833,95.565 Z" />
            <path d="M280.43,123.837 L284.319,127.727 L281.727,130.319 L277.838,126.43 Z" />
            <path d="M245.695,127.738 L249.582,123.833 L252.167,126.437 L248.28,130.323 L245.695,127.738 Z" />
            <path d="M265,96.333 C256.9,96.333 250.333,102.9 250.333,111 C250.333,119.1 256.9,125.667 265,125.667 C273.1,125.667 279.667,119.1 279.667,111 C279.667,107.11 278.121,103.38 275.371,100.629 C272.62,97.879 268.89,96.333 265,96.333 Z M265,122 C258.925,122 254,117.075 254,111 C254,104.925 258.925,100 265,100 Z" />
        </g>
        <g id="Regular-S" transform="translate(0,0)">
            <path d="M466.833,85.333 L466.833,90.833 L463.167,90.833 L463.167,85.333 Z" />
            <path d="M490.667,109.167 L490.667,112.833 L485.167,112.833 L485.167,109.167 Z" />
            <path d="M466.833,131.167 L466.833,136.667 L463.167,136.667 L463.167,131.167 Z" />
            <path d="M444.833,109.167 L444.833,112.833 L439.333,112.833 L439.333,109.167 Z" />
            <path d="M448.251,91.694 L452.14,95.583 L449.547,98.176 L445.658,94.286 Z" />
            <path d="M481.722,91.676 L484.314,94.269 L480.425,98.158 L477.833,95.565 Z" />
            <path d="M480.43,123.837 L484.319,127.727 L481.727,130.319 L477.838,126.43 Z" />
            <path d="M445.695,127.738 L449.582,123.833 L452.167,126.437 L448.28,130.323 L445.695,127.738 Z" />
            <path d="M465,96.333 C456.9,96.333 450.333,102.9 450.333,111 C450.333,119.1 456.9,125.667 465,125.667 C473.1,125.667 479.667,119.1 479.667,111 C479.667,107.11 478.121,103.38 475.371,100.629 C472.62,97.879 468.89,96.333 465,96.333 Z M465,122 C458.925,122 454,117.075 454,111 C454,104.925 458.925,100 465,100 Z" />
        </g>
        <g id="Black-S" transform="translate(0,0)">
            <path d="M666.833,85.333 L666.833,90.833 L663.167,90.833 L663.167,85.333 Z" />
            <path d="M690.667,109.167 L690.667,112.833 L685.167,112.833 L685.167,109.167 Z" />
            <path d="M666.833,131.167 L666.833,136.667 L663.167,136.667 L663.167,131.167 Z" />
            <path d="M644.833,109.167 L644.833,112.833 L639.333,112.833 L639.333,109.167 Z" />
            <path d="M648.251,91.694 L652.14,95.583 L649.547,98.176 L645.658,94.286 Z" />
            <path d="M681.722,91.676 L684.315,94.269 L680.425,98.158 L677.833,95.565 Z" />
            <path d="M680.43,123.837 L684.319,127.727 L681.727,130.319 L677.838,126.43 Z" />
            <path d="M645.695,127.738 L649.582,123.833 L652.167,126.437 L648.28,130.323 L645.695,127.738 Z" />
            <path d="M665,96.333 C656.9,96.333 650.333,102.9 650.333,111 C650.333,119.1 656.9,125.667 665,125.667 C673.1,125.667 679.667,119.1 679.667,111 C679.667,107.11 678.121,103.38 675.371,100.629 C672.62,97.879 668.89,96.333 665,96.333 Z M665,122 C658.925,122 654,117.075 654,111 C654,104.925 658.925,100 665,100 Z" />
        </g>
    </g>
</svg>