<?xml version="1.0" encoding="UTF-8"?>
<svg height="600" width="800" xmlns="http://www.w3.org/2000/svg" xmlns:xlink="http://www.w3.org/1999/xlink">
    <style>
        .cls-2 { fill: none }
    </style>
    <g id="Notes" font-family="LucidaGrande, 'Lucida Grande', sans-serif" font-size="13">
        <rect fill="white" height="600.0" width="800.0" x="0.0" y="0.0" />
        <g font-size="13">
            <text x="18.0" y="176.0">Small</text>
            <text x="18.0" y="376.0">Medium</text>
            <text x="18.0" y="576.0">Large</text>
        </g>
        <g font-size="9">
            <text x="250.0" y="30.0">Ultralight</text>
            <text x="450.0" y="30.0">Regular</text>
            <text x="650.0" y="30.0">Black</text>
            <text id="template-version" fill="#505050" text-anchor="end" x="785.0" y="575.0">Template v.3.0</text>
            <a href="https://github.com/swhitty/SwiftDraw">
                <text fill="#505050" text-anchor="end" x="785.0" y="590.0">https://github.com/swhitty/SwiftDraw</text>
            </a>
        </g>
    </g>
    <g id="Guides" stroke="rgb(39, 170, 225)" stroke-width="0.5">
        <path id="Capline-S" d="M18,76 l800,0" />
        <path id="H-reference" d="M85,145.755 L87.685,145.755 L113.369,79.287 L114.052,79.287 L114.052,76 L112.148,76 L85,145.755 Z M95.693,121.536 L130.996,121.536 L130.263,119.313 L96.474,119.313 L95.693,121.536 Z M139.15,145.755 L141.787,145.755 L114.638,76 L113.466,76 L113.466,79.287 L139.15,145.755 Z" stroke="none" transform="translate(0,0)" />
        <path id="Baseline-S" d="M18,146 l800,0" />
        <path id="left-margin-Ultralight-S" d="M221,56 l0,110" />
        <path id="right-margin-Ultralight-S" d="M309,56 l0,110" />
        <path id="left-margin-Regular-S" d="M421,56 l0,110" />
        <path id="right-margin-Regular-S" d="M509,56 l0,110" />
        <path id="left-margin-Black-S" d="M621,56 l0,110" />
        <path id="right-margin-Black-S" d="M709,56 l0,110" />
        <path id="Capline-M" d="M18,276 l800,0" />
        <path id="Baseline-M" d="M18,346 l800,0" />
        <path id="Capline-L" d="M18,476 l800,0" />
        <path id="Baseline-L" d="M18,546 l800,0" />
    </g>
    <g id="Symbols">
        <g id="Ultralight-S" transform="translate(0,0)">
            <path d="M249.785,90.285 C247.682,91.899 245.829,93.814 244.285,95.968 L247.218,98.168 C248.565,96.301 250.17,94.634 251.985,93.218 Z" />
            <path d="M244.102,104.218 L240.618,103.118 C239.733,105.65 239.298,108.319 239.335,111.001 L243.002,111.001 C242.994,108.695 243.366,106.404 244.101,104.218 Z" />
            <path d="M240.618,119.068 C241.469,121.624 242.705,124.035 244.285,126.217 L247.218,124.017 C245.893,122.162 244.843,120.124 244.102,117.968 Z" />
            <path d="M249.968,131.717 C252.15,133.297 254.562,134.534 257.118,135.384 L258.218,131.901 C256.061,131.159 254.024,130.109 252.168,128.784 Z" />
            <path d="M257.118,86.618 L258.218,90.102 C260.403,89.366 262.695,88.994 265.001,89.002 L265.001,85.335 C262.319,85.298 259.65,85.733 257.118,86.618 Z" />
            <path d="M280.034,131.717 C282.193,130.108 284.108,128.193 285.717,126.034 L282.784,123.834 C281.421,125.748 279.748,127.421 277.834,128.784 Z" />
            <path d="M285.901,117.784 L289.384,118.884 C290.181,116.33 290.613,113.676 290.667,111.001 L287.001,111.001 C287.008,113.307 286.636,115.598 285.901,117.784 Z" />
            <path d="M289.2,102.935 C288.35,100.378 287.114,97.967 285.534,95.785 L282.601,97.985 C283.926,99.84 284.976,101.878 285.717,104.035 Z" />
            <path d="M279.851,90.102 C277.668,88.522 275.257,87.285 272.701,86.435 L271.601,89.918 C273.757,90.66 275.795,91.71 277.651,93.035 Z" />
            <path d="M272.884,135.384 L271.784,131.901 C269.599,132.636 267.307,133.008 265.001,133.001 L265.001,136.667 C267.666,136.508 270.307,136.078 272.884,135.384 Z" />
        </g>
        <g id="Regular-S" transform="translate(0,0)">
            <path d="M449.785,90.285 C447.682,91.899 445.829,93.814 444.285,95.968 L447.218,98.168 C448.565,96.301 450.17,94.634 451.985,93.218 Z" />
            <path d="M444.102,104.218 L440.618,103.118 C439.733,105.65 439.298,108.319 439.335,111.001 L443.002,111.001 C442.994,108.695 443.366,106.404 444.102,104.218 Z" />
            <path d="M440.618,119.068 C441.469,121.624 442.705,124.035 444.285,126.217 L447.218,124.017 C445.893,122.162 444.843,120.124 444.102,117.968 Z" />
            <path d="M449.968,131.717 C452.15,133.297 454.562,134.534 457.118,135.384 L458.218,131.901 C456.061,131.159 454.024,130.109 452.168,128.784 Z" />
            <path d="M457.118,86.618 L458.218,90.102 C460.403,89.366 462.695,88.994 465.001,89.002 L465.001,85.335 C462.319,85.298 459.65,85.733 457.118,86.618 Z" />
            <path d="M480.034,131.717 C482.193,130.108 484.108,128.193 485.717,126.034 L482.784,123.834 C481.421,125.748 479.748,127.421 477.834,128.784 Z" />
            <path d="M485.901,117.784 L489.384,118.884 C490.181,116.33 490.613,113.676 490.667,111.001 L487.001,111.001 C487.008,113.307 486.636,115.598 485.901,117.784 Z" />
            <path d="M489.201,102.935 C488.35,100.378 487.114,97.967 485.534,95.785 L482.601,97.985 C483.926,99.84 484.976,101.878 485.717,104.035 Z" />
            <path d="M479.851,90.102 C477.668,88.522 475.257,87.285 472.701,86.435 L471.601,89.918 C473.757,90.66 475.795,91.71 477.651,93.035 Z" />
            <path d="M472.884,135.384 L471.784,131.901 C469.599,132.636 467.307,133.008 465.001,133.001 L465.001,136.667 C467.666,136.508 470.307,136.078 472.884,135.384 Z" />
        </g>
        <g id="Black-S" transform="translate(0,0)">
            <path d="M649.785,90.285 C647.682,91.899 645.829,93.814 644.285,95.968 L647.218,98.168 C648.565,96.301 650.169,94.634 651.985,93.218 Z" />
            <path d="M644.102,104.218 L640.618,103.118 C639.733,105.65 639.298,108.319 639.335,111.001 L643.002,111.001 C642.994,108.695 643.366,106.404 644.102,104.218 Z" />
            <path d="M640.618,119.068 C641.469,121.624 642.705,124.035 644.285,126.217 L647.218,124.017 C645.893,122.162 644.843,120.124 644.102,117.968 Z" />
            <path d="M649.968,131.717 C652.15,133.297 654.562,134.534 657.118,135.384 L658.218,131.901 C656.061,131.159 654.024,130.109 652.168,128.784 Z" />
            <path d="M657.118,86.618 L658.218,90.102 C660.403,89.366 662.695,88.994 665.001,89.002 L665.001,85.335 C662.319,85.298 659.65,85.733 657.118,86.618 Z" />
            <path d="M680.034,131.717 C682.193,130.108 684.108,128.193 685.717,126.034 L682.784,123.834 C681.421,125.748 679.748,127.421 677.834,128.784 Z" />
            <path d="M685.901,117.784 L689.384,118.884 C690.181,116.33 690.613,113.676 690.667,111.001 L687.001,111.001 C687.008,113.307 686.636,115.598 685.901,117.784 Z" />
            <path d="M689.201,102.935 C688.35,100.378 687.114,97.967 685.534,95.785 L682.601,97.985 C683.926,99.84 684.976,101.878 685.717,104.035 Z" />
            <path d="M679.851,90.102 C677.669,88.522 675.257,87.285 672.701,86.435 L671.601,89.918 C673.757,90.66 675.795,91.71 677.651,93.035 Z" />
            <path d="M672.884,135.384 L671.784,131.901 C669.599,132.636 667.307,133.008 665.001,133.001 L665.001,136.667 C667.666,136.508 670.307,136.078 672.884,135.384 Z" />
        </g>
    </g>
</svg>