<?xml version="1.0" encoding="UTF-8"?>
<svg height="600" width="800" xmlns="http://www.w3.org/2000/svg" xmlns:xlink="http://www.w3.org/1999/xlink">
    <style>
        
    </style>
    <g id="Notes" font-family="LucidaGrande, 'Lucida Grande', sans-serif" font-size="13">
        <rect fill="white" height="600.0" width="800.0" x="0.0" y="0.0" />
        <g font-size="13">
            <text x="18.0" y="176.0">Small</text>
            <text x="18.0" y="376.0">Medium</text>
            <text x="18.0" y="576.0">Large</text>
        </g>
        <g font-size="9">
            <text x="250.0" y="30.0">Ultralight</text>
            <text x="450.0" y="30.0">Regular</text>
            <text x="650.0" y="30.0">Black</text>
            <text id="template-version" fill="#505050" text-anchor="end" x="785.0" y="575.0">Template v.3.0</text>
            <a href="https://github.com/swhitty/SwiftDraw">
                <text fill="#505050" text-anchor="end" x="785.0" y="590.0">https://github.com/swhitty/SwiftDraw</text>
            </a>
        </g>
    </g>
    <g id="Guides" stroke="rgb(39, 170, 225)" stroke-width="0.5">
        <path id="Capline-S" d="M18,76 l800,0" />
        <path id="H-reference" d="M85,145.755 L87.685,145.755 L113.369,79.287 L114.052,79.287 L114.052,76 L112.148,76 L85,145.755 Z M95.693,121.536 L130.996,121.536 L130.263,119.313 L96.474,119.313 L95.693,121.536 Z M139.15,145.755 L141.787,145.755 L114.638,76 L113.466,76 L113.466,79.287 L139.15,145.755 Z" stroke="none" transform="translate(0,0)" />
        <path id="Baseline-S" d="M18,146 l800,0" />
        <path id="left-margin-Ultralight-S" d="M221,56 l0,110" />
        <path id="right-margin-Ultralight-S" d="M309,56 l0,110" />
        <path id="left-margin-Regular-S" d="M421,56 l0,110" />
        <path id="right-margin-Regular-S" d="M509,56 l0,110" />
        <path id="left-margin-Black-S" d="M621,56 l0,110" />
        <path id="right-margin-Black-S" d="M709,56 l0,110" />
        <path id="Capline-M" d="M18,276 l800,0" />
        <path id="Baseline-M" d="M18,346 l800,0" />
        <path id="Capline-L" d="M18,476 l800,0" />
        <path id="Baseline-L" d="M18,546 l800,0" />
    </g>
    <g id="Symbols">
        <g id="Ultralight-S" transform="translate(0,0)">
            <path d="M263.308,100.846 L263.308,104.231 L251.462,104.231 L251.462,100.846 Z" />
            <path d="M286.009,97.462 L277.547,89 L275.154,91.393 L280.231,96.47 L280.231,104.231 C280.233,106.099 281.747,107.613 283.615,107.615 L283.615,125.385 C283.615,126.787 282.479,127.923 281.077,127.923 C279.675,127.923 278.538,126.787 278.538,125.385 L278.538,111 C278.538,110.551 278.36,110.121 278.043,109.803 C277.725,109.486 277.295,109.308 276.846,109.308 L270.077,109.308 L270.077,92.385 C270.077,91.936 269.899,91.505 269.581,91.188 C269.264,90.871 268.833,90.692 268.385,90.692 L246.385,90.692 C245.936,90.692 245.505,90.871 245.188,91.188 C244.871,91.505 244.692,91.936 244.692,92.385 L244.692,127.923 L241.308,127.923 L241.308,131.308 L273.462,131.308 L273.462,127.923 L270.077,127.923 L270.077,112.692 L275.154,112.692 L275.154,125.215 C275.113,128.058 277.063,130.544 279.834,131.181 C281.583,131.553 283.407,131.115 284.798,129.99 C286.189,128.865 286.998,127.173 287,125.385 L287,99.855 C287,98.957 286.643,98.096 286.008,97.461 Z M266.692,127.923 L248.077,127.923 L248.077,94.077 L266.692,94.077 Z" />
            <path d="M292.077,83.923 L292.077,138.077 L237.923,138.077 L237.923,83.923 Z" />
        </g>
        <g id="Regular-S" transform="translate(0,0)">
            <path d="M463.308,100.846 L463.308,104.231 L451.462,104.231 L451.462,100.846 Z" />
            <path d="M486.009,97.462 L477.547,89 L475.154,91.393 L480.231,96.47 L480.231,104.231 C480.233,106.099 481.747,107.613 483.615,107.615 L483.615,125.385 C483.615,126.787 482.479,127.923 481.077,127.923 C479.675,127.923 478.538,126.787 478.538,125.385 L478.538,111 C478.538,110.551 478.36,110.121 478.043,109.803 C477.725,109.486 477.295,109.308 476.846,109.308 L470.077,109.308 L470.077,92.385 C470.077,91.936 469.899,91.505 469.581,91.188 C469.264,90.871 468.833,90.692 468.385,90.692 L446.385,90.692 C445.936,90.692 445.505,90.871 445.188,91.188 C444.871,91.505 444.692,91.936 444.692,92.385 L444.692,127.923 L441.308,127.923 L441.308,131.308 L473.462,131.308 L473.462,127.923 L470.077,127.923 L470.077,112.692 L475.154,112.692 L475.154,125.215 C475.113,128.058 477.063,130.544 479.834,131.181 C481.583,131.553 483.407,131.115 484.798,129.99 C486.189,128.865 486.998,127.173 487,125.385 L487,99.855 C487,98.957 486.643,98.096 486.008,97.461 Z M466.692,127.923 L448.077,127.923 L448.077,94.077 L466.692,94.077 Z" />
            <path d="M492.077,83.923 L492.077,138.077 L437.923,138.077 L437.923,83.923 Z" />
        </g>
        <g id="Black-S" transform="translate(0,0)">
            <path d="M663.308,100.846 L663.308,104.231 L651.462,104.231 L651.462,100.846 Z" />
            <path d="M686.009,97.462 L677.547,89 L675.154,91.393 L680.231,96.47 L680.231,104.231 C680.233,106.099 681.747,107.613 683.615,107.615 L683.615,125.385 C683.615,126.787 682.479,127.923 681.077,127.923 C679.675,127.923 678.538,126.787 678.538,125.385 L678.538,111 C678.538,110.551 678.36,110.121 678.043,109.803 C677.725,109.486 677.295,109.308 676.846,109.308 L670.077,109.308 L670.077,92.385 C670.077,91.936 669.899,91.505 669.581,91.188 C669.264,90.871 668.833,90.692 668.385,90.692 L646.385,90.692 C645.936,90.692 645.505,90.871 645.188,91.188 C644.871,91.505 644.692,91.936 644.692,92.385 L644.692,127.923 L641.308,127.923 L641.308,131.308 L673.462,131.308 L673.462,127.923 L670.077,127.923 L670.077,112.692 L675.154,112.692 L675.154,125.215 C675.113,128.058 677.063,130.544 679.834,131.181 C681.583,131.553 683.407,131.115 684.798,129.99 C686.189,128.865 686.998,127.173 687,125.385 L687,99.855 C687,98.957 686.643,98.096 686.008,97.461 Z M666.692,127.923 L648.077,127.923 L648.077,94.077 L666.692,94.077 Z" />
            <path d="M692.077,83.923 L692.077,138.077 L637.923,138.077 L637.923,83.923 Z" />
        </g>
    </g>
</svg>