<?xml version="1.0" encoding="UTF-8"?>
<svg height="600" width="800" xmlns="http://www.w3.org/2000/svg" xmlns:xlink="http://www.w3.org/1999/xlink">
    <style>
        .cls-1 { fill: none }
    </style>
    <g id="Notes" font-family="LucidaGrande, 'Lucida Grande', sans-serif" font-size="13">
        <rect fill="white" height="600.0" width="800.0" x="0.0" y="0.0" />
        <g font-size="13">
            <text x="18.0" y="176.0">Small</text>
            <text x="18.0" y="376.0">Medium</text>
            <text x="18.0" y="576.0">Large</text>
        </g>
        <g font-size="9">
            <text x="250.0" y="30.0">Ultralight</text>
            <text x="450.0" y="30.0">Regular</text>
            <text x="650.0" y="30.0">Black</text>
            <text id="template-version" fill="#505050" text-anchor="end" x="785.0" y="575.0">Template v.3.0</text>
            <a href="https://github.com/swhitty/SwiftDraw">
                <text fill="#505050" text-anchor="end" x="785.0" y="590.0">https://github.com/swhitty/SwiftDraw</text>
            </a>
        </g>
    </g>
    <g id="Guides" stroke="rgb(39, 170, 225)" stroke-width="0.5">
        <path id="Capline-S" d="M18,76 l800,0" />
        <path id="H-reference" d="M85,145.755 L87.685,145.755 L113.369,79.287 L114.052,79.287 L114.052,76 L112.148,76 L85,145.755 Z M95.693,121.536 L130.996,121.536 L130.263,119.313 L96.474,119.313 L95.693,121.536 Z M139.15,145.755 L141.787,145.755 L114.638,76 L113.466,76 L113.466,79.287 L139.15,145.755 Z" stroke="none" transform="translate(0,0)" />
        <path id="Baseline-S" d="M18,146 l800,0" />
        <path id="left-margin-Ultralight-S" d="M221,56 l0,110" />
        <path id="right-margin-Ultralight-S" d="M309,56 l0,110" />
        <path id="left-margin-Regular-S" d="M421,56 l0,110" />
        <path id="right-margin-Regular-S" d="M509,56 l0,110" />
        <path id="left-margin-Black-S" d="M621,56 l0,110" />
        <path id="right-margin-Black-S" d="M709,56 l0,110" />
        <path id="Capline-M" d="M18,276 l800,0" />
        <path id="Baseline-M" d="M18,346 l800,0" />
        <path id="Capline-L" d="M18,476 l800,0" />
        <path id="Baseline-L" d="M18,546 l800,0" />
    </g>
    <g id="Symbols">
        <g id="Ultralight-S" transform="translate(0,0)">
            <path d="M287,98.167 L283.333,122 L279.667,98.167 L276,98.167 L280.613,123.833 L286.054,123.833 L290.667,98.167 L287,98.167 Z" />
            <path d="M268.667,123.833 L257.667,123.833 L257.667,120.167 L268.667,120.167 L268.667,112.833 L261.333,112.833 C259.309,112.831 257.669,111.191 257.667,109.167 L257.667,101.833 C257.669,99.809 259.309,98.169 261.333,98.167 L272.333,98.167 L272.333,101.833 L261.333,101.833 L261.333,109.167 L268.667,109.167 C270.691,109.169 272.331,110.809 272.333,112.833 L272.333,120.167 C272.331,122.191 270.691,123.831 268.667,123.833 Z" />
            <path d="M254,123.833 L243,123.833 C240.976,123.831 239.336,122.191 239.333,120.167 L239.333,101.833 C239.335,99.809 240.976,98.169 243,98.167 L254,98.167 L254,101.833 L243,101.833 L243,120.167 L254,120.167 Z" />
        </g>
        <g id="Regular-S" transform="translate(0,0)">
            <path d="M487,98.167 L483.333,122 L479.667,98.167 L476,98.167 L480.613,123.833 L486.054,123.833 L490.667,98.167 L487,98.167 Z" />
            <path d="M468.667,123.833 L457.667,123.833 L457.667,120.167 L468.667,120.167 L468.667,112.833 L461.333,112.833 C459.309,112.831 457.669,111.191 457.667,109.167 L457.667,101.833 C457.669,99.809 459.309,98.169 461.333,98.167 L472.333,98.167 L472.333,101.833 L461.333,101.833 L461.333,109.167 L468.667,109.167 C470.691,109.169 472.331,110.809 472.333,112.833 L472.333,120.167 C472.331,122.191 470.691,123.831 468.667,123.833 Z" />
            <path d="M454,123.833 L443,123.833 C440.976,123.831 439.336,122.191 439.333,120.167 L439.333,101.833 C439.335,99.809 440.976,98.169 443,98.167 L454,98.167 L454,101.833 L443,101.833 L443,120.167 L454,120.167 Z" />
        </g>
        <g id="Black-S" transform="translate(0,0)">
            <path d="M687,98.167 L683.333,122 L679.667,98.167 L676,98.167 L680.613,123.833 L686.054,123.833 L690.667,98.167 L687,98.167 Z" />
            <path d="M668.667,123.833 L657.667,123.833 L657.667,120.167 L668.667,120.167 L668.667,112.833 L661.333,112.833 C659.309,112.831 657.669,111.191 657.667,109.167 L657.667,101.833 C657.669,99.809 659.309,98.169 661.333,98.167 L672.333,98.167 L672.333,101.833 L661.333,101.833 L661.333,109.167 L668.667,109.167 C670.691,109.169 672.331,110.809 672.333,112.833 L672.333,120.167 C672.331,122.191 670.691,123.831 668.667,123.833 Z" />
            <path d="M654,123.833 L643,123.833 C640.976,123.831 639.336,122.191 639.333,120.167 L639.333,101.833 C639.335,99.809 640.976,98.169 643,98.167 L654,98.167 L654,101.833 L643,101.833 L643,120.167 L654,120.167 Z" />
        </g>
    </g>
</svg>