<?xml version="1.0" encoding="UTF-8"?>
<svg height="600" width="800" xmlns="http://www.w3.org/2000/svg" xmlns:xlink="http://www.w3.org/1999/xlink">
    <style>
        .st0 { fill: none }
    </style>
    <g id="Notes" font-family="LucidaGrande, 'Lucida Grande', sans-serif" font-size="13">
        <rect fill="white" height="600.0" width="800.0" x="0.0" y="0.0" />
        <g font-size="13">
            <text x="18.0" y="176.0">Small</text>
            <text x="18.0" y="376.0">Medium</text>
            <text x="18.0" y="576.0">Large</text>
        </g>
        <g font-size="9">
            <text x="250.0" y="30.0">Ultralight</text>
            <text x="450.0" y="30.0">Regular</text>
            <text x="650.0" y="30.0">Black</text>
            <text id="template-version" fill="#505050" text-anchor="end" x="785.0" y="575.0">Template v.3.0</text>
            <a href="https://github.com/swhitty/SwiftDraw">
                <text fill="#505050" text-anchor="end" x="785.0" y="590.0">https://github.com/swhitty/SwiftDraw</text>
            </a>
        </g>
    </g>
    <g id="Guides" stroke="rgb(39, 170, 225)" stroke-width="0.5">
        <path id="Capline-S" d="M18,76 l800,0" />
        <path id="H-reference" d="M85,145.755 L87.685,145.755 L113.369,79.287 L114.052,79.287 L114.052,76 L112.148,76 L85,145.755 Z M95.693,121.536 L130.996,121.536 L130.263,119.313 L96.474,119.313 L95.693,121.536 Z M139.15,145.755 L141.787,145.755 L114.638,76 L113.466,76 L113.466,79.287 L139.15,145.755 Z" stroke="none" transform="translate(0,0)" />
        <path id="Baseline-S" d="M18,146 l800,0" />
        <path id="left-margin-Ultralight-S" d="M221,56 l0,110" />
        <path id="right-margin-Ultralight-S" d="M309,56 l0,110" />
        <path id="left-margin-Regular-S" d="M421,56 l0,110" />
        <path id="right-margin-Regular-S" d="M509,56 l0,110" />
        <path id="left-margin-Black-S" d="M621,56 l0,110" />
        <path id="right-margin-Black-S" d="M709,56 l0,110" />
        <path id="Capline-M" d="M18,276 l800,0" />
        <path id="Baseline-M" d="M18,346 l800,0" />
        <path id="Capline-L" d="M18,476 l800,0" />
        <path id="Baseline-L" d="M18,546 l800,0" />
    </g>
    <g id="Symbols">
        <g id="Ultralight-S" transform="translate(0,0)">
            <path d="M287.137,116.306 L259.694,88.863 C255.121,84.106 247.62,84.106 242.863,88.68 C238.106,93.254 238.106,100.938 242.863,105.511 C242.863,105.511 243.046,105.694 243.046,105.694 L248.168,111 L250.73,108.439 L245.424,103.133 C242.314,100.023 242.314,94.717 245.424,91.607 C248.534,88.497 253.84,88.314 256.95,91.424 C256.95,91.424 256.95,91.424 257.133,91.607 L284.393,118.867 C287.686,121.977 287.686,127.283 284.576,130.393 C281.466,133.686 276.16,133.686 273.05,130.576 C273.05,130.576 273.05,130.576 272.867,130.393 L259.328,116.854 C257.499,115.025 257.682,112.098 259.328,110.451 C261.158,108.805 263.902,108.805 265.732,110.451 L273.233,117.952 L275.794,115.391 C275.794,115.391 268.11,107.707 268.11,107.707 C264.817,104.597 259.694,104.78 256.584,108.073 C253.657,111.183 253.657,116.123 256.584,119.416 L270.306,133.137 C274.879,137.894 282.38,137.894 287.137,133.32 C291.894,128.746 291.894,121.062 287.137,116.306 C287.137,116.489 287.137,116.306 287.137,116.306 L287.137,116.306 Z" />
        </g>
        <g id="Regular-S" transform="translate(0,0)">
            <path d="M487.137,116.306 L459.694,88.863 C455.121,84.106 447.62,84.106 442.863,88.68 C438.106,93.254 438.106,100.938 442.863,105.511 C442.863,105.511 443.046,105.694 443.046,105.694 L448.168,111 L450.73,108.439 L445.424,103.133 C442.314,100.023 442.314,94.717 445.424,91.607 C448.534,88.497 453.84,88.314 456.95,91.424 C456.95,91.424 456.95,91.424 457.133,91.607 L484.393,118.867 C487.686,121.977 487.686,127.283 484.576,130.393 C481.466,133.686 476.16,133.686 473.05,130.576 C473.05,130.576 473.05,130.576 472.867,130.393 L459.328,116.854 C457.499,115.025 457.682,112.098 459.328,110.451 C461.158,108.805 463.902,108.805 465.732,110.451 L473.233,117.952 L475.794,115.391 C475.794,115.391 468.11,107.707 468.11,107.707 C464.817,104.597 459.694,104.78 456.584,108.073 C453.657,111.183 453.657,116.123 456.584,119.416 L470.306,133.137 C474.879,137.894 482.38,137.894 487.137,133.32 C491.894,128.746 491.894,121.062 487.137,116.306 C487.137,116.489 487.137,116.306 487.137,116.306 L487.137,116.306 Z" />
        </g>
        <g id="Black-S" transform="translate(0,0)">
            <path d="M687.137,116.306 L659.694,88.863 C655.121,84.106 647.62,84.106 642.863,88.68 C638.106,93.254 638.106,100.938 642.863,105.511 C642.863,105.511 643.046,105.694 643.046,105.694 L648.168,111 L650.73,108.439 L645.424,103.133 C642.314,100.023 642.314,94.717 645.424,91.607 C648.534,88.497 653.84,88.314 656.95,91.424 C656.95,91.424 656.95,91.424 657.133,91.607 L684.393,118.867 C687.686,121.977 687.686,127.283 684.576,130.393 C681.466,133.686 676.16,133.686 673.05,130.576 C673.05,130.576 673.05,130.576 672.867,130.393 L659.328,116.854 C657.499,115.025 657.682,112.098 659.328,110.451 C661.158,108.805 663.902,108.805 665.732,110.451 L673.233,117.952 L675.794,115.391 C675.794,115.391 668.11,107.707 668.11,107.707 C664.817,104.597 659.694,104.78 656.584,108.073 C653.657,111.183 653.657,116.123 656.584,119.416 L670.306,133.137 C674.879,137.894 682.38,137.894 687.137,133.32 C691.894,128.746 691.894,121.062 687.137,116.306 C687.137,116.489 687.137,116.306 687.137,116.306 L687.137,116.306 Z" />
        </g>
    </g>
</svg>