<?xml version="1.0" encoding="UTF-8"?>
<svg height="600" width="800" xmlns="http://www.w3.org/2000/svg" xmlns:xlink="http://www.w3.org/1999/xlink">
    <style>
        
    </style>
    <g id="Notes" font-family="LucidaGrande, 'Lucida Grande', sans-serif" font-size="13">
        <rect fill="white" height="600.0" width="800.0" x="0.0" y="0.0" />
        <g font-size="13">
            <text x="18.0" y="176.0">Small</text>
            <text x="18.0" y="376.0">Medium</text>
            <text x="18.0" y="576.0">Large</text>
        </g>
        <g font-size="9">
            <text x="250.0" y="30.0">Ultralight</text>
            <text x="450.0" y="30.0">Regular</text>
            <text x="650.0" y="30.0">Black</text>
            <text id="template-version" fill="#505050" text-anchor="end" x="785.0" y="575.0">Template v.3.0</text>
            <a href="https://github.com/swhitty/SwiftDraw">
                <text fill="#505050" text-anchor="end" x="785.0" y="590.0">https://github.com/swhitty/SwiftDraw</text>
            </a>
        </g>
    </g>
    <g id="Guides" stroke="rgb(39, 170, 225)" stroke-width="0.5">
        <path id="Capline-S" d="M18,76 l800,0" />
        <path id="H-reference" d="M85,145.755 L87.685,145.755 L113.369,79.287 L114.052,79.287 L114.052,76 L112.148,76 L85,145.755 Z M95.693,121.536 L130.996,121.536 L130.263,119.313 L96.474,119.313 L95.693,121.536 Z M139.15,145.755 L141.787,145.755 L114.638,76 L113.466,76 L113.466,79.287 L139.15,145.755 Z" stroke="none" transform="translate(0,0)" />
        <path id="Baseline-S" d="M18,146 l800,0" />
        <path id="left-margin-Ultralight-S" d="M221,56 l0,110" />
        <path id="right-margin-Ultralight-S" d="M309,56 l0,110" />
        <path id="left-margin-Regular-S" d="M421,56 l0,110" />
        <path id="right-margin-Regular-S" d="M509,56 l0,110" />
        <path id="left-margin-Black-S" d="M621,56 l0,110" />
        <path id="right-margin-Black-S" d="M709,56 l0,110" />
        <path id="Capline-M" d="M18,276 l800,0" />
        <path id="Baseline-M" d="M18,346 l800,0" />
        <path id="Capline-L" d="M18,476 l800,0" />
        <path id="Baseline-L" d="M18,546 l800,0" />
    </g>
    <g id="Symbols">
        <g id="Ultralight-S" transform="translate(0,0)">
            <path d="M287,130.607 L274.22,117.826 C280.599,110.167 279.826,98.845 272.465,92.124 C265.103,85.402 253.757,85.66 246.709,92.709 C239.66,99.757 239.402,111.103 246.124,118.465 C252.845,125.826 264.167,126.599 271.826,120.22 L284.607,133 Z M244.692,105.923 C244.692,97.511 251.511,90.692 259.923,90.692 C268.335,90.692 275.154,97.511 275.154,105.923 C275.154,114.335 268.335,121.154 259.923,121.154 C251.515,121.145 244.702,114.331 244.692,105.923 Z" />
            <path d="M292.077,83.923 L292.077,138.077 L237.923,138.077 L237.923,83.923 Z" />
        </g>
        <g id="Regular-S" transform="translate(0,0)">
            <path d="M487,130.607 L474.22,117.826 C480.599,110.167 479.826,98.845 472.465,92.124 C465.103,85.402 453.757,85.66 446.709,92.709 C439.66,99.757 439.402,111.103 446.124,118.465 C452.845,125.826 464.167,126.599 471.826,120.22 L484.607,133 Z M444.692,105.923 C444.692,97.511 451.511,90.692 459.923,90.692 C468.335,90.692 475.154,97.511 475.154,105.923 C475.154,114.335 468.335,121.154 459.923,121.154 C451.515,121.145 444.702,114.331 444.692,105.923 Z" />
            <path d="M492.077,83.923 L492.077,138.077 L437.923,138.077 L437.923,83.923 Z" />
        </g>
        <g id="Black-S" transform="translate(0,0)">
            <path d="M687,130.607 L674.22,117.826 C680.599,110.167 679.826,98.845 672.465,92.124 C665.103,85.402 653.758,85.66 646.709,92.709 C639.66,99.757 639.403,111.103 646.124,118.465 C652.845,125.826 664.167,126.599 671.826,120.22 L684.607,133 Z M644.692,105.923 C644.692,97.511 651.511,90.692 659.923,90.692 C668.335,90.692 675.154,97.511 675.154,105.923 C675.154,114.335 668.335,121.154 659.923,121.154 C651.515,121.145 644.702,114.331 644.692,105.923 Z" />
            <path d="M692.077,83.923 L692.077,138.077 L637.923,138.077 L637.923,83.923 Z" />
        </g>
    </g>
</svg>