<?xml version="1.0" encoding="UTF-8"?>
<svg height="600" width="800" xmlns="http://www.w3.org/2000/svg" xmlns:xlink="http://www.w3.org/1999/xlink">
    <style>
        
    </style>
    <g id="Notes" font-family="LucidaGrande, 'Lucida Grande', sans-serif" font-size="13">
        <rect fill="white" height="600.0" width="800.0" x="0.0" y="0.0" />
        <g font-size="13">
            <text x="18.0" y="176.0">Small</text>
            <text x="18.0" y="376.0">Medium</text>
            <text x="18.0" y="576.0">Large</text>
        </g>
        <g font-size="9">
            <text x="250.0" y="30.0">Ultralight</text>
            <text x="450.0" y="30.0">Regular</text>
            <text x="650.0" y="30.0">Black</text>
            <text id="template-version" fill="#505050" text-anchor="end" x="785.0" y="575.0">Template v.3.0</text>
            <a href="https://github.com/swhitty/SwiftDraw">
                <text fill="#505050" text-anchor="end" x="785.0" y="590.0">https://github.com/swhitty/SwiftDraw</text>
            </a>
        </g>
    </g>
    <g id="Guides" stroke="rgb(39, 170, 225)" stroke-width="0.5">
        <path id="Capline-S" d="M18,76 l800,0" />
        <path id="H-reference" d="M85,145.755 L87.685,145.755 L113.369,79.287 L114.052,79.287 L114.052,76 L112.148,76 L85,145.755 Z M95.693,121.536 L130.996,121.536 L130.263,119.313 L96.474,119.313 L95.693,121.536 Z M139.15,145.755 L141.787,145.755 L114.638,76 L113.466,76 L113.466,79.287 L139.15,145.755 Z" stroke="none" transform="translate(0,0)" />
        <path id="Baseline-S" d="M18,146 l800,0" />
        <path id="left-margin-Ultralight-S" d="M221,56 l0,110" />
        <path id="right-margin-Ultralight-S" d="M309,56 l0,110" />
        <path id="left-margin-Regular-S" d="M421,56 l0,110" />
        <path id="right-margin-Regular-S" d="M509,56 l0,110" />
        <path id="left-margin-Black-S" d="M621,56 l0,110" />
        <path id="right-margin-Black-S" d="M709,56 l0,110" />
        <path id="Capline-M" d="M18,276 l800,0" />
        <path id="Baseline-M" d="M18,346 l800,0" />
        <path id="Capline-L" d="M18,476 l800,0" />
        <path id="Baseline-L" d="M18,546 l800,0" />
    </g>
    <g id="Symbols">
        <g id="Ultralight-S" transform="translate(0,0)">
            <path d="M281.923,124.538 L281.923,131.308 L248.077,131.308 L248.077,124.538 L244.692,124.538 L244.692,131.308 L244.692,131.308 C244.692,132.205 245.049,133.066 245.684,133.701 C246.318,134.336 247.179,134.692 248.077,134.692 L281.923,134.692 C282.821,134.692 283.682,134.336 284.316,133.701 C284.951,133.066 285.308,132.205 285.308,131.308 L285.308,131.308 L285.308,124.538 Z" />
            <path d="M281.923,107.615 L279.537,105.229 L266.692,118.057 L266.692,87.308 L263.308,87.308 L263.308,118.057 L250.463,105.229 L248.077,107.615 L265,124.538 L281.923,107.615 Z" />
            <path d="M292.077,83.923 L292.077,138.077 L237.923,138.077 L237.923,83.923 Z" />
        </g>
        <g id="Regular-S" transform="translate(0,0)">
            <path d="M481.923,124.538 L481.923,131.308 L448.077,131.308 L448.077,124.538 L444.692,124.538 L444.692,131.308 L444.692,131.308 C444.692,132.205 445.049,133.066 445.684,133.701 C446.318,134.336 447.179,134.692 448.077,134.692 L481.923,134.692 C482.821,134.692 483.682,134.336 484.316,133.701 C484.951,133.066 485.308,132.205 485.308,131.308 L485.308,131.308 L485.308,124.538 Z" />
            <path d="M481.923,107.615 L479.537,105.229 L466.692,118.057 L466.692,87.308 L463.308,87.308 L463.308,118.057 L450.463,105.229 L448.077,107.615 L465,124.538 L481.923,107.615 Z" />
            <path d="M492.077,83.923 L492.077,138.077 L437.923,138.077 L437.923,83.923 Z" />
        </g>
        <g id="Black-S" transform="translate(0,0)">
            <path d="M681.923,124.538 L681.923,131.308 L648.077,131.308 L648.077,124.538 L644.692,124.538 L644.692,131.308 L644.692,131.308 C644.692,132.205 645.049,133.066 645.684,133.701 C646.318,134.336 647.179,134.692 648.077,134.692 L681.923,134.692 C682.821,134.692 683.682,134.336 684.316,133.701 C684.951,133.066 685.308,132.205 685.308,131.308 L685.308,131.308 L685.308,124.538 Z" />
            <path d="M681.923,107.615 L679.537,105.229 L666.692,118.057 L666.692,87.308 L663.308,87.308 L663.308,118.057 L650.463,105.229 L648.077,107.615 L665,124.538 L681.923,107.615 Z" />
            <path d="M692.077,83.923 L692.077,138.077 L637.923,138.077 L637.923,83.923 Z" />
        </g>
    </g>
</svg>