<?xml version="1.0" encoding="UTF-8"?>
<svg height="600" width="800" xmlns="http://www.w3.org/2000/svg" xmlns:xlink="http://www.w3.org/1999/xlink">
    <style>
        .cls-1 { fill: none }
    </style>
    <g id="Notes" font-family="LucidaGrande, 'Lucida Grande', sans-serif" font-size="13">
        <rect fill="white" height="600.0" width="800.0" x="0.0" y="0.0" />
        <g font-size="13">
            <text x="18.0" y="176.0">Small</text>
            <text x="18.0" y="376.0">Medium</text>
            <text x="18.0" y="576.0">Large</text>
        </g>
        <g font-size="9">
            <text x="250.0" y="30.0">Ultralight</text>
            <text x="450.0" y="30.0">Regular</text>
            <text x="650.0" y="30.0">Black</text>
            <text id="template-version" fill="#505050" text-anchor="end" x="785.0" y="575.0">Template v.3.0</text>
            <a href="https://github.com/swhitty/SwiftDraw">
                <text fill="#505050" text-anchor="end" x="785.0" y="590.0">https://github.com/swhitty/SwiftDraw</text>
            </a>
        </g>
    </g>
    <g id="Guides" stroke="rgb(39, 170, 225)" stroke-width="0.5">
        <path id="Capline-S" d="M18,76 l800,0" />
        <path id="H-reference" d="M85,145.755 L87.685,145.755 L113.369,79.287 L114.052,79.287 L114.052,76 L112.148,76 L85,145.755 Z M95.693,121.536 L130.996,121.536 L130.263,119.313 L96.474,119.313 L95.693,121.536 Z M139.15,145.755 L141.787,145.755 L114.638,76 L113.466,76 L113.466,79.287 L139.15,145.755 Z" stroke="none" transform="translate(0,0)" />
        <path id="Baseline-S" d="M18,146 l800,0" />
        <path id="left-margin-Ultralight-S" d="M221,56 l0,110" />
        <path id="right-margin-Ultralight-S" d="M309,56 l0,110" />
        <path id="left-margin-Regular-S" d="M421,56 l0,110" />
        <path id="right-margin-Regular-S" d="M509,56 l0,110" />
        <path id="left-margin-Black-S" d="M621,56 l0,110" />
        <path id="right-margin-Black-S" d="M709,56 l0,110" />
        <path id="Capline-M" d="M18,276 l800,0" />
        <path id="Baseline-M" d="M18,346 l800,0" />
        <path id="Capline-L" d="M18,476 l800,0" />
        <path id="Baseline-L" d="M18,546 l800,0" />
    </g>
    <g id="Symbols">
        <g id="Ultralight-S" transform="translate(0,0)">
            <path d="M279.667,111 L279.667,115.19 L275.476,115.19 L275.476,111 Z" />
            <path d="M267.095,111 L267.095,115.19 L250.333,115.19 L250.333,111 Z" />
            <path d="M279.667,102.619 L279.667,106.81 L275.476,106.81 L275.476,102.619 Z" />
            <path d="M267.095,102.619 L267.095,106.81 L250.333,106.81 L250.333,102.619 Z" />
            <path d="M279.667,94.238 L279.667,98.429 L250.333,98.429 L250.333,94.238 Z" />
            <path d="M283.857,81.667 L246.143,81.667 C243.829,81.669 241.955,83.544 241.952,85.857 L241.952,138.238 C241.952,138.794 242.173,139.327 242.566,139.72 C242.959,140.113 243.492,140.333 244.048,140.333 L246.143,140.333 C246.802,140.334 247.424,140.023 247.819,139.495 L252.429,133.35 L257.038,139.495 C257.45,139.997 258.065,140.288 258.714,140.288 C259.363,140.288 259.978,139.997 260.39,139.495 L265,133.35 L269.61,139.495 C270.022,139.997 270.637,140.288 271.286,140.288 C271.935,140.288 272.55,139.997 272.962,139.495 L277.571,133.35 L282.181,139.495 C282.577,140.023 283.198,140.334 283.857,140.333 L285.952,140.333 C286.508,140.333 287.041,140.113 287.434,139.72 C287.827,139.327 288.048,138.794 288.048,138.238 L288.048,85.857 C288.045,83.544 286.171,81.669 283.857,81.667 Z M283.857,134.745 L279.248,128.6 C278.836,128.098 278.221,127.808 277.571,127.808 C276.922,127.808 276.307,128.098 275.895,128.6 L271.286,134.745 L266.676,128.6 C266.264,128.098 265.649,127.808 265,127.808 C264.351,127.808 263.736,128.098 263.324,128.6 L258.714,134.745 L254.105,128.6 C253.693,128.098 253.078,127.808 252.429,127.808 C251.779,127.808 251.164,128.098 250.752,128.6 L246.143,134.745 L246.143,85.857 L283.857,85.857 Z" />
        </g>
        <g id="Regular-S" transform="translate(0,0)">
            <path d="M479.667,111 L479.667,115.19 L475.476,115.19 L475.476,111 Z" />
            <path d="M467.095,111 L467.095,115.19 L450.333,115.19 L450.333,111 Z" />
            <path d="M479.667,102.619 L479.667,106.81 L475.476,106.81 L475.476,102.619 Z" />
            <path d="M467.095,102.619 L467.095,106.81 L450.333,106.81 L450.333,102.619 Z" />
            <path d="M479.667,94.238 L479.667,98.429 L450.333,98.429 L450.333,94.238 Z" />
            <path d="M483.857,81.667 L446.143,81.667 C443.829,81.669 441.955,83.544 441.952,85.857 L441.952,138.238 C441.952,138.794 442.173,139.327 442.566,139.72 C442.959,140.113 443.492,140.333 444.048,140.333 L446.143,140.333 C446.802,140.334 447.424,140.023 447.819,139.495 L452.429,133.35 L457.038,139.495 C457.45,139.997 458.065,140.288 458.714,140.288 C459.363,140.288 459.978,139.997 460.39,139.495 L465,133.35 L469.61,139.495 C470.022,139.997 470.637,140.288 471.286,140.288 C471.935,140.288 472.55,139.997 472.962,139.495 L477.571,133.35 L482.181,139.495 C482.577,140.023 483.198,140.334 483.857,140.333 L485.952,140.333 C486.508,140.333 487.041,140.113 487.434,139.72 C487.827,139.327 488.048,138.794 488.048,138.238 L488.048,85.857 C488.045,83.544 486.171,81.669 483.857,81.667 Z M483.857,134.745 L479.248,128.6 C478.836,128.098 478.221,127.808 477.571,127.808 C476.922,127.808 476.307,128.098 475.895,128.6 L471.286,134.745 L466.676,128.6 C466.264,128.098 465.649,127.808 465,127.808 C464.351,127.808 463.736,128.098 463.324,128.6 L458.714,134.745 L454.105,128.6 C453.693,128.098 453.078,127.808 452.429,127.808 C451.779,127.808 451.164,128.098 450.752,128.6 L446.143,134.745 L446.143,85.857 L483.857,85.857 Z" />
        </g>
        <g id="Black-S" transform="translate(0,0)">
            <path d="M679.667,111 L679.667,115.19 L675.476,115.19 L675.476,111 Z" />
            <path d="M667.095,111 L667.095,115.19 L650.333,115.19 L650.333,111 Z" />
            <path d="M679.667,102.619 L679.667,106.81 L675.476,106.81 L675.476,102.619 Z" />
            <path d="M667.095,102.619 L667.095,106.81 L650.333,106.81 L650.333,102.619 Z" />
            <path d="M679.667,94.238 L679.667,98.429 L650.333,98.429 L650.333,94.238 Z" />
            <path d="M683.857,81.667 L646.143,81.667 C643.829,81.669 641.955,83.544 641.952,85.857 L641.952,138.238 C641.952,138.794 642.173,139.327 642.566,139.72 C642.959,140.113 643.492,140.333 644.048,140.333 L646.143,140.333 C646.802,140.334 647.424,140.023 647.819,139.495 L652.429,133.35 L657.038,139.495 C657.45,139.997 658.065,140.288 658.714,140.288 C659.363,140.288 659.978,139.997 660.391,139.495 L665,133.35 L669.61,139.495 C670.022,139.997 670.637,140.288 671.286,140.288 C671.935,140.288 672.55,139.997 672.962,139.495 L677.571,133.35 L682.181,139.495 C682.576,140.023 683.198,140.334 683.857,140.333 L685.952,140.333 C686.508,140.333 687.041,140.113 687.434,139.72 C687.827,139.327 688.048,138.794 688.048,138.238 L688.048,85.857 C688.045,83.544 686.171,81.669 683.857,81.667 Z M683.857,134.745 L679.248,128.6 C678.836,128.098 678.221,127.808 677.571,127.808 C676.922,127.808 676.307,128.098 675.895,128.6 L671.286,134.745 L666.676,128.6 C666.264,128.098 665.649,127.808 665,127.808 C664.351,127.808 663.736,128.098 663.324,128.6 L658.714,134.745 L654.105,128.6 C653.693,128.098 653.078,127.808 652.429,127.808 C651.779,127.808 651.164,128.098 650.752,128.6 L646.143,134.745 L646.143,85.857 L683.857,85.857 Z" />
        </g>
    </g>
</svg>