<?xml version="1.0" encoding="UTF-8"?>
<svg height="600" width="800" xmlns="http://www.w3.org/2000/svg" xmlns:xlink="http://www.w3.org/1999/xlink">
    <style>
        .st0 { fill: none }
    </style>
    <g id="Notes" font-family="LucidaGrande, 'Lucida Grande', sans-serif" font-size="13">
        <rect fill="white" height="600.0" width="800.0" x="0.0" y="0.0" />
        <g font-size="13">
            <text x="18.0" y="176.0">Small</text>
            <text x="18.0" y="376.0">Medium</text>
            <text x="18.0" y="576.0">Large</text>
        </g>
        <g font-size="9">
            <text x="250.0" y="30.0">Ultralight</text>
            <text x="450.0" y="30.0">Regular</text>
            <text x="650.0" y="30.0">Black</text>
            <text id="template-version" fill="#505050" text-anchor="end" x="785.0" y="575.0">Template v.3.0</text>
            <a href="https://github.com/swhitty/SwiftDraw">
                <text fill="#505050" text-anchor="end" x="785.0" y="590.0">https://github.com/swhitty/SwiftDraw</text>
            </a>
        </g>
    </g>
    <g id="Guides" stroke="rgb(39, 170, 225)" stroke-width="0.5">
        <path id="Capline-S" d="M18,76 l800,0" />
        <path id="H-reference" d="M85,145.755 L87.685,145.755 L113.369,79.287 L114.052,79.287 L114.052,76 L112.148,76 L85,145.755 Z M95.693,121.536 L130.996,121.536 L130.263,119.313 L96.474,119.313 L95.693,121.536 Z M139.15,145.755 L141.787,145.755 L114.638,76 L113.466,76 L113.466,79.287 L139.15,145.755 Z" stroke="none" transform="translate(0,0)" />
        <path id="Baseline-S" d="M18,146 l800,0" />
        <path id="left-margin-Ultralight-S" d="M221,56 l0,110" />
        <path id="right-margin-Ultralight-S" d="M309,56 l0,110" />
        <path id="left-margin-Regular-S" d="M421,56 l0,110" />
        <path id="right-margin-Regular-S" d="M509,56 l0,110" />
        <path id="left-margin-Black-S" d="M621,56 l0,110" />
        <path id="right-margin-Black-S" d="M709,56 l0,110" />
        <path id="Capline-M" d="M18,276 l800,0" />
        <path id="Baseline-M" d="M18,346 l800,0" />
        <path id="Capline-L" d="M18,476 l800,0" />
        <path id="Baseline-L" d="M18,546 l800,0" />
    </g>
    <g id="Symbols">
        <g id="Ultralight-S" transform="translate(0,0)">
            <path d="M290.667,131.167 L290.667,134.833 L239.333,134.833 L239.333,131.167 Z" />
            <path d="M282.233,100 C283.7,98.533 283.7,96.333 282.233,94.867 C282.233,94.867 282.233,94.867 282.233,94.867 L275.633,88.267 C274.167,86.8 271.967,86.8 270.5,88.267 C270.5,88.267 270.5,88.267 270.5,88.267 L243,115.767 L243,127.5 L254.733,127.5 L282.233,100 Z M273.067,90.833 L279.667,97.433 L274.167,102.933 L267.567,96.333 L273.067,90.833 Z M246.667,123.833 L246.667,117.233 L265,98.9 L271.6,105.5 L253.267,123.833 L246.667,123.833 Z" />
        </g>
        <g id="Regular-S" transform="translate(0,0)">
            <path d="M490.667,131.167 L490.667,134.833 L439.333,134.833 L439.333,131.167 Z" />
            <path d="M482.233,100 C483.7,98.533 483.7,96.333 482.233,94.867 C482.233,94.867 482.233,94.867 482.233,94.867 L475.633,88.267 C474.167,86.8 471.967,86.8 470.5,88.267 C470.5,88.267 470.5,88.267 470.5,88.267 L443,115.767 L443,127.5 L454.733,127.5 L482.233,100 Z M473.067,90.833 L479.667,97.433 L474.167,102.933 L467.567,96.333 L473.067,90.833 Z M446.667,123.833 L446.667,117.233 L465,98.9 L471.6,105.5 L453.267,123.833 L446.667,123.833 Z" />
        </g>
        <g id="Black-S" transform="translate(0,0)">
            <path d="M690.667,131.167 L690.667,134.833 L639.333,134.833 L639.333,131.167 Z" />
            <path d="M682.233,100 C683.7,98.533 683.7,96.333 682.233,94.867 C682.233,94.867 682.233,94.867 682.233,94.867 L675.633,88.267 C674.167,86.8 671.967,86.8 670.5,88.267 C670.5,88.267 670.5,88.267 670.5,88.267 L643,115.767 L643,127.5 L654.733,127.5 L682.233,100 Z M673.067,90.833 L679.667,97.433 L674.167,102.933 L667.567,96.333 L673.067,90.833 Z M646.667,123.833 L646.667,117.233 L665,98.9 L671.6,105.5 L653.267,123.833 L646.667,123.833 Z" />
        </g>
    </g>
</svg>