<?xml version="1.0" encoding="UTF-8"?>
<svg height="600" width="800" xmlns="http://www.w3.org/2000/svg" xmlns:xlink="http://www.w3.org/1999/xlink">
    <style>
        .cls-1 { fill: none }
    </style>
    <g id="Notes" font-family="LucidaGrande, 'Lucida Grande', sans-serif" font-size="13">
        <rect fill="white" height="600.0" width="800.0" x="0.0" y="0.0" />
        <g font-size="13">
            <text x="18.0" y="176.0">Small</text>
            <text x="18.0" y="376.0">Medium</text>
            <text x="18.0" y="576.0">Large</text>
        </g>
        <g font-size="9">
            <text x="250.0" y="30.0">Ultralight</text>
            <text x="450.0" y="30.0">Regular</text>
            <text x="650.0" y="30.0">Black</text>
            <text id="template-version" fill="#505050" text-anchor="end" x="785.0" y="575.0">Template v.3.0</text>
            <a href="https://github.com/swhitty/SwiftDraw">
                <text fill="#505050" text-anchor="end" x="785.0" y="590.0">https://github.com/swhitty/SwiftDraw</text>
            </a>
        </g>
    </g>
    <g id="Guides" stroke="rgb(39, 170, 225)" stroke-width="0.5">
        <path id="Capline-S" d="M18,76 l800,0" />
        <path id="H-reference" d="M85,145.755 L87.685,145.755 L113.369,79.287 L114.052,79.287 L114.052,76 L112.148,76 L85,145.755 Z M95.693,121.536 L130.996,121.536 L130.263,119.313 L96.474,119.313 L95.693,121.536 Z M139.15,145.755 L141.787,145.755 L114.638,76 L113.466,76 L113.466,79.287 L139.15,145.755 Z" stroke="none" transform="translate(0,0)" />
        <path id="Baseline-S" d="M18,146 l800,0" />
        <path id="left-margin-Ultralight-S" d="M221,56 l0,110" />
        <path id="right-margin-Ultralight-S" d="M309,56 l0,110" />
        <path id="left-margin-Regular-S" d="M421,56 l0,110" />
        <path id="right-margin-Regular-S" d="M509,56 l0,110" />
        <path id="left-margin-Black-S" d="M621,56 l0,110" />
        <path id="right-margin-Black-S" d="M709,56 l0,110" />
        <path id="Capline-M" d="M18,276 l800,0" />
        <path id="Baseline-M" d="M18,346 l800,0" />
        <path id="Capline-L" d="M18,476 l800,0" />
        <path id="Baseline-L" d="M18,546 l800,0" />
    </g>
    <g id="Symbols">
        <g id="Ultralight-S" transform="translate(0,0)">
            <path d="M261,103 L261,127 L257,127 L257,103 Z" />
            <path d="M273,103 L273,127 L269,127 L269,103 Z" />
            <path d="M241,91 L241,95 L245,95 L245,135 C245,136.061 245.421,137.078 246.172,137.828 C246.922,138.579 247.939,139 249,139 L281,139 C282.061,139 283.078,138.579 283.828,137.828 C284.579,137.078 285,136.061 285,135 L285,95 L289,95 L289,91 Z M249,135 L249,95 L281,95 L281,135 Z" />
            <path d="M273,83 L273,87 L257,87 L257,83 Z" />
        </g>
        <g id="Regular-S" transform="translate(0,0)">
            <path d="M461,103 L461,127 L457,127 L457,103 Z" />
            <path d="M473,103 L473,127 L469,127 L469,103 Z" />
            <path d="M441,91 L441,95 L445,95 L445,135 C445,136.061 445.421,137.078 446.172,137.828 C446.922,138.579 447.939,139 449,139 L481,139 C482.061,139 483.078,138.579 483.828,137.828 C484.579,137.078 485,136.061 485,135 L485,95 L489,95 L489,91 Z M449,135 L449,95 L481,95 L481,135 Z" />
            <path d="M473,83 L473,87 L457,87 L457,83 Z" />
        </g>
        <g id="Black-S" transform="translate(0,0)">
            <path d="M661,103 L661,127 L657,127 L657,103 Z" />
            <path d="M673,103 L673,127 L669,127 L669,103 Z" />
            <path d="M641,91 L641,95 L645,95 L645,135 C645,136.061 645.421,137.078 646.172,137.828 C646.922,138.579 647.939,139 649,139 L681,139 C682.061,139 683.078,138.579 683.828,137.828 C684.579,137.078 685,136.061 685,135 L685,95 L689,95 L689,91 Z M649,135 L649,95 L681,95 L681,135 Z" />
            <path d="M673,83 L673,87 L657,87 L657,83 Z" />
        </g>
    </g>
</svg>