<?xml version="1.0" encoding="UTF-8"?>
<svg height="600" width="800" xmlns="http://www.w3.org/2000/svg" xmlns:xlink="http://www.w3.org/1999/xlink">
    <style>
        .cls-1 { fill: none }
    </style>
    <g id="Notes" font-family="LucidaGrande, 'Lucida Grande', sans-serif" font-size="13">
        <rect fill="white" height="600.0" width="800.0" x="0.0" y="0.0" />
        <g font-size="13">
            <text x="18.0" y="176.0">Small</text>
            <text x="18.0" y="376.0">Medium</text>
            <text x="18.0" y="576.0">Large</text>
        </g>
        <g font-size="9">
            <text x="250.0" y="30.0">Ultralight</text>
            <text x="450.0" y="30.0">Regular</text>
            <text x="650.0" y="30.0">Black</text>
            <text id="template-version" fill="#505050" text-anchor="end" x="785.0" y="575.0">Template v.3.0</text>
            <a href="https://github.com/swhitty/SwiftDraw">
                <text fill="#505050" text-anchor="end" x="785.0" y="590.0">https://github.com/swhitty/SwiftDraw</text>
            </a>
        </g>
    </g>
    <g id="Guides" stroke="rgb(39, 170, 225)" stroke-width="0.5">
        <path id="Capline-S" d="M18,76 l800,0" />
        <path id="H-reference" d="M85,145.755 L87.685,145.755 L113.369,79.287 L114.052,79.287 L114.052,76 L112.148,76 L85,145.755 Z M95.693,121.536 L130.996,121.536 L130.263,119.313 L96.474,119.313 L95.693,121.536 Z M139.15,145.755 L141.787,145.755 L114.638,76 L113.466,76 L113.466,79.287 L139.15,145.755 Z" stroke="none" transform="translate(0,0)" />
        <path id="Baseline-S" d="M18,146 l800,0" />
        <path id="left-margin-Ultralight-S" d="M221,56 l0,110" />
        <path id="right-margin-Ultralight-S" d="M309,56 l0,110" />
        <path id="left-margin-Regular-S" d="M421,56 l0,110" />
        <path id="right-margin-Regular-S" d="M509,56 l0,110" />
        <path id="left-margin-Black-S" d="M621,56 l0,110" />
        <path id="right-margin-Black-S" d="M709,56 l0,110" />
        <path id="Capline-M" d="M18,276 l800,0" />
        <path id="Baseline-M" d="M18,346 l800,0" />
        <path id="Capline-L" d="M18,476 l800,0" />
        <path id="Baseline-L" d="M18,546 l800,0" />
    </g>
    <g id="Symbols">
        <g id="Ultralight-S" transform="translate(0,0)">
            <path d="M283.333,111 C283.335,108.058 282.619,105.152 281.248,102.54 L278.506,105.283 C279.274,107.091 279.669,109.036 279.667,111 Z" />
            <path d="M278.593,100 L276,97.407 L267.356,106.051 C266.622,105.693 265.817,105.504 265,105.5 C261.962,105.5 259.5,107.962 259.5,111 C259.5,114.038 261.962,116.5 265,116.5 C268.038,116.5 270.5,114.038 270.5,111 C270.496,110.183 270.307,109.378 269.949,108.644 Z M265,112.833 C263.987,112.833 263.167,112.013 263.167,111 C263.167,109.987 263.987,109.167 265,109.167 C266.013,109.167 266.833,109.987 266.833,111 C266.832,112.012 266.012,112.832 265,112.833 Z" />
            <path d="M265,96.333 C266.967,96.331 268.914,96.728 270.724,97.498 L273.467,94.755 C267.788,91.782 260.967,91.995 255.485,95.318 C250.003,98.641 246.658,104.589 246.667,111 L250.333,111 C250.342,102.905 256.903,96.343 264.999,96.333 Z" />
            <path d="M265,136.667 C250.825,136.667 239.333,125.175 239.333,111 C239.333,96.825 250.825,85.333 265,85.333 C279.175,85.333 290.667,96.825 290.667,111 C290.651,125.168 279.17,136.65 265.001,136.667 Z M265,89 C252.85,89 243,98.85 243,111 C243,123.15 252.85,133 265,133 C277.15,133 287,123.15 287,111 C286.985,98.854 277.143,89.013 264.999,89 Z" />
        </g>
        <g id="Regular-S" transform="translate(0,0)">
            <path d="M483.333,111 C483.335,108.058 482.619,105.152 481.248,102.54 L478.506,105.283 C479.274,107.091 479.669,109.036 479.667,111 Z" />
            <path d="M478.592,100 L476,97.407 L467.356,106.051 C466.622,105.693 465.817,105.504 465,105.5 C461.962,105.5 459.5,107.962 459.5,111 C459.5,114.038 461.962,116.5 465,116.5 C468.038,116.5 470.5,114.038 470.5,111 C470.496,110.183 470.307,109.378 469.949,108.644 Z M465,112.833 C463.987,112.833 463.167,112.013 463.167,111 C463.167,109.987 463.987,109.167 465,109.167 C466.013,109.167 466.833,109.987 466.833,111 C466.832,112.012 466.012,112.832 465,112.833 Z" />
            <path d="M465,96.333 C466.967,96.331 468.914,96.728 470.724,97.498 L473.467,94.755 C467.788,91.782 460.967,91.995 455.485,95.318 C450.003,98.641 446.658,104.589 446.667,111 L450.333,111 C450.342,102.905 456.903,96.343 464.999,96.333 Z" />
            <path d="M465,136.667 C450.825,136.667 439.333,125.175 439.333,111 C439.333,96.825 450.825,85.333 465,85.333 C479.175,85.333 490.667,96.825 490.667,111 C490.651,125.168 479.17,136.65 465.001,136.667 Z M465,89 C452.85,89 443,98.85 443,111 C443,123.15 452.85,133 465,133 C477.15,133 487,123.15 487,111 C486.985,98.854 477.143,89.013 464.999,89 Z" />
        </g>
        <g id="Black-S" transform="translate(0,0)">
            <path d="M683.333,111 C683.335,108.058 682.619,105.152 681.248,102.54 L678.506,105.283 C679.274,107.091 679.669,109.036 679.667,111 Z" />
            <path d="M678.593,100 L676,97.407 L667.356,106.051 C666.622,105.693 665.817,105.504 665,105.5 C661.962,105.5 659.5,107.962 659.5,111 C659.5,114.038 661.962,116.5 665,116.5 C668.038,116.5 670.5,114.038 670.5,111 C670.496,110.183 670.307,109.378 669.949,108.644 Z M665,112.833 C663.987,112.833 663.167,112.013 663.167,111 C663.167,109.987 663.987,109.167 665,109.167 C666.013,109.167 666.833,109.987 666.833,111 C666.832,112.012 666.012,112.832 665,112.833 Z" />
            <path d="M665,96.333 C666.967,96.331 668.914,96.728 670.724,97.498 L673.467,94.755 C667.788,91.782 660.967,91.995 655.485,95.318 C650.003,98.641 646.658,104.589 646.667,111 L650.333,111 C650.342,102.905 656.903,96.343 664.999,96.333 Z" />
            <path d="M665,136.667 C650.825,136.667 639.333,125.175 639.333,111 C639.333,96.825 650.825,85.333 665,85.333 C679.175,85.333 690.667,96.825 690.667,111 C690.651,125.168 679.17,136.65 665.001,136.667 Z M665,89 C652.85,89 643,98.85 643,111 C643,123.15 652.85,133 665,133 C677.15,133 687,123.15 687,111 C686.985,98.854 677.143,89.013 664.999,89 Z" />
        </g>
    </g>
</svg>