<?xml version="1.0" encoding="UTF-8"?>
<svg height="600" width="800" xmlns="http://www.w3.org/2000/svg" xmlns:xlink="http://www.w3.org/1999/xlink">
    <style>
        .cls-1 { fill: none }
    </style>
    <g id="Notes" font-family="LucidaGrande, 'Lucida Grande', sans-serif" font-size="13">
        <rect fill="white" height="600.0" width="800.0" x="0.0" y="0.0" />
        <g font-size="13">
            <text x="18.0" y="176.0">Small</text>
            <text x="18.0" y="376.0">Medium</text>
            <text x="18.0" y="576.0">Large</text>
        </g>
        <g font-size="9">
            <text x="250.0" y="30.0">Ultralight</text>
            <text x="450.0" y="30.0">Regular</text>
            <text x="650.0" y="30.0">Black</text>
            <text id="template-version" fill="#505050" text-anchor="end" x="785.0" y="575.0">Template v.3.0</text>
            <a href="https://github.com/swhitty/SwiftDraw">
                <text fill="#505050" text-anchor="end" x="785.0" y="590.0">https://github.com/swhitty/SwiftDraw</text>
            </a>
        </g>
    </g>
    <g id="Guides" stroke="rgb(39, 170, 225)" stroke-width="0.5">
        <path id="Capline-S" d="M18,76 l800,0" />
        <path id="H-reference" d="M85,145.755 L87.685,145.755 L113.369,79.287 L114.052,79.287 L114.052,76 L112.148,76 L85,145.755 Z M95.693,121.536 L130.996,121.536 L130.263,119.313 L96.474,119.313 L95.693,121.536 Z M139.15,145.755 L141.787,145.755 L114.638,76 L113.466,76 L113.466,79.287 L139.15,145.755 Z" stroke="none" transform="translate(0,0)" />
        <path id="Baseline-S" d="M18,146 l800,0" />
        <path id="left-margin-Ultralight-S" d="M221,56 l0,110" />
        <path id="right-margin-Ultralight-S" d="M309,56 l0,110" />
        <path id="left-margin-Regular-S" d="M421,56 l0,110" />
        <path id="right-margin-Regular-S" d="M509,56 l0,110" />
        <path id="left-margin-Black-S" d="M621,56 l0,110" />
        <path id="right-margin-Black-S" d="M709,56 l0,110" />
        <path id="Capline-M" d="M18,276 l800,0" />
        <path id="Baseline-M" d="M18,346 l800,0" />
        <path id="Capline-L" d="M18,476 l800,0" />
        <path id="Baseline-L" d="M18,546 l800,0" />
    </g>
    <g id="Symbols">
        <g id="Ultralight-S" transform="translate(0,0)">
            <path d="M285.166,122.257 L285.166,112.833 C285.166,111.861 284.78,110.928 284.092,110.241 C283.405,109.553 282.472,109.167 281.5,109.167 L266.833,109.167 L266.833,99.743 C270.409,98.82 272.74,95.382 272.275,91.719 C271.809,88.056 268.693,85.31 265,85.31 C261.307,85.31 258.19,88.056 257.725,91.719 C257.26,95.382 259.591,98.82 263.167,99.743 L263.167,109.167 L248.5,109.167 C247.528,109.167 246.595,109.553 245.908,110.241 C245.22,110.928 244.834,111.861 244.834,112.833 L244.834,122.257 C241.258,123.18 238.927,126.618 239.392,130.281 C239.857,133.944 242.974,136.69 246.667,136.69 C250.36,136.69 253.476,133.944 253.942,130.281 C254.407,126.618 252.076,123.18 248.5,122.257 L248.5,112.833 L281.5,112.833 L281.5,122.257 C277.924,123.18 275.593,126.618 276.058,130.281 C276.524,133.944 279.64,136.69 283.333,136.69 C287.026,136.69 290.143,133.944 290.608,130.281 C291.073,126.618 288.742,123.18 285.166,122.257 Z M250.334,129.333 C250.334,131.358 248.692,133 246.667,133 C244.642,133 243,131.358 243,129.333 C243,127.308 244.642,125.666 246.667,125.666 C247.639,125.666 248.572,126.053 249.26,126.74 C249.947,127.428 250.334,128.361 250.334,129.333 Z M261.333,92.667 C261.333,90.642 262.975,89 265,89 C267.025,89 268.667,90.642 268.667,92.667 C268.667,94.692 267.025,96.334 265,96.334 C264.028,96.334 263.095,95.947 262.407,95.26 C261.72,94.572 261.333,93.639 261.333,92.667 Z M283.333,133 C281.308,133 279.666,131.358 279.666,129.333 C279.666,127.308 281.308,125.666 283.333,125.666 C285.358,125.666 287,127.308 287,129.333 C287,130.306 286.613,131.238 285.926,131.926 C285.238,132.613 284.306,133 283.333,133 Z" />
        </g>
        <g id="Regular-S" transform="translate(0,0)">
            <path d="M485.166,122.257 L485.166,112.833 C485.166,111.861 484.78,110.928 484.092,110.241 C483.405,109.553 482.472,109.167 481.5,109.167 L466.833,109.167 L466.833,99.743 C470.409,98.82 472.74,95.382 472.275,91.719 C471.809,88.056 468.693,85.31 465,85.31 C461.307,85.31 458.19,88.056 457.725,91.719 C457.26,95.382 459.591,98.82 463.167,99.743 L463.167,109.167 L448.5,109.167 C447.528,109.167 446.595,109.553 445.908,110.241 C445.22,110.928 444.834,111.861 444.834,112.833 L444.834,122.257 C441.258,123.18 438.927,126.618 439.392,130.281 C439.857,133.944 442.974,136.69 446.667,136.69 C450.36,136.69 453.476,133.944 453.942,130.281 C454.407,126.618 452.076,123.18 448.5,122.257 L448.5,112.833 L481.5,112.833 L481.5,122.257 C477.924,123.18 475.593,126.618 476.058,130.281 C476.524,133.944 479.64,136.69 483.333,136.69 C487.026,136.69 490.143,133.944 490.608,130.281 C491.073,126.618 488.742,123.18 485.166,122.257 Z M450.333,129.333 C450.333,131.358 448.692,133 446.667,133 C444.642,133 443,131.358 443,129.333 C443,127.308 444.642,125.666 446.667,125.666 C447.639,125.666 448.572,126.053 449.26,126.74 C449.947,127.428 450.333,128.361 450.333,129.333 Z M461.333,92.667 C461.333,90.642 462.975,89 465,89 C467.025,89 468.667,90.642 468.667,92.667 C468.667,94.692 467.025,96.334 465,96.334 C464.028,96.334 463.095,95.947 462.407,95.26 C461.72,94.572 461.333,93.639 461.333,92.667 Z M483.333,133 C481.308,133 479.666,131.358 479.666,129.333 C479.666,127.308 481.308,125.666 483.333,125.666 C485.358,125.666 487,127.308 487,129.333 C487,130.306 486.613,131.238 485.926,131.926 C485.238,132.613 484.306,133 483.333,133 Z" />
        </g>
        <g id="Black-S" transform="translate(0,0)">
            <path d="M685.166,122.257 L685.166,112.833 C685.166,111.861 684.78,110.928 684.093,110.241 C683.405,109.553 682.472,109.167 681.5,109.167 L666.833,109.167 L666.833,99.743 C670.409,98.82 672.74,95.382 672.275,91.719 C671.81,88.056 668.693,85.31 665,85.31 C661.307,85.31 658.191,88.056 657.725,91.719 C657.26,95.382 659.591,98.82 663.167,99.743 L663.167,109.167 L648.5,109.167 C647.528,109.167 646.595,109.553 645.908,110.241 C645.22,110.928 644.834,111.861 644.834,112.833 L644.834,122.257 C641.258,123.18 638.927,126.618 639.392,130.281 C639.857,133.944 642.974,136.69 646.667,136.69 C650.36,136.69 653.476,133.944 653.942,130.281 C654.407,126.618 652.076,123.18 648.5,122.257 L648.5,112.833 L681.5,112.833 L681.5,122.257 C677.924,123.18 675.593,126.618 676.058,130.281 C676.524,133.944 679.64,136.69 683.333,136.69 C687.026,136.69 690.143,133.944 690.608,130.281 C691.073,126.618 688.742,123.18 685.166,122.257 Z M650.334,129.333 C650.334,131.358 648.692,133 646.667,133 C644.642,133 643,131.358 643,129.333 C643,127.308 644.642,125.666 646.667,125.666 C647.639,125.666 648.572,126.053 649.26,126.74 C649.947,127.428 650.334,128.361 650.334,129.333 Z M661.333,92.667 C661.333,90.642 662.975,89 665,89 C667.025,89 668.667,90.642 668.667,92.667 C668.667,94.692 667.025,96.334 665,96.334 C664.028,96.334 663.095,95.947 662.407,95.26 C661.72,94.572 661.333,93.639 661.333,92.667 Z M683.333,133 C681.308,133 679.667,131.358 679.667,129.333 C679.667,127.308 681.308,125.666 683.333,125.666 C685.358,125.666 687,127.308 687,129.333 C687,130.306 686.613,131.238 685.926,131.926 C685.238,132.613 684.306,133 683.333,133 Z" />
        </g>
    </g>
</svg>