<?xml version="1.0" encoding="UTF-8"?>
<svg height="600" width="800" xmlns="http://www.w3.org/2000/svg" xmlns:xlink="http://www.w3.org/1999/xlink">
    <style>
        .cls-1 { fill: none }
    </style>
    <g id="Notes" font-family="LucidaGrande, 'Lucida Grande', sans-serif" font-size="13">
        <rect fill="white" height="600.0" width="800.0" x="0.0" y="0.0" />
        <g font-size="13">
            <text x="18.0" y="176.0">Small</text>
            <text x="18.0" y="376.0">Medium</text>
            <text x="18.0" y="576.0">Large</text>
        </g>
        <g font-size="9">
            <text x="250.0" y="30.0">Ultralight</text>
            <text x="450.0" y="30.0">Regular</text>
            <text x="650.0" y="30.0">Black</text>
            <text id="template-version" fill="#505050" text-anchor="end" x="785.0" y="575.0">Template v.3.0</text>
            <a href="https://github.com/swhitty/SwiftDraw">
                <text fill="#505050" text-anchor="end" x="785.0" y="590.0">https://github.com/swhitty/SwiftDraw</text>
            </a>
        </g>
    </g>
    <g id="Guides" stroke="rgb(39, 170, 225)" stroke-width="0.5">
        <path id="Capline-S" d="M18,76 l800,0" />
        <path id="H-reference" d="M85,145.755 L87.685,145.755 L113.369,79.287 L114.052,79.287 L114.052,76 L112.148,76 L85,145.755 Z M95.693,121.536 L130.996,121.536 L130.263,119.313 L96.474,119.313 L95.693,121.536 Z M139.15,145.755 L141.787,145.755 L114.638,76 L113.466,76 L113.466,79.287 L139.15,145.755 Z" stroke="none" transform="translate(0,0)" />
        <path id="Baseline-S" d="M18,146 l800,0" />
        <path id="left-margin-Ultralight-S" d="M221,56 l0,110" />
        <path id="right-margin-Ultralight-S" d="M309,56 l0,110" />
        <path id="left-margin-Regular-S" d="M421,56 l0,110" />
        <path id="right-margin-Regular-S" d="M509,56 l0,110" />
        <path id="left-margin-Black-S" d="M621,56 l0,110" />
        <path id="right-margin-Black-S" d="M709,56 l0,110" />
        <path id="Capline-M" d="M18,276 l800,0" />
        <path id="Baseline-M" d="M18,346 l800,0" />
        <path id="Capline-L" d="M18,476 l800,0" />
        <path id="Baseline-L" d="M18,546 l800,0" />
    </g>
    <g id="Symbols">
        <g id="Ultralight-S" transform="translate(0,0)">
            <path d="M279.667,112.833 L283.172,119.622 L290.667,120.711 L285.167,125.667 L286.58,133 L279.667,128.875 L272.753,133 L274.167,125.667 L268.667,120.711 L276.367,119.622 L279.667,112.833 Z" />
            <path d="M257.667,111 L257.667,114.667 L246.667,114.667 L246.667,111 Z" />
            <path d="M265,103.667 L265,107.333 L246.667,107.333 L246.667,103.667 Z" />
            <path d="M265,96.333 L265,100 L246.667,100 L246.667,96.333 Z" />
            <path d="M265,129.333 L243,129.333 L243,92.667 L287,92.667 L287,111 L290.667,111 L290.667,92.667 C290.667,91.694 290.28,90.762 289.593,90.074 C288.905,89.386 287.972,89 287,89 L243,89 C242.028,89 241.095,89.386 240.407,90.074 C239.72,90.762 239.333,91.694 239.333,92.667 L239.333,129.333 C239.333,130.306 239.72,131.238 240.407,131.926 C241.095,132.614 242.028,133 243,133 L265,133 Z" />
        </g>
        <g id="Regular-S" transform="translate(0,0)">
            <path d="M479.667,112.833 L483.172,119.622 L490.667,120.711 L485.167,125.667 L486.58,133 L479.667,128.875 L472.753,133 L474.167,125.667 L468.667,120.711 L476.367,119.622 L479.667,112.833 Z" />
            <path d="M457.667,111 L457.667,114.667 L446.667,114.667 L446.667,111 Z" />
            <path d="M465,103.667 L465,107.333 L446.667,107.333 L446.667,103.667 Z" />
            <path d="M465,96.333 L465,100 L446.667,100 L446.667,96.333 Z" />
            <path d="M465,129.333 L443,129.333 L443,92.667 L487,92.667 L487,111 L490.667,111 L490.667,92.667 C490.667,91.694 490.28,90.762 489.593,90.074 C488.905,89.386 487.972,89 487,89 L443,89 C442.028,89 441.095,89.386 440.407,90.074 C439.72,90.762 439.333,91.694 439.333,92.667 L439.333,129.333 C439.333,130.306 439.72,131.238 440.407,131.926 C441.095,132.614 442.028,133 443,133 L465,133 Z" />
        </g>
        <g id="Black-S" transform="translate(0,0)">
            <path d="M679.667,112.833 L683.172,119.622 L690.667,120.711 L685.167,125.667 L686.58,133 L679.667,128.875 L672.753,133 L674.167,125.667 L668.667,120.711 L676.367,119.622 L679.667,112.833 Z" />
            <path d="M657.667,111 L657.667,114.667 L646.667,114.667 L646.667,111 Z" />
            <path d="M665,103.667 L665,107.333 L646.667,107.333 L646.667,103.667 Z" />
            <path d="M665,96.333 L665,100 L646.667,100 L646.667,96.333 Z" />
            <path d="M665,129.333 L643,129.333 L643,92.667 L687,92.667 L687,111 L690.667,111 L690.667,92.667 C690.667,91.694 690.28,90.762 689.593,90.074 C688.905,89.386 687.972,89 687,89 L643,89 C642.028,89 641.095,89.386 640.407,90.074 C639.72,90.762 639.333,91.694 639.333,92.667 L639.333,129.333 C639.333,130.306 639.72,131.238 640.407,131.926 C641.095,132.614 642.028,133 643,133 L665,133 Z" />
        </g>
    </g>
</svg>