<?xml version="1.0" encoding="UTF-8"?>
<svg height="600" width="800" xmlns="http://www.w3.org/2000/svg" xmlns:xlink="http://www.w3.org/1999/xlink">
    <style>
        .cls-1 { fill: none }
    </style>
    <g id="Notes" font-family="LucidaGrande, 'Lucida Grande', sans-serif" font-size="13">
        <rect fill="white" height="600.0" width="800.0" x="0.0" y="0.0" />
        <g font-size="13">
            <text x="18.0" y="176.0">Small</text>
            <text x="18.0" y="376.0">Medium</text>
            <text x="18.0" y="576.0">Large</text>
        </g>
        <g font-size="9">
            <text x="250.0" y="30.0">Ultralight</text>
            <text x="450.0" y="30.0">Regular</text>
            <text x="650.0" y="30.0">Black</text>
            <text id="template-version" fill="#505050" text-anchor="end" x="785.0" y="575.0">Template v.3.0</text>
            <a href="https://github.com/swhitty/SwiftDraw">
                <text fill="#505050" text-anchor="end" x="785.0" y="590.0">https://github.com/swhitty/SwiftDraw</text>
            </a>
        </g>
    </g>
    <g id="Guides" stroke="rgb(39, 170, 225)" stroke-width="0.5">
        <path id="Capline-S" d="M18,76 l800,0" />
        <path id="H-reference" d="M85,145.755 L87.685,145.755 L113.369,79.287 L114.052,79.287 L114.052,76 L112.148,76 L85,145.755 Z M95.693,121.536 L130.996,121.536 L130.263,119.313 L96.474,119.313 L95.693,121.536 Z M139.15,145.755 L141.787,145.755 L114.638,76 L113.466,76 L113.466,79.287 L139.15,145.755 Z" stroke="none" transform="translate(0,0)" />
        <path id="Baseline-S" d="M18,146 l800,0" />
        <path id="left-margin-Ultralight-S" d="M221,56 l0,110" />
        <path id="right-margin-Ultralight-S" d="M309,56 l0,110" />
        <path id="left-margin-Regular-S" d="M421,56 l0,110" />
        <path id="right-margin-Regular-S" d="M509,56 l0,110" />
        <path id="left-margin-Black-S" d="M621,56 l0,110" />
        <path id="right-margin-Black-S" d="M709,56 l0,110" />
        <path id="Capline-M" d="M18,276 l800,0" />
        <path id="Baseline-M" d="M18,346 l800,0" />
        <path id="Capline-L" d="M18,476 l800,0" />
        <path id="Baseline-L" d="M18,546 l800,0" />
    </g>
    <g id="Symbols">
        <g id="Ultralight-S" transform="translate(0,0)">
            <path d="M265,103.667 C269.05,103.667 272.333,106.95 272.333,111 C272.333,115.05 269.05,118.333 265,118.333 C260.95,118.333 257.667,115.05 257.667,111 C257.671,106.952 260.952,103.671 265,103.667 M265,100 C258.925,100 254,104.925 254,111 C254,117.075 258.925,122 265,122 C271.075,122 276,117.075 276,111 C276,108.083 274.841,105.285 272.778,103.222 C270.715,101.159 267.917,100 265,100 Z" />
            <path d="M248.147,91.555 L254.575,97.982 L251.982,100.575 L245.555,94.147 Z" />
            <path d="M248.5,109.167 L248.5,112.833 L239.333,112.833 L239.333,109.167 Z" />
            <path d="M251.982,121.425 L254.575,124.018 L248.147,130.445 L245.555,127.853 Z" />
            <path d="M266.833,127.5 L266.833,136.667 L263.167,136.667 L263.167,127.5 Z" />
            <path d="M278.018,121.425 L284.445,127.853 L281.853,130.445 L275.425,124.018 Z" />
            <path d="M290.667,109.167 L290.667,112.833 L281.5,112.833 L281.5,109.167 Z" />
            <path d="M281.853,91.555 L284.445,94.147 L278.018,100.575 L275.425,97.982 Z" />
            <path d="M266.833,85.333 L266.833,94.5 L263.167,94.5 L263.167,85.333 Z" />
        </g>
        <g id="Regular-S" transform="translate(0,0)">
            <path d="M465,103.667 C469.05,103.667 472.333,106.95 472.333,111 C472.333,115.05 469.05,118.333 465,118.333 C460.95,118.333 457.667,115.05 457.667,111 C457.671,106.952 460.952,103.671 465,103.667 M465,100 C458.925,100 454,104.925 454,111 C454,117.075 458.925,122 465,122 C471.075,122 476,117.075 476,111 C476,108.083 474.841,105.285 472.778,103.222 C470.715,101.159 467.917,100 465,100 Z" />
            <path d="M448.147,91.555 L454.575,97.982 L451.982,100.575 L445.555,94.147 Z" />
            <path d="M448.5,109.167 L448.5,112.833 L439.333,112.833 L439.333,109.167 Z" />
            <path d="M451.982,121.425 L454.575,124.018 L448.147,130.445 L445.555,127.853 Z" />
            <path d="M466.833,127.5 L466.833,136.667 L463.167,136.667 L463.167,127.5 Z" />
            <path d="M478.018,121.425 L484.445,127.853 L481.853,130.445 L475.425,124.018 Z" />
            <path d="M490.667,109.167 L490.667,112.833 L481.5,112.833 L481.5,109.167 Z" />
            <path d="M481.853,91.555 L484.445,94.147 L478.018,100.575 L475.425,97.982 Z" />
            <path d="M466.833,85.333 L466.833,94.5 L463.167,94.5 L463.167,85.333 Z" />
        </g>
        <g id="Black-S" transform="translate(0,0)">
            <path d="M665,103.667 C669.05,103.667 672.333,106.95 672.333,111 C672.333,115.05 669.05,118.333 665,118.333 C660.95,118.333 657.667,115.05 657.667,111 C657.671,106.952 660.952,103.671 665,103.667 M665,100 C658.925,100 654,104.925 654,111 C654,117.075 658.925,122 665,122 C671.075,122 676,117.075 676,111 C676,108.083 674.841,105.285 672.778,103.222 C670.715,101.159 667.917,100 665,100 Z" />
            <path d="M648.147,91.555 L654.575,97.982 L651.982,100.575 L645.555,94.147 Z" />
            <path d="M648.5,109.167 L648.5,112.833 L639.333,112.833 L639.333,109.167 Z" />
            <path d="M651.982,121.425 L654.575,124.018 L648.147,130.445 L645.555,127.853 Z" />
            <path d="M666.833,127.5 L666.833,136.667 L663.167,136.667 L663.167,127.5 Z" />
            <path d="M678.018,121.425 L684.445,127.853 L681.853,130.445 L675.425,124.018 Z" />
            <path d="M690.667,109.167 L690.667,112.833 L681.5,112.833 L681.5,109.167 Z" />
            <path d="M681.853,91.555 L684.445,94.147 L678.018,100.575 L675.425,97.982 Z" />
            <path d="M666.833,85.333 L666.833,94.5 L663.167,94.5 L663.167,85.333 Z" />
        </g>
    </g>
</svg>