<?xml version="1.0" encoding="UTF-8"?>
<svg height="600" width="800" xmlns="http://www.w3.org/2000/svg" xmlns:xlink="http://www.w3.org/1999/xlink">
    <style>
        
    </style>
    <g id="Notes" font-family="LucidaGrande, 'Lucida Grande', sans-serif" font-size="13">
        <rect fill="white" height="600.0" width="800.0" x="0.0" y="0.0" />
        <g font-size="13">
            <text x="18.0" y="176.0">Small</text>
            <text x="18.0" y="376.0">Medium</text>
            <text x="18.0" y="576.0">Large</text>
        </g>
        <g font-size="9">
            <text x="250.0" y="30.0">Ultralight</text>
            <text x="450.0" y="30.0">Regular</text>
            <text x="650.0" y="30.0">Black</text>
            <text id="template-version" fill="#505050" text-anchor="end" x="785.0" y="575.0">Template v.3.0</text>
            <a href="https://github.com/swhitty/SwiftDraw">
                <text fill="#505050" text-anchor="end" x="785.0" y="590.0">https://github.com/swhitty/SwiftDraw</text>
            </a>
        </g>
    </g>
    <g id="Guides" stroke="rgb(39, 170, 225)" stroke-width="0.5">
        <path id="Capline-S" d="M18,76 l800,0" />
        <path id="H-reference" d="M85,145.755 L87.685,145.755 L113.369,79.287 L114.052,79.287 L114.052,76 L112.148,76 L85,145.755 Z M95.693,121.536 L130.996,121.536 L130.263,119.313 L96.474,119.313 L95.693,121.536 Z M139.15,145.755 L141.787,145.755 L114.638,76 L113.466,76 L113.466,79.287 L139.15,145.755 Z" stroke="none" transform="translate(0,0)" />
        <path id="Baseline-S" d="M18,146 l800,0" />
        <path id="left-margin-Ultralight-S" d="M221,56 l0,110" />
        <path id="right-margin-Ultralight-S" d="M309,56 l0,110" />
        <path id="left-margin-Regular-S" d="M421,56 l0,110" />
        <path id="right-margin-Regular-S" d="M509,56 l0,110" />
        <path id="left-margin-Black-S" d="M621,56 l0,110" />
        <path id="right-margin-Black-S" d="M709,56 l0,110" />
        <path id="Capline-M" d="M18,276 l800,0" />
        <path id="Baseline-M" d="M18,346 l800,0" />
        <path id="Capline-L" d="M18,476 l800,0" />
        <path id="Baseline-L" d="M18,546 l800,0" />
    </g>
    <g id="Symbols">
        <g id="Ultralight-S" transform="translate(0,0)">
            <path d="M285.308,114.385 L275.154,114.385 C273.285,114.387 271.771,115.901 271.769,117.769 L271.769,121.154 L262.316,121.154 L254.846,113.684 L254.846,104.231 L258.231,104.231 C260.099,104.229 261.613,102.715 261.615,100.846 L261.615,90.692 C261.613,88.824 260.099,87.31 258.231,87.308 L248.077,87.308 C246.209,87.31 244.694,88.824 244.692,90.692 L244.692,100.846 C244.695,102.715 246.209,104.229 248.077,104.231 L251.462,104.231 L251.462,113.684 L243.496,121.65 C243.178,121.967 243,122.397 243,122.846 C243,123.295 243.178,123.725 243.496,124.043 L251.957,132.504 C252.275,132.822 252.705,133 253.154,133 C253.603,133 254.033,132.822 254.35,132.504 L262.316,124.538 L271.769,124.538 L271.769,127.923 C271.771,129.791 273.285,131.305 275.154,131.308 L285.307,131.308 C287.176,131.306 288.69,129.791 288.692,127.923 L288.692,117.769 C288.69,115.901 287.176,114.387 285.308,114.385 Z M248.077,90.692 L258.231,90.692 L258.231,100.846 L248.077,100.846 Z M253.154,128.915 L247.085,122.846 L253.154,116.778 L259.222,122.846 Z M275.154,127.923 L275.154,117.769 L285.308,117.769 L285.308,127.923 Z" />
            <path d="M292.077,83.923 L292.077,138.077 L237.923,138.077 L237.923,83.923 Z" />
        </g>
        <g id="Regular-S" transform="translate(0,0)">
            <path d="M485.308,114.385 L475.154,114.385 C473.285,114.387 471.771,115.901 471.769,117.769 L471.769,121.154 L462.316,121.154 L454.846,113.684 L454.846,104.231 L458.231,104.231 C460.099,104.229 461.613,102.715 461.615,100.846 L461.615,90.692 C461.613,88.824 460.099,87.31 458.231,87.308 L448.077,87.308 C446.209,87.31 444.694,88.824 444.692,90.692 L444.692,100.846 C444.695,102.715 446.209,104.229 448.077,104.231 L451.462,104.231 L451.462,113.684 L443.496,121.65 C443.178,121.967 443,122.397 443,122.846 C443,123.295 443.178,123.725 443.496,124.043 L451.957,132.504 C452.275,132.822 452.705,133 453.154,133 C453.603,133 454.033,132.822 454.35,132.504 L462.316,124.538 L471.769,124.538 L471.769,127.923 C471.771,129.791 473.285,131.305 475.154,131.308 L485.307,131.308 C487.176,131.306 488.69,129.791 488.692,127.923 L488.692,117.769 C488.69,115.901 487.176,114.387 485.308,114.385 Z M448.077,90.692 L458.231,90.692 L458.231,100.846 L448.077,100.846 Z M453.154,128.915 L447.085,122.846 L453.154,116.778 L459.222,122.846 Z M475.154,127.923 L475.154,117.769 L485.308,117.769 L485.308,127.923 Z" />
            <path d="M492.077,83.923 L492.077,138.077 L437.923,138.077 L437.923,83.923 Z" />
        </g>
        <g id="Black-S" transform="translate(0,0)">
            <path d="M685.308,114.385 L675.154,114.385 C673.285,114.387 671.771,115.901 671.769,117.769 L671.769,121.154 L662.316,121.154 L654.846,113.684 L654.846,104.231 L658.231,104.231 C660.099,104.229 661.613,102.715 661.615,100.846 L661.615,90.692 C661.613,88.824 660.099,87.31 658.231,87.308 L648.077,87.308 C646.209,87.31 644.694,88.824 644.692,90.692 L644.692,100.846 C644.695,102.715 646.209,104.229 648.077,104.231 L651.462,104.231 L651.462,113.684 L643.496,121.65 C643.178,121.967 643,122.397 643,122.846 C643,123.295 643.178,123.725 643.496,124.043 L651.957,132.504 C652.275,132.822 652.705,133 653.154,133 C653.603,133 654.033,132.822 654.35,132.504 L662.316,124.538 L671.769,124.538 L671.769,127.923 C671.771,129.791 673.285,131.305 675.154,131.308 L685.307,131.308 C687.176,131.306 688.69,129.791 688.692,127.923 L688.692,117.769 C688.69,115.901 687.176,114.387 685.308,114.385 Z M648.077,90.692 L658.231,90.692 L658.231,100.846 L648.077,100.846 Z M653.154,128.915 L647.085,122.846 L653.154,116.778 L659.222,122.846 Z M675.154,127.923 L675.154,117.769 L685.308,117.769 L685.308,127.923 Z" />
            <path d="M692.077,83.923 L692.077,138.077 L637.923,138.077 L637.923,83.923 Z" />
        </g>
    </g>
</svg>