<?xml version="1.0" encoding="UTF-8"?>
<svg height="600" width="800" xmlns="http://www.w3.org/2000/svg" xmlns:xlink="http://www.w3.org/1999/xlink">
    <style>
        
    </style>
    <g id="Notes" font-family="LucidaGrande, 'Lucida Grande', sans-serif" font-size="13">
        <rect fill="white" height="600.0" width="800.0" x="0.0" y="0.0" />
        <g font-size="13">
            <text x="18.0" y="176.0">Small</text>
            <text x="18.0" y="376.0">Medium</text>
            <text x="18.0" y="576.0">Large</text>
        </g>
        <g font-size="9">
            <text x="250.0" y="30.0">Ultralight</text>
            <text x="450.0" y="30.0">Regular</text>
            <text x="650.0" y="30.0">Black</text>
            <text id="template-version" fill="#505050" text-anchor="end" x="785.0" y="575.0">Template v.3.0</text>
            <a href="https://github.com/swhitty/SwiftDraw">
                <text fill="#505050" text-anchor="end" x="785.0" y="590.0">https://github.com/swhitty/SwiftDraw</text>
            </a>
        </g>
    </g>
    <g id="Guides" stroke="rgb(39, 170, 225)" stroke-width="0.5">
        <path id="Capline-S" d="M18,76 l800,0" />
        <path id="H-reference" d="M85,145.755 L87.685,145.755 L113.369,79.287 L114.052,79.287 L114.052,76 L112.148,76 L85,145.755 Z M95.693,121.536 L130.996,121.536 L130.263,119.313 L96.474,119.313 L95.693,121.536 Z M139.15,145.755 L141.787,145.755 L114.638,76 L113.466,76 L113.466,79.287 L139.15,145.755 Z" stroke="none" transform="translate(0,0)" />
        <path id="Baseline-S" d="M18,146 l800,0" />
        <path id="left-margin-Ultralight-S" d="M221,56 l0,110" />
        <path id="right-margin-Ultralight-S" d="M309,56 l0,110" />
        <path id="left-margin-Regular-S" d="M421,56 l0,110" />
        <path id="right-margin-Regular-S" d="M509,56 l0,110" />
        <path id="left-margin-Black-S" d="M621,56 l0,110" />
        <path id="right-margin-Black-S" d="M709,56 l0,110" />
        <path id="Capline-M" d="M18,276 l800,0" />
        <path id="Baseline-M" d="M18,346 l800,0" />
        <path id="Capline-L" d="M18,476 l800,0" />
        <path id="Baseline-L" d="M18,546 l800,0" />
    </g>
    <g id="Symbols">
        <g id="Ultralight-S" transform="translate(0,0)">
            <path d="M254.846,107.615 C251.108,107.615 248.077,104.585 248.077,100.846 C248.077,97.108 251.108,94.077 254.846,94.077 C258.585,94.077 261.615,97.108 261.615,100.846 C261.611,104.583 258.583,107.611 254.846,107.615 Z M254.846,97.462 C252.977,97.46 251.461,98.973 251.458,100.841 C251.456,102.71 252.968,104.227 254.837,104.231 C256.705,104.234 258.223,102.722 258.227,100.854 C258.23,98.983 256.716,97.465 254.846,97.462 Z" />
            <path d="M266.089,133.701 L242.299,109.909 C241.664,109.275 241.308,108.414 241.308,107.516 L241.308,90.692 C241.308,89.795 241.664,88.934 242.299,88.299 C242.934,87.664 243.795,87.308 244.692,87.308 L261.516,87.308 C262.414,87.308 263.275,87.664 263.909,88.299 L287.701,112.089 C289.023,113.411 289.023,115.554 287.701,116.876 L270.876,133.702 C269.554,135.023 267.411,135.023 266.089,133.702 Z M244.692,90.692 L244.692,107.517 L268.482,131.308 L285.308,114.483 L261.517,90.692 Z" />
            <path d="M292.077,83.923 L292.077,138.077 L237.923,138.077 L237.923,83.923 Z" />
        </g>
        <g id="Regular-S" transform="translate(0,0)">
            <path d="M454.846,107.615 C451.108,107.615 448.077,104.585 448.077,100.846 C448.077,97.108 451.108,94.077 454.846,94.077 C458.585,94.077 461.615,97.108 461.615,100.846 C461.611,104.583 458.583,107.611 454.846,107.615 Z M454.846,97.462 C452.977,97.46 451.461,98.973 451.458,100.841 C451.456,102.71 452.968,104.227 454.837,104.231 C456.705,104.234 458.223,102.722 458.227,100.854 C458.23,98.983 456.716,97.465 454.846,97.462 Z" />
            <path d="M466.089,133.701 L442.299,109.909 C441.664,109.275 441.308,108.414 441.308,107.516 L441.308,90.692 C441.308,89.795 441.664,88.934 442.299,88.299 C442.934,87.664 443.795,87.308 444.692,87.308 L461.516,87.308 C462.414,87.308 463.275,87.664 463.909,88.299 L487.701,112.089 C489.023,113.411 489.023,115.554 487.701,116.876 L470.876,133.702 C469.554,135.023 467.411,135.023 466.089,133.702 Z M444.692,90.692 L444.692,107.517 L468.482,131.308 L485.308,114.483 L461.517,90.692 Z" />
            <path d="M492.077,83.923 L492.077,138.077 L437.923,138.077 L437.923,83.923 Z" />
        </g>
        <g id="Black-S" transform="translate(0,0)">
            <path d="M654.846,107.615 C651.108,107.615 648.077,104.585 648.077,100.846 C648.077,97.108 651.108,94.077 654.846,94.077 C658.585,94.077 661.615,97.108 661.615,100.846 C661.611,104.583 658.583,107.611 654.846,107.615 Z M654.846,97.462 C652.977,97.46 651.461,98.973 651.458,100.841 C651.456,102.71 652.968,104.227 654.837,104.231 C656.705,104.234 658.223,102.722 658.227,100.854 C658.23,98.983 656.716,97.465 654.846,97.462 Z" />
            <path d="M666.089,133.701 L642.299,109.909 C641.664,109.275 641.308,108.414 641.308,107.516 L641.308,90.692 C641.308,89.795 641.664,88.934 642.299,88.299 C642.934,87.664 643.795,87.308 644.692,87.308 L661.516,87.308 C662.414,87.308 663.275,87.664 663.909,88.299 L687.701,112.089 C689.023,113.411 689.023,115.554 687.701,116.876 L670.876,133.702 C669.554,135.023 667.411,135.023 666.089,133.702 Z M644.692,90.692 L644.692,107.517 L668.482,131.308 L685.308,114.483 L661.517,90.692 Z" />
            <path d="M692.077,83.923 L692.077,138.077 L637.923,138.077 L637.923,83.923 Z" />
        </g>
    </g>
</svg>