<?xml version="1.0" encoding="UTF-8"?>
<svg height="600" width="800" xmlns="http://www.w3.org/2000/svg" xmlns:xlink="http://www.w3.org/1999/xlink">
    <style>
        
    </style>
    <g id="Notes" font-family="LucidaGrande, 'Lucida Grande', sans-serif" font-size="13">
        <rect fill="white" height="600.0" width="800.0" x="0.0" y="0.0" />
        <g font-size="13">
            <text x="18.0" y="176.0">Small</text>
            <text x="18.0" y="376.0">Medium</text>
            <text x="18.0" y="576.0">Large</text>
        </g>
        <g font-size="9">
            <text x="250.0" y="30.0">Ultralight</text>
            <text x="450.0" y="30.0">Regular</text>
            <text x="650.0" y="30.0">Black</text>
            <text id="template-version" fill="#505050" text-anchor="end" x="785.0" y="575.0">Template v.3.0</text>
            <a href="https://github.com/swhitty/SwiftDraw">
                <text fill="#505050" text-anchor="end" x="785.0" y="590.0">https://github.com/swhitty/SwiftDraw</text>
            </a>
        </g>
    </g>
    <g id="Guides" stroke="rgb(39, 170, 225)" stroke-width="0.5">
        <path id="Capline-S" d="M18,76 l800,0" />
        <path id="H-reference" d="M85,145.755 L87.685,145.755 L113.369,79.287 L114.052,79.287 L114.052,76 L112.148,76 L85,145.755 Z M95.693,121.536 L130.996,121.536 L130.263,119.313 L96.474,119.313 L95.693,121.536 Z M139.15,145.755 L141.787,145.755 L114.638,76 L113.466,76 L113.466,79.287 L139.15,145.755 Z" stroke="none" transform="translate(0,0)" />
        <path id="Baseline-S" d="M18,146 l800,0" />
        <path id="left-margin-Ultralight-S" d="M221,56 l0,110" />
        <path id="right-margin-Ultralight-S" d="M309,56 l0,110" />
        <path id="left-margin-Regular-S" d="M421,56 l0,110" />
        <path id="right-margin-Regular-S" d="M509,56 l0,110" />
        <path id="left-margin-Black-S" d="M621,56 l0,110" />
        <path id="right-margin-Black-S" d="M709,56 l0,110" />
        <path id="Capline-M" d="M18,276 l800,0" />
        <path id="Baseline-M" d="M18,346 l800,0" />
        <path id="Capline-L" d="M18,476 l800,0" />
        <path id="Baseline-L" d="M18,546 l800,0" />
    </g>
    <g id="Symbols">
        <g id="Ultralight-S" transform="translate(0,0)">
            <path d="M244.692,117.769 L244.692,121.154 L252.453,121.154 L241.308,132.299 L243.701,134.692 L254.846,123.547 L254.846,131.308 L258.231,131.308 L258.231,117.769 L244.692,117.769 Z" />
            <path d="M270.077,107.615 C272.881,107.615 275.154,105.342 275.154,102.538 C275.154,99.735 272.881,97.462 270.077,97.462 C267.273,97.462 265,99.735 265,102.538 C265,103.885 265.535,105.176 266.487,106.128 C267.439,107.08 268.73,107.615 270.077,107.615 Z M270.077,100.846 C271.012,100.846 271.769,101.604 271.769,102.538 C271.769,103.473 271.012,104.231 270.077,104.231 C269.142,104.231 268.385,103.473 268.385,102.538 C268.385,102.09 268.563,101.659 268.88,101.342 C269.198,101.024 269.628,100.846 270.077,100.846 Z" />
            <path d="M281.923,90.692 L248.077,90.692 C247.179,90.692 246.318,91.049 245.684,91.684 C245.049,92.318 244.692,93.179 244.692,94.077 L244.692,111 L248.077,111 L248.077,94.077 L281.923,94.077 L281.923,119.749 L275.848,113.674 C274.528,112.362 272.396,112.362 271.075,113.674 L268.385,116.365 L257.944,105.923 L255.55,108.319 L261.615,114.385 L265.998,118.768 C267.319,120.08 269.451,120.08 270.771,118.768 L273.462,116.077 L281.923,124.538 L281.923,127.923 L265,127.923 L265,131.308 L281.923,131.308 C282.821,131.308 283.682,130.951 284.316,130.316 C284.951,129.682 285.308,128.821 285.308,127.923 L285.308,94.077 C285.308,93.179 284.951,92.318 284.316,91.684 C283.682,91.049 282.821,90.692 281.923,90.692 Z" />
            <path d="M292.077,83.923 L292.077,138.077 L237.923,138.077 L237.923,83.923 Z" />
        </g>
        <g id="Regular-S" transform="translate(0,0)">
            <path d="M444.692,117.769 L444.692,121.154 L452.453,121.154 L441.308,132.299 L443.701,134.692 L454.846,123.547 L454.846,131.308 L458.231,131.308 L458.231,117.769 L444.692,117.769 Z" />
            <path d="M470.077,107.615 C472.881,107.615 475.154,105.342 475.154,102.538 C475.154,99.735 472.881,97.462 470.077,97.462 C467.273,97.462 465,99.735 465,102.538 C465,103.885 465.535,105.176 466.487,106.128 C467.439,107.08 468.73,107.615 470.077,107.615 Z M470.077,100.846 C471.012,100.846 471.769,101.604 471.769,102.538 C471.769,103.473 471.012,104.231 470.077,104.231 C469.142,104.231 468.385,103.473 468.385,102.538 C468.385,102.09 468.563,101.659 468.88,101.342 C469.198,101.024 469.628,100.846 470.077,100.846 Z" />
            <path d="M481.923,90.692 L448.077,90.692 C447.179,90.692 446.318,91.049 445.684,91.684 C445.049,92.318 444.692,93.179 444.692,94.077 L444.692,111 L448.077,111 L448.077,94.077 L481.923,94.077 L481.923,119.749 L475.848,113.674 C474.528,112.362 472.396,112.362 471.075,113.674 L468.385,116.365 L457.944,105.923 L455.55,108.319 L461.615,114.385 L465.998,118.768 C467.319,120.08 469.451,120.08 470.771,118.768 L473.462,116.077 L481.923,124.538 L481.923,127.923 L465,127.923 L465,131.308 L481.923,131.308 C482.821,131.308 483.682,130.951 484.316,130.316 C484.951,129.682 485.308,128.821 485.308,127.923 L485.308,94.077 C485.308,93.179 484.951,92.318 484.316,91.684 C483.682,91.049 482.821,90.692 481.923,90.692 Z" />
            <path d="M492.077,83.923 L492.077,138.077 L437.923,138.077 L437.923,83.923 Z" />
        </g>
        <g id="Black-S" transform="translate(0,0)">
            <path d="M644.692,117.769 L644.692,121.154 L652.453,121.154 L641.308,132.299 L643.701,134.692 L654.846,123.547 L654.846,131.308 L658.231,131.308 L658.231,117.769 L644.692,117.769 Z" />
            <path d="M670.077,107.615 C672.881,107.615 675.154,105.342 675.154,102.538 C675.154,99.735 672.881,97.462 670.077,97.462 C667.273,97.462 665,99.735 665,102.538 C665,103.885 665.535,105.176 666.487,106.128 C667.439,107.08 668.73,107.615 670.077,107.615 Z M670.077,100.846 C671.012,100.846 671.769,101.604 671.769,102.538 C671.769,103.473 671.012,104.231 670.077,104.231 C669.142,104.231 668.385,103.473 668.385,102.538 C668.385,102.09 668.563,101.659 668.88,101.342 C669.198,101.024 669.628,100.846 670.077,100.846 Z" />
            <path d="M681.923,90.692 L648.077,90.692 C647.179,90.692 646.318,91.049 645.684,91.684 C645.049,92.318 644.692,93.179 644.692,94.077 L644.692,111 L648.077,111 L648.077,94.077 L681.923,94.077 L681.923,119.749 L675.848,113.674 C674.528,112.362 672.396,112.362 671.075,113.674 L668.385,116.365 L657.944,105.923 L655.55,108.319 L661.615,114.385 L665.998,118.768 C667.319,120.08 669.451,120.08 670.771,118.768 L673.462,116.077 L681.923,124.538 L681.923,127.923 L665,127.923 L665,131.308 L681.923,131.308 C682.821,131.308 683.682,130.951 684.316,130.316 C684.951,129.682 685.308,128.821 685.308,127.923 L685.308,94.077 C685.308,93.179 684.951,92.318 684.316,91.684 C683.682,91.049 682.821,90.692 681.923,90.692 Z" />
            <path d="M692.077,83.923 L692.077,138.077 L637.923,138.077 L637.923,83.923 Z" />
        </g>
    </g>
</svg>