<?xml version="1.0" encoding="UTF-8"?>
<svg height="600" width="800" xmlns="http://www.w3.org/2000/svg" xmlns:xlink="http://www.w3.org/1999/xlink">
    <style>
        .cls-1 { fill: none }
    </style>
    <g id="Notes" font-family="LucidaGrande, 'Lucida Grande', sans-serif" font-size="13">
        <rect fill="white" height="600.0" width="800.0" x="0.0" y="0.0" />
        <g font-size="13">
            <text x="18.0" y="176.0">Small</text>
            <text x="18.0" y="376.0">Medium</text>
            <text x="18.0" y="576.0">Large</text>
        </g>
        <g font-size="9">
            <text x="250.0" y="30.0">Ultralight</text>
            <text x="450.0" y="30.0">Regular</text>
            <text x="650.0" y="30.0">Black</text>
            <text id="template-version" fill="#505050" text-anchor="end" x="785.0" y="575.0">Template v.3.0</text>
            <a href="https://github.com/swhitty/SwiftDraw">
                <text fill="#505050" text-anchor="end" x="785.0" y="590.0">https://github.com/swhitty/SwiftDraw</text>
            </a>
        </g>
    </g>
    <g id="Guides" stroke="rgb(39, 170, 225)" stroke-width="0.5">
        <path id="Capline-S" d="M18,76 l800,0" />
        <path id="H-reference" d="M85,145.755 L87.685,145.755 L113.369,79.287 L114.052,79.287 L114.052,76 L112.148,76 L85,145.755 Z M95.693,121.536 L130.996,121.536 L130.263,119.313 L96.474,119.313 L95.693,121.536 Z M139.15,145.755 L141.787,145.755 L114.638,76 L113.466,76 L113.466,79.287 L139.15,145.755 Z" stroke="none" transform="translate(0,0)" />
        <path id="Baseline-S" d="M18,146 l800,0" />
        <path id="left-margin-Ultralight-S" d="M221,56 l0,110" />
        <path id="right-margin-Ultralight-S" d="M309,56 l0,110" />
        <path id="left-margin-Regular-S" d="M421,56 l0,110" />
        <path id="right-margin-Regular-S" d="M509,56 l0,110" />
        <path id="left-margin-Black-S" d="M621,56 l0,110" />
        <path id="right-margin-Black-S" d="M709,56 l0,110" />
        <path id="Capline-M" d="M18,276 l800,0" />
        <path id="Baseline-M" d="M18,346 l800,0" />
        <path id="Capline-L" d="M18,476 l800,0" />
        <path id="Baseline-L" d="M18,546 l800,0" />
    </g>
    <g id="Symbols">
        <g id="Ultralight-S" transform="translate(0,0)">
            <path d="M284.135,135.864 L283.81,135.864 C246.227,133.703 240.891,101.991 240.145,92.313 C240.023,90.794 240.512,89.288 241.502,88.129 C242.493,86.97 243.903,86.253 245.424,86.136 L255.962,86.136 C257.53,86.134 258.94,87.089 259.52,88.546 L262.427,95.699 C262.999,97.12 262.668,98.746 261.585,99.83 L257.511,103.942 C258.815,111.35 264.605,117.155 272.009,118.478 L276.16,114.366 C277.26,113.296 278.895,112.987 280.31,113.582 L287.521,116.47 C288.955,117.068 289.884,118.474 289.873,120.028 L289.873,130.126 C289.873,131.648 289.269,133.108 288.193,134.184 C287.117,135.26 285.657,135.864 284.135,135.864 Z M245.883,89.961 C245.375,89.961 244.889,90.162 244.53,90.521 C244.171,90.88 243.97,91.366 243.97,91.874 L243.97,92.027 C244.85,103.349 250.492,130.126 284.021,132.039 C284.528,132.07 285.027,131.898 285.408,131.561 C285.788,131.224 286.019,130.749 286.048,130.241 L286.048,120.028 L278.837,117.14 L273.348,122.591 L272.43,122.476 C255.79,120.391 253.533,103.751 253.533,103.579 L253.418,102.661 L258.85,97.172 L255.981,89.961 Z" />
        </g>
        <g id="Regular-S" transform="translate(0,0)">
            <path d="M484.135,135.864 L483.81,135.864 C446.227,133.703 440.891,101.991 440.145,92.313 C440.023,90.794 440.512,89.288 441.502,88.129 C442.493,86.97 443.904,86.253 445.424,86.136 L455.962,86.136 C457.53,86.134 458.94,87.089 459.52,88.546 L462.427,95.699 C462.999,97.12 462.668,98.746 461.585,99.83 L457.511,103.942 C458.815,111.35 464.605,117.155 472.009,118.478 L476.16,114.366 C477.26,113.296 478.895,112.987 480.31,113.582 L487.521,116.47 C488.955,117.068 489.884,118.474 489.873,120.028 L489.873,130.126 C489.873,131.648 489.269,133.108 488.193,134.184 C487.117,135.26 485.657,135.864 484.135,135.864 Z M445.883,89.961 C445.375,89.961 444.889,90.162 444.53,90.521 C444.171,90.88 443.97,91.366 443.97,91.874 L443.97,92.027 C444.85,103.349 450.492,130.126 484.021,132.039 C484.528,132.07 485.027,131.898 485.408,131.561 C485.788,131.224 486.019,130.749 486.048,130.241 L486.048,120.028 L478.837,117.14 L473.348,122.591 L472.43,122.476 C455.79,120.391 453.533,103.751 453.533,103.579 L453.418,102.661 L458.85,97.172 L455.981,89.961 Z" />
        </g>
        <g id="Black-S" transform="translate(0,0)">
            <path d="M684.135,135.864 L683.81,135.864 C646.227,133.703 640.891,101.991 640.145,92.313 C640.023,90.794 640.512,89.288 641.502,88.129 C642.492,86.97 643.904,86.253 645.424,86.136 L655.962,86.136 C657.53,86.134 658.94,87.089 659.52,88.546 L662.427,95.699 C662.999,97.12 662.668,98.746 661.585,99.83 L657.511,103.942 C658.815,111.35 664.605,117.155 672.009,118.478 L676.16,114.366 C677.26,113.296 678.895,112.987 680.31,113.582 L687.521,116.47 C688.955,117.068 689.884,118.474 689.873,120.028 L689.873,130.126 C689.873,131.648 689.269,133.108 688.193,134.184 C687.117,135.26 685.657,135.864 684.135,135.864 Z M645.883,89.961 C645.375,89.961 644.889,90.162 644.53,90.521 C644.171,90.88 643.97,91.366 643.97,91.874 L643.97,92.027 C644.85,103.349 650.492,130.126 684.021,132.039 C684.528,132.07 685.027,131.898 685.408,131.561 C685.788,131.224 686.019,130.749 686.048,130.241 L686.048,120.028 L678.837,117.14 L673.348,122.591 L672.43,122.476 C655.79,120.391 653.533,103.751 653.533,103.579 L653.418,102.661 L658.85,97.172 L655.981,89.961 Z" />
        </g>
    </g>
</svg>