<?xml version="1.0" encoding="UTF-8"?>
<svg height="600" width="800" xmlns="http://www.w3.org/2000/svg" xmlns:xlink="http://www.w3.org/1999/xlink">
    <style>
        .cls-1 { fill: none }
    </style>
    <g id="Notes" font-family="LucidaGrande, 'Lucida Grande', sans-serif" font-size="13">
        <rect fill="white" height="600.0" width="800.0" x="0.0" y="0.0" />
        <g font-size="13">
            <text x="18.0" y="176.0">Small</text>
            <text x="18.0" y="376.0">Medium</text>
            <text x="18.0" y="576.0">Large</text>
        </g>
        <g font-size="9">
            <text x="250.0" y="30.0">Ultralight</text>
            <text x="450.0" y="30.0">Regular</text>
            <text x="650.0" y="30.0">Black</text>
            <text id="template-version" fill="#505050" text-anchor="end" x="785.0" y="575.0">Template v.3.0</text>
            <a href="https://github.com/swhitty/SwiftDraw">
                <text fill="#505050" text-anchor="end" x="785.0" y="590.0">https://github.com/swhitty/SwiftDraw</text>
            </a>
        </g>
    </g>
    <g id="Guides" stroke="rgb(39, 170, 225)" stroke-width="0.5">
        <path id="Capline-S" d="M18,76 l800,0" />
        <path id="H-reference" d="M85,145.755 L87.685,145.755 L113.369,79.287 L114.052,79.287 L114.052,76 L112.148,76 L85,145.755 Z M95.693,121.536 L130.996,121.536 L130.263,119.313 L96.474,119.313 L95.693,121.536 Z M139.15,145.755 L141.787,145.755 L114.638,76 L113.466,76 L113.466,79.287 L139.15,145.755 Z" stroke="none" transform="translate(0,0)" />
        <path id="Baseline-S" d="M18,146 l800,0" />
        <path id="left-margin-Ultralight-S" d="M221,56 l0,110" />
        <path id="right-margin-Ultralight-S" d="M309,56 l0,110" />
        <path id="left-margin-Regular-S" d="M421,56 l0,110" />
        <path id="right-margin-Regular-S" d="M509,56 l0,110" />
        <path id="left-margin-Black-S" d="M621,56 l0,110" />
        <path id="right-margin-Black-S" d="M709,56 l0,110" />
        <path id="Capline-M" d="M18,276 l800,0" />
        <path id="Baseline-M" d="M18,346 l800,0" />
        <path id="Capline-L" d="M18,476 l800,0" />
        <path id="Baseline-L" d="M18,546 l800,0" />
    </g>
    <g id="Symbols">
        <g id="Ultralight-S" transform="translate(0,0)">
            <path d="M269,127 C269,124.791 270.791,123 273,123 C275.209,123 277,124.791 277,127 C277,129.209 275.209,131 273,131 C270.791,131 269,129.209 269,127 Z" />
            <path d="M288.554,125.957 C286.028,119.523 279.91,115.213 273,115 C266.09,115.213 259.972,119.523 257.446,125.957 L257,127 L257.446,128.043 C259.972,134.478 266.09,138.788 273,139 C279.91,138.788 286.028,134.478 288.554,128.043 L289,127 Z M273,135 C268.582,135 265,131.419 265,127 C265,122.582 268.582,119 273,119 C277.418,119 281,122.582 281,127 C280.995,131.416 277.416,134.995 273,135 Z" />
            <path d="M253,135 L245,135 L245,87 L261,87 L261,99 C261.006,101.207 262.794,102.994 265,103 L277,103 L277,111 L281,111 L281,99 C281.014,98.468 280.795,97.957 280.4,97.6 L266.4,83.6 C266.044,83.205 265.532,82.986 265,83 L245,83 C242.794,83.007 241.006,84.794 241,87 L241,135 C241.006,137.207 242.794,138.994 245,139 L253,139 Z M265,87.8 L276.2,99 L265,99 Z" />
        </g>
        <g id="Regular-S" transform="translate(0,0)">
            <path d="M469,127 C469,124.791 470.791,123 473,123 C475.209,123 477,124.791 477,127 C477,129.209 475.209,131 473,131 C470.791,131 469,129.209 469,127 Z" />
            <path d="M488.554,125.957 C486.028,119.523 479.91,115.213 473,115 C466.09,115.213 459.972,119.523 457.446,125.957 L457,127 L457.446,128.043 C459.972,134.478 466.09,138.788 473,139 C479.91,138.788 486.028,134.478 488.554,128.043 L489,127 Z M473,135 C468.582,135 465,131.419 465,127 C465,122.582 468.582,119 473,119 C477.418,119 481,122.582 481,127 C480.995,131.416 477.416,134.995 473,135 Z" />
            <path d="M453,135 L445,135 L445,87 L461,87 L461,99 C461.006,101.207 462.794,102.994 465,103 L477,103 L477,111 L481,111 L481,99 C481.014,98.468 480.795,97.957 480.4,97.6 L466.4,83.6 C466.044,83.205 465.532,82.986 465,83 L445,83 C442.794,83.007 441.006,84.794 441,87 L441,135 C441.006,137.207 442.794,138.994 445,139 L453,139 Z M465,87.8 L476.2,99 L465,99 Z" />
        </g>
        <g id="Black-S" transform="translate(0,0)">
            <path d="M669,127 C669,124.791 670.791,123 673,123 C675.209,123 677,124.791 677,127 C677,129.209 675.209,131 673,131 C670.791,131 669,129.209 669,127 Z" />
            <path d="M688.554,125.957 C686.028,119.523 679.91,115.213 673,115 C666.09,115.213 659.972,119.523 657.446,125.957 L657,127 L657.446,128.043 C659.972,134.478 666.09,138.788 673,139 C679.91,138.788 686.028,134.478 688.554,128.043 L689,127 Z M673,135 C668.582,135 665,131.419 665,127 C665,122.582 668.582,119 673,119 C677.418,119 681,122.582 681,127 C680.995,131.416 677.416,134.995 673,135 Z" />
            <path d="M653,135 L645,135 L645,87 L661,87 L661,99 C661.006,101.207 662.794,102.994 665,103 L677,103 L677,111 L681,111 L681,99 C681.015,98.468 680.795,97.957 680.4,97.6 L666.4,83.6 C666.044,83.205 665.532,82.986 665,83 L645,83 C642.794,83.007 641.006,84.794 641,87 L641,135 C641.006,137.207 642.794,138.994 645,139 L653,139 Z M665,87.8 L676.2,99 L665,99 Z" />
        </g>
    </g>
</svg>