<?xml version="1.0" encoding="UTF-8"?>
<svg height="600" width="800" xmlns="http://www.w3.org/2000/svg" xmlns:xlink="http://www.w3.org/1999/xlink">
    <style>
        .st0 { fill: none }
    </style>
    <g id="Notes" font-family="LucidaGrande, 'Lucida Grande', sans-serif" font-size="13">
        <rect fill="white" height="600.0" width="800.0" x="0.0" y="0.0" />
        <g font-size="13">
            <text x="18.0" y="176.0">Small</text>
            <text x="18.0" y="376.0">Medium</text>
            <text x="18.0" y="576.0">Large</text>
        </g>
        <g font-size="9">
            <text x="250.0" y="30.0">Ultralight</text>
            <text x="450.0" y="30.0">Regular</text>
            <text x="650.0" y="30.0">Black</text>
            <text id="template-version" fill="#505050" text-anchor="end" x="785.0" y="575.0">Template v.3.0</text>
            <a href="https://github.com/swhitty/SwiftDraw">
                <text fill="#505050" text-anchor="end" x="785.0" y="590.0">https://github.com/swhitty/SwiftDraw</text>
            </a>
        </g>
    </g>
    <g id="Guides" stroke="rgb(39, 170, 225)" stroke-width="0.5">
        <path id="Capline-S" d="M18,76 l800,0" />
        <path id="H-reference" d="M85,145.755 L87.685,145.755 L113.369,79.287 L114.052,79.287 L114.052,76 L112.148,76 L85,145.755 Z M95.693,121.536 L130.996,121.536 L130.263,119.313 L96.474,119.313 L95.693,121.536 Z M139.15,145.755 L141.787,145.755 L114.638,76 L113.466,76 L113.466,79.287 L139.15,145.755 Z" stroke="none" transform="translate(0,0)" />
        <path id="Baseline-S" d="M18,146 l800,0" />
        <path id="left-margin-Ultralight-S" d="M221,56 l0,110" />
        <path id="right-margin-Ultralight-S" d="M309,56 l0,110" />
        <path id="left-margin-Regular-S" d="M421,56 l0,110" />
        <path id="right-margin-Regular-S" d="M509,56 l0,110" />
        <path id="left-margin-Black-S" d="M621,56 l0,110" />
        <path id="right-margin-Black-S" d="M709,56 l0,110" />
        <path id="Capline-M" d="M18,276 l800,0" />
        <path id="Baseline-M" d="M18,346 l800,0" />
        <path id="Capline-L" d="M18,476 l800,0" />
        <path id="Baseline-L" d="M18,546 l800,0" />
    </g>
    <g id="Symbols">
        <g id="Ultralight-S" transform="translate(0,0)">
            <path d="M283.333,116.5 L279.667,116.5 L279.667,123.833 L272.333,123.833 L272.333,127.5 L279.667,127.5 L279.667,134.833 L283.333,134.833 L283.333,127.5 L290.667,127.5 L290.667,123.833 L283.333,123.833 Z" />
            <path d="M287,94.5 L265,94.5 L258.767,88.267 C258.033,87.533 257.117,87.167 256.2,87.167 L243,87.167 C240.983,87.167 239.333,88.817 239.333,90.833 L239.333,127.5 C239.333,129.517 240.983,131.167 243,131.167 L268.667,131.167 L268.667,127.5 L243,127.5 L243,90.833 L256.2,90.833 L262.433,97.067 L263.533,98.167 L287,98.167 L287,112.833 L290.667,112.833 L290.667,98.167 C290.667,96.15 289.017,94.5 287,94.5 Z" />
        </g>
        <g id="Regular-S" transform="translate(0,0)">
            <path d="M483.333,116.5 L479.667,116.5 L479.667,123.833 L472.333,123.833 L472.333,127.5 L479.667,127.5 L479.667,134.833 L483.333,134.833 L483.333,127.5 L490.667,127.5 L490.667,123.833 L483.333,123.833 Z" />
            <path d="M487,94.5 L465,94.5 L458.767,88.267 C458.033,87.533 457.117,87.167 456.2,87.167 L443,87.167 C440.983,87.167 439.333,88.817 439.333,90.833 L439.333,127.5 C439.333,129.517 440.983,131.167 443,131.167 L468.667,131.167 L468.667,127.5 L443,127.5 L443,90.833 L456.2,90.833 L462.433,97.067 L463.533,98.167 L487,98.167 L487,112.833 L490.667,112.833 L490.667,98.167 C490.667,96.15 489.017,94.5 487,94.5 Z" />
        </g>
        <g id="Black-S" transform="translate(0,0)">
            <path d="M683.333,116.5 L679.667,116.5 L679.667,123.833 L672.333,123.833 L672.333,127.5 L679.667,127.5 L679.667,134.833 L683.333,134.833 L683.333,127.5 L690.667,127.5 L690.667,123.833 L683.333,123.833 Z" />
            <path d="M687,94.5 L665,94.5 L658.767,88.267 C658.033,87.533 657.117,87.167 656.2,87.167 L643,87.167 C640.983,87.167 639.333,88.817 639.333,90.833 L639.333,127.5 C639.333,129.517 640.983,131.167 643,131.167 L668.667,131.167 L668.667,127.5 L643,127.5 L643,90.833 L656.2,90.833 L662.433,97.067 L663.533,98.167 L687,98.167 L687,112.833 L690.667,112.833 L690.667,98.167 C690.667,96.15 689.017,94.5 687,94.5 Z" />
        </g>
    </g>
</svg>