<?xml version="1.0" encoding="UTF-8"?>
<svg height="600" width="800" xmlns="http://www.w3.org/2000/svg" xmlns:xlink="http://www.w3.org/1999/xlink">
    <style>
        .cls-1 { fill: none }
    </style>
    <g id="Notes" font-family="LucidaGrande, 'Lucida Grande', sans-serif" font-size="13">
        <rect fill="white" height="600.0" width="800.0" x="0.0" y="0.0" />
        <g font-size="13">
            <text x="18.0" y="176.0">Small</text>
            <text x="18.0" y="376.0">Medium</text>
            <text x="18.0" y="576.0">Large</text>
        </g>
        <g font-size="9">
            <text x="250.0" y="30.0">Ultralight</text>
            <text x="450.0" y="30.0">Regular</text>
            <text x="650.0" y="30.0">Black</text>
            <text id="template-version" fill="#505050" text-anchor="end" x="785.0" y="575.0">Template v.3.0</text>
            <a href="https://github.com/swhitty/SwiftDraw">
                <text fill="#505050" text-anchor="end" x="785.0" y="590.0">https://github.com/swhitty/SwiftDraw</text>
            </a>
        </g>
    </g>
    <g id="Guides" stroke="rgb(39, 170, 225)" stroke-width="0.5">
        <path id="Capline-S" d="M18,76 l800,0" />
        <path id="H-reference" d="M85,145.755 L87.685,145.755 L113.369,79.287 L114.052,79.287 L114.052,76 L112.148,76 L85,145.755 Z M95.693,121.536 L130.996,121.536 L130.263,119.313 L96.474,119.313 L95.693,121.536 Z M139.15,145.755 L141.787,145.755 L114.638,76 L113.466,76 L113.466,79.287 L139.15,145.755 Z" stroke="none" transform="translate(0,0)" />
        <path id="Baseline-S" d="M18,146 l800,0" />
        <path id="left-margin-Ultralight-S" d="M221,56 l0,110" />
        <path id="right-margin-Ultralight-S" d="M309,56 l0,110" />
        <path id="left-margin-Regular-S" d="M421,56 l0,110" />
        <path id="right-margin-Regular-S" d="M509,56 l0,110" />
        <path id="left-margin-Black-S" d="M621,56 l0,110" />
        <path id="right-margin-Black-S" d="M709,56 l0,110" />
        <path id="Capline-M" d="M18,276 l800,0" />
        <path id="Baseline-M" d="M18,346 l800,0" />
        <path id="Capline-L" d="M18,476 l800,0" />
        <path id="Baseline-L" d="M18,546 l800,0" />
    </g>
    <g id="Symbols">
        <g id="Ultralight-S" transform="translate(0,0)">
            <path d="M277.833,127.5 L277.833,134.833 L270.5,134.833 L270.5,127.5 Z" />
            <path d="M290.667,127.5 L290.667,134.833 L283.333,134.833 L283.333,127.5 Z" />
            <path d="M277.833,114.667 L277.833,122 L270.5,122 L270.5,114.667 Z" />
            <path d="M290.667,114.667 L290.667,122 L283.333,122 L283.333,114.667 Z" />
            <path d="M266.833,127.5 L243,127.5 L243,101.833 L287,101.833 L287,111 L290.667,111 L290.667,101.833 C290.664,99.809 289.024,98.169 287,98.167 L276,98.167 L276,90.833 C275.998,88.809 274.358,87.169 272.334,87.167 L257.667,87.167 C255.642,87.169 254.002,88.809 254,90.833 L254,98.167 L243,98.167 C240.976,98.169 239.335,99.809 239.333,101.833 L239.333,127.5 C239.336,129.524 240.976,131.164 243,131.167 L266.833,131.167 Z M257.667,90.833 L272.333,90.833 L272.333,98.167 L257.667,98.167 Z" />
        </g>
        <g id="Regular-S" transform="translate(0,0)">
            <path d="M477.833,127.5 L477.833,134.833 L470.5,134.833 L470.5,127.5 Z" />
            <path d="M490.667,127.5 L490.667,134.833 L483.333,134.833 L483.333,127.5 Z" />
            <path d="M477.833,114.667 L477.833,122 L470.5,122 L470.5,114.667 Z" />
            <path d="M490.667,114.667 L490.667,122 L483.333,122 L483.333,114.667 Z" />
            <path d="M466.833,127.5 L443,127.5 L443,101.833 L487,101.833 L487,111 L490.667,111 L490.667,101.833 C490.664,99.809 489.024,98.169 487,98.167 L476,98.167 L476,90.833 C475.998,88.809 474.358,87.169 472.334,87.167 L457.667,87.167 C455.642,87.169 454.002,88.809 454,90.833 L454,98.167 L443,98.167 C440.976,98.169 439.335,99.809 439.333,101.833 L439.333,127.5 C439.336,129.524 440.976,131.164 443,131.167 L466.833,131.167 Z M457.667,90.833 L472.333,90.833 L472.333,98.167 L457.667,98.167 Z" />
        </g>
        <g id="Black-S" transform="translate(0,0)">
            <path d="M677.833,127.5 L677.833,134.833 L670.5,134.833 L670.5,127.5 Z" />
            <path d="M690.667,127.5 L690.667,134.833 L683.333,134.833 L683.333,127.5 Z" />
            <path d="M677.833,114.667 L677.833,122 L670.5,122 L670.5,114.667 Z" />
            <path d="M690.667,114.667 L690.667,122 L683.333,122 L683.333,114.667 Z" />
            <path d="M666.833,127.5 L643,127.5 L643,101.833 L687,101.833 L687,111 L690.667,111 L690.667,101.833 C690.664,99.809 689.024,98.169 687,98.167 L676,98.167 L676,90.833 C675.998,88.809 674.358,87.169 672.334,87.167 L657.667,87.167 C655.642,87.169 654.002,88.809 654,90.833 L654,98.167 L643,98.167 C640.976,98.169 639.335,99.809 639.333,101.833 L639.333,127.5 C639.336,129.524 640.976,131.164 643,131.167 L666.833,131.167 Z M657.667,90.833 L672.333,90.833 L672.333,98.167 L657.667,98.167 Z" />
        </g>
    </g>
</svg>