<?xml version="1.0" encoding="UTF-8"?>
<svg height="600" width="800" xmlns="http://www.w3.org/2000/svg" xmlns:xlink="http://www.w3.org/1999/xlink">
    <style>
        .cls-1 { fill: none }
    </style>
    <g id="Notes" font-family="LucidaGrande, 'Lucida Grande', sans-serif" font-size="13">
        <rect fill="white" height="600.0" width="800.0" x="0.0" y="0.0" />
        <g font-size="13">
            <text x="18.0" y="176.0">Small</text>
            <text x="18.0" y="376.0">Medium</text>
            <text x="18.0" y="576.0">Large</text>
        </g>
        <g font-size="9">
            <text x="250.0" y="30.0">Ultralight</text>
            <text x="450.0" y="30.0">Regular</text>
            <text x="650.0" y="30.0">Black</text>
            <text id="template-version" fill="#505050" text-anchor="end" x="785.0" y="575.0">Template v.3.0</text>
            <a href="https://github.com/swhitty/SwiftDraw">
                <text fill="#505050" text-anchor="end" x="785.0" y="590.0">https://github.com/swhitty/SwiftDraw</text>
            </a>
        </g>
    </g>
    <g id="Guides" stroke="rgb(39, 170, 225)" stroke-width="0.5">
        <path id="Capline-S" d="M18,76 l800,0" />
        <path id="H-reference" d="M85,145.755 L87.685,145.755 L113.369,79.287 L114.052,79.287 L114.052,76 L112.148,76 L85,145.755 Z M95.693,121.536 L130.996,121.536 L130.263,119.313 L96.474,119.313 L95.693,121.536 Z M139.15,145.755 L141.787,145.755 L114.638,76 L113.466,76 L113.466,79.287 L139.15,145.755 Z" stroke="none" transform="translate(0,0)" />
        <path id="Baseline-S" d="M18,146 l800,0" />
        <path id="left-margin-Ultralight-S" d="M221,56 l0,110" />
        <path id="right-margin-Ultralight-S" d="M309,56 l0,110" />
        <path id="left-margin-Regular-S" d="M421,56 l0,110" />
        <path id="right-margin-Regular-S" d="M509,56 l0,110" />
        <path id="left-margin-Black-S" d="M621,56 l0,110" />
        <path id="right-margin-Black-S" d="M709,56 l0,110" />
        <path id="Capline-M" d="M18,276 l800,0" />
        <path id="Baseline-M" d="M18,346 l800,0" />
        <path id="Capline-L" d="M18,476 l800,0" />
        <path id="Baseline-L" d="M18,546 l800,0" />
    </g>
    <g id="Symbols">
        <g id="Ultralight-S" transform="translate(0,0)">
            <path d="M288.313,93.877 C286.333,91.891 283.644,90.774 280.84,90.774 C278.035,90.774 275.346,91.891 273.367,93.877 L275.864,96.374 C278.617,93.621 283.08,93.621 285.833,96.373 C288.586,99.125 288.587,103.589 285.835,106.342 L271.768,120.409 C269.02,123.162 264.56,123.166 261.807,120.418 C259.054,117.67 259.05,113.21 261.798,110.457 L264.278,107.96 L261.798,105.463 L259.301,107.96 C257.315,109.94 256.198,112.629 256.198,115.433 C256.198,118.238 257.315,120.927 259.301,122.906 C261.29,124.871 263.978,125.965 266.773,125.95 C269.588,125.962 272.292,124.847 274.281,122.855 L288.348,108.788 C292.453,104.659 292.437,97.986 288.313,93.877 Z" />
            <path d="M244.248,125.633 C242.922,124.313 242.176,122.52 242.176,120.648 C242.176,118.777 242.922,116.983 244.248,115.663 L258.315,101.596 C259.635,100.27 261.429,99.525 263.3,99.525 C265.171,99.525 266.965,100.27 268.285,101.596 C269.603,102.927 270.326,104.735 270.29,106.608 C270.3,108.486 269.56,110.29 268.232,111.619 L264.505,115.4 L267.001,117.897 L270.729,114.169 C273.403,111.495 274.446,107.599 273.467,103.947 C272.489,100.295 269.636,97.443 265.984,96.466 C262.331,95.488 258.435,96.533 255.763,99.208 L241.696,113.275 C239.704,115.255 238.584,117.948 238.584,120.757 C238.584,123.565 239.704,126.258 241.696,128.238 C243.699,130.187 246.394,131.261 249.189,131.225 C252.008,131.228 254.713,130.115 256.715,128.13 L254.218,125.633 C252.898,126.96 251.104,127.705 249.233,127.705 C247.362,127.705 245.568,126.96 244.248,125.633 Z" />
        </g>
        <g id="Regular-S" transform="translate(0,0)">
            <path d="M488.313,93.877 C486.333,91.891 483.644,90.774 480.84,90.774 C478.035,90.774 475.346,91.891 473.367,93.877 L475.864,96.374 C478.617,93.621 483.08,93.621 485.833,96.373 C488.586,99.125 488.587,103.589 485.835,106.342 L471.768,120.409 C469.02,123.162 464.56,123.166 461.807,120.418 C459.054,117.67 459.05,113.21 461.798,110.457 L464.278,107.96 L461.798,105.463 L459.301,107.96 C457.315,109.94 456.198,112.629 456.198,115.433 C456.198,118.238 457.315,120.927 459.301,122.906 C461.29,124.871 463.978,125.965 466.773,125.95 C469.588,125.962 472.292,124.847 474.281,122.855 L488.348,108.788 C492.452,104.659 492.437,97.986 488.313,93.877 Z" />
            <path d="M444.248,125.633 C442.922,124.313 442.176,122.52 442.176,120.648 C442.176,118.777 442.922,116.983 444.248,115.663 L458.315,101.596 C459.635,100.27 461.429,99.525 463.3,99.525 C465.171,99.525 466.965,100.27 468.285,101.596 C469.603,102.927 470.326,104.735 470.29,106.608 C470.3,108.486 469.56,110.29 468.232,111.619 L464.505,115.4 L467.001,117.897 L470.729,114.169 C473.403,111.495 474.446,107.599 473.467,103.947 C472.489,100.295 469.636,97.443 465.984,96.466 C462.331,95.488 458.435,96.533 455.763,99.208 L441.696,113.275 C439.704,115.255 438.584,117.948 438.584,120.757 C438.584,123.565 439.704,126.258 441.696,128.238 C443.699,130.187 446.394,131.261 449.189,131.225 C452.008,131.228 454.713,130.115 456.715,128.13 L454.218,125.633 C452.898,126.96 451.104,127.705 449.233,127.705 C447.362,127.705 445.568,126.96 444.248,125.633 Z" />
        </g>
        <g id="Black-S" transform="translate(0,0)">
            <path d="M688.313,93.877 C686.333,91.891 683.644,90.774 680.84,90.774 C678.036,90.774 675.346,91.891 673.367,93.877 L675.864,96.374 C678.617,93.621 683.08,93.621 685.833,96.373 C688.586,99.125 688.587,103.589 685.836,106.342 L671.768,120.409 C669.02,123.162 664.56,123.166 661.807,120.418 C659.054,117.67 659.05,113.21 661.798,110.457 L664.278,107.96 L661.798,105.463 L659.302,107.96 C657.315,109.94 656.198,112.629 656.198,115.433 C656.198,118.238 657.315,120.927 659.301,122.906 C661.29,124.871 663.978,125.965 666.773,125.95 C669.588,125.962 672.292,124.847 674.281,122.855 L688.348,108.788 C692.453,104.659 692.437,97.986 688.313,93.877 Z" />
            <path d="M644.248,125.633 C642.922,124.313 642.176,122.52 642.176,120.648 C642.176,118.777 642.922,116.983 644.248,115.663 L658.315,101.596 C659.635,100.27 661.429,99.525 663.3,99.525 C665.171,99.525 666.965,100.27 668.285,101.596 C669.603,102.927 670.326,104.735 670.29,106.608 C670.301,108.486 669.56,110.29 668.232,111.619 L664.505,115.4 L667.001,117.897 L670.729,114.169 C673.403,111.495 674.446,107.599 673.468,103.947 C672.489,100.295 669.636,97.443 665.984,96.466 C662.331,95.488 658.435,96.533 655.763,99.208 L641.696,113.275 C639.704,115.255 638.584,117.948 638.584,120.757 C638.584,123.565 639.704,126.258 641.696,128.238 C643.699,130.187 646.394,131.261 649.189,131.225 C652.008,131.228 654.713,130.115 656.715,128.13 L654.218,125.633 C652.898,126.96 651.104,127.705 649.233,127.705 C647.362,127.705 645.568,126.96 644.248,125.633 Z" />
        </g>
    </g>
</svg>