<?xml version="1.0" encoding="UTF-8"?>
<svg height="600" width="800" xmlns="http://www.w3.org/2000/svg" xmlns:xlink="http://www.w3.org/1999/xlink">
    <style>
        
    </style>
    <g id="Notes" font-family="LucidaGrande, 'Lucida Grande', sans-serif" font-size="13">
        <rect fill="white" height="600.0" width="800.0" x="0.0" y="0.0" />
        <g font-size="13">
            <text x="18.0" y="176.0">Small</text>
            <text x="18.0" y="376.0">Medium</text>
            <text x="18.0" y="576.0">Large</text>
        </g>
        <g font-size="9">
            <text x="250.0" y="30.0">Ultralight</text>
            <text x="450.0" y="30.0">Regular</text>
            <text x="650.0" y="30.0">Black</text>
            <text id="template-version" fill="#505050" text-anchor="end" x="785.0" y="575.0">Template v.3.0</text>
            <a href="https://github.com/swhitty/SwiftDraw">
                <text fill="#505050" text-anchor="end" x="785.0" y="590.0">https://github.com/swhitty/SwiftDraw</text>
            </a>
        </g>
    </g>
    <g id="Guides" stroke="rgb(39, 170, 225)" stroke-width="0.5">
        <path id="Capline-S" d="M18,76 l800,0" />
        <path id="H-reference" d="M85,145.755 L87.685,145.755 L113.369,79.287 L114.052,79.287 L114.052,76 L112.148,76 L85,145.755 Z M95.693,121.536 L130.996,121.536 L130.263,119.313 L96.474,119.313 L95.693,121.536 Z M139.15,145.755 L141.787,145.755 L114.638,76 L113.466,76 L113.466,79.287 L139.15,145.755 Z" stroke="none" transform="translate(0,0)" />
        <path id="Baseline-S" d="M18,146 l800,0" />
        <path id="left-margin-Ultralight-S" d="M221,56 l0,110" />
        <path id="right-margin-Ultralight-S" d="M309,56 l0,110" />
        <path id="left-margin-Regular-S" d="M421,56 l0,110" />
        <path id="right-margin-Regular-S" d="M509,56 l0,110" />
        <path id="left-margin-Black-S" d="M621,56 l0,110" />
        <path id="right-margin-Black-S" d="M709,56 l0,110" />
        <path id="Capline-M" d="M18,276 l800,0" />
        <path id="Baseline-M" d="M18,346 l800,0" />
        <path id="Capline-L" d="M18,476 l800,0" />
        <path id="Baseline-L" d="M18,546 l800,0" />
    </g>
    <g id="Symbols">
        <g id="Ultralight-S" transform="translate(0,0)">
            <path d="M267.393,111 L278.538,99.855 L276.145,97.462 L265,108.607 L253.855,97.462 L251.462,99.855 L262.607,111 L251.462,122.145 L253.855,124.538 L265,113.393 L276.145,124.538 L278.538,122.145 L267.393,111 Z" />
            <path d="M292.077,83.923 L292.077,138.077 L237.923,138.077 L237.923,83.923 Z" />
        </g>
        <g id="Regular-S" transform="translate(0,0)">
            <path d="M467.393,111 L478.538,99.855 L476.145,97.462 L465,108.607 L453.855,97.462 L451.462,99.855 L462.607,111 L451.462,122.145 L453.855,124.538 L465,113.393 L476.145,124.538 L478.538,122.145 L467.393,111 Z" />
            <path d="M492.077,83.923 L492.077,138.077 L437.923,138.077 L437.923,83.923 Z" />
        </g>
        <g id="Black-S" transform="translate(0,0)">
            <path d="M667.393,111 L678.538,99.855 L676.145,97.462 L665,108.607 L653.855,97.462 L651.462,99.855 L662.607,111 L651.462,122.145 L653.855,124.538 L665,113.393 L676.145,124.538 L678.538,122.145 L667.393,111 Z" />
            <path d="M692.077,83.923 L692.077,138.077 L637.923,138.077 L637.923,83.923 Z" />
        </g>
    </g>
</svg>