<?xml version="1.0" encoding="UTF-8"?>
<svg height="600" width="800" xmlns="http://www.w3.org/2000/svg" xmlns:xlink="http://www.w3.org/1999/xlink">
    <style>
        .cls-1 { fill: none }
    </style>
    <g id="Notes" font-family="LucidaGrande, 'Lucida Grande', sans-serif" font-size="13">
        <rect fill="white" height="600.0" width="800.0" x="0.0" y="0.0" />
        <g font-size="13">
            <text x="18.0" y="176.0">Small</text>
            <text x="18.0" y="376.0">Medium</text>
            <text x="18.0" y="576.0">Large</text>
        </g>
        <g font-size="9">
            <text x="250.0" y="30.0">Ultralight</text>
            <text x="450.0" y="30.0">Regular</text>
            <text x="650.0" y="30.0">Black</text>
            <text id="template-version" fill="#505050" text-anchor="end" x="785.0" y="575.0">Template v.3.0</text>
            <a href="https://github.com/swhitty/SwiftDraw">
                <text fill="#505050" text-anchor="end" x="785.0" y="590.0">https://github.com/swhitty/SwiftDraw</text>
            </a>
        </g>
    </g>
    <g id="Guides" stroke="rgb(39, 170, 225)" stroke-width="0.5">
        <path id="Capline-S" d="M18,76 l800,0" />
        <path id="H-reference" d="M85,145.755 L87.685,145.755 L113.369,79.287 L114.052,79.287 L114.052,76 L112.148,76 L85,145.755 Z M95.693,121.536 L130.996,121.536 L130.263,119.313 L96.474,119.313 L95.693,121.536 Z M139.15,145.755 L141.787,145.755 L114.638,76 L113.466,76 L113.466,79.287 L139.15,145.755 Z" stroke="none" transform="translate(0,0)" />
        <path id="Baseline-S" d="M18,146 l800,0" />
        <path id="left-margin-Ultralight-S" d="M221,56 l0,110" />
        <path id="right-margin-Ultralight-S" d="M309,56 l0,110" />
        <path id="left-margin-Regular-S" d="M421,56 l0,110" />
        <path id="right-margin-Regular-S" d="M509,56 l0,110" />
        <path id="left-margin-Black-S" d="M621,56 l0,110" />
        <path id="right-margin-Black-S" d="M709,56 l0,110" />
        <path id="Capline-M" d="M18,276 l800,0" />
        <path id="Baseline-M" d="M18,346 l800,0" />
        <path id="Capline-L" d="M18,476 l800,0" />
        <path id="Baseline-L" d="M18,546 l800,0" />
    </g>
    <g id="Symbols">
        <g id="Ultralight-S" transform="translate(0,0)">
            <path d="M257.667,134.833 C256.927,134.83 256.261,134.381 255.98,133.697 L247.272,112.833 L239.333,112.833 L239.333,109.167 L248.5,109.167 C249.24,109.17 249.905,109.619 250.187,110.303 L257.667,128.013 L272.443,88.358 C272.712,87.64 273.399,87.164 274.167,87.167 C274.941,87.18 275.624,87.679 275.872,88.413 L282.82,109.167 L290.667,109.167 L290.667,112.833 L281.5,112.833 C280.712,112.835 280.011,112.333 279.758,111.587 L274.167,94.5 L259.39,133.642 C259.121,134.36 258.434,134.836 257.667,134.833 Z" />
        </g>
        <g id="Regular-S" transform="translate(0,0)">
            <path d="M457.667,134.833 C456.927,134.83 456.261,134.381 455.98,133.697 L447.272,112.833 L439.333,112.833 L439.333,109.167 L448.5,109.167 C449.24,109.17 449.905,109.619 450.187,110.303 L457.667,128.013 L472.443,88.358 C472.712,87.64 473.399,87.164 474.167,87.167 C474.941,87.18 475.624,87.679 475.872,88.413 L482.82,109.167 L490.667,109.167 L490.667,112.833 L481.5,112.833 C480.712,112.835 480.011,112.333 479.758,111.587 L474.167,94.5 L459.39,133.642 C459.121,134.36 458.434,134.836 457.667,134.833 Z" />
        </g>
        <g id="Black-S" transform="translate(0,0)">
            <path d="M657.667,134.833 C656.927,134.83 656.261,134.381 655.98,133.697 L647.272,112.833 L639.333,112.833 L639.333,109.167 L648.5,109.167 C649.24,109.17 649.905,109.619 650.187,110.303 L657.667,128.013 L672.443,88.358 C672.712,87.64 673.399,87.164 674.167,87.167 C674.941,87.18 675.624,87.679 675.872,88.413 L682.82,109.167 L690.667,109.167 L690.667,112.833 L681.5,112.833 C680.712,112.835 680.011,112.333 679.758,111.587 L674.167,94.5 L659.39,133.642 C659.122,134.36 658.434,134.836 657.667,134.833 Z" />
        </g>
    </g>
</svg>