<?xml version="1.0" encoding="UTF-8"?>
<svg height="600" width="800" xmlns="http://www.w3.org/2000/svg" xmlns:xlink="http://www.w3.org/1999/xlink">
    <style>
        .cls-1 { fill: none }
    </style>
    <g id="Notes" font-family="LucidaGrande, 'Lucida Grande', sans-serif" font-size="13">
        <rect fill="white" height="600.0" width="800.0" x="0.0" y="0.0" />
        <g font-size="13">
            <text x="18.0" y="176.0">Small</text>
            <text x="18.0" y="376.0">Medium</text>
            <text x="18.0" y="576.0">Large</text>
        </g>
        <g font-size="9">
            <text x="250.0" y="30.0">Ultralight</text>
            <text x="450.0" y="30.0">Regular</text>
            <text x="650.0" y="30.0">Black</text>
            <text id="template-version" fill="#505050" text-anchor="end" x="785.0" y="575.0">Template v.3.0</text>
            <a href="https://github.com/swhitty/SwiftDraw">
                <text fill="#505050" text-anchor="end" x="785.0" y="590.0">https://github.com/swhitty/SwiftDraw</text>
            </a>
        </g>
    </g>
    <g id="Guides" stroke="rgb(39, 170, 225)" stroke-width="0.5">
        <path id="Capline-S" d="M18,76 l800,0" />
        <path id="H-reference" d="M85,145.755 L87.685,145.755 L113.369,79.287 L114.052,79.287 L114.052,76 L112.148,76 L85,145.755 Z M95.693,121.536 L130.996,121.536 L130.263,119.313 L96.474,119.313 L95.693,121.536 Z M139.15,145.755 L141.787,145.755 L114.638,76 L113.466,76 L113.466,79.287 L139.15,145.755 Z" stroke="none" transform="translate(0,0)" />
        <path id="Baseline-S" d="M18,146 l800,0" />
        <path id="left-margin-Ultralight-S" d="M221,56 l0,110" />
        <path id="right-margin-Ultralight-S" d="M309,56 l0,110" />
        <path id="left-margin-Regular-S" d="M421,56 l0,110" />
        <path id="right-margin-Regular-S" d="M509,56 l0,110" />
        <path id="left-margin-Black-S" d="M621,56 l0,110" />
        <path id="right-margin-Black-S" d="M709,56 l0,110" />
        <path id="Capline-M" d="M18,276 l800,0" />
        <path id="Baseline-M" d="M18,346 l800,0" />
        <path id="Capline-L" d="M18,476 l800,0" />
        <path id="Baseline-L" d="M18,546 l800,0" />
    </g>
    <g id="Symbols">
        <g id="Ultralight-S" transform="translate(0,0)">
            <path d="M281.211,106.368 L281.211,113.316 C281.211,122.269 273.953,129.526 265,129.526 C256.047,129.526 248.789,122.269 248.789,113.316 L248.789,106.368 L244.158,106.368 L244.158,113.316 C244.163,123.927 252.139,132.84 262.684,134.019 L262.684,138.789 L253.421,138.789 L253.421,143.421 L276.579,143.421 L276.579,138.789 L267.316,138.789 L267.316,134.019 C277.861,132.84 285.837,123.927 285.842,113.316 L285.842,106.368 Z" />
            <path d="M265,124.895 C268.071,124.895 271.016,123.675 273.188,121.503 C275.359,119.332 276.579,116.387 276.579,113.316 L276.579,90.158 C276.579,83.763 271.395,78.579 265,78.579 C258.605,78.579 253.421,83.763 253.421,90.158 L253.421,113.316 C253.421,116.387 254.641,119.332 256.812,121.503 C258.984,123.675 261.929,124.895 265,124.895 Z M258.053,90.158 C258.053,86.321 261.163,83.211 265,83.211 C268.837,83.211 271.947,86.321 271.947,90.158 L271.947,113.316 C271.947,117.153 268.837,120.263 265,120.263 C261.163,120.263 258.053,117.153 258.053,113.316 Z" />
        </g>
        <g id="Regular-S" transform="translate(0,0)">
            <path d="M481.211,106.368 L481.211,113.316 C481.211,122.269 473.953,129.526 465,129.526 C456.047,129.526 448.789,122.269 448.789,113.316 L448.789,106.368 L444.158,106.368 L444.158,113.316 C444.163,123.927 452.139,132.84 462.684,134.019 L462.684,138.789 L453.421,138.789 L453.421,143.421 L476.579,143.421 L476.579,138.789 L467.316,138.789 L467.316,134.019 C477.861,132.84 485.837,123.927 485.842,113.316 L485.842,106.368 Z" />
            <path d="M465,124.895 C468.071,124.895 471.016,123.675 473.188,121.503 C475.359,119.332 476.579,116.387 476.579,113.316 L476.579,90.158 C476.579,83.763 471.395,78.579 465,78.579 C458.605,78.579 453.421,83.763 453.421,90.158 L453.421,113.316 C453.421,116.387 454.641,119.332 456.812,121.503 C458.984,123.675 461.929,124.895 465,124.895 Z M458.053,90.158 C458.053,86.321 461.163,83.211 465,83.211 C468.837,83.211 471.947,86.321 471.947,90.158 L471.947,113.316 C471.947,117.153 468.837,120.263 465,120.263 C461.163,120.263 458.053,117.153 458.053,113.316 Z" />
        </g>
        <g id="Black-S" transform="translate(0,0)">
            <path d="M681.211,106.368 L681.211,113.316 C681.211,122.269 673.953,129.526 665,129.526 C656.047,129.526 648.789,122.269 648.789,113.316 L648.789,106.368 L644.158,106.368 L644.158,113.316 C644.163,123.927 652.139,132.84 662.685,134.019 L662.685,138.789 L653.421,138.789 L653.421,143.421 L676.579,143.421 L676.579,138.789 L667.316,138.789 L667.316,134.019 C677.861,132.84 685.837,123.927 685.842,113.316 L685.842,106.368 Z" />
            <path d="M665,124.895 C668.071,124.895 671.016,123.675 673.188,121.503 C675.359,119.332 676.579,116.387 676.579,113.316 L676.579,90.158 C676.579,83.763 671.395,78.579 665,78.579 C658.605,78.579 653.421,83.763 653.421,90.158 L653.421,113.316 C653.421,116.387 654.641,119.332 656.812,121.503 C658.984,123.675 661.929,124.895 665,124.895 Z M658.053,90.158 C658.053,86.321 661.163,83.211 665,83.211 C668.837,83.211 671.947,86.321 671.947,90.158 L671.947,113.316 C671.947,117.153 668.837,120.263 665,120.263 C661.163,120.263 658.053,117.153 658.053,113.316 Z" />
        </g>
    </g>
</svg>