<?xml version="1.0" encoding="UTF-8"?>
<svg height="600" width="800" xmlns="http://www.w3.org/2000/svg" xmlns:xlink="http://www.w3.org/1999/xlink">
    <style>
        .cls-1 { fill: none }
    </style>
    <g id="Notes" font-family="LucidaGrande, 'Lucida Grande', sans-serif" font-size="13">
        <rect fill="white" height="600.0" width="800.0" x="0.0" y="0.0" />
        <g font-size="13">
            <text x="18.0" y="176.0">Small</text>
            <text x="18.0" y="376.0">Medium</text>
            <text x="18.0" y="576.0">Large</text>
        </g>
        <g font-size="9">
            <text x="250.0" y="30.0">Ultralight</text>
            <text x="450.0" y="30.0">Regular</text>
            <text x="650.0" y="30.0">Black</text>
            <text id="template-version" fill="#505050" text-anchor="end" x="785.0" y="575.0">Template v.3.0</text>
            <a href="https://github.com/swhitty/SwiftDraw">
                <text fill="#505050" text-anchor="end" x="785.0" y="590.0">https://github.com/swhitty/SwiftDraw</text>
            </a>
        </g>
    </g>
    <g id="Guides" stroke="rgb(39, 170, 225)" stroke-width="0.5">
        <path id="Capline-S" d="M18,76 l800,0" />
        <path id="H-reference" d="M85,145.755 L87.685,145.755 L113.369,79.287 L114.052,79.287 L114.052,76 L112.148,76 L85,145.755 Z M95.693,121.536 L130.996,121.536 L130.263,119.313 L96.474,119.313 L95.693,121.536 Z M139.15,145.755 L141.787,145.755 L114.638,76 L113.466,76 L113.466,79.287 L139.15,145.755 Z" stroke="none" transform="translate(0,0)" />
        <path id="Baseline-S" d="M18,146 l800,0" />
        <path id="left-margin-Ultralight-S" d="M221,56 l0,110" />
        <path id="right-margin-Ultralight-S" d="M309,56 l0,110" />
        <path id="left-margin-Regular-S" d="M421,56 l0,110" />
        <path id="right-margin-Regular-S" d="M509,56 l0,110" />
        <path id="left-margin-Black-S" d="M621,56 l0,110" />
        <path id="right-margin-Black-S" d="M709,56 l0,110" />
        <path id="Capline-M" d="M18,276 l800,0" />
        <path id="Baseline-M" d="M18,346 l800,0" />
        <path id="Capline-L" d="M18,476 l800,0" />
        <path id="Baseline-L" d="M18,546 l800,0" />
    </g>
    <g id="Symbols">
        <g id="Ultralight-S" transform="translate(0,0)">
            <path d="M266.082,117.252 L272.645,123.833 L272.645,123.833 L266.063,130.415 L268.667,133 L277.833,123.833 L268.667,114.667 L266.082,117.252 Z" />
            <path d="M278.915,117.252 L285.478,123.833 L285.478,123.833 L278.897,130.415 L281.5,133 L290.667,123.833 L281.5,114.667 L278.915,117.252 Z" />
            <path d="M261.333,122 L243,122 L243,94.335 L263.955,108.837 C264.583,109.273 265.417,109.273 266.045,108.837 L287,94.335 L287,111 L290.667,111 L290.667,92.667 C290.667,91.694 290.28,90.762 289.593,90.074 C288.905,89.386 287.972,89 287,89 L243,89 C242.028,89 241.095,89.386 240.407,90.074 C239.72,90.762 239.333,91.694 239.333,92.667 L239.333,122 C239.333,122.972 239.72,123.905 240.407,124.593 C241.095,125.28 242.028,125.667 243,125.667 L261.333,125.667 Z M282.967,92.667 L265,105.097 L247.033,92.667 Z" />
        </g>
        <g id="Regular-S" transform="translate(0,0)">
            <path d="M466.082,117.252 L472.645,123.833 L472.645,123.833 L466.063,130.415 L468.667,133 L477.833,123.833 L468.667,114.667 L466.082,117.252 Z" />
            <path d="M478.915,117.252 L485.478,123.833 L485.478,123.833 L478.897,130.415 L481.5,133 L490.667,123.833 L481.5,114.667 L478.915,117.252 Z" />
            <path d="M461.333,122 L443,122 L443,94.335 L463.955,108.837 C464.583,109.273 465.417,109.273 466.045,108.837 L487,94.335 L487,111 L490.667,111 L490.667,92.667 C490.667,91.694 490.28,90.762 489.593,90.074 C488.905,89.386 487.972,89 487,89 L443,89 C442.028,89 441.095,89.386 440.407,90.074 C439.72,90.762 439.333,91.694 439.333,92.667 L439.333,122 C439.333,122.972 439.72,123.905 440.407,124.593 C441.095,125.28 442.028,125.667 443,125.667 L461.333,125.667 Z M482.967,92.667 L465,105.097 L447.033,92.667 Z" />
        </g>
        <g id="Black-S" transform="translate(0,0)">
            <path d="M666.082,117.252 L672.645,123.833 L672.645,123.833 L666.063,130.415 L668.667,133 L677.833,123.833 L668.667,114.667 L666.082,117.252 Z" />
            <path d="M678.915,117.252 L685.478,123.833 L685.478,123.833 L678.897,130.415 L681.5,133 L690.667,123.833 L681.5,114.667 L678.915,117.252 Z" />
            <path d="M661.333,122 L643,122 L643,94.335 L663.955,108.837 C664.583,109.273 665.417,109.273 666.045,108.837 L687,94.335 L687,111 L690.667,111 L690.667,92.667 C690.667,91.694 690.28,90.762 689.593,90.074 C688.905,89.386 687.972,89 687,89 L643,89 C642.028,89 641.095,89.386 640.407,90.074 C639.72,90.762 639.333,91.694 639.333,92.667 L639.333,122 C639.333,122.972 639.72,123.905 640.407,124.593 C641.095,125.28 642.028,125.667 643,125.667 L661.333,125.667 Z M682.967,92.667 L665,105.097 L647.033,92.667 Z" />
        </g>
    </g>
</svg>