<?xml version="1.0" encoding="UTF-8"?>
<svg height="600" width="800" xmlns="http://www.w3.org/2000/svg" xmlns:xlink="http://www.w3.org/1999/xlink">
    <style>
        .cls-1 { fill: none }
    </style>
    <g id="Notes" font-family="LucidaGrande, 'Lucida Grande', sans-serif" font-size="13">
        <rect fill="white" height="600.0" width="800.0" x="0.0" y="0.0" />
        <g font-size="13">
            <text x="18.0" y="176.0">Small</text>
            <text x="18.0" y="376.0">Medium</text>
            <text x="18.0" y="576.0">Large</text>
        </g>
        <g font-size="9">
            <text x="250.0" y="30.0">Ultralight</text>
            <text x="450.0" y="30.0">Regular</text>
            <text x="650.0" y="30.0">Black</text>
            <text id="template-version" fill="#505050" text-anchor="end" x="785.0" y="575.0">Template v.3.0</text>
            <a href="https://github.com/swhitty/SwiftDraw">
                <text fill="#505050" text-anchor="end" x="785.0" y="590.0">https://github.com/swhitty/SwiftDraw</text>
            </a>
        </g>
    </g>
    <g id="Guides" stroke="rgb(39, 170, 225)" stroke-width="0.5">
        <path id="Capline-S" d="M18,76 l800,0" />
        <path id="H-reference" d="M85,145.755 L87.685,145.755 L113.369,79.287 L114.052,79.287 L114.052,76 L112.148,76 L85,145.755 Z M95.693,121.536 L130.996,121.536 L130.263,119.313 L96.474,119.313 L95.693,121.536 Z M139.15,145.755 L141.787,145.755 L114.638,76 L113.466,76 L113.466,79.287 L139.15,145.755 Z" stroke="none" transform="translate(0,0)" />
        <path id="Baseline-S" d="M18,146 l800,0" />
        <path id="left-margin-Ultralight-S" d="M221,56 l0,110" />
        <path id="right-margin-Ultralight-S" d="M309,56 l0,110" />
        <path id="left-margin-Regular-S" d="M421,56 l0,110" />
        <path id="right-margin-Regular-S" d="M509,56 l0,110" />
        <path id="left-margin-Black-S" d="M621,56 l0,110" />
        <path id="right-margin-Black-S" d="M709,56 l0,110" />
        <path id="Capline-M" d="M18,276 l800,0" />
        <path id="Baseline-M" d="M18,346 l800,0" />
        <path id="Capline-L" d="M18,476 l800,0" />
        <path id="Baseline-L" d="M18,546 l800,0" />
    </g>
    <g id="Symbols">
        <g id="Ultralight-S" transform="translate(0,0)">
            <path d="M283.333,120.167 L283.333,129.333 L279.667,129.333 L279.667,120.167 Z" />
            <path d="M276,111 L276,129.333 L272.333,129.333 L272.333,111 Z" />
            <path d="M255.833,129.333 C250.773,129.327 246.673,125.227 246.667,120.167 L250.333,120.167 C250.333,123.204 252.796,125.667 255.833,125.667 C258.871,125.667 261.333,123.204 261.333,120.167 C261.333,117.129 258.871,114.667 255.833,114.667 L255.833,111 C260.896,111 265,115.104 265,120.167 C265,125.229 260.896,129.333 255.833,129.333 Z" />
            <path d="M287,85.333 L243,85.333 C240.976,85.335 239.335,86.976 239.333,89 L239.333,133 C239.336,135.024 240.976,136.664 243,136.667 L287,136.667 C289.024,136.664 290.664,135.024 290.667,133 L290.667,89 C290.664,86.976 289.024,85.336 287,85.333 Z M287,101.833 L261.333,101.833 L261.333,89 L287,89 Z M257.667,89 L257.667,101.833 L243,101.833 L243,89 Z M243,133 L243,105.5 L287.001,105.5 L287.004,133 Z" />
        </g>
        <g id="Regular-S" transform="translate(0,0)">
            <path d="M483.333,120.167 L483.333,129.333 L479.667,129.333 L479.667,120.167 Z" />
            <path d="M476,111 L476,129.333 L472.333,129.333 L472.333,111 Z" />
            <path d="M455.833,129.333 C450.773,129.327 446.673,125.227 446.667,120.167 L450.333,120.167 C450.333,123.204 452.796,125.667 455.833,125.667 C458.871,125.667 461.333,123.204 461.333,120.167 C461.333,117.129 458.871,114.667 455.833,114.667 L455.833,111 C460.896,111 465,115.104 465,120.167 C465,125.229 460.896,129.333 455.833,129.333 Z" />
            <path d="M487,85.333 L443,85.333 C440.976,85.335 439.335,86.976 439.333,89 L439.333,133 C439.336,135.024 440.976,136.664 443,136.667 L487,136.667 C489.024,136.664 490.664,135.024 490.667,133 L490.667,89 C490.664,86.976 489.024,85.336 487,85.333 Z M487,101.833 L461.333,101.833 L461.333,89 L487,89 Z M457.667,89 L457.667,101.833 L443,101.833 L443,89 Z M443,133 L443,105.5 L487.001,105.5 L487.004,133 Z" />
        </g>
        <g id="Black-S" transform="translate(0,0)">
            <path d="M683.333,120.167 L683.333,129.333 L679.667,129.333 L679.667,120.167 Z" />
            <path d="M676,111 L676,129.333 L672.333,129.333 L672.333,111 Z" />
            <path d="M655.833,129.333 C650.773,129.327 646.673,125.227 646.667,120.167 L650.333,120.167 C650.333,123.204 652.796,125.667 655.833,125.667 C658.871,125.667 661.333,123.204 661.333,120.167 C661.333,117.129 658.871,114.667 655.833,114.667 L655.833,111 C660.896,111 665,115.104 665,120.167 C665,125.229 660.896,129.333 655.833,129.333 Z" />
            <path d="M687,85.333 L643,85.333 C640.976,85.335 639.335,86.976 639.333,89 L639.333,133 C639.336,135.024 640.976,136.664 643,136.667 L687,136.667 C689.024,136.664 690.664,135.024 690.667,133 L690.667,89 C690.664,86.976 689.024,85.336 687,85.333 Z M687,101.833 L661.333,101.833 L661.333,89 L687,89 Z M657.667,89 L657.667,101.833 L643,101.833 L643,89 Z M643,133 L643,105.5 L687.001,105.5 L687.004,133 Z" />
        </g>
    </g>
</svg>