<?xml version="1.0" encoding="UTF-8"?>
<svg height="600" width="800" xmlns="http://www.w3.org/2000/svg" xmlns:xlink="http://www.w3.org/1999/xlink">
    <style>
        .cls-1 { fill: none }
    </style>
    <g id="Notes" font-family="LucidaGrande, 'Lucida Grande', sans-serif" font-size="13">
        <rect fill="white" height="600.0" width="800.0" x="0.0" y="0.0" />
        <g font-size="13">
            <text x="18.0" y="176.0">Small</text>
            <text x="18.0" y="376.0">Medium</text>
            <text x="18.0" y="576.0">Large</text>
        </g>
        <g font-size="9">
            <text x="250.0" y="30.0">Ultralight</text>
            <text x="450.0" y="30.0">Regular</text>
            <text x="650.0" y="30.0">Black</text>
            <text id="template-version" fill="#505050" text-anchor="end" x="785.0" y="575.0">Template v.3.0</text>
            <a href="https://github.com/swhitty/SwiftDraw">
                <text fill="#505050" text-anchor="end" x="785.0" y="590.0">https://github.com/swhitty/SwiftDraw</text>
            </a>
        </g>
    </g>
    <g id="Guides" stroke="rgb(39, 170, 225)" stroke-width="0.5">
        <path id="Capline-S" d="M18,76 l800,0" />
        <path id="H-reference" d="M85,145.755 L87.685,145.755 L113.369,79.287 L114.052,79.287 L114.052,76 L112.148,76 L85,145.755 Z M95.693,121.536 L130.996,121.536 L130.263,119.313 L96.474,119.313 L95.693,121.536 Z M139.15,145.755 L141.787,145.755 L114.638,76 L113.466,76 L113.466,79.287 L139.15,145.755 Z" stroke="none" transform="translate(0,0)" />
        <path id="Baseline-S" d="M18,146 l800,0" />
        <path id="left-margin-Ultralight-S" d="M221,56 l0,110" />
        <path id="right-margin-Ultralight-S" d="M309,56 l0,110" />
        <path id="left-margin-Regular-S" d="M421,56 l0,110" />
        <path id="right-margin-Regular-S" d="M509,56 l0,110" />
        <path id="left-margin-Black-S" d="M621,56 l0,110" />
        <path id="right-margin-Black-S" d="M709,56 l0,110" />
        <path id="Capline-M" d="M18,276 l800,0" />
        <path id="Baseline-M" d="M18,346 l800,0" />
        <path id="Capline-L" d="M18,476 l800,0" />
        <path id="Baseline-L" d="M18,546 l800,0" />
    </g>
    <g id="Symbols">
        <g id="Ultralight-S" transform="translate(0,0)">
            <path d="M248.06,92.667 L248.885,94.298 L249.893,96.333 L257.667,96.333 L257.667,105.5 L243,105.5 L243,92.667 L248.06,92.667 M249.197,89 L241.167,89 C240.68,89 240.214,89.193 239.87,89.537 C239.526,89.881 239.333,90.347 239.333,90.833 L239.333,107.333 C239.333,107.82 239.526,108.286 239.87,108.63 C240.214,108.974 240.68,109.167 241.167,109.167 L259.5,109.167 C259.986,109.167 260.453,108.974 260.796,108.63 C261.14,108.286 261.333,107.82 261.333,107.333 L261.333,94.5 C261.333,94.014 261.14,93.547 260.796,93.204 C260.453,92.86 259.986,92.667 259.5,92.667 L252.167,92.667 L250.847,90.008 C250.533,89.386 249.894,88.995 249.197,89 Z" />
            <path d="M277.393,92.667 L278.218,94.298 L279.227,96.333 L287,96.333 L287,105.5 L272.333,105.5 L272.333,92.667 L277.393,92.667 M278.53,89 L270.5,89 C270.014,89 269.547,89.193 269.204,89.537 C268.86,89.881 268.667,90.347 268.667,90.833 L268.667,107.333 C268.667,107.82 268.86,108.286 269.204,108.63 C269.547,108.974 270.014,109.167 270.5,109.167 L288.833,109.167 C289.32,109.167 289.786,108.974 290.13,108.63 C290.474,108.286 290.667,107.82 290.667,107.333 L290.667,94.5 C290.667,94.014 290.474,93.547 290.13,93.204 C289.786,92.86 289.32,92.667 288.833,92.667 L281.5,92.667 L280.18,90.008 C279.866,89.386 279.227,88.995 278.53,89 Z" />
            <path d="M248.06,116.5 L248.885,118.132 L249.893,120.167 L257.667,120.167 L257.667,129.333 L243,129.333 L243,116.5 L248.06,116.5 M249.197,112.833 L241.167,112.833 C240.68,112.833 240.214,113.027 239.87,113.37 C239.526,113.714 239.333,114.18 239.333,114.667 L239.333,131.167 C239.333,131.653 239.526,132.119 239.87,132.463 C240.214,132.807 240.68,133 241.167,133 L259.5,133 C259.986,133 260.453,132.807 260.796,132.463 C261.14,132.119 261.333,131.653 261.333,131.167 L261.333,118.333 C261.333,117.847 261.14,117.381 260.796,117.037 C260.453,116.693 259.986,116.5 259.5,116.5 L252.167,116.5 L250.847,113.842 C250.533,113.219 249.894,112.828 249.197,112.833 Z" />
            <path d="M277.393,116.5 L278.218,118.132 L279.227,120.167 L287,120.167 L287,129.333 L272.333,129.333 L272.333,116.5 L277.393,116.5 M278.53,112.833 L270.5,112.833 C270.014,112.833 269.547,113.027 269.204,113.37 C268.86,113.714 268.667,114.18 268.667,114.667 L268.667,131.167 C268.667,131.653 268.86,132.119 269.204,132.463 C269.547,132.807 270.014,133 270.5,133 L288.833,133 C289.32,133 289.786,132.807 290.13,132.463 C290.474,132.119 290.667,131.653 290.667,131.167 L290.667,118.333 C290.667,117.847 290.474,117.381 290.13,117.037 C289.786,116.693 289.32,116.5 288.833,116.5 L281.5,116.5 L280.18,113.842 C279.866,113.219 279.227,112.829 278.53,112.833 Z" />
        </g>
        <g id="Regular-S" transform="translate(0,0)">
            <path d="M448.06,92.667 L448.885,94.298 L449.893,96.333 L457.667,96.333 L457.667,105.5 L443,105.5 L443,92.667 L448.06,92.667 M449.197,89 L441.167,89 C440.68,89 440.214,89.193 439.87,89.537 C439.526,89.881 439.333,90.347 439.333,90.833 L439.333,107.333 C439.333,107.82 439.526,108.286 439.87,108.63 C440.214,108.974 440.68,109.167 441.167,109.167 L459.5,109.167 C459.986,109.167 460.453,108.974 460.796,108.63 C461.14,108.286 461.333,107.82 461.333,107.333 L461.333,94.5 C461.333,94.014 461.14,93.547 460.796,93.204 C460.453,92.86 459.986,92.667 459.5,92.667 L452.167,92.667 L450.847,90.008 C450.533,89.386 449.894,88.995 449.197,89 Z" />
            <path d="M477.393,92.667 L478.218,94.298 L479.227,96.333 L487,96.333 L487,105.5 L472.333,105.5 L472.333,92.667 L477.393,92.667 M478.53,89 L470.5,89 C470.014,89 469.547,89.193 469.204,89.537 C468.86,89.881 468.667,90.347 468.667,90.833 L468.667,107.333 C468.667,107.82 468.86,108.286 469.204,108.63 C469.547,108.974 470.014,109.167 470.5,109.167 L488.833,109.167 C489.32,109.167 489.786,108.974 490.13,108.63 C490.474,108.286 490.667,107.82 490.667,107.333 L490.667,94.5 C490.667,94.014 490.474,93.547 490.13,93.204 C489.786,92.86 489.32,92.667 488.833,92.667 L481.5,92.667 L480.18,90.008 C479.866,89.386 479.227,88.995 478.53,89 Z" />
            <path d="M448.06,116.5 L448.885,118.132 L449.893,120.167 L457.667,120.167 L457.667,129.333 L443,129.333 L443,116.5 L448.06,116.5 M449.197,112.833 L441.167,112.833 C440.68,112.833 440.214,113.027 439.87,113.37 C439.526,113.714 439.333,114.18 439.333,114.667 L439.333,131.167 C439.333,131.653 439.526,132.119 439.87,132.463 C440.214,132.807 440.68,133 441.167,133 L459.5,133 C459.986,133 460.453,132.807 460.796,132.463 C461.14,132.119 461.333,131.653 461.333,131.167 L461.333,118.333 C461.333,117.847 461.14,117.381 460.796,117.037 C460.453,116.693 459.986,116.5 459.5,116.5 L452.167,116.5 L450.847,113.842 C450.533,113.219 449.894,112.828 449.197,112.833 Z" />
            <path d="M477.393,116.5 L478.218,118.132 L479.227,120.167 L487,120.167 L487,129.333 L472.333,129.333 L472.333,116.5 L477.393,116.5 M478.53,112.833 L470.5,112.833 C470.014,112.833 469.547,113.027 469.204,113.37 C468.86,113.714 468.667,114.18 468.667,114.667 L468.667,131.167 C468.667,131.653 468.86,132.119 469.204,132.463 C469.547,132.807 470.014,133 470.5,133 L488.833,133 C489.32,133 489.786,132.807 490.13,132.463 C490.474,132.119 490.667,131.653 490.667,131.167 L490.667,118.333 C490.667,117.847 490.474,117.381 490.13,117.037 C489.786,116.693 489.32,116.5 488.833,116.5 L481.5,116.5 L480.18,113.842 C479.866,113.219 479.227,112.829 478.53,112.833 Z" />
        </g>
        <g id="Black-S" transform="translate(0,0)">
            <path d="M648.06,92.667 L648.885,94.298 L649.893,96.333 L657.667,96.333 L657.667,105.5 L643,105.5 L643,92.667 L648.06,92.667 M649.197,89 L641.167,89 C640.68,89 640.214,89.193 639.87,89.537 C639.526,89.881 639.333,90.347 639.333,90.833 L639.333,107.333 C639.333,107.82 639.526,108.286 639.87,108.63 C640.214,108.974 640.68,109.167 641.167,109.167 L659.5,109.167 C659.986,109.167 660.453,108.974 660.796,108.63 C661.14,108.286 661.333,107.82 661.333,107.333 L661.333,94.5 C661.333,94.014 661.14,93.547 660.796,93.204 C660.453,92.86 659.986,92.667 659.5,92.667 L652.167,92.667 L650.847,90.008 C650.533,89.386 649.894,88.995 649.197,89 Z" />
            <path d="M677.393,92.667 L678.218,94.298 L679.227,96.333 L687,96.333 L687,105.5 L672.333,105.5 L672.333,92.667 L677.393,92.667 M678.53,89 L670.5,89 C670.014,89 669.547,89.193 669.204,89.537 C668.86,89.881 668.667,90.347 668.667,90.833 L668.667,107.333 C668.667,107.82 668.86,108.286 669.204,108.63 C669.547,108.974 670.014,109.167 670.5,109.167 L688.833,109.167 C689.32,109.167 689.786,108.974 690.13,108.63 C690.474,108.286 690.667,107.82 690.667,107.333 L690.667,94.5 C690.667,94.014 690.474,93.547 690.13,93.204 C689.786,92.86 689.32,92.667 688.833,92.667 L681.5,92.667 L680.18,90.008 C679.866,89.386 679.227,88.995 678.53,89 Z" />
            <path d="M648.06,116.5 L648.885,118.132 L649.893,120.167 L657.667,120.167 L657.667,129.333 L643,129.333 L643,116.5 L648.06,116.5 M649.197,112.833 L641.167,112.833 C640.68,112.833 640.214,113.027 639.87,113.37 C639.526,113.714 639.333,114.18 639.333,114.667 L639.333,131.167 C639.333,131.653 639.526,132.119 639.87,132.463 C640.214,132.807 640.68,133 641.167,133 L659.5,133 C659.986,133 660.453,132.807 660.796,132.463 C661.14,132.119 661.333,131.653 661.333,131.167 L661.333,118.333 C661.333,117.847 661.14,117.381 660.796,117.037 C660.453,116.693 659.986,116.5 659.5,116.5 L652.167,116.5 L650.847,113.842 C650.533,113.219 649.894,112.828 649.197,112.833 Z" />
            <path d="M677.393,116.5 L678.218,118.132 L679.227,120.167 L687,120.167 L687,129.333 L672.333,129.333 L672.333,116.5 L677.393,116.5 M678.53,112.833 L670.5,112.833 C670.014,112.833 669.547,113.027 669.204,113.37 C668.86,113.714 668.667,114.18 668.667,114.667 L668.667,131.167 C668.667,131.653 668.86,132.119 669.204,132.463 C669.547,132.807 670.014,133 670.5,133 L688.833,133 C689.32,133 689.786,132.807 690.13,132.463 C690.474,132.119 690.667,131.653 690.667,131.167 L690.667,118.333 C690.667,117.847 690.474,117.381 690.13,117.037 C689.786,116.693 689.32,116.5 688.833,116.5 L681.5,116.5 L680.18,113.842 C679.866,113.219 679.227,112.829 678.53,112.833 Z" />
        </g>
    </g>
</svg>