<?xml version="1.0" encoding="UTF-8"?>
<svg height="600" width="800" xmlns="http://www.w3.org/2000/svg" xmlns:xlink="http://www.w3.org/1999/xlink">
    <style>
        .cls-1 { fill: none }
    </style>
    <g id="Notes" font-family="LucidaGrande, 'Lucida Grande', sans-serif" font-size="13">
        <rect fill="white" height="600.0" width="800.0" x="0.0" y="0.0" />
        <g font-size="13">
            <text x="18.0" y="176.0">Small</text>
            <text x="18.0" y="376.0">Medium</text>
            <text x="18.0" y="576.0">Large</text>
        </g>
        <g font-size="9">
            <text x="250.0" y="30.0">Ultralight</text>
            <text x="450.0" y="30.0">Regular</text>
            <text x="650.0" y="30.0">Black</text>
            <text id="template-version" fill="#505050" text-anchor="end" x="785.0" y="575.0">Template v.3.0</text>
            <a href="https://github.com/swhitty/SwiftDraw">
                <text fill="#505050" text-anchor="end" x="785.0" y="590.0">https://github.com/swhitty/SwiftDraw</text>
            </a>
        </g>
    </g>
    <g id="Guides" stroke="rgb(39, 170, 225)" stroke-width="0.5">
        <path id="Capline-S" d="M18,76 l800,0" />
        <path id="H-reference" d="M85,145.755 L87.685,145.755 L113.369,79.287 L114.052,79.287 L114.052,76 L112.148,76 L85,145.755 Z M95.693,121.536 L130.996,121.536 L130.263,119.313 L96.474,119.313 L95.693,121.536 Z M139.15,145.755 L141.787,145.755 L114.638,76 L113.466,76 L113.466,79.287 L139.15,145.755 Z" stroke="none" transform="translate(0,0)" />
        <path id="Baseline-S" d="M18,146 l800,0" />
        <path id="left-margin-Ultralight-S" d="M221,56 l0,110" />
        <path id="right-margin-Ultralight-S" d="M309,56 l0,110" />
        <path id="left-margin-Regular-S" d="M421,56 l0,110" />
        <path id="right-margin-Regular-S" d="M509,56 l0,110" />
        <path id="left-margin-Black-S" d="M621,56 l0,110" />
        <path id="right-margin-Black-S" d="M709,56 l0,110" />
        <path id="Capline-M" d="M18,276 l800,0" />
        <path id="Baseline-M" d="M18,346 l800,0" />
        <path id="Capline-L" d="M18,476 l800,0" />
        <path id="Baseline-L" d="M18,546 l800,0" />
    </g>
    <g id="Symbols">
        <g id="Ultralight-S" transform="translate(0,0)">
            <path d="M289.592,125.668 L257.667,93.742 C256.216,92.357 253.933,92.357 252.482,93.742 L247.741,98.483 C246.311,99.916 246.311,102.235 247.741,103.668 L279.665,135.594 C281.098,137.023 283.417,137.023 284.85,135.594 L289.592,130.852 C290.28,130.164 290.667,129.232 290.667,128.259 C290.667,127.287 290.28,126.354 289.592,125.667 Z M250.333,101.075 L255.074,96.334 L264.241,105.501 L259.499,110.244 L250.332,101.077 Z M282.257,133.001 L262.091,112.836 L266.833,108.094 L287,128.26 Z" />
            <path d="M243,107.334 L246.667,111.001 L243,114.668 L239.333,111.001 Z" />
            <path d="M265,85.335 L268.667,89.001 L265,92.668 L261.333,89.001 Z" />
            <path d="M243,85.335 L246.667,89.001 L243,92.668 L239.333,89.001 Z" />
        </g>
        <g id="Regular-S" transform="translate(0,0)">
            <path d="M489.592,125.668 L457.667,93.742 C456.216,92.357 453.933,92.357 452.482,93.742 L447.741,98.483 C446.311,99.916 446.311,102.235 447.741,103.668 L479.665,135.594 C481.098,137.023 483.417,137.023 484.85,135.594 L489.592,130.852 C490.28,130.164 490.667,129.232 490.667,128.259 C490.667,127.287 490.28,126.354 489.592,125.667 Z M450.333,101.075 L455.074,96.334 L464.241,105.501 L459.499,110.244 L450.332,101.077 Z M482.257,133.001 L462.091,112.836 L466.833,108.094 L487,128.26 Z" />
            <path d="M443,107.334 L446.667,111.001 L443,114.668 L439.333,111.001 Z" />
            <path d="M465,85.335 L468.667,89.001 L465,92.668 L461.333,89.001 Z" />
            <path d="M443,85.335 L446.667,89.001 L443,92.668 L439.333,89.001 Z" />
        </g>
        <g id="Black-S" transform="translate(0,0)">
            <path d="M689.592,125.668 L657.667,93.742 C656.216,92.357 653.933,92.357 652.482,93.742 L647.741,98.483 C646.311,99.916 646.311,102.235 647.741,103.668 L679.665,135.594 C681.098,137.023 683.417,137.023 684.85,135.594 L689.592,130.852 C690.28,130.164 690.667,129.232 690.667,128.259 C690.667,127.287 690.28,126.354 689.592,125.667 Z M650.333,101.075 L655.074,96.334 L664.241,105.501 L659.499,110.244 L650.332,101.077 Z M682.257,133.001 L662.091,112.836 L666.833,108.094 L687,128.26 Z" />
            <path d="M643,107.334 L646.667,111.001 L643,114.668 L639.333,111.001 Z" />
            <path d="M665,85.335 L668.667,89.001 L665,92.668 L661.333,89.001 Z" />
            <path d="M643,85.335 L646.667,89.001 L643,92.668 L639.333,89.001 Z" />
        </g>
    </g>
</svg>