<?xml version="1.0" encoding="UTF-8"?>
<svg height="600" width="800" xmlns="http://www.w3.org/2000/svg" xmlns:xlink="http://www.w3.org/1999/xlink">
    <style>
        
    </style>
    <g id="Notes" font-family="LucidaGrande, 'Lucida Grande', sans-serif" font-size="13">
        <rect fill="white" height="600.0" width="800.0" x="0.0" y="0.0" />
        <g font-size="13">
            <text x="18.0" y="176.0">Small</text>
            <text x="18.0" y="376.0">Medium</text>
            <text x="18.0" y="576.0">Large</text>
        </g>
        <g font-size="9">
            <text x="250.0" y="30.0">Ultralight</text>
            <text x="450.0" y="30.0">Regular</text>
            <text x="650.0" y="30.0">Black</text>
            <text id="template-version" fill="#505050" text-anchor="end" x="785.0" y="575.0">Template v.3.0</text>
            <a href="https://github.com/swhitty/SwiftDraw">
                <text fill="#505050" text-anchor="end" x="785.0" y="590.0">https://github.com/swhitty/SwiftDraw</text>
            </a>
        </g>
    </g>
    <g id="Guides" stroke="rgb(39, 170, 225)" stroke-width="0.5">
        <path id="Capline-S" d="M18,76 l800,0" />
        <path id="H-reference" d="M85,145.755 L87.685,145.755 L113.369,79.287 L114.052,79.287 L114.052,76 L112.148,76 L85,145.755 Z M95.693,121.536 L130.996,121.536 L130.263,119.313 L96.474,119.313 L95.693,121.536 Z M139.15,145.755 L141.787,145.755 L114.638,76 L113.466,76 L113.466,79.287 L139.15,145.755 Z" stroke="none" transform="translate(0,0)" />
        <path id="Baseline-S" d="M18,146 l800,0" />
        <path id="left-margin-Ultralight-S" d="M221,56 l0,110" />
        <path id="right-margin-Ultralight-S" d="M309,56 l0,110" />
        <path id="left-margin-Regular-S" d="M421,56 l0,110" />
        <path id="right-margin-Regular-S" d="M509,56 l0,110" />
        <path id="left-margin-Black-S" d="M621,56 l0,110" />
        <path id="right-margin-Black-S" d="M709,56 l0,110" />
        <path id="Capline-M" d="M18,276 l800,0" />
        <path id="Baseline-M" d="M18,346 l800,0" />
        <path id="Capline-L" d="M18,476 l800,0" />
        <path id="Baseline-L" d="M18,546 l800,0" />
    </g>
    <g id="Symbols">
        <g id="Ultralight-S" transform="translate(0,0)">
            <path d="M278.139,95.531 L280.314,92.939 C278.213,91.161 275.818,89.763 273.237,88.809 L272.08,91.986 C274.291,92.806 276.341,94.006 278.139,95.531 Z" />
            <path d="M284.986,107.615 L288.316,106.917 C287.848,104.213 286.91,101.612 285.545,99.231 L282.615,100.846 C283.784,102.951 284.586,105.241 284.986,107.615 Z" />
            <path d="M272.08,130.014 L273.237,133.191 C275.818,132.237 278.213,130.839 280.314,129.061 L278.139,126.469 C276.341,127.994 274.291,129.194 272.08,130.014 Z" />
            <path d="M282.615,121.154 L285.545,122.846 C286.911,120.438 287.849,117.812 288.317,115.083 L284.986,114.496 C284.586,116.836 283.783,119.088 282.615,121.154 Z" />
            <path d="M265,134.692 L265,87.308 C251.915,87.308 241.308,97.915 241.308,111 C241.308,124.085 251.915,134.692 265,134.692 Z" />
            <path d="M292.077,83.923 L292.077,138.077 L237.923,138.077 L237.923,83.923 Z" />
        </g>
        <g id="Regular-S" transform="translate(0,0)">
            <path d="M478.139,95.531 L480.314,92.939 C478.213,91.161 475.818,89.763 473.237,88.809 L472.08,91.986 C474.291,92.806 476.341,94.006 478.139,95.531 Z" />
            <path d="M484.986,107.615 L488.316,106.917 C487.848,104.213 486.91,101.612 485.545,99.231 L482.615,100.846 C483.784,102.951 484.586,105.241 484.986,107.615 Z" />
            <path d="M472.08,130.014 L473.237,133.191 C475.818,132.237 478.213,130.839 480.314,129.061 L478.139,126.469 C476.341,127.994 474.291,129.194 472.08,130.014 Z" />
            <path d="M482.615,121.154 L485.545,122.846 C486.911,120.438 487.849,117.812 488.317,115.083 L484.986,114.496 C484.586,116.836 483.783,119.088 482.615,121.154 Z" />
            <path d="M465,134.692 L465,87.308 C451.915,87.308 441.308,97.915 441.308,111 C441.308,124.085 451.915,134.692 465,134.692 Z" />
            <path d="M492.077,83.923 L492.077,138.077 L437.923,138.077 L437.923,83.923 Z" />
        </g>
        <g id="Black-S" transform="translate(0,0)">
            <path d="M678.139,95.531 L680.314,92.939 C678.213,91.161 675.818,89.763 673.237,88.809 L672.08,91.986 C674.291,92.806 676.341,94.006 678.139,95.531 Z" />
            <path d="M684.986,107.615 L688.316,106.917 C687.848,104.213 686.91,101.612 685.545,99.231 L682.615,100.846 C683.784,102.951 684.586,105.241 684.986,107.615 Z" />
            <path d="M672.08,130.014 L673.237,133.191 C675.818,132.237 678.213,130.839 680.314,129.061 L678.139,126.469 C676.341,127.994 674.291,129.194 672.08,130.014 Z" />
            <path d="M682.615,121.154 L685.545,122.846 C686.911,120.438 687.849,117.812 688.317,115.083 L684.986,114.496 C684.586,116.836 683.784,119.088 682.615,121.154 Z" />
            <path d="M665,134.692 L665,87.308 C651.915,87.308 641.308,97.915 641.308,111 C641.308,124.085 651.915,134.692 665,134.692 Z" />
            <path d="M692.077,83.923 L692.077,138.077 L637.923,138.077 L637.923,83.923 Z" />
        </g>
    </g>
</svg>