<?xml version="1.0" encoding="UTF-8"?>
<svg height="600" width="800" xmlns="http://www.w3.org/2000/svg" xmlns:xlink="http://www.w3.org/1999/xlink">
    <style>
        .cls-1 { fill: none }
    </style>
    <g id="Notes" font-family="LucidaGrande, 'Lucida Grande', sans-serif" font-size="13">
        <rect fill="white" height="600.0" width="800.0" x="0.0" y="0.0" />
        <g font-size="13">
            <text x="18.0" y="176.0">Small</text>
            <text x="18.0" y="376.0">Medium</text>
            <text x="18.0" y="576.0">Large</text>
        </g>
        <g font-size="9">
            <text x="250.0" y="30.0">Ultralight</text>
            <text x="450.0" y="30.0">Regular</text>
            <text x="650.0" y="30.0">Black</text>
            <text id="template-version" fill="#505050" text-anchor="end" x="785.0" y="575.0">Template v.3.0</text>
            <a href="https://github.com/swhitty/SwiftDraw">
                <text fill="#505050" text-anchor="end" x="785.0" y="590.0">https://github.com/swhitty/SwiftDraw</text>
            </a>
        </g>
    </g>
    <g id="Guides" stroke="rgb(39, 170, 225)" stroke-width="0.5">
        <path id="Capline-S" d="M18,76 l800,0" />
        <path id="H-reference" d="M85,145.755 L87.685,145.755 L113.369,79.287 L114.052,79.287 L114.052,76 L112.148,76 L85,145.755 Z M95.693,121.536 L130.996,121.536 L130.263,119.313 L96.474,119.313 L95.693,121.536 Z M139.15,145.755 L141.787,145.755 L114.638,76 L113.466,76 L113.466,79.287 L139.15,145.755 Z" stroke="none" transform="translate(0,0)" />
        <path id="Baseline-S" d="M18,146 l800,0" />
        <path id="left-margin-Ultralight-S" d="M221,56 l0,110" />
        <path id="right-margin-Ultralight-S" d="M309,56 l0,110" />
        <path id="left-margin-Regular-S" d="M421,56 l0,110" />
        <path id="right-margin-Regular-S" d="M509,56 l0,110" />
        <path id="left-margin-Black-S" d="M621,56 l0,110" />
        <path id="right-margin-Black-S" d="M709,56 l0,110" />
        <path id="Capline-M" d="M18,276 l800,0" />
        <path id="Baseline-M" d="M18,346 l800,0" />
        <path id="Capline-L" d="M18,476 l800,0" />
        <path id="Baseline-L" d="M18,546 l800,0" />
    </g>
    <g id="Symbols">
        <g id="Ultralight-S" transform="translate(0,0)">
            <path d="M257.874,85.254 C254.356,85.242 250.912,86.262 247.968,88.189 L259.709,99.929 C260.498,100.603 260.983,101.567 261.052,102.603 C261.121,103.639 260.769,104.659 260.075,105.432 C259.303,106.126 258.283,106.478 257.246,106.409 C256.21,106.34 255.246,105.855 254.572,105.065 L242.465,93.325 C240.372,96.405 239.283,100.058 239.347,103.781 C239.387,113.997 247.659,122.269 257.874,122.309 C259.481,122.318 261.082,122.133 262.644,121.758 L274.934,134.049 C278.531,137.645 284.362,137.645 287.959,134.049 C291.555,130.452 291.555,124.621 287.959,121.025 L275.668,108.734 C276.042,107.172 276.227,105.571 276.218,103.965 C276.317,99.036 274.428,94.276 270.977,90.756 C267.526,87.236 262.804,85.253 257.874,85.254 Z M272.549,103.781 C272.547,105.085 272.361,106.382 271.999,107.634 L271.449,109.652 L272.916,111.119 L285.207,123.409 C286.265,124.411 286.862,125.805 286.858,127.262 C286.899,128.726 286.296,130.134 285.207,131.114 C284.203,132.168 282.81,132.765 281.354,132.765 C279.899,132.765 278.506,132.168 277.502,131.114 L265.212,118.823 L263.744,117.356 L261.726,117.906 C260.474,118.269 259.178,118.454 257.874,118.456 C253.976,118.446 250.232,116.935 247.418,114.237 C244.54,111.53 242.941,107.732 243.015,103.781 C243.018,102.418 243.203,101.061 243.566,99.746 L251.637,107.818 C253.015,109.317 254.937,110.2 256.972,110.269 C259.006,110.338 260.984,109.587 262.46,108.185 C263.862,106.709 264.613,104.731 264.544,102.696 C264.475,100.661 263.592,98.739 262.093,97.362 L254.022,89.289 C255.208,88.914 256.446,88.729 257.691,88.739 C261.589,88.75 265.333,90.261 268.147,92.958 C270.963,95.858 272.542,99.739 272.549,103.781 Z" />
        </g>
        <g id="Regular-S" transform="translate(0,0)">
            <path d="M457.874,85.254 C454.356,85.242 450.912,86.262 447.968,88.189 L459.709,99.929 C460.498,100.603 460.983,101.567 461.052,102.603 C461.121,103.639 460.769,104.659 460.075,105.432 C459.303,106.126 458.283,106.478 457.246,106.409 C456.21,106.34 455.246,105.855 454.572,105.065 L442.465,93.325 C440.372,96.405 439.283,100.058 439.347,103.781 C439.387,113.997 447.659,122.269 457.874,122.309 C459.481,122.318 461.082,122.133 462.644,121.758 L474.934,134.049 C478.531,137.645 484.362,137.645 487.959,134.049 C491.555,130.452 491.555,124.621 487.959,121.025 L475.668,108.734 C476.042,107.172 476.227,105.571 476.218,103.965 C476.317,99.036 474.428,94.276 470.977,90.756 C467.526,87.236 462.804,85.253 457.874,85.254 Z M472.549,103.781 C472.547,105.085 472.361,106.382 471.999,107.634 L471.449,109.652 L472.916,111.119 L485.207,123.409 C486.265,124.411 486.862,125.805 486.858,127.262 C486.899,128.726 486.296,130.134 485.207,131.114 C484.203,132.168 482.81,132.765 481.354,132.765 C479.899,132.765 478.506,132.168 477.502,131.114 L465.212,118.823 L463.744,117.356 L461.726,117.906 C460.474,118.269 459.178,118.454 457.874,118.456 C453.976,118.446 450.232,116.935 447.418,114.237 C444.54,111.53 442.941,107.732 443.016,103.781 C443.018,102.418 443.203,101.061 443.566,99.746 L451.637,107.818 C453.015,109.317 454.937,110.2 456.972,110.269 C459.006,110.338 460.984,109.587 462.46,108.185 C463.862,106.709 464.613,104.731 464.544,102.696 C464.475,100.661 463.592,98.739 462.093,97.362 L454.022,89.289 C455.208,88.914 456.446,88.729 457.691,88.739 C461.589,88.75 465.333,90.261 468.147,92.958 C470.963,95.858 472.542,99.739 472.549,103.781 Z" />
        </g>
        <g id="Black-S" transform="translate(0,0)">
            <path d="M657.874,85.254 C654.356,85.242 650.912,86.262 647.968,88.189 L659.708,99.929 C660.498,100.603 660.983,101.567 661.052,102.603 C661.121,103.639 660.769,104.659 660.075,105.432 C659.303,106.126 658.282,106.478 657.246,106.409 C656.21,106.34 655.246,105.855 654.572,105.065 L642.465,93.325 C640.372,96.405 639.283,100.058 639.347,103.781 C639.387,113.997 647.659,122.269 657.874,122.309 C659.481,122.318 661.082,122.133 662.644,121.758 L674.934,134.049 C678.531,137.645 684.362,137.645 687.959,134.049 C691.555,130.452 691.555,124.621 687.959,121.025 L675.668,108.734 C676.042,107.172 676.227,105.571 676.218,103.965 C676.317,99.036 674.428,94.276 670.977,90.756 C667.526,87.236 662.804,85.253 657.874,85.254 Z M672.549,103.781 C672.547,105.085 672.361,106.382 671.999,107.634 L671.449,109.652 L672.916,111.119 L685.207,123.409 C686.265,124.411 686.862,125.805 686.858,127.262 C686.899,128.726 686.296,130.134 685.207,131.114 C684.203,132.168 682.81,132.765 681.354,132.765 C679.899,132.765 678.506,132.168 677.502,131.114 L665.212,118.823 L663.744,117.356 L661.726,117.906 C660.474,118.269 659.178,118.454 657.874,118.456 C653.976,118.446 650.232,116.935 647.418,114.237 C644.54,111.53 642.941,107.732 643.015,103.781 C643.018,102.418 643.203,101.061 643.566,99.746 L651.637,107.818 C653.015,109.317 654.937,110.2 656.971,110.269 C659.006,110.338 660.984,109.587 662.46,108.185 C663.862,106.709 664.613,104.731 664.544,102.696 C664.475,100.661 663.592,98.739 662.093,97.362 L654.022,89.289 C655.208,88.914 656.446,88.729 657.691,88.739 C661.589,88.75 665.333,90.261 668.147,92.958 C670.963,95.858 672.542,99.739 672.549,103.781 Z" />
        </g>
    </g>
</svg>