<?xml version="1.0" encoding="UTF-8"?>
<svg height="600" width="800" xmlns="http://www.w3.org/2000/svg" xmlns:xlink="http://www.w3.org/1999/xlink">
    <style>
        .cls-1 { fill: none }
    </style>
    <g id="Notes" font-family="LucidaGrande, 'Lucida Grande', sans-serif" font-size="13">
        <rect fill="white" height="600.0" width="800.0" x="0.0" y="0.0" />
        <g font-size="13">
            <text x="18.0" y="176.0">Small</text>
            <text x="18.0" y="376.0">Medium</text>
            <text x="18.0" y="576.0">Large</text>
        </g>
        <g font-size="9">
            <text x="250.0" y="30.0">Ultralight</text>
            <text x="450.0" y="30.0">Regular</text>
            <text x="650.0" y="30.0">Black</text>
            <text id="template-version" fill="#505050" text-anchor="end" x="785.0" y="575.0">Template v.3.0</text>
            <a href="https://github.com/swhitty/SwiftDraw">
                <text fill="#505050" text-anchor="end" x="785.0" y="590.0">https://github.com/swhitty/SwiftDraw</text>
            </a>
        </g>
    </g>
    <g id="Guides" stroke="rgb(39, 170, 225)" stroke-width="0.5">
        <path id="Capline-S" d="M18,76 l800,0" />
        <path id="H-reference" d="M85,145.755 L87.685,145.755 L113.369,79.287 L114.052,79.287 L114.052,76 L112.148,76 L85,145.755 Z M95.693,121.536 L130.996,121.536 L130.263,119.313 L96.474,119.313 L95.693,121.536 Z M139.15,145.755 L141.787,145.755 L114.638,76 L113.466,76 L113.466,79.287 L139.15,145.755 Z" stroke="none" transform="translate(0,0)" />
        <path id="Baseline-S" d="M18,146 l800,0" />
        <path id="left-margin-Ultralight-S" d="M221,56 l0,110" />
        <path id="right-margin-Ultralight-S" d="M309,56 l0,110" />
        <path id="left-margin-Regular-S" d="M421,56 l0,110" />
        <path id="right-margin-Regular-S" d="M509,56 l0,110" />
        <path id="left-margin-Black-S" d="M621,56 l0,110" />
        <path id="right-margin-Black-S" d="M709,56 l0,110" />
        <path id="Capline-M" d="M18,276 l800,0" />
        <path id="Baseline-M" d="M18,346 l800,0" />
        <path id="Capline-L" d="M18,476 l800,0" />
        <path id="Baseline-L" d="M18,546 l800,0" />
    </g>
    <g id="Symbols">
        <g id="Ultralight-S" transform="translate(0,0)">
            <path d="M275.995,128.591 L275.995,132.989 L254.006,132.989 L254.006,128.591 Z" />
            <path d="M271.597,137.387 L271.597,141.785 L258.404,141.785 L258.404,137.387 Z" />
            <path d="M265,80.215 C259.168,80.215 253.575,82.532 249.452,86.656 C245.328,90.779 243.011,96.372 243.011,102.204 C242.709,108.687 245.54,114.921 250.619,118.96 C252.818,121.005 254.006,122.171 254.006,124.194 L258.404,124.194 C258.404,120.148 255.963,117.883 253.588,115.706 C249.415,112.51 247.1,107.451 247.409,102.204 C247.409,92.489 255.285,84.613 265,84.613 C274.716,84.613 282.592,92.489 282.592,102.204 C282.896,107.455 280.572,112.515 276.391,115.706 C274.038,117.905 271.597,120.104 271.597,124.194 L275.995,124.194 C275.995,122.171 277.16,121.005 279.381,118.938 C284.457,114.906 287.288,108.68 286.989,102.204 C286.989,96.372 284.673,90.779 280.549,86.656 C276.425,82.532 270.832,80.215 265,80.215 Z" />
        </g>
        <g id="Regular-S" transform="translate(0,0)">
            <path d="M475.995,128.591 L475.995,132.989 L454.006,132.989 L454.006,128.591 Z" />
            <path d="M471.597,137.387 L471.597,141.785 L458.404,141.785 L458.404,137.387 Z" />
            <path d="M465,80.215 C459.168,80.215 453.575,82.532 449.452,86.656 C445.328,90.779 443.011,96.372 443.011,102.204 C442.709,108.687 445.54,114.921 450.619,118.96 C452.818,121.005 454.006,122.171 454.006,124.194 L458.404,124.194 C458.404,120.148 455.963,117.883 453.588,115.706 C449.415,112.51 447.1,107.451 447.409,102.204 C447.409,92.489 455.285,84.613 465,84.613 C474.716,84.613 482.592,92.489 482.592,102.204 C482.896,107.455 480.572,112.515 476.391,115.706 C474.038,117.905 471.597,120.104 471.597,124.194 L475.995,124.194 C475.995,122.171 477.16,121.005 479.381,118.938 C484.457,114.906 487.288,108.68 486.989,102.204 C486.989,96.372 484.673,90.779 480.549,86.656 C476.425,82.532 470.832,80.215 465,80.215 Z" />
        </g>
        <g id="Black-S" transform="translate(0,0)">
            <path d="M675.995,128.591 L675.995,132.989 L654.006,132.989 L654.006,128.591 Z" />
            <path d="M671.597,137.387 L671.597,141.785 L658.404,141.785 L658.404,137.387 Z" />
            <path d="M665,80.215 C659.168,80.215 653.575,82.532 649.452,86.656 C645.328,90.779 643.011,96.372 643.011,102.204 C642.709,108.687 645.54,114.921 650.619,118.96 C652.818,121.005 654.006,122.171 654.006,124.194 L658.404,124.194 C658.404,120.148 655.963,117.883 653.588,115.706 C649.415,112.51 647.1,107.451 647.409,102.204 C647.409,92.489 655.285,84.613 665,84.613 C674.716,84.613 682.592,92.489 682.592,102.204 C682.896,107.455 680.572,112.515 676.391,115.706 C674.038,117.905 671.597,120.104 671.597,124.194 L675.995,124.194 C675.995,122.171 677.16,121.005 679.381,118.938 C684.457,114.906 687.288,108.68 686.989,102.204 C686.989,96.372 684.673,90.779 680.549,86.656 C676.425,82.532 670.832,80.215 665,80.215 Z" />
        </g>
    </g>
</svg>