<?xml version="1.0" encoding="UTF-8"?>
<svg height="600" width="800" xmlns="http://www.w3.org/2000/svg" xmlns:xlink="http://www.w3.org/1999/xlink">
    <style>
        
    </style>
    <g id="Notes" font-family="LucidaGrande, 'Lucida Grande', sans-serif" font-size="13">
        <rect fill="white" height="600.0" width="800.0" x="0.0" y="0.0" />
        <g font-size="13">
            <text x="18.0" y="176.0">Small</text>
            <text x="18.0" y="376.0">Medium</text>
            <text x="18.0" y="576.0">Large</text>
        </g>
        <g font-size="9">
            <text x="250.0" y="30.0">Ultralight</text>
            <text x="450.0" y="30.0">Regular</text>
            <text x="650.0" y="30.0">Black</text>
            <text id="template-version" fill="#505050" text-anchor="end" x="785.0" y="575.0">Template v.3.0</text>
            <a href="https://github.com/swhitty/SwiftDraw">
                <text fill="#505050" text-anchor="end" x="785.0" y="590.0">https://github.com/swhitty/SwiftDraw</text>
            </a>
        </g>
    </g>
    <g id="Guides" stroke="rgb(39, 170, 225)" stroke-width="0.5">
        <path id="Capline-S" d="M18,76 l800,0" />
        <path id="H-reference" d="M85,145.755 L87.685,145.755 L113.369,79.287 L114.052,79.287 L114.052,76 L112.148,76 L85,145.755 Z M95.693,121.536 L130.996,121.536 L130.263,119.313 L96.474,119.313 L95.693,121.536 Z M139.15,145.755 L141.787,145.755 L114.638,76 L113.466,76 L113.466,79.287 L139.15,145.755 Z" stroke="none" transform="translate(0,0)" />
        <path id="Baseline-S" d="M18,146 l800,0" />
        <path id="left-margin-Ultralight-S" d="M221,56 l0,110" />
        <path id="right-margin-Ultralight-S" d="M309,56 l0,110" />
        <path id="left-margin-Regular-S" d="M421,56 l0,110" />
        <path id="right-margin-Regular-S" d="M509,56 l0,110" />
        <path id="left-margin-Black-S" d="M621,56 l0,110" />
        <path id="right-margin-Black-S" d="M709,56 l0,110" />
        <path id="Capline-M" d="M18,276 l800,0" />
        <path id="Baseline-M" d="M18,346 l800,0" />
        <path id="Capline-L" d="M18,476 l800,0" />
        <path id="Baseline-L" d="M18,546 l800,0" />
    </g>
    <g id="Symbols">
        <g id="Ultralight-S" transform="translate(0,0)">
            <path d="M292.077,83.923 L292.077,138.077 L237.923,138.077 L237.923,83.923 Z" />
            <path d="M266.036,87.67 C265.418,87.187 264.551,87.187 263.933,87.67 L239.615,106.633 L241.718,109.293 L244.692,106.974 L244.692,127.923 C244.696,129.791 246.209,131.304 248.077,131.308 L281.923,131.308 C283.791,131.304 285.304,129.791 285.308,127.923 L285.308,106.989 L288.282,109.308 L290.385,106.648 Z M268.385,127.923 L261.615,127.923 L261.615,114.385 L268.385,114.385 Z M271.769,127.923 L271.769,114.385 C271.767,112.516 270.253,111.002 268.385,111 L261.615,111 C259.747,111.002 258.233,112.516 258.231,114.385 L258.231,127.923 L248.077,127.923 L248.077,104.335 L265,91.152 L281.923,104.353 L281.923,127.923 Z" />
        </g>
        <g id="Regular-S" transform="translate(0,0)">
            <path d="M492.077,83.923 L492.077,138.077 L437.923,138.077 L437.923,83.923 Z" />
            <path d="M466.036,87.67 C465.418,87.187 464.551,87.187 463.933,87.67 L439.615,106.633 L441.718,109.293 L444.692,106.974 L444.692,127.923 C444.696,129.791 446.209,131.304 448.077,131.308 L481.923,131.308 C483.791,131.304 485.304,129.791 485.308,127.923 L485.308,106.989 L488.282,109.308 L490.385,106.648 Z M468.385,127.923 L461.615,127.923 L461.615,114.385 L468.385,114.385 Z M471.769,127.923 L471.769,114.385 C471.767,112.516 470.253,111.002 468.385,111 L461.615,111 C459.747,111.002 458.233,112.516 458.231,114.385 L458.231,127.923 L448.077,127.923 L448.077,104.335 L465,91.152 L481.923,104.353 L481.923,127.923 Z" />
        </g>
        <g id="Black-S" transform="translate(0,0)">
            <path d="M692.077,83.923 L692.077,138.077 L637.923,138.077 L637.923,83.923 Z" />
            <path d="M666.036,87.67 C665.418,87.187 664.551,87.187 663.933,87.67 L639.615,106.633 L641.718,109.293 L644.692,106.974 L644.692,127.923 C644.696,129.791 646.209,131.304 648.077,131.308 L681.923,131.308 C683.791,131.304 685.304,129.791 685.308,127.923 L685.308,106.989 L688.282,109.308 L690.385,106.648 Z M668.385,127.923 L661.615,127.923 L661.615,114.385 L668.385,114.385 Z M671.769,127.923 L671.769,114.385 C671.767,112.516 670.253,111.002 668.385,111 L661.615,111 C659.747,111.002 658.233,112.516 658.231,114.385 L658.231,127.923 L648.077,127.923 L648.077,104.335 L665,91.152 L681.923,104.353 L681.923,127.923 Z" />
        </g>
    </g>
</svg>