<?xml version="1.0" encoding="UTF-8"?>
<svg height="600" width="800" xmlns="http://www.w3.org/2000/svg" xmlns:xlink="http://www.w3.org/1999/xlink">
    <style>
        .cls-1 { fill: none }
    </style>
    <g id="Notes" font-family="LucidaGrande, 'Lucida Grande', sans-serif" font-size="13">
        <rect fill="white" height="600.0" width="800.0" x="0.0" y="0.0" />
        <g font-size="13">
            <text x="18.0" y="176.0">Small</text>
            <text x="18.0" y="376.0">Medium</text>
            <text x="18.0" y="576.0">Large</text>
        </g>
        <g font-size="9">
            <text x="250.0" y="30.0">Ultralight</text>
            <text x="450.0" y="30.0">Regular</text>
            <text x="650.0" y="30.0">Black</text>
            <text id="template-version" fill="#505050" text-anchor="end" x="785.0" y="575.0">Template v.3.0</text>
            <a href="https://github.com/swhitty/SwiftDraw">
                <text fill="#505050" text-anchor="end" x="785.0" y="590.0">https://github.com/swhitty/SwiftDraw</text>
            </a>
        </g>
    </g>
    <g id="Guides" stroke="rgb(39, 170, 225)" stroke-width="0.5">
        <path id="Capline-S" d="M18,76 l800,0" />
        <path id="H-reference" d="M85,145.755 L87.685,145.755 L113.369,79.287 L114.052,79.287 L114.052,76 L112.148,76 L85,145.755 Z M95.693,121.536 L130.996,121.536 L130.263,119.313 L96.474,119.313 L95.693,121.536 Z M139.15,145.755 L141.787,145.755 L114.638,76 L113.466,76 L113.466,79.287 L139.15,145.755 Z" stroke="none" transform="translate(0,0)" />
        <path id="Baseline-S" d="M18,146 l800,0" />
        <path id="left-margin-Ultralight-S" d="M221,56 l0,110" />
        <path id="right-margin-Ultralight-S" d="M309,56 l0,110" />
        <path id="left-margin-Regular-S" d="M421,56 l0,110" />
        <path id="right-margin-Regular-S" d="M509,56 l0,110" />
        <path id="left-margin-Black-S" d="M621,56 l0,110" />
        <path id="right-margin-Black-S" d="M709,56 l0,110" />
        <path id="Capline-M" d="M18,276 l800,0" />
        <path id="Baseline-M" d="M18,346 l800,0" />
        <path id="Capline-L" d="M18,476 l800,0" />
        <path id="Baseline-L" d="M18,546 l800,0" />
    </g>
    <g id="Symbols">
        <g id="Ultralight-S" transform="translate(0,0)">
            <path d="M287,100 L276,100 L276,92.667 C276,91.694 275.614,90.762 274.926,90.074 C274.238,89.386 273.306,89 272.333,89 L257.667,89 C256.694,89 255.762,89.386 255.074,90.074 C254.386,90.762 254,91.694 254,92.667 L254,100 L243,100 C242.028,100 241.095,100.386 240.407,101.074 C239.72,101.762 239.333,102.694 239.333,103.667 L239.333,129.333 C239.333,130.306 239.72,131.238 240.407,131.926 C241.095,132.614 242.028,133 243,133 L287,133 C287.972,133 288.905,132.614 289.593,131.926 C290.28,131.238 290.667,130.306 290.667,129.333 L290.667,103.667 C290.667,102.694 290.28,101.762 289.593,101.074 C288.905,100.386 287.972,100 287,100 Z M257.667,92.667 L272.333,92.667 L272.333,100 L257.667,100 Z M243,129.333 L243,103.667 L287,103.667 L287,129.333 Z" />
        </g>
        <g id="Regular-S" transform="translate(0,0)">
            <path d="M487,100 L476,100 L476,92.667 C476,91.694 475.614,90.762 474.926,90.074 C474.238,89.386 473.306,89 472.333,89 L457.667,89 C456.694,89 455.762,89.386 455.074,90.074 C454.386,90.762 454,91.694 454,92.667 L454,100 L443,100 C442.028,100 441.095,100.386 440.407,101.074 C439.72,101.762 439.333,102.694 439.333,103.667 L439.333,129.333 C439.333,130.306 439.72,131.238 440.407,131.926 C441.095,132.614 442.028,133 443,133 L487,133 C487.972,133 488.905,132.614 489.593,131.926 C490.28,131.238 490.667,130.306 490.667,129.333 L490.667,103.667 C490.667,102.694 490.28,101.762 489.593,101.074 C488.905,100.386 487.972,100 487,100 Z M457.667,92.667 L472.333,92.667 L472.333,100 L457.667,100 Z M443,129.333 L443,103.667 L487,103.667 L487,129.333 Z" />
        </g>
        <g id="Black-S" transform="translate(0,0)">
            <path d="M687,100 L676,100 L676,92.667 C676,91.694 675.614,90.762 674.926,90.074 C674.238,89.386 673.306,89 672.333,89 L657.667,89 C656.694,89 655.762,89.386 655.074,90.074 C654.386,90.762 654,91.694 654,92.667 L654,100 L643,100 C642.028,100 641.095,100.386 640.407,101.074 C639.72,101.762 639.333,102.694 639.333,103.667 L639.333,129.333 C639.333,130.306 639.72,131.238 640.407,131.926 C641.095,132.614 642.028,133 643,133 L687,133 C687.972,133 688.905,132.614 689.593,131.926 C690.28,131.238 690.667,130.306 690.667,129.333 L690.667,103.667 C690.667,102.694 690.28,101.762 689.593,101.074 C688.905,100.386 687.972,100 687,100 Z M657.667,92.667 L672.333,92.667 L672.333,100 L657.667,100 Z M643,129.333 L643,103.667 L687,103.667 L687,129.333 Z" />
        </g>
    </g>
</svg>