<?xml version="1.0" encoding="UTF-8"?>
<svg height="600" width="800" xmlns="http://www.w3.org/2000/svg" xmlns:xlink="http://www.w3.org/1999/xlink">
    <style>
        .cls-1 { fill: none }
    </style>
    <g id="Notes" font-family="LucidaGrande, 'Lucida Grande', sans-serif" font-size="13">
        <rect fill="white" height="600.0" width="800.0" x="0.0" y="0.0" />
        <g font-size="13">
            <text x="18.0" y="176.0">Small</text>
            <text x="18.0" y="376.0">Medium</text>
            <text x="18.0" y="576.0">Large</text>
        </g>
        <g font-size="9">
            <text x="250.0" y="30.0">Ultralight</text>
            <text x="450.0" y="30.0">Regular</text>
            <text x="650.0" y="30.0">Black</text>
            <text id="template-version" fill="#505050" text-anchor="end" x="785.0" y="575.0">Template v.3.0</text>
            <a href="https://github.com/swhitty/SwiftDraw">
                <text fill="#505050" text-anchor="end" x="785.0" y="590.0">https://github.com/swhitty/SwiftDraw</text>
            </a>
        </g>
    </g>
    <g id="Guides" stroke="rgb(39, 170, 225)" stroke-width="0.5">
        <path id="Capline-S" d="M18,76 l800,0" />
        <path id="H-reference" d="M85,145.755 L87.685,145.755 L113.369,79.287 L114.052,79.287 L114.052,76 L112.148,76 L85,145.755 Z M95.693,121.536 L130.996,121.536 L130.263,119.313 L96.474,119.313 L95.693,121.536 Z M139.15,145.755 L141.787,145.755 L114.638,76 L113.466,76 L113.466,79.287 L139.15,145.755 Z" stroke="none" transform="translate(0,0)" />
        <path id="Baseline-S" d="M18,146 l800,0" />
        <path id="left-margin-Ultralight-S" d="M221,56 l0,110" />
        <path id="right-margin-Ultralight-S" d="M309,56 l0,110" />
        <path id="left-margin-Regular-S" d="M421,56 l0,110" />
        <path id="right-margin-Regular-S" d="M509,56 l0,110" />
        <path id="left-margin-Black-S" d="M621,56 l0,110" />
        <path id="right-margin-Black-S" d="M709,56 l0,110" />
        <path id="Capline-M" d="M18,276 l800,0" />
        <path id="Baseline-M" d="M18,346 l800,0" />
        <path id="Capline-L" d="M18,476 l800,0" />
        <path id="Baseline-L" d="M18,546 l800,0" />
    </g>
    <g id="Symbols">
        <g id="Ultralight-S" transform="translate(0,0)">
            <path d="M274.565,135.87 L243.957,135.87 C242.942,135.87 241.969,135.466 241.251,134.749 C240.534,134.031 240.13,133.058 240.13,132.043 L240.13,89.957 C240.13,88.942 240.534,87.969 241.251,87.251 C241.969,86.534 242.942,86.13 243.957,86.13 L274.565,86.13 L274.565,89.957 L243.957,89.957 L243.957,132.043 L274.565,132.043 Z" />
            <path d="M266.913,97.609 L266.913,124.391 L263.087,124.391 L263.087,97.609 Z" />
            <path d="M289.87,97.609 L289.87,124.391 L286.043,124.391 L286.043,97.609 Z" />
            <path d="M278.391,97.609 L278.391,124.391 L274.565,124.391 L274.565,97.609 Z" />
        </g>
        <g id="Regular-S" transform="translate(0,0)">
            <path d="M474.565,135.87 L443.957,135.87 C442.942,135.87 441.969,135.466 441.251,134.749 C440.534,134.031 440.13,133.058 440.13,132.043 L440.13,89.957 C440.13,88.942 440.534,87.969 441.251,87.251 C441.969,86.534 442.942,86.13 443.957,86.13 L474.565,86.13 L474.565,89.957 L443.957,89.957 L443.957,132.043 L474.565,132.043 Z" />
            <path d="M466.913,97.609 L466.913,124.391 L463.087,124.391 L463.087,97.609 Z" />
            <path d="M489.87,97.609 L489.87,124.391 L486.043,124.391 L486.043,97.609 Z" />
            <path d="M478.391,97.609 L478.391,124.391 L474.565,124.391 L474.565,97.609 Z" />
        </g>
        <g id="Black-S" transform="translate(0,0)">
            <path d="M674.565,135.87 L643.957,135.87 C642.942,135.87 641.969,135.466 641.251,134.749 C640.534,134.031 640.13,133.058 640.13,132.043 L640.13,89.957 C640.13,88.942 640.534,87.969 641.251,87.251 C641.969,86.534 642.942,86.13 643.957,86.13 L674.565,86.13 L674.565,89.957 L643.957,89.957 L643.957,132.043 L674.565,132.043 Z" />
            <path d="M666.913,97.609 L666.913,124.391 L663.087,124.391 L663.087,97.609 Z" />
            <path d="M689.87,97.609 L689.87,124.391 L686.043,124.391 L686.043,97.609 Z" />
            <path d="M678.391,97.609 L678.391,124.391 L674.565,124.391 L674.565,97.609 Z" />
        </g>
    </g>
</svg>