<?xml version="1.0" encoding="UTF-8"?>
<svg height="600" width="800" xmlns="http://www.w3.org/2000/svg" xmlns:xlink="http://www.w3.org/1999/xlink">
    <style>
        .cls-1 { fill: none }
    </style>
    <g id="Notes" font-family="LucidaGrande, 'Lucida Grande', sans-serif" font-size="13">
        <rect fill="white" height="600.0" width="800.0" x="0.0" y="0.0" />
        <g font-size="13">
            <text x="18.0" y="176.0">Small</text>
            <text x="18.0" y="376.0">Medium</text>
            <text x="18.0" y="576.0">Large</text>
        </g>
        <g font-size="9">
            <text x="250.0" y="30.0">Ultralight</text>
            <text x="450.0" y="30.0">Regular</text>
            <text x="650.0" y="30.0">Black</text>
            <text id="template-version" fill="#505050" text-anchor="end" x="785.0" y="575.0">Template v.3.0</text>
            <a href="https://github.com/swhitty/SwiftDraw">
                <text fill="#505050" text-anchor="end" x="785.0" y="590.0">https://github.com/swhitty/SwiftDraw</text>
            </a>
        </g>
    </g>
    <g id="Guides" stroke="rgb(39, 170, 225)" stroke-width="0.5">
        <path id="Capline-S" d="M18,76 l800,0" />
        <path id="H-reference" d="M85,145.755 L87.685,145.755 L113.369,79.287 L114.052,79.287 L114.052,76 L112.148,76 L85,145.755 Z M95.693,121.536 L130.996,121.536 L130.263,119.313 L96.474,119.313 L95.693,121.536 Z M139.15,145.755 L141.787,145.755 L114.638,76 L113.466,76 L113.466,79.287 L139.15,145.755 Z" stroke="none" transform="translate(0,0)" />
        <path id="Baseline-S" d="M18,146 l800,0" />
        <path id="left-margin-Ultralight-S" d="M221,56 l0,110" />
        <path id="right-margin-Ultralight-S" d="M309,56 l0,110" />
        <path id="left-margin-Regular-S" d="M421,56 l0,110" />
        <path id="right-margin-Regular-S" d="M509,56 l0,110" />
        <path id="left-margin-Black-S" d="M621,56 l0,110" />
        <path id="right-margin-Black-S" d="M709,56 l0,110" />
        <path id="Capline-M" d="M18,276 l800,0" />
        <path id="Baseline-M" d="M18,346 l800,0" />
        <path id="Capline-L" d="M18,476 l800,0" />
        <path id="Baseline-L" d="M18,546 l800,0" />
    </g>
    <g id="Symbols">
        <g id="Ultralight-S" transform="translate(0,0)">
            <path d="M244.829,88.244 L251.092,94.504 L248.5,97.097 L242.237,90.837 Z" />
            <path d="M281.492,124.893 L287.753,131.155 L285.16,133.748 L278.899,127.485 Z" />
            <path d="M259.5,85.333 L259.5,92.667 L255.833,92.667 L255.833,85.333 Z" />
            <path d="M246.667,101.833 L246.667,105.5 L239.333,105.5 L239.333,101.833 Z" />
            <path d="M290.667,116.5 L290.667,120.167 L283.333,120.167 L283.333,116.5 Z" />
            <path d="M274.167,129.333 L274.167,136.667 L270.5,136.667 L270.5,129.333 Z" />
            <path d="M266.063,120.295 L259.262,127.115 C257.408,128.97 254.706,129.694 252.173,129.016 C249.641,128.338 247.662,126.359 246.984,123.827 C246.306,121.294 247.03,118.592 248.885,116.738 L255.705,109.918 L253.102,107.333 L246.3,114.153 C244.192,116.205 242.993,119.017 242.973,121.959 C242.952,124.901 244.111,127.728 246.19,129.81 C248.266,131.869 251.076,133.017 254,133 C256.975,133.003 259.827,131.814 261.92,129.7 L268.667,122.898 Z" />
            <path d="M263.918,101.705 L270.738,94.885 C272.592,93.03 275.294,92.306 277.827,92.984 C280.359,93.662 282.338,95.641 283.016,98.173 C283.694,100.706 282.97,103.408 281.115,105.262 L274.295,112.082 L276.898,114.667 L283.7,107.847 C285.808,105.795 287.007,102.983 287.027,100.041 C287.048,97.099 285.889,94.272 283.81,92.19 C281.734,90.131 278.924,88.983 276,89 C273.025,88.997 270.173,90.186 268.08,92.3 L261.333,99.102 Z" />
        </g>
        <g id="Regular-S" transform="translate(0,0)">
            <path d="M444.829,88.244 L451.092,94.504 L448.5,97.097 L442.237,90.837 Z" />
            <path d="M481.492,124.893 L487.753,131.155 L485.16,133.748 L478.899,127.485 Z" />
            <path d="M459.5,85.333 L459.5,92.667 L455.833,92.667 L455.833,85.333 Z" />
            <path d="M446.667,101.833 L446.667,105.5 L439.333,105.5 L439.333,101.833 Z" />
            <path d="M490.667,116.5 L490.667,120.167 L483.333,120.167 L483.333,116.5 Z" />
            <path d="M474.167,129.333 L474.167,136.667 L470.5,136.667 L470.5,129.333 Z" />
            <path d="M466.063,120.295 L459.262,127.115 C457.408,128.97 454.706,129.694 452.173,129.016 C449.641,128.338 447.662,126.359 446.984,123.827 C446.306,121.294 447.03,118.592 448.885,116.738 L455.705,109.918 L453.102,107.333 L446.3,114.153 C444.192,116.205 442.993,119.017 442.973,121.959 C442.952,124.901 444.111,127.728 446.19,129.81 C448.266,131.869 451.076,133.017 454,133 C456.975,133.003 459.827,131.814 461.92,129.7 L468.667,122.898 Z" />
            <path d="M463.918,101.705 L470.738,94.885 C472.592,93.03 475.294,92.306 477.827,92.984 C480.359,93.662 482.338,95.641 483.016,98.173 C483.694,100.706 482.97,103.408 481.115,105.262 L474.295,112.082 L476.898,114.667 L483.7,107.847 C485.808,105.795 487.007,102.983 487.027,100.041 C487.048,97.099 485.889,94.272 483.81,92.19 C481.734,90.131 478.924,88.983 476,89 C473.025,88.997 470.173,90.186 468.08,92.3 L461.333,99.102 Z" />
        </g>
        <g id="Black-S" transform="translate(0,0)">
            <path d="M644.829,88.244 L651.092,94.504 L648.5,97.097 L642.237,90.837 Z" />
            <path d="M681.492,124.893 L687.753,131.155 L685.16,133.748 L678.899,127.485 Z" />
            <path d="M659.5,85.333 L659.5,92.667 L655.833,92.667 L655.833,85.333 Z" />
            <path d="M646.667,101.833 L646.667,105.5 L639.333,105.5 L639.333,101.833 Z" />
            <path d="M690.667,116.5 L690.667,120.167 L683.333,120.167 L683.333,116.5 Z" />
            <path d="M674.167,129.333 L674.167,136.667 L670.5,136.667 L670.5,129.333 Z" />
            <path d="M666.063,120.295 L659.262,127.115 C657.408,128.97 654.706,129.694 652.173,129.016 C649.641,128.338 647.662,126.359 646.984,123.827 C646.306,121.294 647.03,118.592 648.885,116.738 L655.705,109.918 L653.102,107.333 L646.3,114.153 C644.192,116.205 642.993,119.017 642.973,121.959 C642.952,124.901 644.111,127.728 646.19,129.81 C648.266,131.869 651.076,133.017 654,133 C656.975,133.003 659.827,131.814 661.92,129.7 L668.667,122.898 Z" />
            <path d="M663.918,101.705 L670.738,94.885 C672.592,93.03 675.294,92.306 677.827,92.984 C680.359,93.662 682.338,95.641 683.016,98.173 C683.694,100.706 682.97,103.408 681.115,105.262 L674.295,112.082 L676.898,114.667 L683.7,107.847 C685.808,105.795 687.007,102.983 687.027,100.041 C687.048,97.099 685.889,94.272 683.81,92.19 C681.734,90.131 678.924,88.983 676,89 C673.025,88.997 670.173,90.186 668.08,92.3 L661.333,99.102 Z" />
        </g>
    </g>
</svg>