<?xml version="1.0" encoding="UTF-8"?>
<svg height="600" width="800" xmlns="http://www.w3.org/2000/svg" xmlns:xlink="http://www.w3.org/1999/xlink">
    <style>
        .cls-2 { fill: none }
    </style>
    <g id="Notes" font-family="LucidaGrande, 'Lucida Grande', sans-serif" font-size="13">
        <rect fill="white" height="600.0" width="800.0" x="0.0" y="0.0" />
        <g font-size="13">
            <text x="18.0" y="176.0">Small</text>
            <text x="18.0" y="376.0">Medium</text>
            <text x="18.0" y="576.0">Large</text>
        </g>
        <g font-size="9">
            <text x="250.0" y="30.0">Ultralight</text>
            <text x="450.0" y="30.0">Regular</text>
            <text x="650.0" y="30.0">Black</text>
            <text id="template-version" fill="#505050" text-anchor="end" x="785.0" y="575.0">Template v.3.0</text>
            <a href="https://github.com/swhitty/SwiftDraw">
                <text fill="#505050" text-anchor="end" x="785.0" y="590.0">https://github.com/swhitty/SwiftDraw</text>
            </a>
        </g>
    </g>
    <g id="Guides" stroke="rgb(39, 170, 225)" stroke-width="0.5">
        <path id="Capline-S" d="M18,76 l800,0" />
        <path id="H-reference" d="M85,145.755 L87.685,145.755 L113.369,79.287 L114.052,79.287 L114.052,76 L112.148,76 L85,145.755 Z M95.693,121.536 L130.996,121.536 L130.263,119.313 L96.474,119.313 L95.693,121.536 Z M139.15,145.755 L141.787,145.755 L114.638,76 L113.466,76 L113.466,79.287 L139.15,145.755 Z" stroke="none" transform="translate(0,0)" />
        <path id="Baseline-S" d="M18,146 l800,0" />
        <path id="left-margin-Ultralight-S" d="M221,56 l0,110" />
        <path id="right-margin-Ultralight-S" d="M309,56 l0,110" />
        <path id="left-margin-Regular-S" d="M421,56 l0,110" />
        <path id="right-margin-Regular-S" d="M509,56 l0,110" />
        <path id="left-margin-Black-S" d="M621,56 l0,110" />
        <path id="right-margin-Black-S" d="M709,56 l0,110" />
        <path id="Capline-M" d="M18,276 l800,0" />
        <path id="Baseline-M" d="M18,346 l800,0" />
        <path id="Capline-L" d="M18,476 l800,0" />
        <path id="Baseline-L" d="M18,546 l800,0" />
    </g>
    <g id="Symbols">
        <g id="Ultralight-S" transform="translate(0,0)">
            <path d="M265.904,102.85 L265.904,121.32 L261.799,121.32 L261.799,102.85 Z" />
            <path d="M270.008,84.381 L270.008,88.485 L257.695,88.485 L257.695,84.381 Z" />
            <path d="M288.478,98.746 L285.564,95.852 L280.946,100.47 C273.095,91.403 259.503,90.108 250.081,97.531 C240.659,104.953 238.735,118.47 245.713,128.226 C252.69,137.983 266.103,140.531 276.173,134.015 C286.242,127.498 289.411,114.217 283.368,103.856 Z M263.852,133.633 C253.651,133.633 245.382,125.364 245.382,115.164 C245.382,104.963 253.651,96.694 263.852,96.694 C274.052,96.694 282.321,104.963 282.321,115.164 C282.321,120.062 280.375,124.76 276.912,128.224 C273.448,131.687 268.75,133.633 263.852,133.633 Z" />
        </g>
        <g id="Regular-S" transform="translate(0,0)">
            <path d="M465.904,102.85 L465.904,121.32 L461.799,121.32 L461.799,102.85 Z" />
            <path d="M470.008,84.381 L470.008,88.485 L457.695,88.485 L457.695,84.381 Z" />
            <path d="M488.478,98.746 L485.564,95.852 L480.946,100.47 C473.095,91.403 459.503,90.108 450.081,97.531 C440.659,104.953 438.735,118.47 445.713,128.226 C452.69,137.983 466.103,140.531 476.173,134.015 C486.242,127.498 489.411,114.217 483.368,103.856 Z M463.852,133.633 C453.651,133.633 445.382,125.364 445.382,115.164 C445.382,104.963 453.651,96.694 463.852,96.694 C474.052,96.694 482.321,104.963 482.321,115.164 C482.321,120.062 480.375,124.76 476.912,128.224 C473.448,131.687 468.75,133.633 463.852,133.633 Z" />
        </g>
        <g id="Black-S" transform="translate(0,0)">
            <path d="M665.904,102.85 L665.904,121.32 L661.799,121.32 L661.799,102.85 Z" />
            <path d="M670.008,84.381 L670.008,88.485 L657.695,88.485 L657.695,84.381 Z" />
            <path d="M688.478,98.746 L685.564,95.852 L680.946,100.47 C673.095,91.403 659.503,90.108 650.081,97.531 C640.659,104.953 638.735,118.47 645.712,128.226 C652.69,137.983 666.103,140.531 676.173,134.015 C686.242,127.498 689.411,114.217 683.368,103.856 Z M663.852,133.633 C653.651,133.633 645.382,125.364 645.382,115.164 C645.382,104.963 653.651,96.694 663.852,96.694 C674.052,96.694 682.321,104.963 682.321,115.164 C682.321,120.062 680.375,124.76 676.912,128.224 C673.448,131.687 668.75,133.633 663.852,133.633 Z" />
        </g>
    </g>
</svg>