<?xml version="1.0" encoding="UTF-8"?>
<svg height="600" width="800" xmlns="http://www.w3.org/2000/svg" xmlns:xlink="http://www.w3.org/1999/xlink">
    <style>
        .cls-1 { fill: none }
    </style>
    <g id="Notes" font-family="LucidaGrande, 'Lucida Grande', sans-serif" font-size="13">
        <rect fill="white" height="600.0" width="800.0" x="0.0" y="0.0" />
        <g font-size="13">
            <text x="18.0" y="176.0">Small</text>
            <text x="18.0" y="376.0">Medium</text>
            <text x="18.0" y="576.0">Large</text>
        </g>
        <g font-size="9">
            <text x="250.0" y="30.0">Ultralight</text>
            <text x="450.0" y="30.0">Regular</text>
            <text x="650.0" y="30.0">Black</text>
            <text id="template-version" fill="#505050" text-anchor="end" x="785.0" y="575.0">Template v.3.0</text>
            <a href="https://github.com/swhitty/SwiftDraw">
                <text fill="#505050" text-anchor="end" x="785.0" y="590.0">https://github.com/swhitty/SwiftDraw</text>
            </a>
        </g>
    </g>
    <g id="Guides" stroke="rgb(39, 170, 225)" stroke-width="0.5">
        <path id="Capline-S" d="M18,76 l800,0" />
        <path id="H-reference" d="M85,145.755 L87.685,145.755 L113.369,79.287 L114.052,79.287 L114.052,76 L112.148,76 L85,145.755 Z M95.693,121.536 L130.996,121.536 L130.263,119.313 L96.474,119.313 L95.693,121.536 Z M139.15,145.755 L141.787,145.755 L114.638,76 L113.466,76 L113.466,79.287 L139.15,145.755 Z" stroke="none" transform="translate(0,0)" />
        <path id="Baseline-S" d="M18,146 l800,0" />
        <path id="left-margin-Ultralight-S" d="M221,56 l0,110" />
        <path id="right-margin-Ultralight-S" d="M309,56 l0,110" />
        <path id="left-margin-Regular-S" d="M421,56 l0,110" />
        <path id="right-margin-Regular-S" d="M509,56 l0,110" />
        <path id="left-margin-Black-S" d="M621,56 l0,110" />
        <path id="right-margin-Black-S" d="M709,56 l0,110" />
        <path id="Capline-M" d="M18,276 l800,0" />
        <path id="Baseline-M" d="M18,346 l800,0" />
        <path id="Capline-L" d="M18,476 l800,0" />
        <path id="Baseline-L" d="M18,546 l800,0" />
    </g>
    <g id="Symbols">
        <g id="Ultralight-S" transform="translate(0,0)">
            <path d="M291.4,135.64 L287.88,135.64 L287.88,130.36 C287.88,128.96 287.324,127.617 286.334,126.626 C285.343,125.636 284,125.08 282.6,125.08 L275.56,125.08 C274.16,125.08 272.817,125.636 271.826,126.626 C270.836,127.617 270.28,128.96 270.28,130.36 L270.28,135.64 L266.76,135.64 L266.76,130.36 C266.76,128.026 267.687,125.788 269.337,124.137 C270.988,122.487 273.226,121.56 275.56,121.56 L282.6,121.56 C284.934,121.56 287.172,122.487 288.823,124.137 C290.473,125.788 291.4,128.026 291.4,130.36 Z" />
            <path d="M279.08,103.96 C281.996,103.96 284.36,106.324 284.36,109.24 C284.36,112.156 281.996,114.52 279.08,114.52 C276.164,114.52 273.8,112.156 273.8,109.24 C273.8,107.84 274.356,106.497 275.346,105.506 C276.337,104.516 277.68,103.96 279.08,103.96 M279.08,100.44 C274.22,100.44 270.28,104.38 270.28,109.24 C270.28,114.1 274.22,118.04 279.08,118.04 C283.94,118.04 287.88,114.1 287.88,109.24 C287.88,106.906 286.953,104.668 285.303,103.017 C283.652,101.367 281.414,100.44 279.08,100.44 Z" />
            <path d="M263.24,121.56 L259.72,121.56 L259.72,116.28 C259.72,114.88 259.164,113.537 258.174,112.546 C257.183,111.556 255.84,111 254.44,111 L247.4,111 C246,111 244.657,111.556 243.666,112.546 C242.676,113.537 242.12,114.88 242.12,116.28 L242.12,121.56 L238.6,121.56 L238.6,116.28 C238.6,113.946 239.527,111.708 241.177,110.057 C242.828,108.407 245.066,107.48 247.4,107.48 L254.44,107.48 C256.774,107.48 259.012,108.407 260.663,110.057 C262.313,111.708 263.24,113.946 263.24,116.28 Z" />
            <path d="M250.92,89.88 C253.836,89.88 256.2,92.244 256.2,95.16 C256.2,98.076 253.836,100.44 250.92,100.44 C248.004,100.44 245.64,98.076 245.64,95.16 C245.64,93.76 246.196,92.417 247.186,91.426 C248.177,90.436 249.52,89.88 250.92,89.88 M250.92,86.36 C246.06,86.36 242.12,90.3 242.12,95.16 C242.12,100.02 246.06,103.96 250.92,103.96 C255.78,103.96 259.72,100.02 259.72,95.16 C259.72,92.826 258.793,90.588 257.143,88.937 C255.492,87.287 253.254,86.36 250.92,86.36 Z" />
        </g>
        <g id="Regular-S" transform="translate(0,0)">
            <path d="M491.4,135.64 L487.88,135.64 L487.88,130.36 C487.88,128.96 487.324,127.617 486.334,126.626 C485.343,125.636 484,125.08 482.6,125.08 L475.56,125.08 C474.16,125.08 472.817,125.636 471.826,126.626 C470.836,127.617 470.28,128.96 470.28,130.36 L470.28,135.64 L466.76,135.64 L466.76,130.36 C466.76,128.026 467.687,125.788 469.337,124.137 C470.988,122.487 473.226,121.56 475.56,121.56 L482.6,121.56 C484.934,121.56 487.172,122.487 488.823,124.137 C490.473,125.788 491.4,128.026 491.4,130.36 Z" />
            <path d="M479.08,103.96 C481.996,103.96 484.36,106.324 484.36,109.24 C484.36,112.156 481.996,114.52 479.08,114.52 C476.164,114.52 473.8,112.156 473.8,109.24 C473.8,107.84 474.356,106.497 475.346,105.506 C476.337,104.516 477.68,103.96 479.08,103.96 M479.08,100.44 C474.22,100.44 470.28,104.38 470.28,109.24 C470.28,114.1 474.22,118.04 479.08,118.04 C483.94,118.04 487.88,114.1 487.88,109.24 C487.88,106.906 486.953,104.668 485.303,103.017 C483.652,101.367 481.414,100.44 479.08,100.44 Z" />
            <path d="M463.24,121.56 L459.72,121.56 L459.72,116.28 C459.72,114.88 459.164,113.537 458.174,112.546 C457.183,111.556 455.84,111 454.44,111 L447.4,111 C446,111 444.657,111.556 443.666,112.546 C442.676,113.537 442.12,114.88 442.12,116.28 L442.12,121.56 L438.6,121.56 L438.6,116.28 C438.6,113.946 439.527,111.708 441.177,110.057 C442.828,108.407 445.066,107.48 447.4,107.48 L454.44,107.48 C456.774,107.48 459.012,108.407 460.663,110.057 C462.313,111.708 463.24,113.946 463.24,116.28 Z" />
            <path d="M450.92,89.88 C453.836,89.88 456.2,92.244 456.2,95.16 C456.2,98.076 453.836,100.44 450.92,100.44 C448.004,100.44 445.64,98.076 445.64,95.16 C445.64,93.76 446.196,92.417 447.186,91.426 C448.177,90.436 449.52,89.88 450.92,89.88 M450.92,86.36 C446.06,86.36 442.12,90.3 442.12,95.16 C442.12,100.02 446.06,103.96 450.92,103.96 C455.78,103.96 459.72,100.02 459.72,95.16 C459.72,92.826 458.793,90.588 457.143,88.937 C455.492,87.287 453.254,86.36 450.92,86.36 Z" />
        </g>
        <g id="Black-S" transform="translate(0,0)">
            <path d="M691.4,135.64 L687.88,135.64 L687.88,130.36 C687.88,128.96 687.324,127.617 686.334,126.626 C685.343,125.636 684,125.08 682.6,125.08 L675.56,125.08 C674.16,125.08 672.817,125.636 671.826,126.626 C670.836,127.617 670.28,128.96 670.28,130.36 L670.28,135.64 L666.76,135.64 L666.76,130.36 C666.76,128.026 667.687,125.788 669.337,124.137 C670.988,122.487 673.226,121.56 675.56,121.56 L682.6,121.56 C684.934,121.56 687.172,122.487 688.823,124.137 C690.473,125.788 691.4,128.026 691.4,130.36 Z" />
            <path d="M679.08,103.96 C681.996,103.96 684.36,106.324 684.36,109.24 C684.36,112.156 681.996,114.52 679.08,114.52 C676.164,114.52 673.8,112.156 673.8,109.24 C673.8,107.84 674.356,106.497 675.346,105.506 C676.337,104.516 677.68,103.96 679.08,103.96 M679.08,100.44 C674.22,100.44 670.28,104.38 670.28,109.24 C670.28,114.1 674.22,118.04 679.08,118.04 C683.94,118.04 687.88,114.1 687.88,109.24 C687.88,106.906 686.953,104.668 685.303,103.017 C683.652,101.367 681.414,100.44 679.08,100.44 Z" />
            <path d="M663.24,121.56 L659.72,121.56 L659.72,116.28 C659.72,114.88 659.164,113.537 658.174,112.546 C657.183,111.556 655.84,111 654.44,111 L647.4,111 C646,111 644.657,111.556 643.667,112.546 C642.676,113.537 642.12,114.88 642.12,116.28 L642.12,121.56 L638.6,121.56 L638.6,116.28 C638.6,113.946 639.527,111.708 641.177,110.057 C642.828,108.407 645.066,107.48 647.4,107.48 L654.44,107.48 C656.774,107.48 659.012,108.407 660.663,110.057 C662.313,111.708 663.24,113.946 663.24,116.28 Z" />
            <path d="M650.92,89.88 C653.836,89.88 656.2,92.244 656.2,95.16 C656.2,98.076 653.836,100.44 650.92,100.44 C648.004,100.44 645.64,98.076 645.64,95.16 C645.64,93.76 646.196,92.417 647.187,91.426 C648.177,90.436 649.52,89.88 650.92,89.88 M650.92,86.36 C646.06,86.36 642.12,90.3 642.12,95.16 C642.12,100.02 646.06,103.96 650.92,103.96 C655.78,103.96 659.72,100.02 659.72,95.16 C659.72,92.826 658.793,90.588 657.143,88.937 C655.492,87.287 653.254,86.36 650.92,86.36 Z" />
        </g>
    </g>
</svg>