<?xml version="1.0" encoding="UTF-8"?>
<svg height="600" width="800" xmlns="http://www.w3.org/2000/svg" xmlns:xlink="http://www.w3.org/1999/xlink">
    <style>
        .cls-1 { fill: none }
    </style>
    <g id="Notes" font-family="LucidaGrande, 'Lucida Grande', sans-serif" font-size="13">
        <rect fill="white" height="600.0" width="800.0" x="0.0" y="0.0" />
        <g font-size="13">
            <text x="18.0" y="176.0">Small</text>
            <text x="18.0" y="376.0">Medium</text>
            <text x="18.0" y="576.0">Large</text>
        </g>
        <g font-size="9">
            <text x="250.0" y="30.0">Ultralight</text>
            <text x="450.0" y="30.0">Regular</text>
            <text x="650.0" y="30.0">Black</text>
            <text id="template-version" fill="#505050" text-anchor="end" x="785.0" y="575.0">Template v.3.0</text>
            <a href="https://github.com/swhitty/SwiftDraw">
                <text fill="#505050" text-anchor="end" x="785.0" y="590.0">https://github.com/swhitty/SwiftDraw</text>
            </a>
        </g>
    </g>
    <g id="Guides" stroke="rgb(39, 170, 225)" stroke-width="0.5">
        <path id="Capline-S" d="M18,76 l800,0" />
        <path id="H-reference" d="M85,145.755 L87.685,145.755 L113.369,79.287 L114.052,79.287 L114.052,76 L112.148,76 L85,145.755 Z M95.693,121.536 L130.996,121.536 L130.263,119.313 L96.474,119.313 L95.693,121.536 Z M139.15,145.755 L141.787,145.755 L114.638,76 L113.466,76 L113.466,79.287 L139.15,145.755 Z" stroke="none" transform="translate(0,0)" />
        <path id="Baseline-S" d="M18,146 l800,0" />
        <path id="left-margin-Ultralight-S" d="M221,56 l0,110" />
        <path id="right-margin-Ultralight-S" d="M309,56 l0,110" />
        <path id="left-margin-Regular-S" d="M421,56 l0,110" />
        <path id="right-margin-Regular-S" d="M509,56 l0,110" />
        <path id="left-margin-Black-S" d="M621,56 l0,110" />
        <path id="right-margin-Black-S" d="M709,56 l0,110" />
        <path id="Capline-M" d="M18,276 l800,0" />
        <path id="Baseline-M" d="M18,346 l800,0" />
        <path id="Capline-L" d="M18,476 l800,0" />
        <path id="Baseline-L" d="M18,546 l800,0" />
    </g>
    <g id="Symbols">
        <g id="Ultralight-S" transform="translate(0,0)">
            <path d="M290.667,122 L290.667,125.667 L239.333,125.667 L239.333,122 Z" />
            <path d="M290.667,129.333 L290.667,133 L239.333,133 L239.333,129.333 Z" />
            <path d="M279.667,100 C277.642,100 276,101.642 276,103.667 C276,105.692 277.642,107.333 279.667,107.333 C281.692,107.333 283.333,105.692 283.333,103.667 C283.333,102.694 282.947,101.762 282.259,101.074 C281.572,100.386 280.639,100 279.667,100 Z" />
            <path d="M265,111 C260.95,111 257.667,107.717 257.667,103.667 C257.667,99.617 260.95,96.333 265,96.333 C269.05,96.333 272.333,99.617 272.333,103.667 C272.329,107.715 269.048,110.995 265,111 Z M265,100 C262.975,100 261.333,101.642 261.333,103.667 C261.333,105.692 262.975,107.333 265,107.333 C267.025,107.333 268.667,105.692 268.667,103.667 C268.665,101.643 267.024,100.002 265,100 Z" />
            <path d="M250.333,100 C248.308,100 246.667,101.642 246.667,103.667 C246.667,105.692 248.308,107.333 250.333,107.333 C252.358,107.333 254,105.692 254,103.667 C254,102.694 253.614,101.762 252.926,101.074 C252.238,100.386 251.306,100 250.333,100 Z" />
            <path d="M287,118.333 L243,118.333 C240.977,118.328 239.338,116.69 239.333,114.667 L239.333,92.667 C239.338,90.644 240.977,89.005 243,89 L287,89 C289.023,89.005 290.662,90.644 290.667,92.667 L290.667,114.667 C290.664,116.69 289.024,118.33 287,118.333 Z M287,92.667 L243,92.667 L243,114.667 L287,114.667 Z" />
        </g>
        <g id="Regular-S" transform="translate(0,0)">
            <path d="M490.667,122 L490.667,125.667 L439.333,125.667 L439.333,122 Z" />
            <path d="M490.667,129.333 L490.667,133 L439.333,133 L439.333,129.333 Z" />
            <path d="M479.667,100 C477.642,100 476,101.642 476,103.667 C476,105.692 477.642,107.333 479.667,107.333 C481.692,107.333 483.333,105.692 483.333,103.667 C483.333,102.694 482.947,101.762 482.259,101.074 C481.572,100.386 480.639,100 479.667,100 Z" />
            <path d="M465,111 C460.95,111 457.667,107.717 457.667,103.667 C457.667,99.617 460.95,96.333 465,96.333 C469.05,96.333 472.333,99.617 472.333,103.667 C472.329,107.715 469.048,110.995 465,111 Z M465,100 C462.975,100 461.333,101.642 461.333,103.667 C461.333,105.692 462.975,107.333 465,107.333 C467.025,107.333 468.667,105.692 468.667,103.667 C468.665,101.643 467.024,100.002 465,100 Z" />
            <path d="M450.333,100 C448.308,100 446.667,101.642 446.667,103.667 C446.667,105.692 448.308,107.333 450.333,107.333 C452.358,107.333 454,105.692 454,103.667 C454,102.694 453.614,101.762 452.926,101.074 C452.238,100.386 451.306,100 450.333,100 Z" />
            <path d="M487,118.333 L443,118.333 C440.977,118.328 439.338,116.69 439.333,114.667 L439.333,92.667 C439.338,90.644 440.977,89.005 443,89 L487,89 C489.023,89.005 490.662,90.644 490.667,92.667 L490.667,114.667 C490.664,116.69 489.024,118.33 487,118.333 Z M487,92.667 L443,92.667 L443,114.667 L487,114.667 Z" />
        </g>
        <g id="Black-S" transform="translate(0,0)">
            <path d="M690.667,122 L690.667,125.667 L639.333,125.667 L639.333,122 Z" />
            <path d="M690.667,129.333 L690.667,133 L639.333,133 L639.333,129.333 Z" />
            <path d="M679.667,100 C677.642,100 676,101.642 676,103.667 C676,105.692 677.642,107.333 679.667,107.333 C681.692,107.333 683.333,105.692 683.333,103.667 C683.333,102.694 682.947,101.762 682.259,101.074 C681.572,100.386 680.639,100 679.667,100 Z" />
            <path d="M665,111 C660.95,111 657.667,107.717 657.667,103.667 C657.667,99.617 660.95,96.333 665,96.333 C669.05,96.333 672.333,99.617 672.333,103.667 C672.329,107.715 669.048,110.995 665,111 Z M665,100 C662.975,100 661.333,101.642 661.333,103.667 C661.333,105.692 662.975,107.333 665,107.333 C667.025,107.333 668.667,105.692 668.667,103.667 C668.665,101.643 667.024,100.002 665,100 Z" />
            <path d="M650.333,100 C648.308,100 646.667,101.642 646.667,103.667 C646.667,105.692 648.308,107.333 650.333,107.333 C652.358,107.333 654,105.692 654,103.667 C654,102.694 653.614,101.762 652.926,101.074 C652.238,100.386 651.306,100 650.333,100 Z" />
            <path d="M687,118.333 L643,118.333 C640.977,118.328 639.339,116.69 639.333,114.667 L639.333,92.667 C639.339,90.644 640.977,89.005 643,89 L687,89 C689.023,89.005 690.662,90.644 690.667,92.667 L690.667,114.667 C690.664,116.69 689.024,118.33 687,118.333 Z M687,92.667 L643,92.667 L643,114.667 L687,114.667 Z" />
        </g>
    </g>
</svg>