<?xml version="1.0" encoding="UTF-8"?>
<svg height="600" width="800" xmlns="http://www.w3.org/2000/svg" xmlns:xlink="http://www.w3.org/1999/xlink">
    <style>
        .cls-1 { fill: none }
    </style>
    <g id="Notes" font-family="LucidaGrande, 'Lucida Grande', sans-serif" font-size="13">
        <rect fill="white" height="600.0" width="800.0" x="0.0" y="0.0" />
        <g font-size="13">
            <text x="18.0" y="176.0">Small</text>
            <text x="18.0" y="376.0">Medium</text>
            <text x="18.0" y="576.0">Large</text>
        </g>
        <g font-size="9">
            <text x="250.0" y="30.0">Ultralight</text>
            <text x="450.0" y="30.0">Regular</text>
            <text x="650.0" y="30.0">Black</text>
            <text id="template-version" fill="#505050" text-anchor="end" x="785.0" y="575.0">Template v.3.0</text>
            <a href="https://github.com/swhitty/SwiftDraw">
                <text fill="#505050" text-anchor="end" x="785.0" y="590.0">https://github.com/swhitty/SwiftDraw</text>
            </a>
        </g>
    </g>
    <g id="Guides" stroke="rgb(39, 170, 225)" stroke-width="0.5">
        <path id="Capline-S" d="M18,76 l800,0" />
        <path id="H-reference" d="M85,145.755 L87.685,145.755 L113.369,79.287 L114.052,79.287 L114.052,76 L112.148,76 L85,145.755 Z M95.693,121.536 L130.996,121.536 L130.263,119.313 L96.474,119.313 L95.693,121.536 Z M139.15,145.755 L141.787,145.755 L114.638,76 L113.466,76 L113.466,79.287 L139.15,145.755 Z" stroke="none" transform="translate(0,0)" />
        <path id="Baseline-S" d="M18,146 l800,0" />
        <path id="left-margin-Ultralight-S" d="M221,56 l0,110" />
        <path id="right-margin-Ultralight-S" d="M309,56 l0,110" />
        <path id="left-margin-Regular-S" d="M421,56 l0,110" />
        <path id="right-margin-Regular-S" d="M509,56 l0,110" />
        <path id="left-margin-Black-S" d="M621,56 l0,110" />
        <path id="right-margin-Black-S" d="M709,56 l0,110" />
        <path id="Capline-M" d="M18,276 l800,0" />
        <path id="Baseline-M" d="M18,346 l800,0" />
        <path id="Capline-L" d="M18,476 l800,0" />
        <path id="Baseline-L" d="M18,546 l800,0" />
    </g>
    <g id="Symbols">
        <g id="Ultralight-S" transform="translate(0,0)">
            <path d="M269.4,117.6 L269.4,122 L260.6,122 L260.6,117.6 Z" />
            <path d="M243,80.2 L243,137.4 C243,138.567 243.464,139.686 244.289,140.511 C245.114,141.336 246.233,141.8 247.4,141.8 L282.6,141.8 C283.767,141.8 284.886,141.336 285.711,140.511 C286.536,139.686 287,138.567 287,137.4 L287,80.2 Z M282.6,137.4 L247.4,137.4 L247.4,111 L282.6,111 Z M282.6,106.6 L247.4,106.6 L247.4,97.8 L282.6,97.8 Z M247.4,93.4 L247.4,84.6 L282.6,84.6 L282.6,93.4 Z" />
        </g>
        <g id="Regular-S" transform="translate(0,0)">
            <path d="M469.4,117.6 L469.4,122 L460.6,122 L460.6,117.6 Z" />
            <path d="M443,80.2 L443,137.4 C443,138.567 443.464,139.686 444.289,140.511 C445.114,141.336 446.233,141.8 447.4,141.8 L482.6,141.8 C483.767,141.8 484.886,141.336 485.711,140.511 C486.536,139.686 487,138.567 487,137.4 L487,80.2 Z M482.6,137.4 L447.4,137.4 L447.4,111 L482.6,111 Z M482.6,106.6 L447.4,106.6 L447.4,97.8 L482.6,97.8 Z M447.4,93.4 L447.4,84.6 L482.6,84.6 L482.6,93.4 Z" />
        </g>
        <g id="Black-S" transform="translate(0,0)">
            <path d="M669.4,117.6 L669.4,122 L660.6,122 L660.6,117.6 Z" />
            <path d="M643,80.2 L643,137.4 C643,138.567 643.464,139.686 644.289,140.511 C645.114,141.336 646.233,141.8 647.4,141.8 L682.6,141.8 C683.767,141.8 684.886,141.336 685.711,140.511 C686.536,139.686 687,138.567 687,137.4 L687,80.2 Z M682.6,137.4 L647.4,137.4 L647.4,111 L682.6,111 Z M682.6,106.6 L647.4,106.6 L647.4,97.8 L682.6,97.8 Z M647.4,93.4 L647.4,84.6 L682.6,84.6 L682.6,93.4 Z" />
        </g>
    </g>
</svg>