<?xml version="1.0" encoding="UTF-8"?>
<svg height="600" width="800" xmlns="http://www.w3.org/2000/svg" xmlns:xlink="http://www.w3.org/1999/xlink">
    <style>
        
    </style>
    <g id="Notes" font-family="LucidaGrande, 'Lucida Grande', sans-serif" font-size="13">
        <rect fill="white" height="600.0" width="800.0" x="0.0" y="0.0" />
        <g font-size="13">
            <text x="18.0" y="176.0">Small</text>
            <text x="18.0" y="376.0">Medium</text>
            <text x="18.0" y="576.0">Large</text>
        </g>
        <g font-size="9">
            <text x="250.0" y="30.0">Ultralight</text>
            <text x="450.0" y="30.0">Regular</text>
            <text x="650.0" y="30.0">Black</text>
            <text id="template-version" fill="#505050" text-anchor="end" x="785.0" y="575.0">Template v.3.0</text>
            <a href="https://github.com/swhitty/SwiftDraw">
                <text fill="#505050" text-anchor="end" x="785.0" y="590.0">https://github.com/swhitty/SwiftDraw</text>
            </a>
        </g>
    </g>
    <g id="Guides" stroke="rgb(39, 170, 225)" stroke-width="0.5">
        <path id="Capline-S" d="M18,76 l800,0" />
        <path id="H-reference" d="M85,145.755 L87.685,145.755 L113.369,79.287 L114.052,79.287 L114.052,76 L112.148,76 L85,145.755 Z M95.693,121.536 L130.996,121.536 L130.263,119.313 L96.474,119.313 L95.693,121.536 Z M139.15,145.755 L141.787,145.755 L114.638,76 L113.466,76 L113.466,79.287 L139.15,145.755 Z" stroke="none" transform="translate(0,0)" />
        <path id="Baseline-S" d="M18,146 l800,0" />
        <path id="left-margin-Ultralight-S" d="M221,56 l0,110" />
        <path id="right-margin-Ultralight-S" d="M309,56 l0,110" />
        <path id="left-margin-Regular-S" d="M421,56 l0,110" />
        <path id="right-margin-Regular-S" d="M509,56 l0,110" />
        <path id="left-margin-Black-S" d="M621,56 l0,110" />
        <path id="right-margin-Black-S" d="M709,56 l0,110" />
        <path id="Capline-M" d="M18,276 l800,0" />
        <path id="Baseline-M" d="M18,346 l800,0" />
        <path id="Capline-L" d="M18,476 l800,0" />
        <path id="Baseline-L" d="M18,546 l800,0" />
    </g>
    <g id="Symbols">
        <g id="Ultralight-S" transform="translate(0,0)">
            <path d="M273.462,104.231 L273.462,100.846 L266.692,100.846 L266.692,95.769 L263.308,95.769 L263.308,100.846 L259.923,100.846 C258.055,100.848 256.54,102.362 256.538,104.231 L256.538,109.308 C256.54,111.176 258.055,112.69 259.923,112.692 L270.077,112.692 L270.077,117.769 L256.538,117.769 L256.538,121.154 L263.308,121.154 L263.308,126.231 L266.692,126.231 L266.692,121.154 L270.077,121.154 C271.945,121.152 273.459,119.638 273.462,117.769 L273.462,112.692 C273.46,110.824 271.945,109.31 270.077,109.308 L259.923,109.308 L259.923,104.231 Z" />
            <path d="M265,90.692 C276.216,90.692 285.308,99.784 285.308,111 C285.308,122.216 276.216,131.308 265,131.308 C253.784,131.308 244.692,122.216 244.692,111 C244.725,99.798 253.798,90.725 265,90.692 M265,87.308 C255.417,87.308 246.778,93.08 243.111,101.933 C239.444,110.787 241.471,120.977 248.247,127.753 C255.023,134.529 265.213,136.556 274.067,132.889 C282.92,129.222 288.692,120.583 288.692,111 C288.654,97.931 278.069,87.346 265,87.308 Z" />
            <path d="M292.077,83.923 L292.077,138.077 L237.923,138.077 L237.923,83.923 Z" />
        </g>
        <g id="Regular-S" transform="translate(0,0)">
            <path d="M473.462,104.231 L473.462,100.846 L466.692,100.846 L466.692,95.769 L463.308,95.769 L463.308,100.846 L459.923,100.846 C458.055,100.848 456.54,102.362 456.538,104.231 L456.538,109.308 C456.54,111.176 458.055,112.69 459.923,112.692 L470.077,112.692 L470.077,117.769 L456.538,117.769 L456.538,121.154 L463.308,121.154 L463.308,126.231 L466.692,126.231 L466.692,121.154 L470.077,121.154 C471.945,121.152 473.459,119.638 473.462,117.769 L473.462,112.692 C473.46,110.824 471.945,109.31 470.077,109.308 L459.923,109.308 L459.923,104.231 Z" />
            <path d="M465,90.692 C476.216,90.692 485.308,99.784 485.308,111 C485.308,122.216 476.216,131.308 465,131.308 C453.784,131.308 444.692,122.216 444.692,111 C444.725,99.798 453.798,90.725 465,90.692 M465,87.308 C455.417,87.308 446.778,93.08 443.111,101.933 C439.444,110.787 441.471,120.977 448.247,127.753 C455.023,134.529 465.213,136.556 474.067,132.889 C482.92,129.222 488.692,120.583 488.692,111 C488.654,97.931 478.069,87.346 465,87.308 Z" />
            <path d="M492.077,83.923 L492.077,138.077 L437.923,138.077 L437.923,83.923 Z" />
        </g>
        <g id="Black-S" transform="translate(0,0)">
            <path d="M673.462,104.231 L673.462,100.846 L666.692,100.846 L666.692,95.769 L663.308,95.769 L663.308,100.846 L659.923,100.846 C658.055,100.848 656.54,102.362 656.538,104.231 L656.538,109.308 C656.54,111.176 658.055,112.69 659.923,112.692 L670.077,112.692 L670.077,117.769 L656.538,117.769 L656.538,121.154 L663.308,121.154 L663.308,126.231 L666.692,126.231 L666.692,121.154 L670.077,121.154 C671.945,121.152 673.459,119.638 673.462,117.769 L673.462,112.692 C673.46,110.824 671.945,109.31 670.077,109.308 L659.923,109.308 L659.923,104.231 Z" />
            <path d="M665,90.692 C676.216,90.692 685.308,99.784 685.308,111 C685.308,122.216 676.216,131.308 665,131.308 C653.784,131.308 644.692,122.216 644.692,111 C644.725,99.798 653.798,90.725 665,90.692 M665,87.308 C655.417,87.308 646.778,93.08 643.111,101.933 C639.444,110.787 641.471,120.977 648.247,127.753 C655.023,134.529 665.213,136.556 674.067,132.889 C682.92,129.222 688.692,120.583 688.692,111 C688.654,97.931 678.069,87.346 665,87.308 Z" />
            <path d="M692.077,83.923 L692.077,138.077 L637.923,138.077 L637.923,83.923 Z" />
        </g>
    </g>
</svg>