<?xml version="1.0" encoding="UTF-8"?>
<svg height="600" width="800" xmlns="http://www.w3.org/2000/svg" xmlns:xlink="http://www.w3.org/1999/xlink">
    <style>
        
    </style>
    <g id="Notes" font-family="LucidaGrande, 'Lucida Grande', sans-serif" font-size="13">
        <rect fill="white" height="600.0" width="800.0" x="0.0" y="0.0" />
        <g font-size="13">
            <text x="18.0" y="176.0">Small</text>
            <text x="18.0" y="376.0">Medium</text>
            <text x="18.0" y="576.0">Large</text>
        </g>
        <g font-size="9">
            <text x="250.0" y="30.0">Ultralight</text>
            <text x="450.0" y="30.0">Regular</text>
            <text x="650.0" y="30.0">Black</text>
            <text id="template-version" fill="#505050" text-anchor="end" x="785.0" y="575.0">Template v.3.0</text>
            <a href="https://github.com/swhitty/SwiftDraw">
                <text fill="#505050" text-anchor="end" x="785.0" y="590.0">https://github.com/swhitty/SwiftDraw</text>
            </a>
        </g>
    </g>
    <g id="Guides" stroke="rgb(39, 170, 225)" stroke-width="0.5">
        <path id="Capline-S" d="M18,76 l800,0" />
        <path id="H-reference" d="M85,145.755 L87.685,145.755 L113.369,79.287 L114.052,79.287 L114.052,76 L112.148,76 L85,145.755 Z M95.693,121.536 L130.996,121.536 L130.263,119.313 L96.474,119.313 L95.693,121.536 Z M139.15,145.755 L141.787,145.755 L114.638,76 L113.466,76 L113.466,79.287 L139.15,145.755 Z" stroke="none" transform="translate(0,0)" />
        <path id="Baseline-S" d="M18,146 l800,0" />
        <path id="left-margin-Ultralight-S" d="M221,56 l0,110" />
        <path id="right-margin-Ultralight-S" d="M309,56 l0,110" />
        <path id="left-margin-Regular-S" d="M421,56 l0,110" />
        <path id="right-margin-Regular-S" d="M509,56 l0,110" />
        <path id="left-margin-Black-S" d="M621,56 l0,110" />
        <path id="right-margin-Black-S" d="M709,56 l0,110" />
        <path id="Capline-M" d="M18,276 l800,0" />
        <path id="Baseline-M" d="M18,346 l800,0" />
        <path id="Capline-L" d="M18,476 l800,0" />
        <path id="Baseline-L" d="M18,546 l800,0" />
    </g>
    <g id="Symbols">
        <g id="Ultralight-S" transform="translate(0,0)">
            <path d="M284.135,94.258 L288.692,89.701 L286.299,87.308 L281.742,91.865 L279.892,90.015 C279.275,89.367 278.419,89 277.523,89 C276.628,89 275.771,89.367 275.154,90.015 L244.692,120.477 L244.692,131.308 L255.523,131.308 L285.985,100.846 C286.633,100.229 287,99.372 287,98.477 C287,97.581 286.633,96.725 285.985,96.108 Z M254.169,127.923 L248.077,127.923 L248.077,121.831 L277.523,92.385 L283.615,98.477 Z" />
            <path d="M265.992,90.692 L268.385,93.085 L255.547,105.923 L253.154,103.53 Z" />
            <path d="M292.077,83.923 L292.077,138.077 L237.923,138.077 L237.923,83.923 Z" />
        </g>
        <g id="Regular-S" transform="translate(0,0)">
            <path d="M484.135,94.258 L488.692,89.701 L486.299,87.308 L481.742,91.865 L479.892,90.015 C479.275,89.367 478.419,89 477.523,89 C476.628,89 475.771,89.367 475.154,90.015 L444.692,120.477 L444.692,131.308 L455.523,131.308 L485.985,100.846 C486.633,100.229 487,99.372 487,98.477 C487,97.581 486.633,96.725 485.985,96.108 Z M454.169,127.923 L448.077,127.923 L448.077,121.831 L477.523,92.385 L483.615,98.477 Z" />
            <path d="M465.992,90.692 L468.385,93.085 L455.547,105.923 L453.154,103.53 Z" />
            <path d="M492.077,83.923 L492.077,138.077 L437.923,138.077 L437.923,83.923 Z" />
        </g>
        <g id="Black-S" transform="translate(0,0)">
            <path d="M684.135,94.258 L688.692,89.701 L686.299,87.308 L681.742,91.865 L679.892,90.015 C679.275,89.367 678.419,89 677.523,89 C676.628,89 675.771,89.367 675.154,90.015 L644.692,120.477 L644.692,131.308 L655.523,131.308 L685.985,100.846 C686.633,100.229 687,99.372 687,98.477 C687,97.581 686.633,96.725 685.985,96.108 Z M654.169,127.923 L648.077,127.923 L648.077,121.831 L677.523,92.385 L683.615,98.477 Z" />
            <path d="M665.992,90.692 L668.385,93.085 L655.547,105.923 L653.154,103.53 Z" />
            <path d="M692.077,83.923 L692.077,138.077 L637.923,138.077 L637.923,83.923 Z" />
        </g>
    </g>
</svg>