<?xml version="1.0" encoding="UTF-8"?>
<svg height="600" width="800" xmlns="http://www.w3.org/2000/svg" xmlns:xlink="http://www.w3.org/1999/xlink">
    <style>
        .cls-1 { fill: none }
    </style>
    <g id="Notes" font-family="LucidaGrande, 'Lucida Grande', sans-serif" font-size="13">
        <rect fill="white" height="600.0" width="800.0" x="0.0" y="0.0" />
        <g font-size="13">
            <text x="18.0" y="176.0">Small</text>
            <text x="18.0" y="376.0">Medium</text>
            <text x="18.0" y="576.0">Large</text>
        </g>
        <g font-size="9">
            <text x="250.0" y="30.0">Ultralight</text>
            <text x="450.0" y="30.0">Regular</text>
            <text x="650.0" y="30.0">Black</text>
            <text id="template-version" fill="#505050" text-anchor="end" x="785.0" y="575.0">Template v.3.0</text>
            <a href="https://github.com/swhitty/SwiftDraw">
                <text fill="#505050" text-anchor="end" x="785.0" y="590.0">https://github.com/swhitty/SwiftDraw</text>
            </a>
        </g>
    </g>
    <g id="Guides" stroke="rgb(39, 170, 225)" stroke-width="0.5">
        <path id="Capline-S" d="M18,76 l800,0" />
        <path id="H-reference" d="M85,145.755 L87.685,145.755 L113.369,79.287 L114.052,79.287 L114.052,76 L112.148,76 L85,145.755 Z M95.693,121.536 L130.996,121.536 L130.263,119.313 L96.474,119.313 L95.693,121.536 Z M139.15,145.755 L141.787,145.755 L114.638,76 L113.466,76 L113.466,79.287 L139.15,145.755 Z" stroke="none" transform="translate(0,0)" />
        <path id="Baseline-S" d="M18,146 l800,0" />
        <path id="left-margin-Ultralight-S" d="M221,56 l0,110" />
        <path id="right-margin-Ultralight-S" d="M309,56 l0,110" />
        <path id="left-margin-Regular-S" d="M421,56 l0,110" />
        <path id="right-margin-Regular-S" d="M509,56 l0,110" />
        <path id="left-margin-Black-S" d="M621,56 l0,110" />
        <path id="right-margin-Black-S" d="M709,56 l0,110" />
        <path id="Capline-M" d="M18,276 l800,0" />
        <path id="Baseline-M" d="M18,346 l800,0" />
        <path id="Capline-L" d="M18,476 l800,0" />
        <path id="Baseline-L" d="M18,546 l800,0" />
    </g>
    <g id="Symbols">
        <g id="Ultralight-S" transform="translate(0,0)">
            <path d="M274.167,129.333 L243,129.333 C242.028,129.333 241.095,128.947 240.407,128.259 C239.72,127.572 239.333,126.639 239.333,125.667 L239.333,96.333 C239.333,95.361 239.72,94.428 240.407,93.741 C241.095,93.053 242.028,92.667 243,92.667 L274.167,92.667 C275.139,92.667 276.072,93.053 276.759,93.741 C277.447,94.428 277.833,95.361 277.833,96.333 L277.833,103.777 L287.77,96.682 C288.328,96.285 289.06,96.231 289.67,96.544 C290.279,96.856 290.664,97.482 290.667,98.167 L290.667,123.833 C290.664,124.518 290.279,125.144 289.67,125.456 C289.06,125.769 288.328,125.715 287.77,125.318 L277.833,118.223 L277.833,125.667 C277.833,126.639 277.447,127.572 276.759,128.259 C276.072,128.947 275.139,129.333 274.167,129.333 Z M243,96.333 L243,125.667 L274.167,125.667 L274.167,114.667 C274.17,113.982 274.554,113.356 275.164,113.044 C275.773,112.731 276.506,112.785 277.063,113.182 L287,120.277 L287,101.723 L277.063,108.818 C276.506,109.215 275.773,109.269 275.164,108.956 C274.554,108.644 274.17,108.018 274.167,107.333 L274.167,96.333 Z" />
        </g>
        <g id="Regular-S" transform="translate(0,0)">
            <path d="M474.167,129.333 L443,129.333 C442.028,129.333 441.095,128.947 440.407,128.259 C439.72,127.572 439.333,126.639 439.333,125.667 L439.333,96.333 C439.333,95.361 439.72,94.428 440.407,93.741 C441.095,93.053 442.028,92.667 443,92.667 L474.167,92.667 C475.139,92.667 476.072,93.053 476.759,93.741 C477.447,94.428 477.833,95.361 477.833,96.333 L477.833,103.777 L487.77,96.682 C488.328,96.285 489.06,96.231 489.67,96.544 C490.279,96.856 490.664,97.482 490.667,98.167 L490.667,123.833 C490.664,124.518 490.279,125.144 489.67,125.456 C489.06,125.769 488.328,125.715 487.77,125.318 L477.833,118.223 L477.833,125.667 C477.833,126.639 477.447,127.572 476.759,128.259 C476.072,128.947 475.139,129.333 474.167,129.333 Z M443,96.333 L443,125.667 L474.167,125.667 L474.167,114.667 C474.17,113.982 474.554,113.356 475.164,113.044 C475.773,112.731 476.506,112.785 477.063,113.182 L487,120.277 L487,101.723 L477.063,108.818 C476.506,109.215 475.773,109.269 475.164,108.956 C474.554,108.644 474.17,108.018 474.167,107.333 L474.167,96.333 Z" />
        </g>
        <g id="Black-S" transform="translate(0,0)">
            <path d="M674.167,129.333 L643,129.333 C642.028,129.333 641.095,128.947 640.407,128.259 C639.72,127.572 639.333,126.639 639.333,125.667 L639.333,96.333 C639.333,95.361 639.72,94.428 640.407,93.741 C641.095,93.053 642.028,92.667 643,92.667 L674.167,92.667 C675.139,92.667 676.072,93.053 676.759,93.741 C677.447,94.428 677.833,95.361 677.833,96.333 L677.833,103.777 L687.77,96.682 C688.328,96.285 689.06,96.231 689.67,96.544 C690.279,96.856 690.664,97.482 690.667,98.167 L690.667,123.833 C690.664,124.518 690.279,125.144 689.67,125.456 C689.06,125.769 688.328,125.715 687.77,125.318 L677.833,118.223 L677.833,125.667 C677.833,126.639 677.447,127.572 676.759,128.259 C676.072,128.947 675.139,129.333 674.167,129.333 Z M643,96.333 L643,125.667 L674.167,125.667 L674.167,114.667 C674.17,113.982 674.554,113.356 675.164,113.044 C675.773,112.731 676.506,112.785 677.063,113.182 L687,120.277 L687,101.723 L677.063,108.818 C676.506,109.215 675.773,109.269 675.164,108.956 C674.554,108.644 674.17,108.018 674.167,107.333 L674.167,96.333 Z" />
        </g>
    </g>
</svg>