<?xml version="1.0" encoding="UTF-8"?>
<svg height="600" width="800" xmlns="http://www.w3.org/2000/svg" xmlns:xlink="http://www.w3.org/1999/xlink">
    <style>
        .cls-1 { fill: none }
    </style>
    <g id="Notes" font-family="LucidaGrande, 'Lucida Grande', sans-serif" font-size="13">
        <rect fill="white" height="600.0" width="800.0" x="0.0" y="0.0" />
        <g font-size="13">
            <text x="18.0" y="176.0">Small</text>
            <text x="18.0" y="376.0">Medium</text>
            <text x="18.0" y="576.0">Large</text>
        </g>
        <g font-size="9">
            <text x="250.0" y="30.0">Ultralight</text>
            <text x="450.0" y="30.0">Regular</text>
            <text x="650.0" y="30.0">Black</text>
            <text id="template-version" fill="#505050" text-anchor="end" x="785.0" y="575.0">Template v.3.0</text>
            <a href="https://github.com/swhitty/SwiftDraw">
                <text fill="#505050" text-anchor="end" x="785.0" y="590.0">https://github.com/swhitty/SwiftDraw</text>
            </a>
        </g>
    </g>
    <g id="Guides" stroke="rgb(39, 170, 225)" stroke-width="0.5">
        <path id="Capline-S" d="M18,76 l800,0" />
        <path id="H-reference" d="M85,145.755 L87.685,145.755 L113.369,79.287 L114.052,79.287 L114.052,76 L112.148,76 L85,145.755 Z M95.693,121.536 L130.996,121.536 L130.263,119.313 L96.474,119.313 L95.693,121.536 Z M139.15,145.755 L141.787,145.755 L114.638,76 L113.466,76 L113.466,79.287 L139.15,145.755 Z" stroke="none" transform="translate(0,0)" />
        <path id="Baseline-S" d="M18,146 l800,0" />
        <path id="left-margin-Ultralight-S" d="M221,56 l0,110" />
        <path id="right-margin-Ultralight-S" d="M309,56 l0,110" />
        <path id="left-margin-Regular-S" d="M421,56 l0,110" />
        <path id="right-margin-Regular-S" d="M509,56 l0,110" />
        <path id="left-margin-Black-S" d="M621,56 l0,110" />
        <path id="right-margin-Black-S" d="M709,56 l0,110" />
        <path id="Capline-M" d="M18,276 l800,0" />
        <path id="Baseline-M" d="M18,346 l800,0" />
        <path id="Capline-L" d="M18,476 l800,0" />
        <path id="Baseline-L" d="M18,546 l800,0" />
    </g>
    <g id="Symbols">
        <g id="Ultralight-S" transform="translate(0,0)">
            <path d="M288.42,97.58 L278.42,87.58 C278.043,87.206 277.532,86.997 277,87 L245,87 C243.939,87 242.922,87.421 242.172,88.172 C241.421,88.922 241,89.939 241,91 L241,131 C241,132.061 241.421,133.078 242.172,133.828 C242.922,134.579 243.939,135 245,135 L285,135 C286.061,135 287.078,134.579 287.828,133.828 C288.579,133.078 289,132.061 289,131 L289,99 C289.003,98.468 288.794,97.957 288.42,97.58 Z M257,91 L273,91 L273,99 L257,99 Z M273,131 L257,131 L257,115 L273,115 Z M277,131 L277,115 C277,113.939 276.579,112.922 275.828,112.172 C275.078,111.421 274.061,111 273,111 L257,111 C255.939,111 254.922,111.421 254.172,112.172 C253.421,112.922 253,113.939 253,115 L253,131 L245,131 L245,91 L253,91 L253,99 C253,100.061 253.421,101.078 254.172,101.828 C254.922,102.579 255.939,103 257,103 L273,103 C274.061,103 275.078,102.579 275.828,101.828 C276.579,101.078 277,100.061 277,99 L277,91.82 L285,99.82 L285,131 Z" />
        </g>
        <g id="Regular-S" transform="translate(0,0)">
            <path d="M488.42,97.58 L478.42,87.58 C478.043,87.206 477.532,86.997 477,87 L445,87 C443.939,87 442.922,87.421 442.172,88.172 C441.421,88.922 441,89.939 441,91 L441,131 C441,132.061 441.421,133.078 442.172,133.828 C442.922,134.579 443.939,135 445,135 L485,135 C486.061,135 487.078,134.579 487.828,133.828 C488.579,133.078 489,132.061 489,131 L489,99 C489.003,98.468 488.794,97.957 488.42,97.58 Z M457,91 L473,91 L473,99 L457,99 Z M473,131 L457,131 L457,115 L473,115 Z M477,131 L477,115 C477,113.939 476.579,112.922 475.828,112.172 C475.078,111.421 474.061,111 473,111 L457,111 C455.939,111 454.922,111.421 454.172,112.172 C453.421,112.922 453,113.939 453,115 L453,131 L445,131 L445,91 L453,91 L453,99 C453,100.061 453.421,101.078 454.172,101.828 C454.922,102.579 455.939,103 457,103 L473,103 C474.061,103 475.078,102.579 475.828,101.828 C476.579,101.078 477,100.061 477,99 L477,91.82 L485,99.82 L485,131 Z" />
        </g>
        <g id="Black-S" transform="translate(0,0)">
            <path d="M688.42,97.58 L678.42,87.58 C678.043,87.206 677.532,86.997 677,87 L645,87 C643.939,87 642.922,87.421 642.172,88.172 C641.421,88.922 641,89.939 641,91 L641,131 C641,132.061 641.421,133.078 642.172,133.828 C642.922,134.579 643.939,135 645,135 L685,135 C686.061,135 687.078,134.579 687.828,133.828 C688.579,133.078 689,132.061 689,131 L689,99 C689.003,98.468 688.794,97.957 688.42,97.58 Z M657,91 L673,91 L673,99 L657,99 Z M673,131 L657,131 L657,115 L673,115 Z M677,131 L677,115 C677,113.939 676.579,112.922 675.828,112.172 C675.078,111.421 674.061,111 673,111 L657,111 C655.939,111 654.922,111.421 654.172,112.172 C653.421,112.922 653,113.939 653,115 L653,131 L645,131 L645,91 L653,91 L653,99 C653,100.061 653.421,101.078 654.172,101.828 C654.922,102.579 655.939,103 657,103 L673,103 C674.061,103 675.078,102.579 675.828,101.828 C676.579,101.078 677,100.061 677,99 L677,91.82 L685,99.82 L685,131 Z" />
        </g>
    </g>
</svg>