<?xml version="1.0" encoding="UTF-8"?>
<svg height="600" width="800" xmlns="http://www.w3.org/2000/svg" xmlns:xlink="http://www.w3.org/1999/xlink">
    <style>
        
    </style>
    <g id="Notes" font-family="LucidaGrande, 'Lucida Grande', sans-serif" font-size="13">
        <rect fill="white" height="600.0" width="800.0" x="0.0" y="0.0" />
        <g font-size="13">
            <text x="18.0" y="176.0">Small</text>
            <text x="18.0" y="376.0">Medium</text>
            <text x="18.0" y="576.0">Large</text>
        </g>
        <g font-size="9">
            <text x="250.0" y="30.0">Ultralight</text>
            <text x="450.0" y="30.0">Regular</text>
            <text x="650.0" y="30.0">Black</text>
            <text id="template-version" fill="#505050" text-anchor="end" x="785.0" y="575.0">Template v.3.0</text>
            <a href="https://github.com/swhitty/SwiftDraw">
                <text fill="#505050" text-anchor="end" x="785.0" y="590.0">https://github.com/swhitty/SwiftDraw</text>
            </a>
        </g>
    </g>
    <g id="Guides" stroke="rgb(39, 170, 225)" stroke-width="0.5">
        <path id="Capline-S" d="M18,76 l800,0" />
        <path id="H-reference" d="M85,145.755 L87.685,145.755 L113.369,79.287 L114.052,79.287 L114.052,76 L112.148,76 L85,145.755 Z M95.693,121.536 L130.996,121.536 L130.263,119.313 L96.474,119.313 L95.693,121.536 Z M139.15,145.755 L141.787,145.755 L114.638,76 L113.466,76 L113.466,79.287 L139.15,145.755 Z" stroke="none" transform="translate(0,0)" />
        <path id="Baseline-S" d="M18,146 l800,0" />
        <path id="left-margin-Ultralight-S" d="M221,56 l0,110" />
        <path id="right-margin-Ultralight-S" d="M309,56 l0,110" />
        <path id="left-margin-Regular-S" d="M421,56 l0,110" />
        <path id="right-margin-Regular-S" d="M509,56 l0,110" />
        <path id="left-margin-Black-S" d="M621,56 l0,110" />
        <path id="right-margin-Black-S" d="M709,56 l0,110" />
        <path id="Capline-M" d="M18,276 l800,0" />
        <path id="Baseline-M" d="M18,346 l800,0" />
        <path id="Capline-L" d="M18,476 l800,0" />
        <path id="Baseline-L" d="M18,546 l800,0" />
    </g>
    <g id="Symbols">
        <g id="Ultralight-S" transform="translate(0,0)">
            <path d="M288.692,89.701 L286.299,87.308 L263.804,109.804 C263.162,110.468 263.171,111.523 263.824,112.176 C264.477,112.829 265.532,112.838 266.196,112.196 L273.27,105.124 C275.978,108.943 275.721,114.118 272.65,117.65 C269.579,121.182 264.489,122.155 260.332,120.005 C256.174,117.854 254.027,113.138 255.135,108.591 C256.243,104.043 260.319,100.843 265,100.846 L265,97.462 C258.69,97.453 253.208,101.799 251.777,107.946 C250.347,114.092 253.346,120.412 259.012,123.191 C264.678,125.969 271.511,124.471 275.495,119.577 C279.479,114.684 279.56,107.688 275.689,102.704 L280.507,97.886 C283.622,101.544 285.326,106.196 285.308,111 C285.308,122.216 276.216,131.308 265,131.308 C253.784,131.308 244.692,122.216 244.692,111 C244.692,99.784 253.784,90.692 265,90.692 L265,87.308 C251.915,87.308 241.308,97.915 241.308,111 C241.308,124.085 251.915,134.692 265,134.692 C278.085,134.692 288.692,124.085 288.692,111 C288.711,105.298 286.652,99.785 282.9,95.492 Z" />
            <path d="M292.077,83.923 L292.077,138.077 L237.923,138.077 L237.923,83.923 Z" />
        </g>
        <g id="Regular-S" transform="translate(0,0)">
            <path d="M488.692,89.701 L486.299,87.308 L463.804,109.804 C463.162,110.468 463.171,111.523 463.824,112.176 C464.477,112.829 465.532,112.838 466.196,112.196 L473.27,105.124 C475.978,108.943 475.721,114.118 472.65,117.65 C469.579,121.182 464.489,122.155 460.332,120.005 C456.174,117.854 454.027,113.138 455.135,108.591 C456.243,104.043 460.319,100.843 465,100.846 L465,97.462 C458.69,97.453 453.208,101.799 451.777,107.946 C450.347,114.092 453.346,120.412 459.012,123.191 C464.678,125.969 471.511,124.471 475.495,119.577 C479.479,114.684 479.56,107.688 475.689,102.704 L480.507,97.886 C483.622,101.544 485.326,106.196 485.308,111 C485.308,122.216 476.216,131.308 465,131.308 C453.784,131.308 444.692,122.216 444.692,111 C444.692,99.784 453.784,90.692 465,90.692 L465,87.308 C451.915,87.308 441.308,97.915 441.308,111 C441.308,124.085 451.915,134.692 465,134.692 C478.085,134.692 488.692,124.085 488.692,111 C488.711,105.298 486.652,99.785 482.9,95.492 Z" />
            <path d="M492.077,83.923 L492.077,138.077 L437.923,138.077 L437.923,83.923 Z" />
        </g>
        <g id="Black-S" transform="translate(0,0)">
            <path d="M688.692,89.701 L686.299,87.308 L663.804,109.804 C663.162,110.468 663.171,111.523 663.824,112.176 C664.477,112.829 665.532,112.838 666.196,112.196 L673.27,105.124 C675.978,108.943 675.722,114.118 672.65,117.65 C669.579,121.182 664.489,122.155 660.332,120.005 C656.174,117.854 654.027,113.138 655.135,108.591 C656.243,104.043 660.319,100.843 665,100.846 L665,97.462 C658.69,97.453 653.208,101.799 651.777,107.946 C650.347,114.092 653.346,120.412 659.012,123.191 C664.678,125.969 671.511,124.471 675.495,119.577 C679.479,114.684 679.56,107.688 675.689,102.704 L680.507,97.886 C683.622,101.544 685.326,106.196 685.308,111 C685.308,122.216 676.216,131.308 665,131.308 C653.784,131.308 644.692,122.216 644.692,111 C644.692,99.784 653.784,90.692 665,90.692 L665,87.308 C651.915,87.308 641.308,97.915 641.308,111 C641.308,124.085 651.915,134.692 665,134.692 C678.085,134.692 688.692,124.085 688.692,111 C688.711,105.298 686.652,99.785 682.9,95.492 Z" />
            <path d="M692.077,83.923 L692.077,138.077 L637.923,138.077 L637.923,83.923 Z" />
        </g>
    </g>
</svg>