<?xml version="1.0" encoding="UTF-8"?>
<svg height="600" width="800" xmlns="http://www.w3.org/2000/svg" xmlns:xlink="http://www.w3.org/1999/xlink">
    <style>
        .cls-1 { fill: none }
    </style>
    <g id="Notes" font-family="LucidaGrande, 'Lucida Grande', sans-serif" font-size="13">
        <rect fill="white" height="600.0" width="800.0" x="0.0" y="0.0" />
        <g font-size="13">
            <text x="18.0" y="176.0">Small</text>
            <text x="18.0" y="376.0">Medium</text>
            <text x="18.0" y="576.0">Large</text>
        </g>
        <g font-size="9">
            <text x="250.0" y="30.0">Ultralight</text>
            <text x="450.0" y="30.0">Regular</text>
            <text x="650.0" y="30.0">Black</text>
            <text id="template-version" fill="#505050" text-anchor="end" x="785.0" y="575.0">Template v.3.0</text>
            <a href="https://github.com/swhitty/SwiftDraw">
                <text fill="#505050" text-anchor="end" x="785.0" y="590.0">https://github.com/swhitty/SwiftDraw</text>
            </a>
        </g>
    </g>
    <g id="Guides" stroke="rgb(39, 170, 225)" stroke-width="0.5">
        <path id="Capline-S" d="M18,76 l800,0" />
        <path id="H-reference" d="M85,145.755 L87.685,145.755 L113.369,79.287 L114.052,79.287 L114.052,76 L112.148,76 L85,145.755 Z M95.693,121.536 L130.996,121.536 L130.263,119.313 L96.474,119.313 L95.693,121.536 Z M139.15,145.755 L141.787,145.755 L114.638,76 L113.466,76 L113.466,79.287 L139.15,145.755 Z" stroke="none" transform="translate(0,0)" />
        <path id="Baseline-S" d="M18,146 l800,0" />
        <path id="left-margin-Ultralight-S" d="M221,56 l0,110" />
        <path id="right-margin-Ultralight-S" d="M309,56 l0,110" />
        <path id="left-margin-Regular-S" d="M421,56 l0,110" />
        <path id="right-margin-Regular-S" d="M509,56 l0,110" />
        <path id="left-margin-Black-S" d="M621,56 l0,110" />
        <path id="right-margin-Black-S" d="M709,56 l0,110" />
        <path id="Capline-M" d="M18,276 l800,0" />
        <path id="Baseline-M" d="M18,346 l800,0" />
        <path id="Capline-L" d="M18,476 l800,0" />
        <path id="Baseline-L" d="M18,546 l800,0" />
    </g>
    <g id="Symbols">
        <g id="Ultralight-S" transform="translate(0,0)">
            <path d="M271,107 C274.314,107 277,104.314 277,101 C277,97.686 274.314,95 271,95 C267.686,95 265,97.686 265,101 C265,102.591 265.632,104.117 266.757,105.243 C267.883,106.368 269.409,107 271,107 Z M271,99 C272.105,99 273,99.895 273,101 C273,102.105 272.105,103 271,103 C269.895,103 269,102.105 269,101 C269,100.47 269.211,99.961 269.586,99.586 C269.961,99.211 270.47,99 271,99 Z" />
            <path d="M285,87 L245,87 C243.939,87 242.922,87.421 242.172,88.172 C241.421,88.922 241,89.939 241,91 L241,131 C241,132.061 241.421,133.078 242.172,133.828 C242.922,134.579 243.939,135 245,135 L285,135 C286.061,135 287.078,134.579 287.828,133.828 C288.579,133.078 289,132.061 289,131 L289,91 C289,89.939 288.579,88.922 287.828,88.172 C287.078,87.421 286.061,87 285,87 Z M285,131 L245,131 L245,119 L255,109 L266.18,120.18 C267.74,121.731 270.26,121.731 271.82,120.18 L275,117 L285,127 Z M285,121.34 L277.82,114.16 C276.26,112.609 273.74,112.609 272.18,114.16 L269,117.34 L257.82,106.16 C256.26,104.609 253.74,104.609 252.18,106.16 L245,113.34 L245,91 L285,91 Z" />
        </g>
        <g id="Regular-S" transform="translate(0,0)">
            <path d="M471,107 C474.314,107 477,104.314 477,101 C477,97.686 474.314,95 471,95 C467.686,95 465,97.686 465,101 C465,102.591 465.632,104.117 466.757,105.243 C467.883,106.368 469.409,107 471,107 Z M471,99 C472.105,99 473,99.895 473,101 C473,102.105 472.105,103 471,103 C469.895,103 469,102.105 469,101 C469,100.47 469.211,99.961 469.586,99.586 C469.961,99.211 470.47,99 471,99 Z" />
            <path d="M485,87 L445,87 C443.939,87 442.922,87.421 442.172,88.172 C441.421,88.922 441,89.939 441,91 L441,131 C441,132.061 441.421,133.078 442.172,133.828 C442.922,134.579 443.939,135 445,135 L485,135 C486.061,135 487.078,134.579 487.828,133.828 C488.579,133.078 489,132.061 489,131 L489,91 C489,89.939 488.579,88.922 487.828,88.172 C487.078,87.421 486.061,87 485,87 Z M485,131 L445,131 L445,119 L455,109 L466.18,120.18 C467.74,121.731 470.26,121.731 471.82,120.18 L475,117 L485,127 Z M485,121.34 L477.82,114.16 C476.26,112.609 473.74,112.609 472.18,114.16 L469,117.34 L457.82,106.16 C456.26,104.609 453.74,104.609 452.18,106.16 L445,113.34 L445,91 L485,91 Z" />
        </g>
        <g id="Black-S" transform="translate(0,0)">
            <path d="M671,107 C674.314,107 677,104.314 677,101 C677,97.686 674.314,95 671,95 C667.686,95 665,97.686 665,101 C665,102.591 665.632,104.117 666.757,105.243 C667.883,106.368 669.409,107 671,107 Z M671,99 C672.105,99 673,99.895 673,101 C673,102.105 672.105,103 671,103 C669.895,103 669,102.105 669,101 C669,100.47 669.211,99.961 669.586,99.586 C669.961,99.211 670.47,99 671,99 Z" />
            <path d="M685,87 L645,87 C643.939,87 642.922,87.421 642.172,88.172 C641.421,88.922 641,89.939 641,91 L641,131 C641,132.061 641.421,133.078 642.172,133.828 C642.922,134.579 643.939,135 645,135 L685,135 C686.061,135 687.078,134.579 687.828,133.828 C688.579,133.078 689,132.061 689,131 L689,91 C689,89.939 688.579,88.922 687.828,88.172 C687.078,87.421 686.061,87 685,87 Z M685,131 L645,131 L645,119 L655,109 L666.18,120.18 C667.74,121.731 670.26,121.731 671.82,120.18 L675,117 L685,127 Z M685,121.34 L677.82,114.16 C676.26,112.609 673.74,112.609 672.18,114.16 L669,117.34 L657.82,106.16 C656.26,104.609 653.74,104.609 652.18,106.16 L645,113.34 L645,91 L685,91 Z" />
        </g>
    </g>
</svg>