<?xml version="1.0" encoding="UTF-8"?>
<svg height="600" width="800" xmlns="http://www.w3.org/2000/svg" xmlns:xlink="http://www.w3.org/1999/xlink">
    <style>
        .cls-1 { fill: none }
    </style>
    <g id="Notes" font-family="LucidaGrande, 'Lucida Grande', sans-serif" font-size="13">
        <rect fill="white" height="600.0" width="800.0" x="0.0" y="0.0" />
        <g font-size="13">
            <text x="18.0" y="176.0">Small</text>
            <text x="18.0" y="376.0">Medium</text>
            <text x="18.0" y="576.0">Large</text>
        </g>
        <g font-size="9">
            <text x="250.0" y="30.0">Ultralight</text>
            <text x="450.0" y="30.0">Regular</text>
            <text x="650.0" y="30.0">Black</text>
            <text id="template-version" fill="#505050" text-anchor="end" x="785.0" y="575.0">Template v.3.0</text>
            <a href="https://github.com/swhitty/SwiftDraw">
                <text fill="#505050" text-anchor="end" x="785.0" y="590.0">https://github.com/swhitty/SwiftDraw</text>
            </a>
        </g>
    </g>
    <g id="Guides" stroke="rgb(39, 170, 225)" stroke-width="0.5">
        <path id="Capline-S" d="M18,76 l800,0" />
        <path id="H-reference" d="M85,145.755 L87.685,145.755 L113.369,79.287 L114.052,79.287 L114.052,76 L112.148,76 L85,145.755 Z M95.693,121.536 L130.996,121.536 L130.263,119.313 L96.474,119.313 L95.693,121.536 Z M139.15,145.755 L141.787,145.755 L114.638,76 L113.466,76 L113.466,79.287 L139.15,145.755 Z" stroke="none" transform="translate(0,0)" />
        <path id="Baseline-S" d="M18,146 l800,0" />
        <path id="left-margin-Ultralight-S" d="M221,56 l0,110" />
        <path id="right-margin-Ultralight-S" d="M309,56 l0,110" />
        <path id="left-margin-Regular-S" d="M421,56 l0,110" />
        <path id="right-margin-Regular-S" d="M509,56 l0,110" />
        <path id="left-margin-Black-S" d="M621,56 l0,110" />
        <path id="right-margin-Black-S" d="M709,56 l0,110" />
        <path id="Capline-M" d="M18,276 l800,0" />
        <path id="Baseline-M" d="M18,346 l800,0" />
        <path id="Capline-L" d="M18,476 l800,0" />
        <path id="Baseline-L" d="M18,546 l800,0" />
    </g>
    <g id="Symbols">
        <g id="Ultralight-S" transform="translate(0,0)">
            <path d="M281.5,101.833 L278.915,104.418 L283.645,109.167 L266.833,109.167 L266.833,92.355 L271.582,97.085 L274.167,94.5 L265,85.333 L255.833,94.5 L258.418,97.085 L263.167,92.355 L263.167,109.167 L246.355,109.167 L251.085,104.418 L248.5,101.833 L239.333,111 L248.5,120.167 L251.085,117.582 L246.355,112.833 L263.167,112.833 L263.167,129.645 L258.418,124.915 L255.833,127.5 L265,136.667 L274.167,127.5 L271.582,124.915 L266.833,129.645 L266.833,112.833 L283.645,112.833 L278.915,117.582 L281.5,120.167 L290.667,111 L281.5,101.833 Z" />
        </g>
        <g id="Regular-S" transform="translate(0,0)">
            <path d="M481.5,101.833 L478.915,104.418 L483.645,109.167 L466.833,109.167 L466.833,92.355 L471.582,97.085 L474.167,94.5 L465,85.333 L455.833,94.5 L458.418,97.085 L463.167,92.355 L463.167,109.167 L446.355,109.167 L451.085,104.418 L448.5,101.833 L439.333,111 L448.5,120.167 L451.085,117.582 L446.355,112.833 L463.167,112.833 L463.167,129.645 L458.418,124.915 L455.833,127.5 L465,136.667 L474.167,127.5 L471.582,124.915 L466.833,129.645 L466.833,112.833 L483.645,112.833 L478.915,117.582 L481.5,120.167 L490.667,111 L481.5,101.833 Z" />
        </g>
        <g id="Black-S" transform="translate(0,0)">
            <path d="M681.5,101.833 L678.915,104.418 L683.645,109.167 L666.833,109.167 L666.833,92.355 L671.582,97.085 L674.167,94.5 L665,85.333 L655.833,94.5 L658.418,97.085 L663.167,92.355 L663.167,109.167 L646.355,109.167 L651.085,104.418 L648.5,101.833 L639.333,111 L648.5,120.167 L651.085,117.582 L646.355,112.833 L663.167,112.833 L663.167,129.645 L658.418,124.915 L655.833,127.5 L665,136.667 L674.167,127.5 L671.582,124.915 L666.833,129.645 L666.833,112.833 L683.645,112.833 L678.915,117.582 L681.5,120.167 L690.667,111 L681.5,101.833 Z" />
        </g>
    </g>
</svg>