<?xml version="1.0" encoding="UTF-8"?>
<svg height="600" width="800" xmlns="http://www.w3.org/2000/svg" xmlns:xlink="http://www.w3.org/1999/xlink">
    <style>
        
    </style>
    <g id="Notes" font-family="LucidaGrande, 'Lucida Grande', sans-serif" font-size="13">
        <rect fill="white" height="600.0" width="800.0" x="0.0" y="0.0" />
        <g font-size="13">
            <text x="18.0" y="176.0">Small</text>
            <text x="18.0" y="376.0">Medium</text>
            <text x="18.0" y="576.0">Large</text>
        </g>
        <g font-size="9">
            <text x="250.0" y="30.0">Ultralight</text>
            <text x="450.0" y="30.0">Regular</text>
            <text x="650.0" y="30.0">Black</text>
            <text id="template-version" fill="#505050" text-anchor="end" x="785.0" y="575.0">Template v.3.0</text>
            <a href="https://github.com/swhitty/SwiftDraw">
                <text fill="#505050" text-anchor="end" x="785.0" y="590.0">https://github.com/swhitty/SwiftDraw</text>
            </a>
        </g>
    </g>
    <g id="Guides" stroke="rgb(39, 170, 225)" stroke-width="0.5">
        <path id="Capline-S" d="M18,76 l800,0" />
        <path id="H-reference" d="M85,145.755 L87.685,145.755 L113.369,79.287 L114.052,79.287 L114.052,76 L112.148,76 L85,145.755 Z M95.693,121.536 L130.996,121.536 L130.263,119.313 L96.474,119.313 L95.693,121.536 Z M139.15,145.755 L141.787,145.755 L114.638,76 L113.466,76 L113.466,79.287 L139.15,145.755 Z" stroke="none" transform="translate(0,0)" />
        <path id="Baseline-S" d="M18,146 l800,0" />
        <path id="left-margin-Ultralight-S" d="M221,56 l0,110" />
        <path id="right-margin-Ultralight-S" d="M309,56 l0,110" />
        <path id="left-margin-Regular-S" d="M421,56 l0,110" />
        <path id="right-margin-Regular-S" d="M509,56 l0,110" />
        <path id="left-margin-Black-S" d="M621,56 l0,110" />
        <path id="right-margin-Black-S" d="M709,56 l0,110" />
        <path id="Capline-M" d="M18,276 l800,0" />
        <path id="Baseline-M" d="M18,346 l800,0" />
        <path id="Capline-L" d="M18,476 l800,0" />
        <path id="Baseline-L" d="M18,546 l800,0" />
    </g>
    <g id="Symbols">
        <g id="Ultralight-S" transform="translate(0,0)">
            <path d="M288.692,134.692 L285.308,134.692 L285.308,126.231 C285.303,121.56 281.518,117.775 276.847,117.769 L276.847,114.385 C283.386,114.392 288.685,119.691 288.693,126.231 Z" />
            <path d="M275.154,134.692 L271.769,134.692 L271.769,126.231 C271.764,121.56 267.979,117.775 263.308,117.769 L253.154,117.769 C248.483,117.775 244.698,121.56 244.692,126.231 L244.692,134.692 L241.308,134.692 L241.308,126.231 C241.315,119.692 246.614,114.393 253.153,114.385 L263.307,114.385 C269.846,114.392 275.145,119.691 275.153,126.231 Z" />
            <path d="M271.769,87.308 L271.769,90.692 C276.442,90.692 280.231,94.481 280.231,99.154 C280.231,103.827 276.442,107.615 271.769,107.615 L271.769,111 C278.312,111 283.615,105.696 283.615,99.154 C283.615,92.611 278.312,87.308 271.769,87.308 Z" />
            <path d="M258.231,90.692 C262.904,90.692 266.692,94.481 266.692,99.154 C266.692,103.827 262.904,107.615 258.231,107.615 C253.558,107.615 249.769,103.827 249.769,99.154 C249.769,96.91 250.661,94.757 252.248,93.171 C253.834,91.584 255.987,90.692 258.231,90.692 M258.231,87.308 C251.688,87.308 246.385,92.611 246.385,99.154 C246.385,105.696 251.688,111 258.231,111 C264.773,111 270.077,105.696 270.077,99.154 C270.077,96.012 268.829,92.999 266.607,90.777 C264.386,88.556 261.373,87.308 258.231,87.308 Z" />
            <path d="M292.077,83.923 L292.077,138.077 L237.923,138.077 L237.923,83.923 Z" />
        </g>
        <g id="Regular-S" transform="translate(0,0)">
            <path d="M488.692,134.692 L485.308,134.692 L485.308,126.231 C485.303,121.56 481.518,117.775 476.847,117.769 L476.847,114.385 C483.386,114.392 488.685,119.691 488.693,126.231 Z" />
            <path d="M475.154,134.692 L471.769,134.692 L471.769,126.231 C471.764,121.56 467.979,117.775 463.308,117.769 L453.154,117.769 C448.483,117.775 444.698,121.56 444.692,126.231 L444.692,134.692 L441.308,134.692 L441.308,126.231 C441.315,119.692 446.614,114.393 453.153,114.385 L463.307,114.385 C469.846,114.392 475.145,119.691 475.153,126.231 Z" />
            <path d="M471.769,87.308 L471.769,90.692 C476.442,90.692 480.231,94.481 480.231,99.154 C480.231,103.827 476.442,107.615 471.769,107.615 L471.769,111 C478.312,111 483.615,105.696 483.615,99.154 C483.615,92.611 478.312,87.308 471.769,87.308 Z" />
            <path d="M458.231,90.692 C462.904,90.692 466.692,94.481 466.692,99.154 C466.692,103.827 462.904,107.615 458.231,107.615 C453.558,107.615 449.769,103.827 449.769,99.154 C449.769,96.91 450.661,94.757 452.248,93.171 C453.834,91.584 455.987,90.692 458.231,90.692 M458.231,87.308 C451.688,87.308 446.385,92.611 446.385,99.154 C446.385,105.696 451.688,111 458.231,111 C464.773,111 470.077,105.696 470.077,99.154 C470.077,96.012 468.829,92.999 466.607,90.777 C464.386,88.556 461.373,87.308 458.231,87.308 Z" />
            <path d="M492.077,83.923 L492.077,138.077 L437.923,138.077 L437.923,83.923 Z" />
        </g>
        <g id="Black-S" transform="translate(0,0)">
            <path d="M688.692,134.692 L685.308,134.692 L685.308,126.231 C685.303,121.56 681.518,117.775 676.847,117.769 L676.847,114.385 C683.386,114.392 688.685,119.691 688.693,126.231 Z" />
            <path d="M675.154,134.692 L671.769,134.692 L671.769,126.231 C671.764,121.56 667.979,117.775 663.308,117.769 L653.154,117.769 C648.483,117.775 644.698,121.56 644.692,126.231 L644.692,134.692 L641.308,134.692 L641.308,126.231 C641.315,119.692 646.614,114.393 653.153,114.385 L663.307,114.385 C669.846,114.392 675.145,119.691 675.153,126.231 Z" />
            <path d="M671.769,87.308 L671.769,90.692 C676.442,90.692 680.231,94.481 680.231,99.154 C680.231,103.827 676.442,107.615 671.769,107.615 L671.769,111 C678.312,111 683.615,105.696 683.615,99.154 C683.615,92.611 678.312,87.308 671.769,87.308 Z" />
            <path d="M658.231,90.692 C662.904,90.692 666.692,94.481 666.692,99.154 C666.692,103.827 662.904,107.615 658.231,107.615 C653.558,107.615 649.769,103.827 649.769,99.154 C649.769,96.91 650.661,94.757 652.248,93.171 C653.834,91.584 655.987,90.692 658.231,90.692 M658.231,87.308 C651.688,87.308 646.385,92.611 646.385,99.154 C646.385,105.696 651.688,111 658.231,111 C664.773,111 670.077,105.696 670.077,99.154 C670.077,96.012 668.829,92.999 666.607,90.777 C664.386,88.556 661.373,87.308 658.231,87.308 Z" />
            <path d="M692.077,83.923 L692.077,138.077 L637.923,138.077 L637.923,83.923 Z" />
        </g>
    </g>
</svg>