<?xml version="1.0" encoding="UTF-8"?>
<svg height="600" width="800" xmlns="http://www.w3.org/2000/svg" xmlns:xlink="http://www.w3.org/1999/xlink">
    <style>
        
    </style>
    <g id="Notes" font-family="LucidaGrande, 'Lucida Grande', sans-serif" font-size="13">
        <rect fill="white" height="600.0" width="800.0" x="0.0" y="0.0" />
        <g font-size="13">
            <text x="18.0" y="176.0">Small</text>
            <text x="18.0" y="376.0">Medium</text>
            <text x="18.0" y="576.0">Large</text>
        </g>
        <g font-size="9">
            <text x="250.0" y="30.0">Ultralight</text>
            <text x="450.0" y="30.0">Regular</text>
            <text x="650.0" y="30.0">Black</text>
            <text id="template-version" fill="#505050" text-anchor="end" x="785.0" y="575.0">Template v.3.0</text>
            <a href="https://github.com/swhitty/SwiftDraw">
                <text fill="#505050" text-anchor="end" x="785.0" y="590.0">https://github.com/swhitty/SwiftDraw</text>
            </a>
        </g>
    </g>
    <g id="Guides" stroke="rgb(39, 170, 225)" stroke-width="0.5">
        <path id="Capline-S" d="M18,76 l800,0" />
        <path id="H-reference" d="M85,145.755 L87.685,145.755 L113.369,79.287 L114.052,79.287 L114.052,76 L112.148,76 L85,145.755 Z M95.693,121.536 L130.996,121.536 L130.263,119.313 L96.474,119.313 L95.693,121.536 Z M139.15,145.755 L141.787,145.755 L114.638,76 L113.466,76 L113.466,79.287 L139.15,145.755 Z" stroke="none" transform="translate(0,0)" />
        <path id="Baseline-S" d="M18,146 l800,0" />
        <path id="left-margin-Ultralight-S" d="M221,56 l0,110" />
        <path id="right-margin-Ultralight-S" d="M309,56 l0,110" />
        <path id="left-margin-Regular-S" d="M421,56 l0,110" />
        <path id="right-margin-Regular-S" d="M509,56 l0,110" />
        <path id="left-margin-Black-S" d="M621,56 l0,110" />
        <path id="right-margin-Black-S" d="M709,56 l0,110" />
        <path id="Capline-M" d="M18,276 l800,0" />
        <path id="Baseline-M" d="M18,346 l800,0" />
        <path id="Capline-L" d="M18,476 l800,0" />
        <path id="Baseline-L" d="M18,546 l800,0" />
    </g>
    <g id="Symbols">
        <g id="Ultralight-S" transform="translate(0,0)">
            <path d="M281.923,111.992 L281.923,105.923 C281.922,103.274 281.293,100.663 280.09,98.303 L288.692,89.701 L286.299,87.308 L241.308,132.299 L243.701,134.692 L253.855,124.538 L256.538,124.538 L256.538,126.231 C256.538,130.904 260.327,134.692 265,134.692 C269.673,134.692 273.462,130.904 273.462,126.231 L273.462,124.538 L285.308,124.538 C285.757,124.538 286.187,124.36 286.504,124.043 C286.822,123.725 287,123.295 287,122.846 L287,117.769 C287,117.321 286.822,116.89 286.504,116.573 Z M270.077,126.231 C270.077,129.035 267.804,131.308 265,131.308 C262.196,131.308 259.923,129.035 259.923,126.231 L259.923,124.538 L270.077,124.538 Z M283.615,121.154 L257.239,121.154 L277.543,100.85 C278.2,102.461 278.538,104.184 278.538,105.923 L278.538,112.692 C278.538,113.141 278.717,113.571 279.034,113.889 L283.615,118.47 Z" />
            <path d="M250.966,113.889 C251.283,113.571 251.461,113.141 251.462,112.692 L251.462,105.923 C251.47,98.45 257.526,92.394 264.999,92.385 C268.071,92.386 271.05,93.443 273.437,95.377 L275.85,92.963 C273.259,90.777 270.066,89.425 266.692,89.086 L266.692,85.615 L263.308,85.615 L263.308,89.086 C254.666,89.965 248.088,97.237 248.077,105.923 L248.077,111.992 L243,117.068 L245.393,119.462 Z" />
            <path d="M292.077,83.923 L292.077,138.077 L237.923,138.077 L237.923,83.923 Z" />
        </g>
        <g id="Regular-S" transform="translate(0,0)">
            <path d="M481.923,111.992 L481.923,105.923 C481.921,103.274 481.293,100.663 480.09,98.303 L488.692,89.701 L486.299,87.308 L441.308,132.299 L443.701,134.692 L453.855,124.538 L456.538,124.538 L456.538,126.231 C456.538,130.904 460.327,134.692 465,134.692 C469.673,134.692 473.462,130.904 473.462,126.231 L473.462,124.538 L485.308,124.538 C485.757,124.538 486.187,124.36 486.504,124.043 C486.822,123.725 487,123.295 487,122.846 L487,117.769 C487,117.321 486.822,116.89 486.504,116.573 Z M470.077,126.231 C470.077,129.035 467.804,131.308 465,131.308 C462.196,131.308 459.923,129.035 459.923,126.231 L459.923,124.538 L470.077,124.538 Z M483.615,121.154 L457.239,121.154 L477.543,100.85 C478.2,102.461 478.538,104.184 478.538,105.923 L478.538,112.692 C478.538,113.141 478.717,113.571 479.034,113.889 L483.615,118.47 Z" />
            <path d="M450.966,113.889 C451.283,113.571 451.461,113.141 451.462,112.692 L451.462,105.923 C451.47,98.45 457.526,92.394 464.999,92.385 C468.071,92.386 471.05,93.443 473.437,95.377 L475.85,92.963 C473.259,90.777 470.066,89.425 466.692,89.086 L466.692,85.615 L463.308,85.615 L463.308,89.086 C454.666,89.965 448.088,97.237 448.077,105.923 L448.077,111.992 L443,117.068 L445.393,119.462 Z" />
            <path d="M492.077,83.923 L492.077,138.077 L437.923,138.077 L437.923,83.923 Z" />
        </g>
        <g id="Black-S" transform="translate(0,0)">
            <path d="M681.923,111.992 L681.923,105.923 C681.922,103.274 681.293,100.663 680.09,98.303 L688.692,89.701 L686.299,87.308 L641.308,132.299 L643.701,134.692 L653.855,124.538 L656.538,124.538 L656.538,126.231 C656.538,130.904 660.327,134.692 665,134.692 C669.673,134.692 673.462,130.904 673.462,126.231 L673.462,124.538 L685.308,124.538 C685.757,124.538 686.187,124.36 686.504,124.043 C686.822,123.725 687,123.295 687,122.846 L687,117.769 C687,117.321 686.822,116.89 686.504,116.573 Z M670.077,126.231 C670.077,129.035 667.804,131.308 665,131.308 C662.196,131.308 659.923,129.035 659.923,126.231 L659.923,124.538 L670.077,124.538 Z M683.615,121.154 L657.239,121.154 L677.543,100.85 C678.2,102.461 678.538,104.184 678.538,105.923 L678.538,112.692 C678.538,113.141 678.717,113.571 679.034,113.889 L683.615,118.47 Z" />
            <path d="M650.966,113.889 C651.283,113.571 651.461,113.141 651.462,112.692 L651.462,105.923 C651.47,98.45 657.526,92.394 664.999,92.385 C668.071,92.386 671.05,93.443 673.437,95.377 L675.851,92.963 C673.259,90.777 670.066,89.425 666.692,89.086 L666.692,85.615 L663.308,85.615 L663.308,89.086 C654.666,89.965 648.088,97.237 648.077,105.923 L648.077,111.992 L643,117.068 L645.393,119.462 Z" />
            <path d="M692.077,83.923 L692.077,138.077 L637.923,138.077 L637.923,83.923 Z" />
        </g>
    </g>
</svg>