<?xml version="1.0" encoding="UTF-8"?>
<svg height="600" width="800" xmlns="http://www.w3.org/2000/svg" xmlns:xlink="http://www.w3.org/1999/xlink">
    <style>
        .st0 { fill: none }
    </style>
    <g id="Notes" font-family="LucidaGrande, 'Lucida Grande', sans-serif" font-size="13">
        <rect fill="white" height="600.0" width="800.0" x="0.0" y="0.0" />
        <g font-size="13">
            <text x="18.0" y="176.0">Small</text>
            <text x="18.0" y="376.0">Medium</text>
            <text x="18.0" y="576.0">Large</text>
        </g>
        <g font-size="9">
            <text x="250.0" y="30.0">Ultralight</text>
            <text x="450.0" y="30.0">Regular</text>
            <text x="650.0" y="30.0">Black</text>
            <text id="template-version" fill="#505050" text-anchor="end" x="785.0" y="575.0">Template v.3.0</text>
            <a href="https://github.com/swhitty/SwiftDraw">
                <text fill="#505050" text-anchor="end" x="785.0" y="590.0">https://github.com/swhitty/SwiftDraw</text>
            </a>
        </g>
    </g>
    <g id="Guides" stroke="rgb(39, 170, 225)" stroke-width="0.5">
        <path id="Capline-S" d="M18,76 l800,0" />
        <path id="H-reference" d="M85,145.755 L87.685,145.755 L113.369,79.287 L114.052,79.287 L114.052,76 L112.148,76 L85,145.755 Z M95.693,121.536 L130.996,121.536 L130.263,119.313 L96.474,119.313 L95.693,121.536 Z M139.15,145.755 L141.787,145.755 L114.638,76 L113.466,76 L113.466,79.287 L139.15,145.755 Z" stroke="none" transform="translate(0,0)" />
        <path id="Baseline-S" d="M18,146 l800,0" />
        <path id="left-margin-Ultralight-S" d="M221,56 l0,110" />
        <path id="right-margin-Ultralight-S" d="M309,56 l0,110" />
        <path id="left-margin-Regular-S" d="M421,56 l0,110" />
        <path id="right-margin-Regular-S" d="M509,56 l0,110" />
        <path id="left-margin-Black-S" d="M621,56 l0,110" />
        <path id="right-margin-Black-S" d="M709,56 l0,110" />
        <path id="Capline-M" d="M18,276 l800,0" />
        <path id="Baseline-M" d="M18,346 l800,0" />
        <path id="Capline-L" d="M18,476 l800,0" />
        <path id="Baseline-L" d="M18,546 l800,0" />
    </g>
    <g id="Symbols">
        <g id="Ultralight-S" transform="translate(0,0)">
            <path d="M290.667,96.333 L283.15,96.333 C282.233,92.117 278.567,89 274.167,89 C269.767,89 266.1,92.117 265.183,96.333 L239.333,96.333 L239.333,100 L265.183,100 C266.1,104.217 269.767,107.333 274.167,107.333 C278.567,107.333 282.233,104.217 283.15,100 L290.667,100 L290.667,96.333 Z M274.167,103.667 C271.05,103.667 268.667,101.283 268.667,98.167 C268.667,95.05 271.05,92.667 274.167,92.667 C277.283,92.667 279.667,95.05 279.667,98.167 C279.667,101.283 277.283,103.667 274.167,103.667 Z" />
            <path d="M239.333,125.667 L246.85,125.667 C247.767,129.883 251.433,133 255.833,133 C260.233,133 263.9,129.883 264.817,125.667 L290.667,125.667 L290.667,122 L264.817,122 C263.9,117.783 260.233,114.667 255.833,114.667 C251.433,114.667 247.767,117.783 246.85,122 L239.333,122 L239.333,125.667 Z M255.833,118.333 C258.95,118.333 261.333,120.717 261.333,123.833 C261.333,126.95 258.95,129.333 255.833,129.333 C252.717,129.333 250.333,126.95 250.333,123.833 C250.333,120.717 252.717,118.333 255.833,118.333 Z" />
        </g>
        <g id="Regular-S" transform="translate(0,0)">
            <path d="M490.667,96.333 L483.15,96.333 C482.233,92.117 478.567,89 474.167,89 C469.767,89 466.1,92.117 465.183,96.333 L439.333,96.333 L439.333,100 L465.183,100 C466.1,104.217 469.767,107.333 474.167,107.333 C478.567,107.333 482.233,104.217 483.15,100 L490.667,100 L490.667,96.333 Z M474.167,103.667 C471.05,103.667 468.667,101.283 468.667,98.167 C468.667,95.05 471.05,92.667 474.167,92.667 C477.283,92.667 479.667,95.05 479.667,98.167 C479.667,101.283 477.283,103.667 474.167,103.667 Z" />
            <path d="M439.333,125.667 L446.85,125.667 C447.767,129.883 451.433,133 455.833,133 C460.233,133 463.9,129.883 464.817,125.667 L490.667,125.667 L490.667,122 L464.817,122 C463.9,117.783 460.233,114.667 455.833,114.667 C451.433,114.667 447.767,117.783 446.85,122 L439.333,122 L439.333,125.667 Z M455.833,118.333 C458.95,118.333 461.333,120.717 461.333,123.833 C461.333,126.95 458.95,129.333 455.833,129.333 C452.717,129.333 450.333,126.95 450.333,123.833 C450.333,120.717 452.717,118.333 455.833,118.333 Z" />
        </g>
        <g id="Black-S" transform="translate(0,0)">
            <path d="M690.667,96.333 L683.15,96.333 C682.233,92.117 678.567,89 674.167,89 C669.767,89 666.1,92.117 665.183,96.333 L639.333,96.333 L639.333,100 L665.183,100 C666.1,104.217 669.767,107.333 674.167,107.333 C678.567,107.333 682.233,104.217 683.15,100 L690.667,100 L690.667,96.333 Z M674.167,103.667 C671.05,103.667 668.667,101.283 668.667,98.167 C668.667,95.05 671.05,92.667 674.167,92.667 C677.283,92.667 679.667,95.05 679.667,98.167 C679.667,101.283 677.283,103.667 674.167,103.667 Z" />
            <path d="M639.333,125.667 L646.85,125.667 C647.767,129.883 651.433,133 655.833,133 C660.233,133 663.9,129.883 664.817,125.667 L690.667,125.667 L690.667,122 L664.817,122 C663.9,117.783 660.233,114.667 655.833,114.667 C651.433,114.667 647.767,117.783 646.85,122 L639.333,122 L639.333,125.667 Z M655.833,118.333 C658.95,118.333 661.333,120.717 661.333,123.833 C661.333,126.95 658.95,129.333 655.833,129.333 C652.717,129.333 650.333,126.95 650.333,123.833 C650.333,120.717 652.717,118.333 655.833,118.333 Z" />
        </g>
    </g>
</svg>