<?xml version="1.0" encoding="UTF-8"?>
<svg height="600" width="800" xmlns="http://www.w3.org/2000/svg" xmlns:xlink="http://www.w3.org/1999/xlink">
    <style>
        
    </style>
    <g id="Notes" font-family="LucidaGrande, 'Lucida Grande', sans-serif" font-size="13">
        <rect fill="white" height="600.0" width="800.0" x="0.0" y="0.0" />
        <g font-size="13">
            <text x="18.0" y="176.0">Small</text>
            <text x="18.0" y="376.0">Medium</text>
            <text x="18.0" y="576.0">Large</text>
        </g>
        <g font-size="9">
            <text x="250.0" y="30.0">Ultralight</text>
            <text x="450.0" y="30.0">Regular</text>
            <text x="650.0" y="30.0">Black</text>
            <text id="template-version" fill="#505050" text-anchor="end" x="785.0" y="575.0">Template v.3.0</text>
            <a href="https://github.com/swhitty/SwiftDraw">
                <text fill="#505050" text-anchor="end" x="785.0" y="590.0">https://github.com/swhitty/SwiftDraw</text>
            </a>
        </g>
    </g>
    <g id="Guides" stroke="rgb(39, 170, 225)" stroke-width="0.5">
        <path id="Capline-S" d="M18,76 l800,0" />
        <path id="H-reference" d="M85,145.755 L87.685,145.755 L113.369,79.287 L114.052,79.287 L114.052,76 L112.148,76 L85,145.755 Z M95.693,121.536 L130.996,121.536 L130.263,119.313 L96.474,119.313 L95.693,121.536 Z M139.15,145.755 L141.787,145.755 L114.638,76 L113.466,76 L113.466,79.287 L139.15,145.755 Z" stroke="none" transform="translate(0,0)" />
        <path id="Baseline-S" d="M18,146 l800,0" />
        <path id="left-margin-Ultralight-S" d="M221,56 l0,110" />
        <path id="right-margin-Ultralight-S" d="M309,56 l0,110" />
        <path id="left-margin-Regular-S" d="M421,56 l0,110" />
        <path id="right-margin-Regular-S" d="M509,56 l0,110" />
        <path id="left-margin-Black-S" d="M621,56 l0,110" />
        <path id="right-margin-Black-S" d="M709,56 l0,110" />
        <path id="Capline-M" d="M18,276 l800,0" />
        <path id="Baseline-M" d="M18,346 l800,0" />
        <path id="Capline-L" d="M18,476 l800,0" />
        <path id="Baseline-L" d="M18,546 l800,0" />
    </g>
    <g id="Symbols">
        <g id="Ultralight-S" transform="translate(0,0)">
            <path d="M268.385,104.231 L261.615,104.231 L261.615,97.462 L258.231,97.462 L258.231,104.231 L251.462,104.231 L251.462,107.615 L258.231,107.615 L258.231,114.385 L261.615,114.385 L261.615,107.615 L268.385,107.615 L268.385,104.231 Z" />
            <path d="M274.22,117.769 C277.012,114.454 278.541,110.258 278.538,105.923 C278.538,95.642 270.204,87.308 259.923,87.308 C249.642,87.308 241.308,95.642 241.308,105.923 C241.308,116.204 249.642,124.538 259.923,124.538 C264.258,124.541 268.454,123.012 271.769,120.22 L284.607,133 L287,130.607 Z M259.923,121.154 C251.511,121.154 244.692,114.335 244.692,105.923 C244.692,97.511 251.511,90.692 259.923,90.692 C268.335,90.692 275.154,97.511 275.154,105.923 C275.144,114.331 268.33,121.145 259.923,121.154 Z" />
            <path d="M292.077,83.923 L292.077,138.077 L237.923,138.077 L237.923,83.923 Z" />
        </g>
        <g id="Regular-S" transform="translate(0,0)">
            <path d="M468.385,104.231 L461.615,104.231 L461.615,97.462 L458.231,97.462 L458.231,104.231 L451.462,104.231 L451.462,107.615 L458.231,107.615 L458.231,114.385 L461.615,114.385 L461.615,107.615 L468.385,107.615 L468.385,104.231 Z" />
            <path d="M474.22,117.769 C477.012,114.454 478.541,110.258 478.538,105.923 C478.538,95.642 470.204,87.308 459.923,87.308 C449.642,87.308 441.308,95.642 441.308,105.923 C441.308,116.204 449.642,124.538 459.923,124.538 C464.258,124.541 468.454,123.012 471.769,120.22 L484.607,133 L487,130.607 Z M459.923,121.154 C451.511,121.154 444.692,114.335 444.692,105.923 C444.692,97.511 451.511,90.692 459.923,90.692 C468.335,90.692 475.154,97.511 475.154,105.923 C475.144,114.331 468.33,121.145 459.923,121.154 Z" />
            <path d="M492.077,83.923 L492.077,138.077 L437.923,138.077 L437.923,83.923 Z" />
        </g>
        <g id="Black-S" transform="translate(0,0)">
            <path d="M668.385,104.231 L661.615,104.231 L661.615,97.462 L658.231,97.462 L658.231,104.231 L651.462,104.231 L651.462,107.615 L658.231,107.615 L658.231,114.385 L661.615,114.385 L661.615,107.615 L668.385,107.615 L668.385,104.231 Z" />
            <path d="M674.22,117.769 C677.012,114.454 678.541,110.258 678.538,105.923 C678.538,95.642 670.204,87.308 659.923,87.308 C649.642,87.308 641.308,95.642 641.308,105.923 C641.308,116.204 649.642,124.538 659.923,124.538 C664.258,124.541 668.454,123.012 671.769,120.22 L684.607,133 L687,130.607 Z M659.923,121.154 C651.511,121.154 644.692,114.335 644.692,105.923 C644.692,97.511 651.511,90.692 659.923,90.692 C668.335,90.692 675.154,97.511 675.154,105.923 C675.144,114.331 668.33,121.145 659.923,121.154 Z" />
            <path d="M692.077,83.923 L692.077,138.077 L637.923,138.077 L637.923,83.923 Z" />
        </g>
    </g>
</svg>