<?xml version="1.0" encoding="UTF-8"?>
<svg height="600" width="800" xmlns="http://www.w3.org/2000/svg" xmlns:xlink="http://www.w3.org/1999/xlink">
    <style>
        .cls-1 { fill: none }
    </style>
    <g id="Notes" font-family="LucidaGrande, 'Lucida Grande', sans-serif" font-size="13">
        <rect fill="white" height="600.0" width="800.0" x="0.0" y="0.0" />
        <g font-size="13">
            <text x="18.0" y="176.0">Small</text>
            <text x="18.0" y="376.0">Medium</text>
            <text x="18.0" y="576.0">Large</text>
        </g>
        <g font-size="9">
            <text x="250.0" y="30.0">Ultralight</text>
            <text x="450.0" y="30.0">Regular</text>
            <text x="650.0" y="30.0">Black</text>
            <text id="template-version" fill="#505050" text-anchor="end" x="785.0" y="575.0">Template v.3.0</text>
            <a href="https://github.com/swhitty/SwiftDraw">
                <text fill="#505050" text-anchor="end" x="785.0" y="590.0">https://github.com/swhitty/SwiftDraw</text>
            </a>
        </g>
    </g>
    <g id="Guides" stroke="rgb(39, 170, 225)" stroke-width="0.5">
        <path id="Capline-S" d="M18,76 l800,0" />
        <path id="H-reference" d="M85,145.755 L87.685,145.755 L113.369,79.287 L114.052,79.287 L114.052,76 L112.148,76 L85,145.755 Z M95.693,121.536 L130.996,121.536 L130.263,119.313 L96.474,119.313 L95.693,121.536 Z M139.15,145.755 L141.787,145.755 L114.638,76 L113.466,76 L113.466,79.287 L139.15,145.755 Z" stroke="none" transform="translate(0,0)" />
        <path id="Baseline-S" d="M18,146 l800,0" />
        <path id="left-margin-Ultralight-S" d="M221,56 l0,110" />
        <path id="right-margin-Ultralight-S" d="M309,56 l0,110" />
        <path id="left-margin-Regular-S" d="M421,56 l0,110" />
        <path id="right-margin-Regular-S" d="M509,56 l0,110" />
        <path id="left-margin-Black-S" d="M621,56 l0,110" />
        <path id="right-margin-Black-S" d="M709,56 l0,110" />
        <path id="Capline-M" d="M18,276 l800,0" />
        <path id="Baseline-M" d="M18,346 l800,0" />
        <path id="Capline-L" d="M18,476 l800,0" />
        <path id="Baseline-L" d="M18,546 l800,0" />
    </g>
    <g id="Symbols">
        <g id="Ultralight-S" transform="translate(0,0)">
            <path d="M283.333,123.833 L246.667,123.833 C244.643,123.831 243.002,122.191 243,120.167 L243,94.5 C243.002,92.476 244.642,90.835 246.667,90.833 L283.333,90.833 C285.357,90.836 286.998,92.476 287,94.5 L287,120.167 C286.997,122.19 285.357,123.83 283.334,123.833 Z M246.667,94.5 L246.667,120.167 L283.333,120.167 L283.333,94.5 Z" />
            <path d="M290.667,127.5 L290.667,131.167 L239.333,131.167 L239.333,127.5 Z" />
        </g>
        <g id="Regular-S" transform="translate(0,0)">
            <path d="M483.333,123.833 L446.667,123.833 C444.643,123.831 443.002,122.191 443,120.167 L443,94.5 C443.002,92.476 444.642,90.835 446.667,90.833 L483.333,90.833 C485.357,90.836 486.998,92.476 487,94.5 L487,120.167 C486.997,122.19 485.357,123.83 483.334,123.833 Z M446.667,94.5 L446.667,120.167 L483.333,120.167 L483.333,94.5 Z" />
            <path d="M490.667,127.5 L490.667,131.167 L439.333,131.167 L439.333,127.5 Z" />
        </g>
        <g id="Black-S" transform="translate(0,0)">
            <path d="M683.333,123.833 L646.667,123.833 C644.643,123.831 643.002,122.191 643,120.167 L643,94.5 C643.002,92.476 644.642,90.835 646.667,90.833 L683.333,90.833 C685.357,90.836 686.998,92.476 687,94.5 L687,120.167 C686.997,122.19 685.357,123.83 683.334,123.833 Z M646.667,94.5 L646.667,120.167 L683.333,120.167 L683.333,94.5 Z" />
            <path d="M690.667,127.5 L690.667,131.167 L639.333,131.167 L639.333,127.5 Z" />
        </g>
    </g>
</svg>