<?xml version="1.0" encoding="UTF-8"?>
<svg height="600" width="800" xmlns="http://www.w3.org/2000/svg" xmlns:xlink="http://www.w3.org/1999/xlink">
    <style>
        .cls-1 { fill: none }
    </style>
    <g id="Notes" font-family="LucidaGrande, 'Lucida Grande', sans-serif" font-size="13">
        <rect fill="white" height="600.0" width="800.0" x="0.0" y="0.0" />
        <g font-size="13">
            <text x="18.0" y="176.0">Small</text>
            <text x="18.0" y="376.0">Medium</text>
            <text x="18.0" y="576.0">Large</text>
        </g>
        <g font-size="9">
            <text x="250.0" y="30.0">Ultralight</text>
            <text x="450.0" y="30.0">Regular</text>
            <text x="650.0" y="30.0">Black</text>
            <text id="template-version" fill="#505050" text-anchor="end" x="785.0" y="575.0">Template v.3.0</text>
            <a href="https://github.com/swhitty/SwiftDraw">
                <text fill="#505050" text-anchor="end" x="785.0" y="590.0">https://github.com/swhitty/SwiftDraw</text>
            </a>
        </g>
    </g>
    <g id="Guides" stroke="rgb(39, 170, 225)" stroke-width="0.5">
        <path id="Capline-S" d="M18,76 l800,0" />
        <path id="H-reference" d="M85,145.755 L87.685,145.755 L113.369,79.287 L114.052,79.287 L114.052,76 L112.148,76 L85,145.755 Z M95.693,121.536 L130.996,121.536 L130.263,119.313 L96.474,119.313 L95.693,121.536 Z M139.15,145.755 L141.787,145.755 L114.638,76 L113.466,76 L113.466,79.287 L139.15,145.755 Z" stroke="none" transform="translate(0,0)" />
        <path id="Baseline-S" d="M18,146 l800,0" />
        <path id="left-margin-Ultralight-S" d="M221,56 l0,110" />
        <path id="right-margin-Ultralight-S" d="M309,56 l0,110" />
        <path id="left-margin-Regular-S" d="M421,56 l0,110" />
        <path id="right-margin-Regular-S" d="M509,56 l0,110" />
        <path id="left-margin-Black-S" d="M621,56 l0,110" />
        <path id="right-margin-Black-S" d="M709,56 l0,110" />
        <path id="Capline-M" d="M18,276 l800,0" />
        <path id="Baseline-M" d="M18,346 l800,0" />
        <path id="Capline-L" d="M18,476 l800,0" />
        <path id="Baseline-L" d="M18,546 l800,0" />
    </g>
    <g id="Symbols">
        <g id="Ultralight-S" transform="translate(0,0)">
            <path d="M257,87 L245,87 C243.939,87 242.922,87.421 242.172,88.172 C241.421,88.922 241,89.939 241,91 L241,103 C241,104.061 241.421,105.078 242.172,105.828 C242.922,106.579 243.939,107 245,107 L257,107 C258.061,107 259.078,106.579 259.828,105.828 C260.579,105.078 261,104.061 261,103 L261,91 C261,89.939 260.579,88.922 259.828,88.172 C259.078,87.421 258.061,87 257,87 Z M257,103 L245,103 L245,91 L257,91 Z" />
            <path d="M285,87 L273,87 C271.939,87 270.922,87.421 270.172,88.172 C269.421,88.922 269,89.939 269,91 L269,103 C269,104.061 269.421,105.078 270.172,105.828 C270.922,106.579 271.939,107 273,107 L285,107 C286.061,107 287.078,106.579 287.828,105.828 C288.579,105.078 289,104.061 289,103 L289,91 C289,89.939 288.579,88.922 287.828,88.172 C287.078,87.421 286.061,87 285,87 Z M285,103 L273,103 L273,91 L285,91 Z" />
            <path d="M257,115 L245,115 C243.939,115 242.922,115.421 242.172,116.172 C241.421,116.922 241,117.939 241,119 L241,131 C241,132.061 241.421,133.078 242.172,133.828 C242.922,134.579 243.939,135 245,135 L257,135 C258.061,135 259.078,134.579 259.828,133.828 C260.579,133.078 261,132.061 261,131 L261,119 C261,117.939 260.579,116.922 259.828,116.172 C259.078,115.421 258.061,115 257,115 Z M257,131 L245,131 L245,119 L257,119 Z" />
            <path d="M285,115 L273,115 C271.939,115 270.922,115.421 270.172,116.172 C269.421,116.922 269,117.939 269,119 L269,131 C269,132.061 269.421,133.078 270.172,133.828 C270.922,134.579 271.939,135 273,135 L285,135 C286.061,135 287.078,134.579 287.828,133.828 C288.579,133.078 289,132.061 289,131 L289,119 C289,117.939 288.579,116.922 287.828,116.172 C287.078,115.421 286.061,115 285,115 Z M285,131 L273,131 L273,119 L285,119 Z" />
        </g>
        <g id="Regular-S" transform="translate(0,0)">
            <path d="M457,87 L445,87 C443.939,87 442.922,87.421 442.172,88.172 C441.421,88.922 441,89.939 441,91 L441,103 C441,104.061 441.421,105.078 442.172,105.828 C442.922,106.579 443.939,107 445,107 L457,107 C458.061,107 459.078,106.579 459.828,105.828 C460.579,105.078 461,104.061 461,103 L461,91 C461,89.939 460.579,88.922 459.828,88.172 C459.078,87.421 458.061,87 457,87 Z M457,103 L445,103 L445,91 L457,91 Z" />
            <path d="M485,87 L473,87 C471.939,87 470.922,87.421 470.172,88.172 C469.421,88.922 469,89.939 469,91 L469,103 C469,104.061 469.421,105.078 470.172,105.828 C470.922,106.579 471.939,107 473,107 L485,107 C486.061,107 487.078,106.579 487.828,105.828 C488.579,105.078 489,104.061 489,103 L489,91 C489,89.939 488.579,88.922 487.828,88.172 C487.078,87.421 486.061,87 485,87 Z M485,103 L473,103 L473,91 L485,91 Z" />
            <path d="M457,115 L445,115 C443.939,115 442.922,115.421 442.172,116.172 C441.421,116.922 441,117.939 441,119 L441,131 C441,132.061 441.421,133.078 442.172,133.828 C442.922,134.579 443.939,135 445,135 L457,135 C458.061,135 459.078,134.579 459.828,133.828 C460.579,133.078 461,132.061 461,131 L461,119 C461,117.939 460.579,116.922 459.828,116.172 C459.078,115.421 458.061,115 457,115 Z M457,131 L445,131 L445,119 L457,119 Z" />
            <path d="M485,115 L473,115 C471.939,115 470.922,115.421 470.172,116.172 C469.421,116.922 469,117.939 469,119 L469,131 C469,132.061 469.421,133.078 470.172,133.828 C470.922,134.579 471.939,135 473,135 L485,135 C486.061,135 487.078,134.579 487.828,133.828 C488.579,133.078 489,132.061 489,131 L489,119 C489,117.939 488.579,116.922 487.828,116.172 C487.078,115.421 486.061,115 485,115 Z M485,131 L473,131 L473,119 L485,119 Z" />
        </g>
        <g id="Black-S" transform="translate(0,0)">
            <path d="M657,87 L645,87 C643.939,87 642.922,87.421 642.172,88.172 C641.421,88.922 641,89.939 641,91 L641,103 C641,104.061 641.421,105.078 642.172,105.828 C642.922,106.579 643.939,107 645,107 L657,107 C658.061,107 659.078,106.579 659.828,105.828 C660.579,105.078 661,104.061 661,103 L661,91 C661,89.939 660.579,88.922 659.828,88.172 C659.078,87.421 658.061,87 657,87 Z M657,103 L645,103 L645,91 L657,91 Z" />
            <path d="M685,87 L673,87 C671.939,87 670.922,87.421 670.172,88.172 C669.421,88.922 669,89.939 669,91 L669,103 C669,104.061 669.421,105.078 670.172,105.828 C670.922,106.579 671.939,107 673,107 L685,107 C686.061,107 687.078,106.579 687.828,105.828 C688.579,105.078 689,104.061 689,103 L689,91 C689,89.939 688.579,88.922 687.828,88.172 C687.078,87.421 686.061,87 685,87 Z M685,103 L673,103 L673,91 L685,91 Z" />
            <path d="M657,115 L645,115 C643.939,115 642.922,115.421 642.172,116.172 C641.421,116.922 641,117.939 641,119 L641,131 C641,132.061 641.421,133.078 642.172,133.828 C642.922,134.579 643.939,135 645,135 L657,135 C658.061,135 659.078,134.579 659.828,133.828 C660.579,133.078 661,132.061 661,131 L661,119 C661,117.939 660.579,116.922 659.828,116.172 C659.078,115.421 658.061,115 657,115 Z M657,131 L645,131 L645,119 L657,119 Z" />
            <path d="M685,115 L673,115 C671.939,115 670.922,115.421 670.172,116.172 C669.421,116.922 669,117.939 669,119 L669,131 C669,132.061 669.421,133.078 670.172,133.828 C670.922,134.579 671.939,135 673,135 L685,135 C686.061,135 687.078,134.579 687.828,133.828 C688.579,133.078 689,132.061 689,131 L689,119 C689,117.939 688.579,116.922 687.828,116.172 C687.078,115.421 686.061,115 685,115 Z M685,131 L673,131 L673,119 L685,119 Z" />
        </g>
    </g>
</svg>