<?xml version="1.0" encoding="UTF-8"?>
<svg height="600" width="800" xmlns="http://www.w3.org/2000/svg" xmlns:xlink="http://www.w3.org/1999/xlink">
    <style>
        .cls-1 { fill: none }
    </style>
    <g id="Notes" font-family="LucidaGrande, 'Lucida Grande', sans-serif" font-size="13">
        <rect fill="white" height="600.0" width="800.0" x="0.0" y="0.0" />
        <g font-size="13">
            <text x="18.0" y="176.0">Small</text>
            <text x="18.0" y="376.0">Medium</text>
            <text x="18.0" y="576.0">Large</text>
        </g>
        <g font-size="9">
            <text x="250.0" y="30.0">Ultralight</text>
            <text x="450.0" y="30.0">Regular</text>
            <text x="650.0" y="30.0">Black</text>
            <text id="template-version" fill="#505050" text-anchor="end" x="785.0" y="575.0">Template v.3.0</text>
            <a href="https://github.com/swhitty/SwiftDraw">
                <text fill="#505050" text-anchor="end" x="785.0" y="590.0">https://github.com/swhitty/SwiftDraw</text>
            </a>
        </g>
    </g>
    <g id="Guides" stroke="rgb(39, 170, 225)" stroke-width="0.5">
        <path id="Capline-S" d="M18,76 l800,0" />
        <path id="H-reference" d="M85,145.755 L87.685,145.755 L113.369,79.287 L114.052,79.287 L114.052,76 L112.148,76 L85,145.755 Z M95.693,121.536 L130.996,121.536 L130.263,119.313 L96.474,119.313 L95.693,121.536 Z M139.15,145.755 L141.787,145.755 L114.638,76 L113.466,76 L113.466,79.287 L139.15,145.755 Z" stroke="none" transform="translate(0,0)" />
        <path id="Baseline-S" d="M18,146 l800,0" />
        <path id="left-margin-Ultralight-S" d="M221,56 l0,110" />
        <path id="right-margin-Ultralight-S" d="M309,56 l0,110" />
        <path id="left-margin-Regular-S" d="M421,56 l0,110" />
        <path id="right-margin-Regular-S" d="M509,56 l0,110" />
        <path id="left-margin-Black-S" d="M621,56 l0,110" />
        <path id="right-margin-Black-S" d="M709,56 l0,110" />
        <path id="Capline-M" d="M18,276 l800,0" />
        <path id="Baseline-M" d="M18,346 l800,0" />
        <path id="Capline-L" d="M18,476 l800,0" />
        <path id="Baseline-L" d="M18,546 l800,0" />
    </g>
    <g id="Symbols">
        <g id="Ultralight-S" transform="translate(0,0)">
            <path d="M264.997,85.179 C258.389,85.138 252.04,87.745 247.368,92.417 C242.695,97.09 240.088,103.439 240.13,110.047 L240.13,111.959 C240.13,118.555 242.749,124.88 247.413,129.544 C252.077,134.207 258.402,136.827 264.997,136.827 L278.388,136.827 L278.388,133.001 L264.997,133.001 C259.417,133.001 254.064,130.784 250.118,126.838 C246.172,122.892 243.955,117.54 243.955,111.959 L243.955,110.047 C243.925,104.456 246.132,99.086 250.085,95.134 C254.037,91.181 259.407,88.974 264.997,89.005 C270.635,88.81 276.101,90.965 280.09,94.954 C284.079,98.943 286.233,104.409 286.039,110.047 C286.039,116.914 283.361,119.611 279.038,119.611 C276.016,119.611 274.562,117.143 274.562,113.872 L274.562,98.569 L270.736,98.569 L270.736,102.28 C269.376,99.886 266.792,98.454 264.041,98.569 C258.266,98.548 253.562,103.201 253.52,108.975 L253.52,113.031 C253.562,118.805 258.266,123.458 264.041,123.437 C267.301,123.532 270.307,121.684 271.692,118.731 C273.078,121.603 275.983,123.431 279.172,123.437 C285.044,123.437 289.865,119.611 289.865,110.047 C290.013,103.407 287.44,96.996 282.744,92.3 C278.048,87.603 271.637,85.031 264.997,85.179 Z M270.736,113.031 C270.736,116.728 267.738,119.726 264.041,119.726 C260.343,119.726 257.346,116.728 257.346,113.031 L257.346,108.975 C257.346,105.278 260.343,102.28 264.041,102.28 C267.738,102.28 270.736,105.278 270.736,108.975 Z" />
        </g>
        <g id="Regular-S" transform="translate(0,0)">
            <path d="M464.997,85.179 C458.389,85.138 452.04,87.745 447.368,92.417 C442.695,97.09 440.088,103.439 440.129,110.047 L440.129,111.959 C440.129,118.555 442.749,124.88 447.413,129.544 C452.077,134.207 458.402,136.827 464.997,136.827 L478.388,136.827 L478.388,133.001 L464.997,133.001 C459.417,133.001 454.064,130.784 450.118,126.838 C446.172,122.892 443.955,117.54 443.955,111.959 L443.955,110.047 C443.925,104.456 446.132,99.086 450.085,95.134 C454.037,91.181 459.407,88.974 464.997,89.005 C470.635,88.81 476.101,90.965 480.09,94.954 C484.079,98.943 486.233,104.409 486.039,110.047 C486.039,116.914 483.361,119.611 479.038,119.611 C476.016,119.611 474.562,117.143 474.562,113.872 L474.562,98.569 L470.736,98.569 L470.736,102.28 C469.376,99.886 466.792,98.454 464.041,98.569 C458.266,98.548 453.562,103.201 453.52,108.975 L453.52,113.031 C453.562,118.805 458.266,123.458 464.041,123.437 C467.301,123.532 470.307,121.684 471.692,118.731 C473.078,121.603 475.983,123.431 479.172,123.437 C485.044,123.437 489.865,119.611 489.865,110.047 C490.013,103.407 487.44,96.996 482.744,92.3 C478.048,87.603 471.637,85.031 464.997,85.179 Z M470.736,113.031 C470.736,116.728 467.738,119.726 464.041,119.726 C460.343,119.726 457.346,116.728 457.346,113.031 L457.346,108.975 C457.346,105.278 460.343,102.28 464.041,102.28 C467.738,102.28 470.736,105.278 470.736,108.975 Z" />
        </g>
        <g id="Black-S" transform="translate(0,0)">
            <path d="M664.997,85.179 C658.389,85.138 652.04,87.745 647.368,92.417 C642.695,97.09 640.089,103.439 640.13,110.047 L640.13,111.959 C640.13,118.555 642.75,124.88 647.413,129.544 C652.077,134.207 658.402,136.827 664.997,136.827 L678.388,136.827 L678.388,133.001 L664.997,133.001 C659.417,133.001 654.064,130.784 650.118,126.838 C646.172,122.892 643.955,117.54 643.955,111.959 L643.955,110.047 C643.925,104.456 646.132,99.086 650.085,95.134 C654.037,91.181 659.407,88.974 664.997,89.005 C670.635,88.81 676.101,90.965 680.09,94.954 C684.079,98.943 686.233,104.409 686.039,110.047 C686.039,116.914 683.361,119.611 679.038,119.611 C676.016,119.611 674.562,117.143 674.562,113.872 L674.562,98.569 L670.736,98.569 L670.736,102.28 C669.376,99.886 666.792,98.454 664.041,98.569 C658.266,98.548 653.562,103.201 653.52,108.975 L653.52,113.031 C653.562,118.805 658.266,123.458 664.041,123.437 C667.301,123.532 670.307,121.684 671.692,118.731 C673.078,121.603 675.983,123.431 679.172,123.437 C685.044,123.437 689.865,119.611 689.865,110.047 C690.013,103.407 687.44,96.996 682.744,92.3 C678.048,87.603 671.637,85.031 664.997,85.179 Z M670.736,113.031 C670.736,116.728 667.738,119.726 664.041,119.726 C660.343,119.726 657.346,116.728 657.346,113.031 L657.346,108.975 C657.346,105.278 660.343,102.28 664.041,102.28 C667.738,102.28 670.736,105.278 670.736,108.975 Z" />
        </g>
    </g>
</svg>