<?xml version="1.0" encoding="UTF-8"?>
<svg height="600" width="800" xmlns="http://www.w3.org/2000/svg" xmlns:xlink="http://www.w3.org/1999/xlink">
    <style>
        .cls-1 { fill: none }
    </style>
    <g id="Notes" font-family="LucidaGrande, 'Lucida Grande', sans-serif" font-size="13">
        <rect fill="white" height="600.0" width="800.0" x="0.0" y="0.0" />
        <g font-size="13">
            <text x="18.0" y="176.0">Small</text>
            <text x="18.0" y="376.0">Medium</text>
            <text x="18.0" y="576.0">Large</text>
        </g>
        <g font-size="9">
            <text x="250.0" y="30.0">Ultralight</text>
            <text x="450.0" y="30.0">Regular</text>
            <text x="650.0" y="30.0">Black</text>
            <text id="template-version" fill="#505050" text-anchor="end" x="785.0" y="575.0">Template v.3.0</text>
            <a href="https://github.com/swhitty/SwiftDraw">
                <text fill="#505050" text-anchor="end" x="785.0" y="590.0">https://github.com/swhitty/SwiftDraw</text>
            </a>
        </g>
    </g>
    <g id="Guides" stroke="rgb(39, 170, 225)" stroke-width="0.5">
        <path id="Capline-S" d="M18,76 l800,0" />
        <path id="H-reference" d="M85,145.755 L87.685,145.755 L113.369,79.287 L114.052,79.287 L114.052,76 L112.148,76 L85,145.755 Z M95.693,121.536 L130.996,121.536 L130.263,119.313 L96.474,119.313 L95.693,121.536 Z M139.15,145.755 L141.787,145.755 L114.638,76 L113.466,76 L113.466,79.287 L139.15,145.755 Z" stroke="none" transform="translate(0,0)" />
        <path id="Baseline-S" d="M18,146 l800,0" />
        <path id="left-margin-Ultralight-S" d="M221,56 l0,110" />
        <path id="right-margin-Ultralight-S" d="M309,56 l0,110" />
        <path id="left-margin-Regular-S" d="M421,56 l0,110" />
        <path id="right-margin-Regular-S" d="M509,56 l0,110" />
        <path id="left-margin-Black-S" d="M621,56 l0,110" />
        <path id="right-margin-Black-S" d="M709,56 l0,110" />
        <path id="Capline-M" d="M18,276 l800,0" />
        <path id="Baseline-M" d="M18,346 l800,0" />
        <path id="Capline-L" d="M18,476 l800,0" />
        <path id="Baseline-L" d="M18,546 l800,0" />
    </g>
    <g id="Symbols">
        <g id="Ultralight-S" transform="translate(0,0)">
            <path d="M285,93 L281,93 L281,91 C280.998,88.792 279.208,87.003 277,87 L253,87 C250.792,87.003 249.003,88.792 249,91 L249,93 L245,93 C242.792,93.003 241.003,94.792 241,97 L241,103 C241.005,107.416 244.584,110.995 249,111 L249.644,111 C251.347,117.256 256.587,121.913 263,122.868 L263,131 L253,131 L253,135 L277,135 L277,131 L267,131 L267,122.862 C273.506,122.058 278.855,117.351 280.48,111 L281,111 C285.416,110.995 288.995,107.416 289,103 L289,97 C288.998,94.792 287.208,93.003 285,93 Z M249,107 C246.792,106.997 245.003,105.208 245,103 L245,97 L249,97 Z M277,107 C277,110.247 275.684,113.355 273.353,115.615 C271.022,117.876 267.874,119.095 264.629,118.994 C258.013,118.584 252.889,113.041 253,106.413 L253,91 L277,91 Z M285,103 C284.998,105.208 283.208,106.997 281,107 L281,97 L285,97 Z" />
        </g>
        <g id="Regular-S" transform="translate(0,0)">
            <path d="M485,93 L481,93 L481,91 C480.998,88.792 479.208,87.003 477,87 L453,87 C450.792,87.003 449.003,88.792 449,91 L449,93 L445,93 C442.792,93.003 441.003,94.792 441,97 L441,103 C441.005,107.416 444.584,110.995 449,111 L449.644,111 C451.347,117.256 456.587,121.913 463,122.868 L463,131 L453,131 L453,135 L477,135 L477,131 L467,131 L467,122.862 C473.506,122.058 478.855,117.351 480.48,111 L481,111 C485.416,110.995 488.995,107.416 489,103 L489,97 C488.998,94.792 487.208,93.003 485,93 Z M449,107 C446.792,106.997 445.003,105.208 445,103 L445,97 L449,97 Z M477,107 C477,110.247 475.684,113.355 473.353,115.615 C471.022,117.876 467.874,119.095 464.629,118.994 C458.013,118.584 452.889,113.041 453,106.413 L453,91 L477,91 Z M485,103 C484.998,105.208 483.208,106.997 481,107 L481,97 L485,97 Z" />
        </g>
        <g id="Black-S" transform="translate(0,0)">
            <path d="M685,93 L681,93 L681,91 C680.998,88.792 679.208,87.003 677,87 L653,87 C650.792,87.003 649.003,88.792 649,91 L649,93 L645,93 C642.792,93.003 641.003,94.792 641,97 L641,103 C641.005,107.416 644.584,110.995 649,111 L649.644,111 C651.347,117.256 656.587,121.913 663,122.868 L663,131 L653,131 L653,135 L677,135 L677,131 L667,131 L667,122.862 C673.506,122.058 678.855,117.351 680.48,111 L681,111 C685.416,110.995 688.995,107.416 689,103 L689,97 C688.998,94.792 687.208,93.003 685,93 Z M649,107 C646.792,106.997 645.003,105.208 645,103 L645,97 L649,97 Z M677,107 C677,110.247 675.684,113.355 673.353,115.615 C671.022,117.876 667.874,119.095 664.629,118.994 C658.013,118.584 652.889,113.041 653,106.413 L653,91 L677,91 Z M685,103 C684.998,105.208 683.208,106.997 681,107 L681,97 L685,97 Z" />
        </g>
    </g>
</svg>