<?xml version="1.0" encoding="UTF-8"?>
<svg height="600" width="800" xmlns="http://www.w3.org/2000/svg" xmlns:xlink="http://www.w3.org/1999/xlink">
    <style>
        
    </style>
    <g id="Notes" font-family="LucidaGrande, 'Lucida Grande', sans-serif" font-size="13">
        <rect fill="white" height="600.0" width="800.0" x="0.0" y="0.0" />
        <g font-size="13">
            <text x="18.0" y="176.0">Small</text>
            <text x="18.0" y="376.0">Medium</text>
            <text x="18.0" y="576.0">Large</text>
        </g>
        <g font-size="9">
            <text x="250.0" y="30.0">Ultralight</text>
            <text x="450.0" y="30.0">Regular</text>
            <text x="650.0" y="30.0">Black</text>
            <text id="template-version" fill="#505050" text-anchor="end" x="785.0" y="575.0">Template v.3.0</text>
            <a href="https://github.com/swhitty/SwiftDraw">
                <text fill="#505050" text-anchor="end" x="785.0" y="590.0">https://github.com/swhitty/SwiftDraw</text>
            </a>
        </g>
    </g>
    <g id="Guides" stroke="rgb(39, 170, 225)" stroke-width="0.5">
        <path id="Capline-S" d="M18,76 l800,0" />
        <path id="H-reference" d="M85,145.755 L87.685,145.755 L113.369,79.287 L114.052,79.287 L114.052,76 L112.148,76 L85,145.755 Z M95.693,121.536 L130.996,121.536 L130.263,119.313 L96.474,119.313 L95.693,121.536 Z M139.15,145.755 L141.787,145.755 L114.638,76 L113.466,76 L113.466,79.287 L139.15,145.755 Z" stroke="none" transform="translate(0,0)" />
        <path id="Baseline-S" d="M18,146 l800,0" />
        <path id="left-margin-Ultralight-S" d="M221,56 l0,110" />
        <path id="right-margin-Ultralight-S" d="M309,56 l0,110" />
        <path id="left-margin-Regular-S" d="M421,56 l0,110" />
        <path id="right-margin-Regular-S" d="M509,56 l0,110" />
        <path id="left-margin-Black-S" d="M621,56 l0,110" />
        <path id="right-margin-Black-S" d="M709,56 l0,110" />
        <path id="Capline-M" d="M18,276 l800,0" />
        <path id="Baseline-M" d="M18,346 l800,0" />
        <path id="Capline-L" d="M18,476 l800,0" />
        <path id="Baseline-L" d="M18,546 l800,0" />
    </g>
    <g id="Symbols">
        <g id="Ultralight-S" transform="translate(0,0)">
            <path d="M248.077,94.077 L282.214,94.077 L276.145,88.008 L278.538,85.615 L288.692,95.769 L278.538,105.923 L276.145,103.53 L282.214,97.462 L248.077,97.462 L248.077,109.308 L244.692,109.308 L244.692,97.462 C244.695,95.593 246.209,94.079 248.077,94.077 Z" />
            <path d="M253.855,118.47 L247.786,124.538 L281.923,124.538 L281.923,112.692 L285.308,112.692 L285.308,124.538 C285.305,126.407 283.791,127.921 281.923,127.923 L247.786,127.923 L253.854,133.992 L251.462,136.385 L241.308,126.231 L251.462,116.077 Z" />
            <path d="M292.077,83.923 L292.077,138.077 L237.923,138.077 L237.923,83.923 Z" />
        </g>
        <g id="Regular-S" transform="translate(0,0)">
            <path d="M448.077,94.077 L482.214,94.077 L476.145,88.008 L478.538,85.615 L488.692,95.769 L478.538,105.923 L476.145,103.53 L482.214,97.462 L448.077,97.462 L448.077,109.308 L444.692,109.308 L444.692,97.462 C444.695,95.593 446.209,94.079 448.077,94.077 Z" />
            <path d="M453.855,118.47 L447.786,124.538 L481.923,124.538 L481.923,112.692 L485.308,112.692 L485.308,124.538 C485.305,126.407 483.791,127.921 481.923,127.923 L447.786,127.923 L453.854,133.992 L451.462,136.385 L441.308,126.231 L451.462,116.077 Z" />
            <path d="M492.077,83.923 L492.077,138.077 L437.923,138.077 L437.923,83.923 Z" />
        </g>
        <g id="Black-S" transform="translate(0,0)">
            <path d="M648.077,94.077 L682.214,94.077 L676.145,88.008 L678.538,85.615 L688.692,95.769 L678.538,105.923 L676.145,103.53 L682.214,97.462 L648.077,97.462 L648.077,109.308 L644.692,109.308 L644.692,97.462 C644.695,95.593 646.209,94.079 648.077,94.077 Z" />
            <path d="M653.855,118.47 L647.786,124.538 L681.923,124.538 L681.923,112.692 L685.308,112.692 L685.308,124.538 C685.305,126.407 683.791,127.921 681.923,127.923 L647.786,127.923 L653.854,133.992 L651.462,136.385 L641.308,126.231 L651.462,116.077 Z" />
            <path d="M692.077,83.923 L692.077,138.077 L637.923,138.077 L637.923,83.923 Z" />
        </g>
    </g>
</svg>