<?xml version="1.0" encoding="UTF-8"?>
<svg height="600" width="800" xmlns="http://www.w3.org/2000/svg" xmlns:xlink="http://www.w3.org/1999/xlink">
    <style>
        .cls-1 { fill: none }
    </style>
    <g id="Notes" font-family="LucidaGrande, 'Lucida Grande', sans-serif" font-size="13">
        <rect fill="white" height="600.0" width="800.0" x="0.0" y="0.0" />
        <g font-size="13">
            <text x="18.0" y="176.0">Small</text>
            <text x="18.0" y="376.0">Medium</text>
            <text x="18.0" y="576.0">Large</text>
        </g>
        <g font-size="9">
            <text x="250.0" y="30.0">Ultralight</text>
            <text x="450.0" y="30.0">Regular</text>
            <text x="650.0" y="30.0">Black</text>
            <text id="template-version" fill="#505050" text-anchor="end" x="785.0" y="575.0">Template v.3.0</text>
            <a href="https://github.com/swhitty/SwiftDraw">
                <text fill="#505050" text-anchor="end" x="785.0" y="590.0">https://github.com/swhitty/SwiftDraw</text>
            </a>
        </g>
    </g>
    <g id="Guides" stroke="rgb(39, 170, 225)" stroke-width="0.5">
        <path id="Capline-S" d="M18,76 l800,0" />
        <path id="H-reference" d="M85,145.755 L87.685,145.755 L113.369,79.287 L114.052,79.287 L114.052,76 L112.148,76 L85,145.755 Z M95.693,121.536 L130.996,121.536 L130.263,119.313 L96.474,119.313 L95.693,121.536 Z M139.15,145.755 L141.787,145.755 L114.638,76 L113.466,76 L113.466,79.287 L139.15,145.755 Z" stroke="none" transform="translate(0,0)" />
        <path id="Baseline-S" d="M18,146 l800,0" />
        <path id="left-margin-Ultralight-S" d="M221,56 l0,110" />
        <path id="right-margin-Ultralight-S" d="M309,56 l0,110" />
        <path id="left-margin-Regular-S" d="M421,56 l0,110" />
        <path id="right-margin-Regular-S" d="M509,56 l0,110" />
        <path id="left-margin-Black-S" d="M621,56 l0,110" />
        <path id="right-margin-Black-S" d="M709,56 l0,110" />
        <path id="Capline-M" d="M18,276 l800,0" />
        <path id="Baseline-M" d="M18,346 l800,0" />
        <path id="Capline-L" d="M18,476 l800,0" />
        <path id="Baseline-L" d="M18,546 l800,0" />
    </g>
    <g id="Symbols">
        <g id="Ultralight-S" transform="translate(0,0)">
            <path d="M282.6,106.6 L278.2,106.6 L278.2,93.4 C278.2,86.11 272.29,80.2 265,80.2 C257.71,80.2 251.8,86.11 251.8,93.4 L251.8,106.6 L247.4,106.6 C246.233,106.6 245.114,107.064 244.289,107.889 C243.464,108.714 243,109.833 243,111 L243,137.4 C243,138.567 243.464,139.686 244.289,140.511 C245.114,141.336 246.233,141.8 247.4,141.8 L282.6,141.8 C283.767,141.8 284.886,141.336 285.711,140.511 C286.536,139.686 287,138.567 287,137.4 L287,111 C287,109.833 286.536,108.714 285.711,107.889 C284.886,107.064 283.767,106.6 282.6,106.6 Z M256.2,93.4 C256.2,88.54 260.14,84.6 265,84.6 C269.86,84.6 273.8,88.54 273.8,93.4 L273.8,106.6 L256.2,106.6 Z M282.6,137.4 L247.4,137.4 L247.4,111 L282.6,111 Z" />
        </g>
        <g id="Regular-S" transform="translate(0,0)">
            <path d="M482.6,106.6 L478.2,106.6 L478.2,93.4 C478.2,86.11 472.29,80.2 465,80.2 C457.71,80.2 451.8,86.11 451.8,93.4 L451.8,106.6 L447.4,106.6 C446.233,106.6 445.114,107.064 444.289,107.889 C443.464,108.714 443,109.833 443,111 L443,137.4 C443,138.567 443.464,139.686 444.289,140.511 C445.114,141.336 446.233,141.8 447.4,141.8 L482.6,141.8 C483.767,141.8 484.886,141.336 485.711,140.511 C486.536,139.686 487,138.567 487,137.4 L487,111 C487,109.833 486.536,108.714 485.711,107.889 C484.886,107.064 483.767,106.6 482.6,106.6 Z M456.2,93.4 C456.2,88.54 460.14,84.6 465,84.6 C469.86,84.6 473.8,88.54 473.8,93.4 L473.8,106.6 L456.2,106.6 Z M482.6,137.4 L447.4,137.4 L447.4,111 L482.6,111 Z" />
        </g>
        <g id="Black-S" transform="translate(0,0)">
            <path d="M682.6,106.6 L678.2,106.6 L678.2,93.4 C678.2,86.11 672.29,80.2 665,80.2 C657.71,80.2 651.8,86.11 651.8,93.4 L651.8,106.6 L647.4,106.6 C646.233,106.6 645.114,107.064 644.289,107.889 C643.464,108.714 643,109.833 643,111 L643,137.4 C643,138.567 643.464,139.686 644.289,140.511 C645.114,141.336 646.233,141.8 647.4,141.8 L682.6,141.8 C683.767,141.8 684.886,141.336 685.711,140.511 C686.536,139.686 687,138.567 687,137.4 L687,111 C687,109.833 686.536,108.714 685.711,107.889 C684.886,107.064 683.767,106.6 682.6,106.6 Z M656.2,93.4 C656.2,88.54 660.14,84.6 665,84.6 C669.86,84.6 673.8,88.54 673.8,93.4 L673.8,106.6 L656.2,106.6 Z M682.6,137.4 L647.4,137.4 L647.4,111 L682.6,111 Z" />
        </g>
    </g>
</svg>