<?xml version="1.0" encoding="UTF-8"?>
<svg height="600" width="800" xmlns="http://www.w3.org/2000/svg" xmlns:xlink="http://www.w3.org/1999/xlink">
    <style>
        
    </style>
    <g id="Notes" font-family="LucidaGrande, 'Lucida Grande', sans-serif" font-size="13">
        <rect fill="white" height="600.0" width="800.0" x="0.0" y="0.0" />
        <g font-size="13">
            <text x="18.0" y="176.0">Small</text>
            <text x="18.0" y="376.0">Medium</text>
            <text x="18.0" y="576.0">Large</text>
        </g>
        <g font-size="9">
            <text x="250.0" y="30.0">Ultralight</text>
            <text x="450.0" y="30.0">Regular</text>
            <text x="650.0" y="30.0">Black</text>
            <text id="template-version" fill="#505050" text-anchor="end" x="785.0" y="575.0">Template v.3.0</text>
            <a href="https://github.com/swhitty/SwiftDraw">
                <text fill="#505050" text-anchor="end" x="785.0" y="590.0">https://github.com/swhitty/SwiftDraw</text>
            </a>
        </g>
    </g>
    <g id="Guides" stroke="rgb(39, 170, 225)" stroke-width="0.5">
        <path id="Capline-S" d="M18,76 l800,0" />
        <path id="H-reference" d="M85,145.755 L87.685,145.755 L113.369,79.287 L114.052,79.287 L114.052,76 L112.148,76 L85,145.755 Z M95.693,121.536 L130.996,121.536 L130.263,119.313 L96.474,119.313 L95.693,121.536 Z M139.15,145.755 L141.787,145.755 L114.638,76 L113.466,76 L113.466,79.287 L139.15,145.755 Z" stroke="none" transform="translate(0,0)" />
        <path id="Baseline-S" d="M18,146 l800,0" />
        <path id="left-margin-Ultralight-S" d="M221,56 l0,110" />
        <path id="right-margin-Ultralight-S" d="M309,56 l0,110" />
        <path id="left-margin-Regular-S" d="M421,56 l0,110" />
        <path id="right-margin-Regular-S" d="M509,56 l0,110" />
        <path id="left-margin-Black-S" d="M621,56 l0,110" />
        <path id="right-margin-Black-S" d="M709,56 l0,110" />
        <path id="Capline-M" d="M18,276 l800,0" />
        <path id="Baseline-M" d="M18,346 l800,0" />
        <path id="Capline-L" d="M18,476 l800,0" />
        <path id="Baseline-L" d="M18,546 l800,0" />
    </g>
    <g id="Symbols">
        <g id="Ultralight-S" transform="translate(0,0)">
            <path d="M263.308,117.769 L253.154,117.769 C251.807,117.769 250.516,118.304 249.564,119.256 C248.612,120.208 248.077,121.5 248.077,122.846 L248.077,126.231 L251.462,126.231 L251.462,122.846 C251.462,122.397 251.64,121.967 251.957,121.65 C252.275,121.332 252.705,121.154 253.154,121.154 L263.308,121.154 C263.757,121.154 264.187,121.332 264.504,121.65 C264.822,121.967 265,122.397 265,122.846 L265,126.231 L268.385,126.231 L268.385,122.846 C268.385,121.5 267.85,120.208 266.898,119.256 C265.946,118.304 264.654,117.769 263.308,117.769 Z" />
            <path d="M258.231,116.077 C261.969,116.077 265,113.046 265,109.308 C265,105.569 261.969,102.538 258.231,102.538 C254.492,102.538 251.462,105.569 251.462,109.308 C251.462,111.103 252.175,112.825 253.444,114.094 C254.714,115.364 256.435,116.077 258.231,116.077 Z M258.231,105.923 C260.1,105.923 261.615,107.438 261.615,109.308 C261.615,111.177 260.1,112.692 258.231,112.692 C256.362,112.692 254.846,111.177 254.846,109.308 C254.846,108.41 255.203,107.549 255.837,106.914 C256.472,106.28 257.333,105.923 258.231,105.923 Z" />
            <path d="M285.308,116.077 L285.308,131.308 L244.692,131.308 L244.692,97.462 L265,97.462 L265,94.077 L244.692,94.077 C243.795,94.077 242.934,94.434 242.299,95.068 C241.664,95.703 241.308,96.564 241.308,97.462 L241.308,131.308 C241.308,132.205 241.664,133.066 242.299,133.701 C242.934,134.336 243.795,134.692 244.692,134.692 L285.308,134.692 C286.205,134.692 287.066,134.336 287.701,133.701 C288.336,133.066 288.692,132.205 288.692,131.308 L288.692,116.077 Z" />
            <path d="M281.923,116.077 L281.923,119.462 L271.769,119.462 L271.769,116.077 Z" />
            <path d="M281.923,122.846 L281.923,126.231 L275.154,126.231 L275.154,122.846 Z" />
            <path d="M292.077,100.846 L292.077,97.462 L288.521,97.462 C288.303,96.402 287.882,95.395 287.283,94.495 L289.804,91.974 L287.411,89.581 L284.89,92.102 C283.99,91.502 282.982,91.082 281.923,90.863 L281.923,87.308 L278.538,87.308 L278.538,90.863 C277.479,91.082 276.472,91.502 275.572,92.102 L273.05,89.58 L270.658,91.973 L273.179,94.495 C272.579,95.395 272.159,96.402 271.94,97.462 L268.385,97.462 L268.385,100.846 L271.94,100.846 C272.159,101.905 272.579,102.913 273.179,103.813 L270.657,106.334 L273.05,108.727 L275.572,106.206 C276.472,106.805 277.479,107.226 278.538,107.444 L278.538,111 L281.923,111 L281.923,107.444 C282.982,107.226 283.99,106.806 284.89,106.206 L287.411,108.727 L289.804,106.334 L287.282,103.813 C287.882,102.913 288.303,101.906 288.521,100.846 Z M280.231,104.231 C277.427,104.231 275.154,101.958 275.154,99.154 C275.154,96.35 277.427,94.077 280.231,94.077 C283.035,94.077 285.308,96.35 285.308,99.154 C285.305,101.956 283.034,104.228 280.231,104.231 Z" />
            <path d="M292.077,83.923 L292.077,138.077 L237.923,138.077 L237.923,83.923 Z" />
        </g>
        <g id="Regular-S" transform="translate(0,0)">
            <path d="M463.308,117.769 L453.154,117.769 C451.807,117.769 450.516,118.304 449.564,119.256 C448.612,120.208 448.077,121.5 448.077,122.846 L448.077,126.231 L451.462,126.231 L451.462,122.846 C451.462,122.397 451.64,121.967 451.957,121.65 C452.275,121.332 452.705,121.154 453.154,121.154 L463.308,121.154 C463.757,121.154 464.187,121.332 464.504,121.65 C464.822,121.967 465,122.397 465,122.846 L465,126.231 L468.385,126.231 L468.385,122.846 C468.385,121.5 467.85,120.208 466.898,119.256 C465.945,118.304 464.654,117.769 463.308,117.769 Z" />
            <path d="M458.231,116.077 C461.969,116.077 465,113.046 465,109.308 C465,105.569 461.969,102.538 458.231,102.538 C454.492,102.538 451.462,105.569 451.462,109.308 C451.462,111.103 452.175,112.825 453.444,114.094 C454.714,115.364 456.435,116.077 458.231,116.077 Z M458.231,105.923 C460.1,105.923 461.615,107.438 461.615,109.308 C461.615,111.177 460.1,112.692 458.231,112.692 C456.361,112.692 454.846,111.177 454.846,109.308 C454.846,108.41 455.203,107.549 455.837,106.914 C456.472,106.28 457.333,105.923 458.231,105.923 Z" />
            <path d="M485.308,116.077 L485.308,131.308 L444.692,131.308 L444.692,97.462 L465,97.462 L465,94.077 L444.692,94.077 C443.795,94.077 442.934,94.434 442.299,95.068 C441.664,95.703 441.308,96.564 441.308,97.462 L441.308,131.308 C441.308,132.205 441.664,133.066 442.299,133.701 C442.934,134.336 443.795,134.692 444.692,134.692 L485.308,134.692 C486.205,134.692 487.066,134.336 487.701,133.701 C488.336,133.066 488.692,132.205 488.692,131.308 L488.692,116.077 Z" />
            <path d="M481.923,116.077 L481.923,119.462 L471.769,119.462 L471.769,116.077 Z" />
            <path d="M481.923,122.846 L481.923,126.231 L475.154,126.231 L475.154,122.846 Z" />
            <path d="M492.077,100.846 L492.077,97.462 L488.521,97.462 C488.303,96.402 487.882,95.395 487.283,94.495 L489.804,91.974 L487.411,89.581 L484.89,92.102 C483.99,91.502 482.982,91.082 481.923,90.863 L481.923,87.308 L478.538,87.308 L478.538,90.863 C477.479,91.082 476.472,91.502 475.572,92.102 L473.05,89.58 L470.658,91.973 L473.179,94.495 C472.579,95.395 472.159,96.402 471.94,97.462 L468.385,97.462 L468.385,100.846 L471.94,100.846 C472.159,101.905 472.579,102.913 473.179,103.813 L470.657,106.334 L473.05,108.727 L475.572,106.206 C476.472,106.805 477.479,107.226 478.538,107.444 L478.538,111 L481.923,111 L481.923,107.444 C482.982,107.226 483.99,106.806 484.889,106.206 L487.411,108.727 L489.804,106.334 L487.282,103.813 C487.882,102.913 488.303,101.906 488.521,100.846 Z M480.231,104.231 C477.427,104.231 475.154,101.958 475.154,99.154 C475.154,96.35 477.427,94.077 480.231,94.077 C483.035,94.077 485.308,96.35 485.308,99.154 C485.305,101.956 483.034,104.228 480.231,104.231 Z" />
            <path d="M492.077,83.923 L492.077,138.077 L437.923,138.077 L437.923,83.923 Z" />
        </g>
        <g id="Black-S" transform="translate(0,0)">
            <path d="M663.308,117.769 L653.154,117.769 C651.807,117.769 650.516,118.304 649.564,119.256 C648.612,120.208 648.077,121.5 648.077,122.846 L648.077,126.231 L651.462,126.231 L651.462,122.846 C651.462,122.397 651.64,121.967 651.957,121.65 C652.275,121.332 652.705,121.154 653.154,121.154 L663.308,121.154 C663.757,121.154 664.187,121.332 664.504,121.65 C664.822,121.967 665,122.397 665,122.846 L665,126.231 L668.385,126.231 L668.385,122.846 C668.385,121.5 667.85,120.208 666.898,119.256 C665.946,118.304 664.654,117.769 663.308,117.769 Z" />
            <path d="M658.231,116.077 C661.969,116.077 665,113.046 665,109.308 C665,105.569 661.969,102.538 658.231,102.538 C654.492,102.538 651.462,105.569 651.462,109.308 C651.462,111.103 652.175,112.825 653.444,114.094 C654.714,115.364 656.435,116.077 658.231,116.077 Z M658.231,105.923 C660.1,105.923 661.615,107.438 661.615,109.308 C661.615,111.177 660.1,112.692 658.231,112.692 C656.362,112.692 654.846,111.177 654.846,109.308 C654.846,108.41 655.203,107.549 655.838,106.914 C656.472,106.28 657.333,105.923 658.231,105.923 Z" />
            <path d="M685.308,116.077 L685.308,131.308 L644.692,131.308 L644.692,97.462 L665,97.462 L665,94.077 L644.692,94.077 C643.795,94.077 642.934,94.434 642.299,95.068 C641.664,95.703 641.308,96.564 641.308,97.462 L641.308,131.308 C641.308,132.205 641.664,133.066 642.299,133.701 C642.934,134.336 643.795,134.692 644.692,134.692 L685.308,134.692 C686.205,134.692 687.066,134.336 687.701,133.701 C688.336,133.066 688.692,132.205 688.692,131.308 L688.692,116.077 Z" />
            <path d="M681.923,116.077 L681.923,119.462 L671.769,119.462 L671.769,116.077 Z" />
            <path d="M681.923,122.846 L681.923,126.231 L675.154,126.231 L675.154,122.846 Z" />
            <path d="M692.077,100.846 L692.077,97.462 L688.521,97.462 C688.303,96.402 687.882,95.395 687.283,94.495 L689.804,91.974 L687.411,89.581 L684.89,92.102 C683.99,91.502 682.982,91.082 681.923,90.863 L681.923,87.308 L678.538,87.308 L678.538,90.863 C677.479,91.082 676.472,91.502 675.572,92.102 L673.05,89.58 L670.658,91.973 L673.179,94.495 C672.579,95.395 672.159,96.402 671.94,97.462 L668.385,97.462 L668.385,100.846 L671.94,100.846 C672.159,101.905 672.579,102.913 673.179,103.813 L670.657,106.334 L673.05,108.727 L675.572,106.206 C676.472,106.805 677.479,107.226 678.538,107.444 L678.538,111 L681.923,111 L681.923,107.444 C682.982,107.226 683.99,106.806 684.89,106.206 L687.411,108.727 L689.804,106.334 L687.282,103.813 C687.882,102.913 688.303,101.906 688.521,100.846 Z M680.231,104.231 C677.427,104.231 675.154,101.958 675.154,99.154 C675.154,96.35 677.427,94.077 680.231,94.077 C683.035,94.077 685.308,96.35 685.308,99.154 C685.305,101.956 683.034,104.228 680.231,104.231 Z" />
            <path d="M692.077,83.923 L692.077,138.077 L637.923,138.077 L637.923,83.923 Z" />
        </g>
    </g>
</svg>