<?xml version="1.0" encoding="UTF-8"?>
<svg height="600" width="800" xmlns="http://www.w3.org/2000/svg" xmlns:xlink="http://www.w3.org/1999/xlink">
    <style>
        
    </style>
    <g id="Notes" font-family="LucidaGrande, 'Lucida Grande', sans-serif" font-size="13">
        <rect fill="white" height="600.0" width="800.0" x="0.0" y="0.0" />
        <g font-size="13">
            <text x="18.0" y="176.0">Small</text>
            <text x="18.0" y="376.0">Medium</text>
            <text x="18.0" y="576.0">Large</text>
        </g>
        <g font-size="9">
            <text x="250.0" y="30.0">Ultralight</text>
            <text x="450.0" y="30.0">Regular</text>
            <text x="650.0" y="30.0">Black</text>
            <text id="template-version" fill="#505050" text-anchor="end" x="785.0" y="575.0">Template v.3.0</text>
            <a href="https://github.com/swhitty/SwiftDraw">
                <text fill="#505050" text-anchor="end" x="785.0" y="590.0">https://github.com/swhitty/SwiftDraw</text>
            </a>
        </g>
    </g>
    <g id="Guides" stroke="rgb(39, 170, 225)" stroke-width="0.5">
        <path id="Capline-S" d="M18,76 l800,0" />
        <path id="H-reference" d="M85,145.755 L87.685,145.755 L113.369,79.287 L114.052,79.287 L114.052,76 L112.148,76 L85,145.755 Z M95.693,121.536 L130.996,121.536 L130.263,119.313 L96.474,119.313 L95.693,121.536 Z M139.15,145.755 L141.787,145.755 L114.638,76 L113.466,76 L113.466,79.287 L139.15,145.755 Z" stroke="none" transform="translate(0,0)" />
        <path id="Baseline-S" d="M18,146 l800,0" />
        <path id="left-margin-Ultralight-S" d="M221,56 l0,110" />
        <path id="right-margin-Ultralight-S" d="M309,56 l0,110" />
        <path id="left-margin-Regular-S" d="M421,56 l0,110" />
        <path id="right-margin-Regular-S" d="M509,56 l0,110" />
        <path id="left-margin-Black-S" d="M621,56 l0,110" />
        <path id="right-margin-Black-S" d="M709,56 l0,110" />
        <path id="Capline-M" d="M18,276 l800,0" />
        <path id="Baseline-M" d="M18,346 l800,0" />
        <path id="Capline-L" d="M18,476 l800,0" />
        <path id="Baseline-L" d="M18,546 l800,0" />
    </g>
    <g id="Symbols">
        <g id="Ultralight-S" transform="translate(0,0)">
            <path d="M248.077,114.385 L250.463,116.771 L263.308,103.943 L263.308,134.692 L266.692,134.692 L266.692,103.943 L279.537,116.771 L281.923,114.385 L265,97.462 L248.077,114.385 Z" />
            <path d="M248.077,97.462 L248.077,90.692 L281.923,90.692 L281.923,97.462 L285.308,97.462 L285.308,90.692 C285.308,89.795 284.951,88.934 284.316,88.299 C283.682,87.664 282.821,87.308 281.923,87.308 L248.077,87.308 C247.179,87.308 246.318,87.664 245.684,88.299 C245.049,88.934 244.692,89.795 244.692,90.692 L244.692,97.462 Z" />
            <path d="M292.077,83.923 L292.077,138.077 L237.923,138.077 L237.923,83.923 Z" />
        </g>
        <g id="Regular-S" transform="translate(0,0)">
            <path d="M448.077,114.385 L450.463,116.771 L463.308,103.943 L463.308,134.692 L466.692,134.692 L466.692,103.943 L479.537,116.771 L481.923,114.385 L465,97.462 L448.077,114.385 Z" />
            <path d="M448.077,97.462 L448.077,90.692 L481.923,90.692 L481.923,97.462 L485.308,97.462 L485.308,90.692 C485.308,89.795 484.951,88.934 484.316,88.299 C483.682,87.664 482.821,87.308 481.923,87.308 L448.077,87.308 C447.179,87.308 446.318,87.664 445.684,88.299 C445.049,88.934 444.692,89.795 444.692,90.692 L444.692,97.462 Z" />
            <path d="M492.077,83.923 L492.077,138.077 L437.923,138.077 L437.923,83.923 Z" />
        </g>
        <g id="Black-S" transform="translate(0,0)">
            <path d="M648.077,114.385 L650.463,116.771 L663.308,103.943 L663.308,134.692 L666.692,134.692 L666.692,103.943 L679.537,116.771 L681.923,114.385 L665,97.462 L648.077,114.385 Z" />
            <path d="M648.077,97.462 L648.077,90.692 L681.923,90.692 L681.923,97.462 L685.308,97.462 L685.308,90.692 C685.308,89.795 684.951,88.934 684.316,88.299 C683.682,87.664 682.821,87.308 681.923,87.308 L648.077,87.308 C647.179,87.308 646.318,87.664 645.684,88.299 C645.049,88.934 644.692,89.795 644.692,90.692 L644.692,97.462 Z" />
            <path d="M692.077,83.923 L692.077,138.077 L637.923,138.077 L637.923,83.923 Z" />
        </g>
    </g>
</svg>