<?xml version="1.0" encoding="UTF-8"?>
<svg height="600" width="800" xmlns="http://www.w3.org/2000/svg" xmlns:xlink="http://www.w3.org/1999/xlink">
    <style>
        .cls-1 { fill: none }
    </style>
    <g id="Notes" font-family="LucidaGrande, 'Lucida Grande', sans-serif" font-size="13">
        <rect fill="white" height="600.0" width="800.0" x="0.0" y="0.0" />
        <g font-size="13">
            <text x="18.0" y="176.0">Small</text>
            <text x="18.0" y="376.0">Medium</text>
            <text x="18.0" y="576.0">Large</text>
        </g>
        <g font-size="9">
            <text x="250.0" y="30.0">Ultralight</text>
            <text x="450.0" y="30.0">Regular</text>
            <text x="650.0" y="30.0">Black</text>
            <text id="template-version" fill="#505050" text-anchor="end" x="785.0" y="575.0">Template v.3.0</text>
            <a href="https://github.com/swhitty/SwiftDraw">
                <text fill="#505050" text-anchor="end" x="785.0" y="590.0">https://github.com/swhitty/SwiftDraw</text>
            </a>
        </g>
    </g>
    <g id="Guides" stroke="rgb(39, 170, 225)" stroke-width="0.5">
        <path id="Capline-S" d="M18,76 l800,0" />
        <path id="H-reference" d="M85,145.755 L87.685,145.755 L113.369,79.287 L114.052,79.287 L114.052,76 L112.148,76 L85,145.755 Z M95.693,121.536 L130.996,121.536 L130.263,119.313 L96.474,119.313 L95.693,121.536 Z M139.15,145.755 L141.787,145.755 L114.638,76 L113.466,76 L113.466,79.287 L139.15,145.755 Z" stroke="none" transform="translate(0,0)" />
        <path id="Baseline-S" d="M18,146 l800,0" />
        <path id="left-margin-Ultralight-S" d="M221,56 l0,110" />
        <path id="right-margin-Ultralight-S" d="M309,56 l0,110" />
        <path id="left-margin-Regular-S" d="M421,56 l0,110" />
        <path id="right-margin-Regular-S" d="M509,56 l0,110" />
        <path id="left-margin-Black-S" d="M621,56 l0,110" />
        <path id="right-margin-Black-S" d="M709,56 l0,110" />
        <path id="Capline-M" d="M18,276 l800,0" />
        <path id="Baseline-M" d="M18,346 l800,0" />
        <path id="Capline-L" d="M18,476 l800,0" />
        <path id="Baseline-L" d="M18,546 l800,0" />
    </g>
    <g id="Symbols">
        <g id="Ultralight-S" transform="translate(0,0)">
            <path d="M290.667,133 L290.667,136.666 L239.333,136.666 L239.333,133 Z" />
            <path d="M285.167,101.833 C285.653,101.833 286.119,101.64 286.463,101.296 C286.807,100.952 287,100.486 287,100 L287,94.5 C287,93.728 286.516,93.039 285.79,92.776 L265.623,85.443 C265.22,85.297 264.779,85.297 264.377,85.443 L244.21,92.776 C243.484,93.039 243,93.728 243,94.5 L243,100 C243,100.486 243.193,100.952 243.537,101.296 C243.881,101.64 244.347,101.833 244.833,101.833 L246.667,101.833 L246.667,125.666 L243,125.666 L243,129.333 L287,129.333 L287,125.666 L283.333,125.666 L283.333,101.833 Z M246.667,95.783 L265,89.11 L283.333,95.783 L283.333,98.166 L246.667,98.166 Z M268.667,125.666 L261.333,125.666 L261.333,101.833 L268.667,101.833 Z M250.333,101.833 L257.667,101.833 L257.667,125.666 L250.333,125.666 Z M279.667,125.666 L272.333,125.666 L272.333,101.833 L279.667,101.833 Z" />
        </g>
        <g id="Regular-S" transform="translate(0,0)">
            <path d="M490.667,133 L490.667,136.666 L439.333,136.666 L439.333,133 Z" />
            <path d="M485.167,101.833 C485.653,101.833 486.119,101.64 486.463,101.296 C486.807,100.952 487,100.486 487,100 L487,94.5 C487,93.728 486.516,93.039 485.79,92.776 L465.623,85.443 C465.22,85.297 464.779,85.297 464.377,85.443 L444.21,92.776 C443.484,93.039 443,93.728 443,94.5 L443,100 C443,100.486 443.193,100.952 443.537,101.296 C443.881,101.64 444.347,101.833 444.833,101.833 L446.667,101.833 L446.667,125.666 L443,125.666 L443,129.333 L487,129.333 L487,125.666 L483.333,125.666 L483.333,101.833 Z M446.667,95.783 L465,89.11 L483.333,95.783 L483.333,98.166 L446.667,98.166 Z M468.667,125.666 L461.333,125.666 L461.333,101.833 L468.667,101.833 Z M450.333,101.833 L457.667,101.833 L457.667,125.666 L450.333,125.666 Z M479.667,125.666 L472.333,125.666 L472.333,101.833 L479.667,101.833 Z" />
        </g>
        <g id="Black-S" transform="translate(0,0)">
            <path d="M690.667,133 L690.667,136.666 L639.333,136.666 L639.333,133 Z" />
            <path d="M685.167,101.833 C685.653,101.833 686.119,101.64 686.463,101.296 C686.807,100.952 687,100.486 687,100 L687,94.5 C687,93.728 686.516,93.039 685.79,92.776 L665.623,85.443 C665.22,85.297 664.779,85.297 664.377,85.443 L644.21,92.776 C643.484,93.039 643,93.728 643,94.5 L643,100 C643,100.486 643.193,100.952 643.537,101.296 C643.881,101.64 644.347,101.833 644.833,101.833 L646.667,101.833 L646.667,125.666 L643,125.666 L643,129.333 L687,129.333 L687,125.666 L683.333,125.666 L683.333,101.833 Z M646.667,95.783 L665,89.11 L683.333,95.783 L683.333,98.166 L646.667,98.166 Z M668.667,125.666 L661.333,125.666 L661.333,101.833 L668.667,101.833 Z M650.333,101.833 L657.667,101.833 L657.667,125.666 L650.333,125.666 Z M679.667,125.666 L672.333,125.666 L672.333,101.833 L679.667,101.833 Z" />
        </g>
    </g>
</svg>