<?xml version="1.0" encoding="UTF-8"?>
<svg height="600" width="800" xmlns="http://www.w3.org/2000/svg" xmlns:xlink="http://www.w3.org/1999/xlink">
    <style>
        
    </style>
    <g id="Notes" font-family="LucidaGrande, 'Lucida Grande', sans-serif" font-size="13">
        <rect fill="white" height="600.0" width="800.0" x="0.0" y="0.0" />
        <g font-size="13">
            <text x="18.0" y="176.0">Small</text>
            <text x="18.0" y="376.0">Medium</text>
            <text x="18.0" y="576.0">Large</text>
        </g>
        <g font-size="9">
            <text x="250.0" y="30.0">Ultralight</text>
            <text x="450.0" y="30.0">Regular</text>
            <text x="650.0" y="30.0">Black</text>
            <text id="template-version" fill="#505050" text-anchor="end" x="785.0" y="575.0">Template v.3.0</text>
            <a href="https://github.com/swhitty/SwiftDraw">
                <text fill="#505050" text-anchor="end" x="785.0" y="590.0">https://github.com/swhitty/SwiftDraw</text>
            </a>
        </g>
    </g>
    <g id="Guides" stroke="rgb(39, 170, 225)" stroke-width="0.5">
        <path id="Capline-S" d="M18,76 l800,0" />
        <path id="H-reference" d="M85,145.755 L87.685,145.755 L113.369,79.287 L114.052,79.287 L114.052,76 L112.148,76 L85,145.755 Z M95.693,121.536 L130.996,121.536 L130.263,119.313 L96.474,119.313 L95.693,121.536 Z M139.15,145.755 L141.787,145.755 L114.638,76 L113.466,76 L113.466,79.287 L139.15,145.755 Z" stroke="none" transform="translate(0,0)" />
        <path id="Baseline-S" d="M18,146 l800,0" />
        <path id="left-margin-Ultralight-S" d="M221,56 l0,110" />
        <path id="right-margin-Ultralight-S" d="M309,56 l0,110" />
        <path id="left-margin-Regular-S" d="M421,56 l0,110" />
        <path id="right-margin-Regular-S" d="M509,56 l0,110" />
        <path id="left-margin-Black-S" d="M621,56 l0,110" />
        <path id="right-margin-Black-S" d="M709,56 l0,110" />
        <path id="Capline-M" d="M18,276 l800,0" />
        <path id="Baseline-M" d="M18,346 l800,0" />
        <path id="Capline-L" d="M18,476 l800,0" />
        <path id="Baseline-L" d="M18,546 l800,0" />
    </g>
    <g id="Symbols">
        <g id="Ultralight-S" transform="translate(0,0)">
            <path d="M288.692,124.538 L281.923,124.538 L281.923,117.769 L278.538,117.769 L278.538,124.538 L271.769,124.538 L271.769,127.923 L278.538,127.923 L278.538,134.692 L281.923,134.692 L281.923,127.923 L288.692,127.923 L288.692,124.538 Z" />
            <path d="M265,131.308 L251.462,131.308 L251.462,90.692 L265,90.692 L265,100.846 C265.005,102.713 266.518,104.225 268.385,104.231 L278.538,104.231 L278.538,111 L281.923,111 L281.923,100.846 C281.935,100.396 281.75,99.963 281.415,99.662 L269.569,87.815 C269.268,87.481 268.835,87.295 268.385,87.308 L251.462,87.308 C249.595,87.313 248.082,88.825 248.077,90.692 L248.077,131.308 C248.082,133.175 249.595,134.687 251.462,134.692 L265,134.692 Z M268.385,91.369 L277.862,100.846 L268.385,100.846 Z" />
            <path d="M292.077,83.923 L292.077,138.077 L237.923,138.077 L237.923,83.923 Z" />
        </g>
        <g id="Regular-S" transform="translate(0,0)">
            <path d="M488.692,124.538 L481.923,124.538 L481.923,117.769 L478.538,117.769 L478.538,124.538 L471.769,124.538 L471.769,127.923 L478.538,127.923 L478.538,134.692 L481.923,134.692 L481.923,127.923 L488.692,127.923 L488.692,124.538 Z" />
            <path d="M465,131.308 L451.462,131.308 L451.462,90.692 L465,90.692 L465,100.846 C465.005,102.713 466.518,104.225 468.385,104.231 L478.538,104.231 L478.538,111 L481.923,111 L481.923,100.846 C481.935,100.396 481.75,99.963 481.415,99.662 L469.569,87.815 C469.268,87.481 468.835,87.295 468.385,87.308 L451.462,87.308 C449.594,87.313 448.082,88.825 448.077,90.692 L448.077,131.308 C448.082,133.175 449.594,134.687 451.462,134.692 L465,134.692 Z M468.385,91.369 L477.862,100.846 L468.385,100.846 Z" />
            <path d="M492.077,83.923 L492.077,138.077 L437.923,138.077 L437.923,83.923 Z" />
        </g>
        <g id="Black-S" transform="translate(0,0)">
            <path d="M688.692,124.538 L681.923,124.538 L681.923,117.769 L678.538,117.769 L678.538,124.538 L671.769,124.538 L671.769,127.923 L678.538,127.923 L678.538,134.692 L681.923,134.692 L681.923,127.923 L688.692,127.923 L688.692,124.538 Z" />
            <path d="M665,131.308 L651.462,131.308 L651.462,90.692 L665,90.692 L665,100.846 C665.005,102.713 666.518,104.225 668.385,104.231 L678.539,104.231 L678.539,111 L681.923,111 L681.923,100.846 C681.935,100.396 681.75,99.963 681.415,99.662 L669.569,87.815 C669.268,87.481 668.835,87.295 668.385,87.308 L651.462,87.308 C649.595,87.313 648.082,88.825 648.077,90.692 L648.077,131.308 C648.082,133.175 649.595,134.687 651.462,134.692 L665,134.692 Z M668.385,91.369 L677.862,100.846 L668.385,100.846 Z" />
            <path d="M692.077,83.923 L692.077,138.077 L637.923,138.077 L637.923,83.923 Z" />
        </g>
    </g>
</svg>