<?xml version="1.0" encoding="UTF-8"?>
<svg height="600" width="800" xmlns="http://www.w3.org/2000/svg" xmlns:xlink="http://www.w3.org/1999/xlink">
    <style>
        .cls-1 { stroke-width: 0 }
        .cls-2 { stroke-width: 0 }
    </style>
    <g id="Notes" font-family="LucidaGrande, 'Lucida Grande', sans-serif" font-size="13">
        <rect fill="white" height="600.0" width="800.0" x="0.0" y="0.0" />
        <g font-size="13">
            <text x="18.0" y="176.0">Small</text>
            <text x="18.0" y="376.0">Medium</text>
            <text x="18.0" y="576.0">Large</text>
        </g>
        <g font-size="9">
            <text x="250.0" y="30.0">Ultralight</text>
            <text x="450.0" y="30.0">Regular</text>
            <text x="650.0" y="30.0">Black</text>
            <text id="template-version" fill="#505050" text-anchor="end" x="785.0" y="575.0">Template v.3.0</text>
            <a href="https://github.com/swhitty/SwiftDraw">
                <text fill="#505050" text-anchor="end" x="785.0" y="590.0">https://github.com/swhitty/SwiftDraw</text>
            </a>
        </g>
    </g>
    <g id="Guides" stroke="rgb(39, 170, 225)" stroke-width="0.5">
        <path id="Capline-S" d="M18,76 l800,0" />
        <path id="H-reference" d="M85,145.755 L87.685,145.755 L113.369,79.287 L114.052,79.287 L114.052,76 L112.148,76 L85,145.755 Z M95.693,121.536 L130.996,121.536 L130.263,119.313 L96.474,119.313 L95.693,121.536 Z M139.15,145.755 L141.787,145.755 L114.638,76 L113.466,76 L113.466,79.287 L139.15,145.755 Z" stroke="none" transform="translate(0,0)" />
        <path id="Baseline-S" d="M18,146 l800,0" />
        <path id="left-margin-Ultralight-S" d="M221,56 l0,110" />
        <path id="right-margin-Ultralight-S" d="M309,56 l0,110" />
        <path id="left-margin-Regular-S" d="M421,56 l0,110" />
        <path id="right-margin-Regular-S" d="M509,56 l0,110" />
        <path id="left-margin-Black-S" d="M621,56 l0,110" />
        <path id="right-margin-Black-S" d="M709,56 l0,110" />
        <path id="Capline-M" d="M18,276 l800,0" />
        <path id="Baseline-M" d="M18,346 l800,0" />
        <path id="Capline-L" d="M18,476 l800,0" />
        <path id="Baseline-L" d="M18,546 l800,0" />
    </g>
    <g id="Symbols">
        <g id="Ultralight-S" transform="translate(0,0)">
            <path d="M266.692,102.538 L271.769,102.538 L271.769,119.462 L266.692,119.462 L266.692,122.846 L280.231,122.846 L280.231,119.462 L275.154,119.462 L275.154,102.538 L280.231,102.538 L280.231,99.154 L266.692,99.154 L266.692,102.538 Z" />
            <path d="M259.923,99.154 L253.154,99.154 C251.287,99.154 249.769,100.672 249.769,102.538 L249.769,122.846 L253.154,122.846 L253.154,114.385 L259.923,114.385 L259.923,122.846 L263.308,122.846 L263.308,102.538 C263.308,100.672 261.79,99.154 259.923,99.154 Z M253.154,111 L253.154,102.538 L259.923,102.538 L259.923,111 L253.154,111 Z" />
            <path d="M292.077,83.923 L292.077,138.077 L237.923,138.077 L237.923,83.923 Z" />
        </g>
        <g id="Regular-S" transform="translate(0,0)">
            <path d="M466.692,102.538 L471.769,102.538 L471.769,119.462 L466.692,119.462 L466.692,122.846 L480.231,122.846 L480.231,119.462 L475.154,119.462 L475.154,102.538 L480.231,102.538 L480.231,99.154 L466.692,99.154 L466.692,102.538 Z" />
            <path d="M459.923,99.154 L453.154,99.154 C451.287,99.154 449.769,100.672 449.769,102.538 L449.769,122.846 L453.154,122.846 L453.154,114.385 L459.923,114.385 L459.923,122.846 L463.308,122.846 L463.308,102.538 C463.308,100.672 461.79,99.154 459.923,99.154 Z M453.154,111 L453.154,102.538 L459.923,102.538 L459.923,111 L453.154,111 Z" />
            <path d="M492.077,83.923 L492.077,138.077 L437.923,138.077 L437.923,83.923 Z" />
        </g>
        <g id="Black-S" transform="translate(0,0)">
            <path d="M666.692,102.538 L671.769,102.538 L671.769,119.462 L666.692,119.462 L666.692,122.846 L680.231,122.846 L680.231,119.462 L675.154,119.462 L675.154,102.538 L680.231,102.538 L680.231,99.154 L666.692,99.154 L666.692,102.538 Z" />
            <path d="M659.923,99.154 L653.154,99.154 C651.287,99.154 649.769,100.672 649.769,102.538 L649.769,122.846 L653.154,122.846 L653.154,114.385 L659.923,114.385 L659.923,122.846 L663.308,122.846 L663.308,102.538 C663.308,100.672 661.79,99.154 659.923,99.154 Z M653.154,111 L653.154,102.538 L659.923,102.538 L659.923,111 L653.154,111 Z" />
            <path d="M692.077,83.923 L692.077,138.077 L637.923,138.077 L637.923,83.923 Z" />
        </g>
    </g>
</svg>