<?xml version="1.0" encoding="UTF-8"?>
<svg height="600" width="800" xmlns="http://www.w3.org/2000/svg" xmlns:xlink="http://www.w3.org/1999/xlink">
    <style>
        .cls-1 { fill: none }
    </style>
    <g id="Notes" font-family="LucidaGrande, 'Lucida Grande', sans-serif" font-size="13">
        <rect fill="white" height="600.0" width="800.0" x="0.0" y="0.0" />
        <g font-size="13">
            <text x="18.0" y="176.0">Small</text>
            <text x="18.0" y="376.0">Medium</text>
            <text x="18.0" y="576.0">Large</text>
        </g>
        <g font-size="9">
            <text x="250.0" y="30.0">Ultralight</text>
            <text x="450.0" y="30.0">Regular</text>
            <text x="650.0" y="30.0">Black</text>
            <text id="template-version" fill="#505050" text-anchor="end" x="785.0" y="575.0">Template v.3.0</text>
            <a href="https://github.com/swhitty/SwiftDraw">
                <text fill="#505050" text-anchor="end" x="785.0" y="590.0">https://github.com/swhitty/SwiftDraw</text>
            </a>
        </g>
    </g>
    <g id="Guides" stroke="rgb(39, 170, 225)" stroke-width="0.5">
        <path id="Capline-S" d="M18,76 l800,0" />
        <path id="H-reference" d="M85,145.755 L87.685,145.755 L113.369,79.287 L114.052,79.287 L114.052,76 L112.148,76 L85,145.755 Z M95.693,121.536 L130.996,121.536 L130.263,119.313 L96.474,119.313 L95.693,121.536 Z M139.15,145.755 L141.787,145.755 L114.638,76 L113.466,76 L113.466,79.287 L139.15,145.755 Z" stroke="none" transform="translate(0,0)" />
        <path id="Baseline-S" d="M18,146 l800,0" />
        <path id="left-margin-Ultralight-S" d="M221,56 l0,110" />
        <path id="right-margin-Ultralight-S" d="M309,56 l0,110" />
        <path id="left-margin-Regular-S" d="M421,56 l0,110" />
        <path id="right-margin-Regular-S" d="M509,56 l0,110" />
        <path id="left-margin-Black-S" d="M621,56 l0,110" />
        <path id="right-margin-Black-S" d="M709,56 l0,110" />
        <path id="Capline-M" d="M18,276 l800,0" />
        <path id="Baseline-M" d="M18,346 l800,0" />
        <path id="Capline-L" d="M18,476 l800,0" />
        <path id="Baseline-L" d="M18,546 l800,0" />
    </g>
    <g id="Symbols">
        <g id="Ultralight-S" transform="translate(0,0)">
            <path d="M287.404,96.89 L275.125,90.751 C274.548,90.463 273.87,90.463 273.294,90.751 L261.015,96.89 C260.322,97.237 259.884,97.946 259.884,98.721 L259.884,113.047 C259.884,113.822 260.322,114.531 261.015,114.877 L273.294,121.017 C273.87,121.305 274.549,121.305 275.125,121.017 L287.404,114.877 C288.097,114.53 288.535,113.822 288.535,113.047 L288.535,98.721 C288.535,97.946 288.097,97.237 287.404,96.89 Z M274.209,94.87 L281.912,98.721 L274.209,102.572 L266.507,98.721 Z M263.977,102.033 L272.163,106.126 L272.163,115.874 L263.977,111.781 Z M276.256,115.874 L276.256,106.126 L284.442,102.033 L284.442,111.781 Z" />
            <path d="M255.791,128.395 C255.791,126.7 257.165,125.326 258.86,125.326 C260.556,125.326 261.93,126.7 261.93,128.395 C261.93,130.091 260.556,131.465 258.86,131.465 C257.165,131.465 255.791,130.091 255.791,128.395 Z" />
            <path d="M272.163,139.651 L245.558,139.651 C243.299,139.649 241.468,137.818 241.465,135.558 L241.465,86.442 C241.468,84.183 243.298,82.352 245.558,82.349 L272.163,82.349 L272.163,86.442 L245.558,86.442 L245.558,135.558 L272.163,135.558 L272.163,127.372 L276.256,127.372 L276.256,135.558 C276.253,137.817 274.422,139.648 272.163,139.651 Z" />
        </g>
        <g id="Regular-S" transform="translate(0,0)">
            <path d="M487.404,96.89 L475.125,90.751 C474.548,90.463 473.87,90.463 473.294,90.751 L461.015,96.89 C460.322,97.237 459.884,97.946 459.884,98.721 L459.884,113.047 C459.884,113.822 460.322,114.531 461.015,114.877 L473.294,121.017 C473.87,121.305 474.549,121.305 475.125,121.017 L487.404,114.877 C488.097,114.53 488.535,113.822 488.535,113.047 L488.535,98.721 C488.535,97.946 488.097,97.237 487.404,96.89 Z M474.209,94.87 L481.912,98.721 L474.209,102.572 L466.507,98.721 Z M463.977,102.033 L472.163,106.126 L472.163,115.874 L463.977,111.781 Z M476.256,115.874 L476.256,106.126 L484.442,102.033 L484.442,111.781 Z" />
            <path d="M455.791,128.395 C455.791,126.7 457.165,125.326 458.86,125.326 C460.556,125.326 461.93,126.7 461.93,128.395 C461.93,130.091 460.556,131.465 458.86,131.465 C457.165,131.465 455.791,130.091 455.791,128.395 Z" />
            <path d="M472.163,139.651 L445.558,139.651 C443.299,139.649 441.468,137.818 441.465,135.558 L441.465,86.442 C441.468,84.183 443.298,82.352 445.558,82.349 L472.163,82.349 L472.163,86.442 L445.558,86.442 L445.558,135.558 L472.163,135.558 L472.163,127.372 L476.256,127.372 L476.256,135.558 C476.253,137.817 474.422,139.648 472.163,139.651 Z" />
        </g>
        <g id="Black-S" transform="translate(0,0)">
            <path d="M687.404,96.89 L675.125,90.751 C674.548,90.463 673.87,90.463 673.294,90.751 L661.015,96.89 C660.322,97.237 659.884,97.946 659.884,98.721 L659.884,113.047 C659.884,113.822 660.322,114.531 661.015,114.877 L673.294,121.017 C673.87,121.305 674.549,121.305 675.125,121.017 L687.404,114.877 C688.097,114.53 688.535,113.822 688.535,113.047 L688.535,98.721 C688.535,97.946 688.097,97.237 687.404,96.89 Z M674.209,94.87 L681.912,98.721 L674.209,102.572 L666.507,98.721 Z M663.977,102.033 L672.163,106.126 L672.163,115.874 L663.977,111.781 Z M676.256,115.874 L676.256,106.126 L684.442,102.033 L684.442,111.781 Z" />
            <path d="M655.791,128.395 C655.791,126.7 657.165,125.326 658.86,125.326 C660.556,125.326 661.93,126.7 661.93,128.395 C661.93,130.091 660.556,131.465 658.86,131.465 C657.165,131.465 655.791,130.091 655.791,128.395 Z" />
            <path d="M672.163,139.651 L645.558,139.651 C643.299,139.649 641.468,137.818 641.465,135.558 L641.465,86.442 C641.468,84.183 643.298,82.352 645.558,82.349 L672.163,82.349 L672.163,86.442 L645.558,86.442 L645.558,135.558 L672.163,135.558 L672.163,127.372 L676.256,127.372 L676.256,135.558 C676.253,137.817 674.422,139.648 672.163,139.651 Z" />
        </g>
    </g>
</svg>