<?xml version="1.0" encoding="UTF-8"?>
<svg height="600" width="800" xmlns="http://www.w3.org/2000/svg" xmlns:xlink="http://www.w3.org/1999/xlink">
    <style>
        
    </style>
    <g id="Notes" font-family="LucidaGrande, 'Lucida Grande', sans-serif" font-size="13">
        <rect fill="white" height="600.0" width="800.0" x="0.0" y="0.0" />
        <g font-size="13">
            <text x="18.0" y="176.0">Small</text>
            <text x="18.0" y="376.0">Medium</text>
            <text x="18.0" y="576.0">Large</text>
        </g>
        <g font-size="9">
            <text x="250.0" y="30.0">Ultralight</text>
            <text x="450.0" y="30.0">Regular</text>
            <text x="650.0" y="30.0">Black</text>
            <text id="template-version" fill="#505050" text-anchor="end" x="785.0" y="575.0">Template v.3.0</text>
            <a href="https://github.com/swhitty/SwiftDraw">
                <text fill="#505050" text-anchor="end" x="785.0" y="590.0">https://github.com/swhitty/SwiftDraw</text>
            </a>
        </g>
    </g>
    <g id="Guides" stroke="rgb(39, 170, 225)" stroke-width="0.5">
        <path id="Capline-S" d="M18,76 l800,0" />
        <path id="H-reference" d="M85,145.755 L87.685,145.755 L113.369,79.287 L114.052,79.287 L114.052,76 L112.148,76 L85,145.755 Z M95.693,121.536 L130.996,121.536 L130.263,119.313 L96.474,119.313 L95.693,121.536 Z M139.15,145.755 L141.787,145.755 L114.638,76 L113.466,76 L113.466,79.287 L139.15,145.755 Z" stroke="none" transform="translate(0,0)" />
        <path id="Baseline-S" d="M18,146 l800,0" />
        <path id="left-margin-Ultralight-S" d="M221,56 l0,110" />
        <path id="right-margin-Ultralight-S" d="M309,56 l0,110" />
        <path id="left-margin-Regular-S" d="M421,56 l0,110" />
        <path id="right-margin-Regular-S" d="M509,56 l0,110" />
        <path id="left-margin-Black-S" d="M621,56 l0,110" />
        <path id="right-margin-Black-S" d="M709,56 l0,110" />
        <path id="Capline-M" d="M18,276 l800,0" />
        <path id="Baseline-M" d="M18,346 l800,0" />
        <path id="Capline-L" d="M18,476 l800,0" />
        <path id="Baseline-L" d="M18,546 l800,0" />
    </g>
    <g id="Symbols">
        <g id="Ultralight-S" transform="translate(0,0)">
            <path d="M287.572,110.888 L274.486,106.186 L269.018,99.317 C268.054,98.14 266.612,97.458 265.091,97.462 L251.559,97.462 C249.879,97.461 248.307,98.292 247.362,99.681 L242.774,106.422 C241.817,107.825 241.307,109.484 241.308,111.182 L241.308,124.538 C241.308,124.987 241.486,125.418 241.803,125.735 C242.121,126.052 242.551,126.231 243,126.231 L246.625,126.231 C247.384,129.217 250.073,131.308 253.154,131.308 C256.235,131.308 258.923,129.217 259.683,126.231 L270.317,126.231 C271.077,129.217 273.765,131.308 276.846,131.308 C279.927,131.308 282.616,129.217 283.375,126.231 L287,126.231 C287.449,126.231 287.879,126.052 288.197,125.735 C288.514,125.418 288.692,124.987 288.692,124.538 L288.692,112.481 C288.692,111.766 288.244,111.129 287.572,110.888 Z M253.154,127.923 C251.285,127.923 249.769,126.408 249.769,124.538 C249.769,122.669 251.285,121.154 253.154,121.154 C255.023,121.154 256.538,122.669 256.538,124.538 C256.536,126.407 255.022,127.92 253.154,127.923 Z M276.846,127.923 C274.977,127.923 273.462,126.408 273.462,124.538 C273.462,122.669 274.977,121.154 276.846,121.154 C278.715,121.154 280.231,122.669 280.231,124.538 C280.229,126.407 278.715,127.921 276.846,127.923 Z M285.308,122.846 L283.375,122.846 C282.616,119.86 279.927,117.769 276.846,117.769 C273.765,117.769 271.077,119.86 270.317,122.846 L259.683,122.846 C258.923,119.86 256.235,117.769 253.154,117.769 C250.073,117.769 247.384,119.86 246.625,122.846 L244.692,122.846 L244.692,111.182 C244.692,110.161 244.999,109.165 245.573,108.323 L250.161,101.585 C250.476,101.123 251,100.846 251.559,100.846 L265.091,100.846 C265.59,100.844 266.064,101.064 266.385,101.446 L272.138,108.67 C272.334,108.916 272.594,109.102 272.89,109.209 L285.308,113.671 Z" />
            <path d="M292.077,83.923 L292.077,138.077 L237.923,138.077 L237.923,83.923 Z" />
        </g>
        <g id="Regular-S" transform="translate(0,0)">
            <path d="M487.572,110.888 L474.486,106.186 L469.018,99.317 C468.054,98.14 466.612,97.458 465.091,97.462 L451.559,97.462 C449.879,97.461 448.307,98.292 447.362,99.681 L442.774,106.422 C441.817,107.825 441.307,109.484 441.308,111.182 L441.308,124.538 C441.308,124.987 441.486,125.418 441.803,125.735 C442.121,126.052 442.551,126.231 443,126.231 L446.625,126.231 C447.384,129.217 450.073,131.308 453.154,131.308 C456.235,131.308 458.923,129.217 459.683,126.231 L470.317,126.231 C471.077,129.217 473.765,131.308 476.846,131.308 C479.927,131.308 482.616,129.217 483.375,126.231 L487,126.231 C487.449,126.231 487.879,126.052 488.197,125.735 C488.514,125.418 488.692,124.987 488.692,124.538 L488.692,112.481 C488.692,111.766 488.244,111.129 487.571,110.888 Z M453.154,127.923 C451.285,127.923 449.769,126.408 449.769,124.538 C449.769,122.669 451.285,121.154 453.154,121.154 C455.023,121.154 456.538,122.669 456.538,124.538 C456.536,126.407 455.022,127.92 453.154,127.923 Z M476.846,127.923 C474.977,127.923 473.462,126.408 473.462,124.538 C473.462,122.669 474.977,121.154 476.846,121.154 C478.715,121.154 480.231,122.669 480.231,124.538 C480.229,126.407 478.715,127.921 476.846,127.923 Z M485.308,122.846 L483.375,122.846 C482.616,119.86 479.927,117.769 476.846,117.769 C473.765,117.769 471.077,119.86 470.317,122.846 L459.683,122.846 C458.923,119.86 456.235,117.769 453.154,117.769 C450.073,117.769 447.384,119.86 446.625,122.846 L444.692,122.846 L444.692,111.182 C444.692,110.161 444.999,109.165 445.573,108.323 L450.161,101.585 C450.476,101.123 451,100.846 451.559,100.846 L465.091,100.846 C465.59,100.844 466.064,101.064 466.385,101.446 L472.138,108.67 C472.334,108.916 472.594,109.102 472.89,109.209 L485.308,113.671 Z" />
            <path d="M492.077,83.923 L492.077,138.077 L437.923,138.077 L437.923,83.923 Z" />
        </g>
        <g id="Black-S" transform="translate(0,0)">
            <path d="M687.572,110.888 L674.486,106.186 L669.018,99.317 C668.054,98.14 666.612,97.458 665.091,97.462 L651.559,97.462 C649.879,97.461 648.307,98.292 647.362,99.681 L642.774,106.422 C641.817,107.825 641.307,109.484 641.308,111.182 L641.308,124.538 C641.308,124.987 641.486,125.418 641.803,125.735 C642.121,126.052 642.551,126.231 643,126.231 L646.625,126.231 C647.384,129.217 650.073,131.308 653.154,131.308 C656.235,131.308 658.924,129.217 659.683,126.231 L670.317,126.231 C671.077,129.217 673.765,131.308 676.846,131.308 C679.927,131.308 682.616,129.217 683.375,126.231 L687,126.231 C687.449,126.231 687.879,126.052 688.197,125.735 C688.514,125.418 688.692,124.987 688.692,124.538 L688.692,112.481 C688.692,111.766 688.244,111.129 687.572,110.888 Z M653.154,127.923 C651.285,127.923 649.769,126.408 649.769,124.538 C649.769,122.669 651.285,121.154 653.154,121.154 C655.023,121.154 656.538,122.669 656.538,124.538 C656.536,126.407 655.022,127.92 653.154,127.923 Z M676.846,127.923 C674.977,127.923 673.462,126.408 673.462,124.538 C673.462,122.669 674.977,121.154 676.846,121.154 C678.715,121.154 680.231,122.669 680.231,124.538 C680.229,126.407 678.715,127.921 676.846,127.923 Z M685.308,122.846 L683.375,122.846 C682.616,119.86 679.927,117.769 676.846,117.769 C673.765,117.769 671.077,119.86 670.317,122.846 L659.683,122.846 C658.924,119.86 656.235,117.769 653.154,117.769 C650.073,117.769 647.384,119.86 646.625,122.846 L644.692,122.846 L644.692,111.182 C644.692,110.161 644.999,109.165 645.573,108.323 L650.161,101.585 C650.476,101.123 651,100.846 651.559,100.846 L665.091,100.846 C665.59,100.844 666.064,101.064 666.385,101.446 L672.138,108.67 C672.334,108.916 672.594,109.102 672.89,109.209 L685.308,113.671 Z" />
            <path d="M692.077,83.923 L692.077,138.077 L637.923,138.077 L637.923,83.923 Z" />
        </g>
    </g>
</svg>