<?xml version="1.0" encoding="UTF-8"?>
<svg height="600" width="800" xmlns="http://www.w3.org/2000/svg" xmlns:xlink="http://www.w3.org/1999/xlink">
    <style>
        .cls-1 { fill: none }
    </style>
    <g id="Notes" font-family="LucidaGrande, 'Lucida Grande', sans-serif" font-size="13">
        <rect fill="white" height="600.0" width="800.0" x="0.0" y="0.0" />
        <g font-size="13">
            <text x="18.0" y="176.0">Small</text>
            <text x="18.0" y="376.0">Medium</text>
            <text x="18.0" y="576.0">Large</text>
        </g>
        <g font-size="9">
            <text x="250.0" y="30.0">Ultralight</text>
            <text x="450.0" y="30.0">Regular</text>
            <text x="650.0" y="30.0">Black</text>
            <text id="template-version" fill="#505050" text-anchor="end" x="785.0" y="575.0">Template v.3.0</text>
            <a href="https://github.com/swhitty/SwiftDraw">
                <text fill="#505050" text-anchor="end" x="785.0" y="590.0">https://github.com/swhitty/SwiftDraw</text>
            </a>
        </g>
    </g>
    <g id="Guides" stroke="rgb(39, 170, 225)" stroke-width="0.5">
        <path id="Capline-S" d="M18,76 l800,0" />
        <path id="H-reference" d="M85,145.755 L87.685,145.755 L113.369,79.287 L114.052,79.287 L114.052,76 L112.148,76 L85,145.755 Z M95.693,121.536 L130.996,121.536 L130.263,119.313 L96.474,119.313 L95.693,121.536 Z M139.15,145.755 L141.787,145.755 L114.638,76 L113.466,76 L113.466,79.287 L139.15,145.755 Z" stroke="none" transform="translate(0,0)" />
        <path id="Baseline-S" d="M18,146 l800,0" />
        <path id="left-margin-Ultralight-S" d="M221,56 l0,110" />
        <path id="right-margin-Ultralight-S" d="M309,56 l0,110" />
        <path id="left-margin-Regular-S" d="M421,56 l0,110" />
        <path id="right-margin-Regular-S" d="M509,56 l0,110" />
        <path id="left-margin-Black-S" d="M621,56 l0,110" />
        <path id="right-margin-Black-S" d="M709,56 l0,110" />
        <path id="Capline-M" d="M18,276 l800,0" />
        <path id="Baseline-M" d="M18,346 l800,0" />
        <path id="Capline-L" d="M18,476 l800,0" />
        <path id="Baseline-L" d="M18,546 l800,0" />
    </g>
    <g id="Symbols">
        <g id="Ultralight-S" transform="translate(0,0)">
            <path d="M265,85.333 C250.825,85.333 239.333,96.825 239.333,111 C239.333,125.175 250.825,136.667 265,136.667 C279.175,136.667 290.667,125.175 290.667,111 C290.667,104.193 287.963,97.664 283.149,92.851 C278.336,88.037 271.807,85.333 265,85.333 Z M265,133 C252.85,133 243,123.15 243,111 C243,98.85 252.85,89 265,89 C277.15,89 287,98.85 287,111 C287,116.835 284.682,122.431 280.556,126.556 C276.431,130.682 270.835,133 265,133 Z" />
            <path d="M262.25,124.75 C262.25,123.231 263.481,122 265,122 C266.519,122 267.75,123.231 267.75,124.75 C267.75,126.269 266.519,127.5 265,127.5 C263.481,127.5 262.25,126.269 262.25,124.75 Z" />
            <path d="M266.833,96.333 L264.083,96.333 C261.894,96.328 259.793,97.196 258.244,98.744 C256.696,100.293 255.828,102.394 255.833,104.583 L255.833,105.5 L259.5,105.5 L259.5,104.583 C259.5,103.368 259.983,102.202 260.842,101.342 C261.702,100.483 262.868,100 264.083,100 L266.833,100 C269.365,100 271.417,102.052 271.417,104.583 C271.417,107.115 269.365,109.167 266.833,109.167 L263.167,109.167 L263.167,117.417 L266.833,117.417 L266.833,112.833 C271.39,112.833 275.083,109.14 275.083,104.583 C275.083,100.027 271.39,96.333 266.833,96.333 Z" />
        </g>
        <g id="Regular-S" transform="translate(0,0)">
            <path d="M465,85.333 C450.825,85.333 439.333,96.825 439.333,111 C439.333,125.175 450.825,136.667 465,136.667 C479.175,136.667 490.667,125.175 490.667,111 C490.667,104.193 487.962,97.664 483.149,92.851 C478.336,88.037 471.807,85.333 465,85.333 Z M465,133 C452.85,133 443,123.15 443,111 C443,98.85 452.85,89 465,89 C477.15,89 487,98.85 487,111 C487,116.835 484.682,122.431 480.556,126.556 C476.431,130.682 470.835,133 465,133 Z" />
            <path d="M462.25,124.75 C462.25,123.231 463.481,122 465,122 C466.519,122 467.75,123.231 467.75,124.75 C467.75,126.269 466.519,127.5 465,127.5 C463.481,127.5 462.25,126.269 462.25,124.75 Z" />
            <path d="M466.833,96.333 L464.083,96.333 C461.894,96.328 459.793,97.196 458.244,98.744 C456.696,100.293 455.828,102.394 455.833,104.583 L455.833,105.5 L459.5,105.5 L459.5,104.583 C459.5,103.368 459.983,102.202 460.842,101.342 C461.702,100.483 462.868,100 464.083,100 L466.833,100 C469.365,100 471.417,102.052 471.417,104.583 C471.417,107.115 469.365,109.167 466.833,109.167 L463.167,109.167 L463.167,117.417 L466.833,117.417 L466.833,112.833 C471.39,112.833 475.083,109.14 475.083,104.583 C475.083,100.027 471.39,96.333 466.833,96.333 Z" />
        </g>
        <g id="Black-S" transform="translate(0,0)">
            <path d="M665,85.333 C650.825,85.333 639.333,96.825 639.333,111 C639.333,125.175 650.825,136.667 665,136.667 C679.175,136.667 690.667,125.175 690.667,111 C690.667,104.193 687.963,97.664 683.149,92.851 C678.336,88.037 671.807,85.333 665,85.333 Z M665,133 C652.85,133 643,123.15 643,111 C643,98.85 652.85,89 665,89 C677.15,89 687,98.85 687,111 C687,116.835 684.682,122.431 680.556,126.556 C676.431,130.682 670.835,133 665,133 Z" />
            <path d="M662.25,124.75 C662.25,123.231 663.481,122 665,122 C666.519,122 667.75,123.231 667.75,124.75 C667.75,126.269 666.519,127.5 665,127.5 C663.481,127.5 662.25,126.269 662.25,124.75 Z" />
            <path d="M666.833,96.333 L664.083,96.333 C661.894,96.328 659.793,97.196 658.244,98.744 C656.696,100.293 655.828,102.394 655.833,104.583 L655.833,105.5 L659.5,105.5 L659.5,104.583 C659.5,103.368 659.983,102.202 660.842,101.342 C661.702,100.483 662.868,100 664.083,100 L666.833,100 C669.365,100 671.417,102.052 671.417,104.583 C671.417,107.115 669.365,109.167 666.833,109.167 L663.167,109.167 L663.167,117.417 L666.833,117.417 L666.833,112.833 C671.39,112.833 675.083,109.14 675.083,104.583 C675.083,100.027 671.39,96.333 666.833,96.333 Z" />
        </g>
    </g>
</svg>