<?xml version="1.0" encoding="UTF-8"?>
<svg height="600" width="800" xmlns="http://www.w3.org/2000/svg" xmlns:xlink="http://www.w3.org/1999/xlink">
    <style>
        .cls-1 { fill: none }
    </style>
    <g id="Notes" font-family="LucidaGrande, 'Lucida Grande', sans-serif" font-size="13">
        <rect fill="white" height="600.0" width="800.0" x="0.0" y="0.0" />
        <g font-size="13">
            <text x="18.0" y="176.0">Small</text>
            <text x="18.0" y="376.0">Medium</text>
            <text x="18.0" y="576.0">Large</text>
        </g>
        <g font-size="9">
            <text x="250.0" y="30.0">Ultralight</text>
            <text x="450.0" y="30.0">Regular</text>
            <text x="650.0" y="30.0">Black</text>
            <text id="template-version" fill="#505050" text-anchor="end" x="785.0" y="575.0">Template v.3.0</text>
            <a href="https://github.com/swhitty/SwiftDraw">
                <text fill="#505050" text-anchor="end" x="785.0" y="590.0">https://github.com/swhitty/SwiftDraw</text>
            </a>
        </g>
    </g>
    <g id="Guides" stroke="rgb(39, 170, 225)" stroke-width="0.5">
        <path id="Capline-S" d="M18,76 l800,0" />
        <path id="H-reference" d="M85,145.755 L87.685,145.755 L113.369,79.287 L114.052,79.287 L114.052,76 L112.148,76 L85,145.755 Z M95.693,121.536 L130.996,121.536 L130.263,119.313 L96.474,119.313 L95.693,121.536 Z M139.15,145.755 L141.787,145.755 L114.638,76 L113.466,76 L113.466,79.287 L139.15,145.755 Z" stroke="none" transform="translate(0,0)" />
        <path id="Baseline-S" d="M18,146 l800,0" />
        <path id="left-margin-Ultralight-S" d="M221,56 l0,110" />
        <path id="right-margin-Ultralight-S" d="M309,56 l0,110" />
        <path id="left-margin-Regular-S" d="M421,56 l0,110" />
        <path id="right-margin-Regular-S" d="M509,56 l0,110" />
        <path id="left-margin-Black-S" d="M621,56 l0,110" />
        <path id="right-margin-Black-S" d="M709,56 l0,110" />
        <path id="Capline-M" d="M18,276 l800,0" />
        <path id="Baseline-M" d="M18,346 l800,0" />
        <path id="Capline-L" d="M18,476 l800,0" />
        <path id="Baseline-L" d="M18,546 l800,0" />
    </g>
    <g id="Symbols">
        <g id="Ultralight-S" transform="translate(0,0)">
            <path d="M260.014,89.823 C258.162,97.733 259.578,106.055 263.944,112.906 C268.309,119.757 275.254,124.557 283.206,126.22 C279.025,130.545 273.269,132.991 267.253,133 C266.976,133 266.697,133.01 266.417,133 C255.721,132.621 246.819,124.663 245.249,114.076 C243.679,103.489 249.888,93.289 260.014,89.823 M262.97,84.995 C262.853,84.995 262.736,85.005 262.621,85.026 C249.429,87.369 240.131,99.289 241.069,112.655 C242.008,126.02 252.88,136.524 266.271,137 C266.599,137.012 266.927,137 267.253,137 C275.773,137.004 283.762,132.858 288.661,125.886 C289.059,125.284 289.106,124.515 288.782,123.869 C288.459,123.223 287.815,122.799 287.094,122.757 C278.994,122.046 271.685,117.611 267.315,110.753 C262.945,103.896 262.012,95.397 264.789,87.755 C265.025,87.143 264.951,86.455 264.59,85.907 C264.229,85.359 263.626,85.019 262.97,84.995 Z" />
        </g>
        <g id="Regular-S" transform="translate(0,0)">
            <path d="M460.014,89.823 C458.162,97.733 459.578,106.055 463.944,112.906 C468.309,119.757 475.254,124.557 483.206,126.22 C479.025,130.545 473.269,132.991 467.253,133 C466.976,133 466.697,133.01 466.417,133 C455.721,132.621 446.819,124.663 445.249,114.076 C443.679,103.489 449.888,93.289 460.014,89.823 M462.97,84.995 C462.853,84.995 462.736,85.005 462.621,85.026 C449.429,87.369 440.131,99.289 441.069,112.655 C442.008,126.02 452.88,136.524 466.271,137 C466.599,137.012 466.927,137 467.253,137 C475.773,137.004 483.762,132.858 488.661,125.886 C489.059,125.284 489.106,124.515 488.782,123.869 C488.459,123.223 487.815,122.799 487.094,122.757 C478.994,122.046 471.685,117.611 467.315,110.753 C462.945,103.896 462.012,95.397 464.789,87.755 C465.025,87.143 464.951,86.455 464.59,85.907 C464.229,85.359 463.626,85.019 462.97,84.995 Z" />
        </g>
        <g id="Black-S" transform="translate(0,0)">
            <path d="M660.014,89.823 C658.162,97.733 659.578,106.055 663.944,112.906 C668.309,119.757 675.254,124.557 683.206,126.22 C679.025,130.545 673.269,132.991 667.253,133 C666.976,133 666.697,133.01 666.417,133 C655.721,132.621 646.819,124.663 645.249,114.076 C643.679,103.489 649.888,93.289 660.014,89.823 M662.97,84.995 C662.853,84.995 662.736,85.005 662.621,85.026 C649.429,87.369 640.131,99.289 641.069,112.655 C642.008,126.02 652.88,136.524 666.271,137 C666.599,137.012 666.927,137 667.253,137 C675.773,137.004 683.762,132.858 688.661,125.886 C689.059,125.284 689.106,124.515 688.782,123.869 C688.459,123.223 687.815,122.799 687.094,122.757 C678.994,122.046 671.685,117.611 667.315,110.753 C662.945,103.896 662.012,95.397 664.789,87.755 C665.025,87.143 664.951,86.455 664.59,85.907 C664.229,85.359 663.626,85.019 662.97,84.995 Z" />
        </g>
    </g>
</svg>