<?xml version="1.0" encoding="UTF-8"?>
<svg height="600" width="800" xmlns="http://www.w3.org/2000/svg" xmlns:xlink="http://www.w3.org/1999/xlink">
    <style>
        .cls-1 { fill: none }
    </style>
    <g id="Notes" font-family="LucidaGrande, 'Lucida Grande', sans-serif" font-size="13">
        <rect fill="white" height="600.0" width="800.0" x="0.0" y="0.0" />
        <g font-size="13">
            <text x="18.0" y="176.0">Small</text>
            <text x="18.0" y="376.0">Medium</text>
            <text x="18.0" y="576.0">Large</text>
        </g>
        <g font-size="9">
            <text x="250.0" y="30.0">Ultralight</text>
            <text x="450.0" y="30.0">Regular</text>
            <text x="650.0" y="30.0">Black</text>
            <text id="template-version" fill="#505050" text-anchor="end" x="785.0" y="575.0">Template v.3.0</text>
            <a href="https://github.com/swhitty/SwiftDraw">
                <text fill="#505050" text-anchor="end" x="785.0" y="590.0">https://github.com/swhitty/SwiftDraw</text>
            </a>
        </g>
    </g>
    <g id="Guides" stroke="rgb(39, 170, 225)" stroke-width="0.5">
        <path id="Capline-S" d="M18,76 l800,0" />
        <path id="H-reference" d="M85,145.755 L87.685,145.755 L113.369,79.287 L114.052,79.287 L114.052,76 L112.148,76 L85,145.755 Z M95.693,121.536 L130.996,121.536 L130.263,119.313 L96.474,119.313 L95.693,121.536 Z M139.15,145.755 L141.787,145.755 L114.638,76 L113.466,76 L113.466,79.287 L139.15,145.755 Z" stroke="none" transform="translate(0,0)" />
        <path id="Baseline-S" d="M18,146 l800,0" />
        <path id="left-margin-Ultralight-S" d="M221,56 l0,110" />
        <path id="right-margin-Ultralight-S" d="M309,56 l0,110" />
        <path id="left-margin-Regular-S" d="M421,56 l0,110" />
        <path id="right-margin-Regular-S" d="M509,56 l0,110" />
        <path id="left-margin-Black-S" d="M621,56 l0,110" />
        <path id="right-margin-Black-S" d="M709,56 l0,110" />
        <path id="Capline-M" d="M18,276 l800,0" />
        <path id="Baseline-M" d="M18,346 l800,0" />
        <path id="Capline-L" d="M18,476 l800,0" />
        <path id="Baseline-L" d="M18,546 l800,0" />
    </g>
    <g id="Symbols">
        <g id="Ultralight-S" transform="translate(0,0)">
            <path d="M287,92.667 L243,92.667 C242.028,92.667 241.095,93.053 240.407,93.741 C239.72,94.428 239.333,95.361 239.333,96.333 L239.333,125.667 C239.333,126.639 239.72,127.572 240.407,128.259 C241.095,128.947 242.028,129.333 243,129.333 L287,129.333 C287.972,129.333 288.905,128.947 289.593,128.259 C290.28,127.572 290.667,126.639 290.667,125.667 L290.667,96.333 C290.667,95.361 290.28,94.428 289.593,93.741 C288.905,93.053 287.972,92.667 287,92.667 Z M282.967,96.333 L265,108.763 L247.033,96.333 Z M243,125.667 L243,98.002 L263.955,112.503 C264.583,112.939 265.417,112.939 266.045,112.503 L287,98.002 L287,125.667 Z" />
        </g>
        <g id="Regular-S" transform="translate(0,0)">
            <path d="M487,92.667 L443,92.667 C442.028,92.667 441.095,93.053 440.407,93.741 C439.72,94.428 439.333,95.361 439.333,96.333 L439.333,125.667 C439.333,126.639 439.72,127.572 440.407,128.259 C441.095,128.947 442.028,129.333 443,129.333 L487,129.333 C487.972,129.333 488.905,128.947 489.593,128.259 C490.28,127.572 490.667,126.639 490.667,125.667 L490.667,96.333 C490.667,95.361 490.28,94.428 489.593,93.741 C488.905,93.053 487.972,92.667 487,92.667 Z M482.967,96.333 L465,108.763 L447.033,96.333 Z M443,125.667 L443,98.002 L463.955,112.503 C464.583,112.939 465.417,112.939 466.045,112.503 L487,98.002 L487,125.667 Z" />
        </g>
        <g id="Black-S" transform="translate(0,0)">
            <path d="M687,92.667 L643,92.667 C642.028,92.667 641.095,93.053 640.407,93.741 C639.72,94.428 639.333,95.361 639.333,96.333 L639.333,125.667 C639.333,126.639 639.72,127.572 640.407,128.259 C641.095,128.947 642.028,129.333 643,129.333 L687,129.333 C687.972,129.333 688.905,128.947 689.593,128.259 C690.28,127.572 690.667,126.639 690.667,125.667 L690.667,96.333 C690.667,95.361 690.28,94.428 689.593,93.741 C688.905,93.053 687.972,92.667 687,92.667 Z M682.967,96.333 L665,108.763 L647.033,96.333 Z M643,125.667 L643,98.002 L663.955,112.503 C664.583,112.939 665.417,112.939 666.045,112.503 L687,98.002 L687,125.667 Z" />
        </g>
    </g>
</svg>