<?xml version="1.0" encoding="UTF-8"?>
<svg height="600" width="800" xmlns="http://www.w3.org/2000/svg" xmlns:xlink="http://www.w3.org/1999/xlink">
    <style>
        .cls-1 { fill: none }
    </style>
    <g id="Notes" font-family="LucidaGrande, 'Lucida Grande', sans-serif" font-size="13">
        <rect fill="white" height="600.0" width="800.0" x="0.0" y="0.0" />
        <g font-size="13">
            <text x="18.0" y="176.0">Small</text>
            <text x="18.0" y="376.0">Medium</text>
            <text x="18.0" y="576.0">Large</text>
        </g>
        <g font-size="9">
            <text x="250.0" y="30.0">Ultralight</text>
            <text x="450.0" y="30.0">Regular</text>
            <text x="650.0" y="30.0">Black</text>
            <text id="template-version" fill="#505050" text-anchor="end" x="785.0" y="575.0">Template v.3.0</text>
            <a href="https://github.com/swhitty/SwiftDraw">
                <text fill="#505050" text-anchor="end" x="785.0" y="590.0">https://github.com/swhitty/SwiftDraw</text>
            </a>
        </g>
    </g>
    <g id="Guides" stroke="rgb(39, 170, 225)" stroke-width="0.5">
        <path id="Capline-S" d="M18,76 l800,0" />
        <path id="H-reference" d="M85,145.755 L87.685,145.755 L113.369,79.287 L114.052,79.287 L114.052,76 L112.148,76 L85,145.755 Z M95.693,121.536 L130.996,121.536 L130.263,119.313 L96.474,119.313 L95.693,121.536 Z M139.15,145.755 L141.787,145.755 L114.638,76 L113.466,76 L113.466,79.287 L139.15,145.755 Z" stroke="none" transform="translate(0,0)" />
        <path id="Baseline-S" d="M18,146 l800,0" />
        <path id="left-margin-Ultralight-S" d="M221,56 l0,110" />
        <path id="right-margin-Ultralight-S" d="M309,56 l0,110" />
        <path id="left-margin-Regular-S" d="M421,56 l0,110" />
        <path id="right-margin-Regular-S" d="M509,56 l0,110" />
        <path id="left-margin-Black-S" d="M621,56 l0,110" />
        <path id="right-margin-Black-S" d="M709,56 l0,110" />
        <path id="Capline-M" d="M18,276 l800,0" />
        <path id="Baseline-M" d="M18,346 l800,0" />
        <path id="Capline-L" d="M18,476 l800,0" />
        <path id="Baseline-L" d="M18,546 l800,0" />
    </g>
    <g id="Symbols">
        <g id="Ultralight-S" transform="translate(0,0)">
            <path d="M289,91 L289,95 L253,95 L253,91 Z" />
            <path d="M289,127 L289,131 L253,131 L253,127 Z" />
            <path d="M289,109 L289,113 L253,113 L253,109 Z" />
            <path d="M245,109 L245,113 L241,113 L241,109 Z" />
            <path d="M245,91 L245,95 L241,95 L241,91 Z" />
            <path d="M245,127 L245,131 L241,131 L241,127 Z" />
        </g>
        <g id="Regular-S" transform="translate(0,0)">
            <path d="M489,91 L489,95 L453,95 L453,91 Z" />
            <path d="M489,127 L489,131 L453,131 L453,127 Z" />
            <path d="M489,109 L489,113 L453,113 L453,109 Z" />
            <path d="M445,109 L445,113 L441,113 L441,109 Z" />
            <path d="M445,91 L445,95 L441,95 L441,91 Z" />
            <path d="M445,127 L445,131 L441,131 L441,127 Z" />
        </g>
        <g id="Black-S" transform="translate(0,0)">
            <path d="M689,91 L689,95 L653,95 L653,91 Z" />
            <path d="M689,127 L689,131 L653,131 L653,127 Z" />
            <path d="M689,109 L689,113 L653,113 L653,109 Z" />
            <path d="M645,109 L645,113 L641,113 L641,109 Z" />
            <path d="M645,91 L645,95 L641,95 L641,91 Z" />
            <path d="M645,127 L645,131 L641,131 L641,127 Z" />
        </g>
    </g>
</svg>