<?xml version="1.0" encoding="UTF-8"?>
<svg height="600" width="800" xmlns="http://www.w3.org/2000/svg" xmlns:xlink="http://www.w3.org/1999/xlink">
    <style>
        .cls-1 { fill: none }
    </style>
    <g id="Notes" font-family="LucidaGrande, 'Lucida Grande', sans-serif" font-size="13">
        <rect fill="white" height="600.0" width="800.0" x="0.0" y="0.0" />
        <g font-size="13">
            <text x="18.0" y="176.0">Small</text>
            <text x="18.0" y="376.0">Medium</text>
            <text x="18.0" y="576.0">Large</text>
        </g>
        <g font-size="9">
            <text x="250.0" y="30.0">Ultralight</text>
            <text x="450.0" y="30.0">Regular</text>
            <text x="650.0" y="30.0">Black</text>
            <text id="template-version" fill="#505050" text-anchor="end" x="785.0" y="575.0">Template v.3.0</text>
            <a href="https://github.com/swhitty/SwiftDraw">
                <text fill="#505050" text-anchor="end" x="785.0" y="590.0">https://github.com/swhitty/SwiftDraw</text>
            </a>
        </g>
    </g>
    <g id="Guides" stroke="rgb(39, 170, 225)" stroke-width="0.5">
        <path id="Capline-S" d="M18,76 l800,0" />
        <path id="H-reference" d="M85,145.755 L87.685,145.755 L113.369,79.287 L114.052,79.287 L114.052,76 L112.148,76 L85,145.755 Z M95.693,121.536 L130.996,121.536 L130.263,119.313 L96.474,119.313 L95.693,121.536 Z M139.15,145.755 L141.787,145.755 L114.638,76 L113.466,76 L113.466,79.287 L139.15,145.755 Z" stroke="none" transform="translate(0,0)" />
        <path id="Baseline-S" d="M18,146 l800,0" />
        <path id="left-margin-Ultralight-S" d="M221,56 l0,110" />
        <path id="right-margin-Ultralight-S" d="M309,56 l0,110" />
        <path id="left-margin-Regular-S" d="M421,56 l0,110" />
        <path id="right-margin-Regular-S" d="M509,56 l0,110" />
        <path id="left-margin-Black-S" d="M621,56 l0,110" />
        <path id="right-margin-Black-S" d="M709,56 l0,110" />
        <path id="Capline-M" d="M18,276 l800,0" />
        <path id="Baseline-M" d="M18,346 l800,0" />
        <path id="Capline-L" d="M18,476 l800,0" />
        <path id="Baseline-L" d="M18,546 l800,0" />
    </g>
    <g id="Symbols">
        <g id="Ultralight-S" transform="translate(0,0)">
            <path d="M290.667,136.667 L276,136.667 L276,122 L290.667,122 Z M279.667,133 L287,133 L287,125.667 L279.667,125.667 Z" />
            <path d="M272.333,131.167 L250.333,131.167 C244.258,131.167 239.333,126.242 239.333,120.167 C239.333,114.092 244.258,109.167 250.333,109.167 L254,109.167 L254,112.833 L250.333,112.833 C246.283,112.833 243,116.117 243,120.167 C243,124.217 246.283,127.5 250.333,127.5 L272.333,127.5 Z" />
            <path d="M272.333,118.333 L257.667,118.333 L257.667,103.667 L272.333,103.667 Z M261.333,114.667 L268.667,114.667 L268.667,107.333 L261.333,107.333 Z" />
            <path d="M279.667,112.833 L276,112.833 L276,109.167 L279.667,109.167 C283.717,109.167 287,105.883 287,101.833 C287,97.783 283.717,94.5 279.667,94.5 L257.667,94.5 L257.667,90.833 L279.667,90.833 C285.742,90.833 290.667,95.758 290.667,101.833 C290.667,107.908 285.742,112.833 279.667,112.833 Z" />
            <path d="M254,100 L239.333,100 L239.333,85.333 L254,85.333 Z M243,96.333 L250.333,96.333 L250.333,89 L243,89 Z" />
        </g>
        <g id="Regular-S" transform="translate(0,0)">
            <path d="M490.667,136.667 L476,136.667 L476,122 L490.667,122 Z M479.667,133 L487,133 L487,125.667 L479.667,125.667 Z" />
            <path d="M472.333,131.167 L450.333,131.167 C444.258,131.167 439.333,126.242 439.333,120.167 C439.333,114.092 444.258,109.167 450.333,109.167 L454,109.167 L454,112.833 L450.333,112.833 C446.283,112.833 443,116.117 443,120.167 C443,124.217 446.283,127.5 450.333,127.5 L472.333,127.5 Z" />
            <path d="M472.333,118.333 L457.667,118.333 L457.667,103.667 L472.333,103.667 Z M461.333,114.667 L468.667,114.667 L468.667,107.333 L461.333,107.333 Z" />
            <path d="M479.667,112.833 L476,112.833 L476,109.167 L479.667,109.167 C483.717,109.167 487,105.883 487,101.833 C487,97.783 483.717,94.5 479.667,94.5 L457.667,94.5 L457.667,90.833 L479.667,90.833 C485.742,90.833 490.667,95.758 490.667,101.833 C490.667,107.908 485.742,112.833 479.667,112.833 Z" />
            <path d="M454,100 L439.333,100 L439.333,85.333 L454,85.333 Z M443,96.333 L450.333,96.333 L450.333,89 L443,89 Z" />
        </g>
        <g id="Black-S" transform="translate(0,0)">
            <path d="M690.667,136.667 L676,136.667 L676,122 L690.667,122 Z M679.667,133 L687,133 L687,125.667 L679.667,125.667 Z" />
            <path d="M672.333,131.167 L650.333,131.167 C644.258,131.167 639.333,126.242 639.333,120.167 C639.333,114.092 644.258,109.167 650.333,109.167 L654,109.167 L654,112.833 L650.333,112.833 C646.283,112.833 643,116.117 643,120.167 C643,124.217 646.283,127.5 650.333,127.5 L672.333,127.5 Z" />
            <path d="M672.333,118.333 L657.667,118.333 L657.667,103.667 L672.333,103.667 Z M661.333,114.667 L668.667,114.667 L668.667,107.333 L661.333,107.333 Z" />
            <path d="M679.667,112.833 L676,112.833 L676,109.167 L679.667,109.167 C683.717,109.167 687,105.883 687,101.833 C687,97.783 683.717,94.5 679.667,94.5 L657.667,94.5 L657.667,90.833 L679.667,90.833 C685.742,90.833 690.667,95.758 690.667,101.833 C690.667,107.908 685.742,112.833 679.667,112.833 Z" />
            <path d="M654,100 L639.333,100 L639.333,85.333 L654,85.333 Z M643,96.333 L650.333,96.333 L650.333,89 L643,89 Z" />
        </g>
    </g>
</svg>