<?xml version="1.0" encoding="UTF-8"?>
<svg height="600" width="800" xmlns="http://www.w3.org/2000/svg" xmlns:xlink="http://www.w3.org/1999/xlink">
    <style>
        
    </style>
    <g id="Notes" font-family="LucidaGrande, 'Lucida Grande', sans-serif" font-size="13">
        <rect fill="white" height="600.0" width="800.0" x="0.0" y="0.0" />
        <g font-size="13">
            <text x="18.0" y="176.0">Small</text>
            <text x="18.0" y="376.0">Medium</text>
            <text x="18.0" y="576.0">Large</text>
        </g>
        <g font-size="9">
            <text x="250.0" y="30.0">Ultralight</text>
            <text x="450.0" y="30.0">Regular</text>
            <text x="650.0" y="30.0">Black</text>
            <text id="template-version" fill="#505050" text-anchor="end" x="785.0" y="575.0">Template v.3.0</text>
            <a href="https://github.com/swhitty/SwiftDraw">
                <text fill="#505050" text-anchor="end" x="785.0" y="590.0">https://github.com/swhitty/SwiftDraw</text>
            </a>
        </g>
    </g>
    <g id="Guides" stroke="rgb(39, 170, 225)" stroke-width="0.5">
        <path id="Capline-S" d="M18,76 l800,0" />
        <path id="H-reference" d="M85,145.755 L87.685,145.755 L113.369,79.287 L114.052,79.287 L114.052,76 L112.148,76 L85,145.755 Z M95.693,121.536 L130.996,121.536 L130.263,119.313 L96.474,119.313 L95.693,121.536 Z M139.15,145.755 L141.787,145.755 L114.638,76 L113.466,76 L113.466,79.287 L139.15,145.755 Z" stroke="none" transform="translate(0,0)" />
        <path id="Baseline-S" d="M18,146 l800,0" />
        <path id="left-margin-Ultralight-S" d="M221,56 l0,110" />
        <path id="right-margin-Ultralight-S" d="M309,56 l0,110" />
        <path id="left-margin-Regular-S" d="M421,56 l0,110" />
        <path id="right-margin-Regular-S" d="M509,56 l0,110" />
        <path id="left-margin-Black-S" d="M621,56 l0,110" />
        <path id="right-margin-Black-S" d="M709,56 l0,110" />
        <path id="Capline-M" d="M18,276 l800,0" />
        <path id="Baseline-M" d="M18,346 l800,0" />
        <path id="Capline-L" d="M18,476 l800,0" />
        <path id="Baseline-L" d="M18,546 l800,0" />
    </g>
    <g id="Symbols">
        <g id="Ultralight-S" transform="translate(0,0)">
            <path d="M249.769,111 C249.769,109.131 251.285,107.615 253.154,107.615 C255.023,107.615 256.538,109.131 256.538,111 C256.538,112.869 255.023,114.385 253.154,114.385 C251.285,114.385 249.769,112.869 249.769,111 Z" />
            <path d="M273.462,111 C273.462,109.131 274.977,107.615 276.846,107.615 C278.715,107.615 280.231,109.131 280.231,111 C280.231,112.869 278.715,114.385 276.846,114.385 C274.977,114.385 273.462,112.869 273.462,111 Z" />
            <path d="M261.615,111 C261.615,109.131 263.131,107.615 265,107.615 C266.869,107.615 268.385,109.131 268.385,111 C268.385,112.869 266.869,114.385 265,114.385 C263.131,114.385 261.615,112.869 261.615,111 Z" />
            <path d="M265,134.692 C251.915,134.692 241.308,124.085 241.308,111 C241.308,97.915 251.915,87.308 265,87.308 C278.085,87.308 288.692,97.915 288.692,111 C288.678,124.078 278.08,134.677 265.001,134.692 Z M265,90.692 C253.784,90.692 244.692,99.784 244.692,111 C244.692,122.216 253.784,131.308 265,131.308 C276.216,131.308 285.308,122.216 285.308,111 C285.294,99.789 276.209,90.704 264.999,90.692 Z" />
            <path d="M292.077,83.923 L292.077,138.077 L237.923,138.077 L237.923,83.923 Z" />
        </g>
        <g id="Regular-S" transform="translate(0,0)">
            <path d="M449.769,111 C449.769,109.131 451.285,107.615 453.154,107.615 C455.023,107.615 456.538,109.131 456.538,111 C456.538,112.869 455.023,114.385 453.154,114.385 C451.285,114.385 449.769,112.869 449.769,111 Z" />
            <path d="M473.462,111 C473.462,109.131 474.977,107.615 476.846,107.615 C478.715,107.615 480.231,109.131 480.231,111 C480.231,112.869 478.715,114.385 476.846,114.385 C474.977,114.385 473.462,112.869 473.462,111 Z" />
            <path d="M461.615,111 C461.615,109.131 463.131,107.615 465,107.615 C466.869,107.615 468.385,109.131 468.385,111 C468.385,112.869 466.869,114.385 465,114.385 C463.131,114.385 461.615,112.869 461.615,111 Z" />
            <path d="M465,134.692 C451.915,134.692 441.308,124.085 441.308,111 C441.308,97.915 451.915,87.308 465,87.308 C478.085,87.308 488.692,97.915 488.692,111 C488.678,124.078 478.08,134.677 465.001,134.692 Z M465,90.692 C453.784,90.692 444.692,99.784 444.692,111 C444.692,122.216 453.784,131.308 465,131.308 C476.216,131.308 485.308,122.216 485.308,111 C485.294,99.789 476.209,90.704 464.999,90.692 Z" />
            <path d="M492.077,83.923 L492.077,138.077 L437.923,138.077 L437.923,83.923 Z" />
        </g>
        <g id="Black-S" transform="translate(0,0)">
            <path d="M649.769,111 C649.769,109.131 651.285,107.615 653.154,107.615 C655.023,107.615 656.538,109.131 656.538,111 C656.538,112.869 655.023,114.385 653.154,114.385 C651.285,114.385 649.769,112.869 649.769,111 Z" />
            <path d="M673.462,111 C673.462,109.131 674.977,107.615 676.846,107.615 C678.715,107.615 680.231,109.131 680.231,111 C680.231,112.869 678.715,114.385 676.846,114.385 C674.977,114.385 673.462,112.869 673.462,111 Z" />
            <path d="M661.615,111 C661.615,109.131 663.131,107.615 665,107.615 C666.869,107.615 668.385,109.131 668.385,111 C668.385,112.869 666.869,114.385 665,114.385 C663.131,114.385 661.615,112.869 661.615,111 Z" />
            <path d="M665,134.692 C651.915,134.692 641.308,124.085 641.308,111 C641.308,97.915 651.915,87.308 665,87.308 C678.085,87.308 688.692,97.915 688.692,111 C688.678,124.078 678.08,134.677 665.001,134.692 Z M665,90.692 C653.784,90.692 644.692,99.784 644.692,111 C644.692,122.216 653.784,131.308 665,131.308 C676.216,131.308 685.308,122.216 685.308,111 C685.294,99.789 676.209,90.704 664.999,90.692 Z" />
            <path d="M692.077,83.923 L692.077,138.077 L637.923,138.077 L637.923,83.923 Z" />
        </g>
    </g>
</svg>