<?xml version="1.0" encoding="UTF-8"?>
<svg height="600" width="800" xmlns="http://www.w3.org/2000/svg" xmlns:xlink="http://www.w3.org/1999/xlink">
    <style>
        .cls-1 { fill: none }
    </style>
    <g id="Notes" font-family="LucidaGrande, 'Lucida Grande', sans-serif" font-size="13">
        <rect fill="white" height="600.0" width="800.0" x="0.0" y="0.0" />
        <g font-size="13">
            <text x="18.0" y="176.0">Small</text>
            <text x="18.0" y="376.0">Medium</text>
            <text x="18.0" y="576.0">Large</text>
        </g>
        <g font-size="9">
            <text x="250.0" y="30.0">Ultralight</text>
            <text x="450.0" y="30.0">Regular</text>
            <text x="650.0" y="30.0">Black</text>
            <text id="template-version" fill="#505050" text-anchor="end" x="785.0" y="575.0">Template v.3.0</text>
            <a href="https://github.com/swhitty/SwiftDraw">
                <text fill="#505050" text-anchor="end" x="785.0" y="590.0">https://github.com/swhitty/SwiftDraw</text>
            </a>
        </g>
    </g>
    <g id="Guides" stroke="rgb(39, 170, 225)" stroke-width="0.5">
        <path id="Capline-S" d="M18,76 l800,0" />
        <path id="H-reference" d="M85,145.755 L87.685,145.755 L113.369,79.287 L114.052,79.287 L114.052,76 L112.148,76 L85,145.755 Z M95.693,121.536 L130.996,121.536 L130.263,119.313 L96.474,119.313 L95.693,121.536 Z M139.15,145.755 L141.787,145.755 L114.638,76 L113.466,76 L113.466,79.287 L139.15,145.755 Z" stroke="none" transform="translate(0,0)" />
        <path id="Baseline-S" d="M18,146 l800,0" />
        <path id="left-margin-Ultralight-S" d="M221,56 l0,110" />
        <path id="right-margin-Ultralight-S" d="M309,56 l0,110" />
        <path id="left-margin-Regular-S" d="M421,56 l0,110" />
        <path id="right-margin-Regular-S" d="M509,56 l0,110" />
        <path id="left-margin-Black-S" d="M621,56 l0,110" />
        <path id="right-margin-Black-S" d="M709,56 l0,110" />
        <path id="Capline-M" d="M18,276 l800,0" />
        <path id="Baseline-M" d="M18,346 l800,0" />
        <path id="Capline-L" d="M18,476 l800,0" />
        <path id="Baseline-L" d="M18,546 l800,0" />
    </g>
    <g id="Symbols">
        <g id="Ultralight-S" transform="translate(0,0)">
            <path d="M272.333,118.333 L257.667,118.333 C256.694,118.333 255.762,117.947 255.074,117.259 C254.386,116.572 254,115.639 254,114.667 L254,111 C254,110.028 254.386,109.095 255.074,108.407 C255.762,107.72 256.694,107.333 257.667,107.333 L272.333,107.333 C273.306,107.333 274.238,107.72 274.926,108.407 C275.614,109.095 276,110.028 276,111 L276,114.667 C276,115.639 275.614,116.572 274.926,117.259 C274.238,117.947 273.306,118.333 272.333,118.333 Z M257.667,111 L257.667,114.667 L272.333,114.667 L272.333,111 Z" />
            <path d="M287,87.167 L243,87.167 C242.028,87.167 241.095,87.553 240.407,88.241 C239.72,88.928 239.333,89.861 239.333,90.833 L239.333,98.167 C239.333,99.139 239.72,100.072 240.407,100.759 C241.095,101.447 242.028,101.833 243,101.833 L243,131.167 C243,132.139 243.386,133.072 244.074,133.759 C244.762,134.447 245.694,134.833 246.667,134.833 L283.333,134.833 C284.306,134.833 285.238,134.447 285.926,133.759 C286.614,133.072 287,132.139 287,131.167 L287,101.833 C287.972,101.833 288.905,101.447 289.593,100.759 C290.28,100.072 290.667,99.139 290.667,98.167 L290.667,90.833 C290.667,89.861 290.28,88.928 289.593,88.241 C288.905,87.553 287.972,87.167 287,87.167 Z M283.333,131.167 L246.667,131.167 L246.667,101.833 L283.333,101.833 Z M287,98.167 L243,98.167 L243,90.833 L287,90.833 L287,98.167 Z" />
        </g>
        <g id="Regular-S" transform="translate(0,0)">
            <path d="M472.333,118.333 L457.667,118.333 C456.694,118.333 455.762,117.947 455.074,117.259 C454.386,116.572 454,115.639 454,114.667 L454,111 C454,110.028 454.386,109.095 455.074,108.407 C455.762,107.72 456.694,107.333 457.667,107.333 L472.333,107.333 C473.306,107.333 474.238,107.72 474.926,108.407 C475.614,109.095 476,110.028 476,111 L476,114.667 C476,115.639 475.614,116.572 474.926,117.259 C474.238,117.947 473.306,118.333 472.333,118.333 Z M457.667,111 L457.667,114.667 L472.333,114.667 L472.333,111 Z" />
            <path d="M487,87.167 L443,87.167 C442.028,87.167 441.095,87.553 440.407,88.241 C439.72,88.928 439.333,89.861 439.333,90.833 L439.333,98.167 C439.333,99.139 439.72,100.072 440.407,100.759 C441.095,101.447 442.028,101.833 443,101.833 L443,131.167 C443,132.139 443.386,133.072 444.074,133.759 C444.762,134.447 445.694,134.833 446.667,134.833 L483.333,134.833 C484.306,134.833 485.238,134.447 485.926,133.759 C486.614,133.072 487,132.139 487,131.167 L487,101.833 C487.972,101.833 488.905,101.447 489.593,100.759 C490.28,100.072 490.667,99.139 490.667,98.167 L490.667,90.833 C490.667,89.861 490.28,88.928 489.593,88.241 C488.905,87.553 487.972,87.167 487,87.167 Z M483.333,131.167 L446.667,131.167 L446.667,101.833 L483.333,101.833 Z M487,98.167 L443,98.167 L443,90.833 L487,90.833 L487,98.167 Z" />
        </g>
        <g id="Black-S" transform="translate(0,0)">
            <path d="M672.333,118.333 L657.667,118.333 C656.694,118.333 655.762,117.947 655.074,117.259 C654.386,116.572 654,115.639 654,114.667 L654,111 C654,110.028 654.386,109.095 655.074,108.407 C655.762,107.72 656.694,107.333 657.667,107.333 L672.333,107.333 C673.306,107.333 674.238,107.72 674.926,108.407 C675.614,109.095 676,110.028 676,111 L676,114.667 C676,115.639 675.614,116.572 674.926,117.259 C674.238,117.947 673.306,118.333 672.333,118.333 Z M657.667,111 L657.667,114.667 L672.333,114.667 L672.333,111 Z" />
            <path d="M687,87.167 L643,87.167 C642.028,87.167 641.095,87.553 640.407,88.241 C639.72,88.928 639.333,89.861 639.333,90.833 L639.333,98.167 C639.333,99.139 639.72,100.072 640.407,100.759 C641.095,101.447 642.028,101.833 643,101.833 L643,131.167 C643,132.139 643.386,133.072 644.074,133.759 C644.762,134.447 645.694,134.833 646.667,134.833 L683.333,134.833 C684.306,134.833 685.238,134.447 685.926,133.759 C686.614,133.072 687,132.139 687,131.167 L687,101.833 C687.972,101.833 688.905,101.447 689.593,100.759 C690.28,100.072 690.667,99.139 690.667,98.167 L690.667,90.833 C690.667,89.861 690.28,88.928 689.593,88.241 C688.905,87.553 687.972,87.167 687,87.167 Z M683.333,131.167 L646.667,131.167 L646.667,101.833 L683.333,101.833 Z M687,98.167 L643,98.167 L643,90.833 L687,90.833 L687,98.167 Z" />
        </g>
    </g>
</svg>