<?xml version="1.0" encoding="UTF-8"?>
<svg height="600" width="800" xmlns="http://www.w3.org/2000/svg" xmlns:xlink="http://www.w3.org/1999/xlink">
    <style>
        .cls-1 { fill: none }
    </style>
    <g id="Notes" font-family="LucidaGrande, 'Lucida Grande', sans-serif" font-size="13">
        <rect fill="white" height="600.0" width="800.0" x="0.0" y="0.0" />
        <g font-size="13">
            <text x="18.0" y="176.0">Small</text>
            <text x="18.0" y="376.0">Medium</text>
            <text x="18.0" y="576.0">Large</text>
        </g>
        <g font-size="9">
            <text x="250.0" y="30.0">Ultralight</text>
            <text x="450.0" y="30.0">Regular</text>
            <text x="650.0" y="30.0">Black</text>
            <text id="template-version" fill="#505050" text-anchor="end" x="785.0" y="575.0">Template v.3.0</text>
            <a href="https://github.com/swhitty/SwiftDraw">
                <text fill="#505050" text-anchor="end" x="785.0" y="590.0">https://github.com/swhitty/SwiftDraw</text>
            </a>
        </g>
    </g>
    <g id="Guides" stroke="rgb(39, 170, 225)" stroke-width="0.5">
        <path id="Capline-S" d="M18,76 l800,0" />
        <path id="H-reference" d="M85,145.755 L87.685,145.755 L113.369,79.287 L114.052,79.287 L114.052,76 L112.148,76 L85,145.755 Z M95.693,121.536 L130.996,121.536 L130.263,119.313 L96.474,119.313 L95.693,121.536 Z M139.15,145.755 L141.787,145.755 L114.638,76 L113.466,76 L113.466,79.287 L139.15,145.755 Z" stroke="none" transform="translate(0,0)" />
        <path id="Baseline-S" d="M18,146 l800,0" />
        <path id="left-margin-Ultralight-S" d="M221,56 l0,110" />
        <path id="right-margin-Ultralight-S" d="M309,56 l0,110" />
        <path id="left-margin-Regular-S" d="M421,56 l0,110" />
        <path id="right-margin-Regular-S" d="M509,56 l0,110" />
        <path id="left-margin-Black-S" d="M621,56 l0,110" />
        <path id="right-margin-Black-S" d="M709,56 l0,110" />
        <path id="Capline-M" d="M18,276 l800,0" />
        <path id="Baseline-M" d="M18,346 l800,0" />
        <path id="Capline-L" d="M18,476 l800,0" />
        <path id="Baseline-L" d="M18,546 l800,0" />
    </g>
    <g id="Symbols">
        <g id="Ultralight-S" transform="translate(0,0)">
            <path d="M254.997,83.007 L254.997,103.005 L250.997,103.005 L250.997,83.007 Z" />
            <path d="M260.996,101.005 C260.996,105.423 257.415,109.005 252.997,109.005 C248.579,109.005 244.998,105.423 244.998,101.005 L244.998,83.007 L240.998,83.007 L240.998,101.005 C241.004,106.855 245.228,111.849 250.997,112.824 L250.997,139.002 L254.996,139.002 L254.996,112.824 C260.765,111.849 264.99,106.856 264.996,101.005 L264.996,83.007 L260.996,83.007 Z" />
            <path d="M276.994,83.007 L274.995,83.007 L274.995,139.002 L278.994,139.002 L278.994,119.004 L284.994,119.004 C286.054,119.004 287.072,118.582 287.822,117.832 C288.572,117.082 288.993,116.065 288.993,115.004 L288.993,95.006 C289.118,91.787 287.894,88.662 285.616,86.384 C283.339,84.106 280.213,82.882 276.994,83.007 Z M284.994,115.004 L278.994,115.004 L278.994,87.187 C284.754,88.307 284.994,94.266 284.994,95.006 Z" />
        </g>
        <g id="Regular-S" transform="translate(0,0)">
            <path d="M454.997,83.007 L454.997,103.005 L450.997,103.005 L450.997,83.007 Z" />
            <path d="M460.996,101.005 C460.996,105.423 457.415,109.005 452.997,109.005 C448.579,109.005 444.998,105.423 444.998,101.005 L444.998,83.007 L440.998,83.007 L440.998,101.005 C441.004,106.855 445.228,111.849 450.997,112.824 L450.997,139.002 L454.996,139.002 L454.996,112.824 C460.765,111.849 464.99,106.856 464.996,101.005 L464.996,83.007 L460.996,83.007 Z" />
            <path d="M476.994,83.007 L474.995,83.007 L474.995,139.002 L478.994,139.002 L478.994,119.004 L484.994,119.004 C486.054,119.004 487.072,118.582 487.822,117.832 C488.572,117.082 488.993,116.065 488.993,115.004 L488.993,95.006 C489.118,91.787 487.894,88.662 485.616,86.384 C483.339,84.106 480.213,82.882 476.994,83.007 Z M484.994,115.004 L478.994,115.004 L478.994,87.187 C484.754,88.307 484.994,94.266 484.994,95.006 Z" />
        </g>
        <g id="Black-S" transform="translate(0,0)">
            <path d="M654.997,83.007 L654.997,103.005 L650.997,103.005 L650.997,83.007 Z" />
            <path d="M660.996,101.005 C660.996,105.423 657.415,109.005 652.997,109.005 C648.579,109.005 644.998,105.423 644.998,101.005 L644.998,83.007 L640.998,83.007 L640.998,101.005 C641.004,106.855 645.228,111.849 650.997,112.824 L650.997,139.002 L654.996,139.002 L654.996,112.824 C660.765,111.849 664.99,106.856 664.996,101.005 L664.996,83.007 L660.996,83.007 Z" />
            <path d="M676.994,83.007 L674.995,83.007 L674.995,139.002 L678.994,139.002 L678.994,119.004 L684.994,119.004 C686.054,119.004 687.072,118.582 687.822,117.832 C688.572,117.082 688.993,116.065 688.993,115.004 L688.993,95.006 C689.118,91.787 687.894,88.662 685.616,86.384 C683.339,84.106 680.213,82.882 676.994,83.007 Z M684.994,115.004 L678.994,115.004 L678.994,87.187 C684.754,88.307 684.994,94.266 684.994,95.006 Z" />
        </g>
    </g>
</svg>