<?xml version="1.0" encoding="UTF-8"?>
<svg height="600" width="800" xmlns="http://www.w3.org/2000/svg" xmlns:xlink="http://www.w3.org/1999/xlink">
    <style>
        .st0 { fill: none }
    </style>
    <g id="Notes" font-family="LucidaGrande, 'Lucida Grande', sans-serif" font-size="13">
        <rect fill="white" height="600.0" width="800.0" x="0.0" y="0.0" />
        <g font-size="13">
            <text x="18.0" y="176.0">Small</text>
            <text x="18.0" y="376.0">Medium</text>
            <text x="18.0" y="576.0">Large</text>
        </g>
        <g font-size="9">
            <text x="250.0" y="30.0">Ultralight</text>
            <text x="450.0" y="30.0">Regular</text>
            <text x="650.0" y="30.0">Black</text>
            <text id="template-version" fill="#505050" text-anchor="end" x="785.0" y="575.0">Template v.3.0</text>
            <a href="https://github.com/swhitty/SwiftDraw">
                <text fill="#505050" text-anchor="end" x="785.0" y="590.0">https://github.com/swhitty/SwiftDraw</text>
            </a>
        </g>
    </g>
    <g id="Guides" stroke="rgb(39, 170, 225)" stroke-width="0.5">
        <path id="Capline-S" d="M18,76 l800,0" />
        <path id="H-reference" d="M85,145.755 L87.685,145.755 L113.369,79.287 L114.052,79.287 L114.052,76 L112.148,76 L85,145.755 Z M95.693,121.536 L130.996,121.536 L130.263,119.313 L96.474,119.313 L95.693,121.536 Z M139.15,145.755 L141.787,145.755 L114.638,76 L113.466,76 L113.466,79.287 L139.15,145.755 Z" stroke="none" transform="translate(0,0)" />
        <path id="Baseline-S" d="M18,146 l800,0" />
        <path id="left-margin-Ultralight-S" d="M221,56 l0,110" />
        <path id="right-margin-Ultralight-S" d="M309,56 l0,110" />
        <path id="left-margin-Regular-S" d="M421,56 l0,110" />
        <path id="right-margin-Regular-S" d="M509,56 l0,110" />
        <path id="left-margin-Black-S" d="M621,56 l0,110" />
        <path id="right-margin-Black-S" d="M709,56 l0,110" />
        <path id="Capline-M" d="M18,276 l800,0" />
        <path id="Baseline-M" d="M18,346 l800,0" />
        <path id="Capline-L" d="M18,476 l800,0" />
        <path id="Baseline-L" d="M18,546 l800,0" />
    </g>
    <g id="Symbols">
        <g id="Ultralight-S" transform="translate(0,0)">
            <path d="M243,111 C243,108.57 244.97,106.6 247.4,106.6 C249.83,106.6 251.8,108.57 251.8,111 C251.8,113.43 249.83,115.4 247.4,115.4 C244.97,115.4 243,113.43 243,111 Z" />
            <path d="M260.6,111 C260.6,108.57 262.57,106.6 265,106.6 C267.43,106.6 269.4,108.57 269.4,111 C269.4,113.43 267.43,115.4 265,115.4 C262.57,115.4 260.6,113.43 260.6,111 Z" />
            <path d="M278.2,111 C278.2,108.57 280.17,106.6 282.6,106.6 C285.03,106.6 287,108.57 287,111 C287,113.43 285.03,115.4 282.6,115.4 C280.17,115.4 278.2,113.43 278.2,111 Z" />
        </g>
        <g id="Regular-S" transform="translate(0,0)">
            <path d="M443,111 C443,108.57 444.97,106.6 447.4,106.6 C449.83,106.6 451.8,108.57 451.8,111 C451.8,113.43 449.83,115.4 447.4,115.4 C444.97,115.4 443,113.43 443,111 Z" />
            <path d="M460.6,111 C460.6,108.57 462.57,106.6 465,106.6 C467.43,106.6 469.4,108.57 469.4,111 C469.4,113.43 467.43,115.4 465,115.4 C462.57,115.4 460.6,113.43 460.6,111 Z" />
            <path d="M478.2,111 C478.2,108.57 480.17,106.6 482.6,106.6 C485.03,106.6 487,108.57 487,111 C487,113.43 485.03,115.4 482.6,115.4 C480.17,115.4 478.2,113.43 478.2,111 Z" />
        </g>
        <g id="Black-S" transform="translate(0,0)">
            <path d="M643,111 C643,108.57 644.97,106.6 647.4,106.6 C649.83,106.6 651.8,108.57 651.8,111 C651.8,113.43 649.83,115.4 647.4,115.4 C644.97,115.4 643,113.43 643,111 Z" />
            <path d="M660.6,111 C660.6,108.57 662.57,106.6 665,106.6 C667.43,106.6 669.4,108.57 669.4,111 C669.4,113.43 667.43,115.4 665,115.4 C662.57,115.4 660.6,113.43 660.6,111 Z" />
            <path d="M678.2,111 C678.2,108.57 680.17,106.6 682.6,106.6 C685.03,106.6 687,108.57 687,111 C687,113.43 685.03,115.4 682.6,115.4 C680.17,115.4 678.2,113.43 678.2,111 Z" />
        </g>
    </g>
</svg>