<?xml version="1.0" encoding="UTF-8"?>
<svg height="600" width="800" xmlns="http://www.w3.org/2000/svg" xmlns:xlink="http://www.w3.org/1999/xlink">
    <style>
        .cls-1 { fill: none }
    </style>
    <g id="Notes" font-family="LucidaGrande, 'Lucida Grande', sans-serif" font-size="13">
        <rect fill="white" height="600.0" width="800.0" x="0.0" y="0.0" />
        <g font-size="13">
            <text x="18.0" y="176.0">Small</text>
            <text x="18.0" y="376.0">Medium</text>
            <text x="18.0" y="576.0">Large</text>
        </g>
        <g font-size="9">
            <text x="250.0" y="30.0">Ultralight</text>
            <text x="450.0" y="30.0">Regular</text>
            <text x="650.0" y="30.0">Black</text>
            <text id="template-version" fill="#505050" text-anchor="end" x="785.0" y="575.0">Template v.3.0</text>
            <a href="https://github.com/swhitty/SwiftDraw">
                <text fill="#505050" text-anchor="end" x="785.0" y="590.0">https://github.com/swhitty/SwiftDraw</text>
            </a>
        </g>
    </g>
    <g id="Guides" stroke="rgb(39, 170, 225)" stroke-width="0.5">
        <path id="Capline-S" d="M18,76 l800,0" />
        <path id="H-reference" d="M85,145.755 L87.685,145.755 L113.369,79.287 L114.052,79.287 L114.052,76 L112.148,76 L85,145.755 Z M95.693,121.536 L130.996,121.536 L130.263,119.313 L96.474,119.313 L95.693,121.536 Z M139.15,145.755 L141.787,145.755 L114.638,76 L113.466,76 L113.466,79.287 L139.15,145.755 Z" stroke="none" transform="translate(0,0)" />
        <path id="Baseline-S" d="M18,146 l800,0" />
        <path id="left-margin-Ultralight-S" d="M221,56 l0,110" />
        <path id="right-margin-Ultralight-S" d="M309,56 l0,110" />
        <path id="left-margin-Regular-S" d="M421,56 l0,110" />
        <path id="right-margin-Regular-S" d="M509,56 l0,110" />
        <path id="left-margin-Black-S" d="M621,56 l0,110" />
        <path id="right-margin-Black-S" d="M709,56 l0,110" />
        <path id="Capline-M" d="M18,276 l800,0" />
        <path id="Baseline-M" d="M18,346 l800,0" />
        <path id="Capline-L" d="M18,476 l800,0" />
        <path id="Baseline-L" d="M18,546 l800,0" />
    </g>
    <g id="Symbols">
        <g id="Ultralight-S" transform="translate(0,0)">
            <path d="M278.773,121.994 L251.227,121.994 C245.128,121.955 240.039,117.326 239.426,111.258 C238.812,105.19 242.872,99.636 248.839,98.377 C250.473,90.758 257.207,85.314 265,85.314 C272.793,85.314 279.527,90.758 281.161,98.377 C287.128,99.636 291.188,105.19 290.574,111.258 C289.961,117.326 284.872,121.955 278.773,121.994 Z M265,88.938 C258.516,88.944 253.052,93.779 252.255,100.214 L252.145,101.793 L250.565,101.793 C246.001,101.976 242.449,105.824 242.632,110.388 C242.815,114.952 246.662,118.504 251.227,118.321 L278.773,118.321 C283.338,118.504 287.185,114.952 287.368,110.388 C287.551,105.824 283.999,101.976 279.435,101.793 L277.855,101.793 L277.672,100.287 C276.913,93.851 271.481,88.986 265,88.938 Z" />
            <path d="M261.327,136.686 C261.039,136.689 260.755,136.62 260.501,136.484 C259.6,136.025 259.239,134.926 259.693,134.023 L263.366,126.677 C263.63,126.042 264.228,125.607 264.914,125.552 C265.6,125.497 266.26,125.831 266.622,126.416 C266.985,127.001 266.989,127.74 266.634,128.33 L262.962,135.676 C262.65,136.293 262.019,136.684 261.327,136.686 Z" />
            <path d="M272.346,136.686 C272.058,136.689 271.773,136.62 271.519,136.484 C270.619,136.025 270.258,134.926 270.711,134.023 L274.384,126.677 C274.649,126.042 275.247,125.607 275.933,125.552 C276.619,125.497 277.278,125.831 277.641,126.416 C278.003,127.001 278.008,127.74 277.653,128.33 L273.98,135.676 C273.669,136.293 273.037,136.684 272.346,136.686 Z" />
            <path d="M250.308,136.686 C250.02,136.689 249.736,136.62 249.482,136.484 C248.581,136.025 248.22,134.926 248.674,134.023 L252.347,126.677 C252.611,126.042 253.209,125.607 253.895,125.552 C254.582,125.497 255.241,125.831 255.603,126.416 C255.966,127.001 255.971,127.74 255.616,128.33 L251.943,135.676 C251.632,136.293 251,136.684 250.308,136.686 Z" />
        </g>
        <g id="Regular-S" transform="translate(0,0)">
            <path d="M478.773,121.994 L451.227,121.994 C445.128,121.955 440.039,117.326 439.426,111.258 C438.812,105.19 442.872,99.636 448.839,98.377 C450.473,90.758 457.207,85.314 465,85.314 C472.793,85.314 479.527,90.758 481.161,98.377 C487.128,99.636 491.188,105.19 490.574,111.258 C489.961,117.326 484.872,121.955 478.773,121.994 Z M465,88.938 C458.516,88.944 453.052,93.779 452.255,100.214 L452.145,101.793 L450.565,101.793 C446.001,101.976 442.449,105.824 442.632,110.388 C442.815,114.952 446.662,118.504 451.227,118.321 L478.773,118.321 C483.338,118.504 487.185,114.952 487.368,110.388 C487.551,105.824 483.999,101.976 479.435,101.793 L477.855,101.793 L477.672,100.287 C476.913,93.851 471.481,88.986 465,88.938 Z" />
            <path d="M461.327,136.686 C461.039,136.689 460.755,136.62 460.501,136.484 C459.6,136.025 459.239,134.926 459.693,134.023 L463.366,126.677 C463.63,126.042 464.228,125.607 464.914,125.552 C465.6,125.497 466.26,125.831 466.622,126.416 C466.985,127.001 466.989,127.74 466.634,128.33 L462.962,135.676 C462.65,136.293 462.019,136.684 461.327,136.686 Z" />
            <path d="M472.346,136.686 C472.058,136.689 471.773,136.62 471.519,136.484 C470.619,136.025 470.258,134.926 470.711,134.023 L474.384,126.677 C474.649,126.042 475.247,125.607 475.933,125.552 C476.619,125.497 477.278,125.831 477.641,126.416 C478.003,127.001 478.008,127.74 477.653,128.33 L473.98,135.676 C473.669,136.293 473.037,136.684 472.346,136.686 Z" />
            <path d="M450.308,136.686 C450.02,136.689 449.736,136.62 449.482,136.484 C448.582,136.025 448.22,134.926 448.674,134.023 L452.347,126.677 C452.611,126.042 453.209,125.607 453.895,125.552 C454.582,125.497 455.241,125.831 455.603,126.416 C455.966,127.001 455.971,127.74 455.616,128.33 L451.943,135.676 C451.632,136.293 451,136.684 450.308,136.686 Z" />
        </g>
        <g id="Black-S" transform="translate(0,0)">
            <path d="M678.773,121.994 L651.227,121.994 C645.128,121.955 640.039,117.326 639.426,111.258 C638.812,105.19 642.872,99.636 648.839,98.377 C650.473,90.758 657.207,85.314 665,85.314 C672.793,85.314 679.527,90.758 681.161,98.377 C687.128,99.636 691.188,105.19 690.574,111.258 C689.961,117.326 684.872,121.955 678.773,121.994 Z M665,88.938 C658.516,88.944 653.052,93.779 652.255,100.214 L652.145,101.793 L650.565,101.793 C646.001,101.976 642.449,105.824 642.632,110.388 C642.815,114.952 646.662,118.504 651.227,118.321 L678.773,118.321 C683.338,118.504 687.185,114.952 687.368,110.388 C687.551,105.824 683.999,101.976 679.435,101.793 L677.855,101.793 L677.672,100.287 C676.913,93.851 671.481,88.986 665,88.938 Z" />
            <path d="M661.327,136.686 C661.039,136.689 660.755,136.62 660.501,136.484 C659.6,136.025 659.239,134.926 659.693,134.023 L663.366,126.677 C663.63,126.042 664.228,125.607 664.914,125.552 C665.6,125.497 666.26,125.831 666.622,126.416 C666.985,127.001 666.989,127.74 666.634,128.33 L662.962,135.676 C662.65,136.293 662.019,136.684 661.327,136.686 Z" />
            <path d="M672.346,136.686 C672.058,136.689 671.773,136.62 671.519,136.484 C670.619,136.025 670.258,134.926 670.711,134.023 L674.384,126.677 C674.649,126.042 675.247,125.607 675.933,125.552 C676.619,125.497 677.278,125.831 677.641,126.416 C678.003,127.001 678.008,127.74 677.653,128.33 L673.98,135.676 C673.669,136.293 673.037,136.684 672.346,136.686 Z" />
            <path d="M650.308,136.686 C650.02,136.689 649.736,136.62 649.482,136.484 C648.581,136.025 648.22,134.926 648.674,134.023 L652.347,126.677 C652.611,126.042 653.209,125.607 653.895,125.552 C654.582,125.497 655.241,125.831 655.603,126.416 C655.966,127.001 655.971,127.74 655.616,128.33 L651.943,135.676 C651.632,136.293 651,136.684 650.308,136.686 Z" />
        </g>
    </g>
</svg>