<?xml version="1.0" encoding="UTF-8"?>
<svg height="600" width="800" xmlns="http://www.w3.org/2000/svg" xmlns:xlink="http://www.w3.org/1999/xlink">
    <style>
        .cls-1 { fill: none }
    </style>
    <g id="Notes" font-family="LucidaGrande, 'Lucida Grande', sans-serif" font-size="13">
        <rect fill="white" height="600.0" width="800.0" x="0.0" y="0.0" />
        <g font-size="13">
            <text x="18.0" y="176.0">Small</text>
            <text x="18.0" y="376.0">Medium</text>
            <text x="18.0" y="576.0">Large</text>
        </g>
        <g font-size="9">
            <text x="250.0" y="30.0">Ultralight</text>
            <text x="450.0" y="30.0">Regular</text>
            <text x="650.0" y="30.0">Black</text>
            <text id="template-version" fill="#505050" text-anchor="end" x="785.0" y="575.0">Template v.3.0</text>
            <a href="https://github.com/swhitty/SwiftDraw">
                <text fill="#505050" text-anchor="end" x="785.0" y="590.0">https://github.com/swhitty/SwiftDraw</text>
            </a>
        </g>
    </g>
    <g id="Guides" stroke="rgb(39, 170, 225)" stroke-width="0.5">
        <path id="Capline-S" d="M18,76 l800,0" />
        <path id="H-reference" d="M85,145.755 L87.685,145.755 L113.369,79.287 L114.052,79.287 L114.052,76 L112.148,76 L85,145.755 Z M95.693,121.536 L130.996,121.536 L130.263,119.313 L96.474,119.313 L95.693,121.536 Z M139.15,145.755 L141.787,145.755 L114.638,76 L113.466,76 L113.466,79.287 L139.15,145.755 Z" stroke="none" transform="translate(0,0)" />
        <path id="Baseline-S" d="M18,146 l800,0" />
        <path id="left-margin-Ultralight-S" d="M221,56 l0,110" />
        <path id="right-margin-Ultralight-S" d="M309,56 l0,110" />
        <path id="left-margin-Regular-S" d="M421,56 l0,110" />
        <path id="right-margin-Regular-S" d="M509,56 l0,110" />
        <path id="left-margin-Black-S" d="M621,56 l0,110" />
        <path id="right-margin-Black-S" d="M709,56 l0,110" />
        <path id="Capline-M" d="M18,276 l800,0" />
        <path id="Baseline-M" d="M18,346 l800,0" />
        <path id="Capline-L" d="M18,476 l800,0" />
        <path id="Baseline-L" d="M18,546 l800,0" />
    </g>
    <g id="Symbols">
        <g id="Ultralight-S" transform="translate(0,0)">
            <path d="M288.833,100 L241.167,100 C240.68,100 240.214,100.193 239.87,100.537 C239.526,100.881 239.333,101.347 239.333,101.833 L239.333,120.167 C239.333,120.653 239.526,121.119 239.87,121.463 C240.214,121.807 240.68,122 241.167,122 L288.833,122 C289.32,122 289.786,121.807 290.13,121.463 C290.474,121.119 290.667,120.653 290.667,120.167 L290.667,101.833 C290.667,101.347 290.474,100.881 290.13,100.537 C289.786,100.193 289.32,100 288.833,100 Z M287,118.333 L243,118.333 L243,103.667 L250.333,103.667 L250.333,111 L254,111 L254,103.667 L263.167,103.667 L263.167,111 L266.833,111 L266.833,103.667 L276,103.667 L276,111 L279.667,111 L279.667,103.667 L287,103.667 Z" />
        </g>
        <g id="Regular-S" transform="translate(0,0)">
            <path d="M488.833,100 L441.167,100 C440.68,100 440.214,100.193 439.87,100.537 C439.526,100.881 439.333,101.347 439.333,101.833 L439.333,120.167 C439.333,120.653 439.526,121.119 439.87,121.463 C440.214,121.807 440.68,122 441.167,122 L488.833,122 C489.32,122 489.786,121.807 490.13,121.463 C490.474,121.119 490.667,120.653 490.667,120.167 L490.667,101.833 C490.667,101.347 490.474,100.881 490.13,100.537 C489.786,100.193 489.32,100 488.833,100 Z M487,118.333 L443,118.333 L443,103.667 L450.333,103.667 L450.333,111 L454,111 L454,103.667 L463.167,103.667 L463.167,111 L466.833,111 L466.833,103.667 L476,103.667 L476,111 L479.667,111 L479.667,103.667 L487,103.667 Z" />
        </g>
        <g id="Black-S" transform="translate(0,0)">
            <path d="M688.833,100 L641.167,100 C640.68,100 640.214,100.193 639.87,100.537 C639.526,100.881 639.333,101.347 639.333,101.833 L639.333,120.167 C639.333,120.653 639.526,121.119 639.87,121.463 C640.214,121.807 640.68,122 641.167,122 L688.833,122 C689.32,122 689.786,121.807 690.13,121.463 C690.474,121.119 690.667,120.653 690.667,120.167 L690.667,101.833 C690.667,101.347 690.474,100.881 690.13,100.537 C689.786,100.193 689.32,100 688.833,100 Z M687,118.333 L643,118.333 L643,103.667 L650.333,103.667 L650.333,111 L654,111 L654,103.667 L663.167,103.667 L663.167,111 L666.833,111 L666.833,103.667 L676,103.667 L676,111 L679.667,111 L679.667,103.667 L687,103.667 Z" />
        </g>
    </g>
</svg>